<?xml version="1.0" standalone="no"?>
<!DOCTYPE svg PUBLIC "-//W3C//DTD SVG 20010904//EN"
 "http://www.w3.org/TR/2001/REC-SVG-20010904/DTD/svg10.dtd">
<svg version="1.0" xmlns="http://www.w3.org/2000/svg"
 width="260.000000pt" height="260.000000pt" viewBox="0 0 260.000000 260.000000"
 preserveAspectRatio="xMidYMid meet">
<metadata>
Created by potrace 1.14, written by Peter Selinger 2001-2017
</metadata>
<g transform="translate(0.000000,260.000000) scale(0.100000,-0.100000)"
fill="#000000" stroke="none">
<path d="M672 2378 c-9 -12 -582 -1001 -611 -1056 -11 -21 13 -68 299 -563
l312 -539 129 0 c122 0 129 1 129 20 0 19 -7 20 -110 20 l-110 0 -24 38 c-13
20 -149 253 -301 517 -232 400 -276 483 -269 501 5 12 139 248 299 523 l290
501 112 0 113 0 0 25 0 25 -124 0 c-87 0 -127 -4 -134 -12z"/>
<path d="M1670 2365 l0 -25 114 0 114 0 299 -517 c164 -285 297 -522 295 -528
-2 -5 -136 -241 -299 -522 l-296 -513 -113 0 c-108 0 -114 -1 -114 -20 0 -20
5 -20 132 -18 l132 3 308 534 c169 293 308 537 308 542 0 11 -598 1049 -618
1072 -13 14 -33 17 -139 17 l-123 0 0 -25z"/>
</g>
</svg>
