<svg xmlns="http://www.w3.org/2000/svg" xmlns:xlink="http://www.w3.org/1999/xlink" width="400" zoomAndPan="magnify" viewBox="0 0 300 74.999997" height="100" preserveAspectRatio="xMidYMid meet" version="1.0"><defs><g/><clipPath id="706da3899f"><path d="M 11.640625 16.046875 L 69.390625 16.046875 L 69.390625 65.546875 L 11.640625 65.546875 Z M 11.640625 16.046875 " clip-rule="nonzero"/></clipPath></defs><rect x="-30" width="360" fill="#ffffff" y="-7.5" height="89.999996" fill-opacity="1"/><rect x="-30" width="360" fill="#ffffff" y="-7.5" height="89.999996" fill-opacity="1"/><g fill="#004aad" fill-opacity="1"><g transform="translate(73.644667, 35.393611)"><g><path d="M 7.589844 0.273438 C 9.328125 0.273438 10.824219 -0.21875 12.023438 -1.195312 C 13.21875 -2.175781 13.816406 -3.535156 13.816406 -5.25 C 13.816406 -6.5 13.464844 -7.5625 12.785156 -8.433594 C 12.078125 -9.277344 11.234375 -9.929688 10.253906 -10.390625 C 9.277344 -10.824219 8.269531 -11.261719 7.289062 -11.667969 C 6.3125 -12.050781 5.46875 -12.566406 4.789062 -13.21875 C 4.082031 -13.84375 3.753906 -14.632812 3.753906 -15.558594 C 3.753906 -16.59375 4.105469 -17.410156 4.839844 -17.980469 C 5.578125 -18.523438 6.472656 -18.824219 7.5625 -18.824219 C 9.25 -18.824219 10.527344 -18.199219 11.398438 -16.945312 L 12.8125 -18.171875 C 12.242188 -18.878906 11.480469 -19.476562 10.554688 -19.964844 C 9.628906 -20.429688 8.59375 -20.671875 7.507812 -20.671875 C 5.929688 -20.671875 4.597656 -20.183594 3.507812 -19.230469 C 2.421875 -18.277344 1.902344 -17 1.902344 -15.421875 C 1.902344 -14.523438 2.066406 -13.738281 2.449219 -13.082031 C 2.828125 -12.402344 3.292969 -11.859375 3.890625 -11.453125 C 4.488281 -11.015625 5.140625 -10.636719 5.875 -10.308594 C 6.582031 -9.984375 7.316406 -9.65625 8.023438 -9.355469 C 8.730469 -9.058594 9.382812 -8.730469 9.984375 -8.40625 C 10.582031 -8.050781 11.042969 -7.617188 11.425781 -7.070312 C 11.804688 -6.527344 11.996094 -5.902344 11.996094 -5.195312 C 11.996094 -4.054688 11.558594 -3.183594 10.746094 -2.53125 C 9.902344 -1.875 8.867188 -1.578125 7.617188 -1.578125 C 6.417969 -1.578125 5.414062 -1.851562 4.542969 -2.449219 C 3.671875 -3.019531 3.074219 -3.78125 2.71875 -4.761719 L 1.035156 -3.808594 C 1.550781 -2.558594 2.394531 -1.578125 3.589844 -0.84375 C 4.761719 -0.0820312 6.09375 0.273438 7.589844 0.273438 Z M 7.589844 0.273438 "/></g></g></g><g fill="#004aad" fill-opacity="1"><g transform="translate(88.519204, 35.393611)"><g><path d="M 8.59375 0.273438 C 10.554688 0.273438 12.214844 -0.40625 13.601562 -1.796875 C 14.960938 -3.15625 15.667969 -4.839844 15.667969 -6.800781 C 15.667969 -8.757812 14.960938 -10.417969 13.601562 -11.804688 C 12.214844 -13.164062 10.554688 -13.871094 8.59375 -13.871094 C 6.636719 -13.871094 4.976562 -13.164062 3.589844 -11.804688 C 2.203125 -10.417969 1.523438 -8.757812 1.523438 -6.800781 C 1.523438 -4.839844 2.203125 -3.15625 3.589844 -1.796875 C 4.976562 -0.40625 6.636719 0.273438 8.59375 0.273438 Z M 8.59375 -1.496094 C 7.125 -1.496094 5.875 -2.011719 4.839844 -3.046875 C 3.808594 -4.082031 3.320312 -5.332031 3.320312 -6.800781 C 3.320312 -8.269531 3.808594 -9.519531 4.839844 -10.554688 C 5.875 -11.585938 7.125 -12.105469 8.59375 -12.105469 C 10.0625 -12.105469 11.316406 -11.585938 12.347656 -10.554688 C 13.382812 -9.519531 13.898438 -8.269531 13.898438 -6.800781 C 13.898438 -5.332031 13.382812 -4.082031 12.347656 -3.046875 C 11.316406 -2.011719 10.0625 -1.496094 8.59375 -1.496094 Z M 8.59375 -1.496094 "/></g></g></g><g fill="#004aad" fill-opacity="1"><g transform="translate(105.732336, 35.393611)"><g><path d="M 2.53125 0 L 4.296875 0 L 4.296875 -20.402344 L 2.53125 -20.402344 Z M 2.53125 0 "/></g></g></g><g fill="#004aad" fill-opacity="1"><g transform="translate(112.557766, 35.393611)"><g><path d="M 3.453125 -18.035156 C 3.808594 -18.035156 4.105469 -18.144531 4.378906 -18.414062 C 4.652344 -18.660156 4.789062 -18.960938 4.789062 -19.339844 C 4.789062 -19.71875 4.652344 -20.019531 4.378906 -20.292969 C 4.105469 -20.535156 3.808594 -20.671875 3.453125 -20.671875 C 3.074219 -20.671875 2.773438 -20.535156 2.503906 -20.292969 C 2.230469 -20.019531 2.121094 -19.71875 2.121094 -19.339844 C 2.121094 -18.960938 2.230469 -18.660156 2.503906 -18.414062 C 2.773438 -18.144531 3.074219 -18.035156 3.453125 -18.035156 Z M 2.558594 0 L 4.324219 0 L 4.324219 -13.601562 L 2.558594 -13.601562 Z M 2.558594 0 "/></g></g></g><g fill="#004aad" fill-opacity="1"><g transform="translate(119.437585, 35.393611)"><g><path d="M 13.789062 -20.402344 L 13.789062 -11.34375 C 12.457031 -13.027344 10.664062 -13.871094 8.40625 -13.871094 C 6.527344 -13.871094 4.921875 -13.164062 3.5625 -11.777344 C 2.203125 -10.390625 1.523438 -8.730469 1.523438 -6.800781 C 1.523438 -4.839844 2.203125 -3.183594 3.5625 -1.796875 C 4.921875 -0.40625 6.527344 0.273438 8.40625 0.273438 C 10.664062 0.273438 12.457031 -0.570312 13.789062 -2.257812 L 13.789062 0 L 15.585938 0 L 15.585938 -20.402344 Z M 8.59375 -1.496094 C 7.125 -1.496094 5.902344 -2.011719 4.867188 -3.046875 C 3.835938 -4.082031 3.320312 -5.332031 3.320312 -6.800781 C 3.320312 -8.269531 3.835938 -9.519531 4.867188 -10.554688 C 5.902344 -11.585938 7.125 -12.105469 8.59375 -12.105469 C 10.0625 -12.105469 11.316406 -11.585938 12.347656 -10.554688 C 13.382812 -9.519531 13.898438 -8.269531 13.898438 -6.800781 C 13.898438 -5.332031 13.382812 -4.082031 12.347656 -3.046875 C 11.316406 -2.011719 10.0625 -1.496094 8.59375 -1.496094 Z M 8.59375 -1.496094 "/></g></g></g><g fill="#004aad" fill-opacity="1"><g transform="translate(137.52089, 35.393611)"><g/></g></g><g fill="#004aad" fill-opacity="1"><g transform="translate(145.13492, 35.393611)"><g><path d="M 12.648438 0.273438 C 13.953125 0.273438 15.285156 0 16.621094 -0.542969 C 17.953125 -1.089844 19.09375 -1.851562 20.046875 -2.800781 L 18.714844 -4.105469 C 17.054688 -2.421875 15.042969 -1.578125 12.648438 -1.578125 C 10.226562 -1.578125 8.1875 -2.394531 6.5 -4.082031 C 4.816406 -5.738281 4 -7.78125 4 -10.199219 C 4 -12.59375 4.816406 -14.632812 6.5 -16.320312 C 8.1875 -17.980469 10.226562 -18.824219 12.648438 -18.824219 C 15.042969 -18.824219 17.054688 -17.980469 18.714844 -16.292969 L 20.046875 -17.597656 C 19.09375 -18.523438 17.953125 -19.285156 16.621094 -19.828125 C 15.285156 -20.375 13.953125 -20.671875 12.648438 -20.671875 C 9.710938 -20.671875 7.234375 -19.640625 5.222656 -17.625 C 3.183594 -15.585938 2.175781 -13.109375 2.175781 -10.199219 C 2.175781 -7.261719 3.183594 -4.789062 5.222656 -2.773438 C 7.234375 -0.734375 9.710938 0.273438 12.648438 0.273438 Z M 12.648438 0.273438 "/></g></g></g><g fill="#004aad" fill-opacity="1"><g transform="translate(166.318224, 35.393611)"><g><path d="M 8.59375 0.273438 C 10.554688 0.273438 12.214844 -0.40625 13.601562 -1.796875 C 14.960938 -3.15625 15.667969 -4.839844 15.667969 -6.800781 C 15.667969 -8.757812 14.960938 -10.417969 13.601562 -11.804688 C 12.214844 -13.164062 10.554688 -13.871094 8.59375 -13.871094 C 6.636719 -13.871094 4.976562 -13.164062 3.589844 -11.804688 C 2.203125 -10.417969 1.523438 -8.757812 1.523438 -6.800781 C 1.523438 -4.839844 2.203125 -3.15625 3.589844 -1.796875 C 4.976562 -0.40625 6.636719 0.273438 8.59375 0.273438 Z M 8.59375 -1.496094 C 7.125 -1.496094 5.875 -2.011719 4.839844 -3.046875 C 3.808594 -4.082031 3.320312 -5.332031 3.320312 -6.800781 C 3.320312 -8.269531 3.808594 -9.519531 4.839844 -10.554688 C 5.875 -11.585938 7.125 -12.105469 8.59375 -12.105469 C 10.0625 -12.105469 11.316406 -11.585938 12.347656 -10.554688 C 13.382812 -9.519531 13.898438 -8.269531 13.898438 -6.800781 C 13.898438 -5.332031 13.382812 -4.082031 12.347656 -3.046875 C 11.316406 -2.011719 10.0625 -1.496094 8.59375 -1.496094 Z M 8.59375 -1.496094 "/></g></g></g><g fill="#004aad" fill-opacity="1"><g transform="translate(183.531356, 35.393611)"><g><path d="M 15.558594 -13.871094 C 13.84375 -13.871094 12.484375 -13.136719 11.507812 -11.695312 C 11.042969 -12.347656 10.472656 -12.894531 9.792969 -13.273438 C 9.085938 -13.65625 8.378906 -13.871094 7.644531 -13.871094 C 6.285156 -13.871094 5.167969 -13.300781 4.296875 -12.160156 L 4.296875 -13.601562 L 2.53125 -13.601562 L 2.53125 0 L 4.296875 0 L 4.296875 -8.785156 C 4.296875 -9.710938 4.597656 -10.5 5.195312 -11.152344 C 5.792969 -11.777344 6.554688 -12.105469 7.453125 -12.105469 C 8.324219 -12.105469 9.058594 -11.777344 9.683594 -11.125 C 10.28125 -10.472656 10.609375 -9.710938 10.609375 -8.785156 L 10.609375 0 L 12.402344 0 L 12.402344 -8.785156 C 12.402344 -9.710938 12.703125 -10.472656 13.328125 -11.125 C 13.925781 -11.777344 14.6875 -12.105469 15.558594 -12.105469 C 16.429688 -12.105469 17.164062 -11.777344 17.789062 -11.125 C 18.386719 -10.472656 18.714844 -9.710938 18.714844 -8.785156 L 18.714844 0 L 20.480469 0 L 20.480469 -8.785156 C 20.480469 -10.199219 19.992188 -11.398438 19.039062 -12.375 C 18.0625 -13.355469 16.917969 -13.871094 15.558594 -13.871094 Z M 15.558594 -13.871094 "/></g></g></g><g fill="#004aad" fill-opacity="1"><g transform="translate(206.264655, 35.393611)"><g><path d="M 15.558594 -13.871094 C 13.84375 -13.871094 12.484375 -13.136719 11.507812 -11.695312 C 11.042969 -12.347656 10.472656 -12.894531 9.792969 -13.273438 C 9.085938 -13.65625 8.378906 -13.871094 7.644531 -13.871094 C 6.285156 -13.871094 5.167969 -13.300781 4.296875 -12.160156 L 4.296875 -13.601562 L 2.53125 -13.601562 L 2.53125 0 L 4.296875 0 L 4.296875 -8.785156 C 4.296875 -9.710938 4.597656 -10.5 5.195312 -11.152344 C 5.792969 -11.777344 6.554688 -12.105469 7.453125 -12.105469 C 8.324219 -12.105469 9.058594 -11.777344 9.683594 -11.125 C 10.28125 -10.472656 10.609375 -9.710938 10.609375 -8.785156 L 10.609375 0 L 12.402344 0 L 12.402344 -8.785156 C 12.402344 -9.710938 12.703125 -10.472656 13.328125 -11.125 C 13.925781 -11.777344 14.6875 -12.105469 15.558594 -12.105469 C 16.429688 -12.105469 17.164062 -11.777344 17.789062 -11.125 C 18.386719 -10.472656 18.714844 -9.710938 18.714844 -8.785156 L 18.714844 0 L 20.480469 0 L 20.480469 -8.785156 C 20.480469 -10.199219 19.992188 -11.398438 19.039062 -12.375 C 18.0625 -13.355469 16.917969 -13.871094 15.558594 -13.871094 Z M 15.558594 -13.871094 "/></g></g></g><g fill="#004aad" fill-opacity="1"><g transform="translate(228.997955, 35.393611)"><g><path d="M 7.152344 0.273438 C 8.648438 0.273438 9.875 -0.191406 10.824219 -1.140625 C 11.75 -2.066406 12.242188 -3.320312 12.242188 -4.839844 L 12.242188 -13.601562 L 10.472656 -13.601562 L 10.472656 -5.03125 C 10.472656 -3.972656 10.144531 -3.128906 9.546875 -2.476562 C 8.921875 -1.824219 8.132812 -1.496094 7.152344 -1.496094 C 6.175781 -1.496094 5.386719 -1.824219 4.761719 -2.476562 C 4.132812 -3.128906 3.835938 -3.972656 3.835938 -5.03125 L 3.835938 -13.601562 L 2.039062 -13.601562 L 2.039062 -4.839844 C 2.039062 -3.320312 2.503906 -2.066406 3.453125 -1.140625 C 4.40625 -0.191406 5.628906 0.273438 7.152344 0.273438 Z M 7.152344 0.273438 "/></g></g></g><g fill="#004aad" fill-opacity="1"><g transform="translate(243.274255, 35.393611)"><g><path d="M 7.886719 -13.871094 C 6.472656 -13.871094 5.277344 -13.355469 4.296875 -12.320312 L 4.296875 -13.601562 L 2.53125 -13.601562 L 2.53125 0 L 4.296875 0 L 4.296875 -8.949219 C 4.296875 -9.847656 4.652344 -10.609375 5.304688 -11.234375 C 5.957031 -11.859375 6.746094 -12.1875 7.699219 -12.1875 C 8.621094 -12.1875 9.410156 -11.859375 10.0625 -11.207031 C 10.71875 -10.554688 11.042969 -9.765625 11.042969 -8.839844 L 11.042969 0 L 12.839844 0 L 12.839844 -8.921875 C 12.839844 -10.28125 12.347656 -11.425781 11.398438 -12.402344 C 10.417969 -13.382812 9.25 -13.871094 7.886719 -13.871094 Z M 7.886719 -13.871094 "/></g></g></g><g fill="#004aad" fill-opacity="1"><g transform="translate(258.36634, 35.393611)"><g><path d="M 3.453125 -18.035156 C 3.808594 -18.035156 4.105469 -18.144531 4.378906 -18.414062 C 4.652344 -18.660156 4.789062 -18.960938 4.789062 -19.339844 C 4.789062 -19.71875 4.652344 -20.019531 4.378906 -20.292969 C 4.105469 -20.535156 3.808594 -20.671875 3.453125 -20.671875 C 3.074219 -20.671875 2.773438 -20.535156 2.503906 -20.292969 C 2.230469 -20.019531 2.121094 -19.71875 2.121094 -19.339844 C 2.121094 -18.960938 2.230469 -18.660156 2.503906 -18.414062 C 2.773438 -18.144531 3.074219 -18.035156 3.453125 -18.035156 Z M 2.558594 0 L 4.324219 0 L 4.324219 -13.601562 L 2.558594 -13.601562 Z M 2.558594 0 "/></g></g></g><g fill="#004aad" fill-opacity="1"><g transform="translate(265.246169, 35.393611)"><g><path d="M 8.460938 -13.601562 L 5.496094 -13.601562 L 5.496094 -18.496094 L 3.699219 -18.496094 L 3.699219 -13.601562 L 0.707031 -13.601562 L 0.707031 -11.914062 L 3.699219 -11.914062 L 3.699219 0 L 5.496094 0 L 5.496094 -11.914062 L 8.460938 -11.914062 Z M 8.460938 -13.601562 "/></g></g></g><g fill="#004aad" fill-opacity="1"><g transform="translate(274.410183, 35.393611)"><g><path d="M 11.261719 -13.601562 L 6.855469 -2.066406 L 2.3125 -13.601562 L 0.355469 -13.601562 L 5.875 0.109375 L 3.183594 6.800781 L 5.085938 6.800781 L 7.480469 0.816406 L 13.273438 -13.601562 Z M 11.261719 -13.601562 "/></g></g></g><g fill="#545454" fill-opacity="1"><g transform="translate(116.790993, 63.92387)"><g><path d="M 12.4375 -16.96875 L 12.4375 -18.578125 L 2.453125 -18.578125 L 2.453125 0 L 4.113281 0 L 4.113281 -8.472656 L 11.394531 -8.472656 L 11.394531 -10.105469 L 4.113281 -10.105469 L 4.113281 -16.96875 Z M 12.4375 -16.96875 "/></g></g></g><g fill="#545454" fill-opacity="1"><g transform="translate(129.842004, 63.92387)"><g><path d="M 7.828125 0.246094 C 9.613281 0.246094 11.121094 -0.371094 12.386719 -1.636719 C 13.625 -2.875 14.269531 -4.410156 14.269531 -6.191406 C 14.269531 -7.976562 13.625 -9.488281 12.386719 -10.75 C 11.121094 -11.988281 9.613281 -12.632812 7.828125 -12.632812 C 6.042969 -12.632812 4.535156 -11.988281 3.269531 -10.75 C 2.007812 -9.488281 1.386719 -7.976562 1.386719 -6.191406 C 1.386719 -4.410156 2.007812 -2.875 3.269531 -1.636719 C 4.535156 -0.371094 6.042969 0.246094 7.828125 0.246094 Z M 7.828125 -1.363281 C 6.492188 -1.363281 5.351562 -1.832031 4.410156 -2.773438 C 3.46875 -3.714844 3.023438 -4.855469 3.023438 -6.191406 C 3.023438 -7.53125 3.46875 -8.671875 4.410156 -9.613281 C 5.351562 -10.554688 6.492188 -11.023438 7.828125 -11.023438 C 9.164062 -11.023438 10.304688 -10.554688 11.246094 -9.613281 C 12.1875 -8.671875 12.660156 -7.53125 12.660156 -6.191406 C 12.660156 -4.855469 12.1875 -3.714844 11.246094 -2.773438 C 10.304688 -1.832031 9.164062 -1.363281 7.828125 -1.363281 Z M 7.828125 -1.363281 "/></g></g></g><g fill="#545454" fill-opacity="1"><g transform="translate(145.518071, 63.92387)"><g><path d="M 6.515625 0.246094 C 7.878906 0.246094 8.992188 -0.171875 9.859375 -1.039062 C 10.703125 -1.882812 11.148438 -3.023438 11.148438 -4.410156 L 11.148438 -12.386719 L 9.539062 -12.386719 L 9.539062 -4.582031 C 9.539062 -3.617188 9.242188 -2.847656 8.695312 -2.253906 C 8.125 -1.660156 7.40625 -1.363281 6.515625 -1.363281 C 5.625 -1.363281 4.90625 -1.660156 4.335938 -2.253906 C 3.765625 -2.847656 3.492188 -3.617188 3.492188 -4.582031 L 3.492188 -12.386719 L 1.859375 -12.386719 L 1.859375 -4.410156 C 1.859375 -3.023438 2.277344 -1.882812 3.144531 -1.039062 C 4.011719 -0.171875 5.128906 0.246094 6.515625 0.246094 Z M 6.515625 0.246094 "/></g></g></g><g fill="#545454" fill-opacity="1"><g transform="translate(158.519555, 63.92387)"><g><path d="M 7.183594 -12.632812 C 5.894531 -12.632812 4.804688 -12.164062 3.914062 -11.222656 L 3.914062 -12.386719 L 2.304688 -12.386719 L 2.304688 0 L 3.914062 0 L 3.914062 -8.148438 C 3.914062 -8.96875 4.234375 -9.660156 4.832031 -10.230469 C 5.425781 -10.800781 6.144531 -11.097656 7.011719 -11.097656 C 7.851562 -11.097656 8.570312 -10.800781 9.164062 -10.207031 C 9.761719 -9.613281 10.058594 -8.894531 10.058594 -8.050781 L 10.058594 0 L 11.691406 0 L 11.691406 -8.125 C 11.691406 -9.363281 11.246094 -10.40625 10.378906 -11.296875 C 9.488281 -12.1875 8.421875 -12.632812 7.183594 -12.632812 Z M 7.183594 -12.632812 "/></g></g></g><g fill="#545454" fill-opacity="1"><g transform="translate(172.263976, 63.92387)"><g><path d="M 12.558594 -18.578125 L 12.558594 -10.332031 C 11.347656 -11.867188 9.710938 -12.632812 7.65625 -12.632812 C 5.945312 -12.632812 4.484375 -11.988281 3.246094 -10.726562 C 2.007812 -9.464844 1.386719 -7.953125 1.386719 -6.191406 C 1.386719 -4.410156 2.007812 -2.898438 3.246094 -1.636719 C 4.484375 -0.371094 5.945312 0.246094 7.65625 0.246094 C 9.710938 0.246094 11.347656 -0.519531 12.558594 -2.054688 L 12.558594 0 L 14.195312 0 L 14.195312 -18.578125 Z M 7.828125 -1.363281 C 6.492188 -1.363281 5.375 -1.832031 4.433594 -2.773438 C 3.492188 -3.714844 3.023438 -4.855469 3.023438 -6.191406 C 3.023438 -7.53125 3.492188 -8.671875 4.433594 -9.613281 C 5.375 -10.554688 6.492188 -11.023438 7.828125 -11.023438 C 9.164062 -11.023438 10.304688 -10.554688 11.246094 -9.613281 C 12.1875 -8.671875 12.660156 -7.53125 12.660156 -6.191406 C 12.660156 -4.855469 12.1875 -3.714844 11.246094 -2.773438 C 10.304688 -1.832031 9.164062 -1.363281 7.828125 -1.363281 Z M 7.828125 -1.363281 "/></g></g></g><g fill="#545454" fill-opacity="1"><g transform="translate(188.732514, 63.92387)"><g><path d="M 12.660156 -12.386719 L 12.660156 -10.179688 C 11.46875 -11.816406 9.808594 -12.632812 7.65625 -12.632812 C 5.945312 -12.632812 4.484375 -11.988281 3.246094 -10.726562 C 2.007812 -9.464844 1.386719 -7.953125 1.386719 -6.191406 C 1.386719 -4.410156 2.007812 -2.898438 3.246094 -1.636719 C 4.484375 -0.371094 5.945312 0.246094 7.65625 0.246094 C 9.808594 0.246094 11.46875 -0.570312 12.660156 -2.203125 L 12.660156 0 L 14.269531 0 L 14.269531 -12.386719 Z M 7.828125 -1.363281 C 6.492188 -1.363281 5.375 -1.832031 4.433594 -2.773438 C 3.492188 -3.714844 3.023438 -4.855469 3.023438 -6.191406 C 3.023438 -7.53125 3.492188 -8.671875 4.433594 -9.613281 C 5.375 -10.554688 6.492188 -11.023438 7.828125 -11.023438 C 9.164062 -11.023438 10.304688 -10.554688 11.246094 -9.613281 C 12.1875 -8.671875 12.660156 -7.53125 12.660156 -6.191406 C 12.660156 -4.855469 12.1875 -3.714844 11.246094 -2.773438 C 10.304688 -1.832031 9.164062 -1.363281 7.828125 -1.363281 Z M 7.828125 -1.363281 "/></g></g></g><g fill="#545454" fill-opacity="1"><g transform="translate(205.300114, 63.92387)"><g><path d="M 7.703125 -12.386719 L 5.003906 -12.386719 L 5.003906 -16.84375 L 3.367188 -16.84375 L 3.367188 -12.386719 L 0.644531 -12.386719 L 0.644531 -10.851562 L 3.367188 -10.851562 L 3.367188 0 L 5.003906 0 L 5.003906 -10.851562 L 7.703125 -10.851562 Z M 7.703125 -12.386719 "/></g></g></g><g fill="#545454" fill-opacity="1"><g transform="translate(213.645825, 63.92387)"><g><path d="M 3.144531 -16.425781 C 3.46875 -16.425781 3.742188 -16.523438 3.988281 -16.769531 C 4.234375 -16.992188 4.359375 -17.265625 4.359375 -17.613281 C 4.359375 -17.960938 4.234375 -18.234375 3.988281 -18.480469 C 3.742188 -18.703125 3.46875 -18.828125 3.144531 -18.828125 C 2.800781 -18.828125 2.527344 -18.703125 2.277344 -18.480469 C 2.03125 -18.234375 1.933594 -17.960938 1.933594 -17.613281 C 1.933594 -17.265625 2.03125 -16.992188 2.277344 -16.769531 C 2.527344 -16.523438 2.800781 -16.425781 3.144531 -16.425781 Z M 2.328125 0 L 3.9375 0 L 3.9375 -12.386719 L 2.328125 -12.386719 Z M 2.328125 0 "/></g></g></g><g fill="#545454" fill-opacity="1"><g transform="translate(219.9113, 63.92387)"><g><path d="M 7.828125 0.246094 C 9.613281 0.246094 11.121094 -0.371094 12.386719 -1.636719 C 13.625 -2.875 14.269531 -4.410156 14.269531 -6.191406 C 14.269531 -7.976562 13.625 -9.488281 12.386719 -10.75 C 11.121094 -11.988281 9.613281 -12.632812 7.828125 -12.632812 C 6.042969 -12.632812 4.535156 -11.988281 3.269531 -10.75 C 2.007812 -9.488281 1.386719 -7.976562 1.386719 -6.191406 C 1.386719 -4.410156 2.007812 -2.875 3.269531 -1.636719 C 4.535156 -0.371094 6.042969 0.246094 7.828125 0.246094 Z M 7.828125 -1.363281 C 6.492188 -1.363281 5.351562 -1.832031 4.410156 -2.773438 C 3.46875 -3.714844 3.023438 -4.855469 3.023438 -6.191406 C 3.023438 -7.53125 3.46875 -8.671875 4.410156 -9.613281 C 5.351562 -10.554688 6.492188 -11.023438 7.828125 -11.023438 C 9.164062 -11.023438 10.304688 -10.554688 11.246094 -9.613281 C 12.1875 -8.671875 12.660156 -7.53125 12.660156 -6.191406 C 12.660156 -4.855469 12.1875 -3.714844 11.246094 -2.773438 C 10.304688 -1.832031 9.164062 -1.363281 7.828125 -1.363281 Z M 7.828125 -1.363281 "/></g></g></g><g fill="#545454" fill-opacity="1"><g transform="translate(235.587366, 63.92387)"><g><path d="M 7.183594 -12.632812 C 5.894531 -12.632812 4.804688 -12.164062 3.914062 -11.222656 L 3.914062 -12.386719 L 2.304688 -12.386719 L 2.304688 0 L 3.914062 0 L 3.914062 -8.148438 C 3.914062 -8.96875 4.234375 -9.660156 4.832031 -10.230469 C 5.425781 -10.800781 6.144531 -11.097656 7.011719 -11.097656 C 7.851562 -11.097656 8.570312 -10.800781 9.164062 -10.207031 C 9.761719 -9.613281 10.058594 -8.894531 10.058594 -8.050781 L 10.058594 0 L 11.691406 0 L 11.691406 -8.125 C 11.691406 -9.363281 11.246094 -10.40625 10.378906 -11.296875 C 9.488281 -12.1875 8.421875 -12.632812 7.183594 -12.632812 Z M 7.183594 -12.632812 "/></g></g></g><g clip-path="url(#706da3899f)"><path fill="#545454" d="M 32.058594 16.046875 L 32.058594 17.164062 L 26.746094 17.164062 L 12.964844 40.796875 L 26.746094 64.429688 L 32.058594 64.429688 L 32.058594 65.546875 L 26.089844 65.546875 L 11.667969 40.796875 L 26.089844 16.046875 Z M 54.9375 16.046875 L 48.972656 16.046875 L 48.972656 17.164062 L 54.285156 17.164062 L 68.054688 40.796875 L 54.285156 64.429688 L 48.972656 64.429688 L 48.972656 65.546875 L 54.9375 65.546875 L 69.363281 40.796875 Z M 54.9375 16.046875 " fill-opacity="1" fill-rule="nonzero"/></g></svg>