<svg xmlns="http://www.w3.org/2000/svg" xmlns:xlink="http://www.w3.org/1999/xlink" width="400" zoomAndPan="magnify" viewBox="0 0 300 112.499997" height="150" preserveAspectRatio="xMidYMid meet" version="1.0"><defs><g/><clipPath id="181a7d512a"><path d="M 0.664062 0 L 299.335938 0 L 299.335938 112.003906 L 0.664062 112.003906 Z M 0.664062 0 " clip-rule="nonzero"/></clipPath><clipPath id="0ddb4448fb"><path d="M 4.902344 34.304688 L 61.648438 34.304688 L 61.648438 83.585938 L 4.902344 83.585938 Z M 4.902344 34.304688 " clip-rule="nonzero"/></clipPath></defs><g clip-path="url(#181a7d512a)"><path fill="#ffffff" d="M 0.664062 0 L 299.335938 0 L 299.335938 112.003906 L 0.664062 112.003906 Z M 0.664062 0 " fill-opacity="1" fill-rule="nonzero"/><path fill="#ffffff" d="M 0.664062 0 L 299.335938 0 L 299.335938 112.003906 L 0.664062 112.003906 Z M 0.664062 0 " fill-opacity="1" fill-rule="nonzero"/></g><g fill="#004aad" fill-opacity="1"><g transform="translate(65.886957, 53.929532)"><g><path d="M 7.464844 0.265625 C 9.175781 0.265625 10.648438 -0.214844 11.824219 -1.175781 C 13 -2.140625 13.589844 -3.476562 13.589844 -5.164062 C 13.589844 -6.394531 13.242188 -7.4375 12.574219 -8.292969 C 11.878906 -9.121094 11.046875 -9.765625 10.085938 -10.21875 C 9.121094 -10.648438 8.132812 -11.074219 7.167969 -11.476562 C 6.207031 -11.851562 5.378906 -12.359375 4.707031 -13 C 4.011719 -13.617188 3.691406 -14.390625 3.691406 -15.300781 C 3.691406 -16.316406 4.039062 -17.121094 4.761719 -17.683594 C 5.484375 -18.21875 6.367188 -18.511719 7.4375 -18.511719 C 9.09375 -18.511719 10.351562 -17.898438 11.207031 -16.667969 L 12.601562 -17.871094 C 12.039062 -18.566406 11.289062 -19.152344 10.378906 -19.636719 C 9.46875 -20.089844 8.453125 -20.332031 7.382812 -20.332031 C 5.832031 -20.332031 4.519531 -19.847656 3.449219 -18.914062 C 2.382812 -17.976562 1.871094 -16.71875 1.871094 -15.167969 C 1.871094 -14.285156 2.03125 -13.507812 2.40625 -12.867188 C 2.78125 -12.199219 3.238281 -11.664062 3.824219 -11.261719 C 4.414062 -10.835938 5.054688 -10.460938 5.777344 -10.140625 C 6.472656 -9.816406 7.195312 -9.496094 7.890625 -9.203125 C 8.585938 -8.90625 9.230469 -8.585938 9.816406 -8.265625 C 10.40625 -7.917969 10.859375 -7.492188 11.234375 -6.957031 C 11.609375 -6.421875 11.796875 -5.804688 11.796875 -5.109375 C 11.796875 -3.984375 11.371094 -3.128906 10.566406 -2.488281 C 9.738281 -1.847656 8.722656 -1.550781 7.492188 -1.550781 C 6.3125 -1.550781 5.324219 -1.820312 4.46875 -2.40625 C 3.613281 -2.96875 3.023438 -3.71875 2.675781 -4.679688 L 1.015625 -3.746094 C 1.523438 -2.515625 2.355469 -1.550781 3.53125 -0.828125 C 4.679688 -0.0820312 5.992188 0.265625 7.464844 0.265625 Z M 7.464844 0.265625 "/></g></g></g><g fill="#004aad" fill-opacity="1"><g transform="translate(80.515643, 53.929532)"><g><path d="M 8.453125 0.265625 C 10.378906 0.265625 12.011719 -0.402344 13.375 -1.765625 C 14.714844 -3.101562 15.410156 -4.761719 15.410156 -6.6875 C 15.410156 -8.613281 14.714844 -10.246094 13.375 -11.609375 C 12.011719 -12.949219 10.378906 -13.644531 8.453125 -13.644531 C 6.527344 -13.644531 4.894531 -12.949219 3.53125 -11.609375 C 2.167969 -10.246094 1.5 -8.613281 1.5 -6.6875 C 1.5 -4.761719 2.167969 -3.101562 3.53125 -1.765625 C 4.894531 -0.402344 6.527344 0.265625 8.453125 0.265625 Z M 8.453125 -1.472656 C 7.007812 -1.472656 5.777344 -1.980469 4.761719 -2.996094 C 3.746094 -4.011719 3.261719 -5.242188 3.261719 -6.6875 C 3.261719 -8.132812 3.746094 -9.363281 4.761719 -10.378906 C 5.777344 -11.394531 7.007812 -11.90625 8.453125 -11.90625 C 9.898438 -11.90625 11.128906 -11.394531 12.144531 -10.378906 C 13.160156 -9.363281 13.667969 -8.132812 13.667969 -6.6875 C 13.667969 -5.242188 13.160156 -4.011719 12.144531 -2.996094 C 11.128906 -1.980469 9.898438 -1.472656 8.453125 -1.472656 Z M 8.453125 -1.472656 "/></g></g></g><g fill="#004aad" fill-opacity="1"><g transform="translate(97.444271, 53.929532)"><g><path d="M 2.488281 0 L 4.226562 0 L 4.226562 -20.0625 L 2.488281 -20.0625 Z M 2.488281 0 "/></g></g></g><g fill="#004aad" fill-opacity="1"><g transform="translate(104.156888, 53.929532)"><g><path d="M 3.398438 -17.734375 C 3.746094 -17.734375 4.039062 -17.84375 4.308594 -18.109375 C 4.574219 -18.351562 4.707031 -18.644531 4.707031 -19.019531 C 4.707031 -19.394531 4.574219 -19.6875 4.308594 -19.957031 C 4.039062 -20.195312 3.746094 -20.332031 3.398438 -20.332031 C 3.023438 -20.332031 2.730469 -20.195312 2.460938 -19.957031 C 2.195312 -19.6875 2.085938 -19.394531 2.085938 -19.019531 C 2.085938 -18.644531 2.195312 -18.351562 2.460938 -18.109375 C 2.730469 -17.84375 3.023438 -17.734375 3.398438 -17.734375 Z M 2.515625 0 L 4.253906 0 L 4.253906 -13.375 L 2.515625 -13.375 Z M 2.515625 0 "/></g></g></g><g fill="#004aad" fill-opacity="1"><g transform="translate(110.922995, 53.929532)"><g><path d="M 13.5625 -20.0625 L 13.5625 -11.15625 C 12.253906 -12.8125 10.488281 -13.644531 8.265625 -13.644531 C 6.421875 -13.644531 4.84375 -12.949219 3.503906 -11.582031 C 2.167969 -10.21875 1.5 -8.585938 1.5 -6.6875 C 1.5 -4.761719 2.167969 -3.128906 3.503906 -1.765625 C 4.84375 -0.402344 6.421875 0.265625 8.265625 0.265625 C 10.488281 0.265625 12.253906 -0.5625 13.5625 -2.21875 L 13.5625 0 L 15.328125 0 L 15.328125 -20.0625 Z M 8.453125 -1.472656 C 7.007812 -1.472656 5.804688 -1.980469 4.789062 -2.996094 C 3.773438 -4.011719 3.261719 -5.242188 3.261719 -6.6875 C 3.261719 -8.132812 3.773438 -9.363281 4.789062 -10.378906 C 5.804688 -11.394531 7.007812 -11.90625 8.453125 -11.90625 C 9.898438 -11.90625 11.128906 -11.394531 12.144531 -10.378906 C 13.160156 -9.363281 13.667969 -8.132812 13.667969 -6.6875 C 13.667969 -5.242188 13.160156 -4.011719 12.144531 -2.996094 C 11.128906 -1.980469 9.898438 -1.472656 8.453125 -1.472656 Z M 8.453125 -1.472656 "/></g></g></g><g fill="#004aad" fill-opacity="1"><g transform="translate(128.707414, 53.929532)"><g/></g></g><g fill="#004aad" fill-opacity="1"><g transform="translate(136.195596, 53.929532)"><g><path d="M 12.4375 0.265625 C 13.722656 0.265625 15.035156 0 16.34375 -0.535156 C 17.65625 -1.070312 18.78125 -1.820312 19.714844 -2.753906 L 18.40625 -4.039062 C 16.773438 -2.382812 14.792969 -1.550781 12.4375 -1.550781 C 10.058594 -1.550781 8.050781 -2.355469 6.394531 -4.011719 C 4.734375 -5.644531 3.933594 -7.652344 3.933594 -10.03125 C 3.933594 -12.386719 4.734375 -14.390625 6.394531 -16.050781 C 8.050781 -17.683594 10.058594 -18.511719 12.4375 -18.511719 C 14.792969 -18.511719 16.773438 -17.683594 18.40625 -16.023438 L 19.714844 -17.308594 C 18.78125 -18.21875 17.65625 -18.964844 16.34375 -19.5 C 15.035156 -20.035156 13.722656 -20.332031 12.4375 -20.332031 C 9.550781 -20.332031 7.117188 -19.3125 5.136719 -17.335938 C 3.128906 -15.328125 2.140625 -12.894531 2.140625 -10.03125 C 2.140625 -7.144531 3.128906 -4.707031 5.136719 -2.730469 C 7.117188 -0.722656 9.550781 0.265625 12.4375 0.265625 Z M 12.4375 0.265625 "/></g></g></g><g fill="#004aad" fill-opacity="1"><g transform="translate(157.028776, 53.929532)"><g><path d="M 8.453125 0.265625 C 10.378906 0.265625 12.011719 -0.402344 13.375 -1.765625 C 14.714844 -3.101562 15.410156 -4.761719 15.410156 -6.6875 C 15.410156 -8.613281 14.714844 -10.246094 13.375 -11.609375 C 12.011719 -12.949219 10.378906 -13.644531 8.453125 -13.644531 C 6.527344 -13.644531 4.894531 -12.949219 3.53125 -11.609375 C 2.167969 -10.246094 1.5 -8.613281 1.5 -6.6875 C 1.5 -4.761719 2.167969 -3.101562 3.53125 -1.765625 C 4.894531 -0.402344 6.527344 0.265625 8.453125 0.265625 Z M 8.453125 -1.472656 C 7.007812 -1.472656 5.777344 -1.980469 4.761719 -2.996094 C 3.746094 -4.011719 3.261719 -5.242188 3.261719 -6.6875 C 3.261719 -8.132812 3.746094 -9.363281 4.761719 -10.378906 C 5.777344 -11.394531 7.007812 -11.90625 8.453125 -11.90625 C 9.898438 -11.90625 11.128906 -11.394531 12.144531 -10.378906 C 13.160156 -9.363281 13.667969 -8.132812 13.667969 -6.6875 C 13.667969 -5.242188 13.160156 -4.011719 12.144531 -2.996094 C 11.128906 -1.980469 9.898438 -1.472656 8.453125 -1.472656 Z M 8.453125 -1.472656 "/></g></g></g><g fill="#004aad" fill-opacity="1"><g transform="translate(173.957404, 53.929532)"><g><path d="M 15.300781 -13.644531 C 13.617188 -13.644531 12.277344 -12.921875 11.316406 -11.503906 C 10.859375 -12.144531 10.300781 -12.679688 9.628906 -13.054688 C 8.933594 -13.429688 8.238281 -13.644531 7.515625 -13.644531 C 6.179688 -13.644531 5.082031 -13.082031 4.226562 -11.957031 L 4.226562 -13.375 L 2.488281 -13.375 L 2.488281 0 L 4.226562 0 L 4.226562 -8.640625 C 4.226562 -9.550781 4.519531 -10.324219 5.109375 -10.96875 C 5.699219 -11.582031 6.445312 -11.90625 7.328125 -11.90625 C 8.1875 -11.90625 8.90625 -11.582031 9.523438 -10.941406 C 10.113281 -10.300781 10.433594 -9.550781 10.433594 -8.640625 L 10.433594 0 L 12.199219 0 L 12.199219 -8.640625 C 12.199219 -9.550781 12.492188 -10.300781 13.109375 -10.941406 C 13.695312 -11.582031 14.445312 -11.90625 15.300781 -11.90625 C 16.15625 -11.90625 16.878906 -11.582031 17.496094 -10.941406 C 18.082031 -10.300781 18.40625 -9.550781 18.40625 -8.640625 L 18.40625 0 L 20.144531 0 L 20.144531 -8.640625 C 20.144531 -10.03125 19.664062 -11.207031 18.726562 -12.171875 C 17.761719 -13.136719 16.640625 -13.644531 15.300781 -13.644531 Z M 15.300781 -13.644531 "/></g></g></g><g fill="#004aad" fill-opacity="1"><g transform="translate(196.31496, 53.929532)"><g><path d="M 15.300781 -13.644531 C 13.617188 -13.644531 12.277344 -12.921875 11.316406 -11.503906 C 10.859375 -12.144531 10.300781 -12.679688 9.628906 -13.054688 C 8.933594 -13.429688 8.238281 -13.644531 7.515625 -13.644531 C 6.179688 -13.644531 5.082031 -13.082031 4.226562 -11.957031 L 4.226562 -13.375 L 2.488281 -13.375 L 2.488281 0 L 4.226562 0 L 4.226562 -8.640625 C 4.226562 -9.550781 4.519531 -10.324219 5.109375 -10.96875 C 5.699219 -11.582031 6.445312 -11.90625 7.328125 -11.90625 C 8.1875 -11.90625 8.90625 -11.582031 9.523438 -10.941406 C 10.113281 -10.300781 10.433594 -9.550781 10.433594 -8.640625 L 10.433594 0 L 12.199219 0 L 12.199219 -8.640625 C 12.199219 -9.550781 12.492188 -10.300781 13.109375 -10.941406 C 13.695312 -11.582031 14.445312 -11.90625 15.300781 -11.90625 C 16.15625 -11.90625 16.878906 -11.582031 17.496094 -10.941406 C 18.082031 -10.300781 18.40625 -9.550781 18.40625 -8.640625 L 18.40625 0 L 20.144531 0 L 20.144531 -8.640625 C 20.144531 -10.03125 19.664062 -11.207031 18.726562 -12.171875 C 17.761719 -13.136719 16.640625 -13.644531 15.300781 -13.644531 Z M 15.300781 -13.644531 "/></g></g></g><g fill="#004aad" fill-opacity="1"><g transform="translate(218.672517, 53.929532)"><g><path d="M 7.035156 0.265625 C 8.507812 0.265625 9.710938 -0.1875 10.648438 -1.125 C 11.554688 -2.03125 12.039062 -3.261719 12.039062 -4.761719 L 12.039062 -13.375 L 10.300781 -13.375 L 10.300781 -4.949219 C 10.300781 -3.90625 9.976562 -3.078125 9.390625 -2.433594 C 8.773438 -1.792969 8 -1.472656 7.035156 -1.472656 C 6.074219 -1.472656 5.296875 -1.792969 4.679688 -2.433594 C 4.066406 -3.078125 3.773438 -3.90625 3.773438 -4.949219 L 3.773438 -13.375 L 2.007812 -13.375 L 2.007812 -4.761719 C 2.007812 -3.261719 2.460938 -2.03125 3.398438 -1.125 C 4.332031 -0.1875 5.539062 0.265625 7.035156 0.265625 Z M 7.035156 0.265625 "/></g></g></g><g fill="#004aad" fill-opacity="1"><g transform="translate(232.712854, 53.929532)"><g><path d="M 7.757812 -13.644531 C 6.367188 -13.644531 5.191406 -13.136719 4.226562 -12.117188 L 4.226562 -13.375 L 2.488281 -13.375 L 2.488281 0 L 4.226562 0 L 4.226562 -8.800781 C 4.226562 -9.683594 4.574219 -10.433594 5.214844 -11.046875 C 5.859375 -11.664062 6.632812 -11.984375 7.570312 -11.984375 C 8.480469 -11.984375 9.257812 -11.664062 9.898438 -11.023438 C 10.539062 -10.378906 10.859375 -9.605469 10.859375 -8.695312 L 10.859375 0 L 12.625 0 L 12.625 -8.773438 C 12.625 -10.113281 12.144531 -11.234375 11.207031 -12.199219 C 10.246094 -13.160156 9.09375 -13.644531 7.757812 -13.644531 Z M 7.757812 -13.644531 "/></g></g></g><g fill="#004aad" fill-opacity="1"><g transform="translate(247.555492, 53.929532)"><g><path d="M 3.398438 -17.734375 C 3.746094 -17.734375 4.039062 -17.84375 4.308594 -18.109375 C 4.574219 -18.351562 4.707031 -18.644531 4.707031 -19.019531 C 4.707031 -19.394531 4.574219 -19.6875 4.308594 -19.957031 C 4.039062 -20.195312 3.746094 -20.332031 3.398438 -20.332031 C 3.023438 -20.332031 2.730469 -20.195312 2.460938 -19.957031 C 2.195312 -19.6875 2.085938 -19.394531 2.085938 -19.019531 C 2.085938 -18.644531 2.195312 -18.351562 2.460938 -18.109375 C 2.730469 -17.84375 3.023438 -17.734375 3.398438 -17.734375 Z M 2.515625 0 L 4.253906 0 L 4.253906 -13.375 L 2.515625 -13.375 Z M 2.515625 0 "/></g></g></g><g fill="#004aad" fill-opacity="1"><g transform="translate(254.321608, 53.929532)"><g><path d="M 8.320312 -13.375 L 5.402344 -13.375 L 5.402344 -18.191406 L 3.636719 -18.191406 L 3.636719 -13.375 L 0.695312 -13.375 L 0.695312 -11.71875 L 3.636719 -11.71875 L 3.636719 0 L 5.402344 0 L 5.402344 -11.71875 L 8.320312 -11.71875 Z M 8.320312 -13.375 "/></g></g></g><g fill="#004aad" fill-opacity="1"><g transform="translate(263.334158, 53.929532)"><g><path d="M 11.074219 -13.375 L 6.742188 -2.03125 L 2.273438 -13.375 L 0.347656 -13.375 L 5.777344 0.105469 L 3.128906 6.6875 L 5.003906 6.6875 L 7.355469 0.800781 L 13.054688 -13.375 Z M 11.074219 -13.375 "/></g></g></g><g fill="#545454" fill-opacity="1"><g transform="translate(108.320147, 81.988234)"><g><path d="M 12.230469 -16.6875 L 12.230469 -18.273438 L 2.410156 -18.273438 L 2.410156 0 L 4.042969 0 L 4.042969 -8.332031 L 11.207031 -8.332031 L 11.207031 -9.941406 L 4.042969 -9.941406 L 4.042969 -16.6875 Z M 12.230469 -16.6875 "/></g></g></g><g fill="#545454" fill-opacity="1"><g transform="translate(121.155447, 81.988234)"><g><path d="M 7.699219 0.242188 C 9.453125 0.242188 10.9375 -0.367188 12.183594 -1.609375 C 13.398438 -2.824219 14.035156 -4.335938 14.035156 -6.089844 C 14.035156 -7.84375 13.398438 -9.332031 12.183594 -10.574219 C 10.9375 -11.792969 9.453125 -12.425781 7.699219 -12.425781 C 5.945312 -12.425781 4.457031 -11.792969 3.214844 -10.574219 C 1.972656 -9.332031 1.363281 -7.84375 1.363281 -6.089844 C 1.363281 -4.335938 1.972656 -2.824219 3.214844 -1.609375 C 4.457031 -0.367188 5.945312 0.242188 7.699219 0.242188 Z M 7.699219 -1.339844 C 6.382812 -1.339844 5.261719 -1.804688 4.335938 -2.730469 C 3.410156 -3.65625 2.972656 -4.773438 2.972656 -6.089844 C 2.972656 -7.40625 3.410156 -8.527344 4.335938 -9.453125 C 5.261719 -10.378906 6.382812 -10.839844 7.699219 -10.839844 C 9.015625 -10.839844 10.136719 -10.378906 11.0625 -9.453125 C 11.988281 -8.527344 12.449219 -7.40625 12.449219 -6.089844 C 12.449219 -4.773438 11.988281 -3.65625 11.0625 -2.730469 C 10.136719 -1.804688 9.015625 -1.339844 7.699219 -1.339844 Z M 7.699219 -1.339844 "/></g></g></g><g fill="#545454" fill-opacity="1"><g transform="translate(136.572415, 81.988234)"><g><path d="M 6.40625 0.242188 C 7.746094 0.242188 8.84375 -0.171875 9.695312 -1.023438 C 10.523438 -1.851562 10.964844 -2.972656 10.964844 -4.335938 L 10.964844 -12.183594 L 9.378906 -12.183594 L 9.378906 -4.507812 C 9.378906 -3.558594 9.085938 -2.800781 8.550781 -2.21875 C 7.992188 -1.632812 7.285156 -1.339844 6.40625 -1.339844 C 5.53125 -1.339844 4.824219 -1.632812 4.261719 -2.21875 C 3.703125 -2.800781 3.433594 -3.558594 3.433594 -4.507812 L 3.433594 -12.183594 L 1.828125 -12.183594 L 1.828125 -4.335938 C 1.828125 -2.972656 2.242188 -1.851562 3.09375 -1.023438 C 3.945312 -0.171875 5.042969 0.242188 6.40625 0.242188 Z M 6.40625 0.242188 "/></g></g></g><g fill="#545454" fill-opacity="1"><g transform="translate(149.359006, 81.988234)"><g><path d="M 7.066406 -12.425781 C 5.796875 -12.425781 4.726562 -11.960938 3.847656 -11.035156 L 3.847656 -12.183594 L 2.265625 -12.183594 L 2.265625 0 L 3.847656 0 L 3.847656 -8.015625 C 3.847656 -8.820312 4.167969 -9.5 4.75 -10.0625 C 5.335938 -10.621094 6.042969 -10.914062 6.894531 -10.914062 C 7.722656 -10.914062 8.429688 -10.621094 9.015625 -10.039062 C 9.597656 -9.453125 9.890625 -8.746094 9.890625 -7.917969 L 9.890625 0 L 11.5 0 L 11.5 -7.992188 C 11.5 -9.210938 11.0625 -10.234375 10.207031 -11.109375 C 9.332031 -11.988281 8.285156 -12.425781 7.066406 -12.425781 Z M 7.066406 -12.425781 "/></g></g></g><g fill="#545454" fill-opacity="1"><g transform="translate(162.876255, 81.988234)"><g><path d="M 12.351562 -18.273438 L 12.351562 -10.160156 C 11.160156 -11.671875 9.550781 -12.425781 7.527344 -12.425781 C 5.847656 -12.425781 4.410156 -11.792969 3.191406 -10.550781 C 1.972656 -9.308594 1.363281 -7.820312 1.363281 -6.089844 C 1.363281 -4.335938 1.972656 -2.851562 3.191406 -1.609375 C 4.410156 -0.367188 5.847656 0.242188 7.527344 0.242188 C 9.550781 0.242188 11.160156 -0.511719 12.351562 -2.023438 L 12.351562 0 L 13.960938 0 L 13.960938 -18.273438 Z M 7.699219 -1.339844 C 6.382812 -1.339844 5.285156 -1.804688 4.359375 -2.730469 C 3.433594 -3.65625 2.972656 -4.773438 2.972656 -6.089844 C 2.972656 -7.40625 3.433594 -8.527344 4.359375 -9.453125 C 5.285156 -10.378906 6.382812 -10.839844 7.699219 -10.839844 C 9.015625 -10.839844 10.136719 -10.378906 11.0625 -9.453125 C 11.988281 -8.527344 12.449219 -7.40625 12.449219 -6.089844 C 12.449219 -4.773438 11.988281 -3.65625 11.0625 -2.730469 C 10.136719 -1.804688 9.015625 -1.339844 7.699219 -1.339844 Z M 7.699219 -1.339844 "/></g></g></g><g fill="#545454" fill-opacity="1"><g transform="translate(179.072595, 81.988234)"><g><path d="M 12.449219 -12.183594 L 12.449219 -10.011719 C 11.28125 -11.621094 9.648438 -12.425781 7.527344 -12.425781 C 5.847656 -12.425781 4.410156 -11.792969 3.191406 -10.550781 C 1.972656 -9.308594 1.363281 -7.820312 1.363281 -6.089844 C 1.363281 -4.335938 1.972656 -2.851562 3.191406 -1.609375 C 4.410156 -0.367188 5.847656 0.242188 7.527344 0.242188 C 9.648438 0.242188 11.28125 -0.558594 12.449219 -2.167969 L 12.449219 0 L 14.035156 0 L 14.035156 -12.183594 Z M 7.699219 -1.339844 C 6.382812 -1.339844 5.285156 -1.804688 4.359375 -2.730469 C 3.433594 -3.65625 2.972656 -4.773438 2.972656 -6.089844 C 2.972656 -7.40625 3.433594 -8.527344 4.359375 -9.453125 C 5.285156 -10.378906 6.382812 -10.839844 7.699219 -10.839844 C 9.015625 -10.839844 10.136719 -10.378906 11.0625 -9.453125 C 11.988281 -8.527344 12.449219 -7.40625 12.449219 -6.089844 C 12.449219 -4.773438 11.988281 -3.65625 11.0625 -2.730469 C 10.136719 -1.804688 9.015625 -1.339844 7.699219 -1.339844 Z M 7.699219 -1.339844 "/></g></g></g><g fill="#545454" fill-opacity="1"><g transform="translate(195.366361, 81.988234)"><g><path d="M 7.578125 -12.183594 L 4.921875 -12.183594 L 4.921875 -16.566406 L 3.3125 -16.566406 L 3.3125 -12.183594 L 0.632812 -12.183594 L 0.632812 -10.671875 L 3.3125 -10.671875 L 3.3125 0 L 4.921875 0 L 4.921875 -10.671875 L 7.578125 -10.671875 Z M 7.578125 -12.183594 "/></g></g></g><g fill="#545454" fill-opacity="1"><g transform="translate(203.574131, 81.988234)"><g><path d="M 3.09375 -16.152344 C 3.410156 -16.152344 3.679688 -16.25 3.921875 -16.492188 C 4.167969 -16.714844 4.289062 -16.980469 4.289062 -17.324219 C 4.289062 -17.664062 4.167969 -17.929688 3.921875 -18.175781 C 3.679688 -18.394531 3.410156 -18.515625 3.09375 -18.515625 C 2.753906 -18.515625 2.484375 -18.394531 2.242188 -18.175781 C 1.996094 -17.929688 1.898438 -17.664062 1.898438 -17.324219 C 1.898438 -16.980469 1.996094 -16.714844 2.242188 -16.492188 C 2.484375 -16.25 2.753906 -16.152344 3.09375 -16.152344 Z M 2.289062 0 L 3.875 0 L 3.875 -12.183594 L 2.289062 -12.183594 Z M 2.289062 0 "/></g></g></g><g fill="#545454" fill-opacity="1"><g transform="translate(209.736048, 81.988234)"><g><path d="M 7.699219 0.242188 C 9.453125 0.242188 10.9375 -0.367188 12.183594 -1.609375 C 13.398438 -2.824219 14.035156 -4.335938 14.035156 -6.089844 C 14.035156 -7.84375 13.398438 -9.332031 12.183594 -10.574219 C 10.9375 -11.792969 9.453125 -12.425781 7.699219 -12.425781 C 5.945312 -12.425781 4.457031 -11.792969 3.214844 -10.574219 C 1.972656 -9.332031 1.363281 -7.84375 1.363281 -6.089844 C 1.363281 -4.335938 1.972656 -2.824219 3.214844 -1.609375 C 4.457031 -0.367188 5.945312 0.242188 7.699219 0.242188 Z M 7.699219 -1.339844 C 6.382812 -1.339844 5.261719 -1.804688 4.335938 -2.730469 C 3.410156 -3.65625 2.972656 -4.773438 2.972656 -6.089844 C 2.972656 -7.40625 3.410156 -8.527344 4.335938 -9.453125 C 5.261719 -10.378906 6.382812 -10.839844 7.699219 -10.839844 C 9.015625 -10.839844 10.136719 -10.378906 11.0625 -9.453125 C 11.988281 -8.527344 12.449219 -7.40625 12.449219 -6.089844 C 12.449219 -4.773438 11.988281 -3.65625 11.0625 -2.730469 C 10.136719 -1.804688 9.015625 -1.339844 7.699219 -1.339844 Z M 7.699219 -1.339844 "/></g></g></g><g fill="#545454" fill-opacity="1"><g transform="translate(225.153016, 81.988234)"><g><path d="M 7.066406 -12.425781 C 5.796875 -12.425781 4.726562 -11.960938 3.847656 -11.035156 L 3.847656 -12.183594 L 2.265625 -12.183594 L 2.265625 0 L 3.847656 0 L 3.847656 -8.015625 C 3.847656 -8.820312 4.167969 -9.5 4.75 -10.0625 C 5.335938 -10.621094 6.042969 -10.914062 6.894531 -10.914062 C 7.722656 -10.914062 8.429688 -10.621094 9.015625 -10.039062 C 9.597656 -9.453125 9.890625 -8.746094 9.890625 -7.917969 L 9.890625 0 L 11.5 0 L 11.5 -7.992188 C 11.5 -9.210938 11.0625 -10.234375 10.207031 -11.109375 C 9.332031 -11.988281 8.285156 -12.425781 7.066406 -12.425781 Z M 7.066406 -12.425781 "/></g></g></g><g clip-path="url(#0ddb4448fb)"><path fill="#545454" d="M 24.964844 34.304688 L 24.964844 35.417969 L 19.746094 35.417969 L 6.207031 58.945312 L 19.746094 82.472656 L 24.964844 82.472656 L 24.964844 83.585938 L 19.105469 83.585938 L 4.933594 58.945312 L 19.105469 34.304688 Z M 47.445312 34.304688 L 41.585938 34.304688 L 41.585938 35.417969 L 46.804688 35.417969 L 60.332031 58.945312 L 46.804688 82.472656 L 41.585938 82.472656 L 41.585938 83.585938 L 47.445312 83.585938 L 61.617188 58.945312 Z M 47.445312 34.304688 " fill-opacity="1" fill-rule="nonzero"/></g></svg>