<svg xmlns="http://www.w3.org/2000/svg" xmlns:xlink="http://www.w3.org/1999/xlink" width="1200" zoomAndPan="magnify" viewBox="0 0 900 899.99999" height="1200" preserveAspectRatio="xMidYMid meet" version="1.0"><defs><g/><clipPath id="884ac46036"><path d="M 95.304688 90 L 820.230469 90 L 820.230469 816 L 95.304688 816 Z M 95.304688 90 " clip-rule="nonzero"/></clipPath><clipPath id="34fdd2d437"><path d="M 120.054688 90 L 795.457031 90 C 809.125 90 820.207031 101.082031 820.207031 114.75 L 820.207031 791.367188 C 820.207031 805.035156 809.125 816.117188 795.457031 816.117188 L 120.054688 816.117188 C 106.386719 816.117188 95.304688 805.035156 95.304688 791.367188 L 95.304688 114.75 C 95.304688 101.082031 106.386719 90 120.054688 90 Z M 120.054688 90 " clip-rule="nonzero"/></clipPath></defs><g clip-path="url(#884ac46036)"><g clip-path="url(#34fdd2d437)"><path stroke-linecap="butt" transform="matrix(0.75, 0, 0, 0.75, 95.305584, 90.000015)" fill="none" stroke-linejoin="miter" d="M 32.998809 -0.0000203867 L 933.535372 -0.0000203867 C 951.759332 -0.0000203867 966.535376 14.776023 966.535376 32.999983 L 966.535376 935.156338 C 966.535376 953.380299 951.759332 968.156342 933.535372 968.156342 L 32.998809 968.156342 C 14.774848 968.156342 -0.00119508 953.380299 -0.00119508 935.156338 L -0.00119508 32.999983 C -0.00119508 14.776023 14.774848 -0.0000203867 32.998809 -0.0000203867 Z M 32.998809 -0.0000203867 " stroke="#4d3294" stroke-width="8" stroke-opacity="1" stroke-miterlimit="4"/></g></g><g fill="#4d3294" fill-opacity="1"><g transform="translate(298.215291, 208.195889)"><g><path d="M 42.046875 -37.109375 L 42.046875 0 L 37.15625 0 L 37.15625 -27.671875 L 24.828125 0 L 21.390625 0 L 9.015625 -27.71875 L 9.015625 0 L 4.125 0 L 4.125 -37.109375 L 9.390625 -37.109375 L 23.109375 -6.4375 L 36.84375 -37.109375 Z M 42.046875 -37.109375 "/></g></g></g><g fill="#4d3294" fill-opacity="1"><g transform="translate(344.386554, 208.195889)"><g><path d="M 6.65625 -34.15625 C 5.71875 -34.15625 4.925781 -34.476562 4.28125 -35.125 C 3.644531 -35.769531 3.328125 -36.554688 3.328125 -37.484375 C 3.328125 -38.410156 3.644531 -39.195312 4.28125 -39.84375 C 4.925781 -40.488281 5.71875 -40.8125 6.65625 -40.8125 C 7.539062 -40.8125 8.296875 -40.488281 8.921875 -39.84375 C 9.546875 -39.195312 9.859375 -38.410156 9.859375 -37.484375 C 9.859375 -36.554688 9.546875 -35.769531 8.921875 -35.125 C 8.296875 -34.476562 7.539062 -34.15625 6.65625 -34.15625 Z M 9.015625 -29.390625 L 9.015625 0 L 4.125 0 L 4.125 -29.390625 Z M 9.015625 -29.390625 "/></g></g></g><g fill="#4d3294" fill-opacity="1"><g transform="translate(357.578339, 208.195889)"><g><path d="M 6.75 -34.15625 C 5.820312 -34.15625 5.046875 -34.476562 4.421875 -35.125 C 3.796875 -35.769531 3.484375 -36.554688 3.484375 -37.484375 C 3.484375 -38.410156 3.796875 -39.195312 4.421875 -39.84375 C 5.046875 -40.488281 5.820312 -40.8125 6.75 -40.8125 C 7.6875 -40.8125 8.46875 -40.488281 9.09375 -39.84375 C 9.71875 -39.195312 10.03125 -38.410156 10.03125 -37.484375 C 10.03125 -36.554688 9.71875 -35.769531 9.09375 -35.125 C 8.46875 -34.476562 7.6875 -34.15625 6.75 -34.15625 Z M 9.171875 6.375 C 9.171875 8.988281 8.507812 10.898438 7.1875 12.109375 C 5.863281 13.328125 3.929688 13.9375 1.390625 13.9375 L -1.453125 13.9375 L -1.453125 9.8125 L 0.59375 9.8125 C 1.945312 9.8125 2.898438 9.539062 3.453125 9 C 4.015625 8.46875 4.296875 7.5625 4.296875 6.28125 L 4.296875 -29.390625 L 9.171875 -29.390625 Z M 9.171875 6.375 "/></g></g></g><g fill="#4d3294" fill-opacity="1"><g transform="translate(370.877376, 208.195889)"><g><path d="M 18.453125 -29.921875 C 22.023438 -29.921875 24.914062 -28.835938 27.125 -26.671875 C 29.34375 -24.515625 30.453125 -21.398438 30.453125 -17.328125 L 30.453125 0 L 25.625 0 L 25.625 -16.625 C 25.625 -19.550781 24.890625 -21.789062 23.421875 -23.34375 C 21.960938 -24.90625 19.960938 -25.6875 17.421875 -25.6875 C 14.847656 -25.6875 12.800781 -24.878906 11.28125 -23.265625 C 9.769531 -21.660156 9.015625 -19.320312 9.015625 -16.25 L 9.015625 0 L 4.125 0 L 4.125 -29.390625 L 9.015625 -29.390625 L 9.015625 -25.203125 C 9.972656 -26.703125 11.28125 -27.863281 12.9375 -28.6875 C 14.601562 -29.507812 16.441406 -29.921875 18.453125 -29.921875 Z M 18.453125 -29.921875 "/></g></g></g><g fill="#4d3294" fill-opacity="1"><g transform="translate(405.197479, 208.195889)"><g/></g></g><g fill="#4d3294" fill-opacity="1"><g transform="translate(419.515401, 208.195889)"><g><path d="M 9.015625 -33.40625 L 9.015625 -20.90625 L 22.625 -20.90625 L 22.625 -16.890625 L 9.015625 -16.890625 L 9.015625 -4.015625 L 24.234375 -4.015625 L 24.234375 0 L 4.125 0 L 4.125 -37.4375 L 24.234375 -37.4375 L 24.234375 -33.40625 Z M 9.015625 -33.40625 "/></g></g></g><g fill="#4d3294" fill-opacity="1"><g transform="translate(447.025109, 208.195889)"><g><path d="M 18.453125 -29.921875 C 22.023438 -29.921875 24.914062 -28.835938 27.125 -26.671875 C 29.34375 -24.515625 30.453125 -21.398438 30.453125 -17.328125 L 30.453125 0 L 25.625 0 L 25.625 -16.625 C 25.625 -19.550781 24.890625 -21.789062 23.421875 -23.34375 C 21.960938 -24.90625 19.960938 -25.6875 17.421875 -25.6875 C 14.847656 -25.6875 12.800781 -24.878906 11.28125 -23.265625 C 9.769531 -21.660156 9.015625 -19.320312 9.015625 -16.25 L 9.015625 0 L 4.125 0 L 4.125 -29.390625 L 9.015625 -29.390625 L 9.015625 -25.203125 C 9.972656 -26.703125 11.28125 -27.863281 12.9375 -28.6875 C 14.601562 -29.507812 16.441406 -29.921875 18.453125 -29.921875 Z M 18.453125 -29.921875 "/></g></g></g><g fill="#4d3294" fill-opacity="1"><g transform="translate(481.345211, 208.195889)"><g><path d="M 30.9375 -15.8125 C 30.9375 -14.882812 30.882812 -13.90625 30.78125 -12.875 L 7.296875 -12.875 C 7.472656 -9.976562 8.460938 -7.710938 10.265625 -6.078125 C 12.078125 -4.453125 14.269531 -3.640625 16.84375 -3.640625 C 18.945312 -3.640625 20.703125 -4.128906 22.109375 -5.109375 C 23.523438 -6.097656 24.519531 -7.414062 25.09375 -9.0625 L 30.359375 -9.0625 C 29.566406 -6.238281 27.988281 -3.941406 25.625 -2.171875 C 23.269531 -0.398438 20.34375 0.484375 16.84375 0.484375 C 14.050781 0.484375 11.554688 -0.140625 9.359375 -1.390625 C 7.160156 -2.640625 5.4375 -4.414062 4.1875 -6.71875 C 2.9375 -9.03125 2.3125 -11.707031 2.3125 -14.75 C 2.3125 -17.789062 2.914062 -20.453125 4.125 -22.734375 C 5.34375 -25.023438 7.050781 -26.785156 9.25 -28.015625 C 11.445312 -29.253906 13.976562 -29.875 16.84375 -29.875 C 19.625 -29.875 22.085938 -29.265625 24.234375 -28.046875 C 26.378906 -26.828125 28.03125 -25.15625 29.1875 -23.03125 C 30.351562 -20.90625 30.9375 -18.5 30.9375 -15.8125 Z M 25.90625 -16.84375 C 25.90625 -18.695312 25.492188 -20.296875 24.671875 -21.640625 C 23.847656 -22.984375 22.726562 -24 21.3125 -24.6875 C 19.90625 -25.382812 18.34375 -25.734375 16.625 -25.734375 C 14.15625 -25.734375 12.050781 -24.945312 10.3125 -23.375 C 8.582031 -21.800781 7.59375 -19.625 7.34375 -16.84375 Z M 25.90625 -16.84375 "/></g></g></g><g fill="#4d3294" fill-opacity="1"><g transform="translate(514.592816, 208.195889)"><g><path d="M 9.015625 -24.609375 C 9.867188 -26.296875 11.085938 -27.601562 12.671875 -28.53125 C 14.265625 -29.457031 16.207031 -29.921875 18.5 -29.921875 L 18.5 -24.875 L 17.21875 -24.875 C 11.75 -24.875 9.015625 -21.910156 9.015625 -15.984375 L 9.015625 0 L 4.125 0 L 4.125 -29.390625 L 9.015625 -29.390625 Z M 9.015625 -24.609375 "/></g></g></g><g fill="#4d3294" fill-opacity="1"><g transform="translate(534.594997, 208.195889)"><g><path d="M 16.25 -29.875 C 18.789062 -29.875 21.015625 -29.316406 22.921875 -28.203125 C 24.835938 -27.097656 26.257812 -25.707031 27.1875 -24.03125 L 27.1875 -29.390625 L 32.125 -29.390625 L 32.125 0.640625 C 32.125 3.328125 31.550781 5.710938 30.40625 7.796875 C 29.257812 9.890625 27.625 11.523438 25.5 12.703125 C 23.375 13.890625 20.898438 14.484375 18.078125 14.484375 C 14.210938 14.484375 10.992188 13.570312 8.421875 11.75 C 5.847656 9.925781 4.328125 7.441406 3.859375 4.296875 L 8.6875 4.296875 C 9.21875 6.078125 10.320312 7.515625 12 8.609375 C 13.6875 9.703125 15.710938 10.25 18.078125 10.25 C 20.753906 10.25 22.941406 9.40625 24.640625 7.71875 C 26.335938 6.039062 27.1875 3.679688 27.1875 0.640625 L 27.1875 -5.515625 C 26.21875 -3.804688 24.785156 -2.378906 22.890625 -1.234375 C 21.003906 -0.0859375 18.789062 0.484375 16.25 0.484375 C 13.632812 0.484375 11.265625 -0.15625 9.140625 -1.4375 C 7.015625 -2.726562 5.34375 -4.535156 4.125 -6.859375 C 2.914062 -9.179688 2.3125 -11.828125 2.3125 -14.796875 C 2.3125 -17.804688 2.914062 -20.441406 4.125 -22.703125 C 5.34375 -24.972656 7.015625 -26.734375 9.140625 -27.984375 C 11.265625 -29.242188 13.632812 -29.875 16.25 -29.875 Z M 27.1875 -14.75 C 27.1875 -16.96875 26.738281 -18.894531 25.84375 -20.53125 C 24.945312 -22.175781 23.738281 -23.4375 22.21875 -24.3125 C 20.707031 -25.1875 19.039062 -25.625 17.21875 -25.625 C 15.394531 -25.625 13.726562 -25.195312 12.21875 -24.34375 C 10.71875 -23.488281 9.519531 -22.238281 8.625 -20.59375 C 7.738281 -18.945312 7.296875 -17.015625 7.296875 -14.796875 C 7.296875 -12.546875 7.738281 -10.585938 8.625 -8.921875 C 9.519531 -7.265625 10.71875 -6 12.21875 -5.125 C 13.726562 -4.25 15.394531 -3.8125 17.21875 -3.8125 C 19.039062 -3.8125 20.707031 -4.25 22.21875 -5.125 C 23.738281 -6 24.945312 -7.265625 25.84375 -8.921875 C 26.738281 -10.585938 27.1875 -12.53125 27.1875 -14.75 Z M 27.1875 -14.75 "/></g></g></g><g fill="#4d3294" fill-opacity="1"><g transform="translate(570.845594, 208.195889)"><g><path d="M 6.65625 -34.15625 C 5.71875 -34.15625 4.925781 -34.476562 4.28125 -35.125 C 3.644531 -35.769531 3.328125 -36.554688 3.328125 -37.484375 C 3.328125 -38.410156 3.644531 -39.195312 4.28125 -39.84375 C 4.925781 -40.488281 5.71875 -40.8125 6.65625 -40.8125 C 7.539062 -40.8125 8.296875 -40.488281 8.921875 -39.84375 C 9.546875 -39.195312 9.859375 -38.410156 9.859375 -37.484375 C 9.859375 -36.554688 9.546875 -35.769531 8.921875 -35.125 C 8.296875 -34.476562 7.539062 -34.15625 6.65625 -34.15625 Z M 9.015625 -29.390625 L 9.015625 0 L 4.125 0 L 4.125 -29.390625 Z M 9.015625 -29.390625 "/></g></g></g><g fill="#4d3294" fill-opacity="1"><g transform="translate(584.03738, 208.195889)"><g><path d="M 30.9375 -15.8125 C 30.9375 -14.882812 30.882812 -13.90625 30.78125 -12.875 L 7.296875 -12.875 C 7.472656 -9.976562 8.460938 -7.710938 10.265625 -6.078125 C 12.078125 -4.453125 14.269531 -3.640625 16.84375 -3.640625 C 18.945312 -3.640625 20.703125 -4.128906 22.109375 -5.109375 C 23.523438 -6.097656 24.519531 -7.414062 25.09375 -9.0625 L 30.359375 -9.0625 C 29.566406 -6.238281 27.988281 -3.941406 25.625 -2.171875 C 23.269531 -0.398438 20.34375 0.484375 16.84375 0.484375 C 14.050781 0.484375 11.554688 -0.140625 9.359375 -1.390625 C 7.160156 -2.640625 5.4375 -4.414062 4.1875 -6.71875 C 2.9375 -9.03125 2.3125 -11.707031 2.3125 -14.75 C 2.3125 -17.789062 2.914062 -20.453125 4.125 -22.734375 C 5.34375 -25.023438 7.050781 -26.785156 9.25 -28.015625 C 11.445312 -29.253906 13.976562 -29.875 16.84375 -29.875 C 19.625 -29.875 22.085938 -29.265625 24.234375 -28.046875 C 26.378906 -26.828125 28.03125 -25.15625 29.1875 -23.03125 C 30.351562 -20.90625 30.9375 -18.5 30.9375 -15.8125 Z M 25.90625 -16.84375 C 25.90625 -18.695312 25.492188 -20.296875 24.671875 -21.640625 C 23.847656 -22.984375 22.726562 -24 21.3125 -24.6875 C 19.90625 -25.382812 18.34375 -25.734375 16.625 -25.734375 C 14.15625 -25.734375 12.050781 -24.945312 10.3125 -23.375 C 8.582031 -21.800781 7.59375 -19.625 7.34375 -16.84375 Z M 25.90625 -16.84375 "/></g></g></g><path fill="#f6cb48" d="M 307.488281 599.601562 C 299.480469 606.285156 296.300781 616.722656 294.738281 626.664062 C 293.460938 634.765625 292.621094 642.960938 291.566406 651.09375 C 291.199219 653.953125 290.828125 656.8125 290.457031 659.667969 C 290.238281 661.359375 289.859375 662.8125 288.640625 664.070312 C 279.070312 673.925781 269.480469 683.773438 260.109375 693.820312 C 256.722656 697.449219 251.289062 692 254.664062 688.378906 C 263.921875 678.457031 273.386719 668.726562 282.84375 658.992188 C 283.476562 654.109375 284.109375 649.222656 284.742188 644.335938 C 285.902344 635.328125 286.550781 626.046875 288.816406 617.234375 C 291.132812 608.234375 295.472656 599.328125 302.90625 593.464844 C 309.957031 587.902344 319.070312 584.960938 328.066406 585.578125 C 346.175781 586.816406 360.765625 602.324219 361.234375 620.449219 C 361.464844 629.367188 357.824219 638.847656 350.96875 644.71875 C 344.449219 650.304688 335.410156 652.410156 327.167969 649.640625 C 319.175781 646.949219 313.402344 640.210938 313.078125 631.648438 C 312.769531 623.539062 317.386719 615.746094 325.09375 612.917969 C 327.054688 612.195312 329.3125 613.726562 329.828125 615.601562 C 330.414062 617.726562 329.089844 619.617188 327.140625 620.332031 C 325.710938 620.859375 324.394531 621.867188 323.320312 623.207031 C 321.351562 625.664062 320.457031 629.375 320.828125 632.527344 C 321.226562 635.925781 323.296875 639.035156 326.480469 640.9375 C 333.832031 645.332031 342.96875 642.917969 348.257812 636.511719 C 360.472656 621.722656 350.117188 598.382812 332.53125 593.988281 C 324.027344 591.867188 314.242188 593.964844 307.488281 599.601562 Z M 463.015625 567.644531 C 463.777344 567.414062 463.367188 567.511719 463.015625 567.644531 Z M 461.128906 569.023438 C 461.128906 569.027344 461.125 569.027344 461.125 569.03125 C 461.125 569.03125 461.125 569.035156 461.128906 569.035156 C 461.128906 569.03125 461.128906 569.027344 461.128906 569.023438 Z M 548.128906 560.101562 C 547.964844 560.558594 547.972656 560.652344 548.023438 560.558594 C 548.050781 560.417969 548.085938 560.285156 548.125 560.152344 C 548.125 560.136719 548.125 560.117188 548.128906 560.101562 Z M 461.261719 568.761719 C 461.226562 568.828125 461.191406 568.898438 461.15625 568.972656 C 461.15625 568.980469 461.160156 568.988281 461.160156 568.992188 C 461.164062 569.015625 461.167969 569.035156 461.175781 569.054688 C 461.335938 568.859375 461.371094 568.726562 461.34375 568.695312 C 461.316406 568.714844 461.289062 568.742188 461.261719 568.761719 Z M 551.902344 618.488281 C 551.757812 618.707031 551.800781 618.660156 551.902344 618.488281 Z M 516.921875 635.125 C 499.792969 636.019531 482.457031 635.566406 465.359375 634.128906 C 463.28125 633.957031 461.511719 632.511719 461.511719 630.285156 C 461.511719 628.332031 463.285156 626.265625 465.359375 626.4375 C 466.667969 626.546875 467.980469 626.640625 469.289062 626.730469 C 489.101562 628.074219 509.320312 628.742188 529.082031 626.441406 C 529.695312 626.371094 530.308594 626.292969 530.921875 626.214844 C 531.101562 626.191406 531.367188 626.152344 531.425781 626.144531 C 531.753906 626.097656 532.082031 626.050781 532.410156 626 C 533.578125 625.824219 534.746094 625.632812 535.910156 625.414062 C 538.230469 624.984375 540.542969 624.464844 542.808594 623.796875 C 543.820312 623.5 544.820312 623.171875 545.804688 622.800781 C 546.027344 622.714844 546.25 622.625 546.472656 622.539062 C 546.828125 622.378906 547.183594 622.222656 547.53125 622.050781 C 548.304688 621.671875 549.0625 621.253906 549.785156 620.773438 C 550.113281 620.558594 551.03125 619.664062 550.125 620.5625 C 550.386719 620.300781 550.695312 620.082031 550.960938 619.820312 C 551.167969 619.621094 551.347656 619.390625 551.546875 619.183594 C 551.617188 619.074219 551.703125 618.96875 551.761719 618.855469 C 551.882812 618.628906 551.996094 618.347656 552.144531 618.136719 C 552.027344 618.300781 551.957031 618.410156 551.902344 618.488281 C 551.964844 618.382812 552.042969 618.234375 552.101562 618.082031 C 552.128906 618.140625 552.222656 617.960938 552.203125 617.730469 C 552.203125 617.714844 552.203125 617.695312 552.203125 617.675781 C 552.21875 617.570312 552.234375 617.460938 552.269531 617.359375 C 552.242188 617.449219 552.222656 617.511719 552.199219 617.582031 C 552.191406 617.351562 552.191406 617.097656 552.203125 616.886719 C 552.207031 616.863281 552.210938 616.859375 552.210938 616.839844 C 552.199219 616.804688 552.191406 616.792969 552.179688 616.75 C 552.082031 616.429688 551.976562 616.097656 551.894531 615.777344 C 551.886719 615.75 551.890625 615.746094 551.882812 615.726562 C 551.855469 615.683594 551.832031 615.652344 551.789062 615.582031 C 551.597656 615.277344 551.414062 614.960938 551.230469 614.648438 C 551.191406 614.582031 551.171875 614.546875 551.144531 614.5 C 550.875 614.214844 550.632812 613.894531 550.363281 613.609375 C 549.765625 612.984375 549.117188 612.429688 548.457031 611.871094 C 548.277344 611.742188 548.101562 611.613281 547.921875 611.484375 C 547.519531 611.199219 547.109375 610.925781 546.695312 610.664062 C 544.933594 609.539062 543.074219 608.570312 541.175781 607.695312 C 540.820312 607.53125 540.457031 607.371094 540.097656 607.210938 C 540.03125 607.179688 539.816406 607.085938 539.667969 607.023438 C 539.4375 606.929688 539.207031 606.835938 538.976562 606.746094 C 531.78125 609.132812 524.089844 610.363281 516.753906 611.3125 C 504.804688 612.855469 492.59375 613.347656 480.582031 612.320312 C 475.675781 611.898438 470.691406 611.289062 465.941406 609.929688 C 462.683594 608.996094 459.070312 607.667969 456.734375 605.085938 C 454.105469 602.175781 453.835938 597.976562 456.476562 594.976562 C 458.699219 592.453125 462.246094 591.300781 465.433594 590.597656 C 475.75 588.320312 486.835938 588.921875 497.273438 589.890625 C 509.769531 591.050781 522.351562 593.144531 534.335938 596.941406 C 535.886719 597.433594 537.429688 597.96875 538.96875 598.53125 C 539.121094 598.476562 539.277344 598.429688 539.429688 598.375 C 539.964844 598.171875 540.5 597.960938 541.03125 597.75 C 541.0625 597.738281 541.070312 597.734375 541.097656 597.722656 C 541.113281 597.714844 541.117188 597.714844 541.136719 597.707031 C 541.386719 597.59375 541.636719 597.488281 541.882812 597.375 C 543.613281 596.585938 545.304688 595.6875 546.871094 594.605469 C 547.066406 594.472656 547.253906 594.332031 547.445312 594.191406 C 547.460938 594.175781 547.480469 594.164062 547.492188 594.152344 C 547.753906 593.921875 548.023438 593.703125 548.277344 593.464844 C 548.566406 593.195312 548.839844 592.90625 549.113281 592.621094 C 549.214844 592.515625 549.304688 592.386719 549.40625 592.277344 C 549.5625 592.003906 549.773438 591.746094 549.929688 591.472656 C 550.171875 591.046875 550.355469 590.085938 550.070312 591.300781 C 550.132812 591.03125 550.265625 590.769531 550.339844 590.5 C 550.382812 590.335938 550.398438 590.148438 550.40625 589.996094 C 550.410156 590.089844 550.414062 590.210938 550.421875 590.367188 C 550.402344 589.988281 550.449219 589.5625 550.460938 589.179688 C 550.460938 589.160156 550.460938 589.152344 550.460938 589.136719 C 550.351562 588.851562 550.304688 588.488281 550.226562 588.199219 C 550.203125 588.101562 550.160156 588.003906 550.121094 587.90625 C 549.722656 587.355469 549.371094 586.664062 549.019531 586.078125 C 548.960938 586.007812 548.902344 585.933594 548.839844 585.863281 C 548.550781 585.550781 548.269531 585.230469 547.96875 584.925781 C 547.324219 584.273438 546.625 583.683594 545.917969 583.097656 C 545.914062 583.09375 545.914062 583.09375 545.910156 583.089844 C 545.714844 582.945312 545.515625 582.800781 545.316406 582.65625 C 544.894531 582.355469 544.46875 582.066406 544.035156 581.78125 C 542.207031 580.589844 540.289062 579.539062 538.332031 578.578125 C 537.394531 578.117188 536.441406 577.691406 535.488281 577.269531 C 529.585938 579.121094 523.375 580.242188 517.527344 581.121094 C 505.292969 582.957031 492.769531 583.738281 480.417969 582.734375 C 475.386719 582.324219 470.261719 581.6875 465.414062 580.222656 C 461.972656 579.179688 458.230469 577.675781 455.824219 574.882812 C 453.371094 572.035156 452.640625 568.003906 454.710938 564.71875 C 456.660156 561.621094 460.460938 560.136719 463.867188 559.335938 C 473.945312 556.953125 484.972656 557.941406 495.128906 559.226562 C 507.628906 560.804688 520.105469 563.386719 531.976562 567.65625 C 533.144531 568.074219 534.351562 568.515625 535.578125 568.984375 C 535.820312 568.898438 536.066406 568.828125 536.304688 568.742188 C 536.949219 568.507812 537.585938 568.257812 538.226562 568.007812 C 538.417969 567.933594 538.507812 567.902344 538.566406 567.878906 C 538.621094 567.851562 538.707031 567.8125 538.867188 567.742188 C 539.835938 567.304688 540.800781 566.859375 541.738281 566.355469 C 542.597656 565.902344 543.4375 565.410156 544.246094 564.871094 C 544.550781 564.667969 544.847656 564.449219 545.152344 564.238281 C 545.292969 564.125 545.433594 564.011719 545.570312 563.890625 C 546.148438 563.390625 546.621094 562.761719 547.191406 562.261719 C 547.257812 562.164062 547.332031 562.066406 547.390625 561.96875 C 547.5625 561.671875 547.722656 561.355469 547.902344 561.066406 C 547.914062 561.046875 547.917969 561.046875 547.925781 561.03125 C 547.9375 560.988281 547.9375 560.960938 547.953125 560.902344 C 547.976562 560.792969 548 560.675781 548.023438 560.558594 C 548.058594 560.488281 548.105469 560.335938 548.125 560.152344 C 548.144531 560.082031 548.15625 560.007812 548.179688 559.949219 C 548.15625 560.007812 548.144531 560.046875 548.128906 560.097656 C 548.128906 560.066406 548.132812 560.03125 548.132812 559.996094 C 548.113281 559.257812 548.101562 558.9375 548.023438 558.558594 C 547.6875 556.933594 547.398438 556.296875 546.4375 554.949219 C 546.558594 555.132812 545.984375 554.390625 545.976562 554.382812 C 545.71875 554.097656 545.457031 553.820312 545.183594 553.550781 C 544.910156 553.28125 544.625 553.03125 544.339844 552.777344 C 544.332031 552.769531 543.9375 552.457031 543.800781 552.339844 C 542.671875 551.503906 541.449219 550.785156 540.195312 550.15625 C 539.761719 549.9375 539.320312 549.734375 538.878906 549.535156 C 538.839844 549.53125 537.832031 549.113281 537.625 549.035156 C 536.453125 548.605469 535.25 548.210938 534.03125 547.945312 C 532.304688 547.570312 531.46875 546.382812 531.308594 545.066406 C 531.242188 544.789062 531.199219 544.511719 531.203125 544.238281 C 531.226562 543.089844 531.246094 541.941406 531.265625 540.792969 C 531.367188 535.1875 531.464844 529.582031 531.566406 523.976562 C 531.664062 518.503906 531.78125 513.121094 533.804688 507.917969 C 535.570312 503.371094 538.203125 499.226562 541.660156 495.769531 C 545.003906 492.425781 549.15625 490.042969 552.742188 486.976562 C 559.664062 481.0625 565.453125 473.972656 569.535156 465.820312 C 576.933594 451.0625 577.425781 433.8125 571.261719 418.660156 C 565.550781 404.628906 554.207031 393.117188 541.0625 385.597656 C 511.578125 368.742188 472.003906 370.683594 444.800781 391.238281 C 432.792969 400.308594 423.675781 413.171875 420.292969 427.824219 C 416.488281 444.296875 420.710938 461.652344 430.742188 475.34375 C 433.382812 478.945312 436.46875 482.242188 439.761719 485.253906 C 443.285156 488.476562 447.25 490.96875 450.964844 493.933594 C 458.433594 499.886719 463.019531 508.875 463.617188 518.382812 C 463.894531 522.796875 463.546875 527.300781 463.46875 531.71875 C 463.390625 535.890625 463.316406 540.0625 463.242188 544.238281 C 463.148438 549.1875 455.449219 549.1875 455.539062 544.238281 C 455.5625 542.914062 455.585938 541.59375 455.613281 540.273438 C 455.714844 534.621094 455.816406 528.972656 455.921875 523.324219 C 455.953125 521.480469 456.023438 519.636719 455.875 517.800781 C 455.523438 513.507812 453.914062 509.363281 451.550781 505.785156 C 448.914062 501.796875 445.242188 499.308594 441.46875 496.527344 C 437.585938 493.664062 433.910156 490.53125 430.582031 487.035156 C 423.976562 480.089844 418.757812 471.976562 415.335938 463.023438 C 409.085938 446.683594 410.125 428.382812 417.488281 412.609375 C 424.515625 397.566406 437.210938 385.445312 451.777344 377.699219 C 483.621094 360.761719 525.511719 363.113281 554.339844 385.210938 C 567.289062 395.136719 577.398438 408.871094 581.355469 424.839844 C 585.78125 442.703125 582.164062 461.800781 571.898438 477.035156 C 566.511719 485.027344 559.636719 491.828125 551.785156 497.398438 C 544.507812 502.5625 539.597656 509.980469 539.355469 519.085938 C 539.160156 526.492188 539.074219 533.902344 538.953125 541.3125 C 542 542.300781 544.976562 543.765625 547.515625 545.566406 C 552.816406 549.324219 557.261719 555.847656 555.46875 562.628906 C 554.429688 566.566406 551.234375 569.492188 547.9375 571.640625 C 547.035156 572.230469 546.085938 572.757812 545.132812 573.277344 C 549.589844 575.730469 553.617188 578.824219 556.191406 582.949219 C 558.378906 586.457031 558.761719 590.648438 557.042969 594.417969 C 555.417969 597.988281 552.089844 600.597656 548.753906 602.496094 C 548.617188 602.578125 548.46875 602.636719 548.332031 602.714844 C 548.5625 602.84375 548.808594 602.953125 549.039062 603.085938 C 552.550781 605.097656 556.070312 607.691406 558.175781 611.230469 C 560.210938 614.652344 560.539062 618.921875 558.578125 622.453125 C 556.550781 626.097656 552.730469 628.226562 549 629.757812 C 539.046875 633.855469 527.550781 634.570312 516.921875 635.125 Z M 461.117188 569.117188 C 461.121094 569.089844 461.125 569.0625 461.128906 569.035156 C 461.128906 569.039062 461.132812 569.042969 461.132812 569.046875 C 461.132812 569.039062 461.128906 569.03125 461.128906 569.023438 C 461.128906 569.023438 461.128906 569.019531 461.128906 569.019531 C 461.128906 569.019531 461.128906 569.015625 461.128906 569.015625 C 461.105469 568.980469 461.085938 568.957031 461.058594 568.917969 C 461.082031 568.949219 461.101562 568.996094 461.125 569.03125 C 461.085938 569.113281 461.046875 569.199219 460.992188 569.25 C 461.046875 569.203125 461.078125 569.160156 461.117188 569.117188 Z M 461.140625 569.09375 C 461.140625 569.082031 461.136719 569.074219 461.136719 569.0625 C 461.132812 569.078125 461.128906 569.09375 461.125 569.109375 C 461.128906 569.105469 461.136719 569.097656 461.140625 569.09375 Z M 461.167969 569.066406 C 461.160156 569.054688 461.152344 569.042969 461.144531 569.035156 C 461.140625 569.039062 461.140625 569.046875 461.136719 569.054688 C 461.144531 569.0625 461.148438 569.070312 461.152344 569.078125 C 461.15625 569.074219 461.164062 569.070312 461.167969 569.066406 Z M 522.167969 572.570312 C 520.007812 571.9375 517.832031 571.34375 515.648438 570.800781 C 504.089844 567.929688 493.804688 566.273438 482.144531 565.804688 C 479.734375 565.707031 477.320312 565.679688 474.90625 565.75 C 473.765625 565.785156 472.625 565.84375 471.484375 565.933594 C 470.949219 565.972656 470.414062 566.023438 469.882812 566.078125 C 469.675781 566.101562 468.863281 566.21875 468.710938 566.234375 C 467.15625 566.488281 465.609375 566.765625 464.105469 567.246094 C 463.683594 567.382812 463.273438 567.570312 462.847656 567.695312 C 462.917969 567.675781 462.957031 567.664062 463.015625 567.644531 C 462.9375 567.675781 462.859375 567.707031 462.804688 567.738281 C 462.515625 567.890625 462.230469 568.046875 461.945312 568.207031 C 461.878906 568.246094 461.8125 568.289062 461.753906 568.335938 C 461.789062 568.292969 461.820312 568.261719 461.863281 568.207031 C 461.800781 568.285156 461.714844 568.367188 461.628906 568.445312 C 461.667969 568.410156 461.707031 568.371094 461.753906 568.335938 C 461.363281 568.800781 461.375 568.703125 461.570312 568.503906 C 461.492188 568.574219 461.417969 568.632812 461.339844 568.695312 C 461.332031 568.683594 461.3125 568.691406 461.289062 568.710938 C 461.277344 568.722656 461.269531 568.746094 461.261719 568.761719 C 461.257812 568.765625 461.253906 568.769531 461.25 568.769531 C 461.238281 568.78125 461.238281 568.78125 461.226562 568.789062 C 461.203125 568.832031 461.179688 568.894531 461.15625 568.972656 C 461.15625 568.976562 461.15625 568.976562 461.15625 568.980469 C 461.15625 568.984375 461.15625 568.988281 461.15625 568.992188 C 461.160156 569.015625 461.164062 569.039062 461.164062 569.066406 C 461.167969 569.0625 461.171875 569.058594 461.175781 569.054688 C 461.179688 569.066406 461.179688 569.082031 461.183594 569.09375 C 461.179688 569.085938 461.171875 569.074219 461.164062 569.066406 C 461.167969 569.082031 461.167969 569.09375 461.167969 569.109375 C 461.1875 569.140625 461.210938 569.171875 461.226562 569.207031 C 461.210938 569.167969 461.199219 569.132812 461.183594 569.09375 C 461.457031 569.480469 461.421875 569.535156 461.320312 569.386719 C 461.363281 569.472656 461.40625 569.5625 461.441406 569.636719 C 461.449219 569.648438 461.449219 569.652344 461.453125 569.664062 C 461.460938 569.667969 461.460938 569.667969 461.464844 569.671875 C 461.695312 569.871094 461.917969 570.117188 462.132812 570.332031 C 462.15625 570.355469 462.164062 570.363281 462.179688 570.382812 C 462.476562 570.535156 462.757812 570.773438 463.042969 570.949219 C 463.726562 571.363281 464.449219 571.683594 465.167969 572.03125 C 463.984375 571.457031 465.367188 572.097656 465.675781 572.210938 C 466.113281 572.371094 466.554688 572.519531 467 572.664062 C 468.921875 573.273438 470.894531 573.722656 472.875 574.085938 C 473.546875 574.210938 474.214844 574.320312 474.886719 574.425781 C 475.011719 574.445312 475.640625 574.53125 475.894531 574.570312 C 477.074219 574.71875 478.253906 574.851562 479.441406 574.957031 C 484.925781 575.453125 490.449219 575.546875 495.957031 575.386719 C 505.214844 575.117188 513.523438 574.339844 522.167969 572.570312 Z M 462.207031 599.5 C 462.15625 599.097656 462.160156 599.25 462.207031 599.5 Z M 462.332031 600.066406 C 462.324219 600.058594 462.320312 600.058594 462.3125 600.050781 C 462.277344 600.101562 462.277344 600.113281 462.332031 600.066406 Z M 524.914062 602.28125 C 522.855469 601.761719 520.785156 601.273438 518.710938 600.832031 C 515.871094 600.230469 513.015625 599.699219 510.148438 599.230469 C 508.640625 598.984375 507.132812 598.757812 505.621094 598.539062 C 505.589844 598.535156 505.050781 598.460938 504.910156 598.441406 C 504.609375 598.402344 504.308594 598.363281 504.003906 598.324219 C 503.253906 598.230469 502.5 598.136719 501.75 598.050781 C 496.113281 597.398438 490.449219 596.972656 484.777344 596.859375 C 480.128906 596.765625 475.496094 596.917969 470.878906 597.429688 C 470.640625 597.464844 469.976562 597.550781 469.796875 597.578125 C 469.320312 597.65625 468.847656 597.738281 468.378906 597.832031 C 467.582031 597.984375 466.789062 598.164062 466.007812 598.375 C 465.28125 598.574219 464.578125 598.882812 463.859375 599.078125 C 463.773438 599.113281 463.6875 599.152344 463.605469 599.195312 C 463.328125 599.34375 463.054688 599.492188 462.78125 599.644531 C 462.722656 599.675781 462.667969 599.714844 462.617188 599.753906 C 462.660156 599.707031 462.691406 599.671875 462.738281 599.613281 C 462.671875 599.695312 462.582031 599.78125 462.488281 599.863281 C 462.476562 599.875 462.464844 599.882812 462.457031 599.894531 C 462.453125 599.898438 462.449219 599.898438 462.449219 599.902344 C 462.433594 599.914062 462.425781 599.925781 462.414062 599.9375 C 462.421875 599.945312 462.425781 599.957031 462.429688 599.964844 C 462.445312 599.949219 462.460938 599.9375 462.480469 599.914062 C 462.582031 600.027344 462.683594 600.148438 462.761719 600.230469 C 462.765625 600.238281 462.765625 600.238281 462.769531 600.242188 C 463.019531 600.382812 463.253906 600.574219 463.496094 600.71875 C 464.125 601.09375 464.789062 601.386719 465.453125 601.699219 C 464.21875 601.113281 465.546875 601.71875 465.863281 601.832031 C 466.273438 601.980469 466.691406 602.117188 467.109375 602.25 C 468.9375 602.824219 470.8125 603.25 472.695312 603.601562 C 473.816406 603.808594 474.9375 603.984375 476.066406 604.148438 C 476.097656 604.152344 476.101562 604.152344 476.128906 604.15625 C 476.164062 604.160156 476.179688 604.164062 476.226562 604.167969 C 476.527344 604.207031 476.828125 604.242188 477.132812 604.28125 C 477.75 604.351562 478.371094 604.417969 478.988281 604.480469 C 484.359375 605.015625 489.765625 605.179688 495.15625 605.121094 C 501.011719 605.058594 506.863281 604.714844 512.683594 604.101562 C 515.921875 603.757812 517.363281 603.570312 520.449219 603.074219 C 521.941406 602.835938 523.429688 602.570312 524.914062 602.28125 Z M 547.433594 594.203125 C 546.832031 594.640625 547.222656 594.375 547.433594 594.203125 Z M 550.40625 589.996094 C 550.417969 589.714844 550.390625 589.5625 550.40625 589.996094 Z M 462.488281 599.863281 C 462.476562 599.875 462.46875 599.882812 462.457031 599.894531 C 462.464844 599.902344 462.472656 599.90625 462.480469 599.914062 C 462.515625 599.871094 462.570312 599.8125 462.617188 599.753906 C 462.570312 599.789062 462.527344 599.824219 462.488281 599.863281 Z M 552.203125 617.675781 C 552.203125 617.648438 552.203125 617.613281 552.199219 617.582031 C 552.101562 617.894531 552.085938 618.042969 552.101562 618.082031 C 552.113281 618.050781 552.128906 618.023438 552.136719 617.992188 C 552.171875 617.890625 552.1875 617.785156 552.203125 617.675781 Z M 516.207031 468.050781 C 514.199219 488.042969 513.242188 508.4375 518.230469 528.066406 C 519.453125 532.875 512.023438 534.90625 510.804688 530.113281 C 510.03125 527.0625 509.375 523.988281 508.851562 520.882812 C 506.757812 508.457031 506.542969 495.839844 507.265625 483.28125 C 507.542969 478.511719 507.96875 473.75 508.433594 468.992188 C 504.542969 469.296875 500.65625 469.429688 496.960938 469.707031 C 495.125 469.847656 493.226562 470.023438 491.300781 470.195312 C 496.648438 489.453125 494.289062 510.210938 491.707031 529.9375 C 491.4375 532.007812 490.164062 533.785156 487.859375 533.785156 C 485.972656 533.785156 483.738281 532 484.007812 529.9375 C 486.53125 510.640625 489.324219 489.65625 483.488281 470.726562 C 475.945312 470.984375 468.414062 470.222656 462.25 465.804688 C 458.046875 462.796875 454.675781 458.503906 453.894531 453.285156 C 453.007812 447.355469 455.632812 441.539062 461.554688 439.5625 C 473.109375 435.710938 481.84375 448.363281 486.253906 457.082031 C 487.175781 458.910156 487.976562 460.769531 488.722656 462.636719 C 494.046875 462.242188 499.371094 461.835938 504.695312 461.433594 C 506.132812 461.324219 507.65625 461.230469 509.210938 461.105469 C 509.644531 456.574219 510.050781 451.984375 511.074219 447.574219 C 512.046875 443.378906 513.816406 438.894531 517.226562 436.082031 C 521.289062 432.730469 526.882812 432.113281 531.460938 434.871094 C 535.886719 437.535156 538.929688 442.746094 538.738281 447.953125 C 538.546875 453.191406 535.753906 458.09375 531.789062 461.429688 C 527.308594 465.195312 521.898438 467.042969 516.207031 468.050781 Z M 517.019531 460.078125 C 522.132812 459.003906 526.855469 456.898438 529.605469 452.304688 C 531.308594 449.457031 531.632812 446.058594 529.550781 443.308594 C 527.652344 440.796875 524.613281 439.984375 522.246094 441.855469 C 521.3125 442.589844 520.367188 444.117188 519.75 445.542969 C 519.144531 446.933594 518.722656 448.582031 518.390625 450.117188 C 517.6875 453.347656 517.34375 456.707031 517.019531 460.078125 Z M 480.5625 463.046875 C 480.199219 462.253906 479.855469 461.457031 479.457031 460.675781 C 477.398438 456.664062 474.933594 452.617188 471.640625 449.492188 C 469.507812 447.46875 465.429688 445.210938 462.667969 447.511719 C 459.9375 449.789062 461.792969 454.484375 463.585938 456.726562 C 465.976562 459.71875 469.554688 461.464844 473.214844 462.308594 C 475.617188 462.859375 478.085938 463.042969 480.5625 463.046875 Z M 355.992188 352.007812 C 354.824219 350.457031 355.625 348.128906 356.984375 347.046875 C 358.550781 345.800781 360.59375 346.097656 362.039062 347.347656 C 363.714844 348.796875 365.519531 350.046875 367.445312 351.144531 C 383.773438 360.433594 404.835938 356.105469 418.292969 343.816406 C 422.359375 340.101562 425.855469 335.78125 428.765625 331.089844 C 420.308594 324.128906 413.933594 314.574219 411.296875 304.019531 C 409.019531 294.921875 410.058594 282.046875 419.667969 277.4375 C 430.992188 272.007812 442.914062 281.371094 445.488281 292.417969 C 448.207031 304.082031 444.207031 317.152344 439.296875 327.722656 C 439.125 328.09375 438.929688 328.449219 438.75 328.816406 C 446.585938 333.730469 455.835938 336.160156 465.101562 334.347656 C 479.980469 331.429688 492.6875 318.707031 494.347656 303.679688 C 494.277344 302.785156 494.253906 301.882812 494.257812 300.976562 C 494.257812 300.851562 494.257812 300.726562 494.261719 300.601562 C 494.273438 299.621094 494.3125 298.636719 494.414062 297.640625 C 494.910156 292.710938 501.664062 292.683594 502.113281 297.640625 C 502.289062 299.550781 502.296875 301.453125 502.148438 303.351562 C 502.148438 303.355469 502.148438 303.355469 502.148438 303.359375 C 502.195312 303.808594 502.261719 304.253906 502.332031 304.703125 C 502.382812 305.042969 502.429688 305.386719 502.496094 305.726562 C 502.5625 306.082031 502.652344 306.433594 502.734375 306.785156 C 502.933594 307.648438 503.167969 308.503906 503.441406 309.347656 C 503.488281 309.484375 503.527344 309.625 503.574219 309.761719 C 503.769531 310.335938 503.980469 310.898438 504.207031 311.457031 C 504.234375 311.523438 504.257812 311.589844 504.285156 311.652344 C 504.617188 312.464844 504.996094 313.257812 505.390625 314.046875 C 505.566406 314.402344 505.757812 314.757812 505.949219 315.109375 C 506.164062 315.511719 506.390625 315.910156 506.625 316.304688 C 506.878906 316.734375 507.128906 317.167969 507.402344 317.59375 C 507.492188 317.734375 507.589844 317.871094 507.679688 318.011719 C 508.433594 319.160156 509.238281 320.277344 510.09375 321.359375 C 511.519531 323.152344 513.074219 324.847656 514.714844 326.4375 C 516.292969 327.96875 517.960938 329.40625 519.6875 330.765625 C 520.308594 331.242188 520.929688 331.714844 521.5625 332.164062 C 521.585938 332.183594 521.609375 332.207031 521.636719 332.226562 C 534.558594 341.648438 550.890625 346.542969 566.703125 347.109375 C 585.945312 347.796875 605.132812 342.296875 620.613281 330.753906 C 623.640625 328.492188 628.128906 332.988281 625.878906 336.015625 C 621.773438 341.539062 618.53125 347.644531 616.363281 354.179688 C 608.792969 377.011719 613.207031 403.949219 629.449219 422.054688 C 632.75 425.730469 627.320312 431.1875 624.003906 427.492188 C 618.96875 421.878906 614.808594 415.527344 611.789062 408.617188 C 603.09375 388.726562 602.761719 365.109375 611.570312 345.285156 C 605.515625 348.289062 599.121094 350.621094 592.558594 352.195312 C 572.039062 357.117188 550.050781 355.160156 530.847656 346.382812 C 526.46875 344.378906 522 341.839844 517.753906 338.847656 C 517.726562 338.832031 517.699219 338.824219 517.675781 338.804688 C 517.574219 338.734375 517.476562 338.65625 517.375 338.582031 C 509.511719 332.96875 502.464844 325.765625 498.269531 317.398438 C 490.945312 332.539062 474.558594 343.273438 457.476562 342.53125 C 449.515625 342.183594 441.828125 339.648438 435.039062 335.542969 C 430.625 342.574219 424.972656 348.808594 418.238281 353.71875 C 404.777344 363.53125 386.550781 366.46875 371.015625 361.070312 C 371.777344 362.453125 372.515625 363.851562 373.214844 365.269531 C 383.875 386.847656 387.570312 411.355469 383.644531 435.09375 C 383.300781 437.15625 380.75 438.285156 378.90625 437.78125 C 376.753906 437.1875 375.878906 435.09375 376.21875 433.046875 C 377.242188 426.859375 377.648438 420.574219 377.523438 414.300781 C 377.089844 391.886719 369.46875 369.921875 355.992188 352.007812 Z M 432.523438 324.125 C 433.085938 322.90625 433.621094 321.671875 434.109375 320.421875 C 435.925781 315.75 437.3125 310.878906 438.125 305.933594 C 438.941406 300.984375 439.046875 295.382812 436.820312 290.761719 C 435.097656 287.183594 431.65625 284.210938 427.644531 283.609375 C 424.015625 283.0625 421.121094 285.058594 419.5625 287.972656 C 415.921875 294.792969 418.628906 304.144531 422.050781 310.75 C 424.621094 315.699219 428.222656 320.296875 432.523438 324.125 Z M 611.449219 463.378906 C 612.410156 465.019531 615.039062 466.007812 616.71875 464.757812 C 629.84375 455 644.285156 447.058594 659.636719 441.390625 C 661.585938 440.667969 662.910156 438.78125 662.328125 436.65625 C 661.8125 434.785156 659.550781 433.246094 657.589844 433.972656 C 641.601562 439.878906 626.511719 447.945312 612.832031 458.117188 C 611.167969 459.355469 610.316406 461.445312 611.449219 463.378906 Z M 658.964844 479.535156 C 658.964844 477.621094 657.195312 475.476562 655.113281 475.691406 C 641.0625 477.128906 627.21875 479.980469 613.789062 484.367188 C 609.097656 485.898438 611.105469 493.328125 615.835938 491.785156 C 628.59375 487.617188 641.757812 484.75 655.113281 483.382812 C 657.183594 483.171875 658.964844 481.765625 658.964844 479.535156 Z M 624.808594 509.40625 C 620.8125 519.78125 616.285156 531.03125 616.636719 542.375 C 621.472656 543.730469 626.191406 545.683594 630.449219 548.316406 C 635.253906 551.285156 640.390625 555.324219 643.164062 560.347656 C 646.0625 565.605469 645.789062 572.710938 639.523438 575.292969 C 634.496094 577.363281 628.511719 575.246094 624.191406 572.4375 C 615.988281 567.105469 611.226562 558.023438 609.582031 548.566406 C 597.234375 546.480469 583.839844 548.484375 572.027344 551.5 C 567.214844 552.730469 565.183594 545.308594 569.980469 544.082031 C 582.632812 540.851562 595.9375 538.800781 608.925781 540.703125 C 609.003906 529.210938 613.3125 517.929688 617.382812 507.363281 C 618.132812 505.414062 619.949219 504.078125 622.121094 504.675781 C 623.984375 505.1875 625.554688 507.46875 624.808594 509.40625 Z M 617.855469 550.675781 C 619.511719 556.667969 622.890625 562.425781 628.078125 565.792969 C 629.808594 566.917969 631.652344 567.8125 633.671875 568.261719 C 634.617188 568.472656 636.320312 568.730469 637.058594 567.972656 C 638.085938 566.925781 636.816406 564.710938 636.222656 563.730469 C 635.0625 561.8125 633.347656 560.210938 631.683594 558.730469 C 627.503906 555.023438 622.824219 552.421875 617.855469 550.675781 Z M 332.824219 480.140625 C 348.320312 482.679688 363.875 483.234375 379.324219 480.074219 C 381.363281 479.65625 382.539062 477.25 382.015625 475.339844 C 381.433594 473.226562 379.320312 472.238281 377.277344 472.65625 C 363.269531 475.523438 348.921875 475.027344 334.871094 472.722656 C 332.824219 472.386719 330.726562 473.257812 330.136719 475.410156 C 329.628906 477.246094 330.761719 479.800781 332.824219 480.140625 Z M 326.753906 521.691406 C 347.300781 515.296875 367.550781 507.980469 387.441406 499.765625 C 389.363281 498.976562 390.730469 497.214844 390.132812 495.035156 C 389.632812 493.222656 387.328125 491.550781 385.394531 492.351562 C 365.503906 500.5625 345.253906 507.878906 324.707031 514.273438 C 319.992188 515.742188 322.003906 523.167969 326.753906 521.691406 Z M 659.636719 633.589844 C 642.980469 629.363281 626.320312 625.136719 609.664062 620.910156 C 607.34375 620.324219 605.027344 619.734375 602.707031 619.144531 C 599.6875 618.378906 597.441406 621.023438 597.96875 623.875 C 600.167969 635.753906 602.363281 647.628906 604.558594 659.507812 C 589.882812 655.886719 575.210938 652.269531 560.535156 648.652344 C 558.21875 648.078125 555.902344 647.507812 553.585938 646.9375 C 550.570312 646.191406 548.320312 648.800781 548.851562 651.667969 C 551.046875 663.539062 553.242188 675.410156 555.4375 687.277344 C 540.753906 683.609375 526.066406 679.941406 511.382812 676.273438 C 509.066406 675.695312 506.75 675.117188 504.433594 674.539062 C 499.625 673.335938 497.570312 680.753906 502.386719 681.957031 C 519.03125 686.113281 535.675781 690.269531 552.320312 694.429688 C 554.636719 695.007812 556.953125 695.585938 559.273438 696.164062 C 562.289062 696.917969 564.539062 694.296875 564.007812 691.433594 C 561.8125 679.558594 559.617188 667.679688 557.417969 655.804688 C 572.09375 659.421875 586.769531 663.042969 601.445312 666.660156 C 603.761719 667.230469 606.078125 667.804688 608.390625 668.375 C 611.410156 669.117188 613.660156 666.511719 613.128906 663.644531 C 610.933594 651.78125 608.742188 639.917969 606.546875 628.058594 C 621.242188 631.785156 635.9375 635.511719 650.632812 639.242188 C 652.953125 639.828125 655.269531 640.417969 657.589844 641.007812 C 662.394531 642.226562 664.445312 634.808594 659.636719 633.589844 Z M 416.929688 520.746094 C 410.386719 521.984375 405.304688 527.515625 400.617188 531.816406 C 395.460938 536.550781 390.355469 541.347656 385.308594 546.195312 C 373.703125 557.34375 362.394531 568.796875 351.378906 580.523438 C 347.992188 584.132812 353.425781 589.585938 356.824219 585.964844 C 365.738281 576.472656 374.839844 567.164062 384.140625 558.050781 C 388.878906 553.40625 393.664062 548.816406 398.5 544.277344 C 403.109375 539.949219 407.632812 535.296875 412.613281 531.402344 C 414.453125 529.960938 416.722656 528.371094 419.125 528.164062 C 421.3125 527.972656 422.925781 529.40625 424.011719 531.164062 C 426.699219 535.511719 426.957031 540.886719 425.925781 545.78125 C 423.5625 557.03125 416.199219 567.03125 408.984375 575.710938 C 400.277344 586.183594 390.304688 595.507812 380.367188 604.792969 C 376.742188 608.179688 382.195312 613.609375 385.8125 610.230469 C 395.421875 601.253906 405.058594 592.242188 413.558594 582.1875 C 421.765625 572.480469 430.167969 561.351562 433.148438 548.757812 C 434.625 542.511719 434.613281 535.972656 432.039062 530.019531 C 429.371094 523.847656 423.941406 519.417969 416.929688 520.746094 Z M 426.382812 604.847656 C 427.703125 600.816406 428.382812 596.523438 428.40625 592.28125 C 428.433594 587.332031 420.734375 587.328125 420.707031 592.28125 C 420.664062 599.792969 417.933594 607.960938 412.839844 613.601562 C 410.085938 616.644531 406.851562 618.941406 403.191406 620.199219 C 398.621094 621.769531 393.9375 621.921875 389.046875 620.992188 C 387.007812 620.605469 384.894531 621.5625 384.3125 623.679688 C 383.792969 625.558594 384.949219 628.019531 387 628.410156 C 395.859375 630.09375 405.207031 629.15625 412.742188 623.867188 C 419.328125 619.246094 423.890625 612.441406 426.382812 604.847656 Z M 399.027344 651.726562 C 407 652.9375 415.011719 652.070312 422.320312 648.5625 C 429.765625 644.988281 435.402344 638.628906 438.503906 631.042969 C 440.597656 625.929688 441.414062 620.378906 441.445312 614.875 C 441.476562 609.925781 433.773438 609.917969 433.746094 614.875 C 433.714844 619.878906 432.902344 625.1875 430.800781 629.566406 C 429.9375 631.367188 428.628906 633.511719 427.605469 634.765625 C 426.402344 636.238281 424.476562 638.101562 423.367188 638.945312 C 419.90625 641.570312 416.714844 642.9375 412.582031 643.882812 C 410.363281 644.390625 409.351562 644.515625 407.070312 644.597656 C 405.964844 644.636719 404.863281 644.628906 403.757812 644.566406 C 403.207031 644.535156 402.65625 644.492188 402.105469 644.4375 C 401.875 644.414062 401.640625 644.386719 401.40625 644.359375 C 401.339844 644.351562 401.242188 644.335938 401.074219 644.3125 C 399.023438 644 396.9375 644.828125 396.339844 646.996094 C 395.839844 648.816406 396.960938 651.414062 399.027344 651.726562 Z M 449.929688 634.726562 C 447.785156 635.316406 446.855469 637.40625 447.242188 639.457031 C 447.261719 639.566406 447.367188 640.308594 447.394531 640.421875 C 447.433594 640.804688 447.46875 641.1875 447.488281 641.570312 C 447.539062 642.511719 447.527344 643.460938 447.460938 644.402344 C 447.457031 644.507812 447.371094 645.261719 447.367188 645.390625 C 447.304688 645.789062 447.238281 646.183594 447.15625 646.578125 C 446.960938 647.527344 446.707031 648.46875 446.398438 649.386719 C 445.898438 650.878906 445.34375 652.097656 444.246094 653.855469 C 443.128906 655.648438 442.351562 656.597656 440.664062 658.199219 C 433.8125 664.726562 423.140625 666.390625 413.402344 664.960938 C 411.347656 664.65625 409.265625 665.46875 408.664062 667.644531 C 408.167969 669.457031 409.285156 672.074219 411.355469 672.378906 C 421.292969 673.835938 431.785156 673.199219 440.570312 667.871094 C 447.199219 663.851562 452.316406 657.394531 454.292969 649.859375 C 455.367188 645.761719 455.445312 641.5625 454.667969 637.410156 C 454.285156 635.367188 451.816406 634.207031 449.929688 634.726562 Z M 408.773438 683.410156 C 410.34375 684.976562 410.097656 687.25 408.773438 688.851562 C 398.363281 701.441406 381.898438 706.222656 366.28125 708.195312 C 362.28125 708.699219 358.238281 709.078125 354.195312 709.15625 C 354.238281 709.667969 354.300781 710.175781 354.320312 710.691406 C 354.625 718.738281 351.226562 726.273438 347.164062 733.027344 C 342.914062 740.089844 337.703125 746.59375 331.777344 752.320312 C 328.214844 755.765625 322.765625 750.332031 326.332031 746.882812 C 331.976562 741.425781 336.867188 735.320312 340.863281 728.5625 C 344.410156 722.5625 347.355469 715.972656 346.484375 708.863281 C 344.9375 708.714844 343.398438 708.527344 341.867188 708.242188 C 334.4375 706.875 327.527344 703.289062 322.085938 698.058594 C 317.222656 693.386719 311.230469 685.511719 313.390625 678.3125 C 314.503906 674.601562 317.730469 672.136719 321.542969 671.777344 C 324.921875 671.460938 328.410156 672.832031 331.246094 674.566406 C 337.398438 678.328125 342.738281 684.378906 346.855469 690.214844 C 349.285156 693.664062 351.269531 697.464844 352.59375 701.472656 C 353.117188 701.472656 353.640625 701.476562 354.164062 701.464844 C 360.425781 701.320312 366.722656 700.636719 372.863281 699.417969 C 384.390625 697.128906 395.667969 692.675781 403.328125 683.410156 C 404.660156 681.800781 407.410156 682.050781 408.773438 683.410156 Z M 344.136719 700.839844 C 342.8125 697.914062 341.078125 695.152344 339.140625 692.640625 C 337.175781 690.09375 334.941406 687.742188 332.605469 685.535156 C 330.558594 683.597656 328.476562 681.671875 325.929688 680.410156 C 325.007812 679.949219 323.792969 679.523438 322.945312 679.433594 C 322.089844 679.34375 321.667969 679.335938 321.226562 679.773438 C 319.636719 681.34375 321.433594 684.507812 322.324219 686.035156 C 325.214844 691 329.519531 695.007812 334.585938 697.699219 C 337.601562 699.304688 340.824219 700.28125 344.136719 700.839844 Z M 344.136719 700.839844 " fill-opacity="1" fill-rule="nonzero"/><path fill="#439751" d="M 613.789062 484.367188 C 627.21875 479.980469 641.0625 477.128906 655.113281 475.691406 C 657.195312 475.476562 658.964844 477.621094 658.964844 479.539062 C 658.964844 481.765625 657.183594 483.171875 655.113281 483.382812 C 641.757812 484.75 628.59375 487.617188 615.835938 491.785156 C 611.105469 493.328125 609.097656 485.898438 613.789062 484.367188 Z M 377.277344 472.65625 C 363.269531 475.523438 348.925781 475.027344 334.871094 472.722656 C 332.824219 472.386719 330.726562 473.257812 330.136719 475.410156 C 329.628906 477.246094 330.761719 479.800781 332.824219 480.140625 C 348.320312 482.679688 363.875 483.238281 379.324219 480.074219 C 381.363281 479.65625 382.539062 477.25 382.015625 475.339844 C 381.433594 473.226562 379.320312 472.238281 377.277344 472.65625 Z M 659.636719 633.589844 C 642.980469 629.363281 626.320312 625.136719 609.664062 620.910156 C 607.34375 620.324219 605.027344 619.734375 602.707031 619.144531 C 599.6875 618.378906 597.441406 621.023438 597.96875 623.875 C 600.167969 635.753906 602.363281 647.628906 604.558594 659.507812 C 589.882812 655.886719 575.210938 652.269531 560.535156 648.652344 C 558.21875 648.078125 555.902344 647.507812 553.585938 646.9375 C 550.570312 646.191406 548.320312 648.800781 548.851562 651.667969 C 551.046875 663.539062 553.242188 675.410156 555.4375 687.277344 C 540.753906 683.609375 526.066406 679.941406 511.382812 676.273438 C 509.066406 675.695312 506.75 675.117188 504.433594 674.539062 C 499.625 673.335938 497.570312 680.753906 502.386719 681.957031 C 519.03125 686.113281 535.675781 690.269531 552.320312 694.429688 C 554.636719 695.007812 556.953125 695.585938 559.273438 696.164062 C 562.289062 696.917969 564.539062 694.296875 564.007812 691.433594 C 561.8125 679.558594 559.617188 667.679688 557.417969 655.804688 C 572.09375 659.421875 586.769531 663.042969 601.445312 666.660156 C 603.761719 667.230469 606.078125 667.804688 608.390625 668.375 C 611.410156 669.117188 613.660156 666.511719 613.128906 663.644531 C 610.933594 651.78125 608.742188 639.917969 606.546875 628.058594 C 621.242188 631.785156 635.9375 635.511719 650.632812 639.242188 C 652.953125 639.828125 655.269531 640.417969 657.589844 641.007812 C 662.394531 642.226562 664.445312 634.808594 659.636719 633.589844 Z M 659.636719 633.589844 " fill-opacity="1" fill-rule="nonzero"/><path fill="#e06937" d="M 361.234375 620.449219 C 361.464844 629.367188 357.824219 638.847656 350.96875 644.71875 C 344.449219 650.304688 335.410156 652.410156 327.167969 649.640625 C 319.175781 646.949219 313.402344 640.210938 313.078125 631.648438 C 312.769531 623.539062 317.386719 615.746094 325.09375 612.914062 C 327.054688 612.195312 329.3125 613.726562 329.828125 615.601562 C 330.414062 617.722656 329.089844 619.617188 327.140625 620.332031 C 325.710938 620.859375 324.394531 621.867188 323.320312 623.207031 C 321.351562 625.664062 320.457031 629.375 320.828125 632.527344 C 321.226562 635.925781 323.296875 639.035156 326.480469 640.933594 C 333.832031 645.328125 342.96875 642.917969 348.257812 636.511719 C 360.472656 621.722656 350.117188 598.378906 332.53125 593.988281 C 324.027344 591.867188 314.242188 593.964844 307.488281 599.601562 C 299.480469 606.285156 296.304688 616.722656 294.738281 626.664062 C 293.460938 634.765625 292.621094 642.960938 291.570312 651.09375 C 291.199219 653.953125 290.828125 656.8125 290.457031 659.667969 C 290.238281 661.359375 289.859375 662.8125 288.640625 664.070312 C 279.070312 673.925781 269.480469 683.773438 260.109375 693.820312 C 256.722656 697.449219 251.289062 692 254.664062 688.378906 C 263.921875 678.457031 273.386719 668.726562 282.84375 658.992188 C 283.476562 654.109375 284.109375 649.222656 284.742188 644.335938 C 285.902344 635.328125 286.550781 626.046875 288.816406 617.234375 C 291.136719 608.234375 295.476562 599.328125 302.90625 593.464844 C 309.957031 587.902344 319.070312 584.960938 328.066406 585.578125 C 346.175781 586.816406 360.765625 602.324219 361.234375 620.449219 Z M 538.738281 447.953125 C 538.546875 453.191406 535.753906 458.09375 531.785156 461.429688 C 527.308594 465.195312 521.898438 467.042969 516.207031 468.050781 C 514.199219 488.042969 513.242188 508.4375 518.230469 528.066406 C 519.453125 532.875 512.023438 534.90625 510.804688 530.113281 C 510.03125 527.0625 509.375 523.988281 508.851562 520.882812 C 506.757812 508.457031 506.542969 495.839844 507.265625 483.28125 C 507.542969 478.511719 507.96875 473.75 508.433594 468.992188 C 504.542969 469.296875 500.65625 469.429688 496.960938 469.707031 C 495.125 469.847656 493.226562 470.023438 491.300781 470.195312 C 496.648438 489.453125 494.289062 510.210938 491.707031 529.9375 C 491.4375 532.007812 490.164062 533.785156 487.859375 533.785156 C 485.972656 533.785156 483.738281 532 484.007812 529.9375 C 486.53125 510.640625 489.324219 489.65625 483.488281 470.726562 C 475.945312 470.984375 468.414062 470.222656 462.25 465.804688 C 458.046875 462.796875 454.675781 458.503906 453.894531 453.285156 C 453.007812 447.355469 455.632812 441.539062 461.554688 439.5625 C 473.109375 435.710938 481.84375 448.363281 486.253906 457.082031 C 487.175781 458.910156 487.976562 460.765625 488.722656 462.636719 C 494.046875 462.242188 499.371094 461.835938 504.695312 461.433594 C 506.132812 461.324219 507.65625 461.230469 509.210938 461.105469 C 509.644531 456.574219 510.050781 451.984375 511.074219 447.574219 C 512.046875 443.378906 513.816406 438.894531 517.226562 436.082031 C 521.289062 432.730469 526.882812 432.113281 531.460938 434.867188 C 535.886719 437.535156 538.929688 442.746094 538.738281 447.953125 Z M 480.5625 463.046875 C 480.199219 462.253906 479.855469 461.457031 479.457031 460.675781 C 477.398438 456.664062 474.933594 452.617188 471.640625 449.492188 C 469.507812 447.46875 465.429688 445.210938 462.667969 447.511719 C 459.9375 449.789062 461.792969 454.484375 463.585938 456.726562 C 465.976562 459.71875 469.554688 461.464844 473.214844 462.308594 C 475.617188 462.859375 478.085938 463.042969 480.5625 463.046875 Z M 529.550781 443.308594 C 527.652344 440.796875 524.613281 439.984375 522.246094 441.855469 C 521.3125 442.589844 520.367188 444.117188 519.75 445.542969 C 519.144531 446.933594 518.722656 448.582031 518.390625 450.117188 C 517.6875 453.347656 517.34375 456.707031 517.019531 460.078125 C 522.132812 459.003906 526.855469 456.898438 529.605469 452.304688 C 531.308594 449.457031 531.632812 446.058594 529.550781 443.308594 Z M 494.414062 297.640625 C 494.3125 298.636719 494.269531 299.621094 494.261719 300.601562 C 494.273438 299.621094 494.3125 298.636719 494.414062 297.640625 Z M 494.367188 303.476562 C 494.300781 302.648438 494.257812 301.816406 494.257812 300.976562 C 494.253906 301.882812 494.277344 302.785156 494.347656 303.679688 C 494.355469 303.613281 494.359375 303.542969 494.367188 303.476562 Z M 517.375 338.582031 C 509.777344 333.085938 502.632812 325.761719 498.347656 317.238281 C 498.320312 317.292969 498.296875 317.34375 498.269531 317.398438 C 502.464844 325.765625 509.511719 332.96875 517.375 338.582031 Z M 502.148438 303.355469 C 502.148438 303.355469 502.148438 303.355469 502.148438 303.359375 C 502.148438 303.355469 502.148438 303.355469 502.148438 303.355469 Z M 519.6875 330.765625 C 517.960938 329.40625 516.292969 327.96875 514.714844 326.4375 C 513.074219 324.847656 511.519531 323.152344 510.09375 321.359375 C 512.890625 324.882812 516.1875 328.054688 519.6875 330.765625 Z M 629.449219 422.054688 C 613.210938 403.949219 608.792969 377.011719 616.363281 354.179688 C 618.53125 347.644531 621.773438 341.539062 625.878906 336.015625 C 628.128906 332.988281 623.644531 328.492188 620.613281 330.753906 C 605.132812 342.296875 585.945312 347.796875 566.703125 347.109375 C 550.890625 346.542969 534.558594 341.648438 521.636719 332.226562 C 523.277344 333.449219 524.058594 335.523438 522.941406 337.425781 C 521.976562 339.078125 519.445312 339.980469 517.753906 338.847656 C 522 341.84375 526.46875 344.378906 530.851562 346.382812 C 550.054688 355.164062 572.039062 357.117188 592.558594 352.195312 C 599.121094 350.621094 605.515625 348.289062 611.570312 345.285156 C 602.761719 365.109375 603.09375 388.726562 611.789062 408.617188 C 614.808594 415.53125 618.96875 421.878906 624.003906 427.492188 C 627.320312 431.1875 632.75 425.730469 629.449219 422.054688 Z M 413.558594 582.1875 C 421.765625 572.480469 430.167969 561.351562 433.148438 548.757812 C 434.625 542.511719 434.613281 535.972656 432.039062 530.019531 C 429.371094 523.847656 423.941406 519.417969 416.929688 520.746094 C 410.386719 521.984375 405.304688 527.515625 400.617188 531.816406 C 395.460938 536.550781 390.355469 541.347656 385.308594 546.195312 C 373.703125 557.34375 362.394531 568.796875 351.378906 580.523438 C 347.992188 584.132812 353.425781 589.585938 356.824219 585.964844 C 365.738281 576.472656 374.839844 567.164062 384.140625 558.050781 C 388.878906 553.40625 393.664062 548.816406 398.5 544.277344 C 403.109375 539.949219 407.632812 535.296875 412.613281 531.402344 C 414.453125 529.960938 416.722656 528.371094 419.125 528.164062 C 421.3125 527.972656 422.925781 529.40625 424.011719 531.164062 C 426.699219 535.511719 426.957031 540.886719 425.925781 545.78125 C 423.5625 557.03125 416.199219 567.03125 408.984375 575.710938 C 400.277344 586.183594 390.304688 595.507812 380.367188 604.792969 C 376.742188 608.179688 382.195312 613.609375 385.8125 610.230469 C 395.421875 601.253906 405.058594 592.242188 413.558594 582.1875 Z M 426.382812 604.847656 C 427.703125 600.816406 428.382812 596.523438 428.40625 592.28125 C 428.433594 587.332031 420.734375 587.328125 420.707031 592.28125 C 420.664062 599.792969 417.933594 607.960938 412.839844 613.601562 C 410.085938 616.644531 406.851562 618.941406 403.191406 620.199219 C 398.621094 621.769531 393.9375 621.921875 389.046875 620.992188 C 387.007812 620.605469 384.894531 621.5625 384.3125 623.679688 C 383.792969 625.558594 384.949219 628.019531 387 628.410156 C 395.859375 630.09375 405.207031 629.15625 412.742188 623.867188 C 419.328125 619.246094 423.890625 612.441406 426.382812 604.847656 Z M 438.503906 631.042969 C 440.597656 625.925781 441.414062 620.378906 441.445312 614.875 C 441.476562 609.925781 433.773438 609.917969 433.746094 614.875 C 433.714844 619.878906 432.902344 625.1875 430.800781 629.566406 C 429.9375 631.367188 428.628906 633.511719 427.601562 634.765625 C 426.398438 636.238281 424.476562 638.101562 423.367188 638.945312 C 419.90625 641.570312 416.714844 642.9375 412.578125 643.882812 C 410.363281 644.390625 409.351562 644.515625 407.070312 644.597656 C 405.964844 644.636719 404.859375 644.625 403.757812 644.566406 C 403.207031 644.535156 402.65625 644.492188 402.105469 644.4375 C 401.875 644.414062 401.640625 644.386719 401.40625 644.359375 C 401.339844 644.347656 401.242188 644.335938 401.074219 644.3125 C 399.023438 644 396.9375 644.828125 396.339844 646.996094 C 395.839844 648.816406 396.960938 651.414062 399.027344 651.726562 C 407 652.9375 415.011719 652.070312 422.320312 648.558594 C 429.765625 644.988281 435.398438 638.628906 438.503906 631.042969 Z M 449.929688 634.726562 C 447.785156 635.316406 446.855469 637.40625 447.242188 639.457031 C 447.261719 639.566406 447.367188 640.308594 447.394531 640.421875 C 447.433594 640.804688 447.46875 641.1875 447.488281 641.570312 C 447.539062 642.511719 447.527344 643.460938 447.460938 644.402344 C 447.457031 644.507812 447.371094 645.261719 447.367188 645.390625 C 447.304688 645.789062 447.238281 646.183594 447.15625 646.578125 C 446.960938 647.527344 446.707031 648.46875 446.398438 649.386719 C 445.898438 650.878906 445.34375 652.097656 444.246094 653.855469 C 443.128906 655.648438 442.351562 656.597656 440.664062 658.199219 C 433.8125 664.726562 423.140625 666.390625 413.402344 664.960938 C 411.347656 664.65625 409.265625 665.46875 408.664062 667.644531 C 408.167969 669.457031 409.285156 672.074219 411.355469 672.378906 C 421.292969 673.835938 431.785156 673.199219 440.570312 667.871094 C 447.199219 663.851562 452.316406 657.394531 454.292969 649.859375 C 455.367188 645.761719 455.445312 641.5625 454.667969 637.410156 C 454.285156 635.367188 451.816406 634.207031 449.929688 634.726562 Z M 449.929688 634.726562 " fill-opacity="1" fill-rule="nonzero"/><path fill="#2f72b1" d="M 463.015625 567.644531 C 463.367188 567.511719 463.777344 567.414062 463.015625 567.644531 Z M 461.128906 569.023438 C 461.128906 569.027344 461.125 569.027344 461.125 569.03125 C 461.125 569.03125 461.125 569.035156 461.128906 569.035156 C 461.128906 569.03125 461.128906 569.027344 461.128906 569.023438 Z M 548.128906 560.101562 C 547.964844 560.558594 547.972656 560.652344 548.023438 560.558594 C 548.050781 560.417969 548.085938 560.285156 548.125 560.152344 C 548.125 560.136719 548.125 560.117188 548.128906 560.101562 Z M 461.261719 568.761719 C 461.226562 568.828125 461.191406 568.898438 461.15625 568.972656 C 461.15625 568.980469 461.160156 568.988281 461.160156 568.992188 C 461.164062 569.015625 461.167969 569.035156 461.175781 569.054688 C 461.335938 568.859375 461.371094 568.726562 461.34375 568.695312 C 461.316406 568.714844 461.289062 568.742188 461.261719 568.761719 Z M 551.902344 618.488281 C 551.757812 618.707031 551.800781 618.660156 551.902344 618.488281 Z M 558.171875 611.230469 C 560.207031 614.652344 560.539062 618.921875 558.574219 622.453125 C 556.546875 626.101562 552.726562 628.226562 549 629.761719 C 539.046875 633.855469 527.550781 634.570312 516.921875 635.125 C 499.792969 636.019531 482.457031 635.566406 465.359375 634.128906 C 463.28125 633.957031 461.511719 632.511719 461.511719 630.285156 C 461.511719 628.332031 463.285156 626.265625 465.359375 626.4375 C 466.667969 626.546875 467.980469 626.640625 469.289062 626.730469 C 489.101562 628.074219 509.320312 628.742188 529.082031 626.441406 C 529.695312 626.371094 530.308594 626.292969 530.921875 626.214844 C 531.101562 626.191406 531.367188 626.152344 531.425781 626.144531 C 531.753906 626.097656 532.082031 626.050781 532.410156 626 C 533.578125 625.824219 534.746094 625.632812 535.910156 625.414062 C 538.230469 624.984375 540.542969 624.464844 542.808594 623.796875 C 543.820312 623.5 544.820312 623.171875 545.804688 622.800781 C 546.027344 622.714844 546.25 622.625 546.472656 622.539062 C 546.828125 622.378906 547.183594 622.222656 547.53125 622.050781 C 548.304688 621.671875 549.0625 621.253906 549.785156 620.773438 C 550.113281 620.558594 551.03125 619.664062 550.125 620.5625 C 550.386719 620.300781 550.695312 620.082031 550.960938 619.820312 C 551.167969 619.621094 551.347656 619.390625 551.546875 619.183594 C 551.617188 619.074219 551.703125 618.96875 551.761719 618.855469 C 551.882812 618.628906 551.996094 618.347656 552.144531 618.136719 C 552.027344 618.300781 551.957031 618.410156 551.902344 618.488281 C 551.964844 618.382812 552.042969 618.234375 552.101562 618.082031 C 552.128906 618.140625 552.222656 617.960938 552.207031 617.730469 C 552.203125 617.714844 552.203125 617.695312 552.203125 617.675781 C 552.21875 617.570312 552.234375 617.460938 552.273438 617.359375 C 552.242188 617.449219 552.222656 617.511719 552.199219 617.582031 C 552.191406 617.351562 552.191406 617.097656 552.203125 616.886719 C 552.207031 616.863281 552.210938 616.859375 552.210938 616.839844 C 552.199219 616.804688 552.191406 616.792969 552.179688 616.75 C 552.082031 616.429688 551.976562 616.097656 551.894531 615.777344 C 551.886719 615.75 551.890625 615.746094 551.882812 615.726562 C 551.855469 615.683594 551.832031 615.652344 551.789062 615.582031 C 551.597656 615.277344 551.414062 614.960938 551.230469 614.648438 C 551.191406 614.582031 551.171875 614.546875 551.144531 614.5 C 550.875 614.214844 550.636719 613.894531 550.363281 613.609375 C 549.765625 612.984375 549.117188 612.429688 548.457031 611.871094 C 548.277344 611.742188 548.101562 611.613281 547.921875 611.484375 C 547.519531 611.199219 547.109375 610.925781 546.695312 610.664062 C 544.933594 609.539062 543.074219 608.570312 541.179688 607.695312 C 540.820312 607.53125 540.457031 607.371094 540.097656 607.210938 C 540.035156 607.179688 539.816406 607.085938 539.667969 607.023438 C 539.4375 606.929688 539.207031 606.835938 538.976562 606.746094 C 531.78125 609.132812 524.089844 610.363281 516.753906 611.3125 C 504.804688 612.855469 492.59375 613.347656 480.582031 612.320312 C 475.675781 611.898438 470.691406 611.289062 465.941406 609.929688 C 462.683594 608.996094 459.070312 607.667969 456.734375 605.085938 C 454.105469 602.175781 453.835938 597.976562 456.476562 594.976562 C 458.699219 592.453125 462.246094 591.300781 465.433594 590.597656 C 475.75 588.320312 486.835938 588.921875 497.273438 589.890625 C 509.769531 591.050781 522.351562 593.144531 534.335938 596.941406 C 535.886719 597.433594 537.433594 597.96875 538.972656 598.53125 C 539.121094 598.476562 539.277344 598.429688 539.429688 598.375 C 539.964844 598.171875 540.5 597.960938 541.03125 597.75 C 541.0625 597.738281 541.070312 597.734375 541.097656 597.722656 C 541.113281 597.714844 541.117188 597.714844 541.136719 597.707031 C 541.386719 597.59375 541.636719 597.488281 541.882812 597.375 C 543.613281 596.585938 545.304688 595.6875 546.871094 594.605469 C 547.066406 594.472656 547.253906 594.332031 547.445312 594.191406 C 547.460938 594.175781 547.480469 594.164062 547.492188 594.152344 C 547.753906 593.921875 548.023438 593.703125 548.277344 593.464844 C 548.566406 593.195312 548.839844 592.90625 549.113281 592.621094 C 549.214844 592.515625 549.304688 592.386719 549.40625 592.277344 C 549.566406 592.003906 549.773438 591.746094 549.929688 591.472656 C 550.171875 591.046875 550.359375 590.085938 550.070312 591.300781 C 550.132812 591.03125 550.265625 590.769531 550.339844 590.5 C 550.382812 590.335938 550.402344 590.148438 550.40625 589.996094 C 550.410156 590.089844 550.414062 590.210938 550.425781 590.367188 C 550.402344 589.988281 550.449219 589.5625 550.460938 589.179688 C 550.460938 589.160156 550.460938 589.152344 550.460938 589.136719 C 550.351562 588.851562 550.304688 588.488281 550.226562 588.199219 C 550.203125 588.101562 550.160156 588.003906 550.121094 587.90625 C 549.722656 587.355469 549.371094 586.664062 549.019531 586.078125 C 548.960938 586.007812 548.902344 585.933594 548.839844 585.863281 C 548.550781 585.550781 548.269531 585.230469 547.96875 584.925781 C 547.324219 584.273438 546.625 583.683594 545.917969 583.097656 C 545.914062 583.09375 545.914062 583.09375 545.910156 583.089844 C 545.714844 582.945312 545.519531 582.800781 545.316406 582.65625 C 544.898438 582.355469 544.46875 582.066406 544.035156 581.78125 C 542.207031 580.589844 540.289062 579.539062 538.332031 578.578125 C 537.394531 578.117188 536.441406 577.691406 535.488281 577.269531 C 529.585938 579.121094 523.375 580.242188 517.527344 581.121094 C 505.292969 582.957031 492.769531 583.738281 480.421875 582.734375 C 475.386719 582.324219 470.261719 581.6875 465.417969 580.222656 C 461.972656 579.179688 458.234375 577.675781 455.824219 574.882812 C 453.371094 572.035156 452.640625 568.003906 454.710938 564.71875 C 456.660156 561.621094 460.460938 560.136719 463.867188 559.335938 C 473.945312 556.953125 484.972656 557.941406 495.128906 559.226562 C 507.628906 560.804688 520.105469 563.386719 531.976562 567.65625 C 533.144531 568.074219 534.351562 568.515625 535.578125 568.984375 C 535.820312 568.898438 536.066406 568.828125 536.308594 568.742188 C 536.949219 568.507812 537.585938 568.257812 538.226562 568.007812 C 538.417969 567.933594 538.507812 567.902344 538.566406 567.878906 C 538.621094 567.851562 538.707031 567.8125 538.867188 567.742188 C 539.835938 567.304688 540.800781 566.859375 541.738281 566.355469 C 542.597656 565.902344 543.4375 565.410156 544.246094 564.871094 C 544.554688 564.667969 544.847656 564.449219 545.152344 564.238281 C 545.292969 564.125 545.433594 564.011719 545.570312 563.890625 C 546.152344 563.390625 546.621094 562.761719 547.191406 562.261719 C 547.257812 562.164062 547.332031 562.066406 547.390625 561.96875 C 547.5625 561.671875 547.722656 561.355469 547.902344 561.066406 C 547.914062 561.046875 547.917969 561.046875 547.929688 561.03125 C 547.9375 560.988281 547.9375 560.960938 547.953125 560.902344 C 547.976562 560.792969 548 560.675781 548.023438 560.558594 C 548.058594 560.488281 548.109375 560.335938 548.125 560.152344 C 548.144531 560.082031 548.15625 560.007812 548.179688 559.949219 C 548.15625 560.007812 548.144531 560.046875 548.128906 560.097656 C 548.128906 560.066406 548.136719 560.03125 548.132812 559.996094 C 548.113281 559.257812 548.101562 558.9375 548.023438 558.558594 C 547.6875 556.933594 547.398438 556.296875 546.4375 554.949219 C 546.558594 555.132812 545.984375 554.390625 545.976562 554.382812 C 545.71875 554.097656 545.457031 553.820312 545.183594 553.550781 C 544.910156 553.28125 544.625 553.03125 544.339844 552.777344 C 544.332031 552.769531 543.9375 552.457031 543.800781 552.339844 C 542.671875 551.503906 541.449219 550.785156 540.195312 550.15625 C 539.761719 549.9375 539.320312 549.734375 538.878906 549.535156 C 538.839844 549.53125 537.832031 549.113281 537.625 549.035156 C 536.453125 548.605469 535.25 548.210938 534.03125 547.945312 C 532.304688 547.570312 531.46875 546.382812 531.308594 545.066406 C 531.019531 542.679688 532.96875 539.851562 536.078125 540.527344 C 537.035156 540.738281 537.996094 541.003906 538.953125 541.3125 C 542 542.300781 544.976562 543.765625 547.515625 545.566406 C 552.816406 549.324219 557.261719 555.847656 555.46875 562.628906 C 554.429688 566.570312 551.234375 569.492188 547.9375 571.640625 C 547.035156 572.230469 546.085938 572.761719 545.132812 573.277344 C 549.589844 575.730469 553.617188 578.824219 556.1875 582.949219 C 558.378906 586.460938 558.761719 590.648438 557.042969 594.417969 C 555.414062 597.992188 552.089844 600.597656 548.753906 602.5 C 548.617188 602.578125 548.46875 602.636719 548.332031 602.714844 C 548.5625 602.84375 548.808594 602.953125 549.035156 603.085938 C 552.550781 605.101562 556.070312 607.695312 558.171875 611.230469 Z M 461.117188 569.117188 C 461.121094 569.089844 461.125 569.0625 461.128906 569.035156 C 461.128906 569.039062 461.132812 569.042969 461.132812 569.046875 C 461.132812 569.039062 461.128906 569.03125 461.128906 569.023438 C 461.128906 569.023438 461.128906 569.019531 461.128906 569.019531 C 461.128906 569.019531 461.128906 569.015625 461.128906 569.015625 C 461.105469 568.980469 461.085938 568.957031 461.058594 568.917969 C 461.082031 568.949219 461.101562 568.996094 461.125 569.03125 C 461.085938 569.113281 461.046875 569.199219 460.992188 569.25 C 461.046875 569.203125 461.078125 569.160156 461.117188 569.117188 Z M 461.140625 569.09375 C 461.140625 569.082031 461.136719 569.074219 461.136719 569.0625 C 461.132812 569.078125 461.128906 569.09375 461.125 569.109375 C 461.128906 569.105469 461.136719 569.097656 461.140625 569.09375 Z M 461.167969 569.066406 C 461.160156 569.054688 461.152344 569.042969 461.144531 569.035156 C 461.140625 569.039062 461.140625 569.046875 461.136719 569.054688 C 461.144531 569.0625 461.148438 569.070312 461.152344 569.078125 C 461.15625 569.074219 461.164062 569.070312 461.167969 569.066406 Z M 522.167969 572.570312 C 520.007812 571.9375 517.832031 571.34375 515.648438 570.800781 C 504.089844 567.929688 493.804688 566.273438 482.144531 565.804688 C 479.734375 565.707031 477.320312 565.679688 474.90625 565.75 C 473.765625 565.785156 472.625 565.84375 471.484375 565.933594 C 470.949219 565.972656 470.414062 566.023438 469.882812 566.078125 C 469.675781 566.101562 468.863281 566.21875 468.710938 566.234375 C 467.15625 566.488281 465.609375 566.765625 464.105469 567.246094 C 463.683594 567.382812 463.273438 567.570312 462.847656 567.695312 C 462.917969 567.675781 462.957031 567.664062 463.015625 567.644531 C 462.9375 567.675781 462.859375 567.707031 462.804688 567.738281 C 462.515625 567.890625 462.230469 568.046875 461.945312 568.207031 C 461.878906 568.246094 461.8125 568.289062 461.753906 568.335938 C 461.789062 568.292969 461.820312 568.261719 461.863281 568.207031 C 461.800781 568.285156 461.714844 568.367188 461.628906 568.445312 C 461.667969 568.410156 461.707031 568.371094 461.753906 568.335938 C 461.363281 568.800781 461.375 568.703125 461.570312 568.503906 C 461.492188 568.574219 461.417969 568.632812 461.339844 568.695312 C 461.332031 568.683594 461.3125 568.691406 461.289062 568.710938 C 461.277344 568.722656 461.269531 568.746094 461.261719 568.761719 C 461.257812 568.765625 461.253906 568.769531 461.25 568.769531 C 461.238281 568.78125 461.238281 568.78125 461.226562 568.789062 C 461.203125 568.832031 461.179688 568.894531 461.15625 568.972656 C 461.15625 568.976562 461.15625 568.976562 461.15625 568.980469 C 461.15625 568.984375 461.15625 568.988281 461.15625 568.992188 C 461.160156 569.015625 461.164062 569.039062 461.164062 569.066406 C 461.167969 569.0625 461.171875 569.058594 461.175781 569.054688 C 461.179688 569.066406 461.179688 569.082031 461.183594 569.09375 C 461.179688 569.085938 461.171875 569.074219 461.164062 569.066406 C 461.167969 569.082031 461.167969 569.09375 461.167969 569.109375 C 461.1875 569.140625 461.210938 569.171875 461.226562 569.207031 C 461.210938 569.167969 461.199219 569.132812 461.183594 569.09375 C 461.457031 569.480469 461.421875 569.535156 461.320312 569.386719 C 461.363281 569.472656 461.40625 569.5625 461.441406 569.636719 C 461.449219 569.648438 461.449219 569.652344 461.453125 569.664062 C 461.460938 569.667969 461.460938 569.667969 461.464844 569.671875 C 461.695312 569.871094 461.917969 570.117188 462.132812 570.332031 C 462.15625 570.355469 462.164062 570.363281 462.179688 570.382812 C 462.476562 570.535156 462.757812 570.773438 463.042969 570.949219 C 463.726562 571.363281 464.449219 571.683594 465.167969 572.03125 C 463.984375 571.457031 465.367188 572.097656 465.675781 572.210938 C 466.113281 572.371094 466.554688 572.519531 467 572.664062 C 468.921875 573.273438 470.894531 573.722656 472.875 574.085938 C 473.546875 574.210938 474.214844 574.320312 474.886719 574.425781 C 475.011719 574.445312 475.640625 574.53125 475.894531 574.570312 C 477.074219 574.71875 478.253906 574.851562 479.441406 574.957031 C 484.925781 575.453125 490.449219 575.546875 495.957031 575.386719 C 505.214844 575.117188 513.523438 574.339844 522.167969 572.570312 Z M 462.207031 599.5 C 462.15625 599.097656 462.160156 599.25 462.207031 599.5 Z M 462.332031 600.066406 C 462.324219 600.058594 462.320312 600.058594 462.3125 600.050781 C 462.277344 600.101562 462.277344 600.113281 462.332031 600.066406 Z M 524.914062 602.28125 C 522.855469 601.761719 520.785156 601.273438 518.710938 600.832031 C 515.871094 600.230469 513.015625 599.699219 510.148438 599.230469 C 508.640625 598.984375 507.132812 598.757812 505.621094 598.539062 C 505.589844 598.535156 505.050781 598.460938 504.910156 598.441406 C 504.609375 598.402344 504.308594 598.363281 504.003906 598.324219 C 503.253906 598.230469 502.5 598.136719 501.75 598.050781 C 496.113281 597.398438 490.449219 596.972656 484.777344 596.859375 C 480.128906 596.765625 475.496094 596.917969 470.878906 597.429688 C 470.640625 597.464844 469.976562 597.550781 469.796875 597.578125 C 469.320312 597.65625 468.847656 597.738281 468.378906 597.832031 C 467.582031 597.984375 466.789062 598.164062 466.007812 598.375 C 465.28125 598.574219 464.578125 598.882812 463.859375 599.078125 C 463.773438 599.113281 463.6875 599.152344 463.605469 599.195312 C 463.328125 599.34375 463.054688 599.492188 462.78125 599.644531 C 462.722656 599.675781 462.667969 599.714844 462.617188 599.753906 C 462.660156 599.707031 462.691406 599.671875 462.738281 599.613281 C 462.671875 599.695312 462.582031 599.78125 462.488281 599.863281 C 462.476562 599.875 462.464844 599.882812 462.457031 599.894531 C 462.453125 599.898438 462.449219 599.898438 462.449219 599.902344 C 462.433594 599.914062 462.425781 599.925781 462.414062 599.9375 C 462.421875 599.945312 462.425781 599.957031 462.429688 599.964844 C 462.445312 599.949219 462.460938 599.9375 462.480469 599.914062 C 462.582031 600.027344 462.683594 600.148438 462.761719 600.230469 C 462.765625 600.238281 462.765625 600.238281 462.769531 600.242188 C 463.019531 600.382812 463.253906 600.574219 463.496094 600.71875 C 464.125 601.09375 464.789062 601.386719 465.453125 601.699219 C 464.21875 601.113281 465.546875 601.71875 465.863281 601.832031 C 466.273438 601.980469 466.691406 602.117188 467.109375 602.25 C 468.9375 602.824219 470.8125 603.25 472.695312 603.601562 C 473.816406 603.808594 474.9375 603.984375 476.066406 604.148438 C 476.097656 604.152344 476.101562 604.152344 476.128906 604.15625 C 476.164062 604.160156 476.179688 604.164062 476.226562 604.167969 C 476.527344 604.207031 476.828125 604.242188 477.132812 604.28125 C 477.75 604.351562 478.371094 604.417969 478.988281 604.480469 C 484.359375 605.015625 489.765625 605.179688 495.15625 605.121094 C 501.011719 605.058594 506.863281 604.714844 512.683594 604.101562 C 515.921875 603.757812 517.363281 603.570312 520.449219 603.074219 C 521.941406 602.835938 523.429688 602.570312 524.914062 602.28125 Z M 547.433594 594.203125 C 546.832031 594.640625 547.222656 594.375 547.433594 594.203125 Z M 550.40625 589.996094 C 550.417969 589.714844 550.390625 589.5625 550.40625 589.996094 Z M 462.488281 599.863281 C 462.476562 599.875 462.46875 599.882812 462.457031 599.894531 C 462.464844 599.902344 462.472656 599.90625 462.480469 599.914062 C 462.515625 599.871094 462.570312 599.8125 462.617188 599.753906 C 462.570312 599.789062 462.527344 599.824219 462.488281 599.863281 Z M 552.203125 617.675781 C 552.203125 617.648438 552.203125 617.613281 552.199219 617.582031 C 552.101562 617.894531 552.085938 618.042969 552.101562 618.082031 C 552.113281 618.050781 552.128906 618.023438 552.136719 617.992188 C 552.171875 617.890625 552.1875 617.785156 552.203125 617.675781 Z M 457.476562 342.53125 C 449.515625 342.183594 441.828125 339.648438 435.039062 335.542969 C 430.625 342.574219 424.972656 348.808594 418.238281 353.71875 C 404.777344 363.535156 386.550781 366.46875 371.015625 361.070312 C 371.777344 362.453125 372.515625 363.851562 373.21875 365.269531 C 383.875 386.847656 387.570312 411.355469 383.644531 435.09375 C 383.300781 437.15625 380.75 438.285156 378.90625 437.78125 C 376.753906 437.1875 375.878906 435.097656 376.21875 433.050781 C 377.242188 426.859375 377.648438 420.574219 377.527344 414.300781 C 377.089844 391.886719 369.46875 369.921875 355.992188 352.007812 C 354.824219 350.453125 355.625 348.128906 356.984375 347.046875 C 358.546875 345.800781 360.59375 346.097656 362.039062 347.347656 C 363.714844 348.796875 365.519531 350.046875 367.445312 351.144531 C 383.773438 360.433594 404.835938 356.105469 418.292969 343.8125 C 422.359375 340.101562 425.855469 335.777344 428.765625 331.089844 C 420.308594 324.128906 413.933594 314.574219 411.292969 304.019531 C 409.019531 294.921875 410.058594 282.046875 419.667969 277.4375 C 430.992188 272.007812 442.914062 281.371094 445.488281 292.417969 C 448.207031 304.082031 444.207031 317.152344 439.296875 327.722656 C 439.125 328.09375 438.929688 328.449219 438.75 328.816406 C 446.585938 333.730469 455.835938 336.160156 465.101562 334.34375 C 479.980469 331.429688 492.6875 318.707031 494.347656 303.679688 C 494.351562 303.609375 494.359375 303.542969 494.367188 303.476562 C 494.300781 302.648438 494.257812 301.816406 494.257812 300.972656 C 494.253906 300.851562 494.257812 300.726562 494.257812 300.601562 C 494.269531 299.621094 494.3125 298.636719 494.414062 297.640625 C 494.910156 292.710938 501.664062 292.683594 502.113281 297.640625 C 502.289062 299.550781 502.296875 301.453125 502.148438 303.351562 C 502.148438 303.351562 502.148438 303.351562 502.148438 303.355469 C 502.148438 303.355469 502.148438 303.355469 502.148438 303.359375 C 502.195312 303.808594 502.261719 304.253906 502.332031 304.699219 C 502.382812 305.042969 502.429688 305.386719 502.496094 305.726562 C 502.5625 306.082031 502.652344 306.433594 502.734375 306.785156 C 502.933594 307.648438 503.167969 308.503906 503.441406 309.347656 C 503.488281 309.484375 503.527344 309.625 503.574219 309.761719 C 503.769531 310.332031 503.980469 310.898438 504.207031 311.457031 C 504.234375 311.523438 504.257812 311.589844 504.285156 311.652344 C 507.371094 319.199219 513.210938 325.753906 519.6875 330.761719 C 520.308594 331.242188 520.929688 331.710938 521.5625 332.164062 C 521.585938 332.183594 521.609375 332.207031 521.636719 332.226562 C 523.277344 333.449219 524.058594 335.519531 522.941406 337.425781 C 521.976562 339.078125 519.445312 339.980469 517.75 338.847656 C 517.726562 338.832031 517.699219 338.824219 517.671875 338.804688 C 517.574219 338.734375 517.476562 338.65625 517.375 338.582031 C 509.777344 333.085938 502.632812 325.761719 498.347656 317.238281 C 498.320312 317.292969 498.292969 317.34375 498.269531 317.398438 C 490.945312 332.539062 474.558594 343.273438 457.476562 342.53125 Z M 436.820312 290.761719 C 435.097656 287.183594 431.65625 284.210938 427.644531 283.609375 C 424.015625 283.0625 421.117188 285.058594 419.5625 287.972656 C 415.921875 294.792969 418.628906 304.144531 422.050781 310.75 C 424.617188 315.699219 428.222656 320.296875 432.523438 324.125 C 433.085938 322.90625 433.621094 321.671875 434.109375 320.421875 C 435.925781 315.75 437.3125 310.878906 438.125 305.933594 C 438.941406 300.984375 439.046875 295.382812 436.820312 290.761719 Z M 662.328125 436.65625 C 661.8125 434.785156 659.550781 433.246094 657.589844 433.972656 C 641.601562 439.878906 626.511719 447.945312 612.832031 458.117188 C 611.167969 459.355469 610.316406 461.445312 611.449219 463.378906 C 612.410156 465.019531 615.039062 466.007812 616.71875 464.757812 C 629.84375 455 644.285156 447.058594 659.636719 441.390625 C 661.585938 440.667969 662.910156 438.785156 662.328125 436.65625 Z M 326.753906 521.691406 C 347.300781 515.296875 367.550781 507.980469 387.441406 499.765625 C 389.363281 498.976562 390.730469 497.214844 390.132812 495.035156 C 389.632812 493.222656 387.328125 491.550781 385.394531 492.351562 C 365.503906 500.5625 345.253906 507.878906 324.707031 514.273438 C 319.992188 515.742188 322.003906 523.167969 326.753906 521.691406 Z M 408.773438 683.410156 C 410.34375 684.976562 410.097656 687.25 408.773438 688.851562 C 398.363281 701.441406 381.898438 706.222656 366.28125 708.195312 C 362.28125 708.699219 358.238281 709.078125 354.195312 709.15625 C 354.238281 709.667969 354.300781 710.175781 354.320312 710.691406 C 354.625 718.738281 351.226562 726.273438 347.164062 733.027344 C 342.914062 740.089844 337.703125 746.59375 331.777344 752.320312 C 328.214844 755.765625 322.765625 750.332031 326.332031 746.882812 C 331.976562 741.425781 336.867188 735.320312 340.863281 728.5625 C 344.410156 722.5625 347.355469 715.972656 346.484375 708.863281 C 344.9375 708.714844 343.398438 708.527344 341.867188 708.242188 C 334.4375 706.875 327.527344 703.289062 322.085938 698.058594 C 317.222656 693.386719 311.230469 685.511719 313.390625 678.3125 C 314.503906 674.601562 317.730469 672.136719 321.542969 671.777344 C 324.921875 671.460938 328.410156 672.832031 331.246094 674.566406 C 337.398438 678.328125 342.738281 684.378906 346.855469 690.214844 C 349.285156 693.664062 351.269531 697.464844 352.59375 701.472656 C 353.117188 701.472656 353.640625 701.476562 354.164062 701.464844 C 360.425781 701.320312 366.722656 700.636719 372.863281 699.417969 C 384.390625 697.128906 395.667969 692.675781 403.328125 683.410156 C 404.660156 681.800781 407.410156 682.050781 408.773438 683.410156 Z M 344.136719 700.839844 C 342.8125 697.914062 341.078125 695.152344 339.140625 692.640625 C 337.175781 690.09375 334.941406 687.742188 332.605469 685.535156 C 330.558594 683.597656 328.476562 681.671875 325.929688 680.410156 C 325.007812 679.949219 323.792969 679.523438 322.945312 679.433594 C 322.089844 679.34375 321.667969 679.335938 321.226562 679.773438 C 319.636719 681.34375 321.433594 684.507812 322.324219 686.035156 C 325.214844 691 329.519531 695.007812 334.585938 697.699219 C 337.601562 699.304688 340.824219 700.28125 344.136719 700.839844 Z M 344.136719 700.839844 " fill-opacity="1" fill-rule="nonzero"/></svg>