<svg xmlns="http://www.w3.org/2000/svg" xmlns:xlink="http://www.w3.org/1999/xlink" width="70" zoomAndPan="magnify" viewBox="0 0 52.5 30.000001" height="40" preserveAspectRatio="xMidYMid meet" version="1.0"><defs><g/><clipPath id="96e02f72d7"><path d="M 0.605469 0 L 51.410156 0 L 51.410156 29.03125 L 0.605469 29.03125 Z M 0.605469 0 " clip-rule="nonzero"/></clipPath></defs><g clip-path="url(#96e02f72d7)"><path fill="#ffffff" d="M 0.605469 0 L 51.894531 0 L 51.894531 29.308594 L 0.605469 29.308594 Z M 0.605469 0 " fill-opacity="1" fill-rule="nonzero"/><path fill="#d9d9d9" d="M 0.605469 0 L 51.894531 0 L 51.894531 29.308594 L 0.605469 29.308594 Z M 0.605469 0 " fill-opacity="1" fill-rule="nonzero"/></g><g fill="#000000" fill-opacity="1"><g transform="translate(4.464781, 19.262042)"><g><path d="M 6.75 -9.210938 L 6.75 -10.082031 L 1.332031 -10.082031 L 1.332031 0 L 6.75 0 L 6.75 -0.875 L 2.230469 -0.875 L 2.230469 -4.597656 L 6.183594 -4.597656 L 6.183594 -5.484375 L 2.230469 -5.484375 L 2.230469 -9.210938 Z M 6.75 -9.210938 "/></g></g></g><g fill="#000000" fill-opacity="1"><g transform="translate(11.87247, 19.262042)"><g><path d="M 3.898438 -6.855469 C 3.199219 -6.855469 2.609375 -6.601562 2.125 -6.089844 L 2.125 -6.722656 L 1.25 -6.722656 L 1.25 0 L 2.125 0 L 2.125 -4.421875 C 2.125 -4.867188 2.300781 -5.242188 2.621094 -5.550781 C 2.945312 -5.863281 3.335938 -6.023438 3.804688 -6.023438 C 4.261719 -6.023438 4.652344 -5.863281 4.972656 -5.539062 C 5.296875 -5.214844 5.457031 -4.828125 5.457031 -4.371094 L 5.457031 0 L 6.34375 0 L 6.34375 -4.410156 C 6.34375 -5.082031 6.105469 -5.644531 5.632812 -6.128906 C 5.148438 -6.613281 4.570312 -6.855469 3.898438 -6.855469 Z M 3.898438 -6.855469 "/></g></g></g><g fill="#000000" fill-opacity="1"><g transform="translate(19.333941, 19.262042)"><g><path d="M 6.855469 -6.722656 L 6.855469 -5.699219 C 6.15625 -6.464844 5.285156 -6.855469 4.25 -6.855469 C 3.28125 -6.855469 2.445312 -6.507812 1.773438 -5.835938 C 1.089844 -5.148438 0.753906 -4.328125 0.753906 -3.359375 C 0.753906 -2.394531 1.089844 -1.558594 1.773438 -0.886719 C 2.460938 -0.203125 3.28125 0.132812 4.25 0.132812 C 5.296875 0.132812 6.15625 -0.253906 6.855469 -1.035156 L 6.855469 -0.0390625 C 6.855469 0.6875 6.601562 1.304688 6.089844 1.816406 C 5.578125 2.324219 4.972656 2.582031 4.25 2.582031 C 3.722656 2.582031 3.253906 2.445312 2.824219 2.164062 C 2.394531 1.882812 2.082031 1.503906 1.867188 1.046875 L 1.128906 1.519531 C 1.425781 2.109375 1.84375 2.582031 2.40625 2.929688 C 2.957031 3.28125 3.574219 3.457031 4.25 3.457031 C 5.214844 3.457031 6.035156 3.117188 6.722656 2.433594 C 7.394531 1.761719 7.742188 0.925781 7.742188 -0.0390625 L 7.742188 -6.722656 Z M 4.25 -0.738281 C 3.523438 -0.738281 2.902344 -0.996094 2.394531 -1.503906 C 1.882812 -2.015625 1.640625 -2.636719 1.640625 -3.359375 C 1.640625 -4.085938 1.882812 -4.707031 2.394531 -5.214844 C 2.902344 -5.726562 3.523438 -5.984375 4.25 -5.984375 C 4.972656 -5.984375 5.59375 -5.726562 6.105469 -5.214844 C 6.613281 -4.707031 6.871094 -4.085938 6.871094 -3.359375 C 6.871094 -2.636719 6.613281 -2.015625 6.105469 -1.503906 C 5.59375 -0.996094 4.972656 -0.738281 4.25 -0.738281 Z M 4.25 -0.738281 "/></g></g></g><g fill="#000000" fill-opacity="1"><g transform="translate(28.328039, 19.262042)"><g><path d="M 1.25 0 L 2.125 0 L 2.125 -10.082031 L 1.25 -10.082031 Z M 1.25 0 "/></g></g></g><g fill="#000000" fill-opacity="1"><g transform="translate(31.702507, 19.262042)"><g><path d="M 1.707031 -8.914062 C 1.882812 -8.914062 2.03125 -8.96875 2.164062 -9.101562 C 2.300781 -9.222656 2.367188 -9.371094 2.367188 -9.558594 C 2.367188 -9.746094 2.300781 -9.894531 2.164062 -10.027344 C 2.03125 -10.148438 1.882812 -10.21875 1.707031 -10.21875 C 1.519531 -10.21875 1.371094 -10.148438 1.238281 -10.027344 C 1.101562 -9.894531 1.046875 -9.746094 1.046875 -9.558594 C 1.046875 -9.371094 1.101562 -9.222656 1.238281 -9.101562 C 1.371094 -8.96875 1.519531 -8.914062 1.707031 -8.914062 Z M 1.265625 0 L 2.136719 0 L 2.136719 -6.722656 L 1.265625 -6.722656 Z M 1.265625 0 "/></g></g></g><g fill="#000000" fill-opacity="1"><g transform="translate(35.103866, 19.262042)"><g><path d="M 2.878906 0.132812 C 3.46875 0.132812 3.964844 -0.0390625 4.371094 -0.402344 C 4.773438 -0.753906 4.988281 -1.210938 4.988281 -1.761719 C 4.988281 -2.042969 4.933594 -2.300781 4.828125 -2.527344 C 4.71875 -2.742188 4.570312 -2.945312 4.355469 -3.105469 C 4.140625 -3.265625 3.953125 -3.386719 3.792969 -3.46875 C 3.617188 -3.550781 3.386719 -3.65625 3.105469 -3.792969 C 2.835938 -3.898438 2.648438 -3.980469 2.527344 -4.03125 C 2.40625 -4.085938 2.273438 -4.167969 2.136719 -4.273438 C 2.003906 -4.371094 1.910156 -4.476562 1.855469 -4.597656 C 1.800781 -4.707031 1.773438 -4.851562 1.773438 -5.015625 C 1.773438 -5.335938 1.867188 -5.59375 2.082031 -5.765625 C 2.285156 -5.941406 2.539062 -6.035156 2.863281 -6.035156 C 3.347656 -6.035156 3.710938 -5.820312 3.925781 -5.40625 L 4.707031 -5.808594 C 4.558594 -6.105469 4.316406 -6.359375 3.992188 -6.5625 C 3.65625 -6.75 3.28125 -6.855469 2.878906 -6.855469 C 2.339844 -6.855469 1.867188 -6.683594 1.480469 -6.359375 C 1.074219 -6.023438 0.886719 -5.566406 0.886719 -4.988281 C 0.886719 -4.476562 1.035156 -4.074219 1.359375 -3.777344 C 1.667969 -3.480469 2.136719 -3.199219 2.78125 -2.957031 C 3.253906 -2.769531 3.589844 -2.59375 3.792969 -2.433594 C 3.992188 -2.273438 4.101562 -2.058594 4.101562 -1.773438 C 4.101562 -1.4375 3.980469 -1.167969 3.75 -0.96875 C 3.523438 -0.765625 3.214844 -0.671875 2.835938 -0.671875 C 2.152344 -0.671875 1.679688 -0.96875 1.425781 -1.558594 L 0.578125 -1.289062 C 0.699219 -0.886719 0.980469 -0.550781 1.425781 -0.28125 C 1.867188 0 2.351562 0.132812 2.878906 0.132812 Z M 2.878906 0.132812 "/></g></g></g><g fill="#000000" fill-opacity="1"><g transform="translate(40.629388, 19.262042)"><g><path d="M 3.871094 -6.855469 C 3.1875 -6.855469 2.609375 -6.601562 2.125 -6.105469 L 2.125 -10.082031 L 1.25 -10.082031 L 1.25 0 L 2.125 0 L 2.125 -4.421875 C 2.125 -4.867188 2.285156 -5.242188 2.609375 -5.550781 C 2.929688 -5.863281 3.308594 -6.023438 3.765625 -6.023438 C 4.207031 -6.023438 4.597656 -5.863281 4.921875 -5.539062 C 5.242188 -5.214844 5.40625 -4.828125 5.40625 -4.371094 L 5.40625 0 L 6.277344 0 L 6.277344 -4.410156 C 6.277344 -5.082031 6.035156 -5.644531 5.566406 -6.128906 C 5.09375 -6.613281 4.53125 -6.855469 3.871094 -6.855469 Z M 3.871094 -6.855469 "/></g></g></g></svg>