<svg xmlns="http://www.w3.org/2000/svg" xmlns:xlink="http://www.w3.org/1999/xlink" width="70" zoomAndPan="magnify" viewBox="0 0 52.5 30.000001" height="40" preserveAspectRatio="xMidYMid meet" version="1.0"><defs><g/><clipPath id="7f93baaf82"><path d="M 0.605469 0 L 51.410156 0 L 51.410156 29.03125 L 0.605469 29.03125 Z M 0.605469 0 " clip-rule="nonzero"/></clipPath></defs><g clip-path="url(#7f93baaf82)"><path fill="#ffffff" d="M 0.605469 0 L 51.894531 0 L 51.894531 29.308594 L 0.605469 29.308594 Z M 0.605469 0 " fill-opacity="1" fill-rule="nonzero"/><path fill="#d9d9d9" d="M 0.605469 0 L 51.894531 0 L 51.894531 29.308594 L 0.605469 29.308594 Z M 0.605469 0 " fill-opacity="1" fill-rule="nonzero"/></g><g fill="#000000" fill-opacity="1"><g transform="translate(5.393848, 20.01715)"><g><path d="M 6.460938 -8.816406 L 6.460938 -9.652344 L 1.273438 -9.652344 L 1.273438 0 L 6.460938 0 L 6.460938 -0.835938 L 2.136719 -0.835938 L 2.136719 -4.402344 L 5.921875 -4.402344 L 5.921875 -5.25 L 2.136719 -5.25 L 2.136719 -8.816406 Z M 6.460938 -8.816406 "/></g></g></g><g fill="#000000" fill-opacity="1"><g transform="translate(12.485625, 20.01715)"><g><path d="M 3.734375 -6.5625 C 3.0625 -6.5625 2.496094 -6.320312 2.035156 -5.832031 L 2.035156 -6.433594 L 1.195312 -6.433594 L 1.195312 0 L 2.035156 0 L 2.035156 -4.234375 C 2.035156 -4.660156 2.199219 -5.019531 2.511719 -5.316406 C 2.820312 -5.613281 3.191406 -5.765625 3.640625 -5.765625 C 4.078125 -5.765625 4.453125 -5.613281 4.761719 -5.300781 C 5.070312 -4.992188 5.226562 -4.621094 5.226562 -4.183594 L 5.226562 0 L 6.074219 0 L 6.074219 -4.222656 C 6.074219 -4.863281 5.84375 -5.40625 5.394531 -5.867188 C 4.929688 -6.332031 4.375 -6.5625 3.734375 -6.5625 Z M 3.734375 -6.5625 "/></g></g></g><g fill="#000000" fill-opacity="1"><g transform="translate(19.628888, 20.01715)"><g><path d="M 6.5625 -6.433594 L 6.5625 -5.457031 C 5.894531 -6.191406 5.058594 -6.5625 4.066406 -6.5625 C 3.140625 -6.5625 2.34375 -6.230469 1.699219 -5.585938 C 1.042969 -4.929688 0.722656 -4.144531 0.722656 -3.21875 C 0.722656 -2.289062 1.042969 -1.492188 1.699219 -0.847656 C 2.355469 -0.191406 3.140625 0.128906 4.066406 0.128906 C 5.070312 0.128906 5.894531 -0.246094 6.5625 -0.992188 L 6.5625 -0.0390625 C 6.5625 0.65625 6.320312 1.25 5.832031 1.738281 C 5.339844 2.226562 4.761719 2.472656 4.066406 2.472656 C 3.566406 2.472656 3.113281 2.34375 2.703125 2.070312 C 2.289062 1.800781 1.996094 1.441406 1.789062 1.003906 L 1.082031 1.453125 C 1.363281 2.019531 1.761719 2.472656 2.304688 2.804688 C 2.832031 3.140625 3.421875 3.308594 4.066406 3.308594 C 4.992188 3.308594 5.777344 2.984375 6.433594 2.328125 C 7.078125 1.6875 7.414062 0.886719 7.414062 -0.0390625 L 7.414062 -6.433594 Z M 4.066406 -0.707031 C 3.371094 -0.707031 2.78125 -0.953125 2.289062 -1.441406 C 1.800781 -1.929688 1.570312 -2.523438 1.570312 -3.21875 C 1.570312 -3.914062 1.800781 -4.503906 2.289062 -4.992188 C 2.78125 -5.484375 3.371094 -5.726562 4.066406 -5.726562 C 4.761719 -5.726562 5.355469 -5.484375 5.84375 -4.992188 C 6.332031 -4.503906 6.578125 -3.914062 6.578125 -3.21875 C 6.578125 -2.523438 6.332031 -1.929688 5.84375 -1.441406 C 5.355469 -0.953125 4.761719 -0.707031 4.066406 -0.707031 Z M 4.066406 -0.707031 "/></g></g></g><g fill="#000000" fill-opacity="1"><g transform="translate(28.239418, 20.01715)"><g><path d="M 1.195312 0 L 2.035156 0 L 2.035156 -9.652344 L 1.195312 -9.652344 Z M 1.195312 0 "/></g></g></g><g fill="#000000" fill-opacity="1"><g transform="translate(31.469976, 20.01715)"><g><path d="M 1.632812 -8.535156 C 1.800781 -8.535156 1.945312 -8.585938 2.070312 -8.714844 C 2.199219 -8.828125 2.265625 -8.972656 2.265625 -9.152344 C 2.265625 -9.332031 2.199219 -9.472656 2.070312 -9.601562 C 1.945312 -9.71875 1.800781 -9.78125 1.632812 -9.78125 C 1.453125 -9.78125 1.3125 -9.71875 1.183594 -9.601562 C 1.054688 -9.472656 1.003906 -9.332031 1.003906 -9.152344 C 1.003906 -8.972656 1.054688 -8.828125 1.183594 -8.714844 C 1.3125 -8.585938 1.453125 -8.535156 1.632812 -8.535156 Z M 1.210938 0 L 2.046875 0 L 2.046875 -6.433594 L 1.210938 -6.433594 Z M 1.210938 0 "/></g></g></g><g fill="#000000" fill-opacity="1"><g transform="translate(34.726279, 20.01715)"><g><path d="M 2.753906 0.128906 C 3.320312 0.128906 3.796875 -0.0390625 4.183594 -0.386719 C 4.570312 -0.722656 4.773438 -1.160156 4.773438 -1.6875 C 4.773438 -1.957031 4.722656 -2.199219 4.621094 -2.417969 C 4.519531 -2.625 4.375 -2.820312 4.171875 -2.972656 C 3.964844 -3.128906 3.785156 -3.242188 3.628906 -3.320312 C 3.460938 -3.398438 3.242188 -3.5 2.972656 -3.628906 C 2.714844 -3.734375 2.535156 -3.808594 2.417969 -3.859375 C 2.304688 -3.914062 2.175781 -3.988281 2.046875 -4.09375 C 1.917969 -4.183594 1.828125 -4.285156 1.777344 -4.402344 C 1.726562 -4.503906 1.699219 -4.644531 1.699219 -4.800781 C 1.699219 -5.109375 1.789062 -5.355469 1.996094 -5.523438 C 2.1875 -5.6875 2.433594 -5.777344 2.742188 -5.777344 C 3.203125 -5.777344 3.550781 -5.574219 3.757812 -5.175781 L 4.503906 -5.558594 C 4.363281 -5.84375 4.132812 -6.085938 3.824219 -6.28125 C 3.5 -6.460938 3.140625 -6.5625 2.753906 -6.5625 C 2.238281 -6.5625 1.789062 -6.398438 1.414062 -6.085938 C 1.03125 -5.765625 0.847656 -5.328125 0.847656 -4.773438 C 0.847656 -4.285156 0.992188 -3.898438 1.300781 -3.617188 C 1.597656 -3.332031 2.046875 -3.0625 2.664062 -2.832031 C 3.113281 -2.652344 3.4375 -2.484375 3.628906 -2.328125 C 3.824219 -2.175781 3.925781 -1.96875 3.925781 -1.699219 C 3.925781 -1.378906 3.808594 -1.121094 3.589844 -0.925781 C 3.371094 -0.734375 3.074219 -0.644531 2.714844 -0.644531 C 2.058594 -0.644531 1.609375 -0.925781 1.363281 -1.492188 L 0.554688 -1.234375 C 0.667969 -0.847656 0.941406 -0.527344 1.363281 -0.269531 C 1.789062 0 2.253906 0.128906 2.753906 0.128906 Z M 2.753906 0.128906 "/></g></g></g><g fill="#000000" fill-opacity="1"><g transform="translate(40.016156, 20.01715)"><g><path d="M 3.707031 -6.5625 C 3.050781 -6.5625 2.496094 -6.320312 2.035156 -5.84375 L 2.035156 -9.652344 L 1.195312 -9.652344 L 1.195312 0 L 2.035156 0 L 2.035156 -4.234375 C 2.035156 -4.660156 2.1875 -5.019531 2.496094 -5.316406 C 2.804688 -5.613281 3.167969 -5.765625 3.605469 -5.765625 C 4.027344 -5.765625 4.402344 -5.613281 4.710938 -5.300781 C 5.019531 -4.992188 5.175781 -4.621094 5.175781 -4.183594 L 5.175781 0 L 6.011719 0 L 6.011719 -4.222656 C 6.011719 -4.863281 5.777344 -5.40625 5.328125 -5.867188 C 4.878906 -6.332031 4.335938 -6.5625 3.707031 -6.5625 Z M 3.707031 -6.5625 "/></g></g></g></svg>