<svg xmlns="http://www.w3.org/2000/svg" xmlns:xlink="http://www.w3.org/1999/xlink" width="400" zoomAndPan="magnify" viewBox="0 0 300 74.999997" height="100" preserveAspectRatio="xMidYMid meet" version="1.0"><defs><g/><clipPath id="9e8598fee7"><path d="M 3.746094 16.300781 L 47.65625 16.300781 L 47.65625 54.035156 L 3.746094 54.035156 Z M 3.746094 16.300781 " clip-rule="nonzero"/></clipPath><clipPath id="da22ec7c29"><path d="M 47.65625 35.167969 L 36.675781 54.035156 L 14.722656 54.035156 L 3.746094 35.167969 L 14.722656 16.300781 L 36.675781 16.300781 Z M 47.65625 35.167969 " clip-rule="nonzero"/></clipPath></defs><g fill="#ffffff" fill-opacity="1"><g transform="translate(51.499807, 45.018738)"><g><path d="M 8.359375 0.203125 C 7.066406 0.203125 5.910156 -0.0234375 4.890625 -0.484375 C 3.878906 -0.941406 3.082031 -1.578125 2.5 -2.390625 C 1.914062 -3.210938 1.613281 -4.15625 1.59375 -5.21875 L 4.328125 -5.21875 C 4.421875 -4.300781 4.796875 -3.53125 5.453125 -2.90625 C 6.117188 -2.28125 7.085938 -1.96875 8.359375 -1.96875 C 9.578125 -1.96875 10.535156 -2.269531 11.234375 -2.875 C 11.941406 -3.476562 12.296875 -4.257812 12.296875 -5.21875 C 12.296875 -5.96875 12.085938 -6.578125 11.671875 -7.046875 C 11.265625 -7.515625 10.75 -7.867188 10.125 -8.109375 C 9.507812 -8.347656 8.679688 -8.609375 7.640625 -8.890625 C 6.347656 -9.234375 5.3125 -9.570312 4.53125 -9.90625 C 3.757812 -10.238281 3.097656 -10.765625 2.546875 -11.484375 C 1.992188 -12.210938 1.71875 -13.179688 1.71875 -14.390625 C 1.71875 -15.460938 1.988281 -16.410156 2.53125 -17.234375 C 3.070312 -18.054688 3.832031 -18.691406 4.8125 -19.140625 C 5.789062 -19.585938 6.914062 -19.8125 8.1875 -19.8125 C 10.019531 -19.8125 11.519531 -19.351562 12.6875 -18.4375 C 13.863281 -17.519531 14.523438 -16.300781 14.671875 -14.78125 L 11.875 -14.78125 C 11.78125 -15.53125 11.382812 -16.191406 10.6875 -16.765625 C 10 -17.335938 9.082031 -17.625 7.9375 -17.625 C 6.875 -17.625 6.003906 -17.347656 5.328125 -16.796875 C 4.660156 -16.242188 4.328125 -15.472656 4.328125 -14.484375 C 4.328125 -13.765625 4.523438 -13.179688 4.921875 -12.734375 C 5.328125 -12.285156 5.820312 -11.941406 6.40625 -11.703125 C 7 -11.472656 7.828125 -11.210938 8.890625 -10.921875 C 10.179688 -10.566406 11.21875 -10.210938 12 -9.859375 C 12.789062 -9.515625 13.46875 -8.984375 14.03125 -8.265625 C 14.59375 -7.546875 14.875 -6.566406 14.875 -5.328125 C 14.875 -4.378906 14.617188 -3.484375 14.109375 -2.640625 C 13.609375 -1.796875 12.863281 -1.109375 11.875 -0.578125 C 10.882812 -0.0546875 9.710938 0.203125 8.359375 0.203125 Z M 8.359375 0.203125 "/></g></g></g><g fill="#ffffff" fill-opacity="1"><g transform="translate(67.972916, 45.018738)"><g><path d="M 8.875 0.25 C 7.425781 0.25 6.117188 -0.078125 4.953125 -0.734375 C 3.785156 -1.390625 2.867188 -2.316406 2.203125 -3.515625 C 1.535156 -4.722656 1.203125 -6.125 1.203125 -7.71875 C 1.203125 -9.289062 1.539062 -10.675781 2.21875 -11.875 C 2.90625 -13.082031 3.835938 -14.007812 5.015625 -14.65625 C 6.203125 -15.300781 7.523438 -15.625 8.984375 -15.625 C 10.441406 -15.625 11.757812 -15.300781 12.9375 -14.65625 C 14.113281 -14.007812 15.039062 -13.085938 15.71875 -11.890625 C 16.40625 -10.703125 16.75 -9.3125 16.75 -7.71875 C 16.75 -6.125 16.398438 -4.722656 15.703125 -3.515625 C 15.003906 -2.316406 14.054688 -1.390625 12.859375 -0.734375 C 11.660156 -0.078125 10.332031 0.25 8.875 0.25 Z M 8.875 -2 C 9.789062 -2 10.648438 -2.210938 11.453125 -2.640625 C 12.253906 -3.066406 12.898438 -3.707031 13.390625 -4.5625 C 13.890625 -5.425781 14.140625 -6.476562 14.140625 -7.71875 C 14.140625 -8.945312 13.894531 -9.992188 13.40625 -10.859375 C 12.925781 -11.722656 12.289062 -12.363281 11.5 -12.78125 C 10.71875 -13.195312 9.867188 -13.40625 8.953125 -13.40625 C 8.015625 -13.40625 7.15625 -13.195312 6.375 -12.78125 C 5.601562 -12.363281 4.984375 -11.722656 4.515625 -10.859375 C 4.046875 -9.992188 3.8125 -8.945312 3.8125 -7.71875 C 3.8125 -6.46875 4.039062 -5.410156 4.5 -4.546875 C 4.957031 -3.679688 5.570312 -3.039062 6.34375 -2.625 C 7.113281 -2.207031 7.957031 -2 8.875 -2 Z M 8.875 -2 "/></g></g></g><g fill="#ffffff" fill-opacity="1"><g transform="translate(85.933371, 45.018738)"><g><path d="M 4.71875 -20.765625 L 4.71875 0 L 2.15625 0 L 2.15625 -20.765625 Z M 4.71875 -20.765625 "/></g></g></g><g fill="#ffffff" fill-opacity="1"><g transform="translate(92.836923, 45.018738)"><g><path d="M 3.484375 -17.875 C 2.992188 -17.875 2.578125 -18.039062 2.234375 -18.375 C 1.898438 -18.71875 1.734375 -19.128906 1.734375 -19.609375 C 1.734375 -20.097656 1.898438 -20.507812 2.234375 -20.84375 C 2.578125 -21.1875 2.992188 -21.359375 3.484375 -21.359375 C 3.953125 -21.359375 4.347656 -21.1875 4.671875 -20.84375 C 4.992188 -20.507812 5.15625 -20.097656 5.15625 -19.609375 C 5.15625 -19.128906 4.992188 -18.71875 4.671875 -18.375 C 4.347656 -18.039062 3.953125 -17.875 3.484375 -17.875 Z M 4.71875 -15.375 L 4.71875 0 L 2.15625 0 L 2.15625 -15.375 Z M 4.71875 -15.375 "/></g></g></g><g fill="#ffffff" fill-opacity="1"><g transform="translate(99.740475, 45.018738)"><g><path d="M 1.203125 -7.75 C 1.203125 -9.320312 1.519531 -10.703125 2.15625 -11.890625 C 2.789062 -13.078125 3.664062 -13.992188 4.78125 -14.640625 C 5.894531 -15.296875 7.144531 -15.625 8.53125 -15.625 C 9.726562 -15.625 10.835938 -15.347656 11.859375 -14.796875 C 12.890625 -14.242188 13.679688 -13.519531 14.234375 -12.625 L 14.234375 -20.765625 L 16.8125 -20.765625 L 16.8125 0 L 14.234375 0 L 14.234375 -2.890625 C 13.722656 -1.972656 12.972656 -1.21875 11.984375 -0.625 C 10.992188 -0.0390625 9.832031 0.25 8.5 0.25 C 7.132812 0.25 5.894531 -0.0820312 4.78125 -0.75 C 3.664062 -1.425781 2.789062 -2.375 2.15625 -3.59375 C 1.519531 -4.8125 1.203125 -6.195312 1.203125 -7.75 Z M 14.234375 -7.71875 C 14.234375 -8.875 14 -9.878906 13.53125 -10.734375 C 13.0625 -11.597656 12.425781 -12.257812 11.625 -12.71875 C 10.832031 -13.175781 9.960938 -13.40625 9.015625 -13.40625 C 8.054688 -13.40625 7.179688 -13.179688 6.390625 -12.734375 C 5.609375 -12.285156 4.984375 -11.628906 4.515625 -10.765625 C 4.046875 -9.910156 3.8125 -8.90625 3.8125 -7.75 C 3.8125 -6.570312 4.046875 -5.546875 4.515625 -4.671875 C 4.984375 -3.804688 5.609375 -3.144531 6.390625 -2.6875 C 7.179688 -2.226562 8.054688 -2 9.015625 -2 C 9.960938 -2 10.832031 -2.226562 11.625 -2.6875 C 12.425781 -3.144531 13.0625 -3.804688 13.53125 -4.671875 C 14 -5.546875 14.234375 -6.5625 14.234375 -7.71875 Z M 14.234375 -7.71875 "/></g></g></g><g fill="#ffffff" fill-opacity="1"><g transform="translate(118.711212, 45.018738)"><g/></g></g><g fill="#ffffff" fill-opacity="1"><g transform="translate(126.204093, 45.018738)"><g><path d="M 1.203125 -9.796875 C 1.203125 -11.703125 1.628906 -13.414062 2.484375 -14.9375 C 3.347656 -16.46875 4.523438 -17.660156 6.015625 -18.515625 C 7.503906 -19.378906 9.15625 -19.8125 10.96875 -19.8125 C 13.101562 -19.8125 14.960938 -19.296875 16.546875 -18.265625 C 18.140625 -17.234375 19.300781 -15.773438 20.03125 -13.890625 L 16.984375 -13.890625 C 16.429688 -15.066406 15.644531 -15.972656 14.625 -16.609375 C 13.613281 -17.242188 12.394531 -17.5625 10.96875 -17.5625 C 9.601562 -17.5625 8.378906 -17.242188 7.296875 -16.609375 C 6.210938 -15.972656 5.359375 -15.070312 4.734375 -13.90625 C 4.117188 -12.738281 3.8125 -11.367188 3.8125 -9.796875 C 3.8125 -8.242188 4.117188 -6.878906 4.734375 -5.703125 C 5.359375 -4.535156 6.210938 -3.632812 7.296875 -3 C 8.378906 -2.363281 9.601562 -2.046875 10.96875 -2.046875 C 12.394531 -2.046875 13.613281 -2.359375 14.625 -2.984375 C 15.644531 -3.609375 16.429688 -4.515625 16.984375 -5.703125 L 20.03125 -5.703125 C 19.300781 -3.828125 18.140625 -2.378906 16.546875 -1.359375 C 14.960938 -0.335938 13.101562 0.171875 10.96875 0.171875 C 9.15625 0.171875 7.503906 -0.253906 6.015625 -1.109375 C 4.523438 -1.960938 3.347656 -3.144531 2.484375 -4.65625 C 1.628906 -6.175781 1.203125 -7.890625 1.203125 -9.796875 Z M 1.203125 -9.796875 "/></g></g></g><g fill="#ffffff" fill-opacity="1"><g transform="translate(147.868892, 45.018738)"><g><path d="M 8.875 0.25 C 7.425781 0.25 6.117188 -0.078125 4.953125 -0.734375 C 3.785156 -1.390625 2.867188 -2.316406 2.203125 -3.515625 C 1.535156 -4.722656 1.203125 -6.125 1.203125 -7.71875 C 1.203125 -9.289062 1.539062 -10.675781 2.21875 -11.875 C 2.90625 -13.082031 3.835938 -14.007812 5.015625 -14.65625 C 6.203125 -15.300781 7.523438 -15.625 8.984375 -15.625 C 10.441406 -15.625 11.757812 -15.300781 12.9375 -14.65625 C 14.113281 -14.007812 15.039062 -13.085938 15.71875 -11.890625 C 16.40625 -10.703125 16.75 -9.3125 16.75 -7.71875 C 16.75 -6.125 16.398438 -4.722656 15.703125 -3.515625 C 15.003906 -2.316406 14.054688 -1.390625 12.859375 -0.734375 C 11.660156 -0.078125 10.332031 0.25 8.875 0.25 Z M 8.875 -2 C 9.789062 -2 10.648438 -2.210938 11.453125 -2.640625 C 12.253906 -3.066406 12.898438 -3.707031 13.390625 -4.5625 C 13.890625 -5.425781 14.140625 -6.476562 14.140625 -7.71875 C 14.140625 -8.945312 13.894531 -9.992188 13.40625 -10.859375 C 12.925781 -11.722656 12.289062 -12.363281 11.5 -12.78125 C 10.71875 -13.195312 9.867188 -13.40625 8.953125 -13.40625 C 8.015625 -13.40625 7.15625 -13.195312 6.375 -12.78125 C 5.601562 -12.363281 4.984375 -11.722656 4.515625 -10.859375 C 4.046875 -9.992188 3.8125 -8.945312 3.8125 -7.71875 C 3.8125 -6.46875 4.039062 -5.410156 4.5 -4.546875 C 4.957031 -3.679688 5.570312 -3.039062 6.34375 -2.625 C 7.113281 -2.207031 7.957031 -2 8.875 -2 Z M 8.875 -2 "/></g></g></g><g fill="#ffffff" fill-opacity="1"><g transform="translate(165.829347, 45.018738)"><g><path d="M 20.65625 -15.65625 C 21.851562 -15.65625 22.914062 -15.40625 23.84375 -14.90625 C 24.78125 -14.414062 25.519531 -13.675781 26.0625 -12.6875 C 26.613281 -11.695312 26.890625 -10.488281 26.890625 -9.0625 L 26.890625 0 L 24.359375 0 L 24.359375 -8.703125 C 24.359375 -10.234375 23.976562 -11.40625 23.21875 -12.21875 C 22.457031 -13.03125 21.4375 -13.4375 20.15625 -13.4375 C 18.820312 -13.4375 17.757812 -13.007812 16.96875 -12.15625 C 16.1875 -11.3125 15.796875 -10.082031 15.796875 -8.46875 L 15.796875 0 L 13.28125 0 L 13.28125 -8.703125 C 13.28125 -10.234375 12.898438 -11.40625 12.140625 -12.21875 C 11.378906 -13.03125 10.351562 -13.4375 9.0625 -13.4375 C 7.738281 -13.4375 6.679688 -13.007812 5.890625 -12.15625 C 5.109375 -11.3125 4.71875 -10.082031 4.71875 -8.46875 L 4.71875 0 L 2.15625 0 L 2.15625 -15.375 L 4.71875 -15.375 L 4.71875 -13.15625 C 5.21875 -13.96875 5.894531 -14.585938 6.75 -15.015625 C 7.601562 -15.441406 8.539062 -15.65625 9.5625 -15.65625 C 10.851562 -15.65625 11.992188 -15.363281 12.984375 -14.78125 C 13.984375 -14.207031 14.722656 -13.359375 15.203125 -12.234375 C 15.640625 -13.316406 16.351562 -14.15625 17.34375 -14.75 C 18.332031 -15.351562 19.4375 -15.65625 20.65625 -15.65625 Z M 20.65625 -15.65625 "/></g></g></g><g fill="#ffffff" fill-opacity="1"><g transform="translate(194.734454, 45.018738)"><g><path d="M 20.65625 -15.65625 C 21.851562 -15.65625 22.914062 -15.40625 23.84375 -14.90625 C 24.78125 -14.414062 25.519531 -13.675781 26.0625 -12.6875 C 26.613281 -11.695312 26.890625 -10.488281 26.890625 -9.0625 L 26.890625 0 L 24.359375 0 L 24.359375 -8.703125 C 24.359375 -10.234375 23.976562 -11.40625 23.21875 -12.21875 C 22.457031 -13.03125 21.4375 -13.4375 20.15625 -13.4375 C 18.820312 -13.4375 17.757812 -13.007812 16.96875 -12.15625 C 16.1875 -11.3125 15.796875 -10.082031 15.796875 -8.46875 L 15.796875 0 L 13.28125 0 L 13.28125 -8.703125 C 13.28125 -10.234375 12.898438 -11.40625 12.140625 -12.21875 C 11.378906 -13.03125 10.351562 -13.4375 9.0625 -13.4375 C 7.738281 -13.4375 6.679688 -13.007812 5.890625 -12.15625 C 5.109375 -11.3125 4.71875 -10.082031 4.71875 -8.46875 L 4.71875 0 L 2.15625 0 L 2.15625 -15.375 L 4.71875 -15.375 L 4.71875 -13.15625 C 5.21875 -13.96875 5.894531 -14.585938 6.75 -15.015625 C 7.601562 -15.441406 8.539062 -15.65625 9.5625 -15.65625 C 10.851562 -15.65625 11.992188 -15.363281 12.984375 -14.78125 C 13.984375 -14.207031 14.722656 -13.359375 15.203125 -12.234375 C 15.640625 -13.316406 16.351562 -14.15625 17.34375 -14.75 C 18.332031 -15.351562 19.4375 -15.65625 20.65625 -15.65625 Z M 20.65625 -15.65625 "/></g></g></g><g fill="#ffffff" fill-opacity="1"><g transform="translate(223.639561, 45.018738)"><g><path d="M 15.796875 -15.375 L 15.796875 0 L 13.25 0 L 13.25 -2.265625 C 12.757812 -1.484375 12.078125 -0.875 11.203125 -0.4375 C 10.335938 0 9.378906 0.21875 8.328125 0.21875 C 7.128906 0.21875 6.050781 -0.0234375 5.09375 -0.515625 C 4.144531 -1.015625 3.394531 -1.757812 2.84375 -2.75 C 2.289062 -3.738281 2.015625 -4.945312 2.015625 -6.375 L 2.015625 -15.375 L 4.546875 -15.375 L 4.546875 -6.703125 C 4.546875 -5.191406 4.925781 -4.03125 5.6875 -3.21875 C 6.457031 -2.40625 7.507812 -2 8.84375 -2 C 10.207031 -2 11.28125 -2.414062 12.0625 -3.25 C 12.851562 -4.09375 13.25 -5.320312 13.25 -6.9375 L 13.25 -15.375 Z M 15.796875 -15.375 "/></g></g></g><g fill="#ffffff" fill-opacity="1"><g transform="translate(241.600016, 45.018738)"><g><path d="M 9.65625 -15.65625 C 11.519531 -15.65625 13.03125 -15.085938 14.1875 -13.953125 C 15.351562 -12.828125 15.9375 -11.195312 15.9375 -9.0625 L 15.9375 0 L 13.40625 0 L 13.40625 -8.703125 C 13.40625 -10.234375 13.019531 -11.40625 12.25 -12.21875 C 11.488281 -13.03125 10.445312 -13.4375 9.125 -13.4375 C 7.769531 -13.4375 6.695312 -13.015625 5.90625 -12.171875 C 5.113281 -11.335938 4.71875 -10.113281 4.71875 -8.5 L 4.71875 0 L 2.15625 0 L 2.15625 -15.375 L 4.71875 -15.375 L 4.71875 -13.1875 C 5.21875 -13.976562 5.898438 -14.585938 6.765625 -15.015625 C 7.640625 -15.441406 8.601562 -15.65625 9.65625 -15.65625 Z M 9.65625 -15.65625 "/></g></g></g><g fill="#ffffff" fill-opacity="1"><g transform="translate(259.560471, 45.018738)"><g><path d="M 3.484375 -17.875 C 2.992188 -17.875 2.578125 -18.039062 2.234375 -18.375 C 1.898438 -18.71875 1.734375 -19.128906 1.734375 -19.609375 C 1.734375 -20.097656 1.898438 -20.507812 2.234375 -20.84375 C 2.578125 -21.1875 2.992188 -21.359375 3.484375 -21.359375 C 3.953125 -21.359375 4.347656 -21.1875 4.671875 -20.84375 C 4.992188 -20.507812 5.15625 -20.097656 5.15625 -19.609375 C 5.15625 -19.128906 4.992188 -18.71875 4.671875 -18.375 C 4.347656 -18.039062 3.953125 -17.875 3.484375 -17.875 Z M 4.71875 -15.375 L 4.71875 0 L 2.15625 0 L 2.15625 -15.375 Z M 4.71875 -15.375 "/></g></g></g><g fill="#ffffff" fill-opacity="1"><g transform="translate(266.464036, 45.018738)"><g><path d="M 5.28125 -13.28125 L 5.28125 -4.203125 C 5.28125 -3.460938 5.4375 -2.9375 5.75 -2.625 C 6.070312 -2.3125 6.625 -2.15625 7.40625 -2.15625 L 9.28125 -2.15625 L 9.28125 0 L 6.984375 0 C 5.566406 0 4.5 -0.328125 3.78125 -0.984375 C 3.070312 -1.640625 2.71875 -2.710938 2.71875 -4.203125 L 2.71875 -13.28125 L 0.734375 -13.28125 L 0.734375 -15.375 L 2.71875 -15.375 L 2.71875 -19.25 L 5.28125 -19.25 L 5.28125 -15.375 L 9.28125 -15.375 L 9.28125 -13.28125 Z M 5.28125 -13.28125 "/></g></g></g><g fill="#ffffff" fill-opacity="1"><g transform="translate(276.679049, 45.018738)"><g><path d="M 15.40625 -15.375 L 6.140625 7.234375 L 3.515625 7.234375 L 6.53125 -0.171875 L 0.34375 -15.375 L 3.171875 -15.375 L 8 -2.921875 L 12.765625 -15.375 Z M 15.40625 -15.375 "/></g></g></g><g clip-path="url(#9e8598fee7)"><g clip-path="url(#da22ec7c29)"><path fill="#ffffff" d="M 3.746094 16.300781 L 47.65625 16.300781 L 47.65625 54.035156 L 3.746094 54.035156 Z M 3.746094 16.300781 " fill-opacity="1" fill-rule="nonzero"/></g></g></svg>