<svg xmlns="http://www.w3.org/2000/svg" xmlns:xlink="http://www.w3.org/1999/xlink" width="400" zoomAndPan="magnify" viewBox="0 0 300 74.999997" height="100" preserveAspectRatio="xMidYMid meet" version="1.0"><defs><g/><clipPath id="549f781bb2"><path d="M 19.101562 19.101562 L 63.011719 19.101562 L 63.011719 56.835938 L 19.101562 56.835938 Z M 19.101562 19.101562 " clip-rule="nonzero"/></clipPath><clipPath id="39ea8b374d"><path d="M 63.011719 37.96875 L 52.035156 56.835938 L 30.078125 56.835938 L 19.101562 37.96875 L 30.078125 19.101562 L 52.035156 19.101562 Z M 63.011719 37.96875 " clip-rule="nonzero"/></clipPath><clipPath id="f002cc36cb"><path d="M 19.105469 19.101562 L 63 19.101562 L 63 56.601562 L 19.105469 56.601562 Z M 19.105469 19.101562 " clip-rule="nonzero"/></clipPath><clipPath id="a150dc1007"><path d="M 63 37.964844 L 52.027344 56.824219 L 30.078125 56.824219 L 19.105469 37.964844 L 30.078125 19.101562 L 52.027344 19.101562 Z M 63 37.964844 " clip-rule="nonzero"/></clipPath></defs><g fill="#ffffff" fill-opacity="1"><g transform="translate(70.112659, 46.499995)"><g><path d="M 7.640625 0.171875 C 6.460938 0.171875 5.40625 -0.0351562 4.46875 -0.453125 C 3.539062 -0.867188 2.8125 -1.445312 2.28125 -2.1875 C 1.75 -2.9375 1.476562 -3.796875 1.46875 -4.765625 L 3.953125 -4.765625 C 4.035156 -3.929688 4.378906 -3.226562 4.984375 -2.65625 C 5.585938 -2.082031 6.472656 -1.796875 7.640625 -1.796875 C 8.753906 -1.796875 9.628906 -2.070312 10.265625 -2.625 C 10.910156 -3.1875 11.234375 -3.898438 11.234375 -4.765625 C 11.234375 -5.453125 11.046875 -6.007812 10.671875 -6.4375 C 10.296875 -6.863281 9.820312 -7.1875 9.25 -7.40625 C 8.6875 -7.632812 7.925781 -7.875 6.96875 -8.125 C 5.789062 -8.4375 4.847656 -8.742188 4.140625 -9.046875 C 3.429688 -9.359375 2.820312 -9.84375 2.3125 -10.5 C 1.8125 -11.15625 1.5625 -12.039062 1.5625 -13.15625 C 1.5625 -14.125 1.804688 -14.984375 2.296875 -15.734375 C 2.796875 -16.492188 3.492188 -17.078125 4.390625 -17.484375 C 5.296875 -17.898438 6.328125 -18.109375 7.484375 -18.109375 C 9.160156 -18.109375 10.53125 -17.6875 11.59375 -16.84375 C 12.664062 -16.007812 13.269531 -14.898438 13.40625 -13.515625 L 10.84375 -13.515625 C 10.757812 -14.191406 10.398438 -14.789062 9.765625 -15.3125 C 9.140625 -15.84375 8.300781 -16.109375 7.25 -16.109375 C 6.28125 -16.109375 5.488281 -15.851562 4.875 -15.34375 C 4.257812 -14.84375 3.953125 -14.140625 3.953125 -13.234375 C 3.953125 -12.578125 4.132812 -12.046875 4.5 -11.640625 C 4.863281 -11.234375 5.316406 -10.921875 5.859375 -10.703125 C 6.398438 -10.492188 7.15625 -10.25 8.125 -9.96875 C 9.300781 -9.644531 10.25 -9.320312 10.96875 -9 C 11.6875 -8.6875 12.300781 -8.203125 12.8125 -7.546875 C 13.332031 -6.890625 13.59375 -6 13.59375 -4.875 C 13.59375 -4 13.359375 -3.175781 12.890625 -2.40625 C 12.429688 -1.632812 11.75 -1.007812 10.84375 -0.53125 C 9.9375 -0.0625 8.867188 0.171875 7.640625 0.171875 Z M 7.640625 0.171875 "/></g></g></g><g fill="#ffffff" fill-opacity="1"><g transform="translate(85.163733, 46.499995)"><g><path d="M 8.109375 0.234375 C 6.785156 0.234375 5.585938 -0.0625 4.515625 -0.65625 C 3.453125 -1.257812 2.617188 -2.113281 2.015625 -3.21875 C 1.410156 -4.320312 1.109375 -5.597656 1.109375 -7.046875 C 1.109375 -8.484375 1.414062 -9.753906 2.03125 -10.859375 C 2.65625 -11.960938 3.503906 -12.804688 4.578125 -13.390625 C 5.660156 -13.984375 6.867188 -14.28125 8.203125 -14.28125 C 9.535156 -14.28125 10.738281 -13.984375 11.8125 -13.390625 C 12.894531 -12.804688 13.75 -11.96875 14.375 -10.875 C 15 -9.78125 15.3125 -8.503906 15.3125 -7.046875 C 15.3125 -5.597656 14.988281 -4.320312 14.34375 -3.21875 C 13.707031 -2.113281 12.84375 -1.257812 11.75 -0.65625 C 10.65625 -0.0625 9.441406 0.234375 8.109375 0.234375 Z M 8.109375 -1.828125 C 8.941406 -1.828125 9.722656 -2.019531 10.453125 -2.40625 C 11.191406 -2.800781 11.785156 -3.390625 12.234375 -4.171875 C 12.691406 -4.960938 12.921875 -5.921875 12.921875 -7.046875 C 12.921875 -8.179688 12.695312 -9.140625 12.25 -9.921875 C 11.8125 -10.710938 11.234375 -11.296875 10.515625 -11.671875 C 9.796875 -12.054688 9.015625 -12.25 8.171875 -12.25 C 7.316406 -12.25 6.535156 -12.054688 5.828125 -11.671875 C 5.117188 -11.296875 4.550781 -10.710938 4.125 -9.921875 C 3.695312 -9.140625 3.484375 -8.179688 3.484375 -7.046875 C 3.484375 -5.898438 3.691406 -4.929688 4.109375 -4.140625 C 4.535156 -3.359375 5.097656 -2.773438 5.796875 -2.390625 C 6.492188 -2.015625 7.265625 -1.828125 8.109375 -1.828125 Z M 8.109375 -1.828125 "/></g></g></g><g fill="#ffffff" fill-opacity="1"><g transform="translate(101.573758, 46.499995)"><g><path d="M 4.3125 -18.96875 L 4.3125 0 L 1.96875 0 L 1.96875 -18.96875 Z M 4.3125 -18.96875 "/></g></g></g><g fill="#ffffff" fill-opacity="1"><g transform="translate(107.881363, 46.499995)"><g><path d="M 3.171875 -16.328125 C 2.734375 -16.328125 2.359375 -16.476562 2.046875 -16.78125 C 1.742188 -17.09375 1.59375 -17.472656 1.59375 -17.921875 C 1.59375 -18.367188 1.742188 -18.742188 2.046875 -19.046875 C 2.359375 -19.359375 2.734375 -19.515625 3.171875 -19.515625 C 3.609375 -19.515625 3.972656 -19.359375 4.265625 -19.046875 C 4.566406 -18.742188 4.71875 -18.367188 4.71875 -17.921875 C 4.71875 -17.472656 4.566406 -17.09375 4.265625 -16.78125 C 3.972656 -16.476562 3.609375 -16.328125 3.171875 -16.328125 Z M 4.3125 -14.046875 L 4.3125 0 L 1.96875 0 L 1.96875 -14.046875 Z M 4.3125 -14.046875 "/></g></g></g><g fill="#ffffff" fill-opacity="1"><g transform="translate(114.188969, 46.499995)"><g><path d="M 1.109375 -7.078125 C 1.109375 -8.515625 1.394531 -9.773438 1.96875 -10.859375 C 2.550781 -11.941406 3.347656 -12.78125 4.359375 -13.375 C 5.378906 -13.976562 6.523438 -14.28125 7.796875 -14.28125 C 8.890625 -14.28125 9.90625 -14.023438 10.84375 -13.515625 C 11.78125 -13.015625 12.5 -12.351562 13 -11.53125 L 13 -18.96875 L 15.359375 -18.96875 L 15.359375 0 L 13 0 L 13 -2.640625 C 12.539062 -1.804688 11.859375 -1.117188 10.953125 -0.578125 C 10.046875 -0.0351562 8.984375 0.234375 7.765625 0.234375 C 6.515625 0.234375 5.378906 -0.0703125 4.359375 -0.6875 C 3.347656 -1.300781 2.550781 -2.164062 1.96875 -3.28125 C 1.394531 -4.394531 1.109375 -5.660156 1.109375 -7.078125 Z M 13 -7.046875 C 13 -8.109375 12.785156 -9.03125 12.359375 -9.8125 C 11.929688 -10.601562 11.351562 -11.207031 10.625 -11.625 C 9.894531 -12.039062 9.097656 -12.25 8.234375 -12.25 C 7.359375 -12.25 6.5625 -12.046875 5.84375 -11.640625 C 5.125 -11.234375 4.550781 -10.632812 4.125 -9.84375 C 3.695312 -9.0625 3.484375 -8.140625 3.484375 -7.078125 C 3.484375 -6.003906 3.695312 -5.066406 4.125 -4.265625 C 4.550781 -3.472656 5.125 -2.867188 5.84375 -2.453125 C 6.5625 -2.035156 7.359375 -1.828125 8.234375 -1.828125 C 9.097656 -1.828125 9.894531 -2.035156 10.625 -2.453125 C 11.351562 -2.867188 11.929688 -3.472656 12.359375 -4.265625 C 12.785156 -5.066406 13 -5.992188 13 -7.046875 Z M 13 -7.046875 "/></g></g></g><g fill="#ffffff" fill-opacity="1"><g transform="translate(131.522063, 46.499995)"><g/></g></g><g fill="#ffffff" fill-opacity="1"><g transform="translate(138.368124, 46.499995)"><g><path d="M 1.109375 -8.953125 C 1.109375 -10.691406 1.5 -12.257812 2.28125 -13.65625 C 3.070312 -15.050781 4.144531 -16.140625 5.5 -16.921875 C 6.851562 -17.710938 8.363281 -18.109375 10.03125 -18.109375 C 11.976562 -18.109375 13.675781 -17.632812 15.125 -16.6875 C 16.582031 -15.75 17.644531 -14.414062 18.3125 -12.6875 L 15.515625 -12.6875 C 15.015625 -13.769531 14.296875 -14.597656 13.359375 -15.171875 C 12.429688 -15.753906 11.320312 -16.046875 10.03125 -16.046875 C 8.78125 -16.046875 7.65625 -15.753906 6.65625 -15.171875 C 5.664062 -14.597656 4.890625 -13.773438 4.328125 -12.703125 C 3.765625 -11.640625 3.484375 -10.390625 3.484375 -8.953125 C 3.484375 -7.535156 3.765625 -6.289062 4.328125 -5.21875 C 4.890625 -4.144531 5.664062 -3.316406 6.65625 -2.734375 C 7.65625 -2.160156 8.78125 -1.875 10.03125 -1.875 C 11.320312 -1.875 12.429688 -2.160156 13.359375 -2.734375 C 14.296875 -3.304688 15.015625 -4.128906 15.515625 -5.203125 L 18.3125 -5.203125 C 17.644531 -3.492188 16.582031 -2.171875 15.125 -1.234375 C 13.675781 -0.304688 11.976562 0.15625 10.03125 0.15625 C 8.363281 0.15625 6.851562 -0.226562 5.5 -1 C 4.144531 -1.78125 3.070312 -2.863281 2.28125 -4.25 C 1.5 -5.632812 1.109375 -7.203125 1.109375 -8.953125 Z M 1.109375 -8.953125 "/></g></g></g><g fill="#ffffff" fill-opacity="1"><g transform="translate(158.162716, 46.499995)"><g><path d="M 8.109375 0.234375 C 6.785156 0.234375 5.585938 -0.0625 4.515625 -0.65625 C 3.453125 -1.257812 2.617188 -2.113281 2.015625 -3.21875 C 1.410156 -4.320312 1.109375 -5.597656 1.109375 -7.046875 C 1.109375 -8.484375 1.414062 -9.753906 2.03125 -10.859375 C 2.65625 -11.960938 3.503906 -12.804688 4.578125 -13.390625 C 5.660156 -13.984375 6.867188 -14.28125 8.203125 -14.28125 C 9.535156 -14.28125 10.738281 -13.984375 11.8125 -13.390625 C 12.894531 -12.804688 13.75 -11.96875 14.375 -10.875 C 15 -9.78125 15.3125 -8.503906 15.3125 -7.046875 C 15.3125 -5.597656 14.988281 -4.320312 14.34375 -3.21875 C 13.707031 -2.113281 12.84375 -1.257812 11.75 -0.65625 C 10.65625 -0.0625 9.441406 0.234375 8.109375 0.234375 Z M 8.109375 -1.828125 C 8.941406 -1.828125 9.722656 -2.019531 10.453125 -2.40625 C 11.191406 -2.800781 11.785156 -3.390625 12.234375 -4.171875 C 12.691406 -4.960938 12.921875 -5.921875 12.921875 -7.046875 C 12.921875 -8.179688 12.695312 -9.140625 12.25 -9.921875 C 11.8125 -10.710938 11.234375 -11.296875 10.515625 -11.671875 C 9.796875 -12.054688 9.015625 -12.25 8.171875 -12.25 C 7.316406 -12.25 6.535156 -12.054688 5.828125 -11.671875 C 5.117188 -11.296875 4.550781 -10.710938 4.125 -9.921875 C 3.695312 -9.140625 3.484375 -8.179688 3.484375 -7.046875 C 3.484375 -5.898438 3.691406 -4.929688 4.109375 -4.140625 C 4.535156 -3.359375 5.097656 -2.773438 5.796875 -2.390625 C 6.492188 -2.015625 7.265625 -1.828125 8.109375 -1.828125 Z M 8.109375 -1.828125 "/></g></g></g><g fill="#ffffff" fill-opacity="1"><g transform="translate(174.572741, 46.499995)"><g><path d="M 18.875 -14.3125 C 19.96875 -14.3125 20.941406 -14.082031 21.796875 -13.625 C 22.648438 -13.175781 23.320312 -12.5 23.8125 -11.59375 C 24.3125 -10.6875 24.5625 -9.582031 24.5625 -8.28125 L 24.5625 0 L 22.25 0 L 22.25 -7.953125 C 22.25 -9.347656 21.898438 -10.414062 21.203125 -11.15625 C 20.515625 -11.90625 19.582031 -12.28125 18.40625 -12.28125 C 17.195312 -12.28125 16.234375 -11.890625 15.515625 -11.109375 C 14.796875 -10.335938 14.4375 -9.21875 14.4375 -7.75 L 14.4375 0 L 12.125 0 L 12.125 -7.953125 C 12.125 -9.347656 11.773438 -10.414062 11.078125 -11.15625 C 10.390625 -11.90625 9.457031 -12.28125 8.28125 -12.28125 C 7.070312 -12.28125 6.109375 -11.890625 5.390625 -11.109375 C 4.671875 -10.335938 4.3125 -9.21875 4.3125 -7.75 L 4.3125 0 L 1.96875 0 L 1.96875 -14.046875 L 4.3125 -14.046875 L 4.3125 -12.03125 C 4.769531 -12.757812 5.382812 -13.320312 6.15625 -13.71875 C 6.9375 -14.113281 7.800781 -14.3125 8.75 -14.3125 C 9.925781 -14.3125 10.96875 -14.046875 11.875 -13.515625 C 12.78125 -12.984375 13.453125 -12.203125 13.890625 -11.171875 C 14.285156 -12.171875 14.9375 -12.941406 15.84375 -13.484375 C 16.75 -14.035156 17.757812 -14.3125 18.875 -14.3125 Z M 18.875 -14.3125 "/></g></g></g><g fill="#ffffff" fill-opacity="1"><g transform="translate(200.982625, 46.499995)"><g><path d="M 18.875 -14.3125 C 19.96875 -14.3125 20.941406 -14.082031 21.796875 -13.625 C 22.648438 -13.175781 23.320312 -12.5 23.8125 -11.59375 C 24.3125 -10.6875 24.5625 -9.582031 24.5625 -8.28125 L 24.5625 0 L 22.25 0 L 22.25 -7.953125 C 22.25 -9.347656 21.898438 -10.414062 21.203125 -11.15625 C 20.515625 -11.90625 19.582031 -12.28125 18.40625 -12.28125 C 17.195312 -12.28125 16.234375 -11.890625 15.515625 -11.109375 C 14.796875 -10.335938 14.4375 -9.21875 14.4375 -7.75 L 14.4375 0 L 12.125 0 L 12.125 -7.953125 C 12.125 -9.347656 11.773438 -10.414062 11.078125 -11.15625 C 10.390625 -11.90625 9.457031 -12.28125 8.28125 -12.28125 C 7.070312 -12.28125 6.109375 -11.890625 5.390625 -11.109375 C 4.671875 -10.335938 4.3125 -9.21875 4.3125 -7.75 L 4.3125 0 L 1.96875 0 L 1.96875 -14.046875 L 4.3125 -14.046875 L 4.3125 -12.03125 C 4.769531 -12.757812 5.382812 -13.320312 6.15625 -13.71875 C 6.9375 -14.113281 7.800781 -14.3125 8.75 -14.3125 C 9.925781 -14.3125 10.96875 -14.046875 11.875 -13.515625 C 12.78125 -12.984375 13.453125 -12.203125 13.890625 -11.171875 C 14.285156 -12.171875 14.9375 -12.941406 15.84375 -13.484375 C 16.75 -14.035156 17.757812 -14.3125 18.875 -14.3125 Z M 18.875 -14.3125 "/></g></g></g><g fill="#ffffff" fill-opacity="1"><g transform="translate(227.392508, 46.499995)"><g><path d="M 14.4375 -14.046875 L 14.4375 0 L 12.109375 0 L 12.109375 -2.078125 C 11.660156 -1.359375 11.035156 -0.796875 10.234375 -0.390625 C 9.441406 0.00390625 8.566406 0.203125 7.609375 0.203125 C 6.515625 0.203125 5.53125 -0.0195312 4.65625 -0.46875 C 3.789062 -0.925781 3.101562 -1.609375 2.59375 -2.515625 C 2.09375 -3.421875 1.84375 -4.523438 1.84375 -5.828125 L 1.84375 -14.046875 L 4.15625 -14.046875 L 4.15625 -6.125 C 4.15625 -4.738281 4.503906 -3.675781 5.203125 -2.9375 C 5.898438 -2.195312 6.859375 -1.828125 8.078125 -1.828125 C 9.328125 -1.828125 10.3125 -2.207031 11.03125 -2.96875 C 11.75 -3.738281 12.109375 -4.859375 12.109375 -6.328125 L 12.109375 -14.046875 Z M 14.4375 -14.046875 "/></g></g></g><g fill="#ffffff" fill-opacity="1"><g transform="translate(243.802533, 46.499995)"><g><path d="M 8.828125 -14.3125 C 10.535156 -14.3125 11.914062 -13.789062 12.96875 -12.75 C 14.03125 -11.71875 14.5625 -10.226562 14.5625 -8.28125 L 14.5625 0 L 12.25 0 L 12.25 -7.953125 C 12.25 -9.347656 11.898438 -10.414062 11.203125 -11.15625 C 10.503906 -11.90625 9.546875 -12.28125 8.328125 -12.28125 C 7.097656 -12.28125 6.117188 -11.894531 5.390625 -11.125 C 4.671875 -10.351562 4.3125 -9.234375 4.3125 -7.765625 L 4.3125 0 L 1.96875 0 L 1.96875 -14.046875 L 4.3125 -14.046875 L 4.3125 -12.046875 C 4.769531 -12.765625 5.394531 -13.320312 6.1875 -13.71875 C 6.988281 -14.113281 7.867188 -14.3125 8.828125 -14.3125 Z M 8.828125 -14.3125 "/></g></g></g><g fill="#ffffff" fill-opacity="1"><g transform="translate(260.212558, 46.499995)"><g><path d="M 3.171875 -16.328125 C 2.734375 -16.328125 2.359375 -16.476562 2.046875 -16.78125 C 1.742188 -17.09375 1.59375 -17.472656 1.59375 -17.921875 C 1.59375 -18.367188 1.742188 -18.742188 2.046875 -19.046875 C 2.359375 -19.359375 2.734375 -19.515625 3.171875 -19.515625 C 3.609375 -19.515625 3.972656 -19.359375 4.265625 -19.046875 C 4.566406 -18.742188 4.71875 -18.367188 4.71875 -17.921875 C 4.71875 -17.472656 4.566406 -17.09375 4.265625 -16.78125 C 3.972656 -16.476562 3.609375 -16.328125 3.171875 -16.328125 Z M 4.3125 -14.046875 L 4.3125 0 L 1.96875 0 L 1.96875 -14.046875 Z M 4.3125 -14.046875 "/></g></g></g><g fill="#ffffff" fill-opacity="1"><g transform="translate(266.520175, 46.499995)"><g><path d="M 4.828125 -12.125 L 4.828125 -3.84375 C 4.828125 -3.164062 4.96875 -2.679688 5.25 -2.390625 C 5.539062 -2.109375 6.046875 -1.96875 6.765625 -1.96875 L 8.484375 -1.96875 L 8.484375 0 L 6.390625 0 C 5.085938 0 4.109375 -0.296875 3.453125 -0.890625 C 2.804688 -1.492188 2.484375 -2.476562 2.484375 -3.84375 L 2.484375 -12.125 L 0.671875 -12.125 L 0.671875 -14.046875 L 2.484375 -14.046875 L 2.484375 -17.59375 L 4.828125 -17.59375 L 4.828125 -14.046875 L 8.484375 -14.046875 L 8.484375 -12.125 Z M 4.828125 -12.125 "/></g></g></g><g fill="#ffffff" fill-opacity="1"><g transform="translate(275.85338, 46.499995)"><g><path d="M 14.078125 -14.046875 L 5.609375 6.609375 L 3.203125 6.609375 L 5.96875 -0.15625 L 0.3125 -14.046875 L 2.890625 -14.046875 L 7.3125 -2.671875 L 11.671875 -14.046875 Z M 14.078125 -14.046875 "/></g></g></g><g clip-path="url(#549f781bb2)"><g clip-path="url(#39ea8b374d)"><path fill="#ffffff" d="M 19.101562 19.101562 L 63.011719 19.101562 L 63.011719 56.835938 L 19.101562 56.835938 Z M 19.101562 19.101562 " fill-opacity="1" fill-rule="nonzero"/></g></g><g clip-path="url(#f002cc36cb)"><g clip-path="url(#a150dc1007)"><path stroke-linecap="butt" transform="matrix(0.75, 0, 0, 0.75, 19.104698, 19.103085)" fill="none" stroke-linejoin="miter" d="M 58.527078 25.149015 L 43.896867 50.294852 L 14.631238 50.294852 L 0.00102761 25.149015 L 14.631238 -0.00203027 L 43.896867 -0.00203027 Z M 58.527078 25.149015 " stroke="#ff914d" stroke-width="8" stroke-opacity="1" stroke-miterlimit="4"/></g></g></svg>