<svg xmlns="http://www.w3.org/2000/svg" xmlns:xlink="http://www.w3.org/1999/xlink" width="1200" zoomAndPan="magnify" viewBox="0 0 900 899.99999" height="1200" preserveAspectRatio="xMidYMid meet" version="1.0"><defs><clipPath id="97a1cfa7ca"><path d="M 95.304688 90 L 820.230469 90 L 820.230469 816 L 95.304688 816 Z M 95.304688 90 " clip-rule="nonzero"/></clipPath><clipPath id="9972609f5b"><path d="M 120.054688 90 L 795.457031 90 C 809.125 90 820.207031 101.082031 820.207031 114.75 L 820.207031 791.367188 C 820.207031 805.035156 809.125 816.117188 795.457031 816.117188 L 120.054688 816.117188 C 106.386719 816.117188 95.304688 805.035156 95.304688 791.367188 L 95.304688 114.75 C 95.304688 101.082031 106.386719 90 120.054688 90 Z M 120.054688 90 " clip-rule="nonzero"/></clipPath></defs><g clip-path="url(#97a1cfa7ca)"><g clip-path="url(#9972609f5b)"><path stroke-linecap="butt" transform="matrix(0.75, 0, 0, 0.75, 95.305584, 90.000015)" fill="none" stroke-linejoin="miter" d="M 32.998809 -0.0000203867 L 933.535372 -0.0000203867 C 951.759332 -0.0000203867 966.535376 14.776023 966.535376 32.999983 L 966.535376 935.156338 C 966.535376 953.380299 951.759332 968.156342 933.535372 968.156342 L 32.998809 968.156342 C 14.774848 968.156342 -0.00119508 953.380299 -0.00119508 935.156338 L -0.00119508 32.999983 C -0.00119508 14.776023 14.774848 -0.0000203867 32.998809 -0.0000203867 Z M 32.998809 -0.0000203867 " stroke="#4d3294" stroke-width="8" stroke-opacity="1" stroke-miterlimit="4"/></g></g><path fill="#f6cb48" d="M 307.488281 538.671875 C 299.480469 545.351562 296.300781 555.792969 294.738281 565.730469 C 293.460938 573.835938 292.621094 582.027344 291.566406 590.164062 C 291.199219 593.019531 290.828125 595.878906 290.457031 598.738281 C 290.238281 600.425781 289.859375 601.882812 288.640625 603.136719 C 279.070312 612.996094 269.480469 622.84375 260.109375 632.886719 C 256.722656 636.519531 251.289062 631.066406 254.664062 627.449219 C 263.921875 617.527344 273.386719 607.792969 282.84375 598.0625 C 283.476562 593.175781 284.109375 588.292969 284.742188 583.40625 C 285.902344 574.398438 286.550781 565.113281 288.816406 556.300781 C 291.132812 547.300781 295.472656 538.394531 302.90625 532.53125 C 309.957031 526.972656 319.070312 524.03125 328.066406 524.644531 C 346.175781 525.886719 360.765625 541.394531 361.234375 559.515625 C 361.464844 568.433594 357.824219 577.914062 350.96875 583.789062 C 344.449219 589.375 335.410156 591.480469 327.167969 588.707031 C 319.175781 586.019531 313.402344 579.28125 313.078125 570.714844 C 312.769531 562.605469 317.386719 554.8125 325.09375 551.984375 C 327.054688 551.265625 329.3125 552.792969 329.828125 554.671875 C 330.414062 556.792969 329.089844 558.683594 327.140625 559.402344 C 325.710938 559.925781 324.394531 560.9375 323.320312 562.273438 C 321.351562 564.734375 320.457031 568.441406 320.828125 571.59375 C 321.226562 574.992188 323.296875 578.101562 326.480469 580.003906 C 333.832031 584.398438 342.96875 581.984375 348.257812 575.578125 C 360.472656 560.792969 350.117188 537.449219 332.53125 533.058594 C 324.027344 530.933594 314.242188 533.03125 307.488281 538.671875 Z M 463.015625 506.714844 C 463.777344 506.484375 463.367188 506.578125 463.015625 506.714844 Z M 461.128906 508.089844 C 461.128906 508.09375 461.125 508.097656 461.125 508.097656 C 461.125 508.101562 461.125 508.101562 461.128906 508.105469 C 461.128906 508.101562 461.128906 508.097656 461.128906 508.089844 Z M 548.128906 499.167969 C 547.964844 499.625 547.972656 499.722656 548.023438 499.625 C 548.050781 499.484375 548.085938 499.355469 548.125 499.21875 C 548.125 499.203125 548.125 499.183594 548.128906 499.167969 Z M 461.261719 507.832031 C 461.226562 507.894531 461.191406 507.964844 461.15625 508.042969 C 461.15625 508.046875 461.160156 508.054688 461.160156 508.0625 C 461.164062 508.082031 461.167969 508.105469 461.175781 508.125 C 461.335938 507.925781 461.371094 507.796875 461.34375 507.761719 C 461.316406 507.785156 461.289062 507.808594 461.261719 507.832031 Z M 551.902344 557.558594 C 551.757812 557.777344 551.800781 557.726562 551.902344 557.558594 Z M 516.921875 574.195312 C 499.792969 575.089844 482.457031 574.636719 465.359375 573.199219 C 463.28125 573.023438 461.511719 571.578125 461.511719 569.351562 C 461.511719 567.398438 463.285156 565.332031 465.359375 565.507812 C 466.667969 565.617188 467.980469 565.707031 469.289062 565.796875 C 489.101562 567.144531 509.320312 567.8125 529.082031 565.511719 C 529.695312 565.4375 530.308594 565.363281 530.921875 565.28125 C 531.101562 565.257812 531.367188 565.222656 531.425781 565.214844 C 531.753906 565.164062 532.082031 565.117188 532.410156 565.070312 C 533.578125 564.894531 534.746094 564.699219 535.910156 564.484375 C 538.230469 564.050781 540.542969 563.535156 542.808594 562.863281 C 543.820312 562.566406 544.820312 562.238281 545.804688 561.867188 C 546.027344 561.78125 546.25 561.691406 546.472656 561.605469 C 546.828125 561.449219 547.183594 561.292969 547.53125 561.121094 C 548.304688 560.738281 549.0625 560.320312 549.785156 559.84375 C 550.113281 559.625 551.03125 558.730469 550.125 559.628906 C 550.386719 559.367188 550.695312 559.148438 550.960938 558.890625 C 551.167969 558.6875 551.347656 558.457031 551.546875 558.25 C 551.617188 558.140625 551.703125 558.035156 551.761719 557.925781 C 551.882812 557.695312 551.996094 557.414062 552.144531 557.203125 C 552.027344 557.371094 551.957031 557.476562 551.902344 557.558594 C 551.964844 557.449219 552.042969 557.300781 552.101562 557.148438 C 552.128906 557.207031 552.222656 557.027344 552.203125 556.796875 C 552.203125 556.78125 552.203125 556.761719 552.203125 556.746094 C 552.21875 556.636719 552.234375 556.527344 552.269531 556.429688 C 552.242188 556.515625 552.222656 556.578125 552.199219 556.648438 C 552.191406 556.421875 552.191406 556.164062 552.203125 555.953125 C 552.207031 555.929688 552.210938 555.929688 552.210938 555.910156 C 552.199219 555.875 552.191406 555.859375 552.179688 555.816406 C 552.082031 555.5 551.976562 555.167969 551.894531 554.84375 C 551.886719 554.820312 551.890625 554.816406 551.882812 554.792969 C 551.855469 554.75 551.832031 554.71875 551.789062 554.652344 C 551.597656 554.34375 551.414062 554.027344 551.230469 553.714844 C 551.191406 553.648438 551.171875 553.613281 551.144531 553.566406 C 550.875 553.28125 550.632812 552.964844 550.363281 552.679688 C 549.765625 552.050781 549.117188 551.496094 548.457031 550.941406 C 548.277344 550.8125 548.101562 550.679688 547.921875 550.550781 C 547.519531 550.269531 547.109375 549.996094 546.695312 549.730469 C 544.933594 548.605469 543.074219 547.636719 541.175781 546.761719 C 540.820312 546.597656 540.457031 546.4375 540.097656 546.277344 C 540.03125 546.25 539.816406 546.15625 539.667969 546.09375 C 539.4375 545.996094 539.207031 545.90625 538.976562 545.8125 C 531.78125 548.199219 524.089844 549.433594 516.753906 550.378906 C 504.804688 551.925781 492.59375 552.414062 480.582031 551.386719 C 475.675781 550.96875 470.691406 550.355469 465.941406 548.996094 C 462.683594 548.066406 459.070312 546.734375 456.734375 544.152344 C 454.105469 541.246094 453.835938 537.042969 456.476562 534.042969 C 458.699219 531.519531 462.246094 530.371094 465.433594 529.667969 C 475.75 527.390625 486.835938 527.988281 497.273438 528.957031 C 509.769531 530.121094 522.351562 532.210938 534.335938 536.007812 C 535.886719 536.5 537.429688 537.035156 538.96875 537.597656 C 539.121094 537.542969 539.277344 537.5 539.429688 537.441406 C 539.964844 537.242188 540.5 537.03125 541.03125 536.816406 C 541.0625 536.804688 541.070312 536.800781 541.097656 536.792969 C 541.113281 536.785156 541.117188 536.78125 541.136719 536.773438 C 541.386719 536.664062 541.636719 536.554688 541.882812 536.441406 C 543.613281 535.652344 545.304688 534.757812 546.871094 533.671875 C 547.066406 533.539062 547.253906 533.398438 547.445312 533.257812 C 547.460938 533.246094 547.480469 533.230469 547.492188 533.21875 C 547.753906 532.988281 548.023438 532.769531 548.277344 532.535156 C 548.566406 532.261719 548.839844 531.976562 549.113281 531.6875 C 549.214844 531.582031 549.304688 531.457031 549.40625 531.34375 C 549.5625 531.070312 549.773438 530.8125 549.929688 530.539062 C 550.171875 530.117188 550.355469 529.15625 550.070312 530.367188 C 550.132812 530.097656 550.265625 529.835938 550.339844 529.566406 C 550.382812 529.40625 550.398438 529.21875 550.40625 529.0625 C 550.410156 529.160156 550.414062 529.28125 550.421875 529.433594 C 550.402344 529.054688 550.449219 528.628906 550.460938 528.246094 C 550.460938 528.226562 550.460938 528.222656 550.460938 528.203125 C 550.351562 527.921875 550.304688 527.554688 550.226562 527.265625 C 550.203125 527.167969 550.160156 527.070312 550.121094 526.972656 C 549.722656 526.425781 549.371094 525.730469 549.019531 525.148438 C 548.960938 525.074219 548.902344 525 548.839844 524.929688 C 548.550781 524.617188 548.269531 524.296875 547.96875 523.996094 C 547.324219 523.34375 546.625 522.75 545.917969 522.164062 C 545.914062 522.160156 545.914062 522.160156 545.910156 522.160156 C 545.714844 522.015625 545.515625 521.867188 545.316406 521.726562 C 544.894531 521.425781 544.46875 521.132812 544.035156 520.851562 C 542.207031 519.65625 540.289062 518.605469 538.332031 517.644531 C 537.394531 517.1875 536.441406 516.761719 535.488281 516.339844 C 529.585938 518.1875 523.375 519.3125 517.527344 520.1875 C 505.292969 522.027344 492.769531 522.804688 480.417969 521.800781 C 475.386719 521.390625 470.261719 520.757812 465.414062 519.289062 C 461.972656 518.246094 458.230469 516.742188 455.824219 513.949219 C 453.371094 511.105469 452.640625 507.070312 454.710938 503.785156 C 456.660156 500.6875 460.460938 499.207031 463.867188 498.402344 C 473.945312 496.023438 484.972656 497.007812 495.128906 498.292969 C 507.628906 499.875 520.105469 502.457031 531.976562 506.722656 C 533.144531 507.144531 534.351562 507.585938 535.578125 508.050781 C 535.820312 507.96875 536.066406 507.894531 536.304688 507.808594 C 536.949219 507.574219 537.585938 507.324219 538.226562 507.078125 C 538.417969 507.003906 538.507812 506.96875 538.566406 506.949219 C 538.621094 506.921875 538.707031 506.882812 538.867188 506.808594 C 539.835938 506.375 540.800781 505.925781 541.738281 505.425781 C 542.597656 504.96875 543.4375 504.476562 544.246094 503.941406 C 544.550781 503.738281 544.847656 503.519531 545.152344 503.308594 C 545.292969 503.191406 545.433594 503.078125 545.570312 502.960938 C 546.148438 502.460938 546.621094 501.828125 547.191406 501.328125 C 547.257812 501.230469 547.332031 501.136719 547.390625 501.035156 C 547.5625 500.738281 547.722656 500.421875 547.902344 500.132812 C 547.914062 500.117188 547.917969 500.113281 547.925781 500.101562 C 547.9375 500.054688 547.9375 500.03125 547.953125 499.96875 C 547.976562 499.863281 548 499.742188 548.023438 499.625 C 548.058594 499.558594 548.105469 499.402344 548.125 499.21875 C 548.144531 499.152344 548.15625 499.078125 548.179688 499.015625 C 548.15625 499.078125 548.144531 499.117188 548.128906 499.167969 C 548.128906 499.132812 548.132812 499.097656 548.132812 499.0625 C 548.113281 498.324219 548.101562 498.007812 548.023438 497.628906 C 547.6875 496.003906 547.398438 495.367188 546.4375 494.019531 C 546.558594 494.203125 545.984375 493.457031 545.976562 493.449219 C 545.71875 493.167969 545.457031 492.886719 545.183594 492.617188 C 544.910156 492.351562 544.625 492.097656 544.339844 491.84375 C 544.332031 491.835938 543.9375 491.523438 543.800781 491.410156 C 542.671875 490.574219 541.449219 489.855469 540.195312 489.222656 C 539.761719 489.003906 539.320312 488.800781 538.878906 488.601562 C 538.839844 488.597656 537.832031 488.179688 537.625 488.105469 C 536.453125 487.675781 535.25 487.28125 534.03125 487.015625 C 532.304688 486.636719 531.46875 485.453125 531.308594 484.132812 C 531.242188 483.855469 531.199219 483.578125 531.203125 483.304688 C 531.226562 482.15625 531.246094 481.011719 531.265625 479.863281 C 531.367188 474.257812 531.464844 468.652344 531.566406 463.046875 C 531.664062 457.570312 531.78125 452.191406 533.804688 446.988281 C 535.570312 442.441406 538.203125 438.292969 541.660156 434.835938 C 545.003906 431.492188 549.15625 429.109375 552.742188 426.046875 C 559.664062 420.132812 565.453125 413.039062 569.535156 404.890625 C 576.933594 390.128906 577.425781 372.878906 571.261719 357.726562 C 565.550781 343.695312 554.207031 332.183594 541.0625 324.667969 C 511.578125 307.808594 472.003906 309.75 444.800781 330.304688 C 432.792969 339.378906 423.675781 352.238281 420.292969 366.890625 C 416.488281 383.363281 420.710938 400.722656 430.742188 414.410156 C 433.382812 418.011719 436.46875 421.3125 439.761719 424.320312 C 443.285156 427.542969 447.25 430.039062 450.964844 433 C 458.433594 438.957031 463.019531 447.941406 463.617188 457.449219 C 463.894531 461.863281 463.546875 466.371094 463.46875 470.785156 C 463.390625 474.957031 463.316406 479.132812 463.242188 483.304688 C 463.148438 488.257812 455.449219 488.257812 455.539062 483.304688 C 455.5625 481.984375 455.585938 480.660156 455.613281 479.339844 C 455.714844 473.691406 455.816406 468.039062 455.921875 462.390625 C 455.953125 460.550781 456.023438 458.707031 455.875 456.867188 C 455.523438 452.574219 453.914062 448.429688 451.550781 444.855469 C 448.914062 440.867188 445.242188 438.378906 441.46875 435.59375 C 437.585938 432.730469 433.910156 429.597656 430.582031 426.101562 C 423.976562 419.15625 418.757812 411.042969 415.335938 402.09375 C 409.085938 385.75 410.125 367.449219 417.488281 351.679688 C 424.515625 336.632812 437.210938 324.511719 451.777344 316.765625 C 483.621094 299.832031 525.511719 302.179688 554.339844 324.277344 C 567.289062 334.203125 577.398438 347.9375 581.355469 363.90625 C 585.78125 381.769531 582.164062 400.871094 571.898438 416.105469 C 566.511719 424.09375 559.636719 430.894531 551.785156 436.464844 C 544.507812 441.632812 539.597656 449.046875 539.355469 458.152344 C 539.160156 465.558594 539.074219 472.972656 538.953125 480.382812 C 542 481.367188 544.976562 482.832031 547.515625 484.632812 C 552.816406 488.390625 557.261719 494.914062 555.46875 501.699219 C 554.429688 505.636719 551.234375 508.5625 547.9375 510.707031 C 547.035156 511.296875 546.085938 511.828125 545.132812 512.34375 C 549.589844 514.796875 553.617188 517.890625 556.191406 522.015625 C 558.378906 525.527344 558.761719 529.714844 557.042969 533.488281 C 555.417969 537.058594 552.089844 539.664062 548.753906 541.566406 C 548.617188 541.644531 548.46875 541.707031 548.332031 541.78125 C 548.5625 541.910156 548.808594 542.019531 549.039062 542.152344 C 552.550781 544.167969 556.070312 546.757812 558.175781 550.296875 C 560.210938 553.71875 560.539062 557.988281 558.578125 561.519531 C 556.550781 565.167969 552.730469 567.292969 549 568.828125 C 539.046875 572.925781 527.550781 573.636719 516.921875 574.195312 Z M 461.117188 508.183594 C 461.121094 508.160156 461.125 508.132812 461.128906 508.105469 C 461.128906 508.109375 461.132812 508.113281 461.132812 508.113281 C 461.132812 508.105469 461.128906 508.097656 461.128906 508.089844 C 461.128906 508.089844 461.128906 508.089844 461.128906 508.085938 C 461.128906 508.085938 461.128906 508.085938 461.128906 508.082031 C 461.105469 508.050781 461.085938 508.023438 461.058594 507.984375 C 461.058594 507.988281 461.058594 507.988281 461.058594 507.988281 C 461.082031 508.019531 461.101562 508.0625 461.125 508.097656 C 461.085938 508.183594 461.046875 508.265625 460.992188 508.320312 C 461.046875 508.269531 461.078125 508.226562 461.117188 508.183594 Z M 461.140625 508.160156 C 461.140625 508.152344 461.136719 508.140625 461.136719 508.128906 C 461.132812 508.148438 461.128906 508.160156 461.125 508.179688 C 461.128906 508.171875 461.136719 508.167969 461.140625 508.160156 Z M 461.167969 508.132812 C 461.160156 508.125 461.152344 508.113281 461.144531 508.101562 C 461.140625 508.109375 461.140625 508.113281 461.136719 508.121094 C 461.144531 508.132812 461.148438 508.140625 461.152344 508.148438 C 461.15625 508.144531 461.164062 508.136719 461.167969 508.132812 Z M 522.167969 511.636719 C 520.007812 511.007812 517.832031 510.410156 515.648438 509.867188 C 504.089844 506.996094 493.804688 505.339844 482.144531 504.871094 C 479.734375 504.773438 477.320312 504.746094 474.90625 504.820312 C 473.765625 504.855469 472.625 504.914062 471.484375 505 C 470.949219 505.042969 470.414062 505.089844 469.882812 505.148438 C 469.675781 505.167969 468.863281 505.285156 468.710938 505.300781 C 467.15625 505.558594 465.609375 505.835938 464.105469 506.316406 C 463.683594 506.449219 463.273438 506.636719 462.847656 506.765625 C 462.917969 506.742188 462.957031 506.730469 463.015625 506.714844 C 462.9375 506.742188 462.859375 506.773438 462.804688 506.804688 C 462.515625 506.957031 462.230469 507.113281 461.945312 507.277344 C 461.878906 507.3125 461.8125 507.359375 461.753906 507.40625 C 461.789062 507.363281 461.820312 507.332031 461.863281 507.277344 C 461.800781 507.355469 461.714844 507.433594 461.628906 507.511719 C 461.667969 507.476562 461.707031 507.441406 461.753906 507.40625 C 461.363281 507.867188 461.375 507.773438 461.570312 507.570312 C 461.492188 507.640625 461.417969 507.703125 461.339844 507.761719 C 461.332031 507.75 461.3125 507.757812 461.289062 507.777344 C 461.277344 507.792969 461.269531 507.8125 461.261719 507.828125 C 461.257812 507.832031 461.253906 507.835938 461.25 507.839844 C 461.238281 507.847656 461.238281 507.847656 461.226562 507.855469 C 461.203125 507.902344 461.179688 507.964844 461.15625 508.039062 C 461.15625 508.039062 461.15625 508.039062 461.15625 508.042969 C 461.15625 508.042969 461.15625 508.046875 461.15625 508.046875 C 461.15625 508.050781 461.15625 508.054688 461.15625 508.0625 C 461.160156 508.085938 461.164062 508.105469 461.164062 508.132812 C 461.167969 508.128906 461.171875 508.125 461.175781 508.125 C 461.179688 508.136719 461.179688 508.148438 461.183594 508.160156 C 461.179688 508.152344 461.171875 508.140625 461.164062 508.132812 C 461.167969 508.148438 461.167969 508.160156 461.167969 508.175781 C 461.1875 508.210938 461.210938 508.238281 461.226562 508.273438 C 461.210938 508.238281 461.199219 508.203125 461.183594 508.160156 C 461.457031 508.546875 461.421875 508.601562 461.320312 508.453125 C 461.363281 508.539062 461.40625 508.628906 461.441406 508.703125 C 461.449219 508.71875 461.449219 508.71875 461.453125 508.730469 C 461.460938 508.734375 461.460938 508.734375 461.464844 508.738281 C 461.695312 508.941406 461.917969 509.183594 462.132812 509.398438 C 462.15625 509.421875 462.164062 509.429688 462.179688 509.449219 C 462.476562 509.605469 462.757812 509.84375 463.042969 510.015625 C 463.726562 510.429688 464.449219 510.75 465.167969 511.097656 C 463.984375 510.527344 465.367188 511.167969 465.675781 511.277344 C 466.113281 511.441406 466.554688 511.589844 467 511.730469 C 468.921875 512.339844 470.894531 512.789062 472.875 513.15625 C 473.546875 513.277344 474.214844 513.390625 474.886719 513.492188 C 475.011719 513.511719 475.640625 513.597656 475.894531 513.636719 C 477.074219 513.785156 478.253906 513.917969 479.441406 514.027344 C 484.925781 514.523438 490.449219 514.613281 495.957031 514.453125 C 505.214844 514.1875 513.523438 513.410156 522.167969 511.636719 Z M 462.207031 538.570312 C 462.15625 538.164062 462.160156 538.316406 462.207031 538.570312 Z M 462.332031 539.132812 C 462.324219 539.128906 462.320312 539.125 462.3125 539.121094 C 462.277344 539.167969 462.277344 539.179688 462.332031 539.132812 Z M 524.914062 541.351562 C 522.855469 540.828125 520.785156 540.339844 518.710938 539.898438 C 515.871094 539.296875 513.015625 538.765625 510.148438 538.296875 C 508.640625 538.050781 507.132812 537.824219 505.621094 537.609375 C 505.589844 537.605469 505.050781 537.53125 504.910156 537.511719 C 504.609375 537.46875 504.308594 537.429688 504.003906 537.394531 C 503.253906 537.296875 502.5 537.207031 501.75 537.117188 C 496.113281 536.464844 490.449219 536.039062 484.777344 535.925781 C 480.128906 535.832031 475.496094 535.988281 470.878906 536.5 C 470.640625 536.53125 469.976562 536.617188 469.796875 536.648438 C 469.320312 536.722656 468.847656 536.804688 468.378906 536.898438 C 467.582031 537.054688 466.789062 537.230469 466.007812 537.445312 C 465.28125 537.640625 464.578125 537.953125 463.859375 538.144531 C 463.773438 538.183594 463.6875 538.21875 463.605469 538.261719 C 463.328125 538.410156 463.054688 538.5625 462.78125 538.714844 C 462.722656 538.746094 462.667969 538.78125 462.617188 538.820312 C 462.660156 538.773438 462.691406 538.742188 462.738281 538.683594 C 462.671875 538.761719 462.582031 538.847656 462.488281 538.929688 C 462.476562 538.941406 462.464844 538.953125 462.457031 538.960938 C 462.453125 538.964844 462.449219 538.96875 462.449219 538.96875 C 462.433594 538.980469 462.425781 538.992188 462.414062 539.003906 C 462.421875 539.015625 462.425781 539.023438 462.429688 539.035156 C 462.445312 539.015625 462.460938 539.003906 462.480469 538.980469 C 462.582031 539.097656 462.683594 539.21875 462.761719 539.300781 C 462.765625 539.304688 462.765625 539.308594 462.769531 539.3125 C 463.019531 539.453125 463.253906 539.640625 463.496094 539.785156 C 464.125 540.164062 464.789062 540.453125 465.453125 540.765625 C 464.21875 540.183594 465.546875 540.785156 465.863281 540.898438 C 466.273438 541.046875 466.691406 541.1875 467.109375 541.316406 C 468.9375 541.890625 470.8125 542.316406 472.695312 542.667969 C 473.816406 542.878906 474.9375 543.054688 476.066406 543.214844 C 476.097656 543.21875 476.101562 543.222656 476.128906 543.226562 C 476.164062 543.230469 476.179688 543.230469 476.226562 543.238281 C 476.527344 543.273438 476.828125 543.3125 477.132812 543.347656 C 477.75 543.421875 478.371094 543.488281 478.988281 543.550781 C 484.359375 544.082031 489.765625 544.25 495.15625 544.191406 C 501.011719 544.125 506.863281 543.785156 512.683594 543.167969 C 515.921875 542.828125 517.363281 542.640625 520.449219 542.144531 C 521.941406 541.902344 523.429688 541.636719 524.914062 541.351562 Z M 547.433594 533.269531 C 546.832031 533.707031 547.222656 533.441406 547.433594 533.269531 Z M 550.40625 529.066406 C 550.417969 528.78125 550.390625 528.632812 550.40625 529.066406 Z M 462.488281 538.929688 C 462.476562 538.941406 462.46875 538.953125 462.457031 538.960938 C 462.464844 538.96875 462.472656 538.972656 462.480469 538.980469 C 462.515625 538.941406 462.570312 538.878906 462.617188 538.820312 C 462.570312 538.855469 462.527344 538.894531 462.488281 538.929688 Z M 552.203125 556.746094 C 552.203125 556.714844 552.203125 556.679688 552.199219 556.648438 C 552.101562 556.960938 552.085938 557.109375 552.101562 557.148438 C 552.113281 557.121094 552.128906 557.089844 552.136719 557.0625 C 552.171875 556.960938 552.1875 556.851562 552.203125 556.746094 Z M 516.207031 407.117188 C 514.199219 427.109375 513.242188 447.507812 518.230469 467.136719 C 519.453125 471.941406 512.023438 473.976562 510.804688 469.179688 C 510.03125 466.132812 509.375 463.054688 508.851562 459.953125 C 506.757812 447.523438 506.542969 434.910156 507.265625 422.351562 C 507.542969 417.578125 507.96875 412.816406 508.433594 408.0625 C 504.542969 408.363281 500.65625 408.496094 496.960938 408.777344 C 495.125 408.914062 493.226562 409.089844 491.300781 409.261719 C 496.648438 428.519531 494.289062 449.277344 491.707031 469.003906 C 491.4375 471.074219 490.164062 472.851562 487.859375 472.851562 C 485.972656 472.851562 483.738281 471.070312 484.007812 469.003906 C 486.53125 449.707031 489.324219 428.722656 483.488281 409.792969 C 475.945312 410.054688 468.414062 409.292969 462.25 404.875 C 458.046875 401.863281 454.675781 397.574219 453.894531 392.351562 C 453.007812 386.421875 455.632812 380.605469 461.554688 378.632812 C 473.109375 374.777344 481.84375 387.433594 486.253906 396.152344 C 487.175781 397.980469 487.976562 399.835938 488.722656 401.703125 C 494.046875 401.3125 499.371094 400.902344 504.695312 400.503906 C 506.132812 400.394531 507.65625 400.296875 509.210938 400.171875 C 509.644531 395.640625 510.050781 391.050781 511.074219 386.640625 C 512.046875 382.449219 513.816406 377.964844 517.226562 375.148438 C 521.289062 371.796875 526.882812 371.179688 531.460938 373.9375 C 535.886719 376.601562 538.929688 381.816406 538.738281 387.019531 C 538.546875 392.257812 535.753906 397.164062 531.789062 400.5 C 527.308594 404.265625 521.898438 406.113281 516.207031 407.117188 Z M 517.019531 399.148438 C 522.132812 398.070312 526.855469 395.96875 529.605469 391.371094 C 531.308594 388.527344 531.632812 385.128906 529.550781 382.375 C 527.652344 379.867188 524.613281 379.050781 522.246094 380.921875 C 521.3125 381.660156 520.367188 383.183594 519.75 384.609375 C 519.144531 386 518.722656 387.652344 518.390625 389.183594 C 517.6875 392.417969 517.34375 395.777344 517.019531 399.148438 Z M 480.5625 402.113281 C 480.199219 401.320312 479.855469 400.523438 479.457031 399.742188 C 477.398438 395.730469 474.933594 391.6875 471.640625 388.5625 C 469.507812 386.539062 465.429688 384.277344 462.667969 386.578125 C 459.9375 388.855469 461.792969 393.550781 463.585938 395.796875 C 465.976562 398.785156 469.554688 400.53125 473.214844 401.375 C 475.617188 401.929688 478.085938 402.109375 480.5625 402.113281 Z M 355.992188 291.078125 C 354.824219 289.523438 355.625 287.195312 356.984375 286.117188 C 358.550781 284.871094 360.59375 285.164062 362.039062 286.414062 C 363.714844 287.863281 365.519531 289.117188 367.445312 290.210938 C 383.773438 299.503906 404.835938 295.175781 418.292969 282.882812 C 422.359375 279.171875 425.855469 274.847656 428.765625 270.15625 C 420.308594 263.195312 413.933594 253.640625 411.296875 243.089844 C 409.019531 233.992188 410.058594 221.113281 419.667969 216.507812 C 430.992188 211.078125 442.914062 220.4375 445.488281 231.484375 C 448.207031 243.148438 444.207031 256.21875 439.296875 266.789062 C 439.125 267.160156 438.929688 267.519531 438.75 267.882812 C 446.585938 272.800781 455.835938 275.230469 465.101562 273.414062 C 479.980469 270.5 492.6875 257.773438 494.347656 242.746094 C 494.277344 241.855469 494.253906 240.953125 494.257812 240.042969 C 494.257812 239.917969 494.257812 239.792969 494.261719 239.667969 C 494.273438 238.691406 494.3125 237.707031 494.414062 236.710938 C 494.910156 231.777344 501.664062 231.753906 502.113281 236.710938 C 502.289062 238.621094 502.296875 240.519531 502.148438 242.421875 C 502.148438 242.421875 502.148438 242.425781 502.148438 242.425781 C 502.195312 242.875 502.261719 243.324219 502.332031 243.769531 C 502.382812 244.113281 502.429688 244.457031 502.496094 244.796875 C 502.5625 245.152344 502.652344 245.5 502.734375 245.851562 C 502.933594 246.71875 503.167969 247.570312 503.441406 248.417969 C 503.488281 248.554688 503.527344 248.695312 503.574219 248.832031 C 503.769531 249.402344 503.980469 249.964844 504.207031 250.527344 C 504.234375 250.59375 504.257812 250.65625 504.285156 250.722656 C 504.617188 251.535156 504.996094 252.328125 505.390625 253.117188 C 505.566406 253.472656 505.757812 253.824219 505.949219 254.175781 C 506.164062 254.578125 506.390625 254.976562 506.625 255.371094 C 506.878906 255.804688 507.128906 256.238281 507.402344 256.660156 C 507.492188 256.800781 507.589844 256.9375 507.679688 257.078125 C 508.433594 258.226562 509.238281 259.347656 510.09375 260.425781 C 511.519531 262.21875 513.074219 263.917969 514.714844 265.507812 C 516.292969 267.039062 517.960938 268.472656 519.6875 269.832031 C 520.308594 270.3125 520.929688 270.78125 521.5625 271.230469 C 521.585938 271.25 521.609375 271.273438 521.636719 271.292969 C 534.558594 280.71875 550.890625 285.613281 566.703125 286.175781 C 585.945312 286.867188 605.132812 281.363281 620.613281 269.820312 C 623.640625 267.558594 628.128906 272.054688 625.878906 275.082031 C 621.773438 280.605469 618.53125 286.710938 616.363281 293.246094 C 608.792969 316.078125 613.207031 343.015625 629.449219 361.121094 C 632.75 364.800781 627.320312 370.253906 624.003906 366.558594 C 618.96875 360.945312 614.808594 354.597656 611.789062 347.6875 C 603.09375 327.796875 602.761719 304.175781 611.570312 284.351562 C 605.515625 287.359375 599.121094 289.6875 592.558594 291.261719 C 572.039062 296.183594 550.050781 294.230469 530.847656 285.449219 C 526.46875 283.445312 522 280.910156 517.753906 277.914062 C 517.726562 277.898438 517.699219 277.890625 517.675781 277.875 C 517.574219 277.800781 517.476562 277.722656 517.375 277.648438 C 509.511719 272.035156 502.464844 264.835938 498.269531 256.464844 C 490.945312 271.605469 474.558594 282.339844 457.476562 281.597656 C 449.515625 281.253906 441.828125 278.714844 435.039062 274.609375 C 430.625 281.640625 424.972656 287.878906 418.238281 292.789062 C 404.777344 302.601562 386.550781 305.535156 371.015625 300.140625 C 371.777344 301.523438 372.515625 302.921875 373.214844 304.339844 C 383.875 325.917969 387.570312 350.421875 383.644531 374.160156 C 383.300781 376.222656 380.75 377.351562 378.90625 376.847656 C 376.753906 376.257812 375.878906 374.164062 376.21875 372.117188 C 377.242188 365.925781 377.648438 359.640625 377.523438 353.367188 C 377.089844 330.953125 369.46875 308.992188 355.992188 291.078125 Z M 432.523438 263.195312 C 433.085938 261.972656 433.621094 260.738281 434.109375 259.488281 C 435.925781 254.820312 437.3125 249.949219 438.125 245.003906 C 438.941406 240.050781 439.046875 234.449219 436.820312 229.828125 C 435.097656 226.253906 431.65625 223.277344 427.644531 222.675781 C 424.015625 222.132812 421.121094 224.125 419.5625 227.039062 C 415.921875 233.863281 418.628906 243.214844 422.050781 249.816406 C 424.621094 254.769531 428.222656 259.363281 432.523438 263.195312 Z M 611.449219 402.449219 C 612.410156 404.085938 615.039062 405.074219 616.71875 403.828125 C 629.84375 394.066406 644.285156 386.128906 659.636719 380.457031 C 661.585938 379.738281 662.910156 377.851562 662.328125 375.726562 C 661.8125 373.851562 659.550781 372.316406 657.589844 373.039062 C 641.601562 378.945312 626.511719 387.011719 612.832031 397.1875 C 611.167969 398.425781 610.316406 400.511719 611.449219 402.449219 Z M 658.964844 418.605469 C 658.964844 416.6875 657.195312 414.546875 655.113281 414.757812 C 641.0625 416.195312 627.21875 419.050781 613.789062 423.433594 C 609.097656 424.964844 611.105469 432.398438 615.835938 430.851562 C 628.59375 426.6875 641.757812 423.816406 655.113281 422.449219 C 657.183594 422.238281 658.964844 420.835938 658.964844 418.605469 Z M 624.808594 448.476562 C 620.8125 458.851562 616.285156 470.097656 616.636719 481.441406 C 621.472656 482.796875 626.191406 484.75 630.449219 487.382812 C 635.253906 490.355469 640.390625 494.390625 643.164062 499.417969 C 646.0625 504.671875 645.789062 511.777344 639.523438 514.359375 C 634.496094 516.433594 628.511719 514.3125 624.191406 511.503906 C 615.988281 506.171875 611.226562 497.089844 609.582031 487.636719 C 597.234375 485.550781 583.839844 487.550781 572.027344 490.566406 C 567.214844 491.796875 565.183594 484.375 569.980469 483.152344 C 582.632812 479.917969 595.9375 477.867188 608.925781 479.769531 C 609.003906 468.277344 613.3125 457 617.382812 446.429688 C 618.132812 444.484375 619.949219 443.148438 622.121094 443.742188 C 623.984375 444.253906 625.554688 446.535156 624.808594 448.476562 Z M 617.855469 489.746094 C 619.511719 495.738281 622.890625 501.492188 628.078125 504.863281 C 629.808594 505.984375 631.652344 506.878906 633.671875 507.328125 C 634.617188 507.539062 636.320312 507.796875 637.058594 507.042969 C 638.085938 505.992188 636.816406 503.777344 636.222656 502.796875 C 635.0625 500.878906 633.347656 499.277344 631.683594 497.800781 C 627.503906 494.09375 622.824219 491.492188 617.855469 489.746094 Z M 332.824219 419.207031 C 348.320312 421.75 363.875 422.304688 379.324219 419.140625 C 381.363281 418.722656 382.539062 416.316406 382.015625 414.410156 C 381.433594 412.292969 379.320312 411.304688 377.277344 411.722656 C 363.269531 414.589844 348.921875 414.09375 334.871094 411.789062 C 332.824219 411.453125 330.726562 412.324219 330.136719 414.476562 C 329.628906 416.316406 330.761719 418.871094 332.824219 419.207031 Z M 326.753906 460.757812 C 347.300781 454.363281 367.550781 447.046875 387.441406 438.835938 C 389.363281 438.042969 390.730469 436.285156 390.132812 434.105469 C 389.632812 432.289062 387.328125 430.621094 385.394531 431.417969 C 365.503906 439.628906 345.253906 446.945312 324.707031 453.339844 C 319.992188 454.808594 322.003906 462.238281 326.753906 460.757812 Z M 659.636719 572.65625 C 642.980469 568.429688 626.320312 564.203125 609.664062 559.980469 C 607.34375 559.390625 605.027344 558.800781 602.707031 558.214844 C 599.6875 557.449219 597.441406 560.089844 597.96875 562.945312 C 600.167969 574.820312 602.363281 586.699219 604.558594 598.574219 C 589.882812 594.957031 575.210938 591.335938 560.535156 587.71875 C 558.21875 587.148438 555.902344 586.578125 553.585938 586.003906 C 550.570312 585.261719 548.320312 587.867188 548.851562 590.738281 C 551.046875 602.605469 553.242188 614.476562 555.4375 626.347656 C 540.753906 622.679688 526.066406 619.011719 511.382812 615.34375 C 509.066406 614.765625 506.75 614.183594 504.433594 613.605469 C 499.625 612.40625 497.570312 619.820312 502.386719 621.023438 C 519.03125 625.179688 535.675781 629.339844 552.320312 633.496094 C 554.636719 634.078125 556.953125 634.65625 559.273438 635.234375 C 562.289062 635.988281 564.539062 633.363281 564.007812 630.503906 C 561.8125 618.625 559.617188 606.75 557.417969 594.871094 C 572.09375 598.492188 586.769531 602.109375 601.445312 605.730469 C 603.761719 606.300781 606.078125 606.871094 608.390625 607.441406 C 611.410156 608.1875 613.660156 605.582031 613.128906 602.710938 C 610.933594 590.847656 608.742188 578.988281 606.546875 567.125 C 621.242188 570.851562 635.9375 574.582031 650.632812 578.308594 C 652.953125 578.898438 655.269531 579.484375 657.589844 580.074219 C 662.394531 581.292969 664.445312 573.875 659.636719 572.65625 Z M 416.929688 459.816406 C 410.386719 461.054688 405.304688 466.582031 400.617188 470.886719 C 395.460938 475.621094 390.355469 480.414062 385.308594 485.265625 C 373.703125 496.414062 362.394531 507.863281 351.378906 519.59375 C 347.992188 523.203125 353.425781 528.652344 356.824219 525.03125 C 365.738281 515.542969 374.839844 506.230469 384.140625 497.117188 C 388.878906 492.476562 393.664062 487.882812 398.5 483.34375 C 403.109375 479.019531 407.632812 474.367188 412.613281 470.46875 C 414.453125 469.03125 416.722656 467.441406 419.125 467.230469 C 421.3125 467.042969 422.925781 468.476562 424.011719 470.234375 C 426.699219 474.582031 426.957031 479.953125 425.925781 484.851562 C 423.5625 496.097656 416.199219 506.101562 408.984375 514.777344 C 400.277344 525.253906 390.304688 534.578125 380.367188 543.859375 C 376.742188 547.246094 382.195312 552.679688 385.8125 549.296875 C 395.421875 540.324219 405.058594 531.3125 413.558594 521.257812 C 421.765625 511.546875 430.167969 500.417969 433.148438 487.824219 C 434.625 481.582031 434.613281 475.039062 432.039062 469.085938 C 429.371094 462.917969 423.941406 458.488281 416.929688 459.816406 Z M 426.382812 543.917969 C 427.703125 539.886719 428.382812 535.589844 428.40625 531.351562 C 428.433594 526.398438 420.734375 526.394531 420.707031 531.351562 C 420.664062 538.863281 417.933594 547.03125 412.839844 552.667969 C 410.085938 555.710938 406.851562 558.007812 403.191406 559.269531 C 398.621094 560.839844 393.9375 560.992188 389.046875 560.0625 C 387.007812 559.671875 384.894531 560.628906 384.3125 562.746094 C 383.792969 564.625 384.949219 567.085938 387 567.476562 C 395.859375 569.164062 405.207031 568.226562 412.742188 562.9375 C 419.328125 558.316406 423.890625 551.507812 426.382812 543.917969 Z M 399.027344 590.796875 C 407 592.007812 415.011719 591.136719 422.320312 587.628906 C 429.765625 584.058594 435.402344 577.695312 438.503906 570.109375 C 440.597656 564.996094 441.414062 559.445312 441.445312 553.941406 C 441.476562 548.992188 433.773438 548.988281 433.746094 553.941406 C 433.714844 558.945312 432.902344 564.257812 430.800781 568.632812 C 429.9375 570.433594 428.628906 572.578125 427.605469 573.835938 C 426.402344 575.308594 424.476562 577.167969 423.367188 578.011719 C 419.90625 580.640625 416.714844 582.007812 412.582031 582.953125 C 410.363281 583.457031 409.351562 583.582031 407.070312 583.664062 C 405.964844 583.707031 404.863281 583.695312 403.757812 583.632812 C 403.207031 583.605469 402.65625 583.5625 402.105469 583.507812 C 401.875 583.484375 401.640625 583.457031 401.40625 583.429688 C 401.339844 583.417969 401.242188 583.402344 401.074219 583.378906 C 399.023438 583.066406 396.9375 583.894531 396.339844 586.066406 C 395.839844 587.882812 396.960938 590.480469 399.027344 590.796875 Z M 449.929688 573.792969 C 447.785156 574.382812 446.855469 576.476562 447.242188 578.523438 C 447.261719 578.632812 447.367188 579.375 447.394531 579.492188 C 447.433594 579.871094 447.46875 580.253906 447.488281 580.636719 C 447.539062 581.582031 447.527344 582.527344 447.460938 583.472656 C 447.457031 583.578125 447.371094 584.328125 447.367188 584.460938 C 447.304688 584.855469 447.238281 585.253906 447.15625 585.644531 C 446.960938 586.597656 446.707031 587.535156 446.398438 588.457031 C 445.898438 589.949219 445.34375 591.164062 444.246094 592.925781 C 443.128906 594.714844 442.351562 595.664062 440.664062 597.269531 C 433.8125 603.792969 423.140625 605.457031 413.402344 604.027344 C 411.347656 603.726562 409.265625 604.539062 408.664062 606.714844 C 408.167969 608.523438 409.285156 611.140625 411.355469 611.445312 C 421.292969 612.90625 431.785156 612.269531 440.570312 606.941406 C 447.199219 602.917969 452.316406 596.460938 454.292969 588.925781 C 455.367188 584.828125 455.445312 580.628906 454.667969 576.480469 C 454.285156 574.4375 451.816406 573.277344 449.929688 573.792969 Z M 408.773438 622.480469 C 410.34375 624.046875 410.097656 626.316406 408.773438 627.917969 C 398.363281 640.507812 381.898438 645.289062 366.28125 647.261719 C 362.28125 647.769531 358.238281 648.148438 354.195312 648.222656 C 354.238281 648.734375 354.300781 649.242188 354.320312 649.757812 C 354.625 657.804688 351.226562 665.339844 347.164062 672.09375 C 342.914062 679.15625 337.703125 685.660156 331.777344 691.390625 C 328.214844 694.835938 322.765625 689.398438 326.332031 685.949219 C 331.976562 680.496094 336.867188 674.386719 340.863281 667.628906 C 344.410156 661.632812 347.355469 655.042969 346.484375 647.933594 C 344.9375 647.785156 343.398438 647.59375 341.867188 647.3125 C 334.4375 645.941406 327.527344 642.355469 322.085938 637.128906 C 317.222656 632.453125 311.230469 624.578125 313.390625 617.382812 C 314.503906 613.667969 317.730469 611.203125 321.542969 610.84375 C 324.921875 610.527344 328.410156 611.902344 331.246094 613.636719 C 337.398438 617.398438 342.738281 623.445312 346.855469 629.285156 C 349.285156 632.734375 351.269531 636.53125 352.59375 640.539062 C 353.117188 640.539062 353.640625 640.542969 354.164062 640.53125 C 360.425781 640.386719 366.722656 639.707031 372.863281 638.488281 C 384.390625 636.199219 395.667969 631.746094 403.328125 622.480469 C 404.660156 620.871094 407.410156 621.117188 408.773438 622.480469 Z M 344.136719 639.910156 C 342.8125 636.980469 341.078125 634.222656 339.140625 631.707031 C 337.175781 629.164062 334.941406 626.808594 332.605469 624.601562 C 330.558594 622.667969 328.476562 620.742188 325.929688 619.476562 C 325.007812 619.019531 323.792969 618.589844 322.945312 618.5 C 322.089844 618.410156 321.667969 618.40625 321.226562 618.839844 C 319.636719 620.410156 321.433594 623.574219 322.324219 625.105469 C 325.214844 630.070312 329.519531 634.078125 334.585938 636.769531 C 337.601562 638.371094 340.824219 639.351562 344.136719 639.910156 Z M 344.136719 639.910156 " fill-opacity="1" fill-rule="nonzero"/><path fill="#439751" d="M 613.789062 423.433594 C 627.21875 419.050781 641.0625 416.195312 655.113281 414.757812 C 657.195312 414.546875 658.964844 416.691406 658.964844 418.605469 C 658.964844 420.835938 657.183594 422.238281 655.113281 422.453125 C 641.757812 423.816406 628.59375 426.6875 615.835938 430.851562 C 611.105469 432.398438 609.097656 424.964844 613.789062 423.433594 Z M 377.277344 411.722656 C 363.269531 414.589844 348.925781 414.09375 334.871094 411.789062 C 332.824219 411.453125 330.726562 412.324219 330.136719 414.476562 C 329.628906 416.316406 330.761719 418.871094 332.824219 419.207031 C 348.320312 421.75 363.875 422.304688 379.324219 419.140625 C 381.363281 418.722656 382.539062 416.316406 382.015625 414.410156 C 381.433594 412.292969 379.320312 411.304688 377.277344 411.722656 Z M 659.636719 572.65625 C 642.980469 568.429688 626.320312 564.203125 609.664062 559.980469 C 607.34375 559.390625 605.027344 558.800781 602.707031 558.214844 C 599.6875 557.449219 597.441406 560.089844 597.96875 562.945312 C 600.167969 574.820312 602.363281 586.699219 604.558594 598.574219 C 589.882812 594.957031 575.210938 591.335938 560.535156 587.71875 C 558.21875 587.148438 555.902344 586.578125 553.585938 586.003906 C 550.570312 585.261719 548.320312 587.867188 548.851562 590.738281 C 551.046875 602.605469 553.242188 614.476562 555.4375 626.347656 C 540.753906 622.679688 526.066406 619.011719 511.382812 615.34375 C 509.066406 614.765625 506.75 614.183594 504.433594 613.605469 C 499.625 612.40625 497.570312 619.820312 502.386719 621.023438 C 519.03125 625.179688 535.675781 629.339844 552.320312 633.496094 C 554.636719 634.078125 556.953125 634.65625 559.273438 635.234375 C 562.289062 635.988281 564.539062 633.363281 564.007812 630.503906 C 561.8125 618.625 559.617188 606.75 557.417969 594.871094 C 572.09375 598.492188 586.769531 602.109375 601.445312 605.730469 C 603.761719 606.300781 606.078125 606.871094 608.390625 607.441406 C 611.410156 608.1875 613.660156 605.582031 613.128906 602.710938 C 610.933594 590.847656 608.742188 578.988281 606.546875 567.125 C 621.242188 570.851562 635.9375 574.582031 650.632812 578.308594 C 652.953125 578.898438 655.269531 579.484375 657.589844 580.074219 C 662.394531 581.292969 664.445312 573.875 659.636719 572.65625 Z M 659.636719 572.65625 " fill-opacity="1" fill-rule="nonzero"/><path fill="#e06937" d="M 361.234375 559.515625 C 361.464844 568.433594 357.824219 577.914062 350.96875 583.789062 C 344.449219 589.375 335.410156 591.480469 327.167969 588.707031 C 319.175781 586.019531 313.402344 579.28125 313.078125 570.714844 C 312.769531 562.605469 317.386719 554.8125 325.09375 551.984375 C 327.054688 551.261719 329.3125 552.792969 329.828125 554.671875 C 330.414062 556.792969 329.089844 558.683594 327.140625 559.402344 C 325.710938 559.925781 324.394531 560.9375 323.320312 562.273438 C 321.351562 564.730469 320.457031 568.441406 320.828125 571.59375 C 321.226562 574.992188 323.296875 578.101562 326.480469 580.003906 C 333.832031 584.398438 342.96875 581.984375 348.257812 575.578125 C 360.472656 560.792969 350.117188 537.449219 332.53125 533.058594 C 324.027344 530.933594 314.242188 533.03125 307.488281 538.671875 C 299.480469 545.351562 296.304688 555.792969 294.738281 565.730469 C 293.460938 573.835938 292.621094 582.027344 291.570312 590.164062 C 291.199219 593.019531 290.828125 595.878906 290.457031 598.738281 C 290.238281 600.425781 289.859375 601.882812 288.640625 603.136719 C 279.070312 612.996094 269.480469 622.84375 260.109375 632.886719 C 256.722656 636.519531 251.289062 631.066406 254.664062 627.449219 C 263.921875 617.527344 273.386719 607.792969 282.84375 598.0625 C 283.476562 593.175781 284.109375 588.292969 284.742188 583.40625 C 285.902344 574.398438 286.550781 565.113281 288.816406 556.300781 C 291.136719 547.300781 295.476562 538.394531 302.90625 532.53125 C 309.957031 526.972656 319.070312 524.03125 328.066406 524.644531 C 346.175781 525.882812 360.765625 541.394531 361.234375 559.515625 Z M 538.738281 387.019531 C 538.546875 392.257812 535.753906 397.164062 531.785156 400.5 C 527.308594 404.265625 521.898438 406.113281 516.207031 407.117188 C 514.199219 427.109375 513.242188 447.507812 518.230469 467.136719 C 519.453125 471.941406 512.023438 473.976562 510.804688 469.179688 C 510.03125 466.132812 509.375 463.054688 508.851562 459.953125 C 506.757812 447.523438 506.542969 434.910156 507.265625 422.351562 C 507.542969 417.578125 507.96875 412.816406 508.433594 408.0625 C 504.542969 408.363281 500.65625 408.496094 496.960938 408.777344 C 495.125 408.914062 493.226562 409.089844 491.300781 409.261719 C 496.648438 428.519531 494.289062 449.277344 491.707031 469.003906 C 491.4375 471.074219 490.164062 472.851562 487.859375 472.851562 C 485.972656 472.851562 483.738281 471.070312 484.007812 469.003906 C 486.53125 449.707031 489.324219 428.722656 483.488281 409.792969 C 475.945312 410.054688 468.414062 409.292969 462.25 404.875 C 458.046875 401.863281 454.675781 397.574219 453.894531 392.351562 C 453.007812 386.421875 455.632812 380.605469 461.554688 378.632812 C 473.109375 374.777344 481.84375 387.433594 486.253906 396.152344 C 487.175781 397.980469 487.976562 399.835938 488.722656 401.703125 C 494.046875 401.3125 499.371094 400.902344 504.695312 400.503906 C 506.132812 400.394531 507.65625 400.296875 509.210938 400.171875 C 509.644531 395.640625 510.050781 391.050781 511.074219 386.640625 C 512.046875 382.449219 513.816406 377.964844 517.226562 375.148438 C 521.289062 371.796875 526.882812 371.179688 531.460938 373.9375 C 535.886719 376.601562 538.929688 381.816406 538.738281 387.019531 Z M 480.5625 402.113281 C 480.199219 401.320312 479.855469 400.523438 479.457031 399.742188 C 477.398438 395.730469 474.933594 391.6875 471.640625 388.5625 C 469.507812 386.539062 465.429688 384.277344 462.667969 386.578125 C 459.9375 388.855469 461.792969 393.550781 463.585938 395.796875 C 465.976562 398.785156 469.554688 400.53125 473.214844 401.375 C 475.617188 401.929688 478.085938 402.109375 480.5625 402.113281 Z M 529.550781 382.375 C 527.652344 379.867188 524.613281 379.050781 522.246094 380.921875 C 521.3125 381.660156 520.367188 383.183594 519.75 384.609375 C 519.144531 386 518.722656 387.652344 518.390625 389.183594 C 517.6875 392.417969 517.34375 395.777344 517.019531 399.148438 C 522.132812 398.070312 526.855469 395.96875 529.605469 391.371094 C 531.308594 388.527344 531.632812 385.128906 529.550781 382.375 Z M 494.414062 236.710938 C 494.3125 237.703125 494.269531 238.691406 494.261719 239.667969 C 494.273438 238.691406 494.3125 237.707031 494.414062 236.710938 Z M 494.367188 242.542969 C 494.300781 241.714844 494.257812 240.882812 494.257812 240.042969 C 494.253906 240.953125 494.277344 241.855469 494.347656 242.746094 C 494.355469 242.679688 494.359375 242.613281 494.367188 242.542969 Z M 517.375 277.648438 C 509.777344 272.152344 502.632812 264.828125 498.347656 256.304688 C 498.320312 256.359375 498.296875 256.414062 498.269531 256.464844 C 502.464844 264.835938 509.511719 272.035156 517.375 277.648438 Z M 502.148438 242.421875 C 502.148438 242.421875 502.148438 242.425781 502.148438 242.425781 C 502.148438 242.425781 502.148438 242.421875 502.148438 242.421875 Z M 519.6875 269.832031 C 517.960938 268.472656 516.292969 267.039062 514.714844 265.507812 C 513.074219 263.917969 511.519531 262.21875 510.09375 260.425781 C 512.890625 263.949219 516.1875 267.125 519.6875 269.832031 Z M 629.449219 361.121094 C 613.210938 343.015625 608.792969 316.078125 616.363281 293.246094 C 618.53125 286.714844 621.773438 280.605469 625.878906 275.082031 C 628.128906 272.054688 623.644531 267.558594 620.613281 269.820312 C 605.132812 281.363281 585.945312 286.867188 566.703125 286.175781 C 550.890625 285.613281 534.558594 280.71875 521.636719 271.292969 C 523.277344 272.515625 524.058594 274.589844 522.941406 276.496094 C 521.976562 278.144531 519.445312 279.050781 517.753906 277.914062 C 522 280.910156 526.46875 283.449219 530.851562 285.449219 C 550.054688 294.230469 572.039062 296.183594 592.558594 291.265625 C 599.121094 289.691406 605.515625 287.359375 611.570312 284.351562 C 602.761719 304.175781 603.09375 327.796875 611.789062 347.6875 C 614.808594 354.597656 618.96875 360.949219 624.003906 366.5625 C 627.320312 370.253906 632.75 364.800781 629.449219 361.121094 Z M 413.558594 521.257812 C 421.765625 511.546875 430.167969 500.417969 433.148438 487.824219 C 434.625 481.582031 434.613281 475.039062 432.039062 469.085938 C 429.371094 462.917969 423.941406 458.488281 416.929688 459.816406 C 410.386719 461.054688 405.304688 466.582031 400.617188 470.882812 C 395.460938 475.621094 390.355469 480.414062 385.308594 485.265625 C 373.703125 496.414062 362.394531 507.863281 351.378906 519.59375 C 347.992188 523.203125 353.425781 528.652344 356.824219 525.03125 C 365.738281 515.542969 374.839844 506.230469 384.140625 497.117188 C 388.878906 492.476562 393.664062 487.882812 398.5 483.34375 C 403.109375 479.019531 407.632812 474.367188 412.613281 470.46875 C 414.453125 469.03125 416.722656 467.441406 419.125 467.230469 C 421.3125 467.042969 422.925781 468.476562 424.011719 470.234375 C 426.699219 474.582031 426.957031 479.953125 425.925781 484.851562 C 423.5625 496.097656 416.199219 506.101562 408.984375 514.777344 C 400.277344 525.253906 390.304688 534.578125 380.367188 543.859375 C 376.742188 547.246094 382.195312 552.679688 385.8125 549.296875 C 395.421875 540.324219 405.058594 531.3125 413.558594 521.257812 Z M 426.382812 543.917969 C 427.703125 539.886719 428.382812 535.589844 428.40625 531.351562 C 428.433594 526.398438 420.734375 526.394531 420.707031 531.351562 C 420.664062 538.863281 417.933594 547.03125 412.839844 552.667969 C 410.085938 555.710938 406.851562 558.007812 403.191406 559.269531 C 398.621094 560.839844 393.9375 560.992188 389.046875 560.0625 C 387.007812 559.671875 384.894531 560.628906 384.3125 562.746094 C 383.792969 564.625 384.949219 567.085938 387 567.476562 C 395.859375 569.164062 405.207031 568.226562 412.742188 562.9375 C 419.328125 558.316406 423.890625 551.507812 426.382812 543.917969 Z M 438.503906 570.109375 C 440.597656 564.996094 441.414062 559.445312 441.445312 553.941406 C 441.476562 548.992188 433.773438 548.984375 433.746094 553.941406 C 433.714844 558.945312 432.902344 564.257812 430.800781 568.632812 C 429.9375 570.433594 428.628906 572.578125 427.601562 573.835938 C 426.398438 575.308594 424.476562 577.167969 423.367188 578.011719 C 419.90625 580.640625 416.714844 582.007812 412.578125 582.953125 C 410.363281 583.457031 409.351562 583.582031 407.070312 583.664062 C 405.964844 583.707031 404.859375 583.695312 403.757812 583.632812 C 403.207031 583.605469 402.65625 583.5625 402.105469 583.507812 C 401.875 583.484375 401.640625 583.457031 401.40625 583.429688 C 401.339844 583.417969 401.242188 583.402344 401.074219 583.378906 C 399.023438 583.066406 396.9375 583.894531 396.339844 586.066406 C 395.839844 587.882812 396.960938 590.480469 399.027344 590.796875 C 407 592.007812 415.011719 591.136719 422.320312 587.628906 C 429.765625 584.054688 435.398438 577.695312 438.503906 570.109375 Z M 449.929688 573.792969 C 447.785156 574.382812 446.855469 576.476562 447.242188 578.523438 C 447.261719 578.632812 447.367188 579.375 447.394531 579.492188 C 447.433594 579.871094 447.46875 580.253906 447.488281 580.636719 C 447.539062 581.582031 447.527344 582.527344 447.460938 583.472656 C 447.457031 583.578125 447.371094 584.328125 447.367188 584.460938 C 447.304688 584.855469 447.238281 585.253906 447.15625 585.644531 C 446.960938 586.597656 446.707031 587.535156 446.398438 588.457031 C 445.898438 589.949219 445.34375 591.164062 444.246094 592.925781 C 443.128906 594.714844 442.351562 595.664062 440.664062 597.269531 C 433.8125 603.792969 423.140625 605.457031 413.402344 604.027344 C 411.347656 603.726562 409.265625 604.539062 408.664062 606.714844 C 408.167969 608.523438 409.285156 611.140625 411.355469 611.445312 C 421.292969 612.90625 431.785156 612.269531 440.570312 606.941406 C 447.199219 602.917969 452.316406 596.460938 454.292969 588.925781 C 455.367188 584.828125 455.445312 580.628906 454.667969 576.480469 C 454.285156 574.4375 451.816406 573.277344 449.929688 573.792969 Z M 449.929688 573.792969 " fill-opacity="1" fill-rule="nonzero"/><path fill="#2f72b1" d="M 463.015625 506.714844 C 463.367188 506.578125 463.777344 506.484375 463.015625 506.714844 Z M 461.128906 508.089844 C 461.128906 508.09375 461.125 508.097656 461.125 508.097656 C 461.125 508.101562 461.125 508.101562 461.128906 508.105469 C 461.128906 508.101562 461.128906 508.097656 461.128906 508.089844 Z M 548.128906 499.167969 C 547.964844 499.625 547.972656 499.722656 548.023438 499.625 C 548.050781 499.484375 548.085938 499.355469 548.125 499.21875 C 548.125 499.203125 548.125 499.183594 548.128906 499.167969 Z M 461.261719 507.832031 C 461.226562 507.894531 461.191406 507.964844 461.15625 508.042969 C 461.15625 508.046875 461.160156 508.054688 461.160156 508.0625 C 461.164062 508.082031 461.167969 508.105469 461.175781 508.125 C 461.335938 507.925781 461.371094 507.796875 461.34375 507.761719 C 461.316406 507.785156 461.289062 507.808594 461.261719 507.832031 Z M 551.902344 557.558594 C 551.757812 557.777344 551.800781 557.726562 551.902344 557.558594 Z M 558.171875 550.300781 C 560.207031 553.722656 560.539062 557.992188 558.574219 561.523438 C 556.546875 565.167969 552.726562 567.296875 549 568.828125 C 539.046875 572.925781 527.550781 573.636719 516.921875 574.195312 C 499.792969 575.089844 482.457031 574.636719 465.359375 573.199219 C 463.28125 573.023438 461.511719 571.578125 461.511719 569.351562 C 461.511719 567.398438 463.285156 565.332031 465.359375 565.507812 C 466.667969 565.617188 467.980469 565.707031 469.289062 565.796875 C 489.101562 567.144531 509.320312 567.8125 529.082031 565.511719 C 529.695312 565.4375 530.308594 565.363281 530.921875 565.28125 C 531.101562 565.257812 531.367188 565.222656 531.425781 565.214844 C 531.753906 565.164062 532.082031 565.117188 532.410156 565.070312 C 533.578125 564.894531 534.746094 564.699219 535.910156 564.484375 C 538.230469 564.050781 540.542969 563.535156 542.808594 562.863281 C 543.820312 562.566406 544.820312 562.238281 545.804688 561.867188 C 546.027344 561.78125 546.25 561.691406 546.472656 561.605469 C 546.828125 561.449219 547.183594 561.292969 547.53125 561.121094 C 548.304688 560.738281 549.0625 560.320312 549.785156 559.84375 C 550.113281 559.625 551.03125 558.730469 550.125 559.628906 C 550.386719 559.367188 550.695312 559.148438 550.960938 558.890625 C 551.167969 558.6875 551.347656 558.457031 551.546875 558.25 C 551.617188 558.140625 551.703125 558.035156 551.761719 557.925781 C 551.882812 557.695312 551.996094 557.414062 552.144531 557.203125 C 552.027344 557.371094 551.957031 557.476562 551.902344 557.558594 C 551.964844 557.449219 552.042969 557.300781 552.101562 557.148438 C 552.128906 557.207031 552.222656 557.027344 552.207031 556.796875 C 552.203125 556.78125 552.203125 556.761719 552.203125 556.746094 C 552.21875 556.636719 552.234375 556.527344 552.273438 556.429688 C 552.242188 556.515625 552.222656 556.578125 552.199219 556.648438 C 552.191406 556.421875 552.191406 556.164062 552.203125 555.953125 C 552.207031 555.929688 552.210938 555.929688 552.210938 555.910156 C 552.199219 555.875 552.191406 555.859375 552.179688 555.816406 C 552.082031 555.5 551.976562 555.167969 551.894531 554.84375 C 551.886719 554.820312 551.890625 554.816406 551.882812 554.792969 C 551.855469 554.75 551.832031 554.71875 551.789062 554.652344 C 551.597656 554.34375 551.414062 554.027344 551.230469 553.714844 C 551.191406 553.648438 551.171875 553.613281 551.144531 553.566406 C 550.875 553.28125 550.636719 552.964844 550.363281 552.679688 C 549.765625 552.050781 549.117188 551.496094 548.457031 550.941406 C 548.277344 550.8125 548.101562 550.679688 547.921875 550.550781 C 547.519531 550.269531 547.109375 549.996094 546.695312 549.730469 C 544.933594 548.605469 543.074219 547.636719 541.179688 546.761719 C 540.820312 546.597656 540.457031 546.4375 540.097656 546.277344 C 540.035156 546.25 539.816406 546.15625 539.667969 546.09375 C 539.4375 545.996094 539.207031 545.90625 538.976562 545.8125 C 531.78125 548.199219 524.089844 549.433594 516.753906 550.378906 C 504.804688 551.925781 492.59375 552.414062 480.582031 551.386719 C 475.675781 550.96875 470.691406 550.355469 465.941406 548.996094 C 462.683594 548.066406 459.070312 546.734375 456.734375 544.152344 C 454.105469 541.246094 453.835938 537.042969 456.476562 534.042969 C 458.699219 531.519531 462.246094 530.371094 465.433594 529.667969 C 475.75 527.390625 486.835938 527.988281 497.273438 528.957031 C 509.769531 530.121094 522.351562 532.210938 534.335938 536.007812 C 535.886719 536.5 537.433594 537.035156 538.972656 537.597656 C 539.121094 537.542969 539.277344 537.5 539.429688 537.441406 C 539.964844 537.242188 540.5 537.03125 541.03125 536.816406 C 541.0625 536.804688 541.070312 536.800781 541.097656 536.792969 C 541.113281 536.785156 541.117188 536.78125 541.136719 536.773438 C 541.386719 536.664062 541.636719 536.554688 541.882812 536.441406 C 543.613281 535.652344 545.304688 534.757812 546.871094 533.671875 C 547.066406 533.539062 547.253906 533.398438 547.445312 533.257812 C 547.460938 533.246094 547.480469 533.230469 547.492188 533.21875 C 547.753906 532.988281 548.023438 532.769531 548.277344 532.535156 C 548.566406 532.261719 548.839844 531.976562 549.113281 531.6875 C 549.214844 531.582031 549.304688 531.457031 549.40625 531.34375 C 549.566406 531.070312 549.773438 530.8125 549.929688 530.539062 C 550.171875 530.117188 550.359375 529.15625 550.070312 530.367188 C 550.132812 530.097656 550.265625 529.835938 550.339844 529.566406 C 550.382812 529.40625 550.402344 529.21875 550.40625 529.0625 C 550.410156 529.160156 550.414062 529.28125 550.425781 529.433594 C 550.402344 529.054688 550.449219 528.628906 550.460938 528.246094 C 550.460938 528.226562 550.460938 528.222656 550.460938 528.203125 C 550.351562 527.921875 550.304688 527.554688 550.226562 527.265625 C 550.203125 527.167969 550.160156 527.070312 550.121094 526.972656 C 549.722656 526.425781 549.371094 525.730469 549.019531 525.148438 C 548.960938 525.074219 548.902344 525 548.839844 524.929688 C 548.550781 524.617188 548.269531 524.296875 547.96875 523.996094 C 547.324219 523.34375 546.625 522.75 545.917969 522.164062 C 545.914062 522.160156 545.914062 522.160156 545.910156 522.160156 C 545.714844 522.015625 545.519531 521.867188 545.316406 521.726562 C 544.898438 521.425781 544.46875 521.132812 544.035156 520.851562 C 542.207031 519.65625 540.289062 518.605469 538.332031 517.644531 C 537.394531 517.1875 536.441406 516.761719 535.488281 516.339844 C 529.585938 518.1875 523.375 519.3125 517.527344 520.1875 C 505.292969 522.027344 492.769531 522.804688 480.421875 521.800781 C 475.386719 521.390625 470.261719 520.757812 465.417969 519.289062 C 461.972656 518.246094 458.234375 516.742188 455.824219 513.949219 C 453.371094 511.105469 452.640625 507.070312 454.710938 503.785156 C 456.660156 500.6875 460.460938 499.207031 463.867188 498.402344 C 473.945312 496.023438 484.972656 497.007812 495.128906 498.292969 C 507.628906 499.875 520.105469 502.457031 531.976562 506.722656 C 533.144531 507.144531 534.351562 507.585938 535.578125 508.050781 C 535.820312 507.96875 536.066406 507.894531 536.308594 507.808594 C 536.949219 507.574219 537.585938 507.324219 538.226562 507.078125 C 538.417969 507.003906 538.507812 506.96875 538.566406 506.949219 C 538.621094 506.921875 538.707031 506.882812 538.867188 506.808594 C 539.835938 506.375 540.800781 505.925781 541.738281 505.425781 C 542.597656 504.96875 543.4375 504.476562 544.246094 503.941406 C 544.554688 503.738281 544.847656 503.519531 545.152344 503.308594 C 545.292969 503.191406 545.433594 503.078125 545.570312 502.960938 C 546.152344 502.460938 546.621094 501.828125 547.191406 501.328125 C 547.257812 501.230469 547.332031 501.136719 547.390625 501.035156 C 547.5625 500.738281 547.722656 500.421875 547.902344 500.132812 C 547.914062 500.117188 547.917969 500.113281 547.929688 500.101562 C 547.9375 500.054688 547.9375 500.03125 547.953125 499.96875 C 547.976562 499.863281 548 499.742188 548.023438 499.625 C 548.058594 499.558594 548.109375 499.402344 548.125 499.21875 C 548.144531 499.152344 548.15625 499.078125 548.179688 499.015625 C 548.15625 499.078125 548.144531 499.117188 548.128906 499.167969 C 548.128906 499.132812 548.136719 499.097656 548.132812 499.0625 C 548.113281 498.324219 548.101562 498.007812 548.023438 497.628906 C 547.6875 496.003906 547.398438 495.367188 546.4375 494.019531 C 546.558594 494.203125 545.984375 493.457031 545.976562 493.449219 C 545.71875 493.167969 545.457031 492.886719 545.183594 492.617188 C 544.910156 492.351562 544.625 492.097656 544.339844 491.84375 C 544.332031 491.835938 543.9375 491.523438 543.800781 491.410156 C 542.671875 490.574219 541.449219 489.855469 540.195312 489.222656 C 539.761719 489.003906 539.320312 488.800781 538.878906 488.601562 C 538.839844 488.597656 537.832031 488.179688 537.625 488.105469 C 536.453125 487.675781 535.25 487.28125 534.03125 487.015625 C 532.304688 486.636719 531.46875 485.453125 531.308594 484.132812 C 531.019531 481.746094 532.96875 478.917969 536.078125 479.597656 C 537.035156 479.804688 537.996094 480.074219 538.953125 480.382812 C 542 481.367188 544.976562 482.832031 547.515625 484.636719 C 552.816406 488.394531 557.261719 494.914062 555.46875 501.699219 C 554.429688 505.636719 551.234375 508.5625 547.9375 510.710938 C 547.035156 511.296875 546.085938 511.828125 545.132812 512.347656 C 549.589844 514.796875 553.617188 517.890625 556.1875 522.019531 C 558.378906 525.527344 558.761719 529.71875 557.042969 533.488281 C 555.414062 537.058594 552.089844 539.667969 548.753906 541.566406 C 548.617188 541.644531 548.46875 541.707031 548.332031 541.785156 C 548.5625 541.914062 548.808594 542.023438 549.035156 542.152344 C 552.550781 544.167969 556.070312 546.761719 558.171875 550.300781 Z M 461.117188 508.183594 C 461.121094 508.160156 461.125 508.132812 461.128906 508.105469 C 461.128906 508.109375 461.132812 508.113281 461.132812 508.113281 C 461.132812 508.105469 461.128906 508.097656 461.128906 508.089844 C 461.128906 508.089844 461.128906 508.089844 461.128906 508.085938 C 461.128906 508.085938 461.128906 508.085938 461.128906 508.082031 C 461.105469 508.050781 461.085938 508.023438 461.058594 507.984375 C 461.058594 507.988281 461.058594 507.988281 461.058594 507.988281 C 461.082031 508.019531 461.101562 508.0625 461.125 508.097656 C 461.085938 508.183594 461.046875 508.265625 460.992188 508.320312 C 461.046875 508.269531 461.078125 508.226562 461.117188 508.183594 Z M 461.140625 508.160156 C 461.140625 508.152344 461.136719 508.140625 461.136719 508.128906 C 461.132812 508.148438 461.128906 508.160156 461.125 508.179688 C 461.128906 508.171875 461.136719 508.167969 461.140625 508.160156 Z M 461.167969 508.132812 C 461.160156 508.125 461.152344 508.113281 461.144531 508.101562 C 461.140625 508.109375 461.140625 508.113281 461.136719 508.121094 C 461.144531 508.132812 461.148438 508.140625 461.152344 508.148438 C 461.15625 508.144531 461.164062 508.136719 461.167969 508.132812 Z M 522.167969 511.636719 C 520.007812 511.007812 517.832031 510.410156 515.648438 509.867188 C 504.089844 506.996094 493.804688 505.339844 482.144531 504.871094 C 479.734375 504.773438 477.320312 504.746094 474.90625 504.820312 C 473.765625 504.855469 472.625 504.914062 471.484375 505 C 470.949219 505.042969 470.414062 505.089844 469.882812 505.148438 C 469.675781 505.167969 468.863281 505.285156 468.710938 505.300781 C 467.15625 505.558594 465.609375 505.835938 464.105469 506.316406 C 463.683594 506.449219 463.273438 506.636719 462.847656 506.765625 C 462.917969 506.742188 462.957031 506.730469 463.015625 506.714844 C 462.9375 506.742188 462.859375 506.773438 462.804688 506.804688 C 462.515625 506.957031 462.230469 507.113281 461.945312 507.277344 C 461.878906 507.3125 461.8125 507.359375 461.753906 507.40625 C 461.789062 507.363281 461.820312 507.332031 461.863281 507.277344 C 461.800781 507.355469 461.714844 507.433594 461.628906 507.511719 C 461.667969 507.476562 461.707031 507.441406 461.753906 507.40625 C 461.363281 507.867188 461.375 507.773438 461.570312 507.570312 C 461.492188 507.640625 461.417969 507.703125 461.339844 507.761719 C 461.332031 507.75 461.3125 507.757812 461.289062 507.777344 C 461.277344 507.792969 461.269531 507.8125 461.261719 507.828125 C 461.257812 507.832031 461.253906 507.835938 461.25 507.839844 C 461.238281 507.847656 461.238281 507.847656 461.226562 507.855469 C 461.203125 507.902344 461.179688 507.964844 461.15625 508.039062 C 461.15625 508.039062 461.15625 508.039062 461.15625 508.042969 C 461.15625 508.042969 461.15625 508.046875 461.15625 508.046875 C 461.15625 508.050781 461.15625 508.054688 461.15625 508.0625 C 461.160156 508.085938 461.164062 508.105469 461.164062 508.132812 C 461.167969 508.128906 461.171875 508.125 461.175781 508.125 C 461.179688 508.136719 461.179688 508.148438 461.183594 508.160156 C 461.179688 508.152344 461.171875 508.140625 461.164062 508.132812 C 461.167969 508.148438 461.167969 508.160156 461.167969 508.175781 C 461.1875 508.210938 461.210938 508.238281 461.226562 508.273438 C 461.210938 508.238281 461.199219 508.203125 461.183594 508.160156 C 461.457031 508.546875 461.421875 508.601562 461.320312 508.453125 C 461.363281 508.539062 461.40625 508.628906 461.441406 508.703125 C 461.449219 508.71875 461.449219 508.71875 461.453125 508.730469 C 461.460938 508.734375 461.460938 508.734375 461.464844 508.738281 C 461.695312 508.941406 461.917969 509.183594 462.132812 509.398438 C 462.15625 509.421875 462.164062 509.429688 462.179688 509.449219 C 462.476562 509.605469 462.757812 509.84375 463.042969 510.015625 C 463.726562 510.429688 464.449219 510.75 465.167969 511.097656 C 463.984375 510.527344 465.367188 511.167969 465.675781 511.277344 C 466.113281 511.441406 466.554688 511.589844 467 511.730469 C 468.921875 512.339844 470.894531 512.789062 472.875 513.15625 C 473.546875 513.277344 474.214844 513.390625 474.886719 513.492188 C 475.011719 513.511719 475.640625 513.597656 475.894531 513.636719 C 477.074219 513.785156 478.253906 513.917969 479.441406 514.027344 C 484.925781 514.523438 490.449219 514.613281 495.957031 514.453125 C 505.214844 514.1875 513.523438 513.410156 522.167969 511.636719 Z M 462.207031 538.570312 C 462.15625 538.164062 462.160156 538.316406 462.207031 538.570312 Z M 462.332031 539.132812 C 462.324219 539.128906 462.320312 539.125 462.3125 539.121094 C 462.277344 539.167969 462.277344 539.179688 462.332031 539.132812 Z M 524.914062 541.351562 C 522.855469 540.828125 520.785156 540.339844 518.710938 539.898438 C 515.871094 539.296875 513.015625 538.765625 510.148438 538.296875 C 508.640625 538.050781 507.132812 537.824219 505.621094 537.609375 C 505.589844 537.605469 505.050781 537.53125 504.910156 537.511719 C 504.609375 537.46875 504.308594 537.429688 504.003906 537.394531 C 503.253906 537.296875 502.5 537.207031 501.75 537.117188 C 496.113281 536.464844 490.449219 536.039062 484.777344 535.925781 C 480.128906 535.832031 475.496094 535.988281 470.878906 536.5 C 470.640625 536.53125 469.976562 536.617188 469.796875 536.648438 C 469.320312 536.722656 468.847656 536.804688 468.378906 536.898438 C 467.582031 537.054688 466.789062 537.230469 466.007812 537.445312 C 465.28125 537.640625 464.578125 537.953125 463.859375 538.144531 C 463.773438 538.183594 463.6875 538.21875 463.605469 538.261719 C 463.328125 538.410156 463.054688 538.5625 462.78125 538.714844 C 462.722656 538.746094 462.667969 538.78125 462.617188 538.820312 C 462.660156 538.773438 462.691406 538.742188 462.738281 538.683594 C 462.671875 538.761719 462.582031 538.847656 462.488281 538.929688 C 462.476562 538.941406 462.464844 538.953125 462.457031 538.960938 C 462.453125 538.964844 462.449219 538.96875 462.449219 538.96875 C 462.433594 538.980469 462.425781 538.992188 462.414062 539.003906 C 462.421875 539.015625 462.425781 539.023438 462.429688 539.035156 C 462.445312 539.015625 462.460938 539.003906 462.480469 538.980469 C 462.582031 539.097656 462.683594 539.21875 462.761719 539.300781 C 462.765625 539.304688 462.765625 539.308594 462.769531 539.3125 C 463.019531 539.453125 463.253906 539.640625 463.496094 539.785156 C 464.125 540.164062 464.789062 540.453125 465.453125 540.765625 C 464.21875 540.183594 465.546875 540.785156 465.863281 540.898438 C 466.273438 541.046875 466.691406 541.1875 467.109375 541.316406 C 468.9375 541.890625 470.8125 542.316406 472.695312 542.667969 C 473.816406 542.878906 474.9375 543.054688 476.066406 543.214844 C 476.097656 543.21875 476.101562 543.222656 476.128906 543.226562 C 476.164062 543.230469 476.179688 543.230469 476.226562 543.238281 C 476.527344 543.273438 476.828125 543.3125 477.132812 543.347656 C 477.75 543.421875 478.371094 543.488281 478.988281 543.550781 C 484.359375 544.082031 489.765625 544.25 495.15625 544.191406 C 501.011719 544.125 506.863281 543.785156 512.683594 543.167969 C 515.921875 542.828125 517.363281 542.640625 520.449219 542.144531 C 521.941406 541.902344 523.429688 541.636719 524.914062 541.351562 Z M 547.433594 533.269531 C 546.832031 533.707031 547.222656 533.441406 547.433594 533.269531 Z M 550.40625 529.066406 C 550.417969 528.78125 550.390625 528.632812 550.40625 529.066406 Z M 462.488281 538.929688 C 462.476562 538.941406 462.46875 538.953125 462.457031 538.960938 C 462.464844 538.96875 462.472656 538.972656 462.480469 538.980469 C 462.515625 538.941406 462.570312 538.878906 462.617188 538.820312 C 462.570312 538.855469 462.527344 538.894531 462.488281 538.929688 Z M 552.203125 556.746094 C 552.203125 556.714844 552.203125 556.679688 552.199219 556.648438 C 552.101562 556.960938 552.085938 557.109375 552.101562 557.148438 C 552.113281 557.121094 552.128906 557.089844 552.136719 557.0625 C 552.171875 556.960938 552.1875 556.851562 552.203125 556.746094 Z M 457.476562 281.597656 C 449.515625 281.253906 441.828125 278.714844 435.039062 274.609375 C 430.625 281.644531 424.972656 287.878906 418.238281 292.789062 C 404.777344 302.601562 386.550781 305.535156 371.015625 300.140625 C 371.777344 301.523438 372.515625 302.921875 373.21875 304.339844 C 383.875 325.917969 387.570312 350.425781 383.644531 374.160156 C 383.300781 376.222656 380.75 377.355469 378.90625 376.847656 C 376.753906 376.257812 375.878906 374.164062 376.21875 372.117188 C 377.242188 365.925781 377.648438 359.640625 377.527344 353.367188 C 377.089844 330.953125 369.46875 308.992188 355.992188 291.078125 C 354.824219 289.523438 355.625 287.195312 356.984375 286.113281 C 358.546875 284.871094 360.59375 285.164062 362.039062 286.414062 C 363.714844 287.863281 365.519531 289.117188 367.445312 290.210938 C 383.773438 299.503906 404.835938 295.175781 418.292969 282.882812 C 422.359375 279.167969 425.855469 274.847656 428.765625 270.15625 C 420.308594 263.195312 413.933594 253.640625 411.292969 243.085938 C 409.019531 233.988281 410.058594 221.113281 419.667969 216.507812 C 430.992188 211.078125 442.914062 220.4375 445.488281 231.484375 C 448.207031 243.148438 444.207031 256.21875 439.296875 266.789062 C 439.125 267.160156 438.929688 267.515625 438.75 267.882812 C 446.585938 272.800781 455.835938 275.230469 465.101562 273.414062 C 479.980469 270.5 492.6875 257.773438 494.347656 242.746094 C 494.351562 242.679688 494.359375 242.609375 494.367188 242.542969 C 494.300781 241.714844 494.257812 240.882812 494.257812 240.042969 C 494.253906 239.917969 494.257812 239.792969 494.257812 239.667969 C 494.269531 238.6875 494.3125 237.703125 494.414062 236.710938 C 494.910156 231.777344 501.664062 231.75 502.113281 236.710938 C 502.289062 238.621094 502.296875 240.519531 502.148438 242.421875 C 502.148438 242.421875 502.148438 242.425781 502.148438 242.425781 C 502.195312 242.875 502.261719 243.324219 502.332031 243.769531 C 502.382812 244.113281 502.429688 244.457031 502.496094 244.796875 C 502.5625 245.152344 502.652344 245.5 502.734375 245.851562 C 502.933594 246.71875 503.167969 247.570312 503.441406 248.414062 C 503.488281 248.554688 503.527344 248.691406 503.574219 248.832031 C 503.769531 249.402344 503.980469 249.964844 504.207031 250.527344 C 504.234375 250.589844 504.257812 250.65625 504.285156 250.722656 C 507.371094 258.269531 513.210938 264.824219 519.6875 269.832031 C 520.308594 270.3125 520.929688 270.78125 521.5625 271.230469 C 521.585938 271.25 521.609375 271.273438 521.636719 271.292969 C 523.277344 272.515625 524.058594 274.589844 522.941406 276.492188 C 521.976562 278.144531 519.445312 279.046875 517.75 277.914062 C 517.726562 277.898438 517.699219 277.890625 517.671875 277.875 C 517.574219 277.800781 517.476562 277.722656 517.375 277.648438 C 509.777344 272.152344 502.632812 264.828125 498.347656 256.304688 C 498.320312 256.359375 498.292969 256.414062 498.269531 256.464844 C 490.945312 271.609375 474.558594 282.339844 457.476562 281.597656 Z M 436.820312 229.828125 C 435.097656 226.253906 431.65625 223.277344 427.644531 222.675781 C 424.015625 222.132812 421.117188 224.125 419.5625 227.039062 C 415.921875 233.863281 418.628906 243.214844 422.050781 249.816406 C 424.617188 254.769531 428.222656 259.363281 432.523438 263.195312 C 433.085938 261.972656 433.621094 260.738281 434.109375 259.488281 C 435.925781 254.820312 437.3125 249.949219 438.125 245.003906 C 438.941406 240.050781 439.046875 234.453125 436.820312 229.828125 Z M 662.328125 375.726562 C 661.8125 373.851562 659.550781 372.316406 657.589844 373.039062 C 641.601562 378.945312 626.511719 387.011719 612.832031 397.1875 C 611.167969 398.425781 610.316406 400.515625 611.449219 402.449219 C 612.410156 404.085938 615.039062 405.074219 616.71875 403.828125 C 629.84375 394.066406 644.285156 386.128906 659.636719 380.457031 C 661.585938 379.738281 662.910156 377.851562 662.328125 375.726562 Z M 326.753906 460.757812 C 347.300781 454.363281 367.550781 447.046875 387.441406 438.835938 C 389.363281 438.042969 390.730469 436.285156 390.132812 434.105469 C 389.632812 432.289062 387.328125 430.621094 385.394531 431.417969 C 365.503906 439.628906 345.253906 446.945312 324.707031 453.339844 C 319.992188 454.808594 322.003906 462.238281 326.753906 460.757812 Z M 408.773438 622.480469 C 410.34375 624.046875 410.097656 626.316406 408.773438 627.917969 C 398.363281 640.507812 381.898438 645.289062 366.28125 647.261719 C 362.28125 647.769531 358.238281 648.148438 354.195312 648.222656 C 354.238281 648.734375 354.300781 649.242188 354.320312 649.757812 C 354.625 657.804688 351.226562 665.339844 347.164062 672.09375 C 342.914062 679.15625 337.703125 685.660156 331.777344 691.390625 C 328.214844 694.835938 322.765625 689.398438 326.332031 685.949219 C 331.976562 680.496094 336.867188 674.386719 340.863281 667.628906 C 344.410156 661.632812 347.355469 655.042969 346.484375 647.933594 C 344.9375 647.785156 343.398438 647.59375 341.867188 647.3125 C 334.4375 645.941406 327.527344 642.355469 322.085938 637.128906 C 317.222656 632.453125 311.230469 624.578125 313.390625 617.382812 C 314.503906 613.667969 317.730469 611.203125 321.542969 610.84375 C 324.921875 610.527344 328.410156 611.902344 331.246094 613.636719 C 337.398438 617.398438 342.738281 623.445312 346.855469 629.285156 C 349.285156 632.734375 351.269531 636.53125 352.59375 640.539062 C 353.117188 640.539062 353.640625 640.542969 354.164062 640.53125 C 360.425781 640.386719 366.722656 639.707031 372.863281 638.488281 C 384.390625 636.199219 395.667969 631.746094 403.328125 622.480469 C 404.660156 620.871094 407.410156 621.117188 408.773438 622.480469 Z M 344.136719 639.910156 C 342.8125 636.980469 341.078125 634.222656 339.140625 631.707031 C 337.175781 629.164062 334.941406 626.808594 332.605469 624.601562 C 330.558594 622.667969 328.476562 620.742188 325.929688 619.476562 C 325.007812 619.019531 323.792969 618.589844 322.945312 618.5 C 322.089844 618.410156 321.667969 618.40625 321.226562 618.839844 C 319.636719 620.410156 321.433594 623.574219 322.324219 625.105469 C 325.214844 630.070312 329.519531 634.078125 334.585938 636.769531 C 337.601562 638.371094 340.824219 639.351562 344.136719 639.910156 Z M 344.136719 639.910156 " fill-opacity="1" fill-rule="nonzero"/></svg>