<svg xmlns="http://www.w3.org/2000/svg" xmlns:xlink="http://www.w3.org/1999/xlink" width="1200" zoomAndPan="magnify" viewBox="0 0 900 899.99999" height="1200" preserveAspectRatio="xMidYMid meet" version="1.0"><defs><clipPath id="f40f37c4de"><path d="M 95.304688 90 L 820.230469 90 L 820.230469 816 L 95.304688 816 Z M 95.304688 90 " clip-rule="nonzero"/></clipPath><clipPath id="c6f57215d5"><path d="M 120.054688 90 L 795.457031 90 C 809.125 90 820.207031 101.082031 820.207031 114.75 L 820.207031 791.367188 C 820.207031 805.035156 809.125 816.117188 795.457031 816.117188 L 120.054688 816.117188 C 106.386719 816.117188 95.304688 805.035156 95.304688 791.367188 L 95.304688 114.75 C 95.304688 101.082031 106.386719 90 120.054688 90 Z M 120.054688 90 " clip-rule="nonzero"/></clipPath><clipPath id="a21e684df0"><path d="M 267 200.453125 L 649.3125 200.453125 L 649.3125 699.203125 L 267 699.203125 Z M 267 200.453125 " clip-rule="nonzero"/></clipPath><clipPath id="db7fd8cc12"><path d="M 377 227 L 578 227 L 578 699.203125 L 377 699.203125 Z M 377 227 " clip-rule="nonzero"/></clipPath></defs><g clip-path="url(#f40f37c4de)"><g clip-path="url(#c6f57215d5)"><path stroke-linecap="butt" transform="matrix(0.75, 0, 0, 0.75, 95.305584, 90.000015)" fill="none" stroke-linejoin="miter" d="M 32.998809 -0.0000203867 L 933.535372 -0.0000203867 C 951.759332 -0.0000203867 966.535376 14.776023 966.535376 32.999983 L 966.535376 935.156338 C 966.535376 953.380299 951.759332 968.156342 933.535372 968.156342 L 32.998809 968.156342 C 14.774848 968.156342 -0.00119508 953.380299 -0.00119508 935.156338 L -0.00119508 32.999983 C -0.00119508 14.776023 14.774848 -0.0000203867 32.998809 -0.0000203867 Z M 32.998809 -0.0000203867 " stroke="#4d3294" stroke-width="8" stroke-opacity="1" stroke-miterlimit="4"/></g></g><g clip-path="url(#a21e684df0)"><path fill="#f6cb48" d="M 498.242188 354.34375 C 498.242188 357.59375 498.242188 360.847656 498.242188 364.101562 C 498.242188 378.222656 498.242188 392.34375 498.242188 406.464844 C 498.242188 415.320312 498.242188 424.175781 498.242188 433.03125 C 498.242188 436.675781 492.582031 436.671875 492.582031 433.03125 C 492.582031 429.777344 492.582031 426.527344 492.582031 423.273438 C 492.582031 409.152344 492.582031 395.027344 492.582031 380.90625 C 492.582031 372.050781 492.582031 363.195312 492.582031 354.34375 C 492.582031 350.695312 498.242188 350.703125 498.242188 354.34375 Z M 471.582031 594.328125 C 468.1875 594.328125 464.789062 594.328125 461.394531 594.328125 C 452.746094 594.328125 444.101562 594.328125 435.457031 594.328125 C 424.046875 594.328125 412.632812 594.328125 401.222656 594.328125 C 389.351562 594.328125 377.480469 594.328125 365.609375 594.328125 C 355.792969 594.328125 345.976562 594.328125 336.15625 594.328125 C 330.714844 594.328125 325.273438 594.328125 319.832031 594.328125 C 317.042969 594.328125 314.410156 593.757812 312.546875 591.421875 C 311.242188 589.789062 310.875 587.871094 310.875 585.863281 C 310.875 582.90625 310.875 579.953125 310.875 576.996094 C 310.875 571.171875 310.875 565.347656 310.875 559.523438 C 310.875 551.328125 310.875 543.132812 310.875 534.9375 C 310.875 524.996094 310.875 515.054688 310.875 505.113281 C 310.875 493.9375 310.875 482.761719 310.875 471.585938 C 310.875 459.664062 310.875 447.746094 310.875 435.824219 C 310.875 423.820312 310.875 411.816406 310.875 399.8125 C 310.875 388.160156 310.875 376.507812 310.875 364.859375 C 310.875 354.21875 310.875 343.582031 310.875 332.941406 C 310.875 323.765625 310.875 314.589844 310.875 305.414062 C 310.875 298.335938 310.875 291.257812 310.875 284.179688 C 310.875 279.683594 310.875 275.1875 310.875 270.691406 C 310.875 267.75 310.515625 264.585938 312.363281 262.0625 C 315.472656 257.820312 321.5 258.921875 326.082031 258.921875 C 329.722656 258.921875 329.726562 253.265625 326.082031 253.265625 C 320.152344 253.265625 313.960938 252.554688 309.292969 257.03125 C 306.523438 259.6875 305.230469 263.34375 305.214844 267.121094 C 305.207031 269.875 305.214844 272.632812 305.214844 275.386719 C 305.214844 281.101562 305.214844 286.820312 305.214844 292.535156 C 305.214844 300.699219 305.214844 308.863281 305.214844 317.023438 C 305.214844 327.046875 305.214844 337.066406 305.214844 347.085938 C 305.214844 358.394531 305.214844 369.703125 305.214844 381.007812 C 305.214844 393.035156 305.214844 405.0625 305.214844 417.085938 C 305.214844 429.207031 305.214844 441.324219 305.214844 453.441406 C 305.214844 465.199219 305.214844 476.953125 305.214844 488.710938 C 305.214844 499.476562 305.214844 510.246094 305.214844 521.015625 C 305.214844 530.222656 305.214844 539.433594 305.214844 548.644531 C 305.214844 555.726562 305.214844 562.808594 305.214844 569.894531 C 305.214844 574.265625 305.214844 578.636719 305.214844 583.011719 C 305.214844 587.519531 305.328125 591.675781 308.542969 595.421875 C 312.949219 600.554688 319.164062 599.988281 325.152344 599.988281 C 333.007812 599.988281 340.859375 599.988281 348.710938 599.988281 C 359.925781 599.988281 371.140625 599.988281 382.359375 599.988281 C 394.390625 599.988281 406.421875 599.988281 418.453125 599.988281 C 428.925781 599.988281 439.402344 599.988281 449.878906 599.988281 C 456.246094 599.988281 462.617188 599.988281 468.984375 599.988281 C 469.851562 599.988281 470.71875 599.988281 471.582031 599.988281 C 475.222656 599.988281 475.230469 594.328125 471.582031 594.328125 Z M 478.386719 354.347656 C 478.386719 362.820312 478.386719 371.296875 478.386719 379.769531 C 478.386719 393.28125 478.386719 406.796875 478.386719 420.308594 C 478.386719 423.417969 478.386719 426.527344 478.386719 429.636719 C 478.386719 433.277344 484.046875 433.285156 484.046875 429.636719 C 484.046875 421.164062 484.046875 412.6875 484.046875 404.214844 C 484.046875 390.703125 484.046875 377.1875 484.046875 363.675781 C 484.046875 360.566406 484.046875 357.457031 484.046875 354.347656 C 484.046875 350.707031 478.386719 350.699219 478.386719 354.347656 Z M 325.070312 549.128906 C 325.070312 542.316406 325.070312 535.5 325.070312 528.6875 C 325.070312 520.285156 325.070312 511.882812 325.070312 503.480469 C 325.070312 493.871094 325.070312 484.261719 325.070312 474.652344 C 325.070312 464.332031 325.070312 454.011719 325.070312 443.691406 C 325.070312 433.125 325.070312 422.558594 325.070312 411.988281 C 325.070312 401.679688 325.070312 391.375 325.070312 381.066406 C 325.070312 371.382812 325.070312 361.699219 325.070312 352.011719 C 325.070312 343.460938 325.070312 334.910156 325.070312 326.359375 C 325.070312 319.402344 325.070312 312.445312 325.070312 305.488281 C 325.070312 300.589844 325.070312 295.691406 325.070312 290.789062 C 325.070312 288.414062 325.0625 286.035156 325.070312 283.660156 C 325.078125 281.011719 326.046875 278.792969 328.082031 277.035156 C 330.84375 274.65625 326.828125 270.667969 324.078125 273.035156 C 320.988281 275.703125 319.429688 279.511719 319.410156 283.550781 C 319.40625 284.363281 319.410156 285.171875 319.410156 285.980469 C 319.410156 289.632812 319.410156 293.28125 319.410156 296.929688 C 319.410156 302.929688 319.410156 308.933594 319.410156 314.9375 C 319.410156 322.765625 319.410156 330.597656 319.410156 338.425781 C 319.410156 347.683594 319.410156 356.941406 319.410156 366.203125 C 319.410156 376.328125 319.410156 386.460938 319.410156 396.589844 C 319.410156 407.210938 319.410156 417.835938 319.410156 428.457031 C 319.410156 439.003906 319.410156 449.550781 319.410156 460.097656 C 319.410156 470.195312 319.410156 480.292969 319.410156 490.390625 C 319.410156 499.472656 319.410156 508.554688 319.410156 517.636719 C 319.410156 525.320312 319.410156 533 319.410156 540.683594 C 319.410156 546.417969 319.410156 552.15625 319.410156 557.894531 C 319.410156 561.269531 319.410156 564.640625 319.410156 568.015625 C 319.410156 568.65625 319.402344 569.296875 319.410156 569.9375 C 319.472656 575.140625 322.367188 580.015625 327.167969 582.195312 C 331.050781 583.960938 335.730469 583.453125 339.902344 583.453125 C 347.042969 583.453125 354.183594 583.453125 361.328125 583.453125 C 371.246094 583.453125 381.167969 583.453125 391.085938 583.453125 C 401.59375 583.453125 412.101562 583.453125 422.609375 583.453125 C 431.691406 583.453125 440.777344 583.453125 449.859375 583.453125 C 455.339844 583.453125 460.820312 583.453125 466.296875 583.453125 C 467.050781 583.453125 467.804688 583.453125 468.558594 583.453125 C 472.199219 583.453125 472.203125 577.796875 468.558594 577.796875 C 465.601562 577.796875 462.644531 577.796875 459.683594 577.796875 C 452.183594 577.796875 444.683594 577.796875 437.183594 577.796875 C 427.25 577.796875 417.316406 577.796875 407.382812 577.796875 C 396.96875 577.796875 386.554688 577.796875 376.144531 577.796875 C 367.355469 577.796875 358.5625 577.796875 349.773438 577.796875 C 344.667969 577.796875 339.558594 577.796875 334.449219 577.796875 C 332.898438 577.796875 331.390625 577.851562 329.90625 577.25 C 326.832031 576.007812 325.085938 573.035156 325.066406 569.804688 C 325.054688 567.632812 325.066406 565.464844 325.066406 563.296875 C 325.070312 558.574219 325.070312 553.851562 325.070312 549.128906 Z M 339.921875 324.820312 C 339.910156 324.179688 339.921875 323.542969 339.921875 322.902344 C 339.921875 319.519531 339.921875 316.140625 339.921875 312.757812 C 339.921875 300.722656 339.921875 288.683594 339.921875 276.648438 C 339.921875 263.121094 339.921875 249.59375 339.921875 236.066406 C 339.921875 227.898438 339.921875 219.726562 339.921875 211.554688 C 339.921875 211.148438 339.914062 210.742188 339.921875 210.335938 C 340.058594 204.921875 344.289062 200.6875 349.703125 200.558594 C 350.785156 200.53125 351.867188 200.558594 352.949219 200.558594 C 360.226562 200.558594 367.507812 200.558594 374.785156 200.558594 C 386.6875 200.558594 398.589844 200.558594 410.496094 200.558594 C 424.34375 200.558594 438.1875 200.558594 452.035156 200.558594 C 465.253906 200.558594 478.472656 200.558594 491.6875 200.558594 C 501.691406 200.558594 511.699219 200.558594 521.703125 200.558594 C 525.808594 200.558594 529.929688 200.464844 534.035156 200.558594 C 538.777344 200.664062 542.972656 204.03125 543.683594 208.800781 C 543.816406 209.6875 543.828125 210.515625 543.828125 211.398438 C 543.828125 214.285156 543.828125 217.171875 543.828125 220.058594 C 543.828125 231.605469 543.828125 243.152344 543.828125 254.699219 C 543.828125 268.410156 543.828125 282.125 543.828125 295.835938 C 543.828125 304.75 543.828125 313.664062 543.828125 322.578125 C 543.828125 323.277344 543.835938 323.980469 543.828125 324.679688 C 543.796875 328.210938 542.042969 331.542969 538.9375 333.328125 C 535.871094 335.089844 531.992188 334.640625 528.582031 334.644531 C 516.101562 334.65625 503.625 334.667969 491.148438 334.683594 C 483.371094 334.691406 475.59375 334.699219 467.816406 334.707031 C 467.085938 336.679688 466.351562 338.652344 465.617188 340.628906 C 461.320312 352.195312 457.023438 363.761719 452.726562 375.324219 C 450.019531 382.613281 447.3125 389.902344 444.605469 397.191406 C 443.609375 399.867188 440.140625 399.863281 439.148438 397.191406 C 438.160156 394.523438 437.167969 391.859375 436.179688 389.195312 C 431.878906 377.628906 427.582031 366.0625 423.285156 354.496094 C 420.835938 347.902344 418.386719 341.304688 415.933594 334.710938 C 414.246094 334.710938 412.558594 334.710938 410.871094 334.710938 C 398.097656 334.710938 385.320312 334.710938 372.542969 334.710938 C 366.921875 334.710938 361.296875 334.710938 355.675781 334.710938 C 352.445312 334.710938 348.667969 335.15625 345.65625 333.8125 C 342.089844 332.222656 339.996094 328.660156 339.921875 324.820312 Z M 348.175781 328.777344 C 349.105469 329.136719 350.132812 329.050781 351.117188 329.050781 C 352.75 329.050781 354.382812 329.050781 356.015625 329.050781 C 368.441406 329.050781 380.863281 329.050781 393.289062 329.050781 C 401.492188 329.050781 409.691406 329.050781 417.890625 329.050781 C 419.214844 329.050781 420.179688 329.945312 420.617188 331.128906 C 421.609375 333.792969 422.597656 336.460938 423.589844 339.125 C 427.886719 350.691406 432.183594 362.257812 436.480469 373.820312 C 438.277344 378.664062 440.078125 383.503906 441.875 388.34375 C 441.957031 388.125 442.039062 387.910156 442.117188 387.691406 C 446.414062 376.125 450.710938 364.558594 455.011719 352.992188 C 457.71875 345.703125 460.425781 338.417969 463.132812 331.128906 C 463.21875 330.894531 463.339844 330.675781 463.46875 330.46875 C 463.820312 329.773438 464.460938 329.242188 465.382812 329.101562 C 465.492188 329.082031 465.601562 329.074219 465.714844 329.066406 C 465.765625 329.0625 465.808594 329.050781 465.859375 329.050781 C 468.140625 329.050781 470.421875 329.046875 472.703125 329.046875 C 485.226562 329.03125 497.746094 329.019531 510.269531 329.003906 C 515.949219 329 521.628906 328.992188 527.304688 328.988281 C 528.992188 328.984375 530.679688 328.984375 532.367188 328.980469 C 533.167969 328.980469 534.066406 329.066406 534.84375 328.910156 C 538.289062 328.210938 538.171875 325.046875 538.171875 322.355469 C 538.171875 318.890625 538.171875 315.421875 538.171875 311.957031 C 538.171875 299.988281 538.171875 288.015625 538.171875 276.046875 C 538.171875 262.753906 538.171875 249.464844 538.171875 236.171875 C 538.171875 228.035156 538.171875 219.894531 538.171875 211.757812 C 538.171875 211.289062 538.1875 210.816406 538.171875 210.347656 C 538.085938 208.007812 536.339844 206.269531 533.992188 206.214844 C 532.746094 206.1875 531.496094 206.214844 530.25 206.214844 C 522.886719 206.214844 515.523438 206.214844 508.15625 206.214844 C 496.390625 206.214844 484.625 206.214844 472.855469 206.214844 C 459.191406 206.214844 445.523438 206.214844 431.855469 206.214844 C 418.835938 206.214844 405.8125 206.214844 392.792969 206.214844 C 382.824219 206.214844 372.855469 206.214844 362.890625 206.214844 C 358.53125 206.214844 354.152344 206.082031 349.796875 206.214844 C 347.445312 206.289062 345.671875 207.957031 345.582031 210.335938 C 345.566406 210.765625 345.582031 211.195312 345.582031 211.621094 C 345.582031 214.546875 345.582031 217.472656 345.582031 220.398438 C 345.582031 231.84375 345.582031 243.285156 345.582031 254.726562 C 345.582031 268.199219 345.582031 281.667969 345.582031 295.136719 C 345.582031 304.15625 345.582031 313.175781 345.582031 322.195312 C 345.582031 324.691406 345.269531 327.644531 348.175781 328.777344 Z M 648.273438 670.292969 C 630.867188 649.949219 615.734375 627.511719 603.660156 603.597656 C 602.070312 600.457031 600.539062 597.285156 599.089844 594.078125 C 598.621094 593.042969 598.160156 592 597.710938 590.953125 C 597.644531 590.804688 597.582031 590.652344 597.515625 590.503906 C 597.40625 590.238281 597.292969 589.972656 597.1875 589.707031 C 597.140625 589.585938 597.078125 589.460938 597.035156 589.335938 C 597.105469 589.332031 597.117188 588.472656 597.125 588.3125 C 597.253906 584.453125 597.371094 580.589844 597.472656 576.730469 C 597.667969 569.25 597.800781 561.769531 597.808594 554.292969 C 597.839844 526.800781 596.257812 499.007812 589.332031 472.296875 C 586.015625 459.507812 581.4375 447.042969 575.59375 435.191406 C 569.449219 422.730469 562.039062 410.839844 552.390625 400.78125 C 544.921875 392.992188 536.265625 386.253906 526.851562 380.976562 C 521.964844 378.238281 516.8125 375.769531 511.46875 374.050781 C 511.226562 373.972656 510.984375 373.894531 510.738281 373.828125 C 507.226562 372.835938 505.730469 378.292969 509.234375 379.28125 C 510.226562 379.5625 511.203125 379.917969 512.167969 380.277344 C 512.660156 380.460938 513.152344 380.652344 513.640625 380.84375 C 513.933594 380.960938 514.226562 381.082031 514.515625 381.199219 C 514.628906 381.246094 514.738281 381.292969 514.851562 381.339844 C 514.878906 381.347656 514.882812 381.351562 514.898438 381.359375 C 514.941406 381.375 514.980469 381.394531 515.050781 381.425781 C 516.546875 382.078125 518.03125 382.757812 519.492188 383.484375 C 528.007812 387.703125 535.925781 393.125 542.964844 399.507812 C 552.917969 408.53125 560.628906 419.289062 567.058594 431.03125 C 573.4375 442.683594 578.476562 455 582.203125 467.746094 C 589.757812 493.570312 591.855469 520.550781 592.121094 547.34375 C 592.195312 554.726562 592.128906 562.105469 591.980469 569.488281 C 591.90625 573.296875 591.808594 577.101562 591.699219 580.910156 C 591.648438 582.667969 591.59375 584.429688 591.535156 586.1875 C 591.492188 587.554688 591.144531 589.347656 591.519531 590.6875 C 591.871094 591.917969 592.523438 593.121094 593.03125 594.289062 C 594.167969 596.90625 595.367188 599.496094 596.605469 602.066406 C 607.367188 624.371094 620.960938 645.34375 636.359375 664.710938 C 638.9375 667.953125 641.578125 671.144531 644.273438 674.292969 C 645.265625 675.457031 647.253906 675.316406 648.273438 674.292969 C 649.425781 673.144531 649.269531 671.457031 648.273438 670.292969 Z M 577.578125 615.519531 C 577.816406 620.6875 575.804688 626.097656 572.679688 630.152344 C 569.242188 634.621094 564.40625 637.636719 559.113281 639.460938 C 546.910156 643.660156 533.058594 641.484375 521.425781 636.457031 C 519.175781 641.085938 517.6875 646.085938 517.238281 651.105469 C 516.929688 654.542969 517.074219 657.996094 517.210938 661.4375 C 517.386719 665.78125 517.671875 670.121094 518.085938 674.449219 C 518.769531 681.582031 519.820312 688.671875 521.277344 695.6875 C 521.589844 697.1875 520.855469 698.738281 519.304688 699.167969 C 517.898438 699.554688 516.132812 698.6875 515.824219 697.191406 C 515.03125 693.375 514.351562 689.539062 513.789062 685.683594 C 512.351562 675.824219 511.511719 665.851562 511.394531 655.890625 C 511.324219 649.699219 512.40625 643.445312 514.6875 637.683594 C 515.1875 636.425781 515.738281 635.195312 516.328125 633.988281 C 505.328125 628.039062 495.984375 618.808594 490.757812 607.402344 C 485.191406 595.261719 483.089844 581.777344 482.300781 568.539062 C 481.589844 556.582031 482.035156 544.558594 483.214844 532.648438 C 483.714844 527.613281 484.304688 522.5625 485.160156 517.570312 C 485.054688 517.4375 484.953125 517.300781 484.859375 517.160156 C 485.527344 518.15625 484.777344 517.066406 484.554688 516.800781 C 483.84375 515.957031 483.085938 515.152344 482.300781 514.378906 C 479.621094 511.722656 477.320312 509.933594 474.445312 507.933594 C 469.710938 504.636719 464.65625 501.808594 459.476562 499.277344 C 452.71875 495.972656 445.707031 493.0625 438.484375 490.925781 C 431.953125 488.996094 425.246094 487.6875 418.496094 486.785156 C 412.980469 486.046875 407.429688 485.597656 401.910156 484.878906 C 393.765625 483.820312 384.050781 482.171875 379.878906 474.101562 C 377.925781 470.324219 377.226562 465.972656 377.964844 461.785156 C 378.636719 457.96875 380.710938 454.515625 383.3125 451.691406 C 390.042969 444.386719 400.339844 440.667969 409.769531 438.453125 C 423.277344 435.277344 437.433594 434.828125 451.21875 436.011719 C 464.550781 437.15625 477.53125 440.25 489.828125 445.550781 C 498.253906 449.183594 506.195312 453.855469 513.4375 459.496094 C 516.171875 461.625 518.9375 463.878906 521.265625 466.46875 C 523.695312 469.171875 519.703125 473.183594 517.265625 470.46875 C 516.535156 469.65625 515.734375 468.902344 514.9375 468.15625 C 513.964844 467.25 512.960938 466.367188 511.9375 465.511719 C 511.308594 464.984375 510.667969 464.464844 510.023438 463.957031 C 509.859375 463.828125 509.699219 463.699219 509.535156 463.570312 C 509.46875 463.523438 509.378906 463.453125 509.308594 463.398438 C 508.941406 463.121094 508.574219 462.84375 508.203125 462.570312 C 504.363281 459.730469 500.316406 457.175781 496.125 454.890625 C 484.3125 448.453125 471.332031 444.335938 458.023438 442.421875 C 442.941406 440.25 426.9375 440.363281 412.039062 443.730469 C 406.226562 445.042969 400.601562 446.828125 395.464844 449.609375 C 394.316406 450.226562 393.199219 450.894531 392.113281 451.621094 C 390.984375 452.375 390.511719 452.726562 389.667969 453.441406 C 388.808594 454.171875 387.988281 454.953125 387.226562 455.785156 C 387.03125 456 386.835938 456.21875 386.648438 456.441406 C 386.605469 456.496094 386.417969 456.722656 386.335938 456.824219 C 386.257812 456.929688 386.085938 457.15625 386.046875 457.214844 C 385.90625 457.410156 385.773438 457.605469 385.640625 457.804688 C 385.136719 458.566406 384.699219 459.367188 384.316406 460.195312 C 384.265625 460.3125 384.152344 460.585938 384.109375 460.707031 C 384.03125 460.914062 383.960938 461.128906 383.894531 461.34375 C 383.757812 461.765625 383.644531 462.199219 383.546875 462.636719 C 383.492188 462.890625 383.449219 463.144531 383.402344 463.402344 C 383.394531 463.433594 383.394531 463.429688 383.394531 463.410156 C 383.390625 463.445312 383.386719 463.480469 383.382812 463.535156 C 383.351562 463.984375 383.3125 464.429688 383.308594 464.882812 C 383.300781 465.417969 383.335938 465.949219 383.371094 466.484375 C 383.375 466.554688 383.378906 466.609375 383.382812 466.648438 C 383.382812 466.652344 383.382812 466.652344 383.382812 466.660156 C 383.421875 466.894531 383.460938 467.128906 383.507812 467.363281 C 383.710938 468.414062 384.007812 469.445312 384.390625 470.445312 C 384.441406 470.554688 384.558594 470.828125 384.601562 470.917969 C 384.707031 471.136719 384.816406 471.351562 384.933594 471.566406 C 385.183594 472.015625 385.460938 472.441406 385.75 472.867188 C 385.792969 472.929688 385.808594 472.960938 385.820312 472.980469 C 385.847656 473.007812 385.882812 473.050781 385.941406 473.113281 C 386.089844 473.285156 386.238281 473.460938 386.394531 473.625 C 386.703125 473.957031 387.03125 474.273438 387.375 474.574219 C 387.472656 474.65625 387.71875 474.847656 387.765625 474.890625 C 387.898438 474.984375 388.027344 475.082031 388.164062 475.175781 C 388.585938 475.457031 389.019531 475.722656 389.464844 475.964844 C 389.921875 476.21875 390.394531 476.445312 390.871094 476.660156 C 390.917969 476.683594 390.945312 476.695312 390.972656 476.707031 C 391.003906 476.71875 391.046875 476.734375 391.113281 476.761719 C 391.351562 476.851562 391.589844 476.941406 391.828125 477.027344 C 392.878906 477.402344 393.953125 477.710938 395.035156 477.980469 C 396.261719 478.28125 397.503906 478.527344 398.75 478.742188 C 399.984375 478.953125 401.28125 479.140625 402.238281 479.261719 C 408.726562 480.09375 415.246094 480.628906 421.722656 481.570312 C 437.894531 483.917969 453.332031 489.328125 467.675781 497.144531 C 475.179688 501.234375 482.9375 506.15625 488.515625 512.757812 C 489.734375 514.199219 491.164062 515.640625 490.847656 517.664062 C 490.675781 518.761719 490.480469 519.851562 490.316406 520.949219 C 490.230469 521.511719 490.148438 522.078125 490.066406 522.644531 C 490.019531 522.980469 489.96875 523.316406 489.925781 523.652344 C 489.902344 523.824219 489.878906 523.996094 489.855469 524.164062 C 489.640625 525.839844 489.425781 527.519531 489.238281 529.199219 C 488.757812 533.460938 488.382812 537.734375 488.113281 542.011719 C 487.429688 552.851562 487.382812 563.765625 488.429688 574.578125 C 489.4375 585.003906 491.667969 596.410156 496.234375 605.800781 C 498.679688 610.828125 501.496094 614.796875 505.292969 618.65625 C 509.363281 622.792969 514.019531 626.273438 519.105469 629.050781 C 523.488281 622.128906 529.433594 616.25 536.332031 611.714844 C 543.941406 606.710938 553.375 602.773438 562.636719 603.023438 C 566.160156 603.117188 569.867188 603.878906 572.742188 606.023438 C 575.8125 608.316406 577.402344 611.71875 577.578125 615.519531 Z M 571.878906 614.882812 C 571.859375 614.613281 571.847656 614.667969 571.878906 614.882812 Z M 569.542969 610.65625 C 569.71875 610.792969 569.847656 610.851562 569.550781 610.660156 C 569.546875 610.65625 569.546875 610.65625 569.542969 610.65625 Z M 564.6875 630.265625 C 564.585938 630.34375 564.386719 630.507812 564.6875 630.265625 Z M 571.933594 616.03125 C 571.933594 615.667969 571.902344 615.304688 571.882812 614.9375 C 571.878906 614.914062 571.878906 614.910156 571.878906 614.890625 C 571.863281 614.789062 571.847656 614.683594 571.824219 614.582031 C 571.75 614.238281 571.671875 613.890625 571.566406 613.550781 C 571.519531 613.390625 571.417969 613.15625 571.367188 613.03125 C 571.132812 612.59375 570.890625 612.171875 570.644531 611.742188 C 570.554688 611.652344 570.476562 611.546875 570.386719 611.453125 C 570.199219 611.25 570 611.0625 569.796875 610.871094 C 569.714844 610.792969 569.625 610.722656 569.539062 610.652344 C 569.304688 610.5 569.074219 610.335938 568.832031 610.191406 C 568.535156 610.019531 568.230469 609.875 567.925781 609.714844 C 567.898438 609.699219 567.894531 609.699219 567.871094 609.6875 C 567.792969 609.65625 567.710938 609.621094 567.632812 609.59375 C 567.007812 609.375 566.382812 609.183594 565.738281 609.035156 C 565.386719 608.957031 565.035156 608.898438 564.683594 608.832031 C 564.65625 608.828125 564.648438 608.828125 564.625 608.824219 C 564.46875 608.808594 564.3125 608.785156 564.15625 608.773438 C 562.578125 608.621094 560.984375 608.648438 559.40625 608.792969 C 559.175781 608.8125 558.945312 608.839844 558.710938 608.863281 C 558.664062 608.867188 558.507812 608.886719 558.390625 608.902344 C 558.265625 608.921875 558.101562 608.945312 558.050781 608.953125 C 557.84375 608.988281 557.640625 609.019531 557.433594 609.054688 C 556.554688 609.207031 555.683594 609.390625 554.816406 609.605469 C 552.929688 610.0625 551.078125 610.652344 549.265625 611.347656 C 549.007812 611.445312 548.75 611.546875 548.492188 611.648438 C 548.414062 611.679688 548.082031 611.816406 547.941406 611.875 C 547.820312 611.925781 547.5625 612.039062 547.5 612.066406 C 547.277344 612.164062 547.054688 612.261719 546.832031 612.363281 C 545.890625 612.792969 544.960938 613.25 544.046875 613.730469 C 542.109375 614.75 540.234375 615.878906 538.429688 617.105469 C 536.367188 618.507812 535.292969 619.335938 533.417969 620.976562 C 531.667969 622.507812 530.015625 624.144531 528.472656 625.878906 C 526.917969 627.628906 525.484375 629.523438 524.191406 631.527344 C 528.242188 633.25 532.496094 634.507812 536.863281 635.269531 C 539.308594 635.695312 541.929688 635.9375 544.65625 635.964844 C 545.945312 635.976562 547.238281 635.941406 548.527344 635.847656 C 549.179688 635.800781 549.832031 635.734375 550.484375 635.660156 C 550.652344 635.640625 550.695312 635.636719 550.703125 635.636719 C 550.722656 635.636719 550.773438 635.628906 550.914062 635.605469 C 551.253906 635.554688 551.59375 635.5 551.933594 635.441406 C 554.316406 635.03125 556.652344 634.402344 558.90625 633.527344 C 559.042969 633.472656 559.183594 633.417969 559.320312 633.359375 C 559.335938 633.351562 559.335938 633.351562 559.363281 633.339844 C 559.609375 633.230469 559.855469 633.121094 560.101562 633.003906 C 560.582031 632.777344 561.058594 632.535156 561.527344 632.28125 C 562.488281 631.761719 563.40625 631.179688 564.296875 630.550781 C 564.433594 630.453125 564.566406 630.355469 564.699219 630.253906 C 564.71875 630.242188 564.726562 630.230469 564.746094 630.21875 C 564.945312 630.054688 565.140625 629.894531 565.335938 629.726562 C 565.722656 629.398438 566.09375 629.054688 566.457031 628.699219 C 566.847656 628.316406 567.222656 627.917969 567.582031 627.507812 C 567.75 627.316406 567.910156 627.125 568.070312 626.929688 C 568.117188 626.875 568.164062 626.8125 568.210938 626.753906 C 568.222656 626.738281 568.222656 626.738281 568.246094 626.707031 C 568.890625 625.820312 569.476562 624.894531 569.976562 623.914062 C 570.113281 623.648438 570.246094 623.382812 570.371094 623.109375 C 570.40625 623.039062 570.480469 622.855469 570.527344 622.753906 C 570.707031 622.292969 570.878906 621.828125 571.027344 621.359375 C 571.382812 620.238281 571.636719 619.089844 571.824219 617.929688 C 571.835938 617.863281 571.84375 617.824219 571.847656 617.792969 C 571.851562 617.757812 571.851562 617.71875 571.855469 617.652344 C 571.867188 617.46875 571.890625 617.285156 571.902344 617.097656 C 571.925781 616.746094 571.9375 616.390625 571.933594 616.03125 Z M 467.03125 616.855469 C 464.359375 625.226562 461.683594 633.597656 459.011719 641.972656 C 450.941406 634.597656 442.875 627.222656 434.804688 619.847656 C 433.5 618.65625 432.199219 617.46875 430.898438 616.277344 C 429.296875 614.816406 426.832031 615.453125 426.167969 617.527344 C 426.136719 617.625 426.105469 617.722656 426.074219 617.824219 C 426.058594 617.875 426.039062 617.921875 426.023438 617.976562 C 423.394531 626.207031 420.769531 634.441406 418.140625 642.671875 C 410.054688 635.386719 401.972656 628.097656 393.890625 620.808594 C 392.574219 619.621094 391.253906 618.433594 389.9375 617.246094 C 388.332031 615.796875 385.875 616.410156 385.210938 618.492188 C 382.535156 626.871094 379.859375 635.25 377.1875 643.628906 C 369.113281 636.304688 361.042969 628.980469 352.96875 621.660156 C 351.652344 620.464844 350.339844 619.273438 349.023438 618.078125 C 346.332031 615.636719 342.320312 619.628906 345.023438 622.078125 C 354.214844 630.417969 363.40625 638.757812 372.597656 647.09375 C 373.910156 648.289062 375.226562 649.480469 376.542969 650.671875 C 378.144531 652.128906 380.605469 651.503906 381.269531 649.425781 C 383.945312 641.042969 386.625 632.660156 389.300781 624.277344 C 397.382812 631.566406 405.464844 638.855469 413.546875 646.144531 C 414.867188 647.332031 416.183594 648.519531 417.5 649.707031 C 419.105469 651.15625 421.5625 650.542969 422.226562 648.457031 C 424.886719 640.132812 427.542969 631.8125 430.199219 623.488281 C 438.273438 630.8125 446.34375 638.132812 454.417969 645.457031 C 455.730469 646.648438 457.046875 647.84375 458.363281 649.035156 C 459.226562 649.824219 460.332031 649.984375 461.28125 649.65625 C 462.089844 649.378906 462.785156 648.746094 463.089844 647.789062 C 465.835938 639.1875 468.582031 630.589844 471.328125 621.992188 C 471.714844 620.78125 472.101562 619.570312 472.488281 618.359375 C 473.597656 614.882812 468.136719 613.394531 467.03125 616.855469 Z M 281.574219 291.085938 C 283.875 289.28125 285.839844 287.160156 286.929688 284.40625 C 287.5 282.964844 287.734375 281.414062 287.753906 279.867188 C 287.808594 276.226562 282.148438 276.222656 282.097656 279.867188 C 282.078125 281.113281 281.863281 282.132812 281.410156 282.96875 C 280.726562 284.238281 280.394531 284.609375 279.265625 285.660156 C 277.417969 287.378906 275.203125 288.714844 272.964844 290.539062 C 270.742188 292.351562 268.902344 294.566406 267.957031 297.304688 C 266.882812 300.414062 267.207031 303.96875 268.605469 306.914062 C 269.867188 309.5625 272.128906 311.5 274.414062 313.238281 C 276.671875 314.957031 278.355469 315.890625 280.222656 317.953125 C 280.714844 318.496094 281.519531 319.730469 281.714844 320.398438 C 281.929688 321.128906 282.039062 321.542969 282.066406 321.972656 C 282.089844 322.351562 282.105469 322.726562 282.09375 323.105469 C 282.085938 323.304688 281.984375 324.199219 282.035156 323.898438 C 281.953125 324.375 281.675781 325.316406 281.613281 325.472656 C 281.507812 325.726562 281.03125 326.5625 280.707031 327.027344 C 280.703125 327.03125 280.660156 327.089844 280.617188 327.144531 C 280.554688 327.21875 280.425781 327.375 280.398438 327.402344 C 280.1875 327.636719 279.976562 327.871094 279.753906 328.097656 C 279.304688 328.550781 278.824219 328.976562 278.332031 329.386719 C 277.539062 330.042969 276.570312 330.722656 275.429688 331.558594 C 274.261719 332.414062 273.09375 333.28125 272.019531 334.253906 C 269.878906 336.191406 268.117188 338.722656 267.59375 341.605469 C 267.007812 344.824219 267.460938 348.226562 269.265625 351 C 270.878906 353.480469 273.1875 355.261719 275.542969 356.984375 C 276.640625 357.789062 277.582031 358.453125 278.332031 359.078125 C 278.824219 359.488281 279.304688 359.914062 279.753906 360.367188 C 279.945312 360.558594 280.128906 360.757812 280.3125 360.957031 C 280.421875 361.082031 280.53125 361.210938 280.636719 361.339844 C 280.660156 361.367188 280.683594 361.402344 280.707031 361.4375 C 282.171875 363.558594 282.429688 365.585938 281.714844 368.066406 C 281.558594 368.613281 281.722656 368.164062 281.535156 368.542969 C 281.390625 368.824219 281.242188 369.101562 281.078125 369.371094 C 280.933594 369.605469 280.777344 369.835938 280.613281 370.054688 C 280.566406 370.097656 280.191406 370.546875 280.128906 370.609375 C 279.730469 371.046875 279.300781 371.453125 278.859375 371.84375 C 278.617188 372.058594 278.367188 372.261719 278.117188 372.46875 C 278.011719 372.558594 277.902344 372.640625 277.792969 372.730469 C 277.753906 372.761719 277.738281 372.773438 277.730469 372.78125 C 277.707031 372.796875 277.667969 372.828125 277.589844 372.882812 C 275.367188 374.554688 272.960938 376.078125 271.046875 378.113281 C 266.539062 382.910156 266.117188 390.078125 270.253906 395.246094 C 271.996094 397.421875 274.339844 399.011719 276.570312 400.644531 C 278.375 401.960938 280.355469 403.535156 281.410156 405.496094 C 281.863281 406.335938 282.078125 407.367188 282.097656 408.59375 C 282.148438 412.234375 287.808594 412.242188 287.753906 408.59375 C 287.707031 405.320312 286.539062 402.429688 284.402344 399.96875 C 282.570312 397.863281 280.167969 396.324219 277.945312 394.675781 C 277.285156 394.1875 277.4375 394.3125 276.859375 393.835938 C 276.328125 393.398438 275.8125 392.945312 275.328125 392.457031 C 275.105469 392.234375 274.898438 391.996094 274.683594 391.765625 C 274.292969 391.34375 274.625 391.746094 274.378906 391.386719 C 274.042969 390.902344 273.730469 390.394531 273.488281 389.855469 C 273.472656 389.789062 273.3125 389.34375 273.285156 389.25 C 273.195312 388.957031 273.128906 388.65625 273.070312 388.351562 C 273.074219 388.308594 273.003906 387.726562 273 387.628906 C 272.980469 387.195312 272.988281 386.765625 273.015625 386.332031 C 273.078125 385.359375 273.40625 384.433594 274.007812 383.453125 C 275.101562 381.667969 277.21875 380.128906 279.082031 378.769531 C 281.457031 377.042969 283.785156 375.308594 285.511719 372.898438 C 289.277344 367.648438 288.027344 360.53125 283.5625 356.175781 C 282.496094 355.136719 281.300781 354.234375 280.105469 353.347656 C 279.617188 352.980469 279.121094 352.625 278.625 352.265625 C 278.359375 352.070312 278.09375 351.878906 277.832031 351.679688 C 277.679688 351.570312 277.53125 351.457031 277.382812 351.34375 C 277.359375 351.328125 277.347656 351.320312 277.332031 351.308594 C 277.320312 351.296875 277.3125 351.289062 277.289062 351.273438 C 276.289062 350.480469 275.3125 349.625 274.5 348.636719 C 274.449219 348.5625 274.269531 348.328125 274.222656 348.257812 C 274.050781 347.992188 273.886719 347.726562 273.738281 347.449219 C 273.386719 346.800781 273.398438 346.859375 273.167969 345.925781 C 272.953125 345.046875 272.949219 343.425781 273.167969 342.535156 C 273.25 342.210938 273.347656 341.898438 273.460938 341.585938 C 273.472656 341.550781 273.472656 341.546875 273.480469 341.523438 C 273.539062 341.390625 273.605469 341.257812 273.671875 341.128906 C 273.820312 340.851562 273.980469 340.582031 274.152344 340.316406 C 274.222656 340.203125 274.300781 340.09375 274.375 339.980469 C 274.410156 339.933594 274.433594 339.898438 274.453125 339.871094 C 274.457031 339.871094 274.46875 339.855469 274.507812 339.8125 C 276.339844 337.636719 277.996094 336.691406 280.21875 335.03125 C 282.496094 333.332031 284.753906 331.496094 286.167969 328.972656 C 287.765625 326.109375 288.164062 322.609375 287.332031 319.4375 C 286.589844 316.605469 284.746094 314.21875 282.546875 312.347656 C 281.4375 311.40625 280.257812 310.546875 279.082031 309.691406 C 277.820312 308.769531 277.273438 308.40625 276.226562 307.480469 C 275.179688 306.558594 274.539062 305.875 274.007812 305.011719 C 273.84375 304.742188 273.691406 304.464844 273.550781 304.179688 C 273.363281 303.800781 273.535156 304.273438 273.367188 303.703125 C 273.152344 302.960938 273.046875 302.597656 273.015625 302.128906 C 272.847656 299.441406 273.585938 297.761719 275.328125 296.003906 C 277.246094 294.070312 279.234375 292.921875 281.574219 291.085938 Z M 536.105469 351.546875 C 538.722656 349.324219 542.628906 348.269531 546.042969 348.507812 C 550.253906 348.796875 553.945312 351.335938 557.167969 353.851562 C 557.929688 354.445312 558.660156 355.082031 559.398438 355.710938 C 561.679688 352.0625 563.082031 347.847656 564.007812 343.664062 C 565.679688 336.128906 565.933594 328.253906 565.914062 320.5625 C 565.890625 311.582031 565.140625 302.613281 563.636719 293.761719 C 563.378906 292.25 564.015625 290.71875 565.613281 290.28125 C 566.980469 289.90625 568.835938 290.75 569.09375 292.257812 C 569.515625 294.757812 569.886719 297.269531 570.210938 299.785156 C 571.460938 309.484375 571.851562 319.292969 571.375 329.058594 C 571 336.839844 570.214844 344.820312 567.402344 352.144531 C 566.417969 354.710938 565.167969 357.238281 563.625 359.558594 C 570 365.835938 575.5 373.171875 580.613281 380.347656 C 587.046875 389.378906 593.277344 398.941406 597.46875 409.253906 C 598.050781 410.675781 596.835938 412.363281 595.496094 412.734375 C 593.898438 413.171875 592.589844 412.171875 592.015625 410.757812 C 591.980469 410.671875 591.777344 410.195312 591.769531 410.171875 C 591.710938 410.039062 591.65625 409.90625 591.59375 409.773438 C 591.367188 409.253906 591.128906 408.738281 590.886719 408.226562 C 590.359375 407.105469 589.808594 405.996094 589.238281 404.898438 C 587.984375 402.488281 586.648438 400.121094 585.257812 397.785156 C 582.019531 392.328125 578.503906 387.03125 574.785156 381.890625 C 570.3125 375.707031 565.496094 369.472656 560.023438 363.988281 C 558.164062 365.847656 556.023438 367.417969 553.570312 368.535156 C 549.714844 370.296875 545.128906 371.125 541.027344 369.664062 C 537.320312 368.347656 534.503906 365.484375 533.441406 361.660156 C 532.457031 358.121094 533.214844 353.996094 536.105469 351.546875 Z M 539.886719 362.226562 C 541.589844 364.578125 544.984375 365.125 547.761719 364.554688 C 550.855469 363.917969 553.609375 362.308594 555.875 360.132812 C 555.875 360.128906 555.878906 360.128906 555.878906 360.125 C 555.183594 359.519531 554.492188 358.910156 553.773438 358.332031 C 553.714844 358.285156 553.21875 357.902344 553.199219 357.882812 C 553.046875 357.765625 552.894531 357.652344 552.742188 357.539062 C 552.355469 357.257812 551.964844 356.980469 551.566406 356.714844 C 550.835938 356.222656 550.085938 355.761719 549.308594 355.347656 C 548.980469 355.171875 548.644531 355.011719 548.308594 354.855469 C 548.238281 354.835938 547.671875 354.59375 547.527344 354.546875 C 547.230469 354.445312 546.925781 354.355469 546.621094 354.28125 C 546.445312 354.238281 545.988281 354.195312 545.9375 354.183594 C 543.710938 354.121094 540.828125 354.402344 539.390625 356.234375 C 538.140625 357.832031 538.570312 360.410156 539.886719 362.226562 Z M 459.855469 378.078125 C 459.855469 391.253906 459.855469 404.433594 459.855469 417.609375 C 459.855469 419.488281 459.855469 421.367188 459.855469 423.246094 C 459.855469 426.886719 465.515625 426.890625 465.515625 423.246094 C 465.515625 410.066406 465.515625 396.890625 465.515625 383.714844 C 465.515625 381.835938 465.515625 379.957031 465.515625 378.078125 C 465.515625 374.4375 459.855469 374.429688 459.855469 378.078125 Z M 352.5625 477.304688 C 356.210938 477.835938 360.066406 477.503906 363.738281 477.503906 C 364.886719 477.503906 366.03125 477.503906 367.175781 477.503906 C 370.816406 477.503906 370.824219 471.847656 367.175781 471.847656 C 363.902344 471.847656 360.628906 471.847656 357.355469 471.847656 C 356.15625 471.847656 354.878906 471.941406 353.683594 471.796875 C 351.1875 471.488281 348.816406 470.136719 347.257812 468.175781 C 344.664062 464.910156 345.179688 460.65625 345.179688 456.765625 C 345.179688 442.207031 345.179688 427.652344 345.179688 413.097656 C 345.179688 399.042969 345.179688 384.992188 345.179688 370.9375 C 345.179688 369.679688 345.175781 368.417969 345.179688 367.15625 C 345.195312 363.699219 346.777344 360.460938 349.773438 358.625 C 351.90625 357.316406 354.15625 357.171875 356.550781 357.171875 C 359.144531 357.171875 361.738281 357.171875 364.332031 357.171875 C 378.683594 357.171875 393.039062 357.171875 407.394531 357.171875 C 407.726562 357.171875 408.058594 357.171875 408.390625 357.171875 C 412.03125 357.171875 412.039062 351.511719 408.390625 351.511719 C 395.125 351.511719 381.859375 351.511719 368.589844 351.511719 C 363.898438 351.511719 359.179688 351.367188 354.488281 351.519531 C 347.847656 351.738281 341.941406 356.257812 340.105469 362.671875 C 339.566406 364.558594 339.523438 366.472656 339.523438 368.40625 C 339.523438 381.335938 339.523438 394.265625 339.523438 407.191406 C 339.523438 422.90625 339.523438 438.621094 339.523438 454.335938 C 339.523438 457.773438 339.207031 461.4375 339.777344 464.847656 C 340.839844 471.21875 346.195312 476.378906 352.5625 477.304688 Z M 365.457031 509.976562 C 376.128906 509.976562 386.796875 509.976562 397.464844 509.976562 C 410.578125 509.976562 423.691406 509.976562 436.804688 509.976562 C 443.210938 509.976562 449.617188 509.976562 456.023438 509.976562 C 463.492188 510.09375 470.097656 515.53125 471.1875 523.019531 C 471.519531 525.289062 471.386719 527.636719 471.386719 529.925781 C 471.386719 533.878906 471.386719 537.832031 471.386719 541.785156 C 471.386719 547.832031 471.386719 553.875 471.386719 559.921875 C 471.386719 561.453125 470.085938 562.75 468.558594 562.75 C 468.488281 562.75 468.417969 562.746094 468.347656 562.75 C 463.5 562.929688 458.609375 562.75 453.761719 562.75 C 443.71875 562.75 433.679688 562.75 423.636719 562.75 C 412.070312 562.75 400.5 562.75 388.933594 562.75 C 379.367188 562.75 369.804688 562.75 360.238281 562.75 C 356.234375 562.75 352.230469 562.75 348.226562 562.75 C 346.691406 562.75 345.394531 561.449219 345.394531 559.921875 C 345.394531 559.613281 345.394531 559.300781 345.394531 558.992188 C 345.394531 548.15625 345.394531 537.316406 345.394531 526.476562 C 345.394531 523.707031 345.773438 521.050781 347 518.523438 C 349.152344 514.085938 353.566406 510.878906 358.433594 510.175781 C 360.746094 509.84375 363.132812 509.976562 365.457031 509.976562 Z M 393.914062 515.636719 C 384 515.636719 374.085938 515.636719 364.171875 515.636719 C 361.414062 515.636719 358.644531 515.414062 356.132812 516.808594 C 352.972656 518.558594 351.097656 521.792969 351.054688 525.390625 C 351.039062 526.769531 351.054688 528.152344 351.054688 529.535156 C 351.054688 538.707031 351.054688 547.875 351.054688 557.046875 C 351.761719 557.066406 352.472656 557.09375 353.167969 557.09375 C 356.453125 557.09375 359.738281 557.09375 363.023438 557.09375 C 373.0625 557.09375 383.105469 557.09375 393.144531 557.09375 C 404.714844 557.09375 416.28125 557.09375 427.847656 557.09375 C 437.414062 557.09375 446.980469 557.09375 456.546875 557.09375 C 459.605469 557.09375 462.667969 557.09375 465.730469 557.09375 C 465.730469 555.867188 465.730469 554.648438 465.730469 553.425781 C 465.730469 545.726562 465.730469 538.027344 465.730469 530.328125 C 465.730469 528.535156 465.78125 526.734375 465.722656 524.945312 C 465.550781 519.738281 461.140625 515.714844 456.023438 515.636719 C 455.90625 515.636719 455.789062 515.632812 455.671875 515.636719 C 448.203125 515.839844 440.699219 515.636719 433.226562 515.636719 C 420.121094 515.636719 407.019531 515.636719 393.914062 515.636719 Z M 295.695312 235.855469 C 292.019531 234.617188 289.109375 231.671875 288.058594 227.914062 C 286.964844 224.007812 288.070312 219.746094 290.824219 216.800781 C 293.613281 213.816406 297.695312 212.742188 301.640625 213.433594 C 303.199219 213.707031 303.929688 215.539062 303.613281 216.914062 C 303.253906 218.5 301.585938 219.144531 300.132812 218.890625 C 300.070312 218.878906 300.039062 218.871094 300.003906 218.863281 C 299.976562 218.863281 299.960938 218.863281 299.921875 218.859375 C 299.761719 218.855469 299.601562 218.839844 299.441406 218.835938 C 299.101562 218.832031 298.761719 218.855469 298.425781 218.882812 C 298.34375 218.898438 298.207031 218.917969 298.09375 218.945312 C 297.941406 218.976562 297.792969 219.015625 297.640625 219.058594 C 297.457031 219.109375 297.273438 219.167969 297.09375 219.230469 C 297.058594 219.242188 296.972656 219.277344 296.898438 219.308594 C 296.792969 219.359375 296.644531 219.433594 296.613281 219.449219 C 296.476562 219.519531 296.34375 219.59375 296.210938 219.671875 C 296.015625 219.789062 295.828125 219.917969 295.636719 220.042969 C 295.632812 220.046875 295.625 220.050781 295.621094 220.054688 C 295.351562 220.300781 295.078125 220.53125 294.824219 220.800781 C 294.707031 220.929688 294.597656 221.0625 294.484375 221.191406 C 294.480469 221.203125 294.480469 221.203125 294.472656 221.214844 C 294.300781 221.519531 294.089844 221.800781 293.925781 222.109375 C 293.890625 222.175781 293.859375 222.242188 293.828125 222.308594 C 293.855469 222.261719 293.847656 222.285156 293.742188 222.484375 C 293.746094 222.480469 293.746094 222.476562 293.75 222.46875 C 293.738281 222.492188 293.730469 222.511719 293.71875 222.53125 C 293.730469 222.511719 293.734375 222.5 293.742188 222.484375 C 293.738281 222.496094 293.734375 222.503906 293.730469 222.515625 C 293.628906 222.820312 293.527344 223.125 293.449219 223.4375 C 293.410156 223.597656 293.382812 223.757812 293.34375 223.917969 C 293.339844 223.949219 293.335938 223.960938 293.328125 223.984375 C 293.328125 223.996094 293.328125 223.996094 293.328125 224.011719 C 293.320312 224.371094 293.285156 224.726562 293.296875 225.085938 C 293.300781 225.242188 293.378906 225.734375 293.363281 225.726562 C 293.464844 226.179688 293.585938 226.621094 293.738281 227.0625 C 293.777344 227.148438 293.875 227.382812 293.90625 227.4375 C 293.976562 227.574219 294.050781 227.707031 294.128906 227.839844 C 294.246094 228.039062 294.378906 228.230469 294.511719 228.421875 C 294.527344 228.417969 294.835938 228.804688 294.929688 228.902344 C 295.144531 229.125 295.371094 229.328125 295.601562 229.53125 C 295.628906 229.554688 295.636719 229.5625 295.65625 229.578125 C 295.6875 229.597656 295.714844 229.609375 295.765625 229.644531 C 295.898438 229.726562 296.027344 229.8125 296.160156 229.894531 C 296.429688 230.054688 296.710938 230.1875 296.988281 230.332031 C 296.464844 230.058594 297.230469 230.414062 297.425781 230.472656 C 297.738281 230.566406 298.054688 230.636719 298.371094 230.707031 C 298.421875 230.714844 298.441406 230.722656 298.476562 230.730469 C 298.511719 230.730469 298.53125 230.730469 298.585938 230.734375 C 298.746094 230.742188 298.90625 230.753906 299.066406 230.757812 C 299.382812 230.765625 299.695312 230.746094 300.011719 230.726562 C 299.992188 230.730469 299.980469 230.734375 299.957031 230.738281 C 299.984375 230.734375 300.007812 230.730469 300.035156 230.722656 C 300.105469 230.71875 300.195312 230.695312 300.238281 230.683594 C 300.296875 230.675781 300.355469 230.664062 300.414062 230.648438 C 300.714844 230.582031 301.011719 230.5 301.304688 230.402344 C 301.429688 230.359375 302.046875 230.046875 301.484375 230.347656 C 301.617188 230.277344 301.761719 230.214844 301.894531 230.144531 C 302.164062 230.003906 302.429688 229.847656 302.683594 229.679688 C 302.777344 229.617188 302.871094 229.550781 302.960938 229.484375 C 302.980469 229.464844 302.996094 229.453125 303.019531 229.429688 C 303.246094 229.222656 303.472656 229.019531 303.679688 228.792969 C 303.808594 228.65625 303.929688 228.511719 304.050781 228.363281 C 304.066406 228.339844 304.078125 228.316406 304.101562 228.285156 C 304.265625 228.019531 304.433594 227.761719 304.578125 227.484375 C 304.644531 227.359375 304.703125 227.234375 304.765625 227.109375 C 304.769531 227.097656 304.769531 227.09375 304.773438 227.078125 C 304.878906 226.773438 304.980469 226.46875 305.058594 226.15625 C 305.199219 225.582031 305.269531 224.835938 305.175781 223.953125 C 305.164062 223.910156 305.152344 223.855469 305.140625 223.789062 C 305.09375 223.59375 305.050781 223.398438 304.996094 223.203125 C 304.890625 222.816406 304.75 222.445312 304.597656 222.074219 C 303.996094 220.609375 305.261719 219.019531 306.574219 218.59375 C 308.152344 218.085938 309.492188 219.207031 310.054688 220.570312 C 311.882812 225.007812 310.53125 230.496094 306.84375 233.578125 C 303.785156 236.140625 299.535156 237.152344 295.695312 235.855469 Z M 305.179688 223.96875 C 305.195312 224.089844 305.242188 224.261719 305.179688 223.96875 Z M 304.746094 227.167969 C 304.699219 227.292969 304.65625 227.429688 304.746094 227.167969 Z M 295.609375 220.0625 C 295.492188 220.148438 295.34375 220.308594 295.609375 220.0625 Z M 300.035156 230.726562 C 300.105469 230.710938 300.171875 230.695312 300.242188 230.683594 C 300.292969 230.667969 300.261719 230.671875 300.011719 230.726562 C 300.015625 230.726562 300.015625 230.726562 300.015625 230.726562 C 300.019531 230.726562 300.027344 230.726562 300.035156 230.726562 Z M 308.828125 639.066406 C 308.894531 639.054688 308.960938 639.039062 309.03125 639.027344 C 309.082031 639.011719 309.050781 639.011719 308.804688 639.070312 C 308.8125 639.070312 308.820312 639.070312 308.828125 639.066406 Z M 318.847656 628.914062 C 320.675781 633.351562 319.324219 638.839844 315.640625 641.921875 C 312.578125 644.484375 308.324219 645.492188 304.484375 644.199219 C 300.808594 642.957031 297.902344 640.015625 296.851562 636.253906 C 295.757812 632.351562 296.863281 628.089844 299.617188 625.144531 C 302.40625 622.160156 306.488281 621.085938 310.429688 621.777344 C 311.988281 622.046875 312.71875 623.878906 312.40625 625.257812 C 312.042969 626.84375 310.378906 627.484375 308.925781 627.230469 C 308.863281 627.222656 308.828125 627.214844 308.792969 627.207031 C 308.765625 627.207031 308.75 627.207031 308.710938 627.203125 C 308.550781 627.195312 308.390625 627.183594 308.230469 627.179688 C 307.890625 627.171875 307.554688 627.195312 307.214844 627.226562 C 307.132812 627.238281 306.996094 627.261719 306.882812 627.289062 C 306.734375 627.320312 306.582031 627.359375 306.433594 627.398438 C 306.25 627.453125 306.066406 627.511719 305.882812 627.574219 C 305.851562 627.585938 305.765625 627.621094 305.691406 627.652344 C 305.582031 627.703125 305.4375 627.773438 305.402344 627.792969 C 305.269531 627.863281 305.132812 627.9375 305.003906 628.015625 C 304.804688 628.132812 304.621094 628.261719 304.425781 628.386719 C 304.421875 628.390625 304.417969 628.394531 304.414062 628.394531 C 304.144531 628.644531 303.867188 628.875 303.617188 629.144531 C 303.5 629.269531 303.390625 629.40625 303.273438 629.535156 C 303.269531 629.546875 303.269531 629.546875 303.265625 629.558594 C 303.09375 629.863281 302.882812 630.140625 302.71875 630.453125 C 302.683594 630.519531 302.652344 630.585938 302.621094 630.652344 C 302.648438 630.605469 302.640625 630.625 302.535156 630.828125 C 302.535156 630.824219 302.539062 630.816406 302.539062 630.8125 C 302.53125 630.832031 302.519531 630.855469 302.507812 630.875 C 302.519531 630.855469 302.527344 630.84375 302.535156 630.828125 C 302.53125 630.835938 302.527344 630.847656 302.523438 630.855469 C 302.417969 631.164062 302.316406 631.464844 302.242188 631.78125 C 302.203125 631.9375 302.175781 632.101562 302.136719 632.257812 C 302.128906 632.289062 302.125 632.300781 302.121094 632.328125 C 302.121094 632.339844 302.121094 632.339844 302.121094 632.351562 C 302.113281 632.710938 302.074219 633.066406 302.089844 633.429688 C 302.09375 633.585938 302.171875 634.078125 302.15625 634.066406 C 302.257812 634.523438 302.378906 634.964844 302.53125 635.402344 C 302.570312 635.492188 302.667969 635.726562 302.699219 635.78125 C 302.769531 635.917969 302.84375 636.050781 302.921875 636.179688 C 303.039062 636.382812 303.171875 636.570312 303.304688 636.761719 C 303.316406 636.757812 303.625 637.144531 303.722656 637.246094 C 303.9375 637.464844 304.164062 637.671875 304.394531 637.871094 C 304.421875 637.894531 304.429688 637.902344 304.449219 637.921875 C 304.480469 637.9375 304.507812 637.953125 304.558594 637.988281 C 304.691406 638.066406 304.820312 638.15625 304.953125 638.238281 C 305.222656 638.398438 305.503906 638.527344 305.78125 638.675781 C 305.257812 638.398438 306.023438 638.753906 306.21875 638.816406 C 306.53125 638.910156 306.847656 638.976562 307.164062 639.046875 C 307.214844 639.058594 307.234375 639.066406 307.269531 639.074219 C 307.304688 639.074219 307.324219 639.074219 307.378906 639.074219 C 307.539062 639.082031 307.699219 639.097656 307.859375 639.097656 C 308.175781 639.105469 308.488281 639.089844 308.804688 639.070312 C 308.785156 639.074219 308.773438 639.078125 308.75 639.082031 C 308.777344 639.074219 308.800781 639.074219 308.828125 639.066406 C 308.898438 639.058594 308.988281 639.039062 309.03125 639.027344 C 309.089844 639.015625 309.148438 639.003906 309.207031 638.992188 C 309.507812 638.925781 309.804688 638.84375 310.097656 638.742188 C 310.222656 638.699219 310.839844 638.390625 310.277344 638.691406 C 310.410156 638.617188 310.550781 638.558594 310.6875 638.488281 C 310.957031 638.347656 311.222656 638.191406 311.476562 638.023438 C 311.570312 637.960938 311.664062 637.890625 311.757812 637.824219 C 311.773438 637.808594 311.789062 637.792969 311.8125 637.773438 C 312.039062 637.5625 312.261719 637.359375 312.472656 637.136719 C 312.601562 636.996094 312.722656 636.851562 312.84375 636.707031 C 312.859375 636.683594 312.871094 636.660156 312.894531 636.625 C 313.054688 636.359375 313.226562 636.101562 313.371094 635.828125 C 313.4375 635.703125 313.496094 635.578125 313.558594 635.453125 C 313.5625 635.441406 313.5625 635.433594 313.566406 635.421875 C 313.671875 635.117188 313.773438 634.8125 313.851562 634.5 C 313.992188 633.925781 314.0625 633.175781 313.96875 632.296875 C 313.957031 632.25 313.945312 632.199219 313.929688 632.132812 C 313.886719 631.9375 313.84375 631.742188 313.789062 631.546875 C 313.683594 631.160156 313.542969 630.789062 313.390625 630.417969 C 312.789062 628.953125 314.054688 627.363281 315.367188 626.9375 C 316.945312 626.425781 318.285156 627.550781 318.847656 628.914062 Z M 313.96875 632.3125 C 313.988281 632.433594 314.035156 632.605469 313.96875 632.3125 Z M 304.402344 628.40625 C 304.285156 628.492188 304.132812 628.652344 304.402344 628.40625 Z M 313.539062 635.511719 C 313.492188 635.636719 313.449219 635.773438 313.539062 635.511719 Z M 423.511719 304.371094 C 428.445312 308.015625 433.582031 311.660156 439.003906 314.5625 C 439.089844 314.609375 439.175781 314.660156 439.261719 314.707031 C 442.449219 316.472656 445.304688 311.589844 442.117188 309.820312 C 438.109375 307.601562 434.257812 305.054688 430.5 302.445312 C 422.570312 296.9375 415.082031 290.851562 408.34375 283.550781 C 401.703125 276.351562 395.679688 267.847656 394.304688 257.972656 C 394.308594 257.949219 394.207031 257.058594 394.195312 256.898438 C 394.148438 256.3125 394.117188 255.722656 394.101562 255.128906 C 394.070312 253.550781 394.171875 251.976562 394.480469 250.425781 C 395.0625 247.523438 396.171875 244.820312 397.804688 242.351562 C 400.96875 237.5625 406.03125 234.261719 411.625 233.085938 C 417.886719 231.769531 424.710938 233.421875 429.675781 237.457031 C 434.839844 241.65625 437.804688 247.898438 437.859375 254.539062 C 437.886719 258.179688 443.488281 258.183594 443.515625 254.539062 C 443.582031 246.402344 448.070312 238.949219 455.273438 235.132812 C 462.609375 231.246094 471.714844 232.0625 478.390625 236.917969 C 485.007812 241.730469 488.125 249.976562 487.070312 257.988281 C 485.910156 266.78125 480.71875 274.726562 475.042969 281.296875 C 468.433594 288.945312 460.621094 295.519531 452.40625 301.371094 C 451.160156 302.253906 450.570312 303.839844 451.390625 305.242188 C 452.109375 306.46875 454.007812 307.148438 455.261719 306.257812 C 463.40625 300.457031 471.222656 294.039062 477.914062 286.582031 C 484.570312 279.164062 490.695312 270.273438 492.40625 260.253906 C 494.105469 250.289062 490.984375 239.902344 483.007812 233.386719 C 475.304688 227.097656 464.589844 225.179688 455.285156 228.933594 C 448.765625 231.566406 443.628906 236.5 440.667969 242.578125 C 436.515625 234.144531 428.210938 228.046875 418.335938 227.113281 C 404.3125 225.785156 390.953125 236.136719 388.824219 250.074219 C 387.039062 261.75 392.484375 272.789062 399.460938 281.785156 C 406.226562 290.511719 414.660156 297.828125 423.511719 304.371094 Z M 423.511719 304.371094 " fill-opacity="1" fill-rule="nonzero"/></g><path fill="#2f72b1" d="M 498.242188 354.34375 C 498.242188 357.59375 498.242188 360.847656 498.242188 364.101562 C 498.242188 378.222656 498.242188 392.34375 498.242188 406.464844 C 498.242188 415.320312 498.242188 424.175781 498.242188 433.03125 C 498.242188 436.675781 492.582031 436.671875 492.582031 433.03125 C 492.582031 429.777344 492.582031 426.527344 492.582031 423.273438 C 492.582031 409.152344 492.582031 395.027344 492.582031 380.90625 C 492.582031 372.050781 492.582031 363.195312 492.582031 354.34375 C 492.582031 350.695312 498.242188 350.703125 498.242188 354.34375 Z M 471.582031 594.328125 C 468.1875 594.328125 464.789062 594.328125 461.394531 594.328125 C 452.746094 594.328125 444.101562 594.328125 435.457031 594.328125 C 424.046875 594.328125 412.632812 594.328125 401.222656 594.328125 C 389.351562 594.328125 377.480469 594.328125 365.609375 594.328125 C 355.792969 594.328125 345.976562 594.328125 336.15625 594.328125 C 330.714844 594.328125 325.273438 594.328125 319.832031 594.328125 C 317.042969 594.328125 314.410156 593.757812 312.546875 591.421875 C 311.242188 589.789062 310.875 587.871094 310.875 585.863281 C 310.875 582.90625 310.875 579.953125 310.875 576.996094 C 310.875 571.171875 310.875 565.347656 310.875 559.523438 C 310.875 551.328125 310.875 543.132812 310.875 534.9375 C 310.875 524.996094 310.875 515.054688 310.875 505.113281 C 310.875 493.9375 310.875 482.761719 310.875 471.585938 C 310.875 459.664062 310.875 447.746094 310.875 435.824219 C 310.875 423.820312 310.875 411.816406 310.875 399.8125 C 310.875 388.160156 310.875 376.507812 310.875 364.859375 C 310.875 354.21875 310.875 343.582031 310.875 332.941406 C 310.875 323.765625 310.875 314.589844 310.875 305.414062 C 310.875 298.335938 310.875 291.257812 310.875 284.179688 C 310.875 279.683594 310.875 275.1875 310.875 270.691406 C 310.875 267.75 310.515625 264.585938 312.363281 262.0625 C 315.472656 257.820312 321.5 258.921875 326.082031 258.921875 C 329.722656 258.921875 329.726562 253.265625 326.082031 253.265625 C 320.152344 253.265625 313.960938 252.554688 309.292969 257.03125 C 306.523438 259.6875 305.230469 263.34375 305.214844 267.121094 C 305.207031 269.875 305.214844 272.632812 305.214844 275.386719 C 305.214844 281.101562 305.214844 286.820312 305.214844 292.535156 C 305.214844 300.699219 305.214844 308.863281 305.214844 317.023438 C 305.214844 327.046875 305.214844 337.066406 305.214844 347.085938 C 305.214844 358.394531 305.214844 369.703125 305.214844 381.007812 C 305.214844 393.035156 305.214844 405.0625 305.214844 417.085938 C 305.214844 429.207031 305.214844 441.324219 305.214844 453.441406 C 305.214844 465.199219 305.214844 476.953125 305.214844 488.710938 C 305.214844 499.476562 305.214844 510.246094 305.214844 521.015625 C 305.214844 530.222656 305.214844 539.433594 305.214844 548.644531 C 305.214844 555.726562 305.214844 562.808594 305.214844 569.894531 C 305.214844 574.265625 305.214844 578.636719 305.214844 583.011719 C 305.214844 587.519531 305.328125 591.675781 308.542969 595.421875 C 312.949219 600.554688 319.164062 599.988281 325.152344 599.988281 C 333.007812 599.988281 340.859375 599.988281 348.710938 599.988281 C 359.925781 599.988281 371.140625 599.988281 382.359375 599.988281 C 394.390625 599.988281 406.421875 599.988281 418.453125 599.988281 C 428.925781 599.988281 439.402344 599.988281 449.878906 599.988281 C 456.246094 599.988281 462.617188 599.988281 468.984375 599.988281 C 469.851562 599.988281 470.71875 599.988281 471.582031 599.988281 C 475.222656 599.988281 475.230469 594.328125 471.582031 594.328125 Z M 595.496094 412.734375 C 593.898438 413.171875 592.589844 412.171875 592.015625 410.757812 C 591.980469 410.667969 591.777344 410.195312 591.769531 410.171875 C 591.710938 410.039062 591.65625 409.90625 591.59375 409.769531 C 591.367188 409.253906 591.128906 408.738281 590.886719 408.222656 C 590.359375 407.105469 589.808594 405.996094 589.238281 404.898438 C 587.984375 402.488281 586.648438 400.121094 585.257812 397.785156 C 582.019531 392.328125 578.503906 387.03125 574.785156 381.890625 C 570.3125 375.707031 565.496094 369.472656 560.023438 363.988281 C 558.160156 365.847656 556.023438 367.417969 553.570312 368.535156 C 549.714844 370.296875 545.128906 371.125 541.027344 369.664062 C 537.320312 368.347656 534.503906 365.484375 533.441406 361.65625 C 532.457031 358.121094 533.214844 353.996094 536.105469 351.546875 C 538.722656 349.328125 542.628906 348.269531 546.042969 348.507812 C 550.253906 348.796875 553.945312 351.335938 557.167969 353.851562 C 557.929688 354.445312 558.660156 355.082031 559.398438 355.710938 C 561.679688 352.0625 563.082031 347.847656 564.007812 343.664062 C 565.679688 336.128906 565.933594 328.253906 565.914062 320.5625 C 565.890625 311.585938 565.140625 302.613281 563.636719 293.761719 C 563.378906 292.25 564.015625 290.71875 565.613281 290.28125 C 566.980469 289.90625 568.835938 290.75 569.09375 292.257812 C 569.515625 294.757812 569.886719 297.269531 570.210938 299.785156 C 571.460938 309.484375 571.851562 319.292969 571.375 329.058594 C 571 336.839844 570.214844 344.820312 567.402344 352.144531 C 566.417969 354.710938 565.167969 357.238281 563.625 359.558594 C 570 365.835938 575.5 373.171875 580.613281 380.347656 C 587.046875 389.378906 593.277344 398.941406 597.46875 409.253906 C 598.050781 410.675781 596.835938 412.363281 595.496094 412.734375 Z M 555.878906 360.125 C 555.183594 359.519531 554.492188 358.910156 553.773438 358.332031 C 553.714844 358.285156 553.21875 357.902344 553.199219 357.882812 C 553.046875 357.765625 552.894531 357.652344 552.742188 357.539062 C 552.355469 357.257812 551.964844 356.980469 551.566406 356.714844 C 550.835938 356.222656 550.085938 355.761719 549.308594 355.347656 C 548.980469 355.171875 548.644531 355.011719 548.308594 354.855469 C 548.238281 354.835938 547.671875 354.59375 547.527344 354.546875 C 547.230469 354.445312 546.925781 354.355469 546.621094 354.28125 C 546.445312 354.238281 545.988281 354.195312 545.9375 354.183594 C 543.710938 354.121094 540.828125 354.402344 539.390625 356.234375 C 538.140625 357.832031 538.570312 360.410156 539.886719 362.226562 C 541.589844 364.578125 544.984375 365.125 547.761719 364.554688 C 550.855469 363.917969 553.609375 362.308594 555.875 360.132812 C 555.875 360.128906 555.878906 360.128906 555.878906 360.125 Z M 555.878906 360.125 " fill-opacity="1" fill-rule="nonzero"/><path fill="#a7abae" d="M 459.855469 423.246094 C 459.855469 421.367188 459.855469 419.488281 459.855469 417.609375 C 459.855469 404.433594 459.855469 391.253906 459.855469 378.078125 C 459.855469 374.429688 465.515625 374.4375 465.515625 378.078125 C 465.515625 379.957031 465.515625 381.835938 465.515625 383.710938 C 465.515625 396.890625 465.515625 410.066406 465.515625 423.242188 C 465.515625 426.890625 459.855469 426.886719 459.855469 423.246094 Z M 467.03125 616.855469 C 464.359375 625.226562 461.683594 633.597656 459.011719 641.972656 C 450.941406 634.597656 442.875 627.222656 434.804688 619.847656 C 433.5 618.65625 432.199219 617.46875 430.898438 616.277344 C 429.296875 614.816406 426.832031 615.453125 426.167969 617.527344 C 426.136719 617.625 426.105469 617.722656 426.074219 617.824219 C 426.058594 617.875 426.039062 617.921875 426.023438 617.976562 C 423.394531 626.207031 420.769531 634.441406 418.140625 642.671875 C 410.054688 635.386719 401.972656 628.097656 393.890625 620.808594 C 392.574219 619.621094 391.253906 618.433594 389.9375 617.246094 C 388.332031 615.796875 385.875 616.410156 385.210938 618.492188 C 382.535156 626.871094 379.859375 635.25 377.1875 643.628906 C 369.113281 636.304688 361.042969 628.980469 352.96875 621.660156 C 351.652344 620.464844 350.339844 619.273438 349.023438 618.078125 C 346.332031 615.636719 342.320312 619.628906 345.023438 622.078125 C 354.214844 630.417969 363.40625 638.757812 372.597656 647.09375 C 373.910156 648.289062 375.226562 649.480469 376.542969 650.671875 C 378.144531 652.128906 380.605469 651.503906 381.269531 649.425781 C 383.945312 641.042969 386.625 632.660156 389.300781 624.277344 C 397.382812 631.566406 405.464844 638.855469 413.546875 646.144531 C 414.867188 647.332031 416.183594 648.519531 417.5 649.707031 C 419.105469 651.15625 421.5625 650.542969 422.226562 648.457031 C 424.886719 640.132812 427.542969 631.8125 430.199219 623.488281 C 438.273438 630.8125 446.34375 638.132812 454.417969 645.457031 C 455.730469 646.648438 457.046875 647.84375 458.363281 649.035156 C 459.226562 649.824219 460.332031 649.984375 461.28125 649.65625 C 462.089844 649.378906 462.785156 648.746094 463.089844 647.789062 C 465.835938 639.1875 468.582031 630.589844 471.328125 621.992188 C 471.714844 620.78125 472.101562 619.570312 472.488281 618.359375 C 473.597656 614.882812 468.136719 613.394531 467.03125 616.855469 Z M 397.464844 509.976562 C 410.578125 509.976562 423.691406 509.976562 436.808594 509.976562 C 443.210938 509.976562 449.617188 509.976562 456.023438 509.976562 C 463.492188 510.09375 470.101562 515.53125 471.1875 523.019531 C 471.519531 525.289062 471.386719 527.636719 471.386719 529.925781 C 471.386719 533.878906 471.386719 537.832031 471.386719 541.785156 C 471.386719 547.832031 471.386719 553.875 471.386719 559.921875 C 471.386719 561.453125 470.085938 562.75 468.558594 562.75 C 468.488281 562.75 468.417969 562.746094 468.347656 562.75 C 463.5 562.929688 458.609375 562.75 453.761719 562.75 C 443.71875 562.75 433.679688 562.75 423.636719 562.75 C 412.070312 562.75 400.503906 562.75 388.933594 562.75 C 379.371094 562.75 369.804688 562.75 360.238281 562.75 C 356.234375 562.75 352.230469 562.75 348.226562 562.75 C 346.691406 562.75 345.394531 561.449219 345.394531 559.921875 C 345.394531 559.613281 345.394531 559.300781 345.394531 558.992188 C 345.394531 548.15625 345.394531 537.316406 345.394531 526.476562 C 345.394531 523.707031 345.773438 521.050781 347 518.523438 C 349.152344 514.085938 353.566406 510.878906 358.433594 510.175781 C 360.746094 509.84375 363.132812 509.976562 365.457031 509.976562 C 376.128906 509.976562 386.796875 509.976562 397.464844 509.976562 Z M 433.226562 515.636719 C 420.121094 515.636719 407.019531 515.636719 393.914062 515.636719 C 384 515.636719 374.085938 515.636719 364.171875 515.636719 C 361.414062 515.636719 358.644531 515.414062 356.132812 516.808594 C 352.972656 518.558594 351.097656 521.792969 351.054688 525.390625 C 351.039062 526.769531 351.054688 528.152344 351.054688 529.535156 C 351.054688 538.707031 351.054688 547.875 351.054688 557.046875 C 351.761719 557.066406 352.472656 557.09375 353.167969 557.09375 C 356.453125 557.09375 359.738281 557.09375 363.023438 557.09375 C 373.0625 557.09375 383.105469 557.09375 393.144531 557.09375 C 404.714844 557.09375 416.28125 557.09375 427.847656 557.09375 C 437.414062 557.09375 446.980469 557.09375 456.546875 557.09375 C 459.605469 557.09375 462.667969 557.09375 465.730469 557.09375 C 465.730469 555.867188 465.730469 554.648438 465.730469 553.425781 C 465.730469 545.726562 465.730469 538.027344 465.730469 530.328125 C 465.730469 528.535156 465.78125 526.734375 465.722656 524.945312 C 465.550781 519.738281 461.140625 515.714844 456.023438 515.636719 C 455.90625 515.636719 455.789062 515.632812 455.667969 515.636719 C 448.203125 515.839844 440.699219 515.636719 433.226562 515.636719 Z M 352.5625 477.304688 C 356.210938 477.835938 360.066406 477.503906 363.738281 477.503906 C 364.886719 477.503906 366.03125 477.503906 367.175781 477.503906 C 370.816406 477.503906 370.824219 471.847656 367.175781 471.847656 C 363.902344 471.847656 360.628906 471.847656 357.355469 471.847656 C 356.15625 471.847656 354.878906 471.941406 353.683594 471.796875 C 351.1875 471.488281 348.816406 470.136719 347.257812 468.175781 C 344.664062 464.910156 345.179688 460.65625 345.179688 456.765625 C 345.179688 442.207031 345.179688 427.652344 345.179688 413.097656 C 345.179688 399.042969 345.179688 384.992188 345.179688 370.9375 C 345.179688 369.679688 345.175781 368.417969 345.179688 367.15625 C 345.195312 363.699219 346.777344 360.460938 349.773438 358.625 C 351.90625 357.316406 354.15625 357.171875 356.550781 357.171875 C 359.144531 357.171875 361.738281 357.171875 364.332031 357.171875 C 378.683594 357.171875 393.039062 357.171875 407.394531 357.171875 C 407.726562 357.171875 408.058594 357.171875 408.390625 357.171875 C 412.03125 357.171875 412.039062 351.511719 408.390625 351.511719 C 395.125 351.511719 381.859375 351.511719 368.589844 351.511719 C 363.898438 351.511719 359.179688 351.367188 354.488281 351.519531 C 347.847656 351.738281 341.941406 356.257812 340.105469 362.671875 C 339.566406 364.558594 339.523438 366.472656 339.523438 368.40625 C 339.523438 381.335938 339.523438 394.265625 339.523438 407.191406 C 339.523438 422.90625 339.523438 438.621094 339.523438 454.335938 C 339.523438 457.773438 339.207031 461.4375 339.777344 464.847656 C 340.839844 471.21875 346.195312 476.378906 352.5625 477.304688 Z M 352.5625 477.304688 " fill-opacity="1" fill-rule="nonzero"/><path fill="#00bf63" d="M 484.046875 354.347656 C 484.046875 357.457031 484.046875 360.566406 484.046875 363.675781 C 484.046875 377.1875 484.046875 390.703125 484.046875 404.214844 C 484.046875 412.6875 484.046875 421.164062 484.046875 429.636719 C 484.046875 433.285156 478.386719 433.277344 478.386719 429.636719 C 478.386719 426.527344 478.386719 423.417969 478.386719 420.308594 C 478.386719 406.796875 478.386719 393.285156 478.386719 379.769531 C 478.386719 371.296875 478.386719 362.820312 478.386719 354.347656 C 478.386719 350.699219 484.046875 350.707031 484.046875 354.347656 Z M 468.558594 577.796875 C 465.601562 577.796875 462.644531 577.796875 459.683594 577.796875 C 452.183594 577.796875 444.683594 577.796875 437.183594 577.796875 C 427.25 577.796875 417.316406 577.796875 407.382812 577.796875 C 396.96875 577.796875 386.558594 577.796875 376.144531 577.796875 C 367.355469 577.796875 358.5625 577.796875 349.773438 577.796875 C 344.667969 577.796875 339.558594 577.796875 334.449219 577.796875 C 332.898438 577.796875 331.390625 577.851562 329.90625 577.25 C 326.832031 576.007812 325.085938 573.035156 325.070312 569.804688 C 325.054688 567.632812 325.070312 565.464844 325.070312 563.296875 C 325.070312 558.574219 325.070312 553.851562 325.070312 549.128906 C 325.070312 542.316406 325.070312 535.5 325.070312 528.6875 C 325.070312 520.285156 325.070312 511.882812 325.070312 503.480469 C 325.070312 493.871094 325.070312 484.261719 325.070312 474.652344 C 325.070312 464.332031 325.070312 454.011719 325.070312 443.691406 C 325.070312 433.125 325.070312 422.558594 325.070312 411.988281 C 325.070312 401.679688 325.070312 391.375 325.070312 381.066406 C 325.070312 371.382812 325.070312 361.699219 325.070312 352.011719 C 325.070312 343.460938 325.070312 334.910156 325.070312 326.359375 C 325.070312 319.402344 325.070312 312.445312 325.070312 305.488281 C 325.070312 300.589844 325.070312 295.691406 325.070312 290.789062 C 325.070312 288.414062 325.0625 286.035156 325.070312 283.660156 C 325.078125 281.011719 326.046875 278.792969 328.082031 277.035156 C 330.84375 274.65625 326.828125 270.667969 324.078125 273.035156 C 320.988281 275.703125 319.429688 279.511719 319.410156 283.550781 C 319.40625 284.363281 319.410156 285.171875 319.410156 285.980469 C 319.410156 289.632812 319.410156 293.28125 319.410156 296.929688 C 319.410156 302.929688 319.410156 308.933594 319.410156 314.9375 C 319.410156 322.765625 319.410156 330.597656 319.410156 338.425781 C 319.410156 347.683594 319.410156 356.941406 319.410156 366.203125 C 319.410156 376.328125 319.410156 386.460938 319.410156 396.589844 C 319.410156 407.210938 319.410156 417.835938 319.410156 428.457031 C 319.410156 439.003906 319.410156 449.550781 319.410156 460.097656 C 319.410156 470.195312 319.410156 480.292969 319.410156 490.390625 C 319.410156 499.472656 319.410156 508.554688 319.410156 517.636719 C 319.410156 525.320312 319.410156 533 319.410156 540.683594 C 319.410156 546.417969 319.410156 552.15625 319.410156 557.894531 C 319.410156 561.269531 319.410156 564.640625 319.410156 568.015625 C 319.410156 568.65625 319.402344 569.296875 319.410156 569.9375 C 319.472656 575.140625 322.367188 580.015625 327.167969 582.195312 C 331.050781 583.960938 335.730469 583.453125 339.902344 583.453125 C 347.042969 583.453125 354.183594 583.453125 361.328125 583.453125 C 371.246094 583.453125 381.167969 583.453125 391.085938 583.453125 C 401.59375 583.453125 412.101562 583.453125 422.609375 583.453125 C 431.691406 583.453125 440.777344 583.453125 449.859375 583.453125 C 455.339844 583.453125 460.820312 583.453125 466.296875 583.453125 C 467.050781 583.453125 467.804688 583.453125 468.558594 583.453125 C 472.199219 583.453125 472.203125 577.796875 468.558594 577.796875 Z M 310.054688 220.570312 C 311.882812 225.007812 310.53125 230.496094 306.847656 233.578125 C 303.785156 236.140625 299.535156 237.152344 295.695312 235.855469 C 292.019531 234.617188 289.109375 231.671875 288.058594 227.914062 C 286.964844 224.007812 288.070312 219.746094 290.824219 216.800781 C 293.613281 213.816406 297.695312 212.742188 301.640625 213.433594 C 303.199219 213.707031 303.929688 215.539062 303.613281 216.914062 C 303.253906 218.5 301.585938 219.144531 300.132812 218.890625 C 300.070312 218.878906 300.039062 218.871094 300.003906 218.863281 C 299.976562 218.863281 299.960938 218.863281 299.921875 218.859375 C 299.761719 218.855469 299.601562 218.839844 299.441406 218.835938 C 299.101562 218.832031 298.761719 218.855469 298.425781 218.882812 C 298.34375 218.898438 298.207031 218.917969 298.09375 218.945312 C 297.941406 218.976562 297.792969 219.015625 297.640625 219.058594 C 297.457031 219.109375 297.273438 219.167969 297.09375 219.230469 C 297.058594 219.242188 296.972656 219.277344 296.898438 219.308594 C 296.792969 219.359375 296.644531 219.433594 296.613281 219.449219 C 296.476562 219.519531 296.34375 219.59375 296.210938 219.671875 C 296.015625 219.789062 295.828125 219.917969 295.636719 220.042969 C 295.632812 220.046875 295.625 220.050781 295.621094 220.054688 C 295.351562 220.300781 295.078125 220.53125 294.824219 220.800781 C 294.707031 220.929688 294.597656 221.0625 294.484375 221.191406 C 294.480469 221.203125 294.480469 221.203125 294.472656 221.214844 C 294.300781 221.519531 294.089844 221.800781 293.925781 222.109375 C 293.890625 222.175781 293.859375 222.242188 293.828125 222.308594 C 293.855469 222.261719 293.847656 222.285156 293.742188 222.484375 C 293.746094 222.480469 293.746094 222.476562 293.75 222.46875 C 293.738281 222.492188 293.730469 222.511719 293.71875 222.53125 C 293.730469 222.511719 293.734375 222.5 293.742188 222.484375 C 293.738281 222.496094 293.734375 222.503906 293.730469 222.515625 C 293.628906 222.820312 293.527344 223.125 293.449219 223.4375 C 293.410156 223.597656 293.382812 223.757812 293.34375 223.917969 C 293.339844 223.949219 293.335938 223.960938 293.328125 223.984375 C 293.328125 223.996094 293.328125 223.996094 293.328125 224.011719 C 293.320312 224.371094 293.285156 224.726562 293.296875 225.085938 C 293.300781 225.242188 293.378906 225.734375 293.363281 225.726562 C 293.464844 226.179688 293.585938 226.621094 293.738281 227.0625 C 293.777344 227.148438 293.875 227.382812 293.90625 227.4375 C 293.976562 227.574219 294.050781 227.707031 294.128906 227.839844 C 294.246094 228.039062 294.378906 228.230469 294.511719 228.421875 C 294.527344 228.417969 294.835938 228.804688 294.929688 228.902344 C 295.144531 229.125 295.371094 229.328125 295.601562 229.53125 C 295.628906 229.554688 295.636719 229.5625 295.65625 229.578125 C 295.6875 229.597656 295.714844 229.609375 295.765625 229.644531 C 295.898438 229.726562 296.027344 229.8125 296.160156 229.894531 C 296.429688 230.054688 296.710938 230.1875 296.988281 230.332031 C 296.464844 230.058594 297.230469 230.414062 297.425781 230.472656 C 297.738281 230.566406 298.054688 230.636719 298.371094 230.707031 C 298.421875 230.714844 298.441406 230.722656 298.476562 230.730469 C 298.511719 230.730469 298.53125 230.730469 298.585938 230.734375 C 298.746094 230.742188 298.90625 230.753906 299.066406 230.757812 C 299.382812 230.765625 299.695312 230.746094 300.011719 230.726562 C 299.992188 230.730469 299.980469 230.734375 299.957031 230.738281 C 299.984375 230.734375 300.007812 230.730469 300.035156 230.722656 C 300.105469 230.71875 300.195312 230.695312 300.238281 230.683594 C 300.296875 230.675781 300.355469 230.664062 300.414062 230.648438 C 300.714844 230.582031 301.011719 230.5 301.304688 230.402344 C 301.429688 230.359375 302.046875 230.046875 301.484375 230.347656 C 301.617188 230.277344 301.761719 230.214844 301.894531 230.144531 C 302.164062 230.003906 302.429688 229.847656 302.683594 229.679688 C 302.777344 229.617188 302.871094 229.550781 302.960938 229.484375 C 302.980469 229.464844 302.996094 229.453125 303.019531 229.429688 C 303.246094 229.222656 303.472656 229.019531 303.679688 228.792969 C 303.808594 228.65625 303.929688 228.511719 304.050781 228.363281 C 304.066406 228.339844 304.078125 228.316406 304.101562 228.285156 C 304.265625 228.019531 304.433594 227.761719 304.578125 227.484375 C 304.644531 227.359375 304.703125 227.234375 304.765625 227.109375 C 304.769531 227.097656 304.769531 227.09375 304.773438 227.078125 C 304.878906 226.773438 304.980469 226.46875 305.058594 226.15625 C 305.199219 225.582031 305.269531 224.835938 305.175781 223.953125 C 305.164062 223.910156 305.152344 223.855469 305.140625 223.789062 C 305.09375 223.59375 305.050781 223.398438 304.996094 223.203125 C 304.890625 222.816406 304.75 222.445312 304.597656 222.074219 C 303.996094 220.609375 305.261719 219.019531 306.574219 218.59375 C 308.152344 218.085938 309.496094 219.207031 310.054688 220.570312 Z M 305.179688 223.96875 C 305.195312 224.089844 305.242188 224.261719 305.179688 223.96875 Z M 295.609375 220.0625 C 295.492188 220.148438 295.34375 220.308594 295.609375 220.0625 Z M 304.746094 227.167969 C 304.699219 227.292969 304.65625 227.429688 304.746094 227.167969 Z M 300.035156 230.726562 C 300.105469 230.710938 300.171875 230.695312 300.242188 230.683594 C 300.292969 230.667969 300.261719 230.671875 300.011719 230.726562 C 300.015625 230.726562 300.015625 230.726562 300.015625 230.726562 C 300.019531 230.726562 300.027344 230.726562 300.035156 230.726562 Z M 300.035156 230.726562 " fill-opacity="1" fill-rule="nonzero"/><g clip-path="url(#db7fd8cc12)"><path fill="#8c52ff" d="M 572.742188 606.023438 C 569.867188 603.878906 566.160156 603.117188 562.636719 603.023438 C 553.375 602.773438 543.941406 606.710938 536.332031 611.714844 C 529.433594 616.25 523.488281 622.128906 519.105469 629.050781 C 514.019531 626.273438 509.363281 622.792969 505.292969 618.65625 C 501.496094 614.796875 498.679688 610.828125 496.234375 605.800781 C 491.667969 596.410156 489.4375 585.003906 488.429688 574.578125 C 487.382812 563.761719 487.429688 552.851562 488.113281 542.011719 C 488.382812 537.734375 488.757812 533.460938 489.238281 529.195312 C 489.425781 527.519531 489.636719 525.839844 489.855469 524.164062 C 489.878906 523.996094 489.902344 523.824219 489.925781 523.652344 C 489.972656 523.316406 490.019531 522.980469 490.066406 522.644531 C 490.148438 522.078125 490.230469 521.511719 490.316406 520.949219 C 490.480469 519.851562 490.675781 518.761719 490.847656 517.664062 C 491.164062 515.640625 489.734375 514.199219 488.515625 512.757812 C 482.9375 506.15625 475.179688 501.234375 467.675781 497.144531 C 453.332031 489.328125 437.894531 483.917969 421.722656 481.570312 C 415.246094 480.628906 408.726562 480.09375 402.238281 479.261719 C 401.28125 479.140625 399.984375 478.953125 398.75 478.742188 C 397.503906 478.527344 396.261719 478.28125 395.035156 477.980469 C 393.953125 477.710938 392.878906 477.402344 391.828125 477.027344 C 391.589844 476.941406 391.351562 476.847656 391.113281 476.757812 C 391.046875 476.734375 391.003906 476.71875 390.972656 476.707031 C 390.945312 476.695312 390.917969 476.683594 390.871094 476.660156 C 390.394531 476.445312 389.921875 476.21875 389.464844 475.964844 C 389.019531 475.722656 388.585938 475.457031 388.164062 475.175781 C 388.027344 475.082031 387.898438 474.984375 387.765625 474.890625 C 387.71875 474.847656 387.472656 474.65625 387.375 474.570312 C 387.03125 474.273438 386.703125 473.957031 386.394531 473.625 C 386.238281 473.460938 386.089844 473.285156 385.941406 473.113281 C 385.882812 473.050781 385.847656 473.007812 385.820312 472.980469 C 385.808594 472.960938 385.792969 472.929688 385.75 472.867188 C 385.460938 472.441406 385.183594 472.015625 384.933594 471.566406 C 384.816406 471.351562 384.707031 471.136719 384.601562 470.917969 C 384.558594 470.828125 384.441406 470.550781 384.390625 470.445312 C 384.007812 469.445312 383.710938 468.414062 383.507812 467.363281 C 383.460938 467.128906 383.421875 466.894531 383.382812 466.660156 C 383.382812 466.652344 383.382812 466.652344 383.382812 466.648438 C 383.378906 466.609375 383.375 466.554688 383.371094 466.484375 C 383.335938 465.949219 383.300781 465.417969 383.308594 464.882812 C 383.3125 464.429688 383.351562 463.984375 383.382812 463.535156 C 383.386719 463.480469 383.390625 463.445312 383.394531 463.410156 C 383.394531 463.429688 383.394531 463.433594 383.402344 463.402344 C 383.449219 463.144531 383.492188 462.890625 383.546875 462.632812 C 383.644531 462.199219 383.757812 461.765625 383.894531 461.34375 C 383.960938 461.128906 384.03125 460.914062 384.109375 460.707031 C 384.152344 460.585938 384.265625 460.3125 384.316406 460.195312 C 384.703125 459.367188 385.136719 458.566406 385.640625 457.804688 C 385.773438 457.605469 385.90625 457.410156 386.046875 457.214844 C 386.085938 457.15625 386.257812 456.929688 386.335938 456.824219 C 386.417969 456.722656 386.605469 456.496094 386.648438 456.441406 C 386.835938 456.21875 387.03125 456 387.226562 455.785156 C 387.988281 454.953125 388.808594 454.171875 389.667969 453.441406 C 390.511719 452.726562 390.984375 452.375 392.113281 451.617188 C 393.199219 450.894531 394.316406 450.226562 395.464844 449.609375 C 400.601562 446.828125 406.226562 445.042969 412.039062 443.730469 C 426.9375 440.363281 442.941406 440.25 458.023438 442.421875 C 471.332031 444.335938 484.3125 448.453125 496.125 454.890625 C 500.316406 457.175781 504.363281 459.730469 508.203125 462.570312 C 508.574219 462.84375 508.941406 463.121094 509.308594 463.398438 C 509.378906 463.453125 509.46875 463.523438 509.535156 463.570312 C 509.699219 463.699219 509.859375 463.828125 510.023438 463.957031 C 510.667969 464.464844 511.308594 464.984375 511.9375 465.511719 C 512.960938 466.367188 513.964844 467.246094 514.9375 468.15625 C 515.734375 468.902344 516.535156 469.65625 517.265625 470.46875 C 519.703125 473.183594 523.695312 469.171875 521.265625 466.46875 C 518.9375 463.878906 516.171875 461.625 513.4375 459.496094 C 506.195312 453.855469 498.253906 449.183594 489.828125 445.550781 C 477.53125 440.25 464.550781 437.15625 451.21875 436.011719 C 437.433594 434.828125 423.277344 435.277344 409.769531 438.453125 C 400.339844 440.667969 390.042969 444.386719 383.3125 451.691406 C 380.710938 454.511719 378.636719 457.96875 377.964844 461.785156 C 377.226562 465.972656 377.925781 470.324219 379.878906 474.101562 C 384.050781 482.171875 393.765625 483.820312 401.910156 484.878906 C 407.429688 485.597656 412.980469 486.046875 418.496094 486.785156 C 425.246094 487.6875 431.953125 488.996094 438.484375 490.925781 C 445.707031 493.0625 452.71875 495.972656 459.476562 499.277344 C 464.65625 501.808594 469.710938 504.636719 474.445312 507.933594 C 477.320312 509.933594 479.621094 511.722656 482.300781 514.375 C 483.085938 515.152344 483.84375 515.957031 484.554688 516.800781 C 484.777344 517.066406 485.527344 518.15625 484.859375 517.160156 C 484.953125 517.300781 485.054688 517.433594 485.160156 517.570312 C 484.304688 522.5625 483.714844 527.613281 483.214844 532.648438 C 482.035156 544.558594 481.589844 556.582031 482.300781 568.539062 C 483.089844 581.777344 485.191406 595.261719 490.757812 607.402344 C 495.984375 618.808594 505.328125 628.039062 516.328125 633.988281 C 515.738281 635.195312 515.1875 636.425781 514.6875 637.683594 C 512.40625 643.445312 511.324219 649.699219 511.394531 655.890625 C 511.511719 665.851562 512.351562 675.824219 513.789062 685.683594 C 514.351562 689.539062 515.03125 693.375 515.824219 697.191406 C 516.132812 698.6875 517.898438 699.554688 519.304688 699.167969 C 520.855469 698.738281 521.589844 697.1875 521.277344 695.6875 C 519.820312 688.671875 518.769531 681.582031 518.085938 674.449219 C 517.671875 670.121094 517.386719 665.78125 517.210938 661.4375 C 517.074219 657.996094 516.929688 654.542969 517.238281 651.105469 C 517.6875 646.085938 519.175781 641.085938 521.425781 636.457031 C 533.0625 641.484375 546.910156 643.660156 559.113281 639.460938 C 564.40625 637.636719 569.242188 634.621094 572.679688 630.152344 C 575.804688 626.097656 577.816406 620.6875 577.578125 615.519531 C 577.402344 611.71875 575.8125 608.316406 572.742188 606.023438 Z M 571.878906 614.882812 C 571.847656 614.667969 571.859375 614.613281 571.878906 614.882812 Z M 569.550781 610.660156 C 569.847656 610.851562 569.71875 610.792969 569.542969 610.65625 C 569.546875 610.65625 569.546875 610.65625 569.550781 610.660156 Z M 564.6875 630.265625 C 564.386719 630.507812 564.585938 630.34375 564.6875 630.265625 Z M 571.902344 617.101562 C 571.890625 617.285156 571.867188 617.46875 571.855469 617.65625 C 571.851562 617.71875 571.847656 617.757812 571.847656 617.792969 C 571.84375 617.824219 571.835938 617.867188 571.824219 617.929688 C 571.632812 619.09375 571.382812 620.238281 571.027344 621.359375 C 570.875 621.832031 570.707031 622.292969 570.523438 622.753906 C 570.480469 622.855469 570.40625 623.039062 570.371094 623.109375 C 570.246094 623.382812 570.113281 623.652344 569.976562 623.917969 C 569.472656 624.894531 568.886719 625.820312 568.242188 626.707031 C 568.222656 626.738281 568.222656 626.738281 568.210938 626.757812 C 568.164062 626.816406 568.117188 626.875 568.070312 626.933594 C 567.90625 627.125 567.746094 627.320312 567.582031 627.507812 C 567.222656 627.917969 566.847656 628.316406 566.457031 628.699219 C 566.09375 629.054688 565.71875 629.398438 565.335938 629.730469 C 565.140625 629.894531 564.945312 630.058594 564.746094 630.21875 C 564.726562 630.234375 564.714844 630.242188 564.699219 630.253906 C 564.566406 630.355469 564.433594 630.457031 564.296875 630.550781 C 563.40625 631.179688 562.484375 631.761719 561.527344 632.28125 C 561.058594 632.535156 560.582031 632.777344 560.097656 633.007812 C 559.855469 633.121094 559.609375 633.234375 559.363281 633.339844 C 559.335938 633.351562 559.335938 633.351562 559.320312 633.359375 C 559.183594 633.417969 559.042969 633.472656 558.90625 633.527344 C 556.652344 634.402344 554.316406 635.03125 551.933594 635.445312 C 551.59375 635.503906 551.253906 635.558594 550.914062 635.605469 C 550.769531 635.628906 550.722656 635.636719 550.703125 635.640625 C 550.695312 635.640625 550.652344 635.644531 550.484375 635.664062 C 549.832031 635.738281 549.179688 635.800781 548.523438 635.847656 C 547.238281 635.941406 545.945312 635.980469 544.65625 635.964844 C 541.929688 635.941406 539.308594 635.695312 536.863281 635.269531 C 532.496094 634.507812 528.242188 633.25 524.191406 631.527344 C 525.484375 629.523438 526.917969 627.628906 528.472656 625.878906 C 530.015625 624.144531 531.667969 622.507812 533.417969 620.980469 C 535.292969 619.335938 536.367188 618.507812 538.425781 617.109375 C 540.234375 615.878906 542.109375 614.75 544.042969 613.734375 C 544.960938 613.25 545.890625 612.796875 546.832031 612.367188 C 547.054688 612.265625 547.277344 612.164062 547.5 612.066406 C 547.5625 612.039062 547.816406 611.929688 547.941406 611.875 C 548.082031 611.816406 548.414062 611.679688 548.492188 611.648438 C 548.75 611.546875 549.007812 611.445312 549.265625 611.347656 C 551.078125 610.65625 552.929688 610.066406 554.816406 609.605469 C 555.683594 609.394531 556.554688 609.207031 557.433594 609.054688 C 557.640625 609.019531 557.84375 608.988281 558.050781 608.953125 C 558.097656 608.945312 558.265625 608.921875 558.386719 608.902344 C 558.507812 608.890625 558.664062 608.871094 558.710938 608.863281 C 558.941406 608.839844 559.171875 608.816406 559.40625 608.792969 C 560.984375 608.648438 562.578125 608.625 564.15625 608.773438 C 564.3125 608.789062 564.46875 608.808594 564.625 608.824219 C 564.644531 608.828125 564.65625 608.828125 564.679688 608.835938 C 565.035156 608.898438 565.386719 608.957031 565.738281 609.039062 C 566.382812 609.183594 567.007812 609.375 567.628906 609.59375 C 567.710938 609.621094 567.792969 609.65625 567.871094 609.6875 C 567.894531 609.699219 567.898438 609.703125 567.925781 609.71875 C 568.230469 609.878906 568.535156 610.019531 568.832031 610.195312 C 569.074219 610.335938 569.300781 610.5 569.539062 610.652344 C 569.625 610.726562 569.714844 610.792969 569.796875 610.871094 C 569.996094 611.0625 570.199219 611.25 570.386719 611.453125 C 570.472656 611.546875 570.554688 611.652344 570.640625 611.742188 C 570.890625 612.175781 571.132812 612.59375 571.367188 613.03125 C 571.417969 613.15625 571.519531 613.390625 571.566406 613.550781 C 571.671875 613.894531 571.75 614.238281 571.824219 614.585938 C 571.847656 614.6875 571.859375 614.789062 571.878906 614.890625 C 571.878906 614.910156 571.878906 614.914062 571.878906 614.9375 C 571.898438 615.304688 571.929688 615.667969 571.933594 616.035156 C 571.9375 616.390625 571.925781 616.746094 571.902344 617.101562 Z M 399.460938 281.785156 C 392.484375 272.789062 387.039062 261.75 388.824219 250.074219 C 390.957031 236.136719 404.3125 225.785156 418.335938 227.113281 C 428.210938 228.046875 436.515625 234.144531 440.667969 242.578125 C 443.628906 236.5 448.765625 231.570312 455.285156 228.9375 C 464.589844 225.179688 475.304688 227.097656 483.011719 233.386719 C 490.988281 239.902344 494.105469 250.289062 492.40625 260.253906 C 490.695312 270.273438 484.570312 279.164062 477.914062 286.582031 C 471.222656 294.039062 463.40625 300.457031 455.261719 306.257812 C 454.007812 307.148438 452.109375 306.46875 451.390625 305.242188 C 450.570312 303.839844 451.164062 302.257812 452.40625 301.371094 C 460.621094 295.519531 468.433594 288.945312 475.042969 281.296875 C 480.71875 274.726562 485.914062 266.78125 487.070312 257.988281 C 488.125 249.976562 485.007812 241.730469 478.394531 236.917969 C 471.714844 232.0625 462.613281 231.246094 455.273438 235.132812 C 448.070312 238.953125 443.582031 246.402344 443.515625 254.539062 C 443.488281 258.1875 437.886719 258.179688 437.859375 254.539062 C 437.808594 247.898438 434.84375 241.65625 429.679688 237.457031 C 424.710938 233.421875 417.886719 231.769531 411.625 233.085938 C 406.03125 234.261719 400.96875 237.5625 397.804688 242.351562 C 396.171875 244.820312 395.0625 247.523438 394.484375 250.425781 C 394.171875 251.976562 394.070312 253.550781 394.105469 255.128906 C 394.117188 255.722656 394.148438 256.3125 394.195312 256.898438 C 394.210938 257.058594 394.308594 257.949219 394.304688 257.976562 C 395.679688 267.847656 401.703125 276.351562 408.34375 283.550781 C 415.082031 290.851562 422.570312 296.9375 430.5 302.445312 C 434.257812 305.054688 438.109375 307.601562 442.117188 309.820312 C 445.304688 311.589844 442.449219 316.472656 439.261719 314.707031 C 439.175781 314.660156 439.089844 314.609375 439.003906 314.5625 C 433.582031 311.660156 428.445312 308.015625 423.511719 304.371094 C 414.660156 297.828125 406.226562 290.511719 399.460938 281.785156 Z M 399.460938 281.785156 " fill-opacity="1" fill-rule="nonzero"/></g></svg>