<svg xmlns="http://www.w3.org/2000/svg" xmlns:xlink="http://www.w3.org/1999/xlink" width="1200" zoomAndPan="magnify" viewBox="0 0 900 899.99999" height="1200" preserveAspectRatio="xMidYMid meet" version="1.0"><defs><clipPath id="5e39048781"><path d="M 95.300781 90.003906 L 810 90.003906 L 810 810 L 95.300781 810 Z M 95.300781 90.003906 " clip-rule="nonzero"/></clipPath><clipPath id="6411c2c13f"><path d="M 120.050781 90.003906 L 785.242188 90.003906 C 798.910156 90.003906 809.992188 101.085938 809.992188 114.753906 L 809.992188 785.246094 C 809.992188 798.914062 798.910156 809.996094 785.242188 809.996094 L 120.050781 809.996094 C 106.382812 809.996094 95.300781 798.914062 95.300781 785.246094 L 95.300781 114.753906 C 95.300781 101.085938 106.382812 90.003906 120.050781 90.003906 Z M 120.050781 90.003906 " clip-rule="nonzero"/></clipPath><clipPath id="650e7685c2"><path d="M 158 210.273438 L 743 210.273438 L 743 689 L 158 689 Z M 158 210.273438 " clip-rule="nonzero"/></clipPath></defs><g clip-path="url(#5e39048781)"><g clip-path="url(#6411c2c13f)"><path stroke-linecap="butt" transform="matrix(0.75, 0, 0, 0.75, 95.301283, 90.003699)" fill="none" stroke-linejoin="miter" d="M 32.999333 0.000275947 L 919.921254 0.000275947 C 938.145213 0.000275947 952.921256 14.776318 952.921256 33.000278 L 952.921256 926.989908 C 952.921256 945.213867 938.145213 959.98991 919.921254 959.98991 L 32.999333 959.98991 C 14.775373 959.98991 -0.000669017 945.213867 -0.000669017 926.989908 L -0.000669017 33.000278 C -0.000669017 14.776318 14.775373 0.000275947 32.999333 0.000275947 Z M 32.999333 0.000275947 " stroke="#4d3294" stroke-width="8" stroke-opacity="1" stroke-miterlimit="4"/></g></g><g clip-path="url(#650e7685c2)"><path fill="#ff914d" d="M 544.070312 625.863281 C 544.070312 607.003906 544.070312 588.148438 544.070312 569.289062 C 544.070312 555.128906 544.070312 540.96875 544.070312 526.804688 C 544.070312 524.550781 544.125 522.285156 544.070312 520.027344 C 543.882812 512.683594 538.808594 505.886719 531.394531 504.5 C 529.21875 504.09375 527.046875 504.164062 524.847656 504.164062 C 508.699219 504.164062 492.554688 504.164062 476.40625 504.164062 C 474.992188 504.164062 473.578125 504.164062 472.167969 504.164062 C 470.570312 504.164062 469.402344 504.820312 468.640625 505.777344 C 467.847656 506.621094 467.34375 507.71875 467.421875 508.910156 C 467.855469 515.550781 469.835938 521.480469 472.792969 527.394531 C 475.089844 531.984375 477.851562 536.375 479.835938 541.113281 C 481.730469 545.632812 482.753906 550.453125 481.359375 555.257812 C 479.925781 560.195312 476.402344 564.144531 472.023438 566.726562 C 462.625 572.265625 449.097656 573.945312 439.113281 569 C 436.140625 567.484375 433.4375 565.464844 431.277344 562.964844 C 430.953125 562.589844 430.65625 562.199219 430.355469 561.800781 C 430.277344 561.699219 430.195312 561.597656 430.117188 561.492188 C 429.785156 561.03125 429.476562 560.554688 429.179688 560.066406 C 429.140625 560 429.097656 559.933594 429.054688 559.867188 C 428.792969 559.421875 428.550781 558.957031 428.320312 558.488281 C 428.246094 558.339844 428.167969 558.195312 428.097656 558.042969 C 427.910156 557.640625 427.746094 557.234375 427.59375 556.828125 C 427.527344 556.652344 427.460938 556.472656 427.402344 556.296875 C 427.261719 555.882812 427.136719 555.464844 427.03125 555.042969 C 426.988281 554.878906 426.949219 554.714844 426.914062 554.546875 C 426.820312 554.132812 426.738281 553.71875 426.675781 553.300781 C 426.644531 553.085938 426.621094 552.871094 426.597656 552.652344 C 426.558594 552.296875 426.515625 551.941406 426.496094 551.585938 C 426.472656 551.195312 426.46875 550.800781 426.46875 550.410156 C 426.46875 550.230469 426.460938 550.054688 426.464844 549.875 C 426.535156 547.503906 426.996094 545.128906 427.683594 542.804688 C 427.734375 542.636719 427.773438 542.46875 427.824219 542.300781 C 430.121094 534.882812 434.167969 527.984375 436.621094 520.648438 C 436.660156 520.535156 436.703125 520.417969 436.742188 520.300781 C 436.921875 519.746094 437.089844 519.191406 437.25 518.632812 C 437.304688 518.433594 437.367188 518.238281 437.421875 518.039062 C 437.558594 517.539062 437.675781 517.035156 437.792969 516.53125 C 437.851562 516.28125 437.914062 516.035156 437.96875 515.785156 C 438.070312 515.308594 438.148438 514.820312 438.230469 514.335938 C 438.277344 514.066406 438.332031 513.796875 438.371094 513.527344 C 438.441406 513.015625 438.492188 512.5 438.539062 511.984375 C 438.5625 511.734375 438.597656 511.488281 438.617188 511.238281 C 438.671875 510.46875 438.699219 509.695312 438.691406 508.90625 C 438.667969 506.34375 436.535156 504.164062 433.945312 504.164062 C 413.621094 504.164062 393.296875 504.164062 372.972656 504.164062 C 371.632812 504.164062 370.292969 504.164062 368.953125 504.164062 C 368.953125 483.917969 368.953125 463.671875 368.953125 443.421875 C 368.953125 442.464844 368.953125 441.503906 368.953125 440.542969 C 373.542969 442.476562 377.6875 445.503906 381.820312 448.277344 C 387.96875 452.40625 394.4375 456.054688 401.964844 456.6875 C 410.105469 457.375 418.386719 453.636719 424.046875 447.910156 C 430.273438 441.605469 433.398438 432.980469 434.15625 424.277344 C 434.988281 414.71875 432.574219 404.570312 426.859375 396.792969 C 426.722656 396.605469 426.570312 396.441406 426.417969 396.269531 C 426.320312 396.125 426.230469 395.972656 426.121094 395.832031 C 418.941406 386.570312 407.523438 382.050781 395.996094 383.914062 C 386.574219 385.433594 378.269531 391.175781 368.953125 392.855469 C 368.953125 377.667969 368.953125 362.480469 368.953125 347.292969 C 368.953125 342.265625 367.898438 337.519531 364.1875 333.8125 C 360.390625 330.015625 355.539062 329.050781 350.414062 329.050781 C 338.925781 329.050781 327.433594 329.050781 315.945312 329.050781 C 309.667969 329.050781 303.394531 329.050781 297.117188 329.050781 C 290.5625 329.050781 284.289062 327.839844 278.738281 324.800781 C 284.898438 321.226562 290.738281 317.078125 295.449219 311.695312 C 302.203125 303.652344 306.363281 293.253906 304.074219 282.683594 C 302.09375 273.535156 294.839844 266.121094 286.171875 262.996094 C 277.210938 259.761719 267.183594 262.34375 260.027344 268.328125 C 251.570312 275.402344 249.507812 286.363281 250.960938 296.839844 C 252.273438 306.300781 255.996094 315.433594 262.019531 322.820312 C 255.804688 325.71875 249.269531 328.113281 242.472656 328.828125 C 235.984375 329.511719 229.25 329.046875 222.730469 329.046875 C 216.882812 329.046875 211.03125 329.046875 205.183594 329.046875 C 200.765625 329.046875 196.5 328.917969 192.488281 331.21875 C 187.367188 334.160156 184.464844 339.625 184.347656 345.449219 C 184.328125 346.414062 184.347656 347.386719 184.347656 348.355469 C 184.347656 353.460938 184.347656 358.566406 184.347656 363.671875 C 184.347656 381.664062 184.347656 399.65625 184.347656 417.648438 C 184.347656 437.320312 184.347656 456.992188 184.347656 476.664062 C 184.347656 487.238281 184 497.878906 184.347656 508.449219 C 184.355469 508.601562 184.347656 508.753906 184.347656 508.90625 C 184.347656 514.664062 184.347656 520.421875 184.347656 526.175781 C 184.347656 539.953125 184.347656 553.726562 184.347656 567.5 C 184.347656 583.785156 184.347656 600.074219 184.347656 616.359375 C 184.347656 629.851562 184.347656 643.34375 184.347656 656.835938 C 184.347656 660.875 184.347656 664.914062 184.347656 668.957031 C 184.347656 671.34375 184.242188 673.734375 184.683594 676.09375 C 186.164062 684.003906 193.433594 688.746094 201.109375 688.765625 C 203.90625 688.773438 206.703125 688.765625 209.496094 688.765625 C 221.496094 688.765625 233.496094 688.765625 245.492188 688.765625 C 261.589844 688.765625 277.691406 688.765625 293.789062 688.765625 C 308.691406 688.765625 323.59375 688.765625 338.496094 688.765625 C 346.683594 688.765625 354.871094 688.765625 363.058594 688.765625 C 363.441406 688.765625 363.824219 688.765625 364.207031 688.765625 C 371.847656 688.765625 379.492188 688.765625 387.132812 688.765625 C 404.378906 688.765625 421.621094 688.765625 438.867188 688.765625 C 457.195312 688.765625 475.523438 688.765625 493.851562 688.765625 C 504.738281 688.765625 515.628906 688.765625 526.519531 688.765625 C 527.078125 688.765625 527.640625 688.78125 528.203125 688.765625 C 535.546875 688.589844 542.347656 683.5 543.730469 676.09375 C 544.277344 673.175781 544.066406 670.09375 544.066406 667.140625 C 544.070312 653.382812 544.070312 639.621094 544.070312 625.863281 Z M 261.371094 300.792969 C 259.445312 293.378906 258.6875 284.386719 263.746094 277.996094 C 267.460938 273.300781 273.820312 270.40625 279.8125 271.152344 C 286.042969 271.925781 291.726562 276.53125 294.078125 282.300781 C 297.226562 290.035156 293.824219 298.933594 288.742188 304.984375 C 283.710938 310.734375 277.367188 314.820312 270.722656 318.421875 C 266.179688 313.425781 263.089844 307.40625 261.371094 300.792969 Z M 193.855469 344.648438 C 194.269531 340.386719 197.933594 338.539062 201.785156 338.539062 C 206.550781 338.539062 211.320312 338.539062 216.085938 338.539062 C 222.429688 338.539062 228.777344 338.539062 235.125 338.539062 C 243.832031 338.539062 252.03125 337.09375 260.152344 333.886719 C 263.230469 332.671875 266.226562 331.285156 269.195312 329.835938 C 275.25 334.390625 282.207031 337.175781 289.839844 338.144531 C 295.671875 338.882812 301.695312 338.539062 307.5625 338.539062 C 319.949219 338.539062 332.339844 338.539062 344.726562 338.539062 C 347.378906 338.539062 350.042969 338.464844 352.699219 338.539062 C 357.089844 338.660156 359.453125 342.128906 359.464844 346.210938 C 359.492188 354.941406 359.464844 363.671875 359.464844 372.398438 C 359.464844 380.957031 359.464844 389.515625 359.464844 398.074219 C 359.464844 399.746094 360.1875 400.941406 361.21875 401.699219 C 362.042969 402.390625 363.082031 402.828125 364.210938 402.820312 C 375.328125 402.714844 384.414062 396.707031 394.835938 393.871094 C 399.414062 392.625 403.898438 392.515625 408.40625 394.101562 C 412.601562 395.574219 416.082031 398.464844 418.863281 401.875 C 426.644531 412.75 427.445312 430.101562 418.09375 440.402344 C 413.960938 444.957031 407.863281 447.972656 401.605469 447.171875 C 395.605469 446.40625 390.351562 442.617188 385.476562 439.320312 C 379.367188 435.1875 372.929688 430.753906 365.472656 429.640625 C 362.484375 429.195312 359.464844 430.835938 359.464844 434.214844 C 359.464844 456.042969 359.464844 477.871094 359.464844 499.699219 C 359.464844 501.1875 359.464844 502.675781 359.464844 504.164062 C 340.839844 504.164062 322.214844 504.164062 303.585938 504.164062 C 302.292969 504.164062 301 504.164062 299.707031 504.164062 C 300.300781 491.488281 308.195312 480.421875 310.378906 467.910156 C 312.789062 454.082031 307.898438 440.019531 296.320312 431.726562 C 285.535156 424.003906 270.257812 423.0625 258.964844 430.214844 C 247.925781 437.210938 241.734375 449.847656 242.246094 462.816406 C 242.570312 471.085938 245.171875 479.054688 248.917969 486.378906 C 251.789062 491.992188 256.542969 497.703125 257.25 504.164062 C 237.578125 504.164062 217.90625 504.164062 198.234375 504.164062 C 196.769531 504.164062 195.304688 504.164062 193.839844 504.164062 C 193.839844 497.164062 193.839844 490.167969 193.839844 483.167969 C 193.839844 464.402344 193.839844 445.632812 193.839844 426.867188 C 193.839844 408.082031 193.839844 389.296875 193.839844 370.511719 C 193.839844 364.398438 193.839844 358.289062 193.839844 352.175781 C 193.839844 349.703125 193.617188 347.117188 193.855469 344.648438 Z M 359.464844 674.609375 C 359.464844 676.167969 359.464844 677.722656 359.464844 679.28125 C 355.390625 679.28125 351.316406 679.28125 347.246094 679.28125 C 333.75 679.28125 320.253906 679.28125 306.757812 679.28125 C 290.621094 679.28125 274.484375 679.28125 258.351562 679.28125 C 244.777344 679.28125 231.207031 679.28125 217.636719 679.28125 C 211.839844 679.28125 206.011719 679.453125 200.21875 679.28125 C 195.691406 679.144531 193.839844 675.511719 193.839844 671.523438 C 193.839844 668.488281 193.839844 665.453125 193.839844 662.414062 C 193.839844 650.242188 193.839844 638.070312 193.839844 625.898438 C 193.839844 609.984375 193.839844 594.070312 193.839844 578.15625 C 193.839844 563.523438 193.839844 548.894531 193.839844 534.265625 C 193.839844 527.394531 193.839844 520.523438 193.839844 513.652344 C 213.445312 513.652344 233.054688 513.652344 252.664062 513.652344 C 255.707031 513.652344 258.753906 513.652344 261.800781 513.652344 C 263.648438 513.652344 266.101562 512.191406 266.375 510.167969 C 267.390625 502.636719 265.472656 496.28125 261.769531 489.769531 C 258.542969 484.101562 255.257812 478.675781 253.402344 472.363281 C 250.277344 461.734375 251.371094 450.121094 259.421875 441.949219 C 267.019531 434.234375 278.574219 432.730469 288.109375 437.796875 C 298.164062 443.144531 303.230469 454.679688 301.15625 465.792969 C 298.394531 480.59375 288.660156 493.261719 290.335938 508.90625 C 290.605469 511.460938 292.285156 513.652344 295.078125 513.652344 C 315.285156 513.652344 335.496094 513.652344 355.703125 513.652344 C 356.957031 513.652344 358.210938 513.652344 359.464844 513.652344 C 359.464844 528.582031 359.464844 543.511719 359.464844 558.441406 C 359.464844 559.15625 359.464844 559.871094 359.464844 560.585938 C 348.800781 559.503906 338.40625 555.527344 327.574219 556.710938 C 326.839844 556.792969 326.113281 556.902344 325.394531 557.03125 C 324.609375 557.144531 323.824219 557.277344 323.03125 557.449219 C 319.472656 558.324219 316.195312 559.871094 313.230469 561.867188 C 312.609375 562.273438 311.996094 562.695312 311.402344 563.144531 C 311.097656 563.375 310.804688 563.617188 310.507812 563.859375 C 310.230469 564.09375 309.941406 564.3125 309.667969 564.554688 C 306.761719 567.085938 304.273438 570.140625 302.355469 573.628906 C 299.976562 577.960938 298.632812 582.664062 298.359375 587.410156 C 298.339844 587.761719 298.308594 588.113281 298.300781 588.46875 C 298.300781 588.480469 298.300781 588.492188 298.300781 588.503906 C 298.285156 589.164062 298.292969 589.828125 298.324219 590.488281 C 298.355469 591.6875 298.433594 592.890625 298.617188 594.09375 C 299.023438 596.730469 299.835938 599.238281 300.914062 601.617188 C 300.957031 601.714844 301.011719 601.8125 301.054688 601.910156 C 301.804688 603.523438 302.65625 605.089844 303.664062 606.554688 C 303.773438 606.722656 303.890625 606.882812 304.007812 607.046875 C 304.351562 607.53125 304.699219 608.011719 305.070312 608.476562 C 305.527344 609.058594 306.011719 609.621094 306.507812 610.171875 C 306.632812 610.3125 306.761719 610.449219 306.890625 610.585938 C 311.960938 616.019531 318.832031 619.855469 326.136719 620.914062 C 327.589844 621.121094 329.035156 621.207031 330.480469 621.210938 C 331.304688 621.210938 332.128906 621.183594 332.949219 621.128906 C 333.175781 621.113281 333.402344 621.105469 333.628906 621.085938 C 333.863281 621.0625 334.09375 621.066406 334.328125 621.039062 C 334.539062 621.011719 334.742188 620.960938 334.949219 620.933594 C 338.484375 620.5 341.972656 619.613281 345.382812 618.488281 C 350.035156 616.960938 354.679688 614.9375 359.464844 613.679688 C 359.464844 633.992188 359.464844 654.300781 359.464844 674.609375 Z M 534.582031 522.847656 C 534.582031 534.792969 534.582031 546.738281 534.582031 558.683594 C 534.582031 577 534.582031 595.3125 534.582031 613.628906 C 534.582031 629.132812 534.582031 644.636719 534.582031 660.140625 C 534.582031 663.96875 534.582031 667.796875 534.582031 671.628906 C 534.582031 675.757812 532.507812 679.148438 527.96875 679.28125 C 519.371094 679.527344 510.734375 679.28125 502.136719 679.28125 C 484.914062 679.28125 467.691406 679.28125 450.472656 679.28125 C 432.648438 679.28125 414.824219 679.28125 397 679.28125 C 387.648438 679.28125 378.300781 679.28125 368.953125 679.28125 C 368.953125 658.65625 368.953125 638.03125 368.953125 617.40625 C 368.953125 614.269531 368.953125 611.132812 368.953125 607.996094 C 368.953125 605.667969 366.765625 602.925781 364.210938 603.25 C 363.054688 603.394531 361.917969 603.597656 360.792969 603.824219 C 356.519531 604.664062 352.417969 605.96875 348.269531 607.453125 C 346.832031 607.964844 345.386719 608.492188 343.925781 609 C 342.800781 609.371094 341.671875 609.734375 340.53125 610.074219 C 335.984375 611.429688 331.339844 612.144531 326.820312 611.378906 C 324.707031 610.976562 322.65625 610.285156 320.734375 609.324219 C 320.21875 609.066406 319.730469 608.757812 319.234375 608.464844 C 312.046875 604.035156 307.558594 596.34375 307.777344 588.292969 C 307.789062 588.015625 307.8125 587.738281 307.835938 587.457031 C 307.871094 586.949219 307.898438 586.4375 307.972656 585.921875 C 308.089844 585.125 308.253906 584.328125 308.464844 583.539062 C 308.550781 583.214844 308.671875 582.894531 308.773438 582.570312 C 308.941406 582.042969 309.121094 581.519531 309.332031 581 C 309.5625 580.429688 309.796875 579.855469 310.085938 579.292969 C 313.257812 573.035156 318.695312 568.289062 325.554688 566.597656 C 331.6875 565.269531 337.964844 566.300781 344.03125 567.496094 C 344.488281 567.585938 344.941406 567.675781 345.394531 567.769531 C 347.359375 568.160156 349.328125 568.554688 351.300781 568.917969 C 351.449219 568.945312 351.597656 568.972656 351.746094 569 C 352.371094 569.113281 353 569.21875 353.625 569.324219 C 353.847656 569.359375 354.066406 569.398438 354.285156 569.433594 C 354.859375 569.523438 355.433594 569.605469 356.007812 569.6875 C 356.265625 569.722656 356.527344 569.761719 356.785156 569.796875 C 357.335938 569.867188 357.886719 569.929688 358.4375 569.988281 C 358.714844 570.015625 358.988281 570.050781 359.265625 570.078125 C 359.835938 570.132812 360.40625 570.171875 360.976562 570.210938 C 361.230469 570.226562 361.484375 570.25 361.738281 570.265625 C 362.5625 570.308594 363.382812 570.335938 364.210938 570.339844 C 366.773438 570.351562 368.953125 568.15625 368.953125 565.597656 C 368.953125 549.085938 368.953125 532.574219 368.953125 516.0625 C 368.953125 515.261719 368.953125 514.457031 368.953125 513.652344 C 387.695312 513.652344 406.4375 513.652344 425.183594 513.652344 C 426.367188 513.652344 427.550781 513.652344 428.734375 513.652344 C 428.707031 513.800781 428.675781 513.945312 428.644531 514.09375 C 428.566406 514.464844 428.496094 514.839844 428.402344 515.207031 C 428.320312 515.539062 428.222656 515.871094 428.128906 516.203125 C 428.03125 516.554688 427.9375 516.90625 427.828125 517.253906 C 427.726562 517.589844 427.609375 517.917969 427.5 518.25 C 427.382812 518.59375 427.265625 518.941406 427.140625 519.28125 C 427.023438 519.605469 426.898438 519.925781 426.777344 520.246094 C 426.640625 520.597656 426.507812 520.949219 426.367188 521.296875 C 426.238281 521.605469 426.109375 521.914062 425.980469 522.222656 C 425.828125 522.582031 425.679688 522.941406 425.523438 523.300781 C 425.394531 523.601562 425.261719 523.902344 425.128906 524.203125 C 424.976562 524.542969 424.824219 524.886719 424.671875 525.226562 C 424.488281 525.640625 424.300781 526.054688 424.113281 526.464844 C 423.941406 526.84375 423.773438 527.222656 423.597656 527.597656 C 423.355469 528.132812 423.113281 528.664062 422.871094 529.199219 C 422.601562 529.789062 422.339844 530.382812 422.074219 530.972656 C 422.027344 531.082031 421.980469 531.1875 421.929688 531.296875 C 421.640625 531.957031 421.355469 532.617188 421.074219 533.28125 C 421.058594 533.320312 421.042969 533.355469 421.023438 533.394531 C 420.734375 534.085938 420.453125 534.777344 420.179688 535.476562 C 420.167969 535.5 420.160156 535.523438 420.152344 535.546875 C 419.882812 536.238281 419.625 536.933594 419.378906 537.632812 C 419.359375 537.683594 419.34375 537.734375 419.324219 537.785156 C 419.09375 538.445312 418.878906 539.109375 418.675781 539.773438 C 418.632812 539.910156 418.597656 540.050781 418.554688 540.1875 C 418.386719 540.757812 418.226562 541.335938 418.082031 541.914062 C 418.0625 541.992188 418.035156 542.074219 418.015625 542.152344 C 417.957031 542.390625 417.917969 542.632812 417.863281 542.871094 C 417.792969 543.191406 417.707031 543.511719 417.644531 543.835938 C 417.625 543.921875 417.617188 544.011719 417.601562 544.097656 C 417.457031 544.855469 417.339844 545.617188 417.246094 546.382812 C 417.242188 546.386719 417.242188 546.386719 417.242188 546.390625 C 416.648438 551.183594 417.0625 556.042969 418.910156 560.582031 C 418.949219 560.675781 418.996094 560.765625 419.035156 560.855469 C 419.402344 561.78125 419.808594 562.703125 420.285156 563.605469 C 422.390625 567.605469 425.480469 571.097656 429.089844 573.867188 C 429.289062 574.023438 429.492188 574.179688 429.695312 574.328125 C 430.042969 574.585938 430.394531 574.832031 430.75 575.070312 C 430.980469 575.226562 431.195312 575.398438 431.429688 575.550781 C 431.648438 575.691406 431.878906 575.8125 432.101562 575.953125 C 432.25 576.042969 432.398438 576.128906 432.550781 576.21875 C 433.1875 576.59375 433.832031 576.957031 434.492188 577.285156 C 434.53125 577.308594 434.570312 577.3125 434.613281 577.332031 C 437.277344 578.679688 440.09375 579.679688 443.011719 580.328125 C 445.335938 580.847656 447.714844 581.144531 450.113281 581.261719 C 457.40625 581.609375 464.855469 580.203125 471.410156 577.496094 C 483.5625 572.472656 493.019531 561.285156 491.308594 547.46875 C 489.777344 535.097656 480.417969 525.484375 477.640625 513.652344 C 489.769531 513.652344 501.898438 513.652344 514.023438 513.652344 C 518.878906 513.652344 524.039062 513.164062 528.867188 513.660156 C 532.285156 514.011719 534.503906 516.917969 534.582031 520.203125 C 534.601562 521.082031 534.582031 521.964844 534.582031 522.847656 Z M 596.703125 454.257812 C 599.773438 440.761719 593.988281 426.429688 583.796875 417.429688 C 582.714844 416.476562 581.578125 415.582031 580.417969 414.714844 C 580.714844 414.648438 581.011719 414.578125 581.308594 414.511719 C 585.867188 413.535156 590.46875 412.78125 595.070312 412.074219 C 597.203125 411.742188 599.339844 411.433594 601.46875 411.097656 C 601.644531 411.070312 601.765625 411.050781 601.859375 411.035156 C 601.875 411.03125 601.875 411.03125 601.890625 411.03125 C 602.507812 410.976562 603.125 410.894531 603.746094 410.839844 C 606.207031 410.617188 608.679688 410.492188 611.148438 410.390625 C 624.992188 409.824219 639 409.792969 652.832031 410.714844 C 655.394531 410.886719 657.574219 408.402344 657.574219 405.972656 C 657.574219 400.261719 657.574219 394.554688 657.574219 388.84375 C 657.574219 375.191406 657.574219 361.539062 657.574219 347.886719 C 657.574219 331.765625 657.574219 315.644531 657.574219 299.519531 C 657.574219 294.878906 657.574219 290.234375 657.574219 285.59375 C 657.574219 276.914062 657.574219 268.242188 657.574219 259.5625 C 657.574219 258.824219 657.574219 258.082031 657.574219 257.339844 C 657.574219 254.121094 657.574219 250.90625 657.574219 247.691406 C 657.574219 246.886719 657.578125 246.082031 657.574219 245.277344 C 657.574219 245.035156 657.578125 244.796875 657.574219 244.554688 C 657.574219 244.496094 657.5625 244.4375 657.5625 244.378906 C 657.53125 242.851562 657.429688 241.328125 657.085938 239.808594 C 656.1875 235.8125 653.941406 232.53125 650.949219 230.179688 C 649.339844 228.847656 647.492188 227.753906 645.382812 227.027344 C 640.695312 225.414062 634.757812 226.113281 629.875 226.113281 C 620.574219 226.113281 611.273438 226.113281 601.972656 226.113281 C 599.320312 226.113281 596.664062 226.113281 594.007812 226.113281 C 577.859375 226.113281 561.710938 226.113281 545.5625 226.113281 C 539.621094 226.113281 533.679688 226.113281 527.738281 226.113281 C 520.171875 226.113281 512.605469 226.113281 505.035156 226.113281 C 503.375 226.113281 501.714844 226.113281 500.054688 226.113281 C 495.8125 226.113281 491.21875 225.742188 486.988281 226.628906 C 486.496094 226.734375 486 226.84375 485.515625 226.984375 C 485.4375 227.007812 485.355469 227.03125 485.277344 227.058594 C 484 227.441406 482.75 227.957031 481.542969 228.707031 C 481.421875 228.78125 481.316406 228.871094 481.199219 228.949219 C 481 229.078125 480.820312 229.222656 480.625 229.355469 C 480.160156 229.679688 479.710938 230.023438 479.285156 230.386719 C 479.023438 230.609375 478.78125 230.84375 478.535156 231.078125 C 478.164062 231.441406 477.804688 231.808594 477.472656 232.199219 C 477.296875 232.402344 477.125 232.601562 476.960938 232.808594 C 476.507812 233.390625 476.078125 233.988281 475.699219 234.617188 C 475.6875 234.640625 475.671875 234.660156 475.660156 234.679688 C 474 237.425781 473.054688 240.601562 472.972656 243.9375 C 472.972656 244.214844 472.972656 244.496094 472.972656 244.773438 C 472.972656 248.84375 472.972656 252.917969 472.972656 256.988281 C 472.972656 266.773438 472.972656 276.558594 472.972656 286.34375 C 472.972656 287.613281 472.972656 288.878906 472.972656 290.148438 C 472.972656 290.894531 472.972656 291.640625 472.972656 292.386719 C 472.972656 295.128906 475.160156 296.886719 477.71875 297.128906 C 484.117188 297.742188 490.289062 296.457031 496.257812 294.210938 C 501.777344 292.132812 507.113281 289.460938 512.867188 288.070312 C 523.714844 285.449219 533.8125 291.261719 538.65625 301.03125 C 543.53125 310.855469 542.851562 324.183594 536.429688 333.160156 C 533.425781 337.359375 528.832031 340.460938 523.753906 341.472656 C 519.226562 342.378906 514.730469 341.082031 510.726562 338.980469 C 499.742188 333.210938 490.902344 323.921875 477.71875 323.683594 C 475.152344 323.640625 472.972656 325.894531 472.972656 328.429688 C 472.972656 351.085938 472.972656 373.742188 472.972656 396.402344 C 472.972656 399.589844 472.972656 402.78125 472.972656 405.96875 C 472.972656 407.578125 473.640625 408.75 474.609375 409.511719 C 475.449219 410.285156 476.535156 410.78125 477.71875 410.714844 C 486.121094 410.25 494.601562 410.507812 503.011719 410.632812 C 514.617188 410.808594 526.230469 411.109375 537.824219 411.746094 C 542.125 411.980469 546.433594 412.238281 550.714844 412.730469 C 550.8125 412.742188 551.300781 412.800781 551.554688 412.832031 C 551.675781 412.847656 551.792969 412.863281 551.851562 412.875 C 552.789062 413.027344 553.710938 413.210938 554.640625 413.425781 C 555 413.507812 555.355469 413.609375 555.714844 413.699219 C 551.054688 416.417969 546.824219 419.832031 543.390625 424.046875 C 534.683594 435.207031 531.550781 449.6875 538.957031 462.410156 C 545.542969 473.726562 558.074219 480 571.027344 477.894531 C 583.136719 475.925781 593.960938 466.296875 596.703125 454.257812 Z M 549.578125 403.117188 C 544.160156 402.558594 538.714844 402.28125 533.277344 402.027344 C 519.640625 401.398438 505.984375 401.097656 492.332031 401.039062 C 489.046875 401.027344 485.753906 401.003906 482.460938 401.066406 C 482.460938 380.042969 482.460938 359.019531 482.460938 338 C 482.460938 336.609375 482.460938 335.21875 482.460938 333.828125 C 491.726562 336.136719 499.164062 344.089844 507.710938 348.054688 C 513.515625 350.746094 519.570312 351.914062 525.917969 350.691406 C 532.140625 349.492188 538.109375 345.839844 542.222656 341.046875 C 560.046875 320.269531 550.300781 280.503906 520.5625 277.949219 C 513.085938 277.308594 505.914062 280.097656 499.144531 282.890625 C 493.617188 285.171875 488.257812 287.242188 482.460938 287.664062 C 482.460938 280.769531 482.460938 273.875 482.460938 266.980469 C 482.460938 261.421875 482.460938 255.867188 482.460938 250.308594 C 482.460938 250.199219 482.460938 250.089844 482.460938 249.980469 C 482.460938 247.964844 482.460938 245.949219 482.460938 243.9375 C 482.558594 239.925781 484.980469 237.257812 488.28125 236.160156 C 488.308594 236.152344 488.332031 236.144531 488.359375 236.136719 C 488.480469 236.097656 488.617188 236.082031 488.742188 236.046875 C 489.980469 235.753906 491.308594 235.636719 492.65625 235.597656 C 494.042969 235.597656 495.429688 235.597656 496.816406 235.597656 C 498.144531 235.597656 499.472656 235.597656 500.800781 235.597656 C 507.496094 235.597656 514.1875 235.597656 520.882812 235.597656 C 526.398438 235.597656 531.914062 235.597656 537.429688 235.597656 C 553.203125 235.597656 568.980469 235.597656 584.757812 235.597656 C 587.324219 235.597656 589.890625 235.597656 592.453125 235.597656 C 603.226562 235.597656 614 235.597656 624.773438 235.597656 C 628.652344 235.597656 632.53125 235.597656 636.410156 235.597656 C 636.519531 235.597656 636.632812 235.597656 636.742188 235.597656 C 637.511719 235.601562 638.277344 235.597656 639.042969 235.597656 C 641.316406 235.609375 643.476562 236.25 645.132812 237.585938 C 645.308594 237.734375 645.46875 237.890625 645.625 238.050781 C 645.726562 238.148438 645.832031 238.238281 645.929688 238.34375 C 647.664062 240.332031 648.089844 243.023438 648.089844 245.804688 C 648.089844 247.351562 648.089844 248.898438 648.089844 250.445312 C 648.089844 252.058594 648.089844 253.675781 648.089844 255.289062 C 648.089844 264.570312 648.089844 273.851562 648.089844 283.132812 C 648.089844 283.953125 648.089844 284.773438 648.089844 285.589844 C 648.089844 287.566406 648.089844 289.542969 648.089844 291.519531 C 648.089844 307.222656 648.089844 322.929688 648.089844 338.636719 C 648.089844 352.90625 648.089844 367.175781 648.089844 381.449219 C 648.089844 387.957031 648.089844 394.46875 648.089844 400.980469 C 639.570312 400.574219 631.023438 400.539062 622.503906 400.628906 C 612.371094 400.738281 602.5625 401.378906 592.550781 402.921875 C 584.484375 404.167969 576.417969 405.570312 568.636719 408.0625 C 562.503906 405.507812 556.214844 403.804688 549.578125 403.117188 Z M 565.546875 468.917969 C 557.71875 468.894531 550.765625 464.015625 546.980469 457.335938 C 542.0625 448.652344 544.125 438.414062 550.101562 430.757812 C 554.894531 424.871094 561.148438 420.945312 568.144531 418.265625 C 575.675781 422.179688 582.21875 427.757812 585.691406 435.71875 C 589 443.292969 589.074219 452.28125 584.261719 459.21875 C 580.136719 465.167969 572.753906 468.941406 565.546875 468.917969 Z M 742.292969 400.515625 C 741.03125 402.675781 737.972656 403.582031 735.804688 402.21875 C 731.109375 398.777344 725.496094 398.578125 720.140625 400.808594 C 708.628906 405.597656 705.929688 418.957031 708.59375 430.078125 C 711.964844 444.132812 722.550781 454.847656 732.296875 464.898438 C 735.4375 468.136719 732.324219 474.421875 727.679688 472.828125 C 719.679688 470.082031 711.363281 467.980469 702.878906 467.644531 C 696.1875 467.382812 689.191406 468.109375 683.101562 471.09375 C 676.46875 474.339844 671.597656 479.648438 668.359375 486.238281 C 660.703125 501.832031 664.046875 520.117188 666.976562 536.441406 C 668.0625 542.484375 659.984375 544.683594 657.828125 538.964844 C 655.074219 531.664062 649.882812 525.140625 643.5625 520.59375 C 631.898438 512.210938 616.726562 509.492188 603.324219 515.3125 C 590.082031 521.066406 580.25 533.273438 577.816406 547.519531 C 577.382812 550.058594 574.261719 551.457031 571.980469 550.832031 C 569.335938 550.105469 568.234375 547.519531 568.667969 544.996094 C 570.324219 535.3125 575.125 526.339844 581.796875 519.179688 C 593.730469 506.371094 611.421875 500.21875 628.644531 503.738281 C 638.511719 505.753906 647.542969 510.734375 654.648438 517.6875 C 654.222656 512.917969 654.074219 508.136719 654.4375 503.355469 C 655.757812 485.953125 664.007812 468.851562 680.792969 461.792969 C 691.367188 457.34375 703.070312 457.332031 714.34375 459.429688 C 711.589844 456.171875 708.992188 452.792969 706.703125 449.1875 C 698.164062 435.738281 693.953125 416.542969 703.644531 402.484375 C 707.332031 397.128906 713.136719 393.035156 719.476562 391.089844 C 717.839844 389.855469 716.21875 388.59375 714.625 387.296875 C 703.132812 377.902344 693.277344 366.292969 688.230469 352.175781 C 683.367188 338.5625 683.402344 323.121094 690.417969 310.265625 C 693.347656 304.898438 701.539062 309.691406 698.609375 315.054688 C 695.242188 321.226562 693.992188 328.117188 694.332031 335.105469 C 695.625 361.5 717.597656 379.308594 738.238281 392.527344 C 739.042969 392.96875 739.832031 393.464844 740.59375 394.023438 C 742.667969 395.542969 743.703125 398.109375 742.292969 400.515625 Z M 579.144531 590.539062 C 588.578125 606.761719 592.890625 625.800781 591.132812 644.5 C 590.894531 647.0625 589.15625 649.242188 586.390625 649.242188 C 583.996094 649.242188 581.40625 647.054688 581.644531 644.5 C 583.253906 627.363281 579.609375 610.21875 570.953125 595.328125 C 567.875 590.035156 576.074219 585.261719 579.144531 590.539062 Z M 628.320312 614.042969 C 629.515625 616.316406 628.917969 619.1875 626.621094 620.53125 C 624.480469 621.78125 621.320312 621.097656 620.128906 618.828125 C 612.925781 605.109375 603.28125 592.964844 591.570312 582.824219 C 589.628906 581.136719 589.859375 577.828125 591.570312 576.113281 C 593.476562 574.210938 596.34375 574.4375 598.28125 576.113281 C 610.539062 586.730469 620.785156 599.683594 628.320312 614.042969 Z M 209.515625 309.597656 C 188.054688 299.878906 170.074219 282.804688 159.144531 261.941406 C 156.308594 256.53125 164.5 251.742188 167.335938 257.152344 C 177.597656 276.742188 194.164062 292.285156 214.304688 301.40625 C 216.652344 302.46875 217.195312 305.863281 216.007812 307.894531 C 214.621094 310.269531 211.847656 310.65625 209.515625 309.597656 Z M 199.453125 254.425781 C 198.96875 251.902344 200.132812 249.316406 202.765625 248.59375 C 205.097656 247.953125 208.117188 249.386719 208.601562 251.90625 C 209.214844 255.09375 210.125 258.199219 211.328125 261.214844 C 211.488281 261.617188 211.226562 261.015625 211.527344 261.6875 C 211.699219 262.066406 211.867188 262.445312 212.046875 262.820312 C 212.367188 263.496094 212.699219 264.164062 213.050781 264.824219 C 213.785156 266.21875 214.589844 267.582031 215.449219 268.902344 C 217.230469 271.628906 218.671875 273.421875 221.105469 275.890625 C 223.449219 278.269531 225.308594 279.808594 227.800781 281.496094 C 229.929688 282.933594 230.871094 285.648438 229.503906 287.984375 C 228.269531 290.09375 225.136719 291.125 223.011719 289.6875 C 210.957031 281.527344 202.214844 268.78125 199.453125 254.425781 Z M 306.9375 228.601562 C 316.953125 222.816406 326.96875 217.03125 336.988281 211.246094 C 338.511719 210.367188 340.050781 210.445312 341.316406 211.09375 C 342.828125 211.859375 343.949219 213.445312 344.125 215.34375 C 344.316406 217.316406 344.503906 219.289062 344.695312 221.261719 C 345.78125 232.554688 346.871094 243.851562 347.957031 255.144531 C 355.789062 250.621094 363.621094 246.097656 371.453125 241.578125 C 374.804688 239.640625 378.246094 242.1875 378.59375 245.671875 C 378.789062 247.664062 378.988281 249.660156 379.1875 251.652344 C 380.304688 262.902344 381.421875 274.15625 382.539062 285.40625 C 390.433594 280.847656 398.328125 276.289062 406.222656 271.730469 C 409.566406 269.800781 413.027344 272.335938 413.363281 275.828125 C 413.550781 277.796875 413.742188 279.769531 413.933594 281.742188 C 415.269531 295.632812 416.605469 309.523438 417.945312 323.414062 C 418.191406 325.980469 415.574219 328.15625 413.199219 328.15625 C 410.460938 328.15625 408.699219 325.964844 408.457031 323.414062 C 408.265625 321.441406 408.074219 319.46875 407.886719 317.496094 C 406.796875 306.203125 405.710938 294.90625 404.625 283.613281 C 396.734375 288.167969 388.847656 292.722656 380.960938 297.277344 C 377.609375 299.210938 374.167969 296.667969 373.820312 293.179688 C 373.625 291.1875 373.425781 289.195312 373.226562 287.203125 C 372.109375 275.949219 370.992188 264.699219 369.875 253.445312 C 361.980469 258.003906 354.085938 262.5625 346.191406 267.125 C 342.855469 269.050781 339.375 266.523438 339.050781 263.027344 C 338.867188 261.050781 338.6875 259.074219 338.503906 257.097656 C 337.457031 245.78125 336.40625 234.464844 335.359375 223.144531 C 327.480469 227.695312 319.601562 232.246094 311.722656 236.796875 C 306.421875 239.855469 301.648438 231.65625 306.9375 228.601562 Z M 306.9375 228.601562 " fill-opacity="1" fill-rule="nonzero"/></g><path fill="#4d3294" d="M 432.550781 576.21875 C 433.222656 576.621094 433.917969 576.980469 434.613281 577.332031 C 434.570312 577.3125 434.53125 577.304688 434.488281 577.285156 C 433.832031 576.953125 433.1875 576.59375 432.550781 576.21875 Z M 544.070312 667.140625 C 544.070312 653.378906 544.070312 639.621094 544.070312 625.859375 C 544.070312 607.003906 544.070312 588.148438 544.070312 569.289062 C 544.070312 555.128906 544.070312 540.96875 544.070312 526.804688 C 544.070312 524.550781 544.125 522.285156 544.070312 520.027344 C 543.882812 512.683594 538.808594 505.886719 531.394531 504.5 C 529.21875 504.09375 527.046875 504.164062 524.847656 504.164062 C 508.699219 504.164062 492.554688 504.164062 476.40625 504.164062 C 474.992188 504.164062 473.578125 504.164062 472.167969 504.164062 C 470.570312 504.164062 469.402344 504.820312 468.640625 505.777344 C 467.847656 506.621094 467.34375 507.71875 467.421875 508.910156 C 467.855469 515.550781 469.835938 521.480469 472.792969 527.394531 C 475.089844 531.984375 477.851562 536.371094 479.835938 541.113281 C 481.730469 545.632812 482.753906 550.453125 481.359375 555.257812 C 479.925781 560.195312 476.402344 564.144531 472.023438 566.726562 C 462.625 572.265625 449.097656 573.945312 439.113281 569 C 439.167969 569.03125 439.222656 569.0625 439.277344 569.09375 C 444.699219 571.816406 440.003906 579.882812 434.613281 577.332031 C 437.277344 578.679688 440.09375 579.679688 443.011719 580.328125 C 445.335938 580.847656 447.714844 581.144531 450.113281 581.261719 C 457.402344 581.609375 464.855469 580.203125 471.40625 577.496094 C 483.5625 572.472656 493.015625 561.285156 491.308594 547.46875 C 489.777344 535.097656 480.417969 525.484375 477.640625 513.652344 C 489.769531 513.652344 501.898438 513.652344 514.023438 513.652344 C 518.878906 513.652344 524.035156 513.164062 528.867188 513.660156 C 532.285156 514.011719 534.5 516.914062 534.582031 520.203125 C 534.601562 521.082031 534.582031 521.964844 534.582031 522.84375 C 534.582031 534.792969 534.582031 546.738281 534.582031 558.683594 C 534.582031 577 534.582031 595.3125 534.582031 613.628906 C 534.582031 629.132812 534.582031 644.636719 534.582031 660.140625 C 534.582031 663.96875 534.582031 667.796875 534.582031 671.628906 C 534.582031 675.757812 532.507812 679.148438 527.96875 679.28125 C 519.371094 679.527344 510.734375 679.28125 502.136719 679.28125 C 484.914062 679.28125 467.691406 679.28125 450.472656 679.28125 C 432.648438 679.28125 414.824219 679.28125 397 679.28125 C 387.648438 679.28125 378.300781 679.28125 368.953125 679.28125 C 368.953125 680.859375 368.953125 682.441406 368.953125 684.023438 C 368.953125 688.449219 364 689.648438 361.253906 687.671875 C 362.070312 688.34375 363.097656 688.765625 364.210938 688.765625 C 371.851562 688.765625 379.492188 688.765625 387.136719 688.765625 C 404.378906 688.765625 421.625 688.765625 438.871094 688.765625 C 457.199219 688.765625 475.523438 688.765625 493.851562 688.765625 C 504.742188 688.765625 515.632812 688.765625 526.519531 688.765625 C 527.082031 688.765625 527.644531 688.78125 528.203125 688.765625 C 535.550781 688.589844 542.347656 683.5 543.734375 676.09375 C 544.277344 673.175781 544.070312 670.09375 544.070312 667.140625 Z M 432.101562 575.953125 C 431.644531 575.671875 431.195312 575.375 430.75 575.070312 C 430.980469 575.226562 431.195312 575.398438 431.429688 575.550781 C 431.648438 575.691406 431.878906 575.8125 432.101562 575.953125 Z M 304.078125 282.683594 C 306.367188 293.253906 302.207031 303.652344 295.453125 311.695312 C 290.738281 317.078125 284.898438 321.226562 278.738281 324.804688 C 276.789062 323.738281 274.929688 322.457031 273.179688 320.910156 C 271.511719 319.4375 269.40625 319.152344 267.429688 320.167969 C 265.65625 321.078125 263.851562 321.96875 262.019531 322.824219 C 255.996094 315.433594 252.277344 306.300781 250.960938 296.84375 C 249.507812 286.367188 251.574219 275.402344 260.03125 268.328125 C 267.1875 262.34375 277.214844 259.761719 286.171875 262.996094 C 294.839844 266.125 302.09375 273.535156 304.078125 282.683594 Z M 294.078125 282.300781 C 291.726562 276.53125 286.042969 271.925781 279.8125 271.152344 C 273.820312 270.40625 267.460938 273.300781 263.746094 277.996094 C 258.6875 284.386719 259.445312 293.378906 261.371094 300.792969 C 263.089844 307.40625 266.179688 313.425781 270.722656 318.421875 C 277.367188 314.820312 283.710938 310.738281 288.742188 304.984375 C 293.824219 298.933594 297.226562 290.035156 294.078125 282.300781 Z M 294.078125 282.300781 " fill-opacity="1" fill-rule="nonzero"/><path fill="#00bf63" d="M 426.863281 396.792969 C 432.574219 404.574219 434.992188 414.71875 434.15625 424.28125 C 433.398438 432.980469 430.273438 441.609375 424.046875 447.910156 C 418.390625 453.636719 410.105469 457.375 401.964844 456.691406 C 394.441406 456.054688 387.96875 452.40625 381.820312 448.277344 C 377.6875 445.503906 373.542969 442.476562 368.953125 440.542969 C 368.953125 441.503906 368.953125 442.464844 368.953125 443.425781 C 368.953125 463.671875 368.953125 483.917969 368.953125 504.164062 C 368.953125 505.746094 368.953125 507.328125 368.953125 508.910156 C 368.953125 511.480469 366.773438 513.652344 364.210938 513.652344 C 362.628906 513.652344 361.046875 513.652344 359.464844 513.652344 C 358.210938 513.652344 356.957031 513.652344 355.703125 513.652344 C 335.496094 513.652344 315.285156 513.652344 295.078125 513.652344 C 292.285156 513.652344 290.605469 511.460938 290.335938 508.910156 C 288.660156 493.265625 298.394531 480.59375 301.15625 465.792969 C 303.230469 454.683594 298.164062 443.144531 288.109375 437.800781 C 278.574219 432.730469 267.015625 434.238281 259.421875 441.949219 C 251.371094 450.121094 250.277344 461.734375 253.402344 472.363281 C 255.257812 478.675781 258.539062 484.101562 261.769531 489.773438 C 265.472656 496.28125 267.390625 502.636719 266.375 510.171875 C 266.101562 512.195312 263.648438 513.652344 261.800781 513.652344 C 258.753906 513.652344 255.707031 513.652344 252.664062 513.652344 C 233.054688 513.652344 213.445312 513.652344 193.839844 513.652344 C 192.257812 513.652344 190.675781 513.652344 189.09375 513.652344 C 187.980469 513.652344 186.957031 513.226562 186.136719 512.558594 C 188.882812 514.535156 193.839844 513.332031 193.839844 508.910156 C 193.839844 507.328125 193.839844 505.746094 193.839844 504.164062 C 195.304688 504.164062 196.769531 504.164062 198.234375 504.164062 C 217.90625 504.164062 237.578125 504.164062 257.25 504.164062 C 256.542969 497.703125 251.785156 491.992188 248.914062 486.378906 C 245.167969 479.054688 242.570312 471.085938 242.246094 462.816406 C 241.734375 449.847656 247.921875 437.210938 258.964844 430.214844 C 270.257812 423.0625 285.535156 424.003906 296.320312 431.726562 C 307.898438 440.019531 312.789062 454.082031 310.378906 467.910156 C 308.195312 480.421875 300.296875 491.488281 299.707031 504.164062 C 301 504.164062 302.292969 504.164062 303.585938 504.164062 C 322.210938 504.164062 340.839844 504.164062 359.464844 504.164062 C 359.464844 502.675781 359.464844 501.1875 359.464844 499.699219 C 359.464844 477.871094 359.464844 456.042969 359.464844 434.214844 C 359.464844 430.839844 362.480469 429.195312 365.46875 429.640625 C 372.929688 430.753906 379.367188 435.1875 385.476562 439.320312 C 390.351562 442.617188 395.601562 446.40625 401.605469 447.171875 C 407.859375 447.972656 413.957031 444.957031 418.09375 440.402344 C 427.445312 430.101562 426.644531 412.75 418.863281 401.875 C 416.082031 398.46875 412.601562 395.574219 408.40625 394.101562 C 403.898438 392.515625 399.410156 392.625 394.835938 393.871094 C 384.410156 396.710938 375.324219 402.714844 364.210938 402.820312 C 363.082031 402.832031 362.042969 402.390625 361.21875 401.699219 C 363.957031 403.710938 368.953125 402.519531 368.953125 398.074219 C 368.953125 396.335938 368.953125 394.597656 368.953125 392.855469 C 378.269531 391.175781 386.574219 385.433594 395.996094 383.914062 C 407.523438 382.054688 418.941406 386.570312 426.121094 395.835938 C 426.230469 395.976562 426.320312 396.125 426.417969 396.273438 C 426.570312 396.441406 426.726562 396.609375 426.863281 396.792969 Z M 628.320312 614.042969 C 620.785156 599.683594 610.539062 586.730469 598.28125 576.113281 C 596.34375 574.4375 593.476562 574.210938 591.570312 576.113281 C 589.859375 577.828125 589.628906 581.136719 591.570312 582.824219 C 603.28125 592.964844 612.925781 605.113281 620.128906 618.828125 C 621.320312 621.097656 624.480469 621.785156 626.617188 620.53125 C 628.917969 619.1875 629.515625 616.316406 628.320312 614.042969 Z M 628.320312 614.042969 " fill-opacity="1" fill-rule="nonzero"/><path fill="#62c1e4" d="M 361.253906 687.671875 C 362.070312 688.34375 363.097656 688.769531 364.210938 688.769531 C 363.828125 688.769531 363.445312 688.769531 363.0625 688.769531 C 354.871094 688.769531 346.683594 688.769531 338.496094 688.769531 C 323.59375 688.769531 308.691406 688.769531 293.789062 688.769531 C 277.691406 688.769531 261.59375 688.769531 245.496094 688.769531 C 233.496094 688.769531 221.496094 688.769531 209.5 688.769531 C 206.703125 688.769531 203.90625 688.773438 201.113281 688.769531 C 193.4375 688.746094 186.164062 684.003906 184.6875 676.09375 C 184.246094 673.734375 184.351562 671.34375 184.351562 668.957031 C 184.351562 664.917969 184.351562 660.875 184.351562 656.835938 C 184.351562 643.34375 184.351562 629.851562 184.351562 616.359375 C 184.351562 600.074219 184.351562 583.785156 184.351562 567.5 C 184.351562 553.726562 184.351562 539.953125 184.351562 526.175781 C 184.351562 520.421875 184.351562 514.664062 184.351562 508.910156 C 184.351562 510.597656 185.089844 511.800781 186.136719 512.554688 C 186.957031 513.226562 187.980469 513.652344 189.09375 513.652344 C 190.675781 513.652344 192.257812 513.652344 193.839844 513.652344 C 193.839844 520.523438 193.839844 527.394531 193.839844 534.265625 C 193.839844 548.898438 193.839844 563.527344 193.839844 578.15625 C 193.839844 594.070312 193.839844 609.984375 193.839844 625.898438 C 193.839844 638.070312 193.839844 650.246094 193.839844 662.417969 C 193.839844 665.453125 193.839844 668.488281 193.839844 671.523438 C 193.839844 675.511719 195.691406 679.144531 200.21875 679.28125 C 206.011719 679.457031 211.839844 679.28125 217.636719 679.28125 C 231.207031 679.28125 244.777344 679.28125 258.351562 679.28125 C 274.484375 679.28125 290.621094 679.28125 306.757812 679.28125 C 320.253906 679.28125 333.75 679.28125 347.246094 679.28125 C 351.320312 679.28125 355.390625 679.28125 359.464844 679.28125 C 359.464844 680.863281 359.464844 682.441406 359.464844 684.023438 C 359.464844 685.710938 360.203125 686.917969 361.253906 687.671875 Z M 472.972656 243.9375 C 472.972656 244.214844 472.972656 244.496094 472.972656 244.773438 C 472.984375 241.152344 473.898438 237.652344 475.660156 234.679688 C 474 237.425781 473.054688 240.601562 472.972656 243.9375 Z M 636.410156 235.597656 C 636.519531 235.597656 636.632812 235.597656 636.742188 235.597656 C 621.980469 235.542969 607.21875 235.597656 592.453125 235.597656 C 603.226562 235.597656 614 235.597656 624.773438 235.597656 C 628.652344 235.597656 632.53125 235.597656 636.410156 235.597656 Z M 485.277344 227.058594 C 484 227.441406 482.75 227.960938 481.542969 228.707031 C 481.421875 228.78125 481.316406 228.875 481.199219 228.949219 C 481.910156 228.5 482.65625 228.082031 483.457031 227.726562 C 484.050781 227.464844 484.660156 227.25 485.277344 227.058594 Z M 482.761719 241.722656 C 482.035156 244.34375 482.460938 247.605469 482.460938 250.308594 C 482.460938 250.199219 482.460938 250.089844 482.460938 249.980469 C 482.460938 247.964844 482.460938 245.949219 482.460938 243.9375 C 482.558594 239.925781 484.980469 237.257812 488.28125 236.160156 C 485.761719 236.863281 483.683594 238.394531 482.761719 241.722656 Z M 657.5625 244.378906 C 657.53125 242.851562 657.429688 241.328125 657.085938 239.808594 C 656.1875 235.8125 653.941406 232.53125 650.949219 230.179688 C 655.085938 233.597656 657.484375 238.742188 657.5625 244.378906 Z M 648.089844 250.445312 C 648.089844 247.480469 648.636719 243.632812 647.511719 240.828125 C 647.121094 239.855469 646.574219 239.035156 645.929688 238.34375 C 647.664062 240.335938 648.089844 243.023438 648.089844 245.804688 C 648.089844 247.351562 648.089844 248.898438 648.089844 250.445312 Z M 492.65625 235.597656 C 494.042969 235.597656 495.429688 235.597656 496.816406 235.597656 C 495.46875 235.597656 494.054688 235.5625 492.65625 235.597656 Z M 657.578125 285.589844 C 657.578125 290.234375 657.578125 294.878906 657.578125 299.519531 C 657.578125 315.644531 657.578125 331.765625 657.578125 347.886719 C 657.578125 361.539062 657.578125 375.191406 657.578125 388.84375 C 657.578125 394.554688 657.578125 400.261719 657.578125 405.972656 C 657.578125 408.402344 655.394531 410.886719 652.832031 410.714844 C 639 409.792969 624.992188 409.824219 611.148438 410.390625 C 608.679688 410.492188 606.207031 410.617188 603.746094 410.839844 C 603.125 410.894531 602.507812 410.976562 601.890625 411.03125 C 601.871094 411.03125 601.871094 411.03125 601.859375 411.035156 C 601.765625 411.050781 601.644531 411.070312 601.46875 411.097656 C 599.339844 411.433594 597.203125 411.742188 595.070312 412.070312 C 590.46875 412.78125 585.867188 413.535156 581.308594 414.511719 C 581.011719 414.578125 580.714844 414.648438 580.417969 414.714844 C 581.578125 415.582031 582.714844 416.476562 583.796875 417.429688 C 593.988281 426.429688 599.773438 440.761719 596.703125 454.257812 C 593.960938 466.296875 583.136719 475.925781 571.027344 477.894531 C 558.074219 480 545.542969 473.726562 538.957031 462.410156 C 531.550781 449.6875 534.683594 435.207031 543.390625 424.046875 C 546.824219 419.832031 551.054688 416.417969 555.714844 413.699219 C 555.355469 413.609375 555 413.507812 554.640625 413.425781 C 553.710938 413.210938 552.789062 413.027344 551.851562 412.875 C 551.792969 412.863281 551.675781 412.847656 551.554688 412.832031 C 551.300781 412.800781 550.8125 412.742188 550.714844 412.730469 C 546.433594 412.238281 542.125 411.980469 537.824219 411.746094 C 526.230469 411.109375 514.617188 410.808594 503.011719 410.632812 C 494.601562 410.507812 486.121094 410.25 477.71875 410.714844 C 476.535156 410.78125 475.449219 410.285156 474.609375 409.511719 C 477.320312 411.644531 482.460938 410.476562 482.460938 405.96875 C 482.460938 404.335938 482.460938 402.699219 482.460938 401.0625 C 485.753906 401 489.046875 401.023438 492.335938 401.039062 C 505.984375 401.097656 519.640625 401.394531 533.277344 402.027344 C 538.714844 402.28125 544.160156 402.558594 549.578125 403.117188 C 556.214844 403.804688 562.503906 405.507812 568.636719 408.058594 C 576.417969 405.570312 584.484375 404.167969 592.550781 402.921875 C 602.5625 401.378906 612.371094 400.738281 622.503906 400.628906 C 631.019531 400.539062 639.570312 400.570312 648.089844 400.980469 C 648.089844 394.46875 648.089844 387.957031 648.089844 381.445312 C 648.089844 367.175781 648.089844 352.90625 648.089844 338.632812 C 648.089844 322.929688 648.089844 307.222656 648.089844 291.519531 C 648.089844 289.542969 648.089844 287.566406 648.089844 285.589844 C 648.089844 291.695312 657.578125 291.707031 657.578125 285.589844 Z M 568.144531 418.265625 C 561.148438 420.945312 554.894531 424.871094 550.101562 430.757812 C 544.125 438.414062 542.0625 448.648438 546.980469 457.335938 C 550.765625 464.015625 557.71875 468.894531 565.546875 468.917969 C 572.753906 468.941406 580.136719 465.167969 584.261719 459.21875 C 589.074219 452.285156 589 443.292969 585.695312 435.71875 C 582.21875 427.757812 575.679688 422.179688 568.144531 418.265625 Z M 216.007812 307.894531 C 217.195312 305.863281 216.652344 302.46875 214.304688 301.40625 C 194.164062 292.285156 177.597656 276.742188 167.335938 257.152344 C 164.503906 251.742188 156.308594 256.53125 159.144531 261.941406 C 170.074219 282.804688 188.054688 299.878906 209.515625 309.597656 C 211.847656 310.65625 214.621094 310.269531 216.007812 307.894531 Z M 216.007812 307.894531 " fill-opacity="1" fill-rule="nonzero"/><path fill="#2f72b1" d="M 542.222656 341.046875 C 538.109375 345.839844 532.140625 349.492188 525.917969 350.691406 C 519.570312 351.914062 513.515625 350.746094 507.710938 348.054688 C 499.164062 344.089844 491.726562 336.136719 482.460938 333.828125 C 482.460938 335.21875 482.460938 336.609375 482.460938 338 C 482.460938 359.019531 482.460938 380.042969 482.460938 401.066406 C 482.460938 402.699219 482.460938 404.335938 482.460938 405.972656 C 482.460938 410.476562 477.320312 411.644531 474.609375 409.511719 C 473.640625 408.75 472.972656 407.578125 472.972656 405.972656 C 472.972656 402.78125 472.972656 399.589844 472.972656 396.402344 C 472.972656 373.746094 472.972656 351.085938 472.972656 328.429688 C 472.972656 325.894531 475.152344 323.640625 477.71875 323.683594 C 490.902344 323.921875 499.742188 333.210938 510.722656 338.980469 C 514.726562 341.085938 519.222656 342.378906 523.753906 341.472656 C 528.832031 340.460938 533.425781 337.359375 536.429688 333.160156 C 542.851562 324.183594 543.53125 310.855469 538.65625 301.03125 C 533.8125 291.265625 523.714844 285.449219 512.867188 288.070312 C 507.113281 289.460938 501.777344 292.136719 496.257812 294.210938 C 490.289062 296.457031 484.117188 297.742188 477.71875 297.128906 C 475.160156 296.886719 472.972656 295.128906 472.972656 292.386719 C 472.972656 291.640625 472.972656 290.894531 472.972656 290.148438 C 472.972656 288.878906 472.972656 287.613281 472.972656 286.34375 C 472.972656 276.558594 472.972656 266.773438 472.972656 256.992188 C 472.972656 252.917969 472.972656 248.847656 472.972656 244.773438 C 472.984375 241.152344 473.898438 237.652344 475.660156 234.679688 C 475.671875 234.660156 475.6875 234.640625 475.699219 234.617188 C 476.078125 233.988281 476.507812 233.390625 476.960938 232.808594 C 477.125 232.601562 477.296875 232.402344 477.472656 232.199219 C 477.804688 231.8125 478.164062 231.441406 478.535156 231.082031 C 478.777344 230.84375 479.023438 230.609375 479.285156 230.386719 C 479.710938 230.023438 480.160156 229.679688 480.625 229.355469 C 480.820312 229.222656 481 229.078125 481.195312 228.949219 C 481.910156 228.5 482.65625 228.082031 483.453125 227.726562 C 484.050781 227.464844 484.660156 227.25 485.277344 227.058594 C 485.355469 227.035156 485.4375 227.007812 485.515625 226.984375 C 486 226.84375 486.496094 226.734375 486.988281 226.628906 C 491.21875 225.742188 495.8125 226.113281 500.054688 226.113281 C 501.714844 226.113281 503.375 226.113281 505.035156 226.113281 C 512.605469 226.113281 520.171875 226.113281 527.738281 226.113281 C 533.679688 226.113281 539.621094 226.113281 545.5625 226.113281 C 561.710938 226.113281 577.859375 226.113281 594.007812 226.113281 C 596.664062 226.113281 599.320312 226.113281 601.972656 226.113281 C 611.273438 226.113281 620.574219 226.113281 629.875 226.113281 C 634.757812 226.113281 640.695312 225.414062 645.382812 227.03125 C 647.492188 227.757812 649.339844 228.847656 650.949219 230.179688 C 655.085938 233.597656 657.484375 238.742188 657.5625 244.378906 C 657.5625 244.4375 657.574219 244.496094 657.574219 244.554688 C 657.578125 244.796875 657.574219 245.039062 657.574219 245.277344 C 657.578125 246.082031 657.574219 246.886719 657.574219 247.691406 C 657.574219 250.90625 657.574219 254.125 657.574219 257.339844 C 657.574219 258.082031 657.574219 258.824219 657.574219 259.566406 C 657.574219 268.242188 657.574219 276.917969 657.574219 285.59375 C 657.574219 291.707031 648.089844 291.699219 648.089844 285.59375 C 648.089844 284.773438 648.089844 283.953125 648.089844 283.132812 C 648.089844 273.851562 648.089844 264.570312 648.089844 255.289062 C 648.089844 253.675781 648.089844 252.0625 648.089844 250.445312 C 648.089844 247.484375 648.636719 243.632812 647.511719 240.828125 C 647.121094 239.855469 646.574219 239.039062 645.929688 238.34375 C 645.832031 238.242188 645.726562 238.148438 645.625 238.050781 C 645.460938 237.894531 645.304688 237.726562 645.132812 237.585938 C 643.476562 236.25 641.316406 235.609375 639.042969 235.601562 C 638.277344 235.597656 637.507812 235.601562 636.742188 235.597656 C 621.980469 235.546875 607.214844 235.601562 592.453125 235.601562 C 589.890625 235.601562 587.324219 235.601562 584.757812 235.601562 C 568.980469 235.601562 553.203125 235.601562 537.429688 235.601562 C 531.914062 235.601562 526.398438 235.601562 520.882812 235.601562 C 514.1875 235.601562 507.492188 235.601562 500.800781 235.601562 C 499.472656 235.601562 498.144531 235.601562 496.816406 235.601562 C 495.46875 235.601562 494.054688 235.5625 492.65625 235.601562 C 491.308594 235.636719 489.980469 235.757812 488.738281 236.046875 C 488.613281 236.078125 488.484375 236.105469 488.359375 236.136719 C 488.332031 236.144531 488.308594 236.15625 488.28125 236.164062 C 485.761719 236.863281 483.683594 238.394531 482.761719 241.722656 C 482.035156 244.347656 482.460938 247.605469 482.460938 250.308594 C 482.460938 255.867188 482.460938 261.425781 482.460938 266.984375 C 482.460938 273.875 482.460938 280.769531 482.460938 287.664062 C 488.257812 287.242188 493.617188 285.171875 499.140625 282.890625 C 505.914062 280.097656 513.085938 277.308594 520.5625 277.949219 C 550.300781 280.503906 560.046875 320.269531 542.222656 341.046875 Z M 740.59375 394.023438 C 739.828125 393.464844 739.039062 392.96875 738.234375 392.527344 C 717.597656 379.308594 695.625 361.5 694.332031 335.101562 C 693.988281 328.117188 695.242188 321.226562 698.609375 315.054688 C 701.535156 309.691406 693.347656 304.898438 690.417969 310.265625 C 683.398438 323.121094 683.367188 338.5625 688.230469 352.175781 C 693.277344 366.292969 703.132812 377.902344 714.625 387.292969 C 716.214844 388.59375 717.835938 389.855469 719.476562 391.089844 C 713.136719 393.035156 707.332031 397.128906 703.644531 402.484375 C 693.953125 416.542969 698.164062 435.738281 706.699219 449.183594 C 708.992188 452.792969 711.589844 456.171875 714.34375 459.429688 C 703.070312 457.332031 691.363281 457.34375 680.792969 461.792969 C 664.007812 468.851562 655.757812 485.953125 654.4375 503.355469 C 654.074219 508.136719 654.21875 512.917969 654.648438 517.6875 C 647.542969 510.734375 638.511719 505.753906 628.644531 503.738281 C 611.421875 500.214844 593.726562 506.371094 581.792969 519.179688 C 575.121094 526.339844 570.320312 535.3125 568.667969 544.996094 C 568.234375 547.519531 569.335938 550.105469 571.980469 550.832031 C 574.257812 551.457031 577.378906 550.058594 577.816406 547.519531 C 580.25 533.273438 590.082031 521.066406 603.324219 515.3125 C 616.722656 509.492188 631.898438 512.210938 643.558594 520.59375 C 649.882812 525.140625 655.074219 531.664062 657.828125 538.964844 C 659.984375 544.683594 668.0625 542.484375 666.976562 536.441406 C 664.042969 520.117188 660.699219 501.832031 668.359375 486.238281 C 671.597656 479.648438 676.464844 474.339844 683.097656 471.089844 C 689.1875 468.109375 696.183594 467.382812 702.878906 467.644531 C 711.363281 467.980469 719.679688 470.082031 727.679688 472.828125 C 732.324219 474.421875 735.433594 468.136719 732.292969 464.898438 C 722.550781 454.847656 711.964844 444.132812 708.59375 430.078125 C 705.929688 418.957031 708.628906 405.597656 720.140625 400.808594 C 725.496094 398.578125 731.109375 398.777344 735.804688 402.21875 C 737.972656 403.582031 741.03125 402.675781 742.292969 400.515625 C 743.703125 398.109375 742.667969 395.542969 740.59375 394.023438 Z M 227.800781 281.496094 C 225.308594 279.808594 223.453125 278.269531 221.105469 275.890625 C 218.671875 273.421875 217.230469 271.628906 215.449219 268.902344 C 214.589844 267.582031 213.785156 266.222656 213.050781 264.824219 C 212.699219 264.164062 212.367188 263.496094 212.046875 262.820312 C 211.871094 262.445312 211.699219 262.066406 211.527344 261.6875 C 211.226562 261.019531 211.488281 261.617188 211.328125 261.214844 C 210.125 258.199219 209.214844 255.09375 208.601562 251.90625 C 208.117188 249.386719 205.097656 247.953125 202.769531 248.59375 C 200.132812 249.316406 198.96875 251.902344 199.453125 254.429688 C 202.214844 268.78125 210.957031 281.527344 223.015625 289.6875 C 225.136719 291.125 228.269531 290.09375 229.503906 287.988281 C 230.871094 285.648438 229.929688 282.933594 227.800781 281.496094 Z M 227.800781 281.496094 " fill-opacity="1" fill-rule="nonzero"/></svg>