<svg xmlns="http://www.w3.org/2000/svg" xmlns:xlink="http://www.w3.org/1999/xlink" width="1200" zoomAndPan="magnify" viewBox="0 0 900 899.99999" height="1200" preserveAspectRatio="xMidYMid meet" version="1.0"><defs><clipPath id="7f148eba3f"><path d="M 95.300781 90.003906 L 810 90.003906 L 810 810 L 95.300781 810 Z M 95.300781 90.003906 " clip-rule="nonzero"/></clipPath><clipPath id="b93dad2eee"><path d="M 120.050781 90.003906 L 785.242188 90.003906 C 798.910156 90.003906 809.992188 101.085938 809.992188 114.753906 L 809.992188 785.246094 C 809.992188 798.914062 798.910156 809.996094 785.242188 809.996094 L 120.050781 809.996094 C 106.382812 809.996094 95.300781 798.914062 95.300781 785.246094 L 95.300781 114.753906 C 95.300781 101.085938 106.382812 90.003906 120.050781 90.003906 Z M 120.050781 90.003906 " clip-rule="nonzero"/></clipPath><clipPath id="9fdc6632ff"><path d="M 145 231.867188 L 747 231.867188 L 747 675.117188 L 145 675.117188 Z M 145 231.867188 " clip-rule="nonzero"/></clipPath><clipPath id="b19005164a"><path d="M 243 231.867188 L 747 231.867188 L 747 563 L 243 563 Z M 243 231.867188 " clip-rule="nonzero"/></clipPath><clipPath id="8c8f4d1cad"><path d="M 145 264 L 719 264 L 719 675.117188 L 145 675.117188 Z M 145 264 " clip-rule="nonzero"/></clipPath></defs><g clip-path="url(#7f148eba3f)"><g clip-path="url(#b93dad2eee)"><path stroke-linecap="butt" transform="matrix(0.75, 0, 0, 0.75, 95.301283, 90.003699)" fill="none" stroke-linejoin="miter" d="M 32.999333 0.000275947 L 919.921254 0.000275947 C 938.145213 0.000275947 952.921256 14.776318 952.921256 33.000278 L 952.921256 926.989908 C 952.921256 945.213867 938.145213 959.98991 919.921254 959.98991 L 32.999333 959.98991 C 14.775373 959.98991 -0.000669017 945.213867 -0.000669017 926.989908 L -0.000669017 33.000278 C -0.000669017 14.776318 14.775373 0.000275947 32.999333 0.000275947 Z M 32.999333 0.000275947 " stroke="#4d3294" stroke-width="8" stroke-opacity="1" stroke-miterlimit="4"/></g></g><g clip-path="url(#9fdc6632ff)"><path fill="#4d3294" d="M 746.90625 540.476562 C 746.90625 526.125 746.90625 511.773438 746.90625 497.421875 C 746.90625 478.695312 746.90625 459.96875 746.90625 441.242188 C 746.90625 435.953125 746.90625 430.667969 746.90625 425.378906 C 746.90625 424.828125 746.902344 424.285156 746.890625 423.742188 C 746.894531 423.671875 746.910156 423.609375 746.90625 423.539062 C 746.902344 423.351562 746.878906 423.171875 746.871094 422.988281 C 746.851562 422.558594 746.832031 422.132812 746.785156 421.710938 C 746.773438 421.597656 746.761719 421.492188 746.75 421.378906 C 746.71875 421.113281 746.695312 420.847656 746.65625 420.582031 C 745.636719 413.695312 740.816406 407.9375 734.367188 405.4375 C 732.890625 404.863281 731.402344 404.5625 729.898438 404.390625 C 729.066406 404.277344 728.222656 404.195312 727.355469 404.1875 C 726.71875 404.179688 726.082031 404.1875 725.441406 404.1875 C 724.828125 404.183594 724.21875 404.183594 723.605469 404.1875 C 722.804688 404.1875 722 404.1875 721.199219 404.1875 C 717.410156 404.1875 713.621094 404.1875 709.832031 404.1875 C 702.613281 404.1875 695.394531 404.1875 688.175781 404.1875 C 679.457031 404.1875 670.742188 404.1875 662.023438 404.1875 C 654.289062 404.1875 646.558594 404.1875 638.824219 404.1875 C 626.773438 404.1875 614.726562 404.1875 602.675781 404.1875 C 597.128906 404.1875 591.578125 404.1875 586.027344 404.1875 C 574.121094 404.1875 562.214844 404.1875 550.308594 404.1875 C 546.125 404.1875 541.941406 404.175781 537.753906 404.167969 C 533.082031 404.152344 528.410156 404.132812 523.742188 404.1875 C 519.421875 404.234375 515.449219 405.660156 512.21875 408.03125 C 512.105469 408.117188 511.988281 408.199219 511.871094 408.285156 C 511.570312 408.519531 511.273438 408.761719 510.984375 409.011719 C 510.753906 409.210938 510.523438 409.414062 510.304688 409.621094 C 510.132812 409.785156 509.964844 409.945312 509.800781 410.113281 C 509.484375 410.4375 509.179688 410.765625 508.886719 411.109375 C 508.816406 411.191406 508.746094 411.273438 508.679688 411.355469 C 508.320312 411.789062 507.976562 412.238281 507.65625 412.703125 C 507.644531 412.714844 507.636719 412.726562 507.628906 412.738281 C 506.585938 414.253906 505.753906 415.929688 505.171875 417.742188 C 505.164062 417.757812 505.160156 417.773438 505.15625 417.792969 C 504.980469 418.339844 504.832031 418.902344 504.703125 419.46875 C 504.6875 419.550781 504.664062 419.636719 504.648438 419.71875 C 504.542969 420.222656 504.460938 420.734375 504.394531 421.253906 C 504.375 421.40625 504.351562 421.554688 504.335938 421.707031 C 504.320312 421.859375 504.289062 422.007812 504.277344 422.160156 C 503.699219 429.171875 504.179688 436.398438 504.210938 443.4375 C 504.203125 446.351562 504.179688 449.269531 504.171875 452.1875 C 504.164062 454.863281 504.183594 457.539062 504.246094 460.210938 C 504.257812 460.757812 504.261719 461.300781 504.277344 461.847656 C 504.300781 462.535156 504.328125 463.226562 504.359375 463.925781 C 504.394531 464.652344 504.433594 465.386719 504.480469 466.121094 C 496.03125 466.121094 487.578125 466.121094 479.125 466.121094 C 470.375 466.121094 461.621094 466.121094 452.871094 466.121094 C 444.195312 466.121094 435.519531 466.121094 426.84375 466.121094 C 417.632812 466.121094 408.421875 466.121094 399.207031 466.121094 C 395.640625 466.121094 392.074219 466.121094 388.507812 466.121094 C 387.382812 466.121094 386.257812 466.121094 385.132812 466.121094 C 384.554688 466.121094 383.976562 466.125 383.402344 466.113281 C 382.398438 466.058594 381.410156 465.945312 380.449219 465.71875 C 380.34375 465.695312 380.238281 465.664062 380.132812 465.636719 C 379.957031 465.589844 379.785156 465.535156 379.609375 465.476562 C 379.386719 465.402344 379.164062 465.324219 378.949219 465.238281 C 378.460938 465.050781 377.992188 464.835938 377.546875 464.59375 C 377.34375 464.480469 377.152344 464.359375 376.960938 464.238281 C 376.695312 464.078125 376.445312 463.902344 376.199219 463.722656 C 375.746094 463.390625 375.320312 463.027344 374.921875 462.640625 C 374.902344 462.621094 374.882812 462.605469 374.863281 462.585938 C 372.234375 459.945312 370.933594 456.128906 370.960938 452.042969 C 371.09375 431.355469 371.253906 410.664062 371.136719 389.972656 C 371.140625 389.121094 371.140625 388.273438 371.140625 387.421875 C 371.730469 387.554688 372.316406 387.683594 372.894531 387.800781 C 373.191406 387.863281 373.484375 387.921875 373.78125 387.980469 C 373.933594 388.007812 374.089844 388.042969 374.238281 388.074219 C 374.523438 388.125 374.808594 388.167969 375.09375 388.21875 C 375.738281 388.332031 376.386719 388.445312 377.035156 388.546875 C 377.191406 388.570312 377.347656 388.589844 377.503906 388.613281 C 383.316406 389.480469 389.207031 389.78125 395.097656 389.78125 C 395.992188 389.78125 396.890625 389.78125 397.789062 389.78125 C 411.714844 389.78125 425.644531 389.78125 439.570312 389.78125 C 443.332031 389.78125 447.09375 389.78125 450.855469 389.78125 C 456.09375 389.78125 461.34375 389.863281 466.585938 389.78125 C 468.230469 389.757812 469.8125 389.515625 471.332031 389.128906 C 473.414062 388.671875 475.441406 387.902344 477.375 386.59375 C 481.742188 383.644531 484.632812 379.191406 485.65625 374.15625 C 485.671875 374.085938 485.683594 374.015625 485.695312 373.949219 C 485.804688 373.398438 485.894531 372.84375 485.953125 372.28125 C 485.984375 371.996094 486 371.707031 486.019531 371.417969 C 486.039062 371.089844 486.085938 370.765625 486.09375 370.429688 C 486.09375 370.320312 486.089844 370.210938 486.09375 370.101562 C 486.183594 358.027344 486.09375 345.949219 486.09375 333.871094 C 486.09375 331.347656 486.09375 328.824219 486.09375 326.300781 C 486.09375 309.582031 486.09375 292.859375 486.09375 276.140625 C 486.09375 269.542969 486.09375 262.941406 486.09375 256.34375 C 486.09375 250.976562 486.207031 245.789062 483.167969 240.996094 C 479.117188 234.601562 472.402344 231.867188 465.101562 231.867188 C 461.480469 231.867188 457.855469 231.867188 454.234375 231.867188 C 439.386719 231.867188 424.542969 231.867188 409.695312 231.867188 C 390.097656 231.867188 370.496094 231.867188 350.898438 231.867188 C 332.738281 231.867188 314.574219 231.867188 296.410156 231.867188 C 285.914062 231.867188 275.417969 231.867188 264.921875 231.867188 C 258.703125 231.867188 252.746094 233.394531 248.410156 238.242188 C 243.960938 243.214844 243.402344 249.070312 243.402344 255.308594 C 243.402344 270.84375 243.402344 286.378906 243.402344 301.914062 C 243.402344 320.132812 243.402344 338.351562 243.402344 356.570312 C 243.402344 360.972656 243.382812 365.378906 243.402344 369.785156 C 243.449219 380.699219 251.695312 389.578125 262.757812 389.78125 C 276.460938 390.035156 290.191406 389.78125 303.898438 389.78125 C 316.621094 389.78125 329.347656 389.78125 342.070312 389.78125 C 346.4375 389.78125 346.445312 382.992188 342.070312 382.992188 C 329.179688 382.992188 316.292969 382.992188 303.402344 382.992188 C 289.886719 382.992188 276.351562 383.207031 262.835938 382.992188 C 257.605469 382.910156 252.8125 379.808594 250.96875 374.820312 C 250.277344 372.945312 250.191406 371.046875 250.191406 369.089844 C 250.191406 364.351562 250.191406 359.609375 250.191406 354.867188 C 250.191406 336.972656 250.191406 319.074219 250.191406 301.179688 C 250.191406 286.089844 250.191406 271.003906 250.191406 255.917969 C 250.191406 250.96875 250 246.207031 253.871094 242.339844 C 257.191406 239.015625 261.265625 238.660156 265.589844 238.660156 C 276.117188 238.660156 286.644531 238.660156 297.171875 238.660156 C 314.753906 238.660156 332.335938 238.660156 349.917969 238.660156 C 369.011719 238.660156 388.109375 238.660156 407.203125 238.660156 C 421.996094 238.660156 436.789062 238.660156 451.585938 238.660156 C 455.648438 238.660156 459.710938 238.660156 463.777344 238.660156 C 467.910156 238.660156 471.855469 238.859375 475.160156 241.890625 C 479.355469 245.746094 479.304688 250.589844 479.304688 255.710938 C 479.304688 261.84375 479.304688 267.972656 479.304688 274.105469 C 479.304688 291.503906 479.304688 308.902344 479.304688 326.300781 C 479.304688 327.421875 479.304688 328.539062 479.304688 329.65625 C 479.304688 341.492188 479.304688 353.328125 479.304688 365.164062 C 479.304688 366.433594 479.304688 367.703125 479.304688 368.972656 C 479.304688 369.78125 479.285156 370.570312 479.226562 371.359375 C 479.21875 371.46875 479.214844 371.578125 479.203125 371.6875 C 479.175781 371.929688 479.144531 372.167969 479.105469 372.40625 C 478.652344 375.128906 477.378906 377.605469 475.417969 379.496094 C 475.414062 379.5 475.410156 379.5 475.40625 379.503906 C 475.097656 379.800781 474.757812 380.066406 474.417969 380.335938 C 472.925781 381.464844 471.183594 382.265625 469.328125 382.675781 C 468.605469 382.820312 467.871094 382.910156 467.125 382.96875 C 466.972656 382.980469 466.820312 382.984375 466.667969 382.992188 C 464.949219 383.019531 463.230469 383.015625 461.507812 383.015625 C 460.96875 383.003906 460.4375 382.992188 459.917969 382.992188 C 457.570312 382.992188 455.226562 382.992188 452.882812 382.992188 C 439.679688 382.992188 426.480469 382.992188 413.277344 382.992188 C 408.933594 382.992188 404.589844 382.992188 400.242188 382.992188 C 394.445312 382.992188 388.65625 383.039062 382.878906 382.480469 C 379.621094 382.148438 376.390625 381.660156 373.207031 380.9375 C 372.539062 380.785156 371.847656 380.617188 371.144531 380.4375 C 371.128906 375.074219 371.054688 369.710938 370.8125 364.367188 C 370.738281 362.746094 370.523438 361.09375 370.164062 359.46875 C 370.15625 359.4375 370.148438 359.40625 370.140625 359.371094 C 370.023438 358.84375 369.886719 358.324219 369.734375 357.808594 C 369.648438 357.515625 369.558594 357.226562 369.460938 356.9375 C 369.347656 356.605469 369.21875 356.28125 369.089844 355.957031 C 368.964844 355.640625 368.832031 355.324219 368.691406 355.015625 C 368.476562 354.558594 368.238281 354.117188 367.984375 353.675781 C 367.925781 353.574219 367.882812 353.460938 367.816406 353.359375 C 367.800781 353.328125 367.777344 353.304688 367.761719 353.277344 C 367.003906 352.03125 366.097656 350.878906 364.988281 349.886719 C 364.339844 349.308594 363.640625 348.808594 362.917969 348.363281 C 362.847656 348.316406 362.777344 348.269531 362.703125 348.226562 C 362.359375 348.023438 362.007812 347.839844 361.652344 347.664062 C 361.449219 347.566406 361.253906 347.457031 361.046875 347.371094 C 360.90625 347.308594 360.761719 347.261719 360.617188 347.207031 C 359.15625 346.621094 357.597656 346.261719 355.964844 346.222656 C 353.636719 346.167969 351.609375 346.675781 349.882812 347.582031 C 349.871094 347.585938 349.863281 347.589844 349.855469 347.597656 C 349.433594 347.808594 349.042969 348.058594 348.660156 348.3125 C 343.375 351.859375 341.574219 359.351562 342.882812 365.730469 C 342.949219 366.066406 343.023438 366.402344 343.109375 366.730469 C 343.152344 366.902344 343.203125 367.066406 343.25 367.234375 C 343.375 367.667969 343.511719 368.09375 343.664062 368.511719 C 343.667969 368.515625 343.667969 368.519531 343.667969 368.519531 C 343.671875 368.523438 343.671875 368.527344 343.671875 368.53125 C 343.929688 369.214844 344.222656 369.878906 344.539062 370.519531 C 344.847656 371.140625 345.1875 371.742188 345.546875 372.324219 C 345.554688 372.335938 345.5625 372.351562 345.570312 372.363281 C 349.609375 378.902344 356.789062 382.964844 364.28125 385.5 C 364.28125 385.855469 364.285156 386.210938 364.289062 386.566406 C 364.308594 390.792969 364.328125 395.015625 364.332031 399.238281 C 364.335938 401.964844 364.339844 404.6875 364.335938 407.414062 C 364.335938 409.480469 364.328125 411.546875 364.324219 413.613281 C 364.308594 423.972656 364.269531 434.332031 364.210938 444.695312 C 364.152344 449.425781 363.785156 454.285156 364.992188 458.832031 C 365.316406 460.078125 365.761719 461.300781 366.378906 462.5 C 366.390625 462.523438 366.402344 462.546875 366.414062 462.570312 C 366.4375 462.617188 366.464844 462.65625 366.488281 462.703125 C 366.585938 462.882812 366.675781 463.0625 366.777344 463.242188 C 366.8125 463.304688 366.859375 463.359375 366.898438 463.421875 C 368.046875 465.382812 369.46875 467.015625 371.105469 468.335938 C 371.300781 468.5 371.507812 468.644531 371.710938 468.796875 C 371.878906 468.929688 372.054688 469.050781 372.230469 469.175781 C 374.984375 471.140625 378.222656 472.417969 381.660156 472.796875 C 384.078125 473.0625 386.574219 472.910156 389 472.910156 C 392.402344 472.910156 395.804688 472.910156 399.207031 472.910156 C 400.890625 472.910156 402.574219 472.910156 404.253906 472.910156 C 419.882812 472.910156 435.507812 472.910156 451.132812 472.910156 C 451.316406 472.910156 451.496094 472.910156 451.679688 472.910156 C 467.472656 472.910156 483.265625 472.910156 499.058594 472.910156 C 500.554688 472.910156 502.050781 472.910156 503.546875 472.910156 C 504.085938 472.910156 504.625 472.910156 505.164062 472.910156 C 506.019531 478.96875 507.628906 484.945312 510.617188 490.164062 C 510.777344 490.449219 510.933594 490.734375 511.101562 491.011719 C 511.195312 491.160156 511.292969 491.308594 511.386719 491.460938 C 511.703125 491.957031 512.023438 492.449219 512.367188 492.929688 C 512.398438 492.972656 512.429688 493.011719 512.457031 493.050781 C 512.820312 493.554688 513.203125 494.046875 513.597656 494.53125 C 513.640625 494.582031 513.679688 494.636719 513.71875 494.6875 C 513.945312 494.957031 514.179688 495.210938 514.414062 495.46875 C 514.527344 495.589844 514.632812 495.71875 514.746094 495.839844 C 515.171875 496.289062 515.613281 496.71875 516.074219 497.128906 C 516.300781 497.332031 516.535156 497.523438 516.773438 497.71875 C 516.980469 497.890625 517.183594 498.0625 517.398438 498.230469 C 517.753906 498.507812 518.117188 498.777344 518.492188 499.035156 C 518.515625 499.050781 518.542969 499.066406 518.566406 499.085938 C 518.941406 499.339844 519.304688 499.605469 519.695312 499.84375 C 522.101562 501.308594 524.988281 502.441406 527.9375 503.003906 C 530.808594 503.601562 533.875 503.738281 536.515625 502.804688 C 537.734375 502.375 538.792969 501.78125 539.730469 501.078125 C 539.78125 501.039062 539.832031 501.003906 539.882812 500.96875 C 540.113281 500.789062 540.335938 500.601562 540.550781 500.40625 C 541.53125 499.558594 542.414062 498.53125 543.132812 497.253906 C 545.261719 493.472656 545.621094 489.085938 544.765625 484.886719 C 544.746094 484.792969 544.742188 484.699219 544.722656 484.609375 C 544.679688 484.378906 544.617188 484.15625 544.566406 483.933594 C 543.929688 481.152344 542.746094 478.582031 541.144531 476.308594 C 541.046875 476.171875 540.957031 476.03125 540.855469 475.894531 C 540.789062 475.800781 540.71875 475.707031 540.648438 475.613281 C 540.136719 474.921875 539.601562 474.253906 539.023438 473.636719 C 537.394531 471.890625 535.59375 470.542969 533.667969 469.492188 C 531.738281 468.375 529.644531 467.519531 527.457031 466.980469 C 525.039062 466.386719 522.613281 466.203125 520.167969 466.148438 C 517.207031 465.96875 514.199219 465.996094 511.242188 466.050781 C 511.101562 463.8125 511.035156 461.582031 511.015625 459.402344 C 511.015625 459.238281 511.015625 459.082031 511.011719 458.921875 C 511.011719 458.445312 511.007812 457.96875 511.007812 457.5 C 510.992188 450.84375 511.003906 444.191406 511.007812 437.535156 C 511.007812 436.957031 511.007812 436.378906 511.007812 435.800781 C 511.007812 432.777344 511.007812 429.753906 511.007812 426.734375 C 511.007812 425.589844 510.980469 424.453125 511.03125 423.328125 C 511.433594 419.945312 512.484375 416.796875 514.957031 414.410156 C 516.625 412.902344 518.707031 411.894531 520.964844 411.378906 C 522.75 411.03125 524.621094 410.976562 526.53125 410.976562 C 528.472656 410.976562 530.414062 410.976562 532.355469 410.976562 C 541.027344 410.976562 549.699219 410.976562 558.371094 410.976562 C 560.984375 410.976562 563.59375 410.976562 566.203125 410.976562 C 581.292969 410.976562 596.378906 410.976562 611.46875 410.976562 C 612.535156 410.976562 613.601562 410.976562 614.667969 410.976562 C 631.601562 410.976562 648.535156 410.976562 665.464844 410.976562 C 666.46875 410.976562 667.472656 410.976562 668.472656 410.976562 C 681.28125 410.976562 694.089844 410.976562 706.898438 410.976562 C 708.867188 410.976562 710.839844 410.976562 712.8125 410.976562 C 716.78125 410.976562 720.75 410.976562 724.722656 410.976562 C 727.332031 410.976562 729.847656 411.117188 732.167969 411.953125 C 735.089844 413.128906 737.453125 415.304688 738.824219 418.113281 C 740.207031 421.214844 740.117188 424.675781 740.117188 428.234375 C 740.117188 434.429688 740.117188 440.628906 740.117188 446.824219 C 740.117188 465.445312 740.117188 484.0625 740.117188 502.683594 C 740.117188 515.59375 740.117188 528.5 740.117188 541.40625 C 740.117188 543.367188 740.035156 545.257812 739.339844 547.136719 C 737.511719 552.09375 732.730469 555.222656 727.523438 555.308594 C 725.523438 555.34375 723.519531 555.308594 721.519531 555.308594 C 709.410156 555.308594 697.300781 555.308594 685.191406 555.308594 C 666.886719 555.308594 648.578125 555.308594 630.273438 555.308594 C 611.507812 555.308594 592.738281 555.308594 573.972656 555.308594 C 560.496094 555.308594 547.015625 555.308594 533.535156 555.308594 C 530.5 555.308594 527.46875 555.316406 524.433594 555.308594 C 517.117188 555.292969 511.125 550.226562 511.007812 542.644531 C 510.808594 529.84375 511.007812 517.023438 511.007812 504.21875 C 511.007812 499.851562 504.21875 499.84375 504.21875 504.21875 C 504.21875 511.050781 504.21875 517.886719 504.21875 524.71875 C 504.21875 529.164062 504.21875 533.609375 504.21875 538.054688 C 504.21875 540.824219 504.082031 543.628906 504.570312 546.371094 C 506.261719 555.914062 514.921875 562.070312 524.296875 562.101562 C 527.375 562.109375 530.453125 562.101562 533.535156 562.101562 C 547.597656 562.101562 561.660156 562.101562 575.722656 562.101562 C 595.140625 562.101562 614.5625 562.101562 633.984375 562.101562 C 652.53125 562.101562 671.082031 562.101562 689.632812 562.101562 C 701.101562 562.101562 712.574219 562.101562 724.042969 562.101562 C 728.214844 562.101562 732.164062 562.003906 736.074219 560.113281 C 742.460938 557.023438 746.570312 550.480469 746.890625 543.441406 C 746.9375 542.453125 746.90625 541.460938 746.90625 540.476562 Z M 349.453125 359.386719 C 349.597656 358.449219 349.816406 357.480469 350.164062 356.59375 C 350.203125 356.539062 350.363281 356.21875 350.476562 356.003906 C 350.5625 355.855469 350.644531 355.703125 350.742188 355.566406 C 350.792969 355.488281 350.839844 355.40625 350.894531 355.332031 C 350.902344 355.320312 350.902344 355.316406 350.910156 355.308594 C 351.003906 355.191406 351.109375 355.097656 351.210938 354.988281 C 351.539062 354.644531 351.859375 354.363281 352.183594 354.128906 C 352.285156 354.054688 352.378906 353.972656 352.484375 353.90625 C 352.613281 353.824219 352.753906 353.765625 352.886719 353.695312 C 353.027344 353.625 353.164062 353.550781 353.308594 353.492188 C 353.523438 353.402344 353.75 353.324219 353.984375 353.257812 C 354.023438 353.246094 354.0625 353.234375 354.097656 353.226562 C 354.339844 353.160156 354.578125 353.109375 354.820312 353.070312 C 354.894531 353.058594 354.96875 353.054688 355.046875 353.046875 C 355.261719 353.019531 355.480469 352.996094 355.703125 352.996094 C 355.726562 352.996094 355.75 353 355.773438 353 C 356.320312 353.003906 356.890625 353.082031 357.515625 353.257812 C 357.765625 353.328125 358.003906 353.421875 358.246094 353.519531 C 358.339844 353.558594 358.433594 353.589844 358.527344 353.632812 C 358.632812 353.683594 358.738281 353.75 358.84375 353.804688 C 359.21875 354.007812 359.570312 354.238281 359.898438 354.488281 C 359.988281 354.5625 360.085938 354.621094 360.175781 354.699219 C 360.5625 355.023438 360.914062 355.378906 361.230469 355.761719 C 361.25 355.785156 361.265625 355.804688 361.285156 355.828125 C 361.605469 356.226562 361.890625 356.65625 362.144531 357.105469 C 362.171875 357.152344 362.195312 357.199219 362.222656 357.246094 C 362.460938 357.683594 362.671875 358.140625 362.855469 358.613281 C 362.867188 358.644531 362.882812 358.679688 362.898438 358.714844 C 363.699219 360.816406 363.996094 363.199219 364.054688 365.375 C 364.128906 368.203125 364.171875 371.03125 364.203125 373.863281 C 364.203125 374.09375 364.203125 374.324219 364.203125 374.554688 C 364.21875 375.785156 364.21875 377.011719 364.230469 378.242188 C 363.570312 377.972656 362.917969 377.699219 362.273438 377.402344 C 357.675781 375.285156 352.976562 372.269531 350.644531 367.605469 C 350.515625 367.332031 350.386719 367.054688 350.273438 366.773438 C 350.140625 366.4375 350.007812 366.097656 349.898438 365.75 C 349.546875 364.578125 349.347656 363.289062 349.292969 361.996094 C 349.277344 361.148438 349.316406 360.285156 349.453125 359.386719 Z M 529.1875 474.765625 C 529.597656 474.953125 529.992188 475.175781 530.390625 475.398438 C 530.65625 475.550781 530.910156 475.703125 531.15625 475.855469 C 531.597656 476.140625 532.039062 476.433594 532.460938 476.773438 C 532.582031 476.875 532.691406 476.976562 532.808594 477.082031 C 533.015625 477.257812 533.222656 477.433594 533.414062 477.617188 C 533.625 477.8125 533.816406 478.015625 534.011719 478.21875 C 534.140625 478.355469 534.273438 478.492188 534.398438 478.628906 C 534.515625 478.761719 534.625 478.898438 534.738281 479.03125 C 534.957031 479.300781 535.175781 479.566406 535.375 479.847656 C 535.398438 479.875 535.417969 479.902344 535.4375 479.933594 C 536.507812 481.4375 537.292969 483.113281 537.808594 484.898438 C 537.984375 485.527344 538.125 486.164062 538.238281 486.808594 C 538.261719 486.945312 538.285156 487.078125 538.304688 487.210938 C 538.316406 487.347656 538.335938 487.480469 538.339844 487.617188 C 538.363281 488.109375 538.394531 488.597656 538.390625 489.09375 C 538.386719 489.417969 538.367188 489.738281 538.351562 490.0625 C 538.324219 490.3125 538.300781 490.5625 538.257812 490.808594 C 538.160156 491.324219 538.03125 491.832031 537.882812 492.332031 C 537.730469 492.800781 537.554688 493.261719 537.332031 493.695312 C 537.316406 493.722656 537.300781 493.75 537.285156 493.777344 C 537.15625 494.023438 537.011719 494.257812 536.859375 494.484375 C 536.828125 494.527344 536.796875 494.570312 536.773438 494.605469 C 536.679688 494.679688 536.128906 495.28125 535.929688 495.503906 C 535.890625 495.539062 535.851562 495.574219 535.816406 495.609375 C 535.679688 495.703125 535.539062 495.789062 535.398438 495.875 C 535.105469 496.039062 534.785156 496.195312 534.570312 496.289062 C 534.417969 496.339844 534.265625 496.382812 534.113281 496.421875 C 532.855469 496.730469 531.394531 496.695312 529.671875 496.382812 C 529.664062 496.382812 529.660156 496.382812 529.652344 496.378906 C 525.496094 495.628906 521.902344 493.699219 519.089844 490.546875 C 518.1875 489.507812 517.378906 488.351562 516.636719 487.070312 C 514.144531 482.769531 512.746094 477.910156 511.964844 472.910156 C 513.972656 472.910156 515.980469 472.910156 517.984375 472.910156 C 521.839844 472.910156 525.703125 473.191406 529.15625 474.75 C 529.167969 474.753906 529.175781 474.761719 529.1875 474.765625 Z M 610.433594 591.34375 C 610.433594 585.042969 610.433594 578.742188 610.433594 572.445312 C 610.433594 568.074219 603.644531 568.070312 603.644531 572.445312 C 603.644531 588.09375 603.644531 603.742188 603.644531 619.390625 C 603.644531 621.921875 603.8125 624.480469 603.054688 626.933594 C 602.15625 629.851562 600.132812 632.371094 597.519531 633.933594 C 594.839844 635.535156 592.074219 635.753906 589.03125 635.699219 C 577.558594 635.484375 566.082031 635.273438 554.609375 635.0625 C 527.929688 634.582031 501.25 634.105469 474.570312 633.722656 C 467.097656 633.613281 459.621094 633.503906 452.144531 633.464844 C 452.144531 630.511719 452.117188 627.558594 451.996094 624.617188 C 451.734375 618.269531 450.152344 611.324219 445.417969 606.75 C 441.875 603.324219 436.949219 601.773438 432.101562 602.75 C 422.777344 604.625 420.097656 614.578125 422.234375 622.78125 C 423.597656 628.003906 426.859375 632.457031 431.265625 635.523438 C 435.402344 638.394531 440.304688 639.628906 445.257812 640.050781 C 445.269531 645.136719 445.273438 650.222656 445.242188 655.308594 C 445.210938 660.785156 441.867188 665.859375 436.523438 667.519531 C 434.917969 668.019531 433.324219 668.117188 431.671875 668.117188 C 421.554688 668.117188 411.441406 668.117188 401.324219 668.117188 C 382.425781 668.117188 363.527344 668.117188 344.628906 668.117188 C 332.859375 668.117188 321.085938 668.117188 309.316406 668.117188 C 303.523438 668.117188 297.726562 668.117188 291.929688 668.117188 C 289.007812 668.117188 286.085938 668.117188 283.164062 668.117188 C 274.488281 668.117188 265.8125 668.117188 257.140625 668.117188 C 250.925781 668.117188 244.710938 668.117188 238.5 668.117188 C 235.976562 668.117188 233.453125 668.117188 230.929688 668.117188 C 229.316406 668.117188 227.761719 668.066406 226.257812 667.789062 C 221.738281 666.808594 218.207031 663.660156 216.800781 659.34375 C 216.722656 659.09375 216.648438 658.84375 216.585938 658.59375 C 216.546875 658.433594 216.5 658.28125 216.46875 658.121094 C 216.25 657.097656 216.132812 656.042969 216.132812 654.972656 C 216.121094 649.230469 216.132812 643.488281 216.132812 637.746094 C 216.132812 630.398438 216.132812 623.046875 216.132812 615.699219 C 216.132812 612.269531 216.132812 608.839844 216.132812 605.414062 C 216.132812 593.539062 216.132812 581.667969 216.132812 569.792969 C 216.132812 565.300781 216.132812 560.808594 216.132812 556.316406 C 216.132812 551.957031 216.132812 547.597656 216.132812 543.234375 C 216.132812 541.707031 216.132812 540.179688 216.132812 538.652344 C 216.132812 538.113281 216.132812 537.574219 216.132812 537.035156 C 216.132812 534.082031 216.917969 531.261719 218.570312 528.941406 C 220.101562 526.898438 222.234375 525.347656 224.671875 524.503906 C 226.550781 523.921875 228.515625 523.785156 230.515625 523.765625 C 230.601562 523.765625 230.683594 523.765625 230.765625 523.765625 C 231.84375 523.761719 232.933594 523.78125 234.023438 523.78125 C 239.792969 523.78125 245.566406 523.78125 251.339844 523.78125 C 251.875 523.78125 252.410156 523.78125 252.945312 523.78125 C 262.574219 523.78125 272.203125 523.78125 281.832031 523.78125 C 289.472656 523.78125 297.113281 523.78125 304.757812 523.78125 C 308.609375 523.78125 312.460938 523.78125 316.3125 523.78125 C 328.347656 523.78125 340.382812 523.78125 352.417969 523.78125 C 357.210938 523.78125 362.003906 523.78125 366.796875 523.78125 C 373.21875 523.78125 379.640625 523.78125 386.058594 523.78125 C 395.089844 523.78125 404.121094 523.78125 413.152344 523.78125 C 414.253906 523.78125 415.359375 523.78125 416.460938 523.78125 C 420.859375 523.78125 425.257812 523.78125 429.65625 523.78125 C 429.722656 523.78125 429.792969 523.78125 429.863281 523.78125 C 430.734375 523.78125 431.609375 523.773438 432.484375 523.78125 C 432.988281 523.789062 433.488281 523.824219 433.980469 523.878906 C 434.023438 523.882812 434.0625 523.890625 434.101562 523.894531 C 434.546875 523.953125 434.988281 524.027344 435.421875 524.128906 C 435.476562 524.140625 435.535156 524.152344 435.59375 524.164062 C 435.992188 524.265625 436.386719 524.378906 436.773438 524.515625 C 437.023438 524.601562 437.273438 524.699219 437.515625 524.800781 C 437.597656 524.835938 437.675781 524.871094 437.757812 524.90625 C 440.238281 526.003906 442.328125 527.867188 443.667969 530.269531 C 444.996094 532.75 445.242188 535.417969 445.242188 538.242188 C 445.242188 539.210938 445.242188 540.179688 445.242188 541.148438 C 445.242188 543.460938 445.242188 545.773438 445.242188 548.089844 C 445.242188 550.566406 445.242188 553.039062 445.242188 555.511719 C 445.242188 563.109375 445.242188 570.703125 445.242188 578.296875 C 445.242188 581.699219 445.242188 585.101562 445.242188 588.503906 C 445.242188 590.554688 445.242188 592.605469 445.242188 594.65625 C 445.242188 599.023438 452.03125 599.03125 452.03125 594.65625 C 452.03125 587.179688 452.03125 579.703125 452.03125 572.226562 C 452.03125 563.402344 452.03125 554.578125 452.03125 545.753906 C 452.03125 543.875 452.03125 541.996094 452.03125 540.117188 C 452.03125 539.546875 452.035156 538.976562 452.03125 538.40625 C 452.03125 537.972656 452.03125 537.539062 452.03125 537.109375 C 452.03125 536.855469 452.007812 536.605469 452 536.351562 C 451.996094 536.203125 451.988281 536.050781 451.980469 535.902344 C 451.96875 535.59375 451.953125 535.285156 451.929688 534.976562 C 451.796875 533.175781 451.5 531.390625 450.824219 529.644531 C 450.585938 529.027344 450.3125 528.433594 450.019531 527.855469 C 449.972656 527.765625 449.925781 527.675781 449.878906 527.585938 C 449.726562 527.292969 449.574219 527.003906 449.40625 526.71875 C 448.671875 525.414062 447.789062 524.167969 446.71875 523.027344 C 444.285156 520.433594 441.1875 518.675781 437.832031 517.753906 C 437.449219 517.644531 437.066406 517.546875 436.675781 517.460938 C 436.535156 517.429688 436.390625 517.402344 436.246094 517.375 C 435.699219 517.269531 435.148438 517.183594 434.589844 517.121094 C 434.546875 517.117188 434.507812 517.109375 434.46875 517.105469 C 433.867188 517.042969 433.261719 517 432.648438 516.992188 C 429.601562 516.960938 426.550781 516.992188 423.503906 516.992188 C 416.023438 516.992188 408.542969 516.992188 401.0625 516.992188 C 398.335938 516.992188 395.609375 516.992188 392.882812 516.992188 C 385.1875 516.992188 377.496094 516.992188 369.804688 516.992188 C 357.78125 516.992188 345.761719 516.992188 333.742188 516.992188 C 333.183594 516.992188 332.625 516.992188 332.066406 516.992188 C 320.484375 516.992188 308.902344 516.992188 297.320312 516.992188 C 288.464844 516.992188 279.609375 516.992188 270.753906 516.992188 C 268.789062 516.992188 266.828125 516.992188 264.867188 516.992188 C 256.835938 516.992188 248.804688 516.992188 240.777344 516.992188 C 237.980469 516.992188 235.183594 516.992188 232.382812 516.992188 C 231.300781 516.996094 230.21875 516.992188 229.136719 516.992188 C 227.027344 517 225.007812 517.320312 223.125 517.90625 C 221.226562 518.421875 219.390625 519.21875 217.640625 520.476562 C 213.71875 523.292969 211.101562 527.292969 209.996094 531.828125 C 209.875 532.296875 209.769531 532.769531 209.683594 533.25 C 209.589844 533.777344 209.511719 534.308594 209.453125 534.851562 C 209.445312 534.960938 209.441406 535.074219 209.433594 535.183594 C 209.398438 535.609375 209.347656 536.027344 209.34375 536.457031 C 209.339844 536.628906 209.34375 536.804688 209.34375 536.980469 C 209.335938 538.058594 209.34375 539.136719 209.34375 540.210938 C 209.34375 545.070312 209.34375 549.925781 209.34375 554.78125 C 209.34375 565.855469 209.34375 576.925781 209.34375 588 C 209.34375 589.007812 209.34375 590.019531 209.34375 591.03125 C 209.34375 602.003906 209.34375 612.972656 209.34375 623.945312 C 209.34375 631.65625 209.34375 639.371094 209.34375 647.085938 C 209.34375 651.339844 208.910156 656.019531 209.902344 660.191406 C 210.664062 663.394531 212.285156 666.273438 214.472656 668.621094 C 214.480469 668.628906 214.484375 668.640625 214.492188 668.648438 C 214.953125 669.148438 215.457031 669.617188 215.972656 670.078125 C 216.214844 670.292969 216.46875 670.496094 216.726562 670.703125 C 216.886719 670.832031 217.0625 670.953125 217.226562 671.078125 C 217.566406 671.332031 217.886719 671.605469 218.242188 671.839844 C 219.253906 672.5 220.320312 673.015625 221.425781 673.4375 C 222.910156 674.046875 224.46875 674.484375 226.078125 674.699219 C 226.789062 674.796875 227.488281 674.847656 228.183594 674.875 C 232.339844 675.226562 236.664062 674.90625 240.601562 674.90625 C 248.03125 674.90625 255.457031 674.90625 262.886719 674.90625 C 266.839844 674.90625 270.792969 674.90625 274.746094 674.90625 C 284.667969 674.90625 294.589844 674.90625 304.511719 674.90625 C 306.113281 674.90625 307.714844 674.90625 309.316406 674.90625 C 313.621094 674.90625 317.925781 674.90625 322.230469 674.90625 C 343.03125 674.90625 363.828125 674.90625 384.628906 674.90625 C 398.632812 674.90625 412.636719 674.90625 426.640625 674.90625 C 429.175781 674.90625 431.785156 675.074219 434.3125 674.824219 C 442.144531 674.058594 448.84375 668.761719 451.195312 661.203125 C 452.324219 657.566406 452.035156 653.617188 452.035156 649.855469 C 452.035156 646.664062 452.074219 643.460938 452.113281 640.253906 C 473.007812 640.335938 493.910156 640.800781 514.800781 641.15625 C 528.972656 641.398438 543.140625 641.648438 557.3125 641.90625 C 563.648438 642.019531 569.980469 642.136719 576.316406 642.253906 C 581.59375 642.351562 587.089844 642.890625 592.351562 642.46875 C 600.191406 641.839844 606.878906 636.679688 609.441406 629.234375 C 610.519531 626.097656 610.429688 622.859375 610.429688 619.609375 C 610.433594 610.183594 610.433594 600.761719 610.433594 591.34375 Z M 434.21875 629.320312 C 431 626.851562 429.105469 623.441406 428.402344 619.160156 C 428.398438 619.136719 428.398438 619.132812 428.394531 619.109375 C 428.394531 619.085938 428.390625 619.066406 428.386719 619.011719 C 428.363281 618.765625 428.339844 618.519531 428.324219 618.273438 C 428.292969 617.792969 428.28125 617.308594 428.289062 616.828125 C 428.296875 616.40625 428.328125 615.988281 428.359375 615.570312 C 428.363281 615.511719 428.375 615.417969 428.386719 615.332031 C 428.414062 615.140625 428.441406 614.945312 428.484375 614.757812 C 428.578125 614.347656 428.671875 613.941406 428.792969 613.539062 C 428.839844 613.386719 429.09375 612.785156 429.105469 612.714844 C 429.222656 612.488281 429.335938 612.269531 429.457031 612.046875 C 429.519531 611.921875 429.609375 611.808594 429.683594 611.691406 C 429.699219 611.664062 429.703125 611.65625 429.714844 611.632812 C 429.730469 611.617188 429.734375 611.613281 429.753906 611.59375 C 430.039062 611.289062 430.328125 611.003906 430.628906 610.714844 C 430.652344 610.691406 430.660156 610.6875 430.675781 610.667969 C 430.832031 610.558594 430.984375 610.445312 431.144531 610.347656 C 431.4375 610.179688 431.734375 610.023438 432.03125 609.867188 C 432.113281 609.847656 432.691406 609.601562 432.894531 609.542969 C 433.21875 609.445312 433.550781 609.378906 433.882812 609.316406 C 433.964844 609.320312 434.695312 609.226562 434.851562 609.226562 C 435.21875 609.21875 435.585938 609.242188 435.953125 609.273438 C 436.042969 609.300781 436.730469 609.40625 436.9375 609.460938 C 438.691406 609.917969 439.8125 610.632812 441.199219 612.152344 C 442.542969 613.621094 443.683594 616.066406 444.308594 618.394531 C 445.332031 622.230469 445.246094 626.164062 445.246094 630.09375 C 445.246094 631.140625 445.246094 632.1875 445.25 633.234375 C 441.292969 632.839844 437.457031 631.800781 434.21875 629.320312 Z M 217.46875 489.0625 C 220.953125 497.902344 227.632812 504.984375 235.628906 509.976562 C 239.34375 512.296875 242.757812 506.421875 239.054688 504.113281 C 229.472656 498.128906 221.253906 487.613281 222.171875 475.953125 C 222.445312 475.933594 222.722656 475.925781 222.996094 475.90625 C 227.753906 475.523438 232.492188 474.738281 237.101562 473.492188 C 241.242188 472.375 246.277344 471.121094 248.765625 467.292969 C 250.898438 464.015625 250.515625 459.566406 248.476562 456.339844 C 246.136719 452.636719 241.992188 450.738281 237.664062 450.796875 C 229.484375 450.914062 222.269531 456.824219 218.671875 463.863281 C 217.773438 465.625 217.0625 467.460938 216.527344 469.339844 C 211.015625 469.296875 205.511719 468.636719 200.175781 467.246094 C 194.046875 465.652344 188.414062 462.691406 185.894531 456.589844 C 183.882812 451.71875 184.023438 446.117188 185.792969 441.132812 C 190.503906 427.867188 207.152344 424.089844 219.4375 427.421875 C 221.207031 427.902344 223.128906 426.824219 223.613281 425.050781 C 224.136719 423.144531 222.964844 421.523438 221.242188 420.875 C 207.1875 415.578125 190.71875 409.234375 184.398438 394.320312 C 181.820312 388.238281 181.878906 381.304688 184.679688 375.304688 C 187.195312 369.917969 191.429688 365.84375 196.742188 363.5 C 206.996094 375.261719 217.457031 386.847656 228.164062 398.199219 C 232.789062 403.105469 237.457031 407.972656 242.164062 412.800781 C 245.21875 415.9375 250.019531 411.132812 246.964844 408 C 232.207031 392.859375 217.867188 377.3125 203.917969 361.417969 C 211.082031 360.203125 218.550781 360.984375 225.710938 361.722656 C 227.539062 361.910156 229.105469 360.027344 229.105469 358.328125 C 229.105469 356.335938 227.542969 355.121094 225.710938 354.933594 C 217.046875 354.039062 208.15625 353.296875 199.597656 355.378906 C 199.332031 355.441406 199.078125 355.535156 198.816406 355.605469 C 198.679688 355.449219 198.542969 355.296875 198.40625 355.140625 C 193.996094 350.039062 189.625 344.902344 185.300781 339.730469 C 184.121094 338.324219 181.714844 338.515625 180.5 339.730469 C 179.105469 341.121094 179.320312 343.121094 180.5 344.53125 C 184.339844 349.125 188.214844 353.6875 192.125 358.222656 C 187.144531 360.832031 182.902344 364.695312 179.984375 369.667969 C 175.855469 376.714844 174.597656 385.28125 176.832031 393.160156 C 179.109375 401.203125 184.535156 408.136719 191.046875 413.234375 C 194.621094 416.035156 198.488281 418.316406 202.503906 420.324219 C 193.429688 422.164062 185.125 427.140625 180.808594 435.664062 C 177.554688 442.097656 176.6875 449.835938 178.792969 456.773438 C 181.21875 464.773438 187.230469 470.074219 195.007812 472.785156 C 201.429688 475.023438 208.460938 476.039062 215.382812 476.144531 C 215.148438 480.511719 215.839844 484.925781 217.46875 489.0625 Z M 232.183594 459.140625 C 234.769531 457.730469 238.324219 456.832031 241.070312 458.328125 C 242.800781 459.269531 243.871094 461.640625 243.273438 463.195312 C 242.378906 465.535156 237.554688 466.335938 235.296875 466.945312 C 231.574219 467.953125 227.769531 468.675781 223.925781 469.035156 C 223.878906 469.039062 223.832031 469.042969 223.785156 469.046875 C 225.425781 464.925781 228.214844 461.304688 232.183594 459.140625 Z M 147.289062 522.046875 C 158.320312 516.210938 169.96875 511.558594 181.996094 508.226562 C 186.21875 507.054688 188.007812 513.609375 183.800781 514.773438 C 172.320312 517.957031 161.246094 522.339844 150.714844 527.910156 C 146.851562 529.953125 143.425781 524.089844 147.289062 522.046875 Z M 192.191406 525.617188 C 193.398438 526.824219 193.613281 529.257812 192.191406 530.417969 C 178.582031 541.539062 164.972656 552.664062 151.363281 563.785156 C 149.941406 564.949219 147.96875 565.191406 146.5625 563.785156 C 145.359375 562.582031 145.144531 560.148438 146.5625 558.984375 C 160.171875 547.863281 173.78125 536.738281 187.390625 525.617188 C 188.816406 524.453125 190.789062 524.210938 192.191406 525.617188 Z M 515.367188 292.261719 C 514.367188 290.550781 515.121094 288.71875 516.585938 287.617188 C 517.859375 286.660156 519.132812 285.703125 520.40625 284.742188 C 529.359375 278.007812 538.3125 271.269531 547.265625 264.535156 C 548.09375 263.910156 549.175781 263.910156 550.128906 264.289062 C 551.15625 264.695312 552.03125 265.539062 552.25 266.5625 C 552.722656 268.699219 553.195312 270.832031 553.667969 272.96875 C 556.632812 286.394531 559.597656 299.824219 562.5625 313.253906 C 571.433594 306.578125 580.304688 299.902344 589.179688 293.226562 C 590.90625 291.925781 593.726562 293.292969 594.164062 295.253906 C 594.644531 297.386719 595.121094 299.515625 595.597656 301.648438 C 598.597656 315.046875 601.601562 328.449219 604.601562 341.851562 C 613.535156 335.128906 622.46875 328.40625 631.402344 321.6875 C 633.125 320.390625 635.953125 321.746094 636.390625 323.714844 C 636.859375 325.851562 637.332031 327.984375 637.804688 330.121094 C 641.132812 345.199219 644.464844 360.28125 647.792969 375.363281 C 648.734375 379.628906 642.1875 381.433594 641.246094 377.167969 C 640.777344 375.03125 640.304688 372.898438 639.832031 370.761719 C 636.867188 357.335938 633.902344 343.90625 630.9375 330.476562 C 622.007812 337.195312 613.078125 343.914062 604.148438 350.632812 C 602.421875 351.929688 599.601562 350.566406 599.164062 348.605469 C 598.6875 346.472656 598.207031 344.34375 597.730469 342.210938 C 594.730469 328.8125 591.726562 315.410156 588.726562 302.007812 C 579.792969 308.730469 570.859375 315.453125 561.925781 322.171875 C 560.207031 323.464844 557.367188 322.117188 556.9375 320.144531 C 556.46875 317.984375 556 315.820312 555.53125 313.660156 C 552.617188 300.21875 549.699219 286.777344 546.785156 273.339844 C 537.859375 280.050781 528.9375 286.765625 520.011719 293.480469 C 518.539062 294.589844 516.210938 293.703125 515.367188 292.261719 Z M 650.300781 583.621094 C 648.597656 584.117188 647.359375 586.03125 647.929688 587.796875 C 648.488281 589.523438 650.28125 590.699219 652.105469 590.167969 C 652.3125 590.105469 652.519531 590.046875 652.730469 589.996094 C 652.703125 590.003906 653.117188 589.933594 653.289062 589.898438 C 653.410156 589.886719 653.558594 589.875 653.59375 589.875 C 653.816406 589.863281 654.035156 589.863281 654.253906 589.871094 C 654.488281 589.875 654.726562 589.890625 654.964844 589.917969 C 655.019531 589.933594 655.082031 589.953125 655.175781 589.976562 C 655.464844 590.054688 655.878906 590.113281 656.21875 590.234375 C 656.203125 590.230469 656.253906 590.261719 656.445312 590.363281 C 656.589844 590.441406 656.738281 590.511719 656.882812 590.589844 C 657.171875 590.75 657.441406 590.933594 657.71875 591.113281 C 657.753906 591.136719 657.773438 591.148438 657.800781 591.164062 C 657.867188 591.230469 657.9375 591.300781 657.976562 591.335938 C 658.277344 591.609375 658.539062 591.902344 658.8125 592.203125 C 658.855469 592.25 658.886719 592.28125 658.914062 592.3125 C 658.96875 592.40625 659.019531 592.507812 659.0625 592.570312 C 659.230469 592.84375 659.378906 593.121094 659.53125 593.402344 C 659.554688 593.441406 659.582031 593.476562 659.609375 593.511719 C 659.648438 593.621094 659.679688 593.75 659.699219 593.800781 C 659.828125 594.179688 659.933594 594.5625 660.011719 594.957031 C 660.019531 594.996094 660.039062 595.066406 660.054688 595.132812 C 660.054688 595.167969 660.054688 595.195312 660.058594 595.25 C 660.066406 595.574219 660.089844 595.898438 660.078125 596.226562 C 660.074219 596.390625 660.058594 596.550781 660.050781 596.71875 C 660.042969 596.882812 660.042969 596.960938 660.046875 596.980469 C 659.976562 597.273438 659.851562 597.605469 659.796875 597.789062 C 659.746094 597.953125 659.683594 598.113281 659.632812 598.277344 C 659.632812 598.285156 659.632812 598.289062 659.628906 598.296875 C 659.472656 598.582031 659.339844 598.875 659.171875 599.152344 C 659.0625 599.328125 658.945312 599.492188 658.835938 599.667969 C 658.792969 599.734375 658.769531 599.785156 658.761719 599.820312 C 658.5625 600.054688 658.253906 600.300781 658.105469 600.441406 C 657.988281 600.550781 657.863281 600.652344 657.746094 600.761719 C 657.691406 600.8125 657.667969 600.84375 657.648438 600.871094 C 657.457031 601.003906 657.203125 601.121094 657.070312 601.195312 C 656.933594 601.277344 656.792969 601.355469 656.652344 601.425781 C 656.636719 601.433594 656.558594 601.476562 656.472656 601.519531 C 656.394531 601.554688 656.304688 601.59375 656.261719 601.605469 C 656.070312 601.667969 655.882812 601.734375 655.691406 601.789062 C 655.382812 601.878906 655.070312 601.929688 654.757812 602 C 654.578125 602.007812 654.394531 602.027344 654.210938 602.03125 C 653.925781 602.035156 653.640625 602.019531 653.351562 602.003906 C 653.367188 602.011719 653.378906 602.019531 653.390625 602.03125 C 653.382812 602.019531 653.34375 602.011719 653.316406 602.003906 C 653.289062 602 653.257812 602 653.230469 602 C 653.019531 601.988281 653 601.957031 653.054688 601.941406 C 652.882812 601.914062 652.703125 601.894531 652.652344 601.878906 C 652.316406 601.796875 651.996094 601.691406 651.671875 601.582031 C 651.65625 601.578125 651.652344 601.578125 651.636719 601.574219 C 651.519531 601.515625 651.367188 601.441406 651.332031 601.421875 C 651.003906 601.25 650.6875 601.0625 650.382812 600.855469 C 650.347656 600.828125 650.273438 600.773438 650.207031 600.722656 C 650.128906 600.65625 650.046875 600.582031 650.019531 600.558594 C 649.722656 600.289062 649.457031 599.992188 649.1875 599.695312 C 649.125 599.628906 649.085938 599.585938 649.058594 599.558594 C 648.988281 599.4375 648.925781 599.308594 648.875 599.222656 C 648.78125 599.074219 648.554688 598.769531 648.417969 598.507812 C 648.421875 598.480469 648.414062 598.421875 648.378906 598.320312 C 648.308594 598.09375 648.222656 597.871094 648.15625 597.640625 C 648.078125 597.363281 647.820312 596.757812 647.902344 596.464844 C 647.894531 596.496094 647.957031 597.316406 647.941406 596.648438 C 647.933594 596.402344 647.914062 596.160156 647.914062 595.917969 C 647.917969 595.753906 647.921875 595.589844 647.929688 595.425781 C 647.933594 595.378906 647.949219 595.238281 647.960938 595.117188 C 647.984375 594.996094 648.007812 594.867188 648.011719 594.847656 C 648.066406 594.597656 648.132812 594.351562 648.203125 594.105469 C 648.695312 592.398438 647.605469 590.332031 645.832031 589.929688 C 644.019531 589.515625 642.183594 590.472656 641.65625 592.300781 C 640.414062 596.609375 641.503906 601.109375 644.386719 604.496094 C 647.300781 607.921875 651.972656 609.304688 656.324219 608.59375 C 660.339844 607.9375 664.007812 605.078125 665.65625 601.363281 C 667.421875 597.378906 667.265625 592.625 664.792969 588.945312 C 661.621094 584.230469 655.804688 582.015625 650.300781 583.621094 Z M 651.621094 601.566406 C 651.238281 601.441406 651.441406 601.503906 651.621094 601.566406 Z M 651.644531 601.574219 C 651.71875 601.605469 651.785156 601.632812 651.78125 601.640625 C 651.78125 601.640625 651.71875 601.613281 651.644531 601.574219 Z M 653.316406 602.003906 C 653.25 601.984375 653.160156 601.960938 653.054688 601.945312 C 653.109375 601.929688 653.25 601.933594 653.351562 602.003906 C 653.339844 602.003906 653.328125 602.003906 653.316406 602.003906 Z M 297.582031 300.316406 C 297.582031 294.898438 297.582031 289.484375 297.582031 284.070312 C 293.816406 286.683594 290.054688 289.292969 286.289062 291.90625 C 284.777344 292.957031 282.515625 292.175781 281.644531 290.6875 C 280.667969 289.019531 281.359375 287.085938 282.863281 286.042969 C 288.328125 282.25 293.796875 278.457031 299.261719 274.664062 C 301.429688 273.160156 304.371094 275.171875 304.371094 277.59375 C 304.371094 280.378906 304.371094 283.164062 304.371094 285.949219 C 304.371094 297.964844 304.371094 309.984375 304.371094 322 C 304.371094 329.574219 304.371094 337.144531 304.371094 344.71875 C 304.371094 346.558594 302.8125 348.113281 300.976562 348.113281 C 292.179688 348.113281 283.386719 348.113281 274.59375 348.113281 C 270.214844 348.113281 270.222656 341.324219 274.59375 341.324219 C 282.253906 341.324219 289.917969 341.324219 297.582031 341.324219 C 297.582031 339.671875 297.582031 338.019531 297.582031 336.367188 C 297.582031 324.347656 297.582031 312.332031 297.582031 300.316406 Z M 329.578125 341.324219 C 331.484375 341.324219 332.890625 342.878906 332.972656 344.71875 C 333.054688 346.554688 331.355469 348.113281 329.578125 348.113281 C 328.742188 348.113281 327.90625 348.113281 327.070312 348.113281 C 321.152344 348.113281 320.667969 348.113281 314.75 348.113281 C 312.84375 348.113281 311.4375 346.558594 311.355469 344.71875 C 311.273438 342.886719 312.972656 341.324219 314.75 341.324219 C 315.585938 341.324219 316.421875 341.324219 317.257812 341.324219 C 323.175781 341.324219 323.660156 341.324219 329.578125 341.324219 Z M 579.050781 498.347656 C 574.496094 503.898438 569.867188 509.386719 565.199219 514.84375 C 579.113281 514.84375 593.027344 514.84375 606.941406 514.84375 C 611.320312 514.84375 611.3125 521.632812 606.941406 521.632812 C 604.894531 521.632812 602.847656 521.632812 600.796875 521.632812 C 586.476562 521.632812 572.15625 521.632812 557.835938 521.632812 C 554.746094 521.632812 553.5625 517.996094 555.4375 515.839844 C 561.664062 508.660156 567.796875 501.402344 573.828125 494.058594 C 578.671875 488.160156 584.117188 482.320312 587.855469 475.625 C 590.855469 470.257812 591.839844 463.871094 587.136719 459.167969 C 582.855469 454.886719 576.136719 453.980469 570.640625 456.339844 C 564.804688 458.847656 561.242188 464.824219 561.320312 471.09375 C 561.375 475.472656 554.585938 475.460938 554.53125 471.09375 C 554.414062 461.664062 560.214844 453.078125 569.019531 449.714844 C 576.652344 446.804688 585.625 448.402344 591.589844 454.027344 C 594.371094 456.652344 596.410156 460.195312 597.011719 463.988281 C 597.703125 468.351562 596.785156 472.511719 595 476.503906 C 593.265625 480.386719 590.710938 483.820312 588.097656 487.148438 C 585.136719 490.925781 582.09375 494.636719 579.050781 498.347656 Z M 286.554688 616.949219 C 286.628906 616.132812 286.667969 615.308594 286.65625 614.488281 C 286.648438 614.074219 286.628906 613.664062 286.597656 613.25 C 286.589844 613.132812 286.53125 612.546875 286.527344 612.453125 C 286.070312 609.210938 284.589844 607.042969 282.148438 604.84375 C 281.019531 603.828125 280.027344 603.132812 278.519531 602.234375 C 277.308594 601.515625 276.058594 600.875 274.777344 600.292969 C 274.625 600.222656 274.472656 600.160156 274.320312 600.09375 C 274.125 600.015625 273.929688 599.933594 273.734375 599.859375 C 273.347656 599.707031 272.953125 599.5625 272.558594 599.421875 C 272.179688 599.289062 271.800781 599.160156 271.414062 599.050781 C 268.753906 598.285156 268.363281 595.328125 269.917969 593.375 C 272.726562 589.839844 276.167969 585.464844 276.371094 580.746094 C 276.542969 576.695312 274.054688 573.359375 270.445312 571.695312 C 266.734375 569.988281 262.214844 570.511719 258.792969 572.632812 C 255.042969 574.953125 252.984375 579.246094 253.023438 583.582031 C 253.0625 587.957031 246.273438 587.949219 246.234375 583.582031 C 246.183594 577.929688 248.59375 572.207031 252.953125 568.542969 C 260.601562 562.117188 273.003906 562.269531 279.535156 570.292969 C 282.851562 574.375 283.898438 579.515625 282.578125 584.609375 C 281.675781 588.097656 279.863281 591.21875 277.78125 594.144531 C 282.273438 596.101562 286.53125 599.011719 289.453125 602.746094 C 294.570312 609.285156 294.605469 618.828125 290.644531 625.980469 C 285.984375 634.398438 276.1875 637.644531 267.023438 637.226562 C 258.667969 636.851562 251.097656 633.300781 246.023438 626.601562 C 243.882812 623.777344 242.027344 620.3125 241.292969 616.8125 C 240.914062 615.011719 241.804688 613.148438 243.664062 612.636719 C 245.351562 612.171875 247.460938 613.210938 247.839844 615.007812 C 248.054688 616.035156 248.460938 616.996094 248.804688 617.984375 C 248.808594 617.992188 248.804688 617.992188 248.808594 618 C 248.824219 618.027344 248.828125 618.039062 248.847656 618.074219 C 248.96875 618.332031 249.085938 618.59375 249.210938 618.851562 C 249.46875 619.378906 249.746094 619.898438 250.039062 620.410156 C 250.363281 620.972656 250.707031 621.519531 251.070312 622.054688 C 251.238281 622.300781 251.414062 622.539062 251.589844 622.78125 C 251.644531 622.839844 251.972656 623.257812 252.078125 623.382812 C 256.355469 628.410156 262.285156 630.625 269.328125 630.460938 C 273.257812 630.371094 277.082031 629.53125 280.335938 627.40625 C 281.476562 626.664062 282.613281 625.640625 283.632812 624.359375 C 283.65625 624.328125 283.902344 623.980469 284.144531 623.609375 C 284.371094 623.265625 284.582031 622.914062 284.78125 622.554688 C 285.207031 621.789062 285.359375 621.46875 285.539062 620.980469 C 285.816406 620.214844 286.058594 619.4375 286.246094 618.640625 C 286.339844 618.242188 286.417969 617.84375 286.488281 617.441406 C 286.511719 617.292969 286.527344 617.226562 286.535156 617.199219 C 286.535156 617.171875 286.539062 617.101562 286.554688 616.949219 Z M 351.902344 280.988281 C 347.527344 280.988281 347.535156 274.199219 351.902344 274.199219 C 356.046875 274.199219 360.191406 274.199219 364.332031 274.199219 C 382.402344 274.199219 400.476562 274.199219 418.546875 274.199219 C 429.980469 274.199219 441.414062 274.199219 452.847656 274.199219 C 457.222656 274.199219 457.21875 280.988281 452.847656 280.988281 C 448.707031 280.988281 444.5625 280.988281 440.417969 280.988281 C 422.347656 280.988281 404.277344 280.988281 386.203125 280.988281 C 374.769531 280.988281 363.335938 280.988281 351.902344 280.988281 Z M 351.902344 298.554688 C 356.046875 298.554688 360.191406 298.554688 364.332031 298.554688 C 382.402344 298.554688 400.476562 298.554688 418.546875 298.554688 C 429.980469 298.554688 441.414062 298.554688 452.847656 298.554688 C 457.222656 298.554688 457.21875 305.34375 452.847656 305.34375 C 448.707031 305.34375 444.5625 305.34375 440.417969 305.34375 C 422.347656 305.34375 404.277344 305.34375 386.203125 305.34375 C 374.769531 305.34375 363.335938 305.34375 351.902344 305.34375 C 347.527344 305.34375 347.535156 298.554688 351.902344 298.554688 Z M 351.902344 322.90625 C 354.546875 322.90625 357.195312 322.90625 359.839844 322.90625 C 371.429688 322.90625 383.023438 322.90625 394.613281 322.90625 C 401.847656 322.90625 409.082031 322.90625 416.316406 322.90625 C 420.691406 322.90625 420.683594 329.695312 416.316406 329.695312 C 413.671875 329.695312 411.027344 329.695312 408.382812 329.695312 C 396.789062 329.695312 385.199219 329.695312 373.605469 329.695312 C 366.371094 329.695312 359.136719 329.695312 351.902344 329.695312 C 347.527344 329.695312 347.535156 322.90625 351.902344 322.90625 Z M 631.582031 455.066406 C 627.207031 455.066406 627.210938 448.277344 631.582031 448.277344 C 635.03125 448.277344 638.484375 448.277344 641.933594 448.277344 C 656.945312 448.277344 671.960938 448.277344 686.972656 448.277344 C 696.4375 448.277344 705.898438 448.277344 715.363281 448.277344 C 719.738281 448.277344 719.730469 455.066406 715.363281 455.066406 C 711.910156 455.066406 708.460938 455.066406 705.007812 455.066406 C 689.996094 455.066406 674.984375 455.066406 659.972656 455.066406 C 650.507812 455.066406 641.042969 455.066406 631.582031 455.066406 Z M 631.582031 472.628906 C 635.03125 472.628906 638.484375 472.628906 641.933594 472.628906 C 656.945312 472.628906 671.960938 472.628906 686.972656 472.628906 C 696.4375 472.628906 705.898438 472.628906 715.363281 472.628906 C 719.738281 472.628906 719.730469 479.421875 715.363281 479.421875 C 711.910156 479.421875 708.460938 479.421875 705.007812 479.421875 C 689.996094 479.421875 674.984375 479.421875 659.972656 479.421875 C 650.507812 479.421875 641.042969 479.421875 631.582031 479.421875 C 627.207031 479.421875 627.210938 472.628906 631.582031 472.628906 Z M 631.582031 496.984375 C 634.046875 496.984375 636.511719 496.984375 638.976562 496.984375 C 649.640625 496.984375 660.300781 496.984375 670.964844 496.984375 C 677.644531 496.984375 684.328125 496.984375 691.007812 496.984375 C 695.382812 496.984375 695.378906 503.773438 691.007812 503.773438 C 688.542969 503.773438 686.078125 503.773438 683.613281 503.773438 C 672.949219 503.773438 662.289062 503.773438 651.625 503.773438 C 644.945312 503.773438 638.261719 503.773438 631.582031 503.773438 C 627.207031 503.773438 627.210938 496.984375 631.582031 496.984375 Z M 395.769531 572.183594 C 392.320312 572.183594 388.867188 572.183594 385.417969 572.183594 C 370.402344 572.183594 355.390625 572.183594 340.378906 572.183594 C 330.914062 572.183594 321.453125 572.183594 311.988281 572.183594 C 307.613281 572.183594 307.621094 565.394531 311.988281 565.394531 C 315.4375 565.394531 318.890625 565.394531 322.339844 565.394531 C 337.355469 565.394531 352.367188 565.394531 367.378906 565.394531 C 376.84375 565.394531 386.308594 565.394531 395.769531 565.394531 C 400.144531 565.394531 400.136719 572.183594 395.769531 572.183594 Z M 385.417969 596.539062 C 370.402344 596.539062 355.390625 596.539062 340.378906 596.539062 C 330.914062 596.539062 321.453125 596.539062 311.988281 596.539062 C 307.613281 596.539062 307.621094 589.75 311.988281 589.75 C 315.4375 589.75 318.890625 589.75 322.339844 589.75 C 337.355469 589.75 352.367188 589.75 367.378906 589.75 C 376.84375 589.75 386.308594 589.75 395.769531 589.75 C 400.144531 589.75 400.140625 596.539062 395.769531 596.539062 C 392.320312 596.539062 388.867188 596.539062 385.417969 596.539062 Z M 359.238281 614.105469 C 363.613281 614.105469 363.609375 620.894531 359.238281 620.894531 C 357.285156 620.894531 355.332031 620.894531 353.378906 620.894531 C 339.582031 620.894531 325.785156 620.894531 311.988281 620.894531 C 307.613281 620.894531 307.621094 614.105469 311.988281 614.105469 C 313.941406 614.105469 315.894531 614.105469 317.847656 614.105469 C 331.644531 614.105469 345.441406 614.105469 359.238281 614.105469 Z M 359.238281 614.105469 " fill-opacity="1" fill-rule="nonzero"/></g><g clip-path="url(#b19005164a)"><path fill="#dc4f50" d="M 518.566406 499.085938 C 518.941406 499.339844 519.304688 499.605469 519.695312 499.84375 C 522.101562 501.308594 524.988281 502.441406 527.941406 503 C 526.671875 502.738281 525.441406 502.390625 524.308594 501.988281 C 522.269531 501.261719 520.339844 500.289062 518.566406 499.085938 Z M 486.09375 276.140625 C 486.09375 269.539062 486.09375 262.941406 486.09375 256.34375 C 486.09375 250.976562 486.207031 245.789062 483.164062 240.992188 C 479.117188 234.601562 472.402344 231.867188 465.101562 231.867188 C 461.480469 231.867188 457.855469 231.867188 454.234375 231.867188 C 439.386719 231.867188 424.542969 231.867188 409.695312 231.867188 C 390.097656 231.867188 370.496094 231.867188 350.898438 231.867188 C 332.738281 231.867188 314.574219 231.867188 296.410156 231.867188 C 285.914062 231.867188 275.417969 231.867188 264.921875 231.867188 C 258.703125 231.867188 252.746094 233.394531 248.410156 238.242188 C 243.960938 243.214844 243.402344 249.070312 243.402344 255.308594 C 243.402344 270.84375 243.402344 286.378906 243.402344 301.914062 C 243.402344 320.132812 243.402344 338.351562 243.402344 356.570312 C 243.402344 360.972656 243.382812 365.378906 243.402344 369.785156 C 243.449219 380.699219 251.695312 389.578125 262.757812 389.78125 C 276.460938 390.035156 290.191406 389.78125 303.898438 389.78125 C 316.621094 389.78125 329.347656 389.78125 342.070312 389.78125 C 346.4375 389.78125 346.445312 382.992188 342.070312 382.992188 C 329.179688 382.992188 316.292969 382.992188 303.402344 382.992188 C 289.886719 382.992188 276.351562 383.207031 262.835938 382.992188 C 257.605469 382.910156 252.8125 379.808594 250.96875 374.820312 C 250.277344 372.945312 250.191406 371.046875 250.191406 369.089844 C 250.191406 364.351562 250.191406 359.609375 250.191406 354.867188 C 250.191406 336.972656 250.191406 319.074219 250.191406 301.179688 C 250.191406 286.089844 250.191406 271.003906 250.191406 255.917969 C 250.191406 250.96875 250 246.207031 253.871094 242.339844 C 257.191406 239.015625 261.265625 238.660156 265.589844 238.660156 C 276.117188 238.660156 286.644531 238.660156 297.171875 238.660156 C 314.753906 238.660156 332.335938 238.660156 349.917969 238.660156 C 369.011719 238.660156 388.109375 238.660156 407.203125 238.660156 C 421.996094 238.660156 436.789062 238.660156 451.585938 238.660156 C 455.648438 238.660156 459.710938 238.660156 463.777344 238.660156 C 467.910156 238.660156 471.855469 238.859375 475.160156 241.890625 C 479.355469 245.746094 479.304688 250.589844 479.304688 255.710938 C 479.304688 261.84375 479.304688 267.972656 479.304688 274.105469 C 479.304688 291.503906 479.304688 308.902344 479.304688 326.300781 C 479.304688 321.925781 486.09375 321.933594 486.09375 326.300781 C 486.09375 309.582031 486.09375 292.859375 486.09375 276.140625 Z M 740.117188 428.234375 C 740.117188 434.429688 740.117188 440.628906 740.117188 446.824219 C 740.117188 465.445312 740.117188 484.0625 740.117188 502.683594 C 740.117188 515.589844 740.117188 528.5 740.117188 541.40625 C 740.117188 543.367188 740.035156 545.257812 739.339844 547.136719 C 737.511719 552.09375 732.730469 555.222656 727.523438 555.308594 C 725.523438 555.34375 723.519531 555.308594 721.519531 555.308594 C 709.410156 555.308594 697.300781 555.308594 685.191406 555.308594 C 666.886719 555.308594 648.578125 555.308594 630.273438 555.308594 C 611.507812 555.308594 592.738281 555.308594 573.972656 555.308594 C 560.496094 555.308594 547.015625 555.308594 533.535156 555.308594 C 530.5 555.308594 527.46875 555.316406 524.433594 555.308594 C 517.117188 555.289062 511.125 550.222656 511.007812 542.644531 C 510.808594 529.839844 511.007812 517.023438 511.007812 504.21875 C 511.007812 499.851562 504.21875 499.84375 504.21875 504.21875 C 504.21875 511.050781 504.21875 517.882812 504.21875 524.71875 C 504.21875 529.164062 504.21875 533.609375 504.21875 538.054688 C 504.21875 540.824219 504.082031 543.628906 504.570312 546.371094 C 506.261719 555.914062 514.921875 562.070312 524.296875 562.097656 C 527.375 562.109375 530.453125 562.097656 533.535156 562.097656 C 547.597656 562.097656 561.660156 562.097656 575.722656 562.097656 C 595.140625 562.097656 614.5625 562.097656 633.984375 562.097656 C 652.53125 562.097656 671.082031 562.097656 689.632812 562.097656 C 701.101562 562.097656 712.574219 562.097656 724.042969 562.097656 C 728.214844 562.097656 732.164062 562.003906 736.074219 560.113281 C 742.460938 557.023438 746.570312 550.480469 746.890625 543.441406 C 746.9375 542.453125 746.90625 541.460938 746.90625 540.476562 C 746.90625 526.125 746.90625 511.773438 746.90625 497.421875 C 746.90625 478.695312 746.90625 459.96875 746.90625 441.242188 C 746.90625 435.957031 746.90625 430.667969 746.90625 425.382812 C 746.90625 424.832031 746.902344 424.285156 746.890625 423.742188 C 746.742188 427.90625 740.191406 427.828125 740.117188 423.539062 M 746.75 421.378906 C 746.71875 421.113281 746.695312 420.847656 746.65625 420.582031 " fill-opacity="1" fill-rule="nonzero"/></g><path fill="#439751" d="M 209.34375 655.269531 C 209.363281 660.292969 211.191406 665.015625 214.472656 668.621094 C 212.285156 666.273438 210.664062 663.390625 209.902344 660.1875 C 208.910156 656.015625 209.34375 651.335938 209.34375 647.085938 C 209.34375 648.042969 209.34375 649 209.34375 649.957031 C 209.34375 651.726562 209.335938 653.5 209.34375 655.269531 Z M 444.835938 533.148438 C 444.5625 532.121094 444.167969 531.15625 443.667969 530.265625 C 444.996094 532.746094 445.242188 535.417969 445.242188 538.242188 C 445.242188 539.210938 445.242188 540.175781 445.242188 541.144531 C 445.246094 538.542969 445.503906 535.679688 444.835938 533.148438 Z M 609.441406 629.234375 C 606.878906 636.675781 600.191406 641.839844 592.351562 642.46875 C 587.089844 642.890625 581.59375 642.347656 576.316406 642.25 C 569.980469 642.132812 563.648438 642.019531 557.3125 641.902344 C 543.140625 641.644531 528.972656 641.394531 514.800781 641.152344 C 493.910156 640.796875 473.007812 640.332031 452.113281 640.253906 C 452.074219 643.457031 452.035156 646.660156 452.035156 649.855469 C 452.035156 653.617188 452.328125 657.566406 451.195312 661.203125 C 448.84375 668.757812 442.144531 674.058594 434.3125 674.824219 C 431.785156 675.070312 429.175781 674.90625 426.640625 674.90625 C 412.636719 674.90625 398.632812 674.90625 384.628906 674.90625 C 363.828125 674.90625 343.03125 674.90625 322.230469 674.90625 C 317.925781 674.90625 313.621094 674.90625 309.316406 674.90625 C 313.6875 674.90625 313.691406 668.117188 309.316406 668.117188 C 321.089844 668.117188 332.859375 668.117188 344.628906 668.117188 C 363.527344 668.117188 382.425781 668.117188 401.324219 668.117188 C 411.441406 668.117188 421.554688 668.117188 431.671875 668.117188 C 433.324219 668.117188 434.917969 668.019531 436.523438 667.519531 C 441.867188 665.859375 445.210938 660.789062 445.242188 655.308594 C 445.273438 650.222656 445.269531 645.136719 445.257812 640.050781 C 440.304688 639.632812 435.402344 638.394531 431.265625 635.523438 C 426.859375 632.457031 423.597656 628.003906 422.238281 622.78125 C 420.097656 614.578125 422.777344 604.625 432.101562 602.75 C 436.949219 601.773438 441.875 603.328125 445.417969 606.75 C 450.152344 611.324219 451.734375 618.269531 451.996094 624.617188 C 452.117188 627.5625 452.144531 630.511719 452.144531 633.464844 C 459.621094 633.503906 467.097656 633.617188 474.570312 633.722656 C 501.25 634.105469 527.929688 634.582031 554.609375 635.066406 C 566.082031 635.273438 577.558594 635.484375 589.03125 635.699219 C 592.078125 635.753906 594.839844 635.539062 597.519531 633.9375 C 600.132812 632.371094 602.15625 629.851562 603.054688 626.933594 C 603.8125 624.484375 603.644531 621.921875 603.644531 619.390625 C 603.644531 603.742188 603.644531 588.09375 603.644531 572.445312 C 603.644531 568.070312 610.433594 568.078125 610.433594 572.445312 C 610.433594 578.746094 610.433594 585.042969 610.433594 591.34375 C 610.433594 600.765625 610.433594 610.183594 610.433594 619.605469 C 610.433594 622.859375 610.519531 626.097656 609.441406 629.234375 Z M 445.25 633.234375 C 445.246094 632.1875 445.242188 631.140625 445.242188 630.09375 C 445.242188 626.164062 445.332031 622.226562 444.308594 618.394531 C 443.683594 616.066406 442.542969 613.621094 441.199219 612.152344 C 439.8125 610.632812 438.691406 609.917969 436.9375 609.460938 C 436.730469 609.40625 436.042969 609.300781 435.953125 609.273438 C 435.585938 609.242188 435.21875 609.21875 434.851562 609.222656 C 434.695312 609.226562 433.964844 609.320312 433.882812 609.3125 C 433.550781 609.378906 433.21875 609.445312 432.894531 609.542969 C 432.691406 609.601562 432.113281 609.847656 432.03125 609.867188 C 431.730469 610.023438 431.4375 610.179688 431.144531 610.347656 C 430.984375 610.441406 430.828125 610.558594 430.675781 610.667969 C 430.65625 610.683594 430.652344 610.691406 430.628906 610.714844 C 430.328125 611.003906 430.035156 611.289062 429.753906 611.59375 C 429.734375 611.613281 429.730469 611.617188 429.714844 611.632812 C 429.703125 611.65625 429.699219 611.664062 429.679688 611.691406 C 429.609375 611.808594 429.519531 611.921875 429.453125 612.046875 C 429.335938 612.265625 429.222656 612.488281 429.105469 612.710938 C 429.09375 612.78125 428.839844 613.386719 428.792969 613.539062 C 428.671875 613.941406 428.578125 614.347656 428.484375 614.757812 C 428.441406 614.945312 428.414062 615.140625 428.382812 615.332031 C 428.375 615.417969 428.363281 615.511719 428.359375 615.570312 C 428.328125 615.988281 428.296875 616.40625 428.289062 616.824219 C 428.28125 617.308594 428.292969 617.792969 428.324219 618.273438 C 428.339844 618.519531 428.363281 618.765625 428.386719 619.011719 C 428.390625 619.066406 428.390625 619.085938 428.394531 619.109375 C 428.398438 619.128906 428.398438 619.136719 428.402344 619.15625 C 429.105469 623.441406 430.996094 626.851562 434.21875 629.320312 C 437.457031 631.800781 441.292969 632.839844 445.25 633.234375 Z M 432.582031 523.78125 C 432.550781 523.78125 432.519531 523.78125 432.484375 523.78125 C 432.988281 523.789062 433.488281 523.820312 433.984375 523.878906 C 433.519531 523.824219 433.054688 523.785156 432.582031 523.78125 Z M 449.410156 526.71875 C 448.671875 525.410156 447.792969 524.167969 446.722656 523.027344 C 444.289062 520.433594 441.191406 518.675781 437.832031 517.753906 C 442.6875 519.128906 446.828125 522.316406 449.410156 526.71875 Z M 452.035156 537.105469 C 452.035156 536.851562 452.011719 536.601562 452.003906 536.351562 C 452.023438 537.035156 452.03125 537.71875 452.035156 538.40625 C 452.035156 537.972656 452.035156 537.539062 452.035156 537.105469 Z M 209.34375 536.453125 C 209.339844 536.628906 209.34375 536.804688 209.34375 536.976562 C 209.34375 536.371094 209.382812 535.773438 209.433594 535.183594 C 209.402344 535.605469 209.347656 536.023438 209.34375 536.453125 Z M 299.261719 274.664062 C 293.796875 278.457031 288.328125 282.25 282.863281 286.042969 C 281.359375 287.085938 280.667969 289.019531 281.644531 290.6875 C 282.515625 292.175781 284.777344 292.957031 286.289062 291.90625 C 290.054688 289.292969 293.816406 286.683594 297.582031 284.070312 C 297.582031 289.484375 297.582031 294.898438 297.582031 300.3125 C 297.582031 312.332031 297.582031 324.347656 297.582031 336.363281 C 297.582031 338.019531 297.582031 339.671875 297.582031 341.324219 C 289.917969 341.324219 282.253906 341.324219 274.589844 341.324219 C 270.222656 341.324219 270.214844 348.113281 274.589844 348.113281 C 283.386719 348.113281 292.179688 348.113281 300.976562 348.113281 C 302.8125 348.113281 304.371094 346.558594 304.371094 344.71875 C 304.371094 337.144531 304.371094 329.574219 304.371094 322 C 304.371094 309.980469 304.371094 297.964844 304.371094 285.949219 C 304.371094 283.164062 304.371094 280.378906 304.371094 277.59375 C 304.371094 275.171875 301.429688 273.160156 299.261719 274.664062 Z M 327.070312 348.113281 C 327.90625 348.113281 328.742188 348.113281 329.578125 348.113281 C 331.355469 348.113281 333.054688 346.554688 332.972656 344.71875 C 332.890625 342.878906 331.480469 341.324219 329.578125 341.324219 C 323.660156 341.324219 323.175781 341.324219 317.257812 341.324219 C 316.421875 341.324219 315.585938 341.324219 314.75 341.324219 C 312.972656 341.324219 311.273438 342.886719 311.355469 344.71875 C 311.4375 346.558594 312.84375 348.113281 314.75 348.113281 C 320.664062 348.113281 321.152344 348.113281 327.070312 348.113281 Z M 217.640625 520.472656 C 213.71875 523.289062 211.105469 527.292969 209.996094 531.828125 C 211.695312 525.167969 216.613281 519.929688 223.125 517.902344 C 221.230469 518.421875 219.390625 519.21875 217.640625 520.472656 Z M 226.078125 674.699219 C 226.789062 674.796875 227.488281 674.84375 228.183594 674.871094 C 225.84375 674.671875 223.558594 674.25 221.429688 673.4375 C 222.910156 674.042969 224.46875 674.480469 226.078125 674.699219 Z M 226.257812 667.789062 C 221.738281 666.808594 218.207031 663.65625 216.800781 659.34375 C 217.644531 662.070312 219.304688 664.472656 221.855469 666.09375 C 223.285156 667.003906 224.746094 667.511719 226.257812 667.789062 Z M 218.574219 528.9375 C 220.101562 526.898438 222.234375 525.347656 224.671875 524.503906 C 223.449219 524.878906 222.261719 525.441406 221.125 526.292969 C 220.105469 527.0625 219.269531 527.960938 218.574219 528.9375 Z M 218.574219 528.9375 " fill-opacity="1" fill-rule="nonzero"/><g clip-path="url(#8c8f4d1cad)"><path fill="#2f72b1" d="M 228.164062 398.199219 C 217.457031 386.84375 206.996094 375.261719 196.742188 363.5 C 195.207031 361.738281 193.652344 359.992188 192.125 358.222656 C 188.214844 353.6875 184.339844 349.121094 180.5 344.527344 C 179.316406 343.117188 179.105469 341.121094 180.5 339.726562 C 181.714844 338.511719 184.121094 338.320312 185.300781 339.726562 C 189.625 344.902344 193.996094 350.039062 198.40625 355.140625 C 198.542969 355.296875 198.679688 355.449219 198.816406 355.605469 C 200.503906 357.554688 202.21875 359.480469 203.917969 361.417969 C 217.867188 377.3125 232.207031 392.859375 246.964844 408 C 250.019531 411.132812 245.21875 415.933594 242.164062 412.800781 C 237.457031 407.972656 232.789062 403.105469 228.164062 398.199219 Z M 187.390625 525.617188 C 173.78125 536.738281 160.171875 547.863281 146.5625 558.984375 C 145.140625 560.148438 145.359375 562.582031 146.5625 563.785156 C 147.96875 565.191406 149.941406 564.949219 151.363281 563.785156 C 164.972656 552.664062 178.582031 541.539062 192.191406 530.417969 C 193.613281 529.257812 193.398438 526.820312 192.191406 525.617188 C 190.789062 524.210938 188.816406 524.453125 187.390625 525.617188 Z M 631.582031 448.277344 C 627.210938 448.277344 627.207031 455.066406 631.582031 455.066406 C 641.042969 455.066406 650.507812 455.066406 659.972656 455.066406 C 674.984375 455.066406 689.996094 455.066406 705.007812 455.066406 C 708.460938 455.066406 711.910156 455.066406 715.363281 455.066406 C 719.730469 455.066406 719.738281 448.277344 715.363281 448.277344 C 705.898438 448.277344 696.4375 448.277344 686.972656 448.277344 C 671.960938 448.277344 656.945312 448.277344 641.933594 448.277344 C 638.484375 448.277344 635.03125 448.277344 631.582031 448.277344 Z M 715.363281 472.628906 C 705.898438 472.628906 696.4375 472.628906 686.972656 472.628906 C 671.960938 472.628906 656.945312 472.628906 641.933594 472.628906 C 638.484375 472.628906 635.03125 472.628906 631.582031 472.628906 C 627.210938 472.628906 627.207031 479.421875 631.582031 479.421875 C 641.042969 479.421875 650.507812 479.421875 659.972656 479.421875 C 674.984375 479.421875 689.996094 479.421875 705.007812 479.421875 C 708.460938 479.421875 711.910156 479.421875 715.363281 479.421875 C 719.730469 479.421875 719.738281 472.628906 715.363281 472.628906 Z M 691.007812 496.984375 C 684.328125 496.984375 677.644531 496.984375 670.964844 496.984375 C 660.300781 496.984375 649.640625 496.984375 638.976562 496.984375 C 636.511719 496.984375 634.046875 496.984375 631.582031 496.984375 C 627.210938 496.984375 627.207031 503.773438 631.582031 503.773438 C 638.261719 503.773438 644.945312 503.773438 651.625 503.773438 C 662.289062 503.773438 672.949219 503.773438 683.613281 503.773438 C 686.078125 503.773438 688.542969 503.773438 691.007812 503.773438 C 695.378906 503.773438 695.382812 496.984375 691.007812 496.984375 Z M 451.984375 535.898438 C 451.96875 535.589844 451.953125 535.285156 451.929688 534.976562 C 451.796875 533.171875 451.5 531.390625 450.828125 529.640625 C 450.589844 529.027344 450.3125 528.433594 450.019531 527.851562 C 449.976562 527.761719 449.929688 527.675781 449.882812 527.585938 C 449.730469 527.292969 449.574219 527 449.410156 526.71875 C 446.828125 522.320312 442.6875 519.128906 437.832031 517.753906 C 437.453125 517.644531 437.066406 517.546875 436.679688 517.460938 C 436.535156 517.429688 436.390625 517.402344 436.246094 517.375 C 435.703125 517.265625 435.148438 517.179688 434.589844 517.121094 C 434.550781 517.113281 434.511719 517.109375 434.46875 517.105469 C 433.867188 517.042969 433.261719 517 432.652344 516.992188 C 429.601562 516.957031 426.554688 516.992188 423.503906 516.992188 C 416.023438 516.992188 408.542969 516.992188 401.0625 516.992188 C 398.335938 516.992188 395.609375 516.992188 392.882812 516.992188 C 385.191406 516.992188 377.496094 516.992188 369.804688 516.992188 C 357.785156 516.992188 345.761719 516.992188 333.742188 516.992188 C 333.183594 516.992188 332.625 516.992188 332.066406 516.992188 C 320.484375 516.992188 308.90625 516.992188 297.324219 516.992188 C 288.464844 516.992188 279.609375 516.992188 270.753906 516.992188 C 268.792969 516.992188 266.828125 516.992188 264.867188 516.992188 C 256.835938 516.992188 248.808594 516.992188 240.777344 516.992188 C 237.980469 516.992188 235.183594 516.992188 232.386719 516.992188 C 231.304688 516.992188 230.222656 516.988281 229.140625 516.992188 C 227.027344 517 225.011719 517.316406 223.125 517.90625 C 216.15625 520.074219 211.011719 525.917969 209.6875 533.246094 C 209.589844 533.773438 209.511719 534.308594 209.457031 534.847656 C 209.445312 534.960938 209.441406 535.070312 209.433594 535.183594 C 209.382812 535.773438 209.34375 536.371094 209.34375 536.976562 C 209.335938 538.054688 209.34375 539.132812 209.34375 540.210938 C 209.34375 545.066406 209.34375 549.921875 209.34375 554.78125 C 209.34375 565.851562 209.34375 576.925781 209.34375 587.996094 C 209.34375 589.007812 209.34375 590.019531 209.34375 591.03125 C 209.34375 602 209.34375 612.972656 209.34375 623.941406 C 209.34375 631.65625 209.34375 639.371094 209.34375 647.085938 C 209.34375 648.042969 209.34375 649 209.34375 649.957031 C 209.34375 651.726562 209.335938 653.5 209.34375 655.269531 C 209.367188 660.292969 211.191406 665.015625 214.472656 668.621094 C 214.480469 668.628906 214.488281 668.636719 214.496094 668.644531 C 214.953125 669.148438 215.457031 669.617188 215.972656 670.074219 C 216.214844 670.289062 216.472656 670.496094 216.726562 670.699219 C 216.890625 670.832031 217.0625 670.949219 217.230469 671.078125 C 217.566406 671.332031 217.886719 671.601562 218.246094 671.835938 C 219.253906 672.5 220.324219 673.015625 221.429688 673.4375 C 223.5625 674.25 225.84375 674.671875 228.1875 674.871094 C 232.339844 675.226562 236.667969 674.90625 240.601562 674.90625 C 248.03125 674.90625 255.460938 674.90625 262.886719 674.90625 C 266.84375 674.90625 270.796875 674.90625 274.75 674.90625 C 284.671875 674.90625 294.59375 674.90625 304.515625 674.90625 C 306.117188 674.90625 307.71875 674.90625 309.316406 674.90625 C 313.6875 674.90625 313.695312 668.117188 309.316406 668.117188 C 303.523438 668.117188 297.726562 668.117188 291.933594 668.117188 C 289.011719 668.117188 286.085938 668.117188 283.164062 668.117188 C 274.488281 668.117188 265.816406 668.117188 257.140625 668.117188 C 250.925781 668.117188 244.714844 668.117188 238.5 668.117188 C 235.976562 668.117188 233.453125 668.121094 230.929688 668.117188 C 229.316406 668.117188 227.765625 668.066406 226.257812 667.789062 C 224.75 667.511719 223.285156 667.003906 221.855469 666.09375 C 219.304688 664.472656 217.644531 662.066406 216.800781 659.34375 C 216.722656 659.09375 216.652344 658.84375 216.589844 658.59375 C 216.550781 658.433594 216.503906 658.28125 216.46875 658.121094 C 216.25 657.097656 216.136719 656.042969 216.132812 654.976562 C 216.125 649.230469 216.132812 643.488281 216.132812 637.746094 C 216.132812 630.398438 216.132812 623.046875 216.132812 615.699219 C 216.132812 612.269531 216.132812 608.84375 216.132812 605.414062 C 216.132812 593.539062 216.132812 581.667969 216.132812 569.792969 C 216.132812 565.300781 216.132812 560.808594 216.132812 556.316406 C 216.132812 551.957031 216.132812 547.597656 216.132812 543.234375 C 216.132812 541.707031 216.132812 540.179688 216.132812 538.652344 C 216.132812 538.113281 216.132812 537.574219 216.132812 537.035156 C 216.132812 534.082031 216.921875 531.261719 218.574219 528.941406 C 219.269531 527.960938 220.105469 527.0625 221.128906 526.296875 C 222.261719 525.445312 223.449219 524.882812 224.675781 524.503906 C 226.550781 523.921875 228.515625 523.785156 230.519531 523.769531 C 230.601562 523.765625 230.683594 523.765625 230.769531 523.765625 C 231.847656 523.761719 232.933594 523.78125 234.023438 523.78125 C 239.796875 523.78125 245.570312 523.78125 251.339844 523.78125 C 251.875 523.78125 252.410156 523.78125 252.945312 523.78125 C 262.574219 523.78125 272.203125 523.78125 281.832031 523.78125 C 289.476562 523.78125 297.117188 523.78125 304.757812 523.78125 C 308.609375 523.78125 312.460938 523.78125 316.316406 523.78125 C 328.351562 523.78125 340.386719 523.78125 352.421875 523.78125 C 357.214844 523.78125 362.003906 523.78125 366.800781 523.78125 C 373.21875 523.78125 379.640625 523.78125 386.0625 523.78125 C 395.09375 523.78125 404.125 523.78125 413.15625 523.78125 C 414.257812 523.78125 415.359375 523.78125 416.460938 523.78125 C 420.859375 523.78125 425.257812 523.78125 429.65625 523.78125 C 429.726562 523.78125 429.796875 523.78125 429.863281 523.78125 C 430.738281 523.78125 431.613281 523.773438 432.484375 523.78125 C 432.519531 523.785156 432.550781 523.78125 432.582031 523.78125 C 433.054688 523.789062 433.523438 523.828125 433.984375 523.878906 C 434.023438 523.886719 434.0625 523.890625 434.105469 523.894531 C 434.550781 523.953125 434.988281 524.027344 435.421875 524.128906 C 435.480469 524.140625 435.539062 524.152344 435.597656 524.167969 C 435.996094 524.265625 436.390625 524.378906 436.773438 524.515625 C 437.027344 524.601562 437.273438 524.699219 437.519531 524.800781 C 437.597656 524.835938 437.679688 524.871094 437.757812 524.90625 C 440.238281 526.003906 442.332031 527.867188 443.671875 530.269531 C 444.167969 531.160156 444.5625 532.121094 444.835938 533.152344 C 445.503906 535.679688 445.246094 538.542969 445.246094 541.148438 C 445.246094 543.460938 445.246094 545.777344 445.246094 548.089844 C 445.246094 550.566406 445.246094 553.039062 445.246094 555.515625 C 445.246094 563.109375 445.246094 570.703125 445.246094 578.296875 C 445.246094 581.699219 445.246094 585.101562 445.246094 588.503906 C 445.246094 590.554688 445.246094 592.605469 445.246094 594.65625 C 445.246094 599.023438 452.035156 599.03125 452.035156 594.65625 C 452.035156 587.179688 452.035156 579.703125 452.035156 572.226562 C 452.035156 563.402344 452.035156 554.578125 452.035156 545.753906 C 452.035156 543.875 452.035156 541.996094 452.035156 540.117188 C 452.035156 539.546875 452.035156 538.976562 452.035156 538.40625 C 452.035156 537.71875 452.027344 537.035156 452.003906 536.351562 C 451.996094 536.199219 451.992188 536.050781 451.984375 535.898438 Z M 639.832031 370.761719 C 640.304688 372.898438 640.773438 375.03125 641.246094 377.167969 C 642.1875 381.433594 648.734375 379.628906 647.792969 375.363281 C 644.464844 360.28125 641.132812 345.199219 637.804688 330.117188 C 637.332031 327.984375 636.859375 325.847656 636.390625 323.714844 C 635.953125 321.746094 633.125 320.390625 631.402344 321.6875 C 622.46875 328.40625 613.535156 335.128906 604.601562 341.851562 C 601.597656 328.449219 598.597656 315.046875 595.597656 301.648438 C 595.117188 299.515625 594.640625 297.386719 594.164062 295.253906 C 593.726562 293.292969 590.90625 291.925781 589.179688 293.226562 C 580.304688 299.902344 571.433594 306.578125 562.5625 313.253906 C 559.597656 299.824219 556.628906 286.394531 553.664062 272.96875 C 553.195312 270.832031 552.722656 268.699219 552.25 266.5625 C 552.03125 265.539062 551.15625 264.695312 550.128906 264.289062 C 549.175781 263.910156 548.09375 263.910156 547.265625 264.535156 C 538.3125 271.269531 529.359375 278.007812 520.40625 284.742188 C 519.132812 285.703125 517.859375 286.660156 516.585938 287.617188 C 515.121094 288.71875 514.363281 290.550781 515.367188 292.261719 C 516.210938 293.703125 518.539062 294.589844 520.011719 293.480469 C 528.933594 286.765625 537.859375 280.050781 546.78125 273.335938 C 549.699219 286.777344 552.613281 300.21875 555.53125 313.660156 C 556 315.820312 556.46875 317.984375 556.9375 320.144531 C 557.367188 322.113281 560.207031 323.464844 561.925781 322.171875 C 570.859375 315.449219 579.792969 308.730469 588.726562 302.007812 C 591.726562 315.410156 594.730469 328.808594 597.730469 342.210938 C 598.207031 344.34375 598.683594 346.472656 599.160156 348.601562 C 599.601562 350.566406 602.421875 351.929688 604.148438 350.632812 C 613.078125 343.914062 622.007812 337.195312 630.9375 330.476562 C 633.902344 343.90625 636.867188 357.335938 639.832031 370.761719 Z M 639.832031 370.761719 " fill-opacity="1" fill-rule="nonzero"/></g><path fill="#e06937" d="M 237.664062 450.796875 C 229.484375 450.910156 222.269531 456.824219 218.671875 463.863281 C 217.773438 465.625 217.0625 467.460938 216.527344 469.339844 C 211.015625 469.296875 205.511719 468.636719 200.175781 467.246094 C 194.046875 465.652344 188.414062 462.691406 185.894531 456.589844 C 183.882812 451.71875 184.023438 446.113281 185.792969 441.132812 C 190.503906 427.867188 207.152344 424.089844 219.4375 427.421875 C 221.207031 427.898438 223.125 426.820312 223.613281 425.050781 C 224.136719 423.144531 222.964844 421.523438 221.242188 420.875 C 207.1875 415.578125 190.71875 409.234375 184.398438 394.320312 C 181.820312 388.238281 181.878906 381.304688 184.679688 375.304688 C 187.195312 369.917969 191.429688 365.84375 196.742188 363.5 C 195.207031 361.738281 193.652344 359.992188 192.125 358.222656 C 187.140625 360.832031 182.902344 364.691406 179.984375 369.667969 C 175.851562 376.710938 174.597656 385.28125 176.832031 393.160156 C 179.109375 401.203125 184.535156 408.136719 191.046875 413.234375 C 194.621094 416.03125 198.488281 418.316406 202.503906 420.324219 C 193.429688 422.160156 185.125 427.136719 180.808594 435.664062 C 177.550781 442.097656 176.6875 449.835938 178.789062 456.769531 C 181.21875 464.769531 187.230469 470.074219 195.007812 472.78125 C 201.429688 475.023438 208.460938 476.039062 215.382812 476.144531 C 215.148438 480.511719 215.839844 484.929688 217.46875 489.0625 C 220.953125 497.902344 227.632812 504.984375 235.628906 509.976562 C 239.34375 512.296875 242.757812 506.425781 239.054688 504.113281 C 229.472656 498.128906 221.253906 487.613281 222.171875 475.953125 C 222.445312 475.933594 222.722656 475.929688 222.996094 475.90625 C 227.753906 475.523438 232.492188 474.738281 237.101562 473.492188 C 241.242188 472.375 246.277344 471.121094 248.765625 467.292969 C 250.898438 464.015625 250.515625 459.570312 248.476562 456.339844 C 246.136719 452.636719 241.992188 450.738281 237.664062 450.796875 Z M 243.273438 463.195312 C 242.378906 465.535156 237.554688 466.335938 235.296875 466.945312 C 231.574219 467.953125 227.769531 468.675781 223.925781 469.035156 C 223.878906 469.039062 223.832031 469.042969 223.785156 469.046875 C 225.425781 464.925781 228.214844 461.304688 232.183594 459.140625 C 234.769531 457.730469 238.324219 456.832031 241.070312 458.328125 C 242.800781 459.269531 243.871094 461.640625 243.273438 463.195312 Z M 203.917969 361.417969 C 202.21875 359.480469 200.503906 357.554688 198.816406 355.605469 C 199.078125 355.535156 199.332031 355.441406 199.597656 355.375 C 208.15625 353.292969 217.046875 354.039062 225.710938 354.933594 C 227.542969 355.121094 229.105469 356.332031 229.105469 358.328125 C 229.105469 360.027344 227.539062 361.910156 225.710938 361.722656 C 218.550781 360.980469 211.082031 360.203125 203.917969 361.417969 Z M 606.941406 521.632812 C 604.894531 521.632812 602.847656 521.632812 600.796875 521.632812 C 586.476562 521.632812 572.15625 521.632812 557.835938 521.632812 C 554.746094 521.632812 553.5625 517.996094 555.4375 515.839844 C 561.664062 508.660156 567.796875 501.402344 573.828125 494.058594 C 578.675781 488.160156 584.117188 482.320312 587.855469 475.625 C 590.855469 470.257812 591.839844 463.871094 587.136719 459.167969 C 582.855469 454.886719 576.136719 453.980469 570.644531 456.339844 C 564.804688 458.847656 561.246094 464.824219 561.320312 471.09375 C 561.375 475.472656 554.585938 475.460938 554.53125 471.09375 C 554.414062 461.664062 560.214844 453.078125 569.019531 449.714844 C 576.652344 446.804688 585.625 448.402344 591.589844 454.027344 C 594.371094 456.652344 596.410156 460.195312 597.011719 463.988281 C 597.703125 468.351562 596.785156 472.511719 595.003906 476.503906 C 593.265625 480.386719 590.710938 483.820312 588.097656 487.148438 C 585.136719 490.925781 582.09375 494.636719 579.050781 498.347656 C 574.496094 503.898438 569.867188 509.386719 565.199219 514.84375 C 579.113281 514.84375 593.027344 514.84375 606.941406 514.84375 C 611.320312 514.84375 611.3125 521.632812 606.941406 521.632812 Z M 395.769531 572.183594 C 392.320312 572.183594 388.867188 572.183594 385.417969 572.183594 C 370.402344 572.183594 355.390625 572.183594 340.378906 572.183594 C 330.914062 572.183594 321.453125 572.183594 311.988281 572.183594 C 307.613281 572.183594 307.621094 565.394531 311.988281 565.394531 C 315.4375 565.394531 318.890625 565.394531 322.339844 565.394531 C 337.355469 565.394531 352.367188 565.394531 367.378906 565.394531 C 376.84375 565.394531 386.308594 565.394531 395.769531 565.394531 C 400.144531 565.394531 400.136719 572.183594 395.769531 572.183594 Z M 395.769531 596.539062 C 392.320312 596.539062 388.867188 596.539062 385.417969 596.539062 C 370.402344 596.539062 355.390625 596.539062 340.378906 596.539062 C 330.914062 596.539062 321.453125 596.539062 311.988281 596.539062 C 307.613281 596.539062 307.621094 589.75 311.988281 589.75 C 315.4375 589.75 318.890625 589.75 322.339844 589.75 C 337.355469 589.75 352.367188 589.75 367.378906 589.75 C 376.84375 589.75 386.308594 589.75 395.769531 589.75 C 400.144531 589.75 400.136719 596.539062 395.769531 596.539062 Z M 359.238281 620.894531 C 357.285156 620.894531 355.332031 620.894531 353.378906 620.894531 C 339.582031 620.894531 325.785156 620.894531 311.988281 620.894531 C 307.613281 620.894531 307.621094 614.105469 311.988281 614.105469 C 313.941406 614.105469 315.894531 614.105469 317.847656 614.105469 C 331.644531 614.105469 345.441406 614.105469 359.238281 614.105469 C 363.613281 614.105469 363.609375 620.894531 359.238281 620.894531 Z M 359.238281 620.894531 " fill-opacity="1" fill-rule="nonzero"/></svg>