<svg xmlns="http://www.w3.org/2000/svg" xmlns:xlink="http://www.w3.org/1999/xlink" width="1200" zoomAndPan="magnify" viewBox="0 0 900 899.99999" height="1200" preserveAspectRatio="xMidYMid meet" version="1.0"><defs><clipPath id="199a5fa3ef"><path d="M 95.300781 90.003906 L 810 90.003906 L 810 810 L 95.300781 810 Z M 95.300781 90.003906 " clip-rule="nonzero"/></clipPath><clipPath id="6039cb6b65"><path d="M 120.050781 90.003906 L 785.242188 90.003906 C 798.910156 90.003906 809.992188 101.085938 809.992188 114.753906 L 809.992188 785.246094 C 809.992188 798.914062 798.910156 809.996094 785.242188 809.996094 L 120.050781 809.996094 C 106.382812 809.996094 95.300781 798.914062 95.300781 785.246094 L 95.300781 114.753906 C 95.300781 101.085938 106.382812 90.003906 120.050781 90.003906 Z M 120.050781 90.003906 " clip-rule="nonzero"/></clipPath><clipPath id="5df5d1525b"><path d="M 150 228.320312 L 751.925781 228.320312 L 751.925781 671.570312 L 150 671.570312 Z M 150 228.320312 " clip-rule="nonzero"/></clipPath><clipPath id="62e25d1168"><path d="M 248 228.320312 L 751.925781 228.320312 L 751.925781 559 L 248 559 Z M 248 228.320312 " clip-rule="nonzero"/></clipPath><clipPath id="d546e5534f"><path d="M 214 270 L 616 270 L 616 671.570312 L 214 671.570312 Z M 214 270 " clip-rule="nonzero"/></clipPath><clipPath id="45fab92a24"><path d="M 150 260 L 724 260 L 724 671.570312 L 150 671.570312 Z M 150 260 " clip-rule="nonzero"/></clipPath></defs><g clip-path="url(#199a5fa3ef)"><g clip-path="url(#6039cb6b65)"><path stroke-linecap="butt" transform="matrix(0.75, 0, 0, 0.75, 95.301283, 90.003699)" fill="none" stroke-linejoin="miter" d="M 32.999333 0.000275947 L 919.921254 0.000275947 C 938.145213 0.000275947 952.921256 14.776318 952.921256 33.000278 L 952.921256 926.989908 C 952.921256 945.213867 938.145213 959.98991 919.921254 959.98991 L 32.999333 959.98991 C 14.775373 959.98991 -0.000669017 945.213867 -0.000669017 926.989908 L -0.000669017 33.000278 C -0.000669017 14.776318 14.775373 0.000275947 32.999333 0.000275947 Z M 32.999333 0.000275947 " stroke="#4d3294" stroke-width="8" stroke-opacity="1" stroke-miterlimit="4"/></g></g><g clip-path="url(#5df5d1525b)"><path fill="#4d3294" d="M 751.738281 536.929688 C 751.738281 522.578125 751.738281 508.226562 751.738281 493.875 C 751.738281 475.148438 751.738281 456.421875 751.738281 437.695312 C 751.738281 432.40625 751.738281 427.121094 751.738281 421.832031 C 751.738281 421.28125 751.730469 420.738281 751.71875 420.195312 C 751.722656 420.125 751.738281 420.0625 751.738281 419.988281 C 751.734375 419.804688 751.710938 419.625 751.703125 419.441406 C 751.683594 419.011719 751.664062 418.582031 751.617188 418.164062 C 751.605469 418.050781 751.59375 417.941406 751.578125 417.832031 C 751.550781 417.566406 751.523438 417.300781 751.484375 417.035156 C 750.464844 410.148438 745.644531 404.390625 739.195312 401.886719 C 737.722656 401.316406 736.230469 401.011719 734.730469 400.84375 C 733.894531 400.730469 733.050781 400.648438 732.1875 400.636719 C 731.546875 400.632812 730.910156 400.636719 730.273438 400.636719 C 729.660156 400.636719 729.046875 400.636719 728.433594 400.636719 C 727.632812 400.636719 726.832031 400.636719 726.03125 400.636719 C 722.242188 400.636719 718.449219 400.636719 714.660156 400.636719 C 707.441406 400.636719 700.222656 400.636719 693.003906 400.636719 C 684.289062 400.636719 675.570312 400.636719 666.855469 400.636719 C 659.121094 400.636719 651.386719 400.636719 643.652344 400.636719 C 631.605469 400.636719 619.554688 400.636719 607.507812 400.636719 C 601.957031 400.636719 596.40625 400.636719 590.859375 400.636719 C 578.953125 400.636719 567.046875 400.636719 555.140625 400.636719 C 550.957031 400.636719 546.769531 400.628906 542.585938 400.621094 C 537.914062 400.605469 533.242188 400.582031 528.570312 400.636719 C 524.25 400.6875 520.277344 402.113281 517.050781 404.480469 C 516.933594 404.566406 516.816406 404.652344 516.703125 404.738281 C 516.398438 404.972656 516.105469 405.210938 515.816406 405.460938 C 515.585938 405.664062 515.355469 405.863281 515.132812 406.074219 C 514.964844 406.238281 514.796875 406.398438 514.632812 406.566406 C 514.316406 406.890625 514.007812 407.21875 513.714844 407.5625 C 513.644531 407.644531 513.578125 407.722656 513.507812 407.804688 C 513.148438 408.242188 512.804688 408.6875 512.484375 409.15625 C 512.476562 409.167969 512.46875 409.179688 512.460938 409.191406 C 511.414062 410.707031 510.582031 412.382812 510 414.195312 C 509.996094 414.210938 509.992188 414.226562 509.984375 414.242188 C 509.808594 414.792969 509.664062 415.351562 509.535156 415.921875 C 509.515625 416.003906 509.496094 416.085938 509.476562 416.171875 C 509.371094 416.675781 509.292969 417.1875 509.226562 417.707031 C 509.207031 417.859375 509.183594 418.007812 509.164062 418.160156 C 509.148438 418.3125 509.117188 418.460938 509.105469 418.613281 C 508.53125 425.621094 509.011719 432.851562 509.042969 439.890625 C 509.035156 442.804688 509.007812 445.722656 509 448.636719 C 508.992188 451.316406 509.015625 453.992188 509.078125 456.664062 C 509.089844 457.207031 509.09375 457.753906 509.109375 458.296875 C 509.132812 458.988281 509.160156 459.679688 509.191406 460.378906 C 509.226562 461.105469 509.265625 461.839844 509.3125 462.574219 C 500.859375 462.574219 492.410156 462.574219 483.957031 462.574219 C 475.203125 462.574219 466.453125 462.574219 457.699219 462.574219 C 449.027344 462.574219 440.351562 462.574219 431.675781 462.574219 C 422.464844 462.574219 413.25 462.574219 404.039062 462.574219 C 400.472656 462.574219 396.90625 462.574219 393.339844 462.574219 C 392.214844 462.574219 391.089844 462.574219 389.964844 462.574219 C 389.386719 462.574219 388.808594 462.578125 388.230469 462.5625 C 387.230469 462.511719 386.242188 462.398438 385.28125 462.171875 C 385.171875 462.144531 385.070312 462.117188 384.964844 462.089844 C 384.789062 462.042969 384.613281 461.984375 384.441406 461.929688 C 384.214844 461.855469 383.996094 461.777344 383.78125 461.691406 C 383.292969 461.5 382.824219 461.285156 382.375 461.042969 C 382.171875 460.933594 381.984375 460.8125 381.789062 460.691406 C 381.527344 460.53125 381.277344 460.355469 381.03125 460.175781 C 380.574219 459.84375 380.152344 459.480469 379.753906 459.09375 C 379.734375 459.074219 379.710938 459.054688 379.691406 459.035156 C 377.0625 456.398438 375.765625 452.582031 375.792969 448.496094 C 375.921875 427.808594 376.085938 407.113281 375.96875 386.425781 C 375.972656 385.574219 375.96875 384.722656 375.972656 383.875 C 376.5625 384.007812 377.144531 384.132812 377.726562 384.253906 C 378.019531 384.3125 378.316406 384.375 378.609375 384.433594 C 378.761719 384.460938 378.917969 384.496094 379.070312 384.523438 C 379.355469 384.578125 379.636719 384.621094 379.921875 384.667969 C 380.570312 384.785156 381.214844 384.898438 381.863281 385 C 382.019531 385.023438 382.175781 385.042969 382.332031 385.066406 C 388.148438 385.933594 394.035156 386.234375 399.925781 386.234375 C 400.824219 386.234375 401.722656 386.234375 402.621094 386.234375 C 416.546875 386.234375 430.472656 386.234375 444.398438 386.234375 C 448.160156 386.234375 451.921875 386.234375 455.683594 386.234375 C 460.925781 386.234375 466.171875 386.316406 471.414062 386.234375 C 473.0625 386.210938 474.644531 385.96875 476.160156 385.578125 C 478.246094 385.125 480.269531 384.355469 482.207031 383.046875 C 486.570312 380.097656 489.460938 375.640625 490.484375 370.609375 C 490.5 370.539062 490.515625 370.46875 490.527344 370.398438 C 490.632812 369.847656 490.726562 369.296875 490.785156 368.730469 C 490.816406 368.449219 490.832031 368.160156 490.847656 367.871094 C 490.871094 367.542969 490.917969 367.214844 490.921875 366.882812 C 490.925781 366.773438 490.921875 366.664062 490.921875 366.554688 C 491.011719 354.480469 490.921875 342.398438 490.921875 330.324219 C 490.921875 327.800781 490.921875 325.277344 490.921875 322.753906 C 490.921875 306.035156 490.921875 289.3125 490.921875 272.59375 C 490.921875 265.992188 490.921875 259.394531 490.921875 252.796875 C 490.921875 247.429688 491.035156 242.242188 487.996094 237.445312 C 483.945312 231.054688 477.234375 228.320312 469.929688 228.320312 C 466.308594 228.320312 462.6875 228.320312 459.0625 228.320312 C 444.21875 228.320312 429.371094 228.320312 414.523438 228.320312 C 394.925781 228.320312 375.328125 228.320312 355.730469 228.320312 C 337.566406 228.320312 319.402344 228.320312 301.242188 228.320312 C 290.746094 228.320312 280.25 228.320312 269.753906 228.320312 C 263.53125 228.320312 257.574219 229.847656 253.238281 234.695312 C 248.792969 239.667969 248.230469 245.519531 248.230469 251.761719 C 248.230469 267.296875 248.230469 282.832031 248.230469 298.367188 C 248.230469 316.585938 248.230469 334.804688 248.230469 353.019531 C 248.230469 357.425781 248.214844 361.832031 248.230469 366.238281 C 248.277344 377.152344 256.523438 386.03125 267.589844 386.234375 C 281.292969 386.488281 295.023438 386.234375 308.730469 386.234375 C 321.453125 386.234375 334.175781 386.234375 346.898438 386.234375 C 351.269531 386.234375 351.277344 379.445312 346.898438 379.445312 C 334.011719 379.445312 321.121094 379.445312 308.234375 379.445312 C 294.71875 379.445312 281.183594 379.660156 267.667969 379.445312 C 262.4375 379.363281 257.640625 376.257812 255.800781 371.273438 C 255.105469 369.398438 255.023438 367.5 255.023438 365.542969 C 255.023438 360.800781 255.023438 356.0625 255.023438 351.320312 C 255.023438 333.421875 255.023438 315.527344 255.023438 297.628906 C 255.023438 282.542969 255.023438 267.457031 255.023438 252.371094 C 255.023438 247.421875 254.832031 242.660156 258.703125 238.789062 C 262.023438 235.46875 266.09375 235.109375 270.417969 235.109375 C 280.945312 235.109375 291.476562 235.109375 302.003906 235.109375 C 319.585938 235.109375 337.164062 235.109375 354.746094 235.109375 C 373.84375 235.109375 392.9375 235.109375 412.035156 235.109375 C 426.828125 235.109375 441.621094 235.109375 456.414062 235.109375 C 460.480469 235.109375 464.542969 235.109375 468.605469 235.109375 C 472.742188 235.109375 476.683594 235.3125 479.988281 238.34375 C 484.1875 242.199219 484.132812 247.039062 484.132812 252.164062 C 484.132812 258.292969 484.132812 264.425781 484.132812 270.558594 C 484.132812 287.957031 484.132812 305.355469 484.132812 322.753906 C 484.132812 323.871094 484.132812 324.992188 484.132812 326.109375 C 484.132812 337.945312 484.132812 349.78125 484.132812 361.613281 C 484.132812 362.886719 484.132812 364.15625 484.132812 365.425781 C 484.132812 366.234375 484.117188 367.023438 484.058594 367.8125 C 484.046875 367.921875 484.042969 368.03125 484.03125 368.140625 C 484.003906 368.382812 483.976562 368.621094 483.9375 368.859375 C 483.480469 371.582031 482.207031 374.054688 480.246094 375.949219 C 480.242188 375.949219 480.238281 375.953125 480.238281 375.957031 C 479.929688 376.253906 479.589844 376.519531 479.25 376.785156 C 477.757812 377.917969 476.015625 378.71875 474.15625 379.128906 C 473.4375 379.273438 472.699219 379.363281 471.957031 379.421875 C 471.804688 379.433594 471.652344 379.4375 471.5 379.445312 C 469.78125 379.472656 468.058594 379.46875 466.339844 379.46875 C 465.800781 379.453125 465.269531 379.445312 464.746094 379.445312 C 462.402344 379.445312 460.058594 379.445312 457.714844 379.445312 C 444.511719 379.445312 431.308594 379.445312 418.109375 379.445312 C 413.761719 379.445312 409.417969 379.445312 405.074219 379.445312 C 399.273438 379.445312 393.488281 379.492188 387.710938 378.933594 C 384.453125 378.601562 381.222656 378.113281 378.039062 377.390625 C 377.371094 377.238281 376.675781 377.070312 375.976562 376.890625 C 375.957031 371.527344 375.886719 366.164062 375.644531 360.816406 C 375.570312 359.199219 375.351562 357.546875 374.992188 355.921875 C 374.988281 355.890625 374.980469 355.855469 374.972656 355.824219 C 374.855469 355.296875 374.71875 354.777344 374.566406 354.257812 C 374.476562 353.96875 374.390625 353.675781 374.292969 353.390625 C 374.175781 353.058594 374.050781 352.734375 373.921875 352.410156 C 373.792969 352.09375 373.664062 351.777344 373.519531 351.46875 C 373.308594 351.007812 373.066406 350.566406 372.816406 350.128906 C 372.753906 350.023438 372.710938 349.914062 372.648438 349.8125 C 372.628906 349.78125 372.609375 349.757812 372.589844 349.726562 C 371.832031 348.484375 370.929688 347.332031 369.820312 346.339844 C 369.171875 345.761719 368.472656 345.261719 367.746094 344.816406 C 367.675781 344.769531 367.605469 344.722656 367.535156 344.679688 C 367.191406 344.472656 366.839844 344.289062 366.480469 344.117188 C 366.28125 344.019531 366.082031 343.910156 365.878906 343.820312 C 365.738281 343.761719 365.589844 343.714844 365.449219 343.660156 C 363.988281 343.074219 362.429688 342.714844 360.792969 342.675781 C 358.464844 342.621094 356.441406 343.128906 354.710938 344.035156 C 354.703125 344.039062 354.691406 344.042969 354.683594 344.046875 C 354.265625 344.261719 353.871094 344.507812 353.488281 344.765625 C 348.203125 348.308594 346.40625 355.804688 347.710938 362.179688 C 347.78125 362.519531 347.851562 362.855469 347.9375 363.183594 C 347.984375 363.351562 348.03125 363.519531 348.082031 363.6875 C 348.207031 364.121094 348.339844 364.546875 348.496094 364.964844 C 348.496094 364.96875 348.5 364.972656 348.5 364.972656 C 348.5 364.976562 348.5 364.980469 348.503906 364.984375 C 348.761719 365.667969 349.050781 366.332031 349.371094 366.972656 C 349.679688 367.59375 350.015625 368.191406 350.378906 368.773438 C 350.386719 368.789062 350.390625 368.800781 350.402344 368.816406 C 354.4375 375.351562 361.621094 379.417969 369.109375 381.949219 C 369.113281 382.308594 369.117188 382.664062 369.117188 383.019531 C 369.140625 387.242188 369.160156 391.46875 369.160156 395.691406 C 369.164062 398.417969 369.167969 401.140625 369.167969 403.867188 C 369.164062 405.933594 369.160156 408 369.15625 410.066406 C 369.136719 420.425781 369.097656 430.785156 369.042969 441.144531 C 368.984375 445.878906 368.613281 450.734375 369.820312 455.28125 C 370.144531 456.527344 370.59375 457.753906 371.210938 458.953125 C 371.222656 458.976562 371.230469 459 371.242188 459.023438 C 371.265625 459.066406 371.296875 459.109375 371.320312 459.15625 C 371.414062 459.335938 371.503906 459.515625 371.609375 459.691406 C 371.644531 459.757812 371.691406 459.8125 371.726562 459.875 C 372.875 461.835938 374.300781 463.46875 375.933594 464.789062 C 376.132812 464.949219 376.339844 465.097656 376.539062 465.25 C 376.710938 465.378906 376.886719 465.5 377.0625 465.625 C 379.8125 467.59375 383.054688 468.871094 386.492188 469.25 C 388.90625 469.515625 391.40625 469.363281 393.828125 469.363281 C 397.230469 469.363281 400.636719 469.363281 404.039062 469.363281 C 405.71875 469.363281 407.402344 469.363281 409.085938 469.363281 C 424.710938 469.363281 440.335938 469.363281 455.964844 469.363281 C 456.144531 469.363281 456.328125 469.363281 456.507812 469.363281 C 472.300781 469.363281 488.09375 469.363281 503.886719 469.363281 C 505.382812 469.363281 506.878906 469.363281 508.375 469.363281 C 508.914062 469.363281 509.457031 469.363281 509.996094 469.363281 C 510.851562 475.421875 512.460938 481.398438 515.445312 486.617188 C 515.609375 486.898438 515.761719 487.183594 515.933594 487.460938 C 516.027344 487.613281 516.125 487.761719 516.21875 487.914062 C 516.535156 488.410156 516.855469 488.902344 517.199219 489.382812 C 517.226562 489.421875 517.257812 489.464844 517.289062 489.503906 C 517.652344 490.007812 518.03125 490.5 518.429688 490.984375 C 518.472656 491.035156 518.507812 491.089844 518.550781 491.140625 C 518.773438 491.410156 519.011719 491.664062 519.246094 491.921875 C 519.355469 492.042969 519.460938 492.171875 519.574219 492.292969 C 520.003906 492.738281 520.445312 493.167969 520.902344 493.582031 C 521.128906 493.785156 521.367188 493.976562 521.601562 494.171875 C 521.808594 494.34375 522.015625 494.515625 522.226562 494.679688 C 522.585938 494.957031 522.949219 495.230469 523.324219 495.484375 C 523.347656 495.503906 523.371094 495.519531 523.398438 495.535156 C 523.769531 495.792969 524.132812 496.058594 524.527344 496.296875 C 526.933594 497.761719 529.816406 498.894531 532.769531 499.453125 C 535.640625 500.054688 538.707031 500.1875 541.347656 499.257812 C 542.5625 498.828125 543.621094 498.234375 544.5625 497.53125 C 544.613281 497.492188 544.664062 497.457031 544.710938 497.421875 C 544.945312 497.242188 545.164062 497.054688 545.378906 496.859375 C 546.363281 496.011719 547.246094 494.984375 547.964844 493.707031 C 550.09375 489.921875 550.449219 485.539062 549.59375 481.335938 C 549.578125 481.246094 549.570312 481.152344 549.554688 481.058594 C 549.511719 480.832031 549.445312 480.609375 549.394531 480.382812 C 548.757812 477.605469 547.578125 475.035156 545.976562 472.761719 C 545.878906 472.621094 545.785156 472.480469 545.6875 472.347656 C 545.617188 472.253906 545.546875 472.160156 545.476562 472.066406 C 544.964844 471.375 544.429688 470.707031 543.855469 470.089844 C 542.226562 468.34375 540.425781 466.992188 538.5 465.945312 C 536.566406 464.828125 534.476562 463.972656 532.285156 463.433594 C 529.871094 462.835938 527.441406 462.65625 525 462.601562 C 522.035156 462.421875 519.027344 462.449219 516.070312 462.503906 C 515.933594 460.265625 515.867188 458.035156 515.847656 455.851562 C 515.84375 455.691406 515.84375 455.53125 515.84375 455.371094 C 515.839844 454.898438 515.835938 454.421875 515.835938 453.953125 C 515.824219 447.296875 515.835938 440.640625 515.835938 433.988281 C 515.835938 433.410156 515.835938 432.832031 515.835938 432.25 C 515.835938 429.230469 515.835938 426.207031 515.835938 423.1875 C 515.835938 422.042969 515.8125 420.90625 515.859375 419.78125 C 516.261719 416.398438 517.3125 413.25 519.789062 410.863281 C 521.457031 409.355469 523.539062 408.347656 525.792969 407.832031 C 527.582031 407.484375 529.449219 407.429688 531.363281 407.429688 C 533.304688 407.429688 535.246094 407.429688 537.1875 407.429688 C 545.859375 407.429688 554.53125 407.429688 563.203125 407.429688 C 565.8125 407.429688 568.421875 407.429688 571.035156 407.429688 C 586.121094 407.429688 601.210938 407.429688 616.300781 407.429688 C 617.367188 407.429688 618.429688 407.429688 619.496094 407.429688 C 636.429688 407.429688 653.363281 407.429688 670.296875 407.429688 C 671.300781 407.429688 672.300781 407.429688 673.304688 407.429688 C 686.113281 407.429688 698.917969 407.429688 711.726562 407.429688 C 713.699219 407.429688 715.667969 407.429688 717.640625 407.429688 C 721.613281 407.429688 725.582031 407.429688 729.550781 407.429688 C 732.164062 407.429688 734.679688 407.570312 736.996094 408.40625 C 739.917969 409.582031 742.285156 411.757812 743.65625 414.566406 C 745.039062 417.667969 744.949219 421.128906 744.949219 424.6875 C 744.949219 430.882812 744.949219 437.082031 744.949219 443.277344 C 744.949219 461.898438 744.949219 480.515625 744.949219 499.136719 C 744.949219 512.042969 744.949219 524.953125 744.949219 537.859375 C 744.949219 539.820312 744.863281 541.710938 744.171875 543.589844 C 742.339844 548.546875 737.5625 551.675781 732.351562 551.761719 C 730.351562 551.796875 728.347656 551.761719 726.347656 551.761719 C 714.238281 551.761719 702.128906 551.761719 690.023438 551.761719 C 671.714844 551.761719 653.410156 551.761719 635.101562 551.761719 C 616.335938 551.761719 597.570312 551.761719 578.804688 551.761719 C 565.324219 551.761719 551.84375 551.761719 538.367188 551.761719 C 535.332031 551.761719 532.296875 551.769531 529.265625 551.761719 C 521.945312 551.742188 515.953125 546.675781 515.835938 539.097656 C 515.640625 526.292969 515.835938 513.476562 515.835938 500.671875 C 515.835938 496.304688 509.046875 496.296875 509.046875 500.671875 C 509.046875 507.503906 509.046875 514.335938 509.046875 521.171875 C 509.046875 525.617188 509.046875 530.0625 509.046875 534.507812 C 509.046875 537.277344 508.914062 540.082031 509.398438 542.824219 C 511.09375 552.367188 519.753906 558.523438 529.125 558.550781 C 532.207031 558.5625 535.285156 558.550781 538.363281 558.550781 C 552.425781 558.550781 566.488281 558.550781 580.550781 558.550781 C 599.972656 558.550781 619.394531 558.550781 638.8125 558.550781 C 657.363281 558.550781 675.914062 558.550781 694.460938 558.550781 C 705.933594 558.550781 717.402344 558.550781 728.875 558.550781 C 733.046875 558.550781 736.992188 558.457031 740.90625 556.566406 C 747.289062 553.476562 751.402344 546.933594 751.722656 539.894531 C 751.769531 538.90625 751.738281 537.914062 751.738281 536.929688 Z M 354.285156 355.839844 C 354.425781 354.902344 354.644531 353.933594 354.992188 353.046875 C 355.035156 352.988281 355.195312 352.667969 355.304688 352.457031 C 355.394531 352.308594 355.476562 352.15625 355.570312 352.019531 C 355.625 351.941406 355.671875 351.859375 355.726562 351.78125 C 355.730469 351.773438 355.734375 351.769531 355.738281 351.761719 C 355.832031 351.644531 355.941406 351.550781 356.039062 351.441406 C 356.367188 351.097656 356.691406 350.8125 357.015625 350.578125 C 357.113281 350.507812 357.210938 350.421875 357.316406 350.359375 C 357.445312 350.277344 357.582031 350.214844 357.71875 350.148438 C 357.855469 350.074219 357.996094 350.003906 358.136719 349.941406 C 358.355469 349.855469 358.578125 349.777344 358.816406 349.707031 C 358.855469 349.699219 358.890625 349.6875 358.929688 349.675781 C 359.167969 349.613281 359.410156 349.5625 359.652344 349.523438 C 359.726562 349.511719 359.800781 349.507812 359.875 349.5 C 360.09375 349.472656 360.3125 349.449219 360.535156 349.449219 C 360.554688 349.449219 360.578125 349.453125 360.601562 349.453125 C 361.152344 349.457031 361.71875 349.535156 362.347656 349.710938 C 362.597656 349.78125 362.835938 349.875 363.074219 349.972656 C 363.167969 350.011719 363.265625 350.042969 363.355469 350.085938 C 363.464844 350.136719 363.566406 350.199219 363.671875 350.257812 C 364.050781 350.460938 364.402344 350.691406 364.726562 350.941406 C 364.820312 351.015625 364.914062 351.074219 365.007812 351.152344 C 365.390625 351.476562 365.746094 351.832031 366.0625 352.214844 C 366.078125 352.238281 366.097656 352.257812 366.113281 352.277344 C 366.433594 352.679688 366.71875 353.109375 366.976562 353.558594 C 367 353.601562 367.027344 353.652344 367.050781 353.695312 C 367.289062 354.132812 367.5 354.589844 367.683594 355.0625 C 367.699219 355.097656 367.714844 355.132812 367.726562 355.164062 C 368.527344 357.269531 368.828125 359.652344 368.882812 361.828125 C 368.960938 364.65625 369.003906 367.484375 369.035156 370.3125 C 369.035156 370.542969 369.03125 370.777344 369.035156 371.007812 C 369.050781 372.234375 369.046875 373.464844 369.058594 374.691406 C 368.402344 374.425781 367.746094 374.152344 367.105469 373.855469 C 362.503906 371.738281 357.808594 368.722656 355.476562 364.054688 C 355.34375 363.78125 355.21875 363.507812 355.105469 363.226562 C 354.96875 362.890625 354.835938 362.550781 354.726562 362.199219 C 354.375 361.03125 354.179688 359.742188 354.125 358.449219 C 354.105469 357.601562 354.144531 356.738281 354.285156 355.839844 Z M 534.019531 471.21875 C 534.425781 471.40625 534.824219 471.628906 535.21875 471.851562 C 535.484375 472.003906 535.742188 472.15625 535.988281 472.308594 C 536.429688 472.59375 536.867188 472.886719 537.289062 473.226562 C 537.414062 473.328125 537.523438 473.429688 537.640625 473.53125 C 537.847656 473.707031 538.050781 473.882812 538.246094 474.066406 C 538.453125 474.265625 538.644531 474.46875 538.839844 474.671875 C 538.96875 474.808594 539.105469 474.941406 539.226562 475.082031 C 539.347656 475.214844 539.453125 475.351562 539.566406 475.484375 C 539.789062 475.75 540.007812 476.019531 540.207031 476.300781 C 540.226562 476.328125 540.246094 476.355469 540.269531 476.382812 C 541.335938 477.890625 542.121094 479.5625 542.640625 481.351562 C 542.816406 481.980469 542.957031 482.617188 543.066406 483.261719 C 543.089844 483.394531 543.117188 483.53125 543.132812 483.664062 C 543.148438 483.800781 543.164062 483.933594 543.171875 484.066406 C 543.195312 484.5625 543.226562 485.050781 543.222656 485.542969 C 543.21875 485.867188 543.195312 486.191406 543.179688 486.515625 C 543.15625 486.765625 543.128906 487.011719 543.089844 487.261719 C 542.988281 487.777344 542.859375 488.28125 542.714844 488.785156 C 542.5625 489.253906 542.386719 489.714844 542.164062 490.144531 C 542.148438 490.175781 542.132812 490.203125 542.117188 490.230469 C 541.988281 490.472656 541.839844 490.707031 541.6875 490.9375 C 541.65625 490.980469 541.628906 491.023438 541.601562 491.058594 C 541.507812 491.132812 540.960938 491.734375 540.757812 491.957031 C 540.71875 491.992188 540.683594 492.027344 540.644531 492.0625 C 540.507812 492.15625 540.371094 492.242188 540.230469 492.328125 C 539.9375 492.492188 539.617188 492.648438 539.398438 492.742188 C 539.25 492.789062 539.09375 492.832031 538.941406 492.875 C 537.6875 493.183594 536.226562 493.148438 534.503906 492.835938 C 534.496094 492.835938 534.488281 492.832031 534.480469 492.832031 C 530.324219 492.082031 526.734375 490.152344 523.921875 486.996094 C 523.015625 485.960938 522.207031 484.804688 521.464844 483.523438 C 518.976562 479.21875 517.578125 474.363281 516.796875 469.363281 C 518.800781 469.363281 520.808594 469.363281 522.816406 469.363281 C 526.671875 469.363281 530.53125 469.644531 533.984375 471.203125 C 533.996094 471.207031 534.007812 471.214844 534.019531 471.21875 Z M 615.261719 587.792969 C 615.261719 581.496094 615.261719 575.195312 615.261719 568.898438 C 615.261719 564.527344 608.472656 564.519531 608.472656 568.898438 C 608.472656 584.546875 608.472656 600.195312 608.472656 615.84375 C 608.472656 618.375 608.640625 620.933594 607.886719 623.386719 C 606.988281 626.300781 604.960938 628.824219 602.347656 630.386719 C 599.671875 631.988281 596.90625 632.207031 593.863281 632.148438 C 582.386719 631.933594 570.914062 631.722656 559.4375 631.515625 C 532.761719 631.035156 506.082031 630.558594 479.398438 630.175781 C 471.925781 630.066406 464.453125 629.957031 456.976562 629.917969 C 456.972656 626.964844 456.945312 624.011719 456.828125 621.070312 C 456.566406 614.722656 454.984375 607.777344 450.25 603.199219 C 446.707031 599.777344 441.777344 598.226562 436.933594 599.199219 C 427.605469 601.078125 424.929688 611.03125 427.066406 619.234375 C 428.425781 624.457031 431.6875 628.910156 436.097656 631.972656 C 440.230469 634.847656 445.132812 636.082031 450.089844 636.5 C 450.097656 641.589844 450.105469 646.675781 450.074219 651.761719 C 450.039062 657.238281 446.695312 662.308594 441.355469 663.972656 C 439.75 664.472656 438.15625 664.566406 436.503906 664.566406 C 426.386719 664.566406 416.269531 664.566406 406.152344 664.566406 C 387.253906 664.566406 368.359375 664.566406 349.460938 664.566406 C 337.6875 664.566406 325.917969 664.566406 314.148438 664.566406 C 308.351562 664.566406 302.554688 664.566406 296.761719 664.566406 C 293.839844 664.566406 290.914062 664.566406 287.992188 664.566406 C 279.320312 664.566406 270.644531 664.566406 261.96875 664.566406 C 255.753906 664.566406 249.542969 664.566406 243.328125 664.566406 C 240.804688 664.566406 238.28125 664.570312 235.757812 664.566406 C 234.144531 664.566406 232.59375 664.515625 231.085938 664.238281 C 226.566406 663.261719 223.035156 660.109375 221.628906 655.792969 C 221.554688 655.546875 221.480469 655.296875 221.417969 655.042969 C 221.378906 654.886719 221.332031 654.730469 221.296875 654.574219 C 221.078125 653.550781 220.964844 652.496094 220.964844 651.425781 C 220.953125 645.683594 220.964844 639.941406 220.964844 634.199219 C 220.964844 626.851562 220.964844 619.5 220.964844 612.148438 C 220.964844 608.722656 220.964844 605.292969 220.964844 601.867188 C 220.964844 589.992188 220.964844 578.117188 220.964844 566.246094 C 220.964844 561.753906 220.964844 557.261719 220.964844 552.769531 C 220.964844 548.410156 220.964844 544.046875 220.964844 539.6875 C 220.964844 538.160156 220.964844 536.632812 220.964844 535.101562 C 220.964844 534.566406 220.964844 534.027344 220.964844 533.488281 C 220.964844 530.535156 221.75 527.710938 223.402344 525.390625 C 224.929688 523.351562 227.066406 521.800781 229.503906 520.957031 C 231.378906 520.375 233.34375 520.238281 235.347656 520.21875 C 235.429688 520.21875 235.511719 520.21875 235.597656 520.21875 C 236.675781 520.210938 237.761719 520.234375 238.851562 520.234375 C 244.625 520.234375 250.398438 520.234375 256.171875 520.234375 C 256.707031 520.234375 257.238281 520.234375 257.773438 520.234375 C 267.402344 520.234375 277.03125 520.234375 286.660156 520.234375 C 294.304688 520.234375 301.945312 520.234375 309.585938 520.234375 C 313.4375 520.234375 317.292969 520.234375 321.144531 520.234375 C 333.179688 520.234375 345.214844 520.234375 357.25 520.234375 C 362.042969 520.234375 366.835938 520.234375 371.628906 520.234375 C 378.046875 520.234375 384.46875 520.234375 390.890625 520.234375 C 399.921875 520.234375 408.953125 520.234375 417.984375 520.234375 C 419.085938 520.234375 420.1875 520.234375 421.289062 520.234375 C 425.6875 520.234375 430.085938 520.234375 434.484375 520.234375 C 434.554688 520.234375 434.625 520.234375 434.691406 520.234375 C 435.566406 520.234375 436.441406 520.226562 437.316406 520.234375 C 437.816406 520.242188 438.316406 520.273438 438.8125 520.332031 C 438.851562 520.335938 438.890625 520.34375 438.933594 520.347656 C 439.378906 520.40625 439.816406 520.480469 440.25 520.582031 C 440.308594 520.59375 440.367188 520.605469 440.425781 520.617188 C 440.824219 520.714844 441.21875 520.832031 441.605469 520.96875 C 441.855469 521.054688 442.101562 521.152344 442.347656 521.253906 C 442.425781 521.289062 442.507812 521.320312 442.585938 521.355469 C 445.066406 522.457031 447.160156 524.316406 448.5 526.71875 C 449.824219 529.199219 450.074219 531.871094 450.074219 534.695312 C 450.074219 535.664062 450.074219 536.632812 450.074219 537.597656 C 450.074219 539.914062 450.074219 542.226562 450.074219 544.542969 C 450.074219 547.015625 450.074219 549.492188 450.074219 551.964844 C 450.074219 559.5625 450.074219 567.15625 450.074219 574.75 C 450.074219 578.152344 450.074219 581.554688 450.074219 584.957031 C 450.074219 587.007812 450.074219 589.058594 450.074219 591.109375 C 450.074219 595.476562 456.863281 595.484375 456.863281 591.109375 C 456.863281 583.632812 456.863281 576.15625 456.863281 568.679688 C 456.863281 559.855469 456.863281 551.03125 456.863281 542.207031 C 456.863281 540.328125 456.863281 538.449219 456.863281 536.566406 C 456.863281 535.996094 456.863281 535.429688 456.863281 534.859375 C 456.863281 534.425781 456.863281 533.992188 456.863281 533.5625 C 456.863281 533.308594 456.839844 533.058594 456.832031 532.804688 C 456.828125 532.652344 456.820312 532.503906 456.8125 532.351562 C 456.796875 532.042969 456.78125 531.738281 456.757812 531.429688 C 456.628906 529.625 456.328125 527.84375 455.65625 526.097656 C 455.417969 525.480469 455.140625 524.886719 454.851562 524.304688 C 454.804688 524.214844 454.757812 524.128906 454.710938 524.039062 C 454.558594 523.746094 454.402344 523.453125 454.238281 523.171875 C 453.5 521.863281 452.621094 520.621094 451.550781 519.480469 C 449.117188 516.886719 446.019531 515.128906 442.660156 514.207031 C 442.28125 514.097656 441.898438 514 441.507812 513.914062 C 441.363281 513.882812 441.21875 513.855469 441.078125 513.828125 C 440.53125 513.71875 439.980469 513.632812 439.421875 513.574219 C 439.378906 513.570312 439.339844 513.5625 439.296875 513.558594 C 438.695312 513.496094 438.09375 513.453125 437.480469 513.445312 C 434.433594 513.410156 431.382812 513.445312 428.332031 513.445312 C 420.851562 513.445312 413.371094 513.445312 405.890625 513.445312 C 403.164062 513.445312 400.4375 513.445312 397.710938 513.445312 C 390.019531 513.445312 382.324219 513.445312 374.632812 513.445312 C 362.613281 513.445312 350.589844 513.445312 338.570312 513.445312 C 338.011719 513.445312 337.453125 513.445312 336.894531 513.445312 C 325.316406 513.445312 313.734375 513.445312 302.152344 513.445312 C 293.296875 513.445312 284.4375 513.445312 275.582031 513.445312 C 273.621094 513.445312 271.65625 513.445312 269.695312 513.445312 C 261.667969 513.445312 253.636719 513.445312 245.609375 513.445312 C 242.808594 513.445312 240.011719 513.445312 237.214844 513.445312 C 236.132812 513.445312 235.050781 513.441406 233.96875 513.445312 C 231.855469 513.453125 229.839844 513.773438 227.957031 514.359375 C 226.058594 514.875 224.21875 515.671875 222.46875 516.929688 C 218.546875 519.746094 215.933594 523.746094 214.824219 528.28125 C 214.707031 528.75 214.601562 529.222656 214.515625 529.703125 C 214.417969 530.226562 214.339844 530.761719 214.285156 531.300781 C 214.273438 531.414062 214.273438 531.527344 214.261719 531.636719 C 214.230469 532.058594 214.179688 532.480469 214.171875 532.90625 C 214.171875 533.082031 214.175781 533.257812 214.171875 533.433594 C 214.167969 534.507812 214.171875 535.585938 214.171875 536.664062 C 214.171875 541.519531 214.171875 546.378906 214.171875 551.234375 C 214.171875 562.304688 214.171875 573.378906 214.171875 584.449219 C 214.171875 585.460938 214.171875 586.472656 214.171875 587.484375 C 214.171875 598.457031 214.171875 609.425781 214.171875 620.394531 C 214.171875 628.109375 214.171875 635.824219 214.171875 643.539062 C 214.171875 647.792969 213.742188 652.472656 214.734375 656.644531 C 215.496094 659.84375 217.117188 662.726562 219.300781 665.074219 C 219.308594 665.082031 219.316406 665.089844 219.324219 665.097656 C 219.78125 665.601562 220.285156 666.070312 220.800781 666.527344 C 221.046875 666.746094 221.300781 666.949219 221.554688 667.15625 C 221.71875 667.285156 221.890625 667.40625 222.058594 667.53125 C 222.398438 667.785156 222.714844 668.058594 223.074219 668.292969 C 224.082031 668.953125 225.152344 669.46875 226.257812 669.890625 C 227.738281 670.5 229.296875 670.9375 230.910156 671.152344 C 231.617188 671.25 232.316406 671.296875 233.015625 671.328125 C 237.171875 671.679688 241.496094 671.359375 245.429688 671.359375 C 252.859375 671.359375 260.289062 671.359375 267.71875 671.359375 C 271.671875 671.359375 275.625 671.359375 279.578125 671.359375 C 289.5 671.359375 299.421875 671.359375 309.34375 671.359375 C 310.945312 671.359375 312.546875 671.359375 314.148438 671.359375 C 318.453125 671.359375 322.757812 671.359375 327.0625 671.359375 C 347.859375 671.359375 368.660156 671.359375 389.457031 671.359375 C 403.460938 671.359375 417.464844 671.359375 431.46875 671.359375 C 434.003906 671.359375 436.613281 671.523438 439.144531 671.277344 C 446.976562 670.511719 453.675781 665.210938 456.027344 657.65625 C 457.15625 654.019531 456.863281 650.070312 456.863281 646.308594 C 456.863281 643.113281 456.90625 639.910156 456.941406 636.707031 C 477.839844 636.789062 498.738281 637.253906 519.632812 637.609375 C 533.800781 637.847656 547.972656 638.101562 562.140625 638.355469 C 568.476562 638.472656 574.8125 638.585938 581.148438 638.703125 C 586.425781 638.800781 591.917969 639.34375 597.179688 638.921875 C 605.019531 638.292969 611.707031 633.132812 614.269531 625.6875 C 615.351562 622.550781 615.261719 619.3125 615.261719 616.058594 C 615.261719 606.636719 615.261719 597.214844 615.261719 587.792969 Z M 439.050781 625.773438 C 435.828125 623.304688 433.9375 619.894531 433.234375 615.609375 C 433.230469 615.589844 433.226562 615.582031 433.222656 615.5625 C 433.222656 615.539062 433.222656 615.519531 433.21875 615.464844 C 433.191406 615.21875 433.171875 614.972656 433.15625 614.726562 C 433.125 614.242188 433.113281 613.761719 433.121094 613.277344 C 433.128906 612.859375 433.160156 612.441406 433.1875 612.023438 C 433.191406 611.964844 433.203125 611.867188 433.214844 611.78125 C 433.246094 611.589844 433.273438 611.398438 433.316406 611.210938 C 433.410156 610.800781 433.5 610.394531 433.625 609.992188 C 433.671875 609.839844 433.921875 609.234375 433.9375 609.164062 C 434.050781 608.941406 434.164062 608.71875 434.285156 608.5 C 434.351562 608.375 434.4375 608.261719 434.511719 608.144531 C 434.53125 608.117188 434.535156 608.105469 434.546875 608.085938 C 434.5625 608.070312 434.566406 608.066406 434.585938 608.046875 C 434.867188 607.742188 435.160156 607.457031 435.457031 607.167969 C 435.480469 607.144531 435.488281 607.136719 435.507812 607.121094 C 435.660156 607.011719 435.8125 606.894531 435.976562 606.800781 C 436.269531 606.632812 436.5625 606.476562 436.859375 606.320312 C 436.941406 606.300781 437.519531 606.054688 437.722656 605.996094 C 438.050781 605.898438 438.378906 605.832031 438.710938 605.765625 C 438.792969 605.773438 439.523438 605.679688 439.683594 605.675781 C 440.050781 605.671875 440.417969 605.695312 440.785156 605.722656 C 440.871094 605.753906 441.5625 605.859375 441.765625 605.914062 C 443.523438 606.371094 444.644531 607.085938 446.03125 608.601562 C 447.375 610.074219 448.515625 612.519531 449.136719 614.847656 C 450.164062 618.679688 450.074219 622.617188 450.074219 626.546875 C 450.074219 627.59375 450.078125 628.640625 450.078125 629.6875 C 446.125 629.292969 442.289062 628.253906 439.050781 625.773438 Z M 222.296875 485.515625 C 225.78125 494.355469 232.460938 501.433594 240.457031 506.425781 C 244.175781 508.746094 247.585938 502.875 243.882812 500.5625 C 234.300781 494.582031 226.082031 484.066406 227 472.40625 C 227.273438 472.386719 227.554688 472.378906 227.824219 472.355469 C 232.582031 471.976562 237.324219 471.191406 241.929688 469.945312 C 246.070312 468.828125 251.105469 467.574219 253.597656 463.746094 C 255.726562 460.46875 255.347656 456.019531 253.308594 452.792969 C 250.96875 449.089844 246.824219 447.191406 242.496094 447.25 C 234.316406 447.363281 227.097656 453.277344 223.5 460.316406 C 222.601562 462.078125 221.894531 463.914062 221.359375 465.789062 C 215.847656 465.75 210.34375 465.089844 205.007812 463.699219 C 198.875 462.105469 193.242188 459.140625 190.726562 453.042969 C 188.714844 448.171875 188.855469 442.566406 190.625 437.585938 C 195.332031 424.320312 211.980469 420.542969 224.269531 423.875 C 226.035156 424.351562 227.957031 423.273438 228.445312 421.503906 C 228.96875 419.597656 227.796875 417.976562 226.074219 417.328125 C 212.019531 412.03125 195.550781 405.6875 189.226562 390.773438 C 186.648438 384.691406 186.707031 377.757812 189.511719 371.757812 C 192.027344 366.371094 196.261719 362.296875 201.574219 359.953125 C 211.828125 371.714844 222.285156 383.296875 232.992188 394.652344 C 237.621094 399.558594 242.289062 404.425781 246.996094 409.253906 C 250.050781 412.386719 254.851562 407.585938 251.796875 404.453125 C 237.035156 389.3125 222.695312 373.765625 208.75 357.871094 C 215.910156 356.65625 223.382812 357.4375 230.542969 358.175781 C 232.367188 358.363281 233.9375 356.480469 233.9375 354.78125 C 233.9375 352.789062 232.371094 351.574219 230.542969 351.386719 C 221.878906 350.492188 212.988281 349.75 204.425781 351.828125 C 204.160156 351.894531 203.910156 351.988281 203.644531 352.058594 C 203.511719 351.902344 203.371094 351.75 203.238281 351.59375 C 198.824219 346.492188 194.457031 341.355469 190.128906 336.183594 C 188.953125 334.773438 186.542969 334.964844 185.328125 336.183594 C 183.9375 337.574219 184.148438 339.574219 185.328125 340.984375 C 189.171875 345.574219 193.046875 350.140625 196.957031 354.675781 C 191.972656 357.285156 187.730469 361.144531 184.8125 366.121094 C 180.683594 373.164062 179.429688 381.734375 181.660156 389.613281 C 183.941406 397.65625 189.367188 404.589844 195.878906 409.6875 C 199.449219 412.484375 203.320312 414.769531 207.335938 416.777344 C 198.257812 418.613281 189.957031 423.589844 185.640625 432.117188 C 182.382812 438.550781 181.515625 446.289062 183.621094 453.222656 C 186.050781 461.222656 192.0625 466.527344 199.839844 469.234375 C 206.261719 471.476562 213.289062 472.492188 220.214844 472.597656 C 219.980469 476.964844 220.667969 481.378906 222.296875 485.515625 Z M 237.015625 455.59375 C 239.601562 454.183594 243.15625 453.285156 245.902344 454.78125 C 247.628906 455.722656 248.703125 458.09375 248.105469 459.648438 C 247.207031 461.988281 242.386719 462.789062 240.125 463.398438 C 236.402344 464.40625 232.597656 465.128906 228.757812 465.488281 C 228.710938 465.492188 228.660156 465.492188 228.613281 465.496094 C 230.257812 461.378906 233.042969 457.757812 237.015625 455.59375 Z M 152.117188 518.5 C 163.152344 512.664062 174.800781 508.011719 186.828125 504.679688 C 191.050781 503.507812 192.835938 510.058594 188.632812 511.226562 C 177.148438 514.40625 166.078125 518.789062 155.546875 524.359375 C 151.683594 526.40625 148.253906 520.542969 152.117188 518.5 Z M 197.023438 522.070312 C 198.226562 523.273438 198.445312 525.710938 197.023438 526.871094 C 183.414062 537.992188 169.804688 549.117188 156.195312 560.238281 C 154.769531 561.402344 152.796875 561.644531 151.394531 560.238281 C 150.1875 559.035156 149.972656 556.597656 151.394531 555.4375 C 165.003906 544.316406 178.613281 533.191406 192.222656 522.070312 C 193.648438 520.90625 195.617188 520.664062 197.023438 522.070312 Z M 520.199219 288.714844 C 519.195312 287.003906 519.953125 285.171875 521.414062 284.070312 C 522.6875 283.113281 523.960938 282.152344 525.234375 281.195312 C 534.1875 274.460938 543.140625 267.722656 552.09375 260.988281 C 552.925781 260.363281 554.007812 260.363281 554.957031 260.742188 C 555.984375 261.148438 556.859375 261.992188 557.082031 263.015625 C 557.554688 265.148438 558.023438 267.285156 558.496094 269.417969 C 561.460938 282.847656 564.425781 296.277344 567.390625 309.707031 C 576.265625 303.03125 585.136719 296.355469 594.007812 289.679688 C 595.734375 288.378906 598.554688 289.742188 598.996094 291.707031 C 599.472656 293.839844 599.949219 295.96875 600.425781 298.097656 C 603.429688 311.5 606.429688 324.902344 609.433594 338.304688 C 618.367188 331.582031 627.300781 324.859375 636.234375 318.136719 C 637.957031 316.84375 640.785156 318.199219 641.21875 320.167969 C 641.691406 322.300781 642.164062 324.4375 642.632812 326.570312 C 645.964844 341.652344 649.292969 356.734375 652.625 371.816406 C 653.566406 376.078125 647.019531 377.886719 646.078125 373.621094 C 645.605469 371.484375 645.136719 369.351562 644.664062 367.214844 C 641.699219 353.785156 638.734375 340.359375 635.765625 326.929688 C 626.839844 333.648438 617.910156 340.367188 608.980469 347.085938 C 607.253906 348.382812 604.433594 347.019531 603.992188 345.054688 C 603.515625 342.925781 603.039062 340.796875 602.5625 338.664062 C 599.558594 325.261719 596.558594 311.863281 593.558594 298.460938 C 584.625 305.183594 575.691406 311.902344 566.757812 318.625 C 565.039062 319.917969 562.199219 318.566406 561.769531 316.597656 C 561.300781 314.433594 560.832031 312.273438 560.363281 310.113281 C 557.445312 296.671875 554.53125 283.230469 551.613281 269.789062 C 542.691406 276.503906 533.765625 283.21875 524.84375 289.933594 C 523.367188 291.042969 521.039062 290.15625 520.199219 288.714844 Z M 655.132812 580.070312 C 653.429688 580.566406 652.191406 582.484375 652.761719 584.246094 C 653.320312 585.976562 655.109375 587.152344 656.9375 586.617188 C 657.144531 586.558594 657.347656 586.5 657.558594 586.449219 C 657.535156 586.457031 657.949219 586.382812 658.121094 586.347656 C 658.242188 586.339844 658.386719 586.328125 658.425781 586.328125 C 658.644531 586.316406 658.863281 586.316406 659.082031 586.320312 C 659.320312 586.328125 659.558594 586.34375 659.792969 586.371094 C 659.847656 586.386719 659.914062 586.402344 660.007812 586.429688 C 660.296875 586.507812 660.710938 586.566406 661.050781 586.683594 C 661.035156 586.683594 661.082031 586.710938 661.273438 586.816406 C 661.421875 586.894531 661.570312 586.964844 661.714844 587.042969 C 662.003906 587.203125 662.273438 587.386719 662.546875 587.5625 C 662.585938 587.585938 662.605469 587.601562 662.632812 587.617188 C 662.699219 587.683594 662.765625 587.753906 662.808594 587.789062 C 663.105469 588.0625 663.371094 588.355469 663.640625 588.652344 C 663.6875 588.703125 663.71875 588.734375 663.746094 588.761719 C 663.800781 588.859375 663.851562 588.960938 663.890625 589.023438 C 664.0625 589.292969 664.207031 589.574219 664.363281 589.851562 C 664.386719 589.894531 664.410156 589.925781 664.4375 589.960938 C 664.476562 590.074219 664.511719 590.203125 664.527344 590.253906 C 664.65625 590.628906 664.761719 591.015625 664.84375 591.40625 C 664.851562 591.449219 664.871094 591.519531 664.886719 591.585938 C 664.886719 591.621094 664.886719 591.648438 664.886719 591.699219 C 664.894531 592.027344 664.917969 592.351562 664.910156 592.675781 C 664.902344 592.84375 664.890625 593.003906 664.882812 593.167969 C 664.875 593.335938 664.875 593.414062 664.875 593.433594 C 664.808594 593.726562 664.683594 594.054688 664.625 594.242188 C 664.578125 594.40625 664.515625 594.566406 664.464844 594.730469 C 664.460938 594.738281 664.460938 594.742188 664.460938 594.75 C 664.304688 595.035156 664.167969 595.328125 664 595.605469 C 663.894531 595.78125 663.777344 595.945312 663.667969 596.117188 C 663.625 596.1875 663.601562 596.238281 663.589844 596.273438 C 663.394531 596.507812 663.082031 596.753906 662.933594 596.894531 C 662.816406 597.003906 662.695312 597.105469 662.578125 597.214844 C 662.523438 597.261719 662.5 597.296875 662.480469 597.324219 C 662.285156 597.453125 662.03125 597.574219 661.902344 597.648438 C 661.765625 597.730469 661.625 597.804688 661.484375 597.878906 C 661.46875 597.886719 661.386719 597.929688 661.300781 597.972656 C 661.226562 598.003906 661.136719 598.046875 661.089844 598.058594 C 660.902344 598.121094 660.714844 598.1875 660.519531 598.242188 C 660.210938 598.332031 659.898438 598.382812 659.589844 598.453125 C 659.40625 598.457031 659.222656 598.476562 659.042969 598.480469 C 658.753906 598.488281 658.46875 598.472656 658.183594 598.457031 C 658.195312 598.464844 658.210938 598.472656 658.222656 598.484375 C 658.210938 598.472656 658.175781 598.464844 658.148438 598.453125 C 658.117188 598.453125 658.089844 598.453125 658.0625 598.453125 C 657.847656 598.441406 657.828125 598.410156 657.882812 598.394531 C 657.714844 598.367188 657.535156 598.34375 657.480469 598.332031 C 657.148438 598.25 656.828125 598.144531 656.5 598.035156 C 656.488281 598.03125 656.480469 598.03125 656.46875 598.023438 C 656.351562 597.96875 656.195312 597.890625 656.164062 597.875 C 655.835938 597.703125 655.519531 597.515625 655.210938 597.304688 C 655.175781 597.28125 655.105469 597.226562 655.039062 597.175781 C 654.960938 597.105469 654.878906 597.035156 654.851562 597.011719 C 654.554688 596.738281 654.289062 596.445312 654.015625 596.148438 C 653.957031 596.082031 653.917969 596.039062 653.890625 596.011719 C 653.820312 595.890625 653.757812 595.761719 653.703125 595.675781 C 653.609375 595.523438 653.386719 595.222656 653.25 594.960938 C 653.253906 594.933594 653.242188 594.875 653.210938 594.773438 C 653.136719 594.546875 653.054688 594.324219 652.988281 594.09375 C 652.910156 593.816406 652.648438 593.207031 652.730469 592.917969 C 652.722656 592.949219 652.789062 593.769531 652.773438 593.101562 C 652.765625 592.855469 652.746094 592.613281 652.746094 592.367188 C 652.746094 592.207031 652.75 592.042969 652.761719 591.878906 C 652.761719 591.832031 652.777344 591.691406 652.792969 591.570312 C 652.8125 591.449219 652.835938 591.316406 652.839844 591.296875 C 652.894531 591.050781 652.960938 590.804688 653.035156 590.558594 C 653.523438 588.851562 652.4375 586.785156 650.664062 586.382812 C 648.851562 585.96875 647.011719 586.925781 646.488281 588.753906 C 645.246094 593.058594 646.335938 597.5625 649.214844 600.949219 C 652.132812 604.375 656.800781 605.757812 661.152344 605.046875 C 665.171875 604.386719 668.839844 601.53125 670.484375 597.816406 C 672.253906 593.832031 672.097656 589.078125 669.625 585.398438 C 666.453125 580.679688 660.636719 578.46875 655.132812 580.070312 Z M 656.449219 598.019531 C 656.070312 597.894531 656.273438 597.953125 656.449219 598.019531 Z M 656.472656 598.027344 C 656.550781 598.058594 656.613281 598.085938 656.609375 598.09375 C 656.609375 598.09375 656.546875 598.0625 656.472656 598.027344 Z M 658.144531 598.457031 C 658.082031 598.433594 657.992188 598.414062 657.882812 598.398438 C 657.941406 598.382812 658.082031 598.386719 658.183594 598.457031 C 658.171875 598.457031 658.160156 598.457031 658.144531 598.457031 Z M 302.410156 296.765625 C 302.410156 291.351562 302.410156 285.9375 302.410156 280.523438 C 298.648438 283.132812 294.882812 285.746094 291.121094 288.359375 C 289.605469 289.410156 287.347656 288.628906 286.476562 287.140625 C 285.5 285.46875 286.1875 283.539062 287.691406 282.496094 C 293.160156 278.703125 298.625 274.910156 304.09375 271.117188 C 306.257812 269.613281 309.199219 271.625 309.199219 274.046875 C 309.199219 276.832031 309.199219 279.617188 309.199219 282.402344 C 309.199219 294.417969 309.199219 306.433594 309.199219 318.453125 C 309.199219 326.023438 309.199219 333.597656 309.199219 341.171875 C 309.199219 343.011719 307.640625 344.566406 305.804688 344.566406 C 297.011719 344.566406 288.214844 344.566406 279.421875 344.566406 C 275.046875 344.566406 275.054688 337.777344 279.421875 337.777344 C 287.085938 337.777344 294.75 337.777344 302.410156 337.777344 C 302.410156 336.125 302.410156 334.472656 302.410156 332.816406 C 302.410156 320.800781 302.410156 308.785156 302.410156 296.765625 Z M 334.410156 337.777344 C 336.3125 337.777344 337.722656 339.332031 337.804688 341.171875 C 337.886719 343.003906 336.183594 344.566406 334.410156 344.566406 C 333.574219 344.566406 332.734375 344.566406 331.898438 344.566406 C 325.980469 344.566406 325.496094 344.566406 319.578125 344.566406 C 317.675781 344.566406 316.265625 343.011719 316.183594 341.171875 C 316.101562 339.339844 317.804688 337.777344 319.578125 337.777344 C 320.417969 337.777344 321.253906 337.777344 322.089844 337.777344 C 328.007812 337.777344 328.492188 337.777344 334.410156 337.777344 Z M 583.878906 494.800781 C 579.328125 500.351562 574.695312 505.839844 570.027344 511.296875 C 583.941406 511.296875 597.859375 511.296875 611.773438 511.296875 C 616.148438 511.296875 616.140625 518.085938 611.773438 518.085938 C 609.722656 518.085938 607.675781 518.085938 605.628906 518.085938 C 591.308594 518.085938 576.988281 518.085938 562.667969 518.085938 C 559.578125 518.085938 558.394531 514.449219 560.265625 512.289062 C 566.496094 505.113281 572.628906 497.855469 578.660156 490.511719 C 583.503906 484.613281 588.945312 478.773438 592.6875 472.078125 C 595.683594 466.710938 596.671875 460.324219 591.964844 455.621094 C 587.683594 451.339844 580.964844 450.429688 575.472656 452.789062 C 569.632812 455.296875 566.074219 461.277344 566.152344 467.546875 C 566.207031 471.925781 559.414062 471.910156 559.363281 467.546875 C 559.246094 458.117188 565.042969 449.53125 573.847656 446.167969 C 581.480469 443.253906 590.457031 444.855469 596.417969 450.480469 C 599.199219 453.105469 601.238281 456.648438 601.839844 460.441406 C 602.53125 464.800781 601.617188 468.964844 599.832031 472.953125 C 598.09375 476.839844 595.542969 480.273438 592.929688 483.601562 C 589.96875 487.378906 586.921875 491.089844 583.878906 494.800781 Z M 291.382812 613.402344 C 291.460938 612.582031 291.5 611.761719 291.484375 610.941406 C 291.476562 610.527344 291.457031 610.113281 291.429688 609.703125 C 291.421875 609.582031 291.363281 609 291.359375 608.90625 C 290.898438 605.664062 289.421875 603.496094 286.976562 601.296875 C 285.851562 600.28125 284.855469 599.585938 283.347656 598.6875 C 282.140625 597.964844 280.886719 597.328125 279.609375 596.746094 C 279.457031 596.675781 279.300781 596.609375 279.148438 596.542969 C 278.957031 596.464844 278.761719 596.386719 278.566406 596.3125 C 278.175781 596.160156 277.785156 596.011719 277.386719 595.875 C 277.011719 595.742188 276.628906 595.613281 276.246094 595.503906 C 273.585938 594.738281 273.195312 591.777344 274.746094 589.828125 C 277.558594 586.292969 281 581.917969 281.199219 577.199219 C 281.375 573.148438 278.886719 569.8125 275.273438 568.148438 C 271.566406 566.441406 267.042969 566.964844 263.621094 569.082031 C 259.875 571.40625 257.8125 575.699219 257.851562 580.035156 C 257.894531 584.410156 251.105469 584.402344 251.0625 580.035156 C 251.011719 574.382812 253.421875 568.660156 257.785156 564.992188 C 265.429688 558.570312 277.832031 558.722656 284.363281 566.746094 C 287.683594 570.824219 288.726562 575.96875 287.410156 581.058594 C 286.503906 584.550781 284.691406 587.671875 282.609375 590.597656 C 287.101562 592.554688 291.359375 595.464844 294.285156 599.199219 C 299.402344 605.738281 299.4375 615.28125 295.476562 622.433594 C 290.8125 630.851562 281.019531 634.09375 271.851562 633.679688 C 263.5 633.300781 255.929688 629.753906 250.851562 623.054688 C 248.710938 620.230469 246.859375 616.765625 246.121094 613.265625 C 245.742188 611.464844 246.632812 609.601562 248.492188 609.089844 C 250.183594 608.625 252.292969 609.664062 252.667969 611.460938 C 252.886719 612.484375 253.289062 613.449219 253.632812 614.4375 C 253.636719 614.445312 253.636719 614.445312 253.640625 614.449219 C 253.652344 614.480469 253.660156 614.492188 253.675781 614.527344 C 253.800781 614.785156 253.914062 615.046875 254.039062 615.304688 C 254.296875 615.832031 254.574219 616.351562 254.867188 616.863281 C 255.191406 617.421875 255.535156 617.972656 255.902344 618.507812 C 256.070312 618.753906 256.246094 618.992188 256.421875 619.230469 C 256.472656 619.292969 256.800781 619.710938 256.910156 619.835938 C 261.183594 624.859375 267.117188 627.078125 274.15625 626.914062 C 278.085938 626.824219 281.914062 625.980469 285.167969 623.859375 C 286.304688 623.113281 287.445312 622.089844 288.460938 620.8125 C 288.488281 620.777344 288.734375 620.433594 288.976562 620.0625 C 289.203125 619.71875 289.414062 619.367188 289.613281 619.007812 C 290.039062 618.238281 290.1875 617.921875 290.367188 617.433594 C 290.648438 616.667969 290.890625 615.890625 291.074219 615.09375 C 291.167969 614.695312 291.246094 614.292969 291.316406 613.890625 C 291.34375 613.746094 291.355469 613.679688 291.363281 613.652344 C 291.363281 613.621094 291.371094 613.554688 291.382812 613.402344 Z M 356.734375 277.441406 C 352.359375 277.441406 352.367188 270.652344 356.734375 270.652344 C 360.875 270.652344 365.019531 270.652344 369.164062 270.652344 C 387.234375 270.652344 405.304688 270.652344 423.378906 270.652344 C 434.8125 270.652344 446.246094 270.652344 457.679688 270.652344 C 462.054688 270.652344 462.046875 277.441406 457.679688 277.441406 C 453.535156 277.441406 449.390625 277.441406 445.25 277.441406 C 427.179688 277.441406 409.105469 277.441406 391.035156 277.441406 C 379.601562 277.441406 368.167969 277.441406 356.734375 277.441406 Z M 356.734375 295.003906 C 360.875 295.003906 365.019531 295.003906 369.164062 295.003906 C 387.234375 295.003906 405.304688 295.003906 423.378906 295.003906 C 434.8125 295.003906 446.246094 295.003906 457.679688 295.003906 C 462.054688 295.003906 462.046875 301.796875 457.679688 301.796875 C 453.535156 301.796875 449.390625 301.796875 445.25 301.796875 C 427.179688 301.796875 409.105469 301.796875 391.035156 301.796875 C 379.601562 301.796875 368.167969 301.796875 356.734375 301.796875 C 352.359375 301.796875 352.367188 295.003906 356.734375 295.003906 Z M 356.734375 319.359375 C 359.378906 319.359375 362.023438 319.359375 364.667969 319.359375 C 376.261719 319.359375 387.851562 319.359375 399.445312 319.359375 C 406.679688 319.359375 413.914062 319.359375 421.148438 319.359375 C 425.523438 319.359375 425.515625 326.148438 421.148438 326.148438 C 418.503906 326.148438 415.855469 326.148438 413.210938 326.148438 C 401.621094 326.148438 390.027344 326.148438 378.433594 326.148438 C 371.203125 326.148438 363.96875 326.148438 356.734375 326.148438 C 352.359375 326.148438 352.367188 319.359375 356.734375 319.359375 Z M 636.410156 451.519531 C 632.035156 451.519531 632.042969 444.730469 636.410156 444.730469 C 639.863281 444.730469 643.3125 444.730469 646.765625 444.730469 C 661.777344 444.730469 676.789062 444.730469 691.804688 444.730469 C 701.265625 444.730469 710.730469 444.730469 720.191406 444.730469 C 724.570312 444.730469 724.5625 451.519531 720.191406 451.519531 C 716.742188 451.519531 713.289062 451.519531 709.839844 451.519531 C 694.828125 451.519531 679.8125 451.519531 664.800781 451.519531 C 655.339844 451.519531 645.875 451.519531 636.410156 451.519531 Z M 636.410156 469.082031 C 639.863281 469.082031 643.3125 469.082031 646.765625 469.082031 C 661.777344 469.082031 676.789062 469.082031 691.804688 469.082031 C 701.265625 469.082031 710.730469 469.082031 720.191406 469.082031 C 724.570312 469.082031 724.5625 475.871094 720.191406 475.871094 C 716.742188 475.871094 713.289062 475.871094 709.839844 475.871094 C 694.828125 475.871094 679.8125 475.871094 664.800781 475.871094 C 655.339844 475.871094 645.875 475.871094 636.410156 475.871094 C 632.035156 475.871094 632.042969 469.082031 636.410156 469.082031 Z M 636.410156 493.4375 C 638.875 493.4375 641.34375 493.4375 643.808594 493.4375 C 654.46875 493.4375 665.132812 493.4375 675.796875 493.4375 C 682.476562 493.4375 689.15625 493.4375 695.839844 493.4375 C 700.214844 493.4375 700.207031 500.226562 695.839844 500.226562 C 693.375 500.226562 690.910156 500.226562 688.441406 500.226562 C 677.78125 500.226562 667.117188 500.226562 656.457031 500.226562 C 649.773438 500.226562 643.09375 500.226562 636.410156 500.226562 C 632.035156 500.226562 632.042969 493.4375 636.410156 493.4375 Z M 400.601562 568.636719 C 397.148438 568.636719 393.699219 568.636719 390.246094 568.636719 C 375.234375 568.636719 360.222656 568.636719 345.207031 568.636719 C 335.746094 568.636719 326.28125 568.636719 316.820312 568.636719 C 312.441406 568.636719 312.449219 561.847656 316.820312 561.847656 C 320.269531 561.847656 323.722656 561.847656 327.171875 561.847656 C 342.183594 561.847656 357.199219 561.847656 372.210938 561.847656 C 381.671875 561.847656 391.136719 561.847656 400.601562 561.847656 C 404.976562 561.847656 404.96875 568.636719 400.601562 568.636719 Z M 390.246094 592.992188 C 375.234375 592.992188 360.222656 592.992188 345.207031 592.992188 C 335.746094 592.992188 326.28125 592.992188 316.820312 592.992188 C 312.441406 592.992188 312.449219 586.203125 316.820312 586.203125 C 320.269531 586.203125 323.722656 586.203125 327.171875 586.203125 C 342.183594 586.203125 357.199219 586.203125 372.210938 586.203125 C 381.671875 586.203125 391.136719 586.203125 400.601562 586.203125 C 404.976562 586.203125 404.96875 592.992188 400.601562 592.992188 C 397.148438 592.992188 393.699219 592.992188 390.246094 592.992188 Z M 364.070312 610.554688 C 368.445312 610.554688 368.4375 617.34375 364.070312 617.34375 C 362.117188 617.34375 360.164062 617.34375 358.210938 617.34375 C 344.414062 617.34375 330.617188 617.34375 316.820312 617.34375 C 312.441406 617.34375 312.449219 610.554688 316.820312 610.554688 C 318.773438 610.554688 320.726562 610.554688 322.679688 610.554688 C 336.476562 610.554688 350.273438 610.554688 364.070312 610.554688 Z M 364.070312 610.554688 " fill-opacity="1" fill-rule="nonzero"/></g><g clip-path="url(#62e25d1168)"><path fill="#dc4f50" d="M 523.398438 495.535156 C 523.769531 495.792969 524.132812 496.058594 524.527344 496.296875 C 526.933594 497.757812 529.820312 498.894531 532.769531 499.453125 C 531.503906 499.1875 530.269531 498.84375 529.140625 498.441406 C 527.101562 497.714844 525.167969 496.742188 523.398438 495.535156 Z M 490.921875 272.59375 C 490.921875 265.992188 490.921875 259.394531 490.921875 252.796875 C 490.921875 247.429688 491.035156 242.242188 487.996094 237.445312 C 483.945312 231.054688 477.234375 228.320312 469.929688 228.320312 C 466.308594 228.320312 462.6875 228.320312 459.0625 228.320312 C 444.21875 228.320312 429.371094 228.320312 414.523438 228.320312 C 394.925781 228.320312 375.328125 228.320312 355.730469 228.320312 C 337.566406 228.320312 319.402344 228.320312 301.242188 228.320312 C 290.746094 228.320312 280.25 228.320312 269.753906 228.320312 C 263.53125 228.320312 257.574219 229.847656 253.238281 234.695312 C 248.792969 239.667969 248.230469 245.519531 248.230469 251.761719 C 248.230469 267.296875 248.230469 282.832031 248.230469 298.367188 C 248.230469 316.585938 248.230469 334.804688 248.230469 353.019531 C 248.230469 357.425781 248.214844 361.832031 248.230469 366.238281 C 248.277344 377.152344 256.523438 386.03125 267.589844 386.234375 C 281.292969 386.488281 295.023438 386.234375 308.730469 386.234375 C 321.453125 386.234375 334.175781 386.234375 346.898438 386.234375 C 351.269531 386.234375 351.277344 379.445312 346.898438 379.445312 C 334.011719 379.445312 321.121094 379.445312 308.234375 379.445312 C 294.71875 379.445312 281.183594 379.660156 267.667969 379.445312 C 262.4375 379.363281 257.640625 376.257812 255.800781 371.273438 C 255.105469 369.398438 255.023438 367.5 255.023438 365.542969 C 255.023438 360.800781 255.023438 356.0625 255.023438 351.320312 C 255.023438 333.421875 255.023438 315.527344 255.023438 297.628906 C 255.023438 282.542969 255.023438 267.457031 255.023438 252.371094 C 255.023438 247.421875 254.832031 242.660156 258.703125 238.789062 C 262.023438 235.46875 266.09375 235.109375 270.417969 235.109375 C 280.945312 235.109375 291.476562 235.109375 302.003906 235.109375 C 319.585938 235.109375 337.164062 235.109375 354.746094 235.109375 C 373.84375 235.109375 392.9375 235.109375 412.035156 235.109375 C 426.828125 235.109375 441.621094 235.109375 456.414062 235.109375 C 460.480469 235.109375 464.542969 235.109375 468.605469 235.109375 C 472.742188 235.109375 476.683594 235.3125 479.988281 238.34375 C 484.1875 242.199219 484.132812 247.039062 484.132812 252.164062 C 484.132812 258.292969 484.132812 264.425781 484.132812 270.558594 C 484.132812 287.957031 484.132812 305.355469 484.132812 322.753906 C 484.132812 318.378906 490.921875 318.386719 490.921875 322.753906 C 490.921875 306.035156 490.921875 289.3125 490.921875 272.59375 Z M 744.949219 424.683594 C 744.949219 430.882812 744.949219 437.078125 744.949219 443.277344 C 744.949219 461.894531 744.949219 480.515625 744.949219 499.136719 C 744.949219 512.042969 744.949219 524.953125 744.949219 537.859375 C 744.949219 539.816406 744.863281 541.707031 744.171875 543.589844 C 742.339844 548.546875 737.5625 551.671875 732.351562 551.761719 C 730.351562 551.792969 728.347656 551.761719 726.347656 551.761719 C 714.238281 551.761719 702.128906 551.761719 690.023438 551.761719 C 671.714844 551.761719 653.410156 551.761719 635.101562 551.761719 C 616.335938 551.761719 597.570312 551.761719 578.804688 551.761719 C 565.324219 551.761719 551.84375 551.761719 538.367188 551.761719 C 535.332031 551.761719 532.296875 551.769531 529.265625 551.761719 C 521.945312 551.742188 515.953125 546.675781 515.835938 539.09375 C 515.640625 526.292969 515.835938 513.472656 515.835938 500.671875 C 515.835938 496.300781 509.046875 496.296875 509.046875 500.671875 C 509.046875 507.503906 509.046875 514.335938 509.046875 521.167969 C 509.046875 525.613281 509.046875 530.058594 509.046875 534.503906 C 509.046875 537.277344 508.914062 540.082031 509.398438 542.824219 C 511.09375 552.363281 519.753906 558.519531 529.125 558.550781 C 532.207031 558.5625 535.285156 558.550781 538.363281 558.550781 C 552.425781 558.550781 566.488281 558.550781 580.550781 558.550781 C 599.972656 558.550781 619.394531 558.550781 638.8125 558.550781 C 657.363281 558.550781 675.914062 558.550781 694.460938 558.550781 C 705.933594 558.550781 717.402344 558.550781 728.875 558.550781 C 733.046875 558.550781 736.992188 558.457031 740.90625 556.5625 C 747.289062 553.476562 751.402344 546.933594 751.722656 539.890625 C 751.765625 538.90625 751.738281 537.914062 751.738281 536.929688 C 751.738281 522.578125 751.738281 508.226562 751.738281 493.875 C 751.738281 475.148438 751.738281 456.421875 751.738281 437.695312 C 751.738281 432.40625 751.738281 427.121094 751.738281 421.832031 C 751.738281 421.28125 751.730469 420.738281 751.71875 420.195312 C 751.570312 424.355469 745.019531 424.28125 744.949219 419.992188 M 751.578125 417.832031 C 751.550781 417.566406 751.523438 417.300781 751.484375 417.035156 " fill-opacity="1" fill-rule="nonzero"/></g><g clip-path="url(#d546e5534f)"><path fill="#439751" d="M 214.175781 651.722656 C 214.195312 656.742188 216.023438 661.46875 219.304688 665.074219 C 217.117188 662.722656 215.496094 659.84375 214.734375 656.640625 C 213.742188 652.46875 214.175781 647.789062 214.175781 643.539062 C 214.175781 644.496094 214.175781 645.453125 214.175781 646.410156 C 214.175781 648.179688 214.167969 649.949219 214.175781 651.722656 Z M 449.664062 529.601562 C 449.390625 528.574219 448.996094 527.609375 448.5 526.71875 C 449.828125 529.199219 450.074219 531.871094 450.074219 534.695312 C 450.074219 535.660156 450.074219 536.628906 450.074219 537.597656 C 450.074219 534.992188 450.335938 532.128906 449.664062 529.601562 Z M 614.273438 625.683594 C 611.707031 633.128906 605.019531 638.289062 597.183594 638.921875 C 591.917969 639.34375 586.425781 638.800781 581.148438 638.703125 C 574.8125 638.585938 568.476562 638.46875 562.140625 638.355469 C 547.972656 638.097656 533.804688 637.847656 519.632812 637.605469 C 498.738281 637.25 477.839844 636.785156 456.941406 636.707031 C 456.90625 639.910156 456.863281 643.113281 456.863281 646.308594 C 456.863281 650.066406 457.15625 654.015625 456.027344 657.652344 C 453.675781 665.210938 446.976562 670.507812 439.144531 671.277344 C 436.617188 671.523438 434.003906 671.359375 431.46875 671.359375 C 417.464844 671.359375 403.464844 671.359375 389.457031 671.359375 C 368.660156 671.359375 347.859375 671.359375 327.0625 671.359375 C 322.757812 671.359375 318.453125 671.359375 314.148438 671.359375 C 318.515625 671.359375 318.523438 664.570312 314.148438 664.570312 C 325.917969 664.570312 337.6875 664.570312 349.460938 664.570312 C 368.359375 664.570312 387.257812 664.570312 406.15625 664.570312 C 416.269531 664.570312 426.386719 664.570312 436.503906 664.570312 C 438.15625 664.570312 439.75 664.472656 441.355469 663.972656 C 446.699219 662.3125 450.042969 657.238281 450.074219 651.761719 C 450.105469 646.675781 450.097656 641.589844 450.089844 636.5 C 445.136719 636.082031 440.230469 634.847656 436.097656 631.972656 C 431.6875 628.910156 428.425781 624.457031 427.066406 619.234375 C 424.929688 611.03125 427.605469 601.078125 436.933594 599.199219 C 441.777344 598.226562 446.707031 599.777344 450.25 603.199219 C 454.984375 607.777344 456.566406 614.722656 456.828125 621.070312 C 456.949219 624.011719 456.972656 626.964844 456.976562 629.917969 C 464.453125 629.957031 471.925781 630.066406 479.402344 630.175781 C 506.082031 630.558594 532.761719 631.035156 559.4375 631.515625 C 570.914062 631.722656 582.386719 631.9375 593.863281 632.148438 C 596.90625 632.207031 599.671875 631.988281 602.347656 630.386719 C 604.960938 628.824219 606.988281 626.304688 607.886719 623.386719 C 608.640625 620.933594 608.472656 618.375 608.472656 615.84375 C 608.472656 600.195312 608.472656 584.546875 608.472656 568.898438 C 608.472656 564.523438 615.261719 564.527344 615.261719 568.898438 C 615.261719 575.195312 615.261719 581.496094 615.261719 587.796875 C 615.261719 597.214844 615.261719 606.636719 615.261719 616.058594 C 615.261719 619.3125 615.351562 622.550781 614.273438 625.683594 Z M 450.078125 629.683594 C 450.078125 628.640625 450.074219 627.59375 450.074219 626.546875 C 450.074219 622.613281 450.164062 618.679688 449.136719 614.84375 C 448.515625 612.519531 447.375 610.074219 446.03125 608.601562 C 444.644531 607.085938 443.523438 606.371094 441.765625 605.910156 C 441.5625 605.859375 440.871094 605.753906 440.785156 605.722656 C 440.417969 605.695312 440.050781 605.667969 439.683594 605.675781 C 439.523438 605.679688 438.792969 605.773438 438.710938 605.765625 C 438.378906 605.832031 438.050781 605.898438 437.722656 605.992188 C 437.519531 606.054688 436.941406 606.300781 436.859375 606.320312 C 436.5625 606.476562 436.269531 606.632812 435.976562 606.800781 C 435.8125 606.894531 435.660156 607.007812 435.507812 607.121094 C 435.488281 607.136719 435.480469 607.144531 435.457031 607.167969 C 435.15625 607.457031 434.867188 607.742188 434.582031 608.046875 C 434.566406 608.066406 434.558594 608.070312 434.546875 608.085938 C 434.535156 608.105469 434.53125 608.117188 434.511719 608.144531 C 434.4375 608.261719 434.351562 608.375 434.285156 608.496094 C 434.164062 608.71875 434.050781 608.941406 433.9375 609.164062 C 433.921875 609.234375 433.671875 609.839844 433.625 609.992188 C 433.5 610.394531 433.410156 610.800781 433.316406 611.210938 C 433.273438 611.398438 433.246094 611.589844 433.214844 611.78125 C 433.203125 611.867188 433.191406 611.960938 433.1875 612.023438 C 433.15625 612.441406 433.128906 612.859375 433.121094 613.277344 C 433.113281 613.761719 433.125 614.242188 433.15625 614.726562 C 433.171875 614.972656 433.191406 615.21875 433.214844 615.464844 C 433.222656 615.519531 433.222656 615.539062 433.222656 615.5625 C 433.226562 615.582031 433.226562 615.589844 433.230469 615.609375 C 433.9375 619.894531 435.828125 623.304688 439.050781 625.773438 C 442.289062 628.253906 446.125 629.292969 450.078125 629.683594 Z M 437.414062 520.234375 C 437.382812 520.234375 437.347656 520.234375 437.316406 520.234375 C 437.820312 520.238281 438.320312 520.273438 438.8125 520.332031 C 438.351562 520.277344 437.886719 520.238281 437.414062 520.234375 Z M 454.238281 523.167969 C 453.503906 521.863281 452.621094 520.621094 451.550781 519.480469 C 449.117188 516.886719 446.019531 515.128906 442.664062 514.203125 C 447.515625 515.582031 451.660156 518.769531 454.238281 523.167969 Z M 456.863281 533.558594 C 456.863281 533.304688 456.839844 533.054688 456.832031 532.804688 C 456.855469 533.484375 456.863281 534.171875 456.863281 534.855469 C 456.863281 534.425781 456.863281 533.992188 456.863281 533.558594 Z M 214.175781 532.90625 C 214.171875 533.082031 214.175781 533.253906 214.175781 533.429688 C 214.175781 532.824219 214.210938 532.226562 214.261719 531.636719 C 214.230469 532.058594 214.179688 532.476562 214.175781 532.90625 Z M 304.09375 271.113281 C 298.625 274.910156 293.160156 278.703125 287.691406 282.496094 C 286.1875 283.539062 285.5 285.46875 286.476562 287.140625 C 287.347656 288.628906 289.605469 289.410156 291.121094 288.359375 C 294.882812 285.746094 298.648438 283.132812 302.410156 280.523438 C 302.410156 285.9375 302.410156 291.351562 302.410156 296.765625 C 302.410156 308.785156 302.410156 320.800781 302.410156 332.816406 C 302.410156 334.46875 302.410156 336.125 302.410156 337.777344 C 294.75 337.777344 287.085938 337.777344 279.421875 337.777344 C 275.054688 337.777344 275.046875 344.566406 279.421875 344.566406 C 288.214844 344.566406 297.011719 344.566406 305.804688 344.566406 C 307.640625 344.566406 309.199219 343.011719 309.199219 341.171875 C 309.199219 333.597656 309.199219 326.023438 309.199219 318.449219 C 309.199219 306.433594 309.199219 294.417969 309.199219 282.402344 C 309.199219 279.617188 309.199219 276.832031 309.199219 274.046875 C 309.199219 271.625 306.257812 269.613281 304.09375 271.113281 Z M 331.898438 344.566406 C 332.734375 344.566406 333.574219 344.566406 334.410156 344.566406 C 336.183594 344.566406 337.886719 343.003906 337.804688 341.171875 C 337.722656 339.332031 336.3125 337.777344 334.410156 337.777344 C 328.492188 337.777344 328.007812 337.777344 322.089844 337.777344 C 321.253906 337.777344 320.414062 337.777344 319.578125 337.777344 C 317.804688 337.777344 316.101562 339.339844 316.183594 341.171875 C 316.265625 343.011719 317.675781 344.566406 319.578125 344.566406 C 325.496094 344.566406 325.980469 344.566406 331.898438 344.566406 Z M 222.472656 516.925781 C 218.550781 519.742188 215.933594 523.746094 214.828125 528.28125 C 216.523438 521.621094 221.441406 516.382812 227.957031 514.355469 C 226.058594 514.871094 224.222656 515.667969 222.472656 516.925781 Z M 230.910156 671.152344 C 231.621094 671.246094 232.316406 671.296875 233.015625 671.324219 C 230.671875 671.125 228.390625 670.703125 226.257812 669.890625 C 227.742188 670.496094 229.300781 670.933594 230.910156 671.152344 Z M 231.085938 664.238281 C 226.566406 663.261719 223.035156 660.109375 221.628906 655.792969 C 222.476562 658.519531 224.132812 660.925781 226.683594 662.546875 C 228.113281 663.457031 229.578125 663.960938 231.085938 664.238281 Z M 223.402344 525.390625 C 224.929688 523.347656 227.066406 521.796875 229.503906 520.953125 C 228.277344 521.332031 227.089844 521.894531 225.957031 522.746094 C 224.933594 523.511719 224.101562 524.414062 223.402344 525.390625 Z M 223.402344 525.390625 " fill-opacity="1" fill-rule="nonzero"/></g><g clip-path="url(#45fab92a24)"><path fill="#2f72b1" d="M 232.992188 394.652344 C 222.285156 383.296875 211.828125 371.714844 201.574219 359.953125 C 200.035156 358.191406 198.480469 356.445312 196.957031 354.675781 C 193.046875 350.136719 189.171875 345.574219 185.328125 340.980469 C 184.148438 339.570312 183.933594 337.574219 185.328125 336.179688 C 186.542969 334.964844 188.953125 334.773438 190.128906 336.179688 C 194.457031 341.351562 198.824219 346.492188 203.238281 351.59375 C 203.371094 351.75 203.511719 351.902344 203.644531 352.058594 C 205.332031 354.007812 207.050781 355.929688 208.75 357.871094 C 222.695312 373.765625 237.035156 389.308594 251.796875 404.453125 C 254.851562 407.585938 250.050781 412.386719 246.996094 409.253906 C 242.289062 404.425781 237.621094 399.558594 232.992188 394.652344 Z M 192.222656 522.070312 C 178.613281 533.191406 165.003906 544.316406 151.394531 555.4375 C 149.972656 556.597656 150.1875 559.035156 151.394531 560.238281 C 152.796875 561.644531 154.769531 561.402344 156.195312 560.238281 C 169.804688 549.117188 183.414062 537.992188 197.023438 526.871094 C 198.445312 525.710938 198.226562 523.273438 197.023438 522.070312 C 195.617188 520.664062 193.648438 520.90625 192.222656 522.070312 Z M 636.410156 444.730469 C 632.042969 444.730469 632.035156 451.519531 636.410156 451.519531 C 645.875 451.519531 655.339844 451.519531 664.800781 451.519531 C 679.8125 451.519531 694.828125 451.519531 709.839844 451.519531 C 713.289062 451.519531 716.742188 451.519531 720.191406 451.519531 C 724.5625 451.519531 724.570312 444.730469 720.191406 444.730469 C 710.730469 444.730469 701.265625 444.730469 691.804688 444.730469 C 676.789062 444.730469 661.777344 444.730469 646.765625 444.730469 C 643.3125 444.730469 639.863281 444.730469 636.410156 444.730469 Z M 720.191406 469.082031 C 710.730469 469.082031 701.265625 469.082031 691.804688 469.082031 C 676.789062 469.082031 661.777344 469.082031 646.765625 469.082031 C 643.3125 469.082031 639.863281 469.082031 636.410156 469.082031 C 632.042969 469.082031 632.035156 475.871094 636.410156 475.871094 C 645.875 475.871094 655.339844 475.871094 664.800781 475.871094 C 679.8125 475.871094 694.828125 475.871094 709.839844 475.871094 C 713.289062 475.871094 716.742188 475.871094 720.191406 475.871094 C 724.5625 475.871094 724.570312 469.082031 720.191406 469.082031 Z M 695.839844 493.4375 C 689.15625 493.4375 682.476562 493.4375 675.796875 493.4375 C 665.132812 493.4375 654.46875 493.4375 643.808594 493.4375 C 641.34375 493.4375 638.875 493.4375 636.410156 493.4375 C 632.042969 493.4375 632.035156 500.226562 636.410156 500.226562 C 643.09375 500.226562 649.773438 500.226562 656.457031 500.226562 C 667.117188 500.226562 677.78125 500.226562 688.441406 500.226562 C 690.910156 500.226562 693.375 500.226562 695.839844 500.226562 C 700.207031 500.226562 700.214844 493.4375 695.839844 493.4375 Z M 456.8125 532.351562 C 456.800781 532.042969 456.78125 531.734375 456.761719 531.429688 C 456.628906 529.625 456.332031 527.84375 455.65625 526.09375 C 455.417969 525.476562 455.144531 524.886719 454.851562 524.304688 C 454.804688 524.214844 454.757812 524.128906 454.710938 524.039062 C 454.558594 523.746094 454.40625 523.453125 454.238281 523.171875 C 451.660156 518.769531 447.515625 515.582031 442.664062 514.203125 C 442.28125 514.097656 441.898438 514 441.507812 513.914062 C 441.367188 513.882812 441.222656 513.855469 441.078125 513.824219 C 440.53125 513.71875 439.980469 513.632812 439.421875 513.570312 C 439.378906 513.566406 439.339844 513.5625 439.296875 513.558594 C 438.699219 513.496094 438.09375 513.453125 437.480469 513.445312 C 434.433594 513.410156 431.382812 513.445312 428.335938 513.445312 C 420.855469 513.445312 413.375 513.445312 405.894531 513.445312 C 403.167969 513.445312 400.441406 513.445312 397.714844 513.445312 C 390.019531 513.445312 382.328125 513.445312 374.632812 513.445312 C 362.613281 513.445312 350.59375 513.445312 338.570312 513.445312 C 338.015625 513.445312 337.457031 513.445312 336.898438 513.445312 C 325.316406 513.445312 313.734375 513.445312 302.152344 513.445312 C 293.296875 513.445312 284.441406 513.445312 275.585938 513.445312 C 273.621094 513.445312 271.660156 513.445312 269.695312 513.445312 C 261.667969 513.445312 253.636719 513.445312 245.609375 513.445312 C 242.8125 513.445312 240.011719 513.445312 237.214844 513.445312 C 236.132812 513.445312 235.050781 513.441406 233.96875 513.445312 C 231.859375 513.449219 229.839844 513.769531 227.957031 514.355469 C 220.984375 516.527344 215.839844 522.371094 214.515625 529.699219 C 214.421875 530.226562 214.34375 530.757812 214.285156 531.300781 C 214.277344 531.410156 214.273438 531.523438 214.261719 531.636719 C 214.210938 532.226562 214.175781 532.824219 214.175781 533.429688 C 214.167969 534.507812 214.175781 535.585938 214.175781 536.664062 C 214.175781 541.519531 214.175781 546.375 214.175781 551.234375 C 214.175781 562.304688 214.175781 573.375 214.175781 584.449219 C 214.175781 585.460938 214.175781 586.472656 214.175781 587.484375 C 214.175781 598.453125 214.175781 609.421875 214.175781 620.394531 C 214.175781 628.109375 214.175781 635.824219 214.175781 643.539062 C 214.175781 644.496094 214.175781 645.453125 214.175781 646.410156 C 214.175781 648.179688 214.167969 649.949219 214.175781 651.722656 C 214.195312 656.742188 216.023438 661.46875 219.304688 665.074219 C 219.3125 665.082031 219.316406 665.089844 219.324219 665.097656 C 219.785156 665.601562 220.289062 666.070312 220.804688 666.527344 C 221.046875 666.742188 221.300781 666.945312 221.558594 667.152344 C 221.71875 667.28125 221.890625 667.402344 222.058594 667.527344 C 222.398438 667.78125 222.71875 668.054688 223.074219 668.289062 C 224.082031 668.949219 225.152344 669.46875 226.257812 669.890625 C 228.390625 670.703125 230.675781 671.125 233.015625 671.324219 C 237.171875 671.679688 241.496094 671.359375 245.433594 671.359375 C 252.863281 671.359375 260.289062 671.359375 267.71875 671.359375 C 271.671875 671.359375 275.625 671.359375 279.578125 671.359375 C 289.5 671.359375 299.421875 671.359375 309.34375 671.359375 C 310.945312 671.359375 312.546875 671.359375 314.148438 671.359375 C 318.515625 671.359375 318.523438 664.570312 314.148438 664.570312 C 308.351562 664.570312 302.558594 664.570312 296.761719 664.570312 C 293.839844 664.570312 290.917969 664.570312 287.996094 664.570312 C 279.320312 664.570312 270.644531 664.570312 261.972656 664.570312 C 255.757812 664.570312 249.542969 664.570312 243.332031 664.570312 C 240.808594 664.570312 238.285156 664.570312 235.761719 664.570312 C 234.148438 664.570312 232.59375 664.515625 231.089844 664.242188 C 229.578125 663.960938 228.117188 663.457031 226.6875 662.546875 C 224.136719 660.925781 222.476562 658.519531 221.632812 655.796875 C 221.554688 655.546875 221.480469 655.296875 221.417969 655.042969 C 221.378906 654.886719 221.332031 654.730469 221.300781 654.574219 C 221.082031 653.550781 220.964844 652.496094 220.964844 651.425781 C 220.953125 645.683594 220.964844 639.941406 220.964844 634.199219 C 220.964844 626.851562 220.964844 619.5 220.964844 612.152344 C 220.964844 608.722656 220.964844 605.292969 220.964844 601.867188 C 220.964844 589.992188 220.964844 578.117188 220.964844 566.246094 C 220.964844 561.753906 220.964844 557.261719 220.964844 552.769531 C 220.964844 548.410156 220.964844 544.050781 220.964844 539.6875 C 220.964844 538.160156 220.964844 536.632812 220.964844 535.101562 C 220.964844 534.566406 220.964844 534.027344 220.964844 533.488281 C 220.964844 530.535156 221.75 527.714844 223.402344 525.394531 C 224.101562 524.414062 224.9375 523.515625 225.957031 522.746094 C 227.09375 521.894531 228.28125 521.332031 229.503906 520.957031 C 231.382812 520.375 233.347656 520.238281 235.347656 520.21875 C 235.433594 520.21875 235.515625 520.21875 235.597656 520.21875 C 236.675781 520.210938 237.765625 520.234375 238.855469 520.234375 C 244.625 520.234375 250.398438 520.234375 256.171875 520.234375 C 256.707031 520.234375 257.242188 520.234375 257.777344 520.234375 C 267.40625 520.234375 277.035156 520.234375 286.664062 520.234375 C 294.304688 520.234375 301.945312 520.234375 309.589844 520.234375 C 313.441406 520.234375 317.292969 520.234375 321.144531 520.234375 C 333.179688 520.234375 345.214844 520.234375 357.25 520.234375 C 362.042969 520.234375 366.835938 520.234375 371.628906 520.234375 C 378.050781 520.234375 384.472656 520.234375 390.894531 520.234375 C 399.921875 520.234375 408.953125 520.234375 417.984375 520.234375 C 419.085938 520.234375 420.191406 520.234375 421.292969 520.234375 C 425.691406 520.234375 430.089844 520.234375 434.488281 520.234375 C 434.554688 520.234375 434.625 520.234375 434.695312 520.234375 C 435.566406 520.234375 436.441406 520.226562 437.316406 520.234375 C 437.347656 520.234375 437.382812 520.234375 437.414062 520.234375 C 437.886719 520.238281 438.351562 520.277344 438.8125 520.332031 C 438.855469 520.335938 438.894531 520.34375 438.933594 520.347656 C 439.378906 520.40625 439.820312 520.480469 440.253906 520.582031 C 440.308594 520.59375 440.367188 520.605469 440.425781 520.617188 C 440.824219 520.714844 441.21875 520.832031 441.605469 520.96875 C 441.855469 521.054688 442.105469 521.152344 442.347656 521.253906 C 442.429688 521.289062 442.511719 521.320312 442.589844 521.359375 C 445.070312 522.457031 447.160156 524.320312 448.5 526.71875 C 448.996094 527.609375 449.394531 528.574219 449.664062 529.601562 C 450.335938 532.132812 450.074219 534.996094 450.074219 537.597656 C 450.074219 539.914062 450.074219 542.226562 450.074219 544.542969 C 450.074219 547.015625 450.074219 549.492188 450.074219 551.964844 C 450.074219 559.5625 450.074219 567.15625 450.074219 574.75 C 450.074219 578.152344 450.074219 581.554688 450.074219 584.957031 C 450.074219 587.007812 450.074219 589.058594 450.074219 591.109375 C 450.074219 595.476562 456.863281 595.484375 456.863281 591.109375 C 456.863281 583.632812 456.863281 576.15625 456.863281 568.679688 C 456.863281 559.855469 456.863281 551.03125 456.863281 542.207031 C 456.863281 540.328125 456.863281 538.449219 456.863281 536.570312 C 456.863281 535.996094 456.867188 535.429688 456.863281 534.859375 C 456.863281 534.171875 456.855469 533.488281 456.832031 532.804688 C 456.828125 532.652344 456.820312 532.503906 456.8125 532.351562 Z M 644.664062 367.214844 C 645.132812 369.351562 645.605469 371.484375 646.078125 373.621094 C 647.019531 377.882812 653.566406 376.078125 652.625 371.816406 C 649.292969 356.734375 645.964844 341.652344 642.632812 326.570312 C 642.160156 324.4375 641.691406 322.300781 641.21875 320.167969 C 640.785156 318.199219 637.953125 316.84375 636.230469 318.136719 C 627.296875 324.859375 618.363281 331.582031 609.429688 338.304688 C 606.429688 324.902344 603.429688 311.5 600.425781 298.097656 C 599.949219 295.96875 599.472656 293.839844 598.996094 291.707031 C 598.554688 289.742188 595.734375 288.378906 594.007812 289.679688 C 585.136719 296.355469 576.265625 303.03125 567.390625 309.707031 C 564.425781 296.277344 561.460938 282.847656 558.496094 269.417969 C 558.023438 267.285156 557.554688 265.148438 557.082031 263.015625 C 556.859375 261.992188 555.984375 261.148438 554.957031 260.742188 C 554.007812 260.363281 552.921875 260.363281 552.09375 260.984375 C 543.140625 267.722656 534.1875 274.457031 525.234375 281.195312 C 523.960938 282.152344 522.6875 283.113281 521.414062 284.070312 C 519.953125 285.171875 519.195312 287 520.195312 288.714844 C 521.039062 290.15625 523.367188 291.042969 524.84375 289.933594 C 533.765625 283.21875 542.6875 276.503906 551.613281 269.789062 C 554.527344 283.230469 557.445312 296.671875 560.363281 310.113281 C 560.832031 312.273438 561.300781 314.433594 561.769531 316.597656 C 562.195312 318.566406 565.039062 319.917969 566.753906 318.625 C 575.6875 311.902344 584.621094 305.179688 593.554688 298.460938 C 596.558594 311.863281 599.558594 325.261719 602.5625 338.664062 C 603.039062 340.792969 603.515625 342.925781 603.992188 345.054688 C 604.433594 347.019531 607.253906 348.382812 608.980469 347.085938 C 617.910156 340.367188 626.835938 333.648438 635.765625 326.929688 C 638.730469 340.359375 641.699219 353.785156 644.664062 367.214844 Z M 644.664062 367.214844 " fill-opacity="1" fill-rule="nonzero"/></g><path fill="#e06937" d="M 242.496094 447.25 C 234.316406 447.363281 227.097656 453.277344 223.5 460.316406 C 222.601562 462.078125 221.894531 463.914062 221.359375 465.789062 C 215.847656 465.75 210.34375 465.089844 205.007812 463.699219 C 198.875 462.105469 193.242188 459.140625 190.722656 453.042969 C 188.714844 448.171875 188.855469 442.566406 190.625 437.585938 C 195.332031 424.316406 211.980469 420.542969 224.269531 423.875 C 226.035156 424.351562 227.957031 423.273438 228.445312 421.503906 C 228.96875 419.597656 227.796875 417.976562 226.074219 417.324219 C 212.019531 412.03125 195.550781 405.6875 189.226562 390.773438 C 186.648438 384.691406 186.707031 377.753906 189.507812 371.757812 C 192.027344 366.371094 196.261719 362.296875 201.570312 359.953125 C 200.035156 358.191406 198.480469 356.445312 196.953125 354.675781 C 191.972656 357.285156 187.730469 361.144531 184.8125 366.121094 C 180.683594 373.164062 179.425781 381.734375 181.660156 389.613281 C 183.941406 397.65625 189.363281 404.585938 195.878906 409.6875 C 199.449219 412.484375 203.316406 414.769531 207.332031 416.777344 C 198.257812 418.613281 189.957031 423.589844 185.640625 432.117188 C 182.382812 438.546875 181.515625 446.289062 183.621094 453.222656 C 186.050781 461.222656 192.0625 466.523438 199.835938 469.234375 C 206.261719 471.472656 213.289062 472.492188 220.214844 472.597656 C 219.980469 476.964844 220.667969 481.378906 222.296875 485.515625 C 225.78125 494.355469 232.460938 501.4375 240.457031 506.429688 C 244.175781 508.75 247.585938 502.875 243.882812 500.566406 C 234.300781 494.582031 226.082031 484.066406 227 472.40625 C 227.273438 472.386719 227.554688 472.378906 227.824219 472.359375 C 232.582031 471.976562 237.324219 471.191406 241.929688 469.945312 C 246.070312 468.828125 251.105469 467.574219 253.597656 463.746094 C 255.726562 460.46875 255.347656 456.019531 253.308594 452.792969 C 250.964844 449.089844 246.824219 447.191406 242.496094 447.25 Z M 248.105469 459.648438 C 247.207031 461.988281 242.386719 462.789062 240.125 463.398438 C 236.402344 464.40625 232.597656 465.128906 228.757812 465.488281 C 228.710938 465.492188 228.660156 465.492188 228.613281 465.496094 C 230.257812 461.378906 233.042969 457.757812 237.015625 455.59375 C 239.601562 454.183594 243.15625 453.285156 245.902344 454.78125 C 247.632812 455.722656 248.703125 458.09375 248.105469 459.648438 Z M 208.75 357.871094 C 207.050781 355.929688 205.332031 354.007812 203.644531 352.058594 C 203.910156 351.988281 204.160156 351.894531 204.425781 351.828125 C 212.988281 349.746094 221.878906 350.488281 230.542969 351.382812 C 232.375 351.574219 233.9375 352.785156 233.9375 354.777344 C 233.9375 356.476562 232.367188 358.363281 230.542969 358.171875 C 223.382812 357.433594 215.910156 356.65625 208.75 357.871094 Z M 611.773438 518.085938 C 609.726562 518.085938 607.675781 518.085938 605.628906 518.085938 C 591.308594 518.085938 576.988281 518.085938 562.667969 518.085938 C 559.578125 518.085938 558.394531 514.449219 560.265625 512.289062 C 566.496094 505.113281 572.628906 497.855469 578.660156 490.511719 C 583.503906 484.613281 588.945312 478.773438 592.6875 472.078125 C 595.683594 466.710938 596.671875 460.324219 591.964844 455.621094 C 587.683594 451.339844 580.964844 450.429688 575.472656 452.789062 C 569.632812 455.296875 566.074219 461.277344 566.152344 467.546875 C 566.207031 471.925781 559.414062 471.910156 559.363281 467.546875 C 559.246094 458.117188 565.046875 449.53125 573.847656 446.167969 C 581.480469 443.253906 590.457031 444.855469 596.417969 450.480469 C 599.199219 453.105469 601.242188 456.648438 601.839844 460.441406 C 602.53125 464.800781 601.617188 468.964844 599.832031 472.953125 C 598.097656 476.839844 595.542969 480.273438 592.929688 483.601562 C 589.96875 487.378906 586.921875 491.089844 583.878906 494.800781 C 579.328125 500.351562 574.695312 505.839844 570.027344 511.296875 C 583.941406 511.296875 597.859375 511.296875 611.773438 511.296875 C 616.148438 511.296875 616.140625 518.085938 611.773438 518.085938 Z M 400.601562 568.636719 C 397.148438 568.636719 393.699219 568.636719 390.246094 568.636719 C 375.234375 568.636719 360.222656 568.636719 345.207031 568.636719 C 335.746094 568.636719 326.28125 568.636719 316.820312 568.636719 C 312.441406 568.636719 312.449219 561.847656 316.820312 561.847656 C 320.269531 561.847656 323.722656 561.847656 327.171875 561.847656 C 342.183594 561.847656 357.199219 561.847656 372.210938 561.847656 C 381.671875 561.847656 391.136719 561.847656 400.601562 561.847656 C 404.976562 561.847656 404.96875 568.636719 400.601562 568.636719 Z M 400.601562 592.992188 C 397.148438 592.992188 393.699219 592.992188 390.246094 592.992188 C 375.234375 592.992188 360.222656 592.992188 345.207031 592.992188 C 335.746094 592.992188 326.28125 592.992188 316.820312 592.992188 C 312.441406 592.992188 312.449219 586.203125 316.820312 586.203125 C 320.269531 586.203125 323.722656 586.203125 327.171875 586.203125 C 342.183594 586.203125 357.199219 586.203125 372.210938 586.203125 C 381.671875 586.203125 391.136719 586.203125 400.601562 586.203125 C 404.976562 586.203125 404.96875 592.992188 400.601562 592.992188 Z M 364.070312 617.34375 C 362.117188 617.34375 360.164062 617.34375 358.210938 617.34375 C 344.414062 617.34375 330.617188 617.34375 316.820312 617.34375 C 312.441406 617.34375 312.449219 610.554688 316.820312 610.554688 C 318.773438 610.554688 320.726562 610.554688 322.679688 610.554688 C 336.476562 610.554688 350.273438 610.554688 364.070312 610.554688 C 368.445312 610.554688 368.4375 617.34375 364.070312 617.34375 Z M 364.070312 617.34375 " fill-opacity="1" fill-rule="nonzero"/></svg>