<svg xmlns="http://www.w3.org/2000/svg" xmlns:xlink="http://www.w3.org/1999/xlink" width="1200" zoomAndPan="magnify" viewBox="0 0 900 899.99999" height="1200" preserveAspectRatio="xMidYMid meet" version="1.0"><defs><clipPath id="dc88ffeed5"><path d="M 90 90 L 814.914062 90 L 814.914062 816.128906 L 90 816.128906 Z M 90 90 " clip-rule="nonzero"/></clipPath><clipPath id="50272d2b10"><path d="M 114.75 90 L 790.164062 90 C 803.832031 90 814.914062 101.082031 814.914062 114.75 L 814.914062 791.378906 C 814.914062 805.046875 803.832031 816.128906 790.164062 816.128906 L 114.75 816.128906 C 101.082031 816.128906 90 805.046875 90 791.378906 L 90 114.75 C 90 101.082031 101.082031 90 114.75 90 Z M 114.75 90 " clip-rule="nonzero"/></clipPath><linearGradient x1="-0.0000013243" gradientTransform="matrix(2.83169, 0, 0, 2.836439, 90.000004, 90.000019)" y1="0" x2="255.999992" gradientUnits="userSpaceOnUse" y2="0" id="5a698fefcc"><stop stop-opacity="1" stop-color="rgb(30.198669%, 19.599915%, 57.998657%)" offset="0"/><stop stop-opacity="1" stop-color="rgb(30.206299%, 19.696045%, 58.161926%)" offset="0.0078125"/><stop stop-opacity="1" stop-color="rgb(30.223083%, 19.888306%, 58.48999%)" offset="0.015625"/><stop stop-opacity="1" stop-color="rgb(30.238342%, 20.080566%, 58.818054%)" offset="0.0234375"/><stop stop-opacity="1" stop-color="rgb(30.253601%, 20.274353%, 59.147644%)" offset="0.03125"/><stop stop-opacity="1" stop-color="rgb(30.26886%, 20.466614%, 59.475708%)" offset="0.0390625"/><stop stop-opacity="1" stop-color="rgb(30.285645%, 20.6604%, 59.803772%)" offset="0.046875"/><stop stop-opacity="1" stop-color="rgb(30.300903%, 20.852661%, 60.131836%)" offset="0.0546875"/><stop stop-opacity="1" stop-color="rgb(30.316162%, 21.046448%, 60.4599%)" offset="0.0625"/><stop stop-opacity="1" stop-color="rgb(30.331421%, 21.238708%, 60.787964%)" offset="0.0703125"/><stop stop-opacity="1" stop-color="rgb(30.348206%, 21.432495%, 61.116028%)" offset="0.078125"/><stop stop-opacity="1" stop-color="rgb(30.363464%, 21.624756%, 61.444092%)" offset="0.0859375"/><stop stop-opacity="1" stop-color="rgb(30.378723%, 21.818542%, 61.772156%)" offset="0.09375"/><stop stop-opacity="1" stop-color="rgb(30.393982%, 22.010803%, 62.10022%)" offset="0.101562"/><stop stop-opacity="1" stop-color="rgb(30.409241%, 22.20459%, 62.428284%)" offset="0.109375"/><stop stop-opacity="1" stop-color="rgb(30.426025%, 22.396851%, 62.756348%)" offset="0.117187"/><stop stop-opacity="1" stop-color="rgb(30.441284%, 22.590637%, 63.084412%)" offset="0.125"/><stop stop-opacity="1" stop-color="rgb(30.456543%, 22.782898%, 63.412476%)" offset="0.132812"/><stop stop-opacity="1" stop-color="rgb(30.471802%, 22.975159%, 63.74054%)" offset="0.140625"/><stop stop-opacity="1" stop-color="rgb(30.488586%, 23.168945%, 64.068604%)" offset="0.148437"/><stop stop-opacity="1" stop-color="rgb(30.503845%, 23.361206%, 64.396667%)" offset="0.15625"/><stop stop-opacity="1" stop-color="rgb(30.519104%, 23.554993%, 64.724731%)" offset="0.164062"/><stop stop-opacity="1" stop-color="rgb(30.534363%, 23.747253%, 65.052795%)" offset="0.171875"/><stop stop-opacity="1" stop-color="rgb(30.551147%, 23.94104%, 65.380859%)" offset="0.179687"/><stop stop-opacity="1" stop-color="rgb(30.566406%, 24.133301%, 65.708923%)" offset="0.1875"/><stop stop-opacity="1" stop-color="rgb(30.581665%, 24.327087%, 66.036987%)" offset="0.195312"/><stop stop-opacity="1" stop-color="rgb(30.596924%, 24.519348%, 66.365051%)" offset="0.203125"/><stop stop-opacity="1" stop-color="rgb(30.613708%, 24.713135%, 66.693115%)" offset="0.210937"/><stop stop-opacity="1" stop-color="rgb(30.628967%, 24.905396%, 67.021179%)" offset="0.21875"/><stop stop-opacity="1" stop-color="rgb(30.644226%, 25.099182%, 67.350769%)" offset="0.226562"/><stop stop-opacity="1" stop-color="rgb(30.659485%, 25.291443%, 67.678833%)" offset="0.234375"/><stop stop-opacity="1" stop-color="rgb(30.67627%, 25.483704%, 68.006897%)" offset="0.242187"/><stop stop-opacity="1" stop-color="rgb(30.691528%, 25.67749%, 68.334961%)" offset="0.25"/><stop stop-opacity="1" stop-color="rgb(30.706787%, 25.869751%, 68.663025%)" offset="0.257812"/><stop stop-opacity="1" stop-color="rgb(30.722046%, 26.063538%, 68.991089%)" offset="0.265625"/><stop stop-opacity="1" stop-color="rgb(30.738831%, 26.255798%, 69.319153%)" offset="0.273438"/><stop stop-opacity="1" stop-color="rgb(30.754089%, 26.449585%, 69.647217%)" offset="0.28125"/><stop stop-opacity="1" stop-color="rgb(30.769348%, 26.641846%, 69.975281%)" offset="0.289062"/><stop stop-opacity="1" stop-color="rgb(30.784607%, 26.835632%, 70.303345%)" offset="0.296875"/><stop stop-opacity="1" stop-color="rgb(30.799866%, 27.027893%, 70.631409%)" offset="0.304688"/><stop stop-opacity="1" stop-color="rgb(30.81665%, 27.22168%, 70.959473%)" offset="0.3125"/><stop stop-opacity="1" stop-color="rgb(30.831909%, 27.41394%, 71.287537%)" offset="0.320312"/><stop stop-opacity="1" stop-color="rgb(30.847168%, 27.607727%, 71.615601%)" offset="0.328125"/><stop stop-opacity="1" stop-color="rgb(30.862427%, 27.799988%, 71.943665%)" offset="0.335938"/><stop stop-opacity="1" stop-color="rgb(30.879211%, 27.993774%, 72.271729%)" offset="0.34375"/><stop stop-opacity="1" stop-color="rgb(30.89447%, 28.186035%, 72.599792%)" offset="0.351562"/><stop stop-opacity="1" stop-color="rgb(30.909729%, 28.378296%, 72.927856%)" offset="0.359375"/><stop stop-opacity="1" stop-color="rgb(30.924988%, 28.572083%, 73.25592%)" offset="0.367188"/><stop stop-opacity="1" stop-color="rgb(30.941772%, 28.764343%, 73.583984%)" offset="0.375"/><stop stop-opacity="1" stop-color="rgb(30.957031%, 28.95813%, 73.912048%)" offset="0.382812"/><stop stop-opacity="1" stop-color="rgb(30.97229%, 29.150391%, 74.240112%)" offset="0.390625"/><stop stop-opacity="1" stop-color="rgb(30.987549%, 29.344177%, 74.568176%)" offset="0.398438"/><stop stop-opacity="1" stop-color="rgb(31.004333%, 29.536438%, 74.89624%)" offset="0.40625"/><stop stop-opacity="1" stop-color="rgb(31.019592%, 29.730225%, 75.224304%)" offset="0.414062"/><stop stop-opacity="1" stop-color="rgb(31.034851%, 29.922485%, 75.553894%)" offset="0.421875"/><stop stop-opacity="1" stop-color="rgb(31.05011%, 30.116272%, 75.881958%)" offset="0.429688"/><stop stop-opacity="1" stop-color="rgb(31.066895%, 30.308533%, 76.210022%)" offset="0.4375"/><stop stop-opacity="1" stop-color="rgb(31.082153%, 30.502319%, 76.538086%)" offset="0.445312"/><stop stop-opacity="1" stop-color="rgb(31.097412%, 30.69458%, 76.86615%)" offset="0.453125"/><stop stop-opacity="1" stop-color="rgb(31.112671%, 30.886841%, 77.194214%)" offset="0.460937"/><stop stop-opacity="1" stop-color="rgb(31.129456%, 31.080627%, 77.522278%)" offset="0.46875"/><stop stop-opacity="1" stop-color="rgb(31.144714%, 31.272888%, 77.850342%)" offset="0.476562"/><stop stop-opacity="1" stop-color="rgb(31.159973%, 31.466675%, 78.178406%)" offset="0.484375"/><stop stop-opacity="1" stop-color="rgb(31.175232%, 31.658936%, 78.50647%)" offset="0.492187"/><stop stop-opacity="1" stop-color="rgb(31.190491%, 31.852722%, 78.834534%)" offset="0.5"/><stop stop-opacity="1" stop-color="rgb(31.207275%, 32.044983%, 79.162598%)" offset="0.507812"/><stop stop-opacity="1" stop-color="rgb(31.222534%, 32.23877%, 79.490662%)" offset="0.515625"/><stop stop-opacity="1" stop-color="rgb(31.237793%, 32.43103%, 79.818726%)" offset="0.523437"/><stop stop-opacity="1" stop-color="rgb(31.253052%, 32.624817%, 80.14679%)" offset="0.53125"/><stop stop-opacity="1" stop-color="rgb(31.269836%, 32.817078%, 80.474854%)" offset="0.539062"/><stop stop-opacity="1" stop-color="rgb(31.285095%, 33.010864%, 80.802917%)" offset="0.546875"/><stop stop-opacity="1" stop-color="rgb(31.300354%, 33.203125%, 81.130981%)" offset="0.554688"/><stop stop-opacity="1" stop-color="rgb(31.315613%, 33.395386%, 81.459045%)" offset="0.5625"/><stop stop-opacity="1" stop-color="rgb(31.332397%, 33.589172%, 81.787109%)" offset="0.570312"/><stop stop-opacity="1" stop-color="rgb(31.347656%, 33.781433%, 82.115173%)" offset="0.578125"/><stop stop-opacity="1" stop-color="rgb(31.362915%, 33.97522%, 82.443237%)" offset="0.585938"/><stop stop-opacity="1" stop-color="rgb(31.378174%, 34.16748%, 82.771301%)" offset="0.59375"/><stop stop-opacity="1" stop-color="rgb(31.394958%, 34.361267%, 83.099365%)" offset="0.601563"/><stop stop-opacity="1" stop-color="rgb(31.410217%, 34.553528%, 83.427429%)" offset="0.609375"/><stop stop-opacity="1" stop-color="rgb(31.425476%, 34.747314%, 83.757019%)" offset="0.617187"/><stop stop-opacity="1" stop-color="rgb(31.440735%, 34.939575%, 84.085083%)" offset="0.625"/><stop stop-opacity="1" stop-color="rgb(31.45752%, 35.133362%, 84.413147%)" offset="0.632812"/><stop stop-opacity="1" stop-color="rgb(31.472778%, 35.325623%, 84.741211%)" offset="0.640625"/><stop stop-opacity="1" stop-color="rgb(31.488037%, 35.519409%, 85.069275%)" offset="0.648437"/><stop stop-opacity="1" stop-color="rgb(31.503296%, 35.71167%, 85.397339%)" offset="0.65625"/><stop stop-opacity="1" stop-color="rgb(31.520081%, 35.905457%, 85.725403%)" offset="0.664062"/><stop stop-opacity="1" stop-color="rgb(31.535339%, 36.097717%, 86.053467%)" offset="0.671875"/><stop stop-opacity="1" stop-color="rgb(31.550598%, 36.289978%, 86.381531%)" offset="0.679688"/><stop stop-opacity="1" stop-color="rgb(31.565857%, 36.483765%, 86.709595%)" offset="0.6875"/><stop stop-opacity="1" stop-color="rgb(31.581116%, 36.676025%, 87.037659%)" offset="0.695312"/><stop stop-opacity="1" stop-color="rgb(31.5979%, 36.869812%, 87.365723%)" offset="0.703125"/><stop stop-opacity="1" stop-color="rgb(31.613159%, 37.062073%, 87.693787%)" offset="0.710938"/><stop stop-opacity="1" stop-color="rgb(31.628418%, 37.255859%, 88.021851%)" offset="0.71875"/><stop stop-opacity="1" stop-color="rgb(31.643677%, 37.44812%, 88.349915%)" offset="0.726562"/><stop stop-opacity="1" stop-color="rgb(31.660461%, 37.641907%, 88.677979%)" offset="0.734375"/><stop stop-opacity="1" stop-color="rgb(31.67572%, 37.834167%, 89.006042%)" offset="0.742187"/><stop stop-opacity="1" stop-color="rgb(31.690979%, 38.027954%, 89.334106%)" offset="0.75"/><stop stop-opacity="1" stop-color="rgb(31.706238%, 38.220215%, 89.66217%)" offset="0.757812"/><stop stop-opacity="1" stop-color="rgb(31.723022%, 38.414001%, 89.990234%)" offset="0.765625"/><stop stop-opacity="1" stop-color="rgb(31.738281%, 38.606262%, 90.318298%)" offset="0.773437"/><stop stop-opacity="1" stop-color="rgb(31.75354%, 38.798523%, 90.646362%)" offset="0.78125"/><stop stop-opacity="1" stop-color="rgb(31.768799%, 38.99231%, 90.974426%)" offset="0.789062"/><stop stop-opacity="1" stop-color="rgb(31.785583%, 39.18457%, 91.30249%)" offset="0.796875"/><stop stop-opacity="1" stop-color="rgb(31.800842%, 39.378357%, 91.630554%)" offset="0.804688"/><stop stop-opacity="1" stop-color="rgb(31.816101%, 39.570618%, 91.960144%)" offset="0.8125"/><stop stop-opacity="1" stop-color="rgb(31.83136%, 39.764404%, 92.288208%)" offset="0.820312"/><stop stop-opacity="1" stop-color="rgb(31.848145%, 39.956665%, 92.616272%)" offset="0.828125"/><stop stop-opacity="1" stop-color="rgb(31.863403%, 40.150452%, 92.944336%)" offset="0.835937"/><stop stop-opacity="1" stop-color="rgb(31.878662%, 40.342712%, 93.2724%)" offset="0.84375"/><stop stop-opacity="1" stop-color="rgb(31.893921%, 40.536499%, 93.600464%)" offset="0.851562"/><stop stop-opacity="1" stop-color="rgb(31.910706%, 40.72876%, 93.928528%)" offset="0.859375"/><stop stop-opacity="1" stop-color="rgb(31.925964%, 40.922546%, 94.256592%)" offset="0.867187"/><stop stop-opacity="1" stop-color="rgb(31.941223%, 41.114807%, 94.584656%)" offset="0.875"/><stop stop-opacity="1" stop-color="rgb(31.956482%, 41.308594%, 94.91272%)" offset="0.882812"/><stop stop-opacity="1" stop-color="rgb(31.971741%, 41.500854%, 95.240784%)" offset="0.890625"/><stop stop-opacity="1" stop-color="rgb(31.988525%, 41.693115%, 95.568848%)" offset="0.898438"/><stop stop-opacity="1" stop-color="rgb(32.003784%, 41.886902%, 95.896912%)" offset="0.90625"/><stop stop-opacity="1" stop-color="rgb(32.019043%, 42.079163%, 96.224976%)" offset="0.914062"/><stop stop-opacity="1" stop-color="rgb(32.034302%, 42.272949%, 96.55304%)" offset="0.921875"/><stop stop-opacity="1" stop-color="rgb(32.051086%, 42.46521%, 96.881104%)" offset="0.929688"/><stop stop-opacity="1" stop-color="rgb(32.066345%, 42.658997%, 97.209167%)" offset="0.9375"/><stop stop-opacity="1" stop-color="rgb(32.081604%, 42.851257%, 97.537231%)" offset="0.945312"/><stop stop-opacity="1" stop-color="rgb(32.096863%, 43.045044%, 97.865295%)" offset="0.953125"/><stop stop-opacity="1" stop-color="rgb(32.113647%, 43.237305%, 98.193359%)" offset="0.960937"/><stop stop-opacity="1" stop-color="rgb(32.128906%, 43.431091%, 98.521423%)" offset="0.96875"/><stop stop-opacity="1" stop-color="rgb(32.144165%, 43.623352%, 98.849487%)" offset="0.976562"/><stop stop-opacity="1" stop-color="rgb(32.159424%, 43.817139%, 99.177551%)" offset="0.984375"/><stop stop-opacity="1" stop-color="rgb(32.176208%, 44.009399%, 99.505615%)" offset="0.992188"/><stop stop-opacity="1" stop-color="rgb(32.191467%, 44.20166%, 99.833679%)" offset="1"/></linearGradient><clipPath id="739e327a82"><path d="M 308.546875 292.371094 L 605.707031 292.371094 L 605.707031 589.6875 L 308.546875 589.6875 Z M 308.546875 292.371094 " clip-rule="nonzero"/></clipPath><clipPath id="cd4a482b0e"><path d="M 298.957031 341 L 329 341 L 329 420 L 298.957031 420 Z M 298.957031 341 " clip-rule="nonzero"/></clipPath><clipPath id="5d97c589a5"><path d="M 298.957031 462 L 329 462 L 329 541 L 298.957031 541 Z M 298.957031 462 " clip-rule="nonzero"/></clipPath><clipPath id="1a335ae207"><path d="M 337.320312 579.222656 L 414 579.222656 L 414 613.785156 L 337.320312 613.785156 Z M 337.320312 579.222656 " clip-rule="nonzero"/></clipPath><clipPath id="1af1ce0b27"><path d="M 491 579.222656 L 567.503906 579.222656 L 567.503906 613.785156 L 491 613.785156 Z M 491 579.222656 " clip-rule="nonzero"/></clipPath></defs><g clip-path="url(#dc88ffeed5)"><g clip-path="url(#50272d2b10)"><path fill="url(#5a698fefcc)" d="M 90 90 L 90 816.128906 L 814.914062 816.128906 L 814.914062 90 Z M 90 90 " fill-rule="nonzero"/></g></g><path fill="#ffffff" d="M 457.300781 351.734375 C 482.929688 351.734375 506.160156 361.699219 523.003906 377.816406 C 539.90625 393.988281 550.359375 416.320312 550.359375 440.988281 C 550.359375 465.652344 539.90625 487.988281 523.003906 504.160156 C 506.160156 520.277344 482.929688 530.246094 457.300781 530.246094 C 431.667969 530.246094 408.4375 520.277344 391.59375 504.160156 C 374.691406 487.988281 364.238281 465.652344 364.238281 440.988281 C 364.238281 416.320312 374.691406 393.988281 391.59375 377.816406 C 408.4375 361.699219 431.667969 351.734375 457.300781 351.734375 Z M 516.097656 385.035156 C 501.078125 370.667969 480.292969 361.777344 457.300781 361.777344 C 434.304688 361.777344 413.519531 370.667969 398.496094 385.035156 C 383.539062 399.351562 374.28125 419.132812 374.28125 440.988281 C 374.28125 462.84375 383.539062 482.628906 398.496094 496.941406 C 413.519531 511.3125 434.304688 520.199219 457.300781 520.199219 C 480.292969 520.199219 501.078125 511.3125 516.097656 496.941406 C 531.058594 482.628906 540.3125 462.84375 540.3125 440.988281 C 540.3125 419.132812 531.058594 399.351562 516.097656 385.035156 " fill-opacity="1" fill-rule="nonzero"/><path fill="#ffffff" d="M 457.300781 393.335938 C 470.917969 393.335938 483.28125 398.648438 492.257812 407.234375 C 501.289062 415.875 506.875 427.8125 506.875 440.988281 C 506.875 454.164062 501.289062 466.097656 492.257812 474.738281 C 483.28125 483.328125 470.917969 488.640625 457.300781 488.640625 C 443.679688 488.640625 431.316406 483.328125 422.339844 474.738281 C 413.308594 466.097656 407.722656 454.164062 407.722656 440.988281 C 407.722656 427.8125 413.308594 415.875 422.339844 407.234375 C 431.316406 398.648438 443.679688 393.335938 457.300781 393.335938 Z M 485.347656 414.457031 C 478.199219 407.613281 468.28125 403.378906 457.300781 403.378906 C 446.3125 403.378906 436.398438 407.613281 429.25 414.457031 C 422.152344 421.238281 417.765625 430.625 417.765625 440.988281 C 417.765625 451.355469 422.152344 460.738281 429.25 467.523438 C 436.398438 474.363281 446.3125 478.59375 457.300781 478.59375 C 468.28125 478.59375 478.199219 474.363281 485.347656 467.523438 C 492.445312 460.738281 496.832031 451.355469 496.832031 440.988281 C 496.832031 430.625 492.445312 421.238281 485.347656 414.457031 " fill-opacity="1" fill-rule="nonzero"/><g clip-path="url(#739e327a82)"><path fill="#ffffff" d="M 330.796875 292.371094 L 583.800781 292.371094 C 589.890625 292.371094 595.421875 294.855469 599.425781 298.859375 C 603.429688 302.871094 605.917969 308.402344 605.917969 314.488281 L 605.917969 567.492188 C 605.917969 573.578125 603.429688 579.109375 599.425781 583.113281 C 595.421875 587.121094 589.890625 589.609375 583.800781 589.609375 L 330.796875 589.609375 C 324.707031 589.609375 319.175781 587.121094 315.171875 583.113281 C 311.167969 579.109375 308.679688 573.578125 308.679688 567.492188 L 308.679688 530.683594 L 318.402344 530.683594 L 318.402344 472.347656 L 308.679688 472.347656 L 308.679688 409.628906 L 318.402344 409.628906 L 318.402344 351.292969 L 308.679688 351.292969 L 308.679688 314.488281 C 308.679688 308.402344 311.167969 302.871094 315.171875 298.859375 C 319.175781 294.855469 324.707031 292.371094 330.796875 292.371094 Z M 583.800781 302.414062 L 330.796875 302.414062 C 327.480469 302.414062 324.464844 303.773438 322.273438 305.964844 C 320.082031 308.15625 318.726562 311.171875 318.726562 314.488281 L 318.726562 341.25 L 321.386719 341.25 C 323.320312 341.25 325.078125 342.042969 326.355469 343.320312 L 326.378906 343.339844 C 327.65625 344.613281 328.445312 346.375 328.445312 348.308594 L 328.445312 412.613281 C 328.445312 414.539062 327.65625 416.296875 326.378906 417.585938 L 326.367188 417.59375 L 326.355469 417.605469 C 325.070312 418.882812 323.308594 419.671875 321.386719 419.671875 L 318.726562 419.671875 L 318.726562 462.304688 L 321.386719 462.304688 C 323.320312 462.304688 325.078125 463.09375 326.355469 464.371094 L 326.378906 464.390625 C 327.65625 465.667969 328.445312 467.425781 328.445312 469.363281 L 328.445312 533.667969 C 328.445312 535.59375 327.65625 537.351562 326.378906 538.636719 L 326.355469 538.65625 C 325.070312 539.933594 323.308594 540.726562 321.386719 540.726562 L 318.726562 540.726562 L 318.726562 567.492188 C 318.726562 570.804688 320.082031 573.824219 322.273438 576.011719 C 324.464844 578.203125 327.480469 579.566406 330.796875 579.566406 L 583.800781 579.566406 C 587.113281 579.566406 590.132812 578.203125 592.324219 576.011719 C 594.515625 573.824219 595.875 570.804688 595.875 567.492188 L 595.875 314.488281 C 595.875 311.171875 594.515625 308.15625 592.324219 305.964844 C 590.132812 303.773438 587.113281 302.414062 583.800781 302.414062 " fill-opacity="1" fill-rule="nonzero"/></g><g clip-path="url(#cd4a482b0e)"><path fill="#ffffff" d="M 306.015625 341.25 L 321.386719 341.25 C 323.320312 341.25 325.078125 342.042969 326.355469 343.320312 L 326.378906 343.339844 C 327.65625 344.613281 328.445312 346.375 328.445312 348.308594 L 328.445312 412.613281 C 328.445312 414.5625 327.65625 416.328125 326.378906 417.605469 L 326.367188 417.59375 C 325.078125 418.875 323.316406 419.671875 321.386719 419.671875 L 306.015625 419.671875 C 304.085938 419.671875 302.324219 418.875 301.039062 417.59375 L 301.027344 417.605469 C 299.75 416.328125 298.957031 414.5625 298.957031 412.613281 L 298.957031 348.308594 C 298.957031 346.375 299.75 344.613281 301.027344 343.339844 L 301.042969 343.320312 C 302.320312 342.042969 304.082031 341.25 306.015625 341.25 Z M 318.402344 351.292969 L 309 351.292969 L 309 409.628906 L 318.402344 409.628906 L 318.402344 351.292969 " fill-opacity="1" fill-rule="nonzero"/></g><g clip-path="url(#5d97c589a5)"><path fill="#ffffff" d="M 306.015625 462.304688 L 321.386719 462.304688 C 323.320312 462.304688 325.078125 463.09375 326.355469 464.371094 L 326.378906 464.390625 C 327.65625 465.667969 328.445312 467.425781 328.445312 469.363281 L 328.445312 533.667969 C 328.445312 535.617188 327.65625 537.378906 326.378906 538.65625 L 326.367188 538.648438 C 325.078125 539.929688 323.316406 540.726562 321.386719 540.726562 L 306.015625 540.726562 C 304.085938 540.726562 302.324219 539.929688 301.039062 538.648438 L 301.027344 538.65625 C 299.75 537.378906 298.957031 535.617188 298.957031 533.667969 L 298.957031 469.363281 C 298.957031 467.425781 299.75 465.667969 301.027344 464.390625 L 301.042969 464.371094 C 302.320312 463.09375 304.082031 462.304688 306.015625 462.304688 Z M 318.402344 472.347656 L 309 472.347656 L 309 530.683594 L 318.402344 530.683594 L 318.402344 472.347656 " fill-opacity="1" fill-rule="nonzero"/></g><path fill="#ffffff" d="M 462.320312 356.753906 C 462.320312 353.980469 460.070312 351.734375 457.300781 351.734375 C 454.527344 351.734375 452.273438 353.980469 452.273438 356.753906 L 452.273438 377.847656 C 452.273438 380.617188 454.527344 382.867188 457.300781 382.867188 C 460.070312 382.867188 462.320312 380.617188 462.320312 377.847656 L 462.320312 356.753906 " fill-opacity="1" fill-rule="nonzero"/><path fill="#ffffff" d="M 503.75 370.550781 C 505.136719 368.15625 504.320312 365.089844 501.925781 363.703125 C 499.53125 362.320312 496.464844 363.132812 495.082031 365.527344 L 484.535156 383.792969 C 483.148438 386.1875 483.964844 389.253906 486.359375 390.640625 C 488.753906 392.027344 491.816406 391.210938 493.207031 388.816406 L 503.75 370.550781 " fill-opacity="1" fill-rule="nonzero"/><path fill="#ffffff" d="M 532.757812 403.207031 C 535.152344 401.820312 535.972656 398.753906 534.582031 396.359375 C 533.195312 393.964844 530.128906 393.148438 527.734375 394.535156 L 509.46875 405.082031 C 507.074219 406.46875 506.261719 409.535156 507.648438 411.929688 C 509.035156 414.324219 512.097656 415.140625 514.492188 413.753906 L 532.757812 403.207031 " fill-opacity="1" fill-rule="nonzero"/><path fill="#ffffff" d="M 541.53125 446.011719 C 544.304688 446.011719 546.554688 443.761719 546.554688 440.988281 C 546.554688 438.214844 544.304688 435.96875 541.53125 435.96875 L 520.441406 435.96875 C 517.667969 435.96875 515.421875 438.214844 515.421875 440.988281 C 515.421875 443.761719 517.667969 446.011719 520.441406 446.011719 L 541.53125 446.011719 " fill-opacity="1" fill-rule="nonzero"/><path fill="#ffffff" d="M 527.734375 487.441406 C 530.128906 488.824219 533.195312 488.011719 534.582031 485.617188 C 535.972656 483.222656 535.152344 480.160156 532.757812 478.769531 L 514.492188 468.222656 C 512.097656 466.835938 509.035156 467.65625 507.648438 470.050781 C 506.261719 472.445312 507.074219 475.507812 509.46875 476.894531 L 527.734375 487.441406 " fill-opacity="1" fill-rule="nonzero"/><path fill="#ffffff" d="M 495.082031 516.449219 C 496.464844 518.84375 499.53125 519.660156 501.925781 518.273438 C 504.320312 516.886719 505.136719 513.820312 503.75 511.425781 L 493.203125 493.160156 C 491.816406 490.765625 488.753906 489.949219 486.359375 491.335938 C 483.964844 492.722656 483.148438 495.789062 484.535156 498.183594 L 495.082031 516.449219 " fill-opacity="1" fill-rule="nonzero"/><path fill="#ffffff" d="M 452.273438 525.222656 C 452.273438 527.996094 454.527344 530.246094 457.300781 530.246094 C 460.070312 530.246094 462.320312 527.996094 462.320312 525.222656 L 462.320312 504.132812 C 462.320312 501.359375 460.070312 499.109375 457.300781 499.109375 C 454.527344 499.109375 452.273438 501.359375 452.273438 504.132812 L 452.273438 525.222656 " fill-opacity="1" fill-rule="nonzero"/><path fill="#ffffff" d="M 410.847656 511.425781 C 409.457031 513.820312 410.273438 516.886719 412.671875 518.273438 C 415.0625 519.660156 418.132812 518.84375 419.519531 516.449219 L 430.0625 498.183594 C 431.449219 495.789062 430.632812 492.722656 428.238281 491.335938 C 425.84375 489.949219 422.777344 490.765625 421.390625 493.160156 L 410.847656 511.425781 " fill-opacity="1" fill-rule="nonzero"/><path fill="#ffffff" d="M 381.839844 478.769531 C 379.445312 480.160156 378.628906 483.222656 380.011719 485.617188 C 381.398438 488.011719 384.464844 488.824219 386.859375 487.441406 L 405.125 476.894531 C 407.519531 475.507812 408.335938 472.445312 406.949219 470.050781 C 405.5625 467.65625 402.5 466.835938 400.105469 468.222656 L 381.839844 478.769531 " fill-opacity="1" fill-rule="nonzero"/><path fill="#ffffff" d="M 373.066406 435.96875 C 370.289062 435.96875 368.042969 438.214844 368.042969 440.988281 C 368.042969 443.761719 370.289062 446.011719 373.066406 446.011719 L 394.152344 446.011719 C 396.929688 446.011719 399.179688 443.761719 399.179688 440.988281 C 399.179688 438.214844 396.929688 435.96875 394.152344 435.96875 L 373.066406 435.96875 " fill-opacity="1" fill-rule="nonzero"/><path fill="#ffffff" d="M 386.859375 394.535156 C 384.46875 393.148438 381.398438 393.964844 380.011719 396.359375 C 378.628906 398.753906 379.445312 401.820312 381.839844 403.207031 L 400.105469 413.753906 C 402.5 415.140625 405.5625 414.324219 406.949219 411.929688 C 408.335938 409.535156 407.519531 406.46875 405.125 405.082031 L 386.859375 394.535156 " fill-opacity="1" fill-rule="nonzero"/><path fill="#ffffff" d="M 419.519531 365.527344 C 418.132812 363.132812 415.0625 362.320312 412.671875 363.703125 C 410.277344 365.089844 409.460938 368.15625 410.847656 370.550781 L 421.390625 388.816406 C 422.777344 391.210938 425.84375 392.027344 428.238281 390.640625 C 430.632812 389.253906 431.449219 386.1875 430.0625 383.792969 L 419.519531 365.527344 " fill-opacity="1" fill-rule="nonzero"/><path fill="#ffffff" d="M 462.320312 398.910156 C 462.320312 396.140625 460.070312 393.890625 457.300781 393.890625 C 454.527344 393.890625 452.273438 396.140625 452.273438 398.910156 L 452.273438 409.445312 C 452.273438 412.222656 454.527344 414.46875 457.300781 414.46875 C 460.070312 414.46875 462.320312 412.222656 462.320312 409.445312 L 462.320312 398.910156 " fill-opacity="1" fill-rule="nonzero"/><path fill="#ffffff" d="M 482.671875 407.042969 C 484.046875 404.648438 483.222656 401.589844 480.828125 400.210938 C 478.4375 398.835938 475.378906 399.664062 474 402.058594 L 468.730469 411.183594 C 467.355469 413.578125 468.183594 416.632812 470.578125 418.007812 C 472.972656 419.382812 476.027344 418.558594 477.402344 416.164062 L 482.671875 407.042969 " fill-opacity="1" fill-rule="nonzero"/><path fill="#ffffff" d="M 496.226562 424.285156 C 498.625 422.910156 499.449219 419.855469 498.074219 417.460938 C 496.699219 415.066406 493.640625 414.238281 491.246094 415.613281 L 482.121094 420.882812 C 479.726562 422.257812 478.902344 425.316406 480.277344 427.710938 C 481.652344 430.105469 484.710938 430.929688 487.105469 429.554688 L 496.226562 424.285156 " fill-opacity="1" fill-rule="nonzero"/><path fill="#ffffff" d="M 499.375 446.011719 C 502.148438 446.011719 504.394531 443.761719 504.394531 440.988281 C 504.394531 438.214844 502.148438 435.96875 499.375 435.96875 L 488.835938 435.96875 C 486.066406 435.96875 483.816406 438.214844 483.816406 440.988281 C 483.816406 443.761719 486.066406 446.011719 488.835938 446.011719 L 499.375 446.011719 " fill-opacity="1" fill-rule="nonzero"/><path fill="#ffffff" d="M 491.226562 466.359375 C 493.621094 467.75 496.683594 466.933594 498.074219 464.539062 C 499.460938 462.144531 498.644531 459.074219 496.25 457.691406 L 487.125 452.425781 C 484.730469 451.039062 481.664062 451.851562 480.277344 454.246094 C 478.890625 456.640625 479.710938 459.710938 482.105469 461.09375 L 491.226562 466.359375 " fill-opacity="1" fill-rule="nonzero"/><path fill="#ffffff" d="M 474 479.941406 C 475.386719 482.332031 478.453125 483.148438 480.847656 481.761719 C 483.242188 480.375 484.058594 477.3125 482.671875 474.917969 L 477.402344 465.792969 C 476.015625 463.398438 472.953125 462.582031 470.558594 463.96875 C 468.164062 465.355469 467.347656 468.421875 468.730469 470.816406 L 474 479.941406 " fill-opacity="1" fill-rule="nonzero"/><path fill="#ffffff" d="M 452.273438 483.0625 C 452.273438 485.839844 454.527344 488.085938 457.300781 488.085938 C 460.070312 488.085938 462.320312 485.839844 462.320312 483.0625 L 462.320312 472.527344 C 462.320312 469.757812 460.070312 467.503906 457.300781 467.503906 C 454.527344 467.503906 452.273438 469.757812 452.273438 472.527344 L 452.273438 483.0625 " fill-opacity="1" fill-rule="nonzero"/><path fill="#ffffff" d="M 431.925781 474.9375 C 430.550781 477.332031 431.375 480.386719 433.769531 481.761719 C 436.164062 483.136719 439.21875 482.3125 440.597656 479.917969 L 445.863281 470.796875 C 447.238281 468.402344 446.414062 465.34375 444.019531 463.964844 C 441.625 462.59375 438.566406 463.417969 437.195312 465.8125 L 431.925781 474.9375 " fill-opacity="1" fill-rule="nonzero"/><path fill="#ffffff" d="M 418.347656 457.691406 C 415.957031 459.074219 415.136719 462.144531 416.523438 464.539062 C 417.910156 466.933594 420.976562 467.75 423.371094 466.359375 L 432.492188 461.09375 C 434.886719 459.710938 435.707031 456.640625 434.320312 454.246094 C 432.929688 451.851562 429.867188 451.039062 427.46875 452.425781 L 418.347656 457.691406 " fill-opacity="1" fill-rule="nonzero"/><path fill="#ffffff" d="M 415.222656 435.96875 C 412.445312 435.96875 410.199219 438.214844 410.199219 440.988281 C 410.199219 443.761719 412.445312 446.011719 415.222656 446.011719 L 425.757812 446.011719 C 428.53125 446.011719 430.78125 443.761719 430.78125 440.988281 C 430.78125 438.214844 428.53125 435.96875 425.757812 435.96875 L 415.222656 435.96875 " fill-opacity="1" fill-rule="nonzero"/><path fill="#ffffff" d="M 423.351562 415.613281 C 420.957031 414.238281 417.898438 415.066406 416.523438 417.460938 C 415.148438 419.855469 415.976562 422.910156 418.367188 424.285156 L 427.492188 429.554688 C 429.886719 430.929688 432.945312 430.105469 434.320312 427.710938 C 435.695312 425.3125 434.867188 422.257812 432.472656 420.882812 L 423.351562 415.613281 " fill-opacity="1" fill-rule="nonzero"/><path fill="#ffffff" d="M 440.597656 402.058594 C 439.21875 399.664062 436.164062 398.835938 433.769531 400.210938 C 431.375 401.589844 430.550781 404.648438 431.925781 407.042969 L 437.195312 416.164062 C 438.566406 418.558594 441.625 419.382812 444.019531 418.007812 C 446.414062 416.632812 447.238281 413.578125 445.863281 411.183594 L 440.597656 402.058594 " fill-opacity="1" fill-rule="nonzero"/><g clip-path="url(#1a335ae207)"><path fill="#ffffff" d="M 342.832031 579.566406 L 408.632812 579.566406 C 411.40625 579.566406 413.652344 581.8125 413.652344 584.585938 C 413.652344 585.796875 413.222656 586.910156 412.503906 587.78125 L 396.359375 611.570312 L 392.21875 608.761719 L 396.375 611.582031 C 395.398438 613.023438 393.808594 613.796875 392.1875 613.789062 L 359.226562 613.789062 C 357.332031 613.789062 355.679688 612.734375 354.824219 611.183594 L 338.679688 587.394531 L 338.664062 587.40625 C 337.101562 585.109375 337.703125 581.988281 339.996094 580.429688 C 340.867188 579.839844 341.855469 579.558594 342.832031 579.566406 Z M 399.179688 589.609375 L 352.269531 589.609375 L 361.863281 603.742188 L 389.585938 603.742188 L 399.179688 589.609375 " fill-opacity="1" fill-rule="nonzero"/></g><g clip-path="url(#1af1ce0b27)"><path fill="#ffffff" d="M 496.257812 579.566406 L 562.058594 579.566406 C 564.832031 579.566406 567.078125 581.8125 567.078125 584.585938 C 567.078125 585.796875 566.652344 586.910156 565.933594 587.78125 L 549.789062 611.570312 L 545.648438 608.761719 L 549.800781 611.582031 C 548.824219 613.023438 547.234375 613.796875 545.613281 613.789062 L 512.65625 613.789062 C 510.757812 613.789062 509.105469 612.734375 508.25 611.183594 L 492.101562 587.394531 L 492.085938 587.40625 C 490.53125 585.109375 491.125 581.988281 493.421875 580.429688 C 494.292969 579.839844 495.28125 579.558594 496.257812 579.566406 Z M 552.605469 589.609375 L 505.695312 589.609375 L 515.289062 603.742188 L 543.011719 603.742188 L 552.605469 589.609375 " fill-opacity="1" fill-rule="nonzero"/></g></svg>