<svg xmlns="http://www.w3.org/2000/svg" xmlns:xlink="http://www.w3.org/1999/xlink" width="1200" zoomAndPan="magnify" viewBox="0 0 900 899.99999" height="1200" preserveAspectRatio="xMidYMid meet" version="1.0"><path fill="#8c52ff" d="M 268.617188 560.136719 C 278.96875 570.480469 292.3125 576.007812 306.777344 577.472656 C 319.128906 578.71875 333.636719 575.136719 338.492188 562.421875 C 343.605469 549.03125 334.058594 534.796875 325.015625 525.726562 C 315.089844 515.773438 302.964844 507.675781 290.136719 501.96875 C 279.5 497.238281 268.09375 493.816406 256.457031 492.859375 C 255.707031 478.75 257.015625 464.554688 260.039062 450.757812 C 263.835938 433.445312 268.636719 416.214844 274.714844 399.558594 C 279.242188 387.167969 284.890625 373.835938 292.769531 363.652344 C 293.847656 362.261719 295.691406 360.175781 297.257812 358.660156 C 298.089844 357.855469 298.960938 357.078125 299.871094 356.363281 C 299.972656 356.289062 300.082031 356.210938 300.136719 356.171875 C 300.765625 355.746094 301.394531 355.324219 302.050781 354.941406 C 302.351562 354.765625 303.726562 354.101562 303.832031 354.007812 C 304.65625 353.707031 305.488281 353.472656 306.335938 353.230469 C 306.691406 353.128906 306.851562 353.070312 306.941406 353.027344 C 307.046875 353.042969 307.214844 353.054688 307.570312 353.054688 C 308.074219 353.054688 308.585938 353.058594 309.09375 353.050781 C 309.328125 353.046875 309.496094 353.042969 309.621094 353.035156 C 309.667969 353.054688 309.746094 353.078125 309.875 353.109375 C 310.488281 353.257812 311.105469 353.480469 311.714844 353.613281 C 311.714844 353.613281 311.714844 353.617188 311.714844 353.617188 C 309.835938 353.21875 311.273438 353.652344 311.941406 353.871094 C 312.132812 354.066406 312.355469 354.257812 312.535156 354.425781 C 312.714844 354.589844 312.859375 354.785156 313.019531 354.96875 C 313.046875 355.023438 313.0625 355.058594 313.101562 355.125 C 313.4375 355.769531 313.8125 356.425781 314.179688 357.050781 C 314.210938 357.105469 314.246094 357.171875 314.28125 357.242188 C 314.386719 357.511719 314.496094 357.777344 314.589844 358.046875 C 315.207031 359.886719 315.699219 361.746094 316.0625 363.652344 C 316.195312 364.351562 316.304688 365.054688 316.410156 365.757812 C 316.414062 365.9375 316.628906 367.714844 316.660156 368.070312 C 316.863281 370.339844 316.96875 372.621094 317.011719 374.898438 C 317.101562 379.847656 316.882812 384.800781 316.511719 389.738281 C 315.324219 405.445312 312.722656 420.515625 309.066406 436.71875 C 308.855469 437.65625 308.640625 438.597656 308.414062 439.53125 C 306.386719 447.910156 319.304688 451.484375 321.335938 443.09375 C 324.679688 429.265625 327.070312 415.148438 328.78125 401.035156 C 330.046875 390.617188 330.929688 380 330.175781 369.507812 C 329.566406 361.050781 328.160156 351.339844 322.007812 344.949219 C 315.148438 337.824219 303.84375 338.636719 295.773438 343.09375 C 284.960938 349.066406 277.714844 360.871094 272.257812 371.535156 C 264.421875 386.851562 258.835938 403.335938 254.105469 419.839844 C 248.792969 438.378906 244.132812 457.246094 243.085938 476.574219 C 242.796875 481.921875 242.761719 487.421875 243.027344 492.964844 C 228.117188 494.421875 214.40625 500.488281 203.425781 510.871094 C 169.558594 542.898438 137.117188 576.539062 104.457031 609.792969 C 103.675781 610.589844 102.894531 611.382812 102.117188 612.179688 C 96.074219 618.339844 105.542969 627.824219 111.589844 621.652344 C 138.785156 593.914062 166.113281 566.292969 193.765625 539.007812 C 197.820312 535.007812 201.886719 531.019531 205.96875 527.046875 C 210.175781 522.953125 214.257812 518.546875 219.109375 515.214844 C 226.765625 509.953125 235.351562 507.175781 244.292969 506.320312 C 247.117188 526.363281 254.402344 545.929688 268.617188 560.136719 Z M 293.105469 518.429688 C 303.851562 524.476562 315.132812 532.472656 322.015625 542.914062 C 325.113281 547.617188 326.59375 551.402344 326.40625 555.976562 C 326.402344 556.035156 326.40625 556.046875 326.40625 556.085938 C 326.394531 556.128906 326.390625 556.144531 326.378906 556.199219 C 326.246094 556.746094 326.105469 557.28125 325.953125 557.824219 C 325.917969 557.953125 325.90625 558.011719 325.886719 558.09375 C 325.851562 558.152344 325.835938 558.175781 325.792969 558.257812 C 325.617188 558.578125 325.433594 558.890625 325.257812 559.210938 C 324.601562 560.425781 323.496094 561.210938 321.882812 562.203125 C 320.578125 563.003906 321.363281 562.617188 319.636719 563.171875 C 318.398438 563.570312 317.125 563.878906 315.839844 564.085938 C 313.96875 564.390625 309.589844 564.382812 306.777344 564.074219 C 300.792969 563.421875 294.527344 561.636719 289.820312 559.230469 C 279.9375 554.175781 272.835938 546.027344 267.492188 536.097656 C 262.574219 526.957031 259.539062 516.761719 257.886719 506.449219 C 270.25 507.808594 282.328125 512.367188 293.105469 518.429688 Z M 314.355469 357.398438 C 314.488281 357.6875 314.5625 357.902344 314.355469 357.398438 Z M 425.453125 352.953125 C 427.039062 345.671875 428.484375 337.324219 426.183594 330.054688 C 424.730469 325.460938 419.933594 320.050781 414.605469 322.246094 C 409.191406 324.480469 406.113281 331.464844 403.347656 336.171875 C 385.9375 365.789062 365.449219 393.59375 342.476562 419.132812 C 336.695312 425.5625 327.25 416.054688 333 409.660156 C 347.054688 394.035156 360.128906 377.574219 372.074219 360.285156 C 377.394531 352.582031 382.5 344.730469 387.382812 336.742188 C 391.730469 329.628906 395.453125 321.660156 401.316406 315.625 C 407.230469 309.542969 415.855469 306.535156 424.035156 309.6875 C 432.632812 313.003906 438.273438 320.960938 439.914062 329.878906 C 441.597656 339.023438 440.183594 348.65625 438.121094 357.628906 C 436.113281 366.375 432.929688 374.8125 429.175781 382.949219 C 421.695312 399.148438 411.484375 413.890625 401.003906 428.261719 C 398.863281 431.191406 395.226562 432.648438 391.835938 430.664062 C 388.9375 428.96875 387.300781 424.425781 389.433594 421.5 C 400.140625 406.824219 410.570312 391.75 418.082031 375.140625 C 421.296875 368.039062 423.789062 360.570312 425.453125 352.953125 Z M 420.851562 446.519531 C 418.082031 443.75 418.613281 439.886719 420.851562 437.046875 C 428.667969 427.136719 435.132812 416.078125 440.789062 404.816406 C 445.691406 395.050781 449.925781 384.964844 453.3125 374.570312 C 454.867188 369.796875 456.25 364.957031 457.351562 360.058594 C 458.34375 355.664062 458.945312 352.296875 459.234375 348.441406 C 459.539062 344.351562 459.5 340.214844 458.410156 336.234375 C 457.753906 333.835938 457.453125 333.210938 456.214844 331.179688 C 456.027344 330.867188 455.8125 330.558594 455.59375 330.261719 C 455.539062 330.199219 455.523438 330.183594 455.4375 330.089844 C 454.9375 329.535156 454.40625 329.023438 453.875 328.503906 C 453.722656 328.355469 453.300781 328.046875 453.121094 327.917969 C 453.019531 327.851562 452.921875 327.773438 452.816406 327.714844 C 452.292969 327.414062 451.761719 327.113281 451.234375 326.808594 C 451.125 326.746094 451.066406 326.710938 450.996094 326.667969 C 450.980469 326.664062 450.980469 326.664062 450.964844 326.660156 C 450.511719 326.507812 450.066406 326.339844 449.609375 326.207031 C 449.5 326.171875 448.527344 325.933594 447.875 325.792969 C 447.824219 325.789062 447.777344 325.777344 447.726562 325.773438 C 447.757812 325.777344 447.789062 325.777344 447.824219 325.78125 C 447.519531 325.714844 447.289062 325.671875 447.289062 325.691406 C 447.285156 325.699219 447.320312 325.710938 447.359375 325.71875 C 439.609375 324.53125 439.847656 312.066406 448.175781 312.4375 C 454.105469 312.703125 460.007812 315.597656 464.140625 319.785156 C 479.148438 334.992188 471.78125 361.394531 465.9375 379.027344 C 457.933594 403.183594 446.105469 426.511719 430.328125 446.523438 C 428.074219 449.378906 423.175781 448.847656 420.851562 446.519531 Z M 367.449219 602.375 C 359.597656 605.261719 351.496094 607.871094 343.289062 609.691406 C 342.394531 613.148438 341.1875 616.53125 339.839844 619.847656 C 327.992188 649.023438 308.105469 674.582031 287.34375 697.941406 C 273.222656 713.828125 258.320312 729.195312 242.59375 743.511719 C 236.222656 749.308594 226.726562 739.855469 233.117188 734.039062 C 238.71875 728.941406 244.144531 723.648438 249.519531 718.320312 C 272.058594 695.960938 293.867188 672.273438 311.101562 645.507812 C 314.996094 639.460938 318.660156 633.261719 321.953125 626.863281 C 323.332031 624.191406 324.640625 621.488281 325.863281 618.742188 C 326.679688 616.914062 326.964844 616.273438 327.9375 613.695312 C 328.960938 610.984375 329.894531 608.226562 330.613281 605.414062 C 330.859375 604.449219 331.554688 600.082031 331.039062 604.058594 C 331.402344 601.273438 332.808594 598.191406 335.957031 597.597656 C 346.894531 595.542969 357.6875 591.921875 368.027344 587.886719 C 386.179688 580.808594 404.597656 570.636719 419.445312 557.246094 C 429.273438 548.378906 437.738281 537.898438 445.847656 527.472656 C 454.203125 516.730469 461.933594 505.472656 468.886719 493.773438 C 480.34375 474.488281 489.824219 453.738281 494.199219 431.632812 C 495.332031 425.921875 496.054688 420.152344 496.226562 414.324219 C 496.296875 411.875 496.273438 409.417969 496.132812 406.96875 C 496.078125 406.03125 496.003906 405.089844 495.914062 404.15625 C 495.894531 403.9375 495.738281 402.75 495.703125 402.445312 C 495.320312 399.984375 494.816406 397.539062 494.035156 395.171875 C 493.738281 394.277344 492.671875 392.21875 493.914062 394.65625 C 493.820312 394.472656 493.746094 394.277344 493.652344 394.09375 C 493.320312 393.464844 493.132812 392.84375 493 392.234375 C 489.945312 404.4375 484.59375 416.242188 479.265625 427.480469 C 472.167969 442.460938 464 457.46875 453.960938 470.722656 C 451.769531 473.617188 448.230469 475.136719 444.796875 473.125 C 441.933594 471.453125 440.207031 466.847656 442.390625 463.960938 C 445.589844 459.742188 448.472656 455.257812 451.273438 450.773438 C 457.328125 441.085938 462.804688 431.035156 467.699219 420.71875 C 473.636719 408.195312 479.5625 394.878906 481.6875 381.089844 C 482.339844 376.851562 482.480469 372.460938 482 368.191406 C 481.972656 368.207031 481.65625 366.230469 481.566406 365.835938 C 481.386719 365.039062 481.183594 364.25 480.949219 363.46875 C 480.753906 362.832031 480.519531 362.214844 480.3125 361.585938 C 480.296875 361.542969 480.296875 361.535156 480.285156 361.5 C 480.167969 361.242188 480.058594 360.980469 479.925781 360.730469 C 479.382812 359.683594 478.765625 358.707031 478.148438 357.703125 C 478.132812 357.675781 478.128906 357.667969 478.117188 357.640625 C 477.917969 357.4375 477.75 357.191406 477.546875 356.992188 C 477.144531 356.589844 476.613281 356.191406 476.257812 355.753906 C 476.21875 355.699219 476.21875 355.691406 476.199219 355.660156 C 470.660156 350.53125 477.042969 340.257812 483.871094 344.84375 C 487.617188 347.359375 490.328125 351.277344 492.125 355.347656 C 496.222656 364.625 496.191406 374.789062 494.605469 384.648438 C 494.472656 385.464844 494.285156 386.273438 494.132812 387.085938 C 496.738281 383.523438 502.59375 382.320312 505.21875 387.332031 C 507.699219 392.066406 508.566406 397.617188 509.171875 402.851562 C 510.675781 415.839844 508.742188 429.269531 505.636719 441.878906 C 499.964844 464.917969 489.210938 486.734375 476.65625 506.753906 C 468.871094 519.167969 460.199219 531.015625 450.984375 542.40625 C 442.644531 552.707031 434.019531 562.769531 423.726562 571.175781 C 406.96875 584.855469 387.707031 594.933594 367.449219 602.375 Z M 522.242188 364.933594 C 522.144531 365.46875 522.050781 365.640625 522.019531 365.585938 C 522.070312 365.382812 522.121094 365.179688 522.191406 364.984375 C 522.195312 364.972656 522.207031 364.960938 522.210938 364.949219 C 522.226562 364.941406 522.226562 364.941406 522.242188 364.933594 Z M 803.175781 542.027344 C 780.5 540.386719 758.164062 536.429688 735.824219 531.273438 C 704.65625 524.078125 673.628906 513.804688 645.425781 498.519531 C 641.875 496.59375 638.289062 494.621094 634.878906 492.414062 C 633.9375 473.835938 629.226562 454.925781 621.957031 437.96875 C 616.449219 425.117188 608.566406 413.609375 599.785156 402.785156 C 591.402344 392.453125 582.066406 382.828125 571.882812 374.253906 C 562.824219 366.621094 553.070312 359.457031 542.109375 354.808594 C 534.265625 351.480469 523.964844 348.675781 515.941406 353.113281 C 500.714844 361.535156 512.367188 383.75 518.234375 394.351562 C 520.90625 399.175781 523.828125 403.871094 526.867188 408.5 C 525.996094 408.109375 525.128906 407.714844 524.257812 407.320312 C 520.964844 405.828125 517.050781 406.375 515.09375 409.722656 C 513.414062 412.597656 514.1875 417.386719 517.496094 418.886719 C 526.152344 422.8125 534.808594 426.738281 543.46875 430.664062 C 550.558594 433.878906 556.371094 426.191406 551.585938 420.144531 C 551.496094 420.03125 551.410156 419.921875 551.320312 419.808594 C 551.320312 419.804688 551.320312 419.804688 551.316406 419.800781 C 550.359375 418.53125 549.390625 417.269531 548.441406 415.988281 C 545.257812 411.699219 542.175781 407.335938 539.210938 402.894531 C 535.597656 397.476562 532.140625 391.9375 529.046875 386.203125 C 527.554688 383.441406 526.148438 380.628906 524.898438 377.746094 C 524.785156 377.472656 524.570312 376.953125 524.488281 376.738281 C 524.253906 376.144531 524.03125 375.546875 523.816406 374.949219 C 523.359375 373.660156 522.941406 372.359375 522.597656 371.035156 C 522.441406 370.425781 522.292969 369.808594 522.171875 369.191406 C 522.140625 369.046875 522.082031 368.660156 522.03125 368.355469 C 522.003906 367.992188 521.953125 367.453125 521.949219 367.335938 C 521.929688 366.8125 521.996094 366.269531 521.976562 365.746094 C 521.980469 365.691406 522.007812 365.640625 522.019531 365.585938 C 521.988281 365.53125 522.027344 365.273438 522.191406 364.984375 C 522.191406 364.976562 522.195312 364.96875 522.195312 364.960938 C 522.199219 364.957031 522.203125 364.957031 522.207031 364.953125 C 522.210938 364.949219 522.210938 364.949219 522.210938 364.949219 C 522.214844 364.949219 522.214844 364.945312 522.214844 364.945312 C 522.226562 364.933594 522.230469 364.933594 522.246094 364.921875 C 522.242188 364.925781 522.242188 364.929688 522.242188 364.933594 C 522.324219 364.890625 522.363281 364.867188 522.421875 364.835938 C 522.894531 364.710938 523.375 364.582031 523.835938 364.441406 C 524.019531 364.382812 524.136719 364.339844 524.207031 364.308594 C 524.328125 364.320312 524.496094 364.328125 524.792969 364.328125 C 525.902344 364.328125 526.992188 364.34375 528.09375 364.441406 C 528.335938 364.5 529.457031 364.679688 529.671875 364.726562 C 530.476562 364.902344 531.277344 365.109375 532.070312 365.339844 C 535.949219 366.457031 537.898438 367.378906 541.464844 369.265625 C 545.082031 371.179688 548.554688 373.351562 551.917969 375.675781 C 559.773438 381.097656 566.996094 387.425781 573.796875 394.109375 C 587.976562 408.039062 601.019531 423.976562 609.269531 442.183594 C 613.558594 451.644531 616.46875 461.785156 618.574219 471.9375 C 620.117188 479.398438 620.902344 484.675781 621.441406 491.988281 C 621.742188 496.03125 621.519531 499.390625 625.347656 502.105469 C 627.75 503.808594 630.304688 505.328125 632.847656 506.816406 C 647.308594 515.28125 662.796875 522.046875 678.453125 527.964844 C 717.519531 542.738281 759.152344 551.542969 800.742188 555.222656 C 801.550781 555.292969 802.363281 555.363281 803.175781 555.425781 C 806.789062 555.683594 809.875 552.15625 809.875 548.726562 C 809.875 544.882812 806.796875 542.289062 803.175781 542.027344 Z M 522.277344 364.738281 C 522.269531 364.746094 522.265625 364.75 522.257812 364.757812 C 522.265625 364.714844 522.289062 364.671875 522.296875 364.628906 C 522.289062 364.671875 522.28125 364.695312 522.277344 364.738281 Z M 730.347656 692.628906 C 719.25 690.796875 708.234375 688.300781 697.3125 685.636719 C 673.582031 679.855469 650.085938 672.722656 627.492188 663.40625 C 608.898438 655.738281 590.675781 646.523438 573.9375 635.34375 C 565.914062 629.984375 558.230469 624.070312 551.519531 617.109375 C 548.496094 613.972656 546.109375 611.152344 543.867188 607.683594 C 542.496094 605.566406 541.488281 603.75 540.664062 601.890625 C 544.875 601.472656 549.082031 600.652344 553.253906 599.347656 C 573.667969 592.980469 592.179688 578.171875 603.222656 559.886719 C 607.84375 552.238281 611.46875 543.238281 611.34375 534.167969 C 611.242188 526.648438 608.398438 518.300781 601.5625 514.363281 C 594.917969 510.535156 587.042969 512.441406 580.5 515.382812 C 572.632812 518.917969 565.664062 524.664062 559.464844 530.570312 C 545.351562 544.007812 532.75 561.199219 526.78125 579.917969 C 525.875 582.753906 525.382812 585.546875 525.171875 588.300781 C 518.375 587.347656 511.710938 585.40625 505.289062 582.980469 C 491.207031 577.65625 478.074219 569.664062 466.027344 560.699219 C 465.9375 560.628906 465.902344 560.605469 465.835938 560.558594 C 465.792969 560.523438 465.78125 560.511719 465.722656 560.464844 C 465.527344 560.3125 465.335938 560.160156 465.144531 560.007812 C 462.339844 557.722656 458.414062 557.261719 455.671875 560.007812 C 453.3125 562.363281 452.851562 567.183594 455.671875 569.480469 C 465.722656 577.660156 476.992188 584.621094 488.636719 590.261719 C 500.582031 596.046875 513.519531 600.574219 526.664062 601.847656 C 529.667969 612.0625 536.523438 621.3125 544.433594 628.976562 C 560.421875 644.472656 580.375 655.941406 600.246094 665.683594 C 639.148438 684.761719 681.5 697.371094 724.089844 705.074219 C 724.988281 705.234375 725.886719 705.398438 726.785156 705.546875 C 730.351562 706.132812 734 704.613281 735.027344 700.867188 C 735.90625 697.664062 733.9375 693.21875 730.347656 692.628906 Z M 538.402344 588.535156 C 538.476562 588.089844 538.5625 587.648438 538.660156 587.210938 C 538.859375 586.300781 539.113281 585.40625 539.378906 584.515625 C 539.980469 582.507812 540.683594 580.527344 541.472656 578.582031 C 544.460938 571.226562 549.640625 562.894531 554.746094 556.007812 C 559.910156 549.042969 565.90625 542.558594 572.441406 536.84375 C 575.597656 534.082031 577.832031 532.332031 581.488281 530.058594 C 582.835938 529.21875 584.222656 528.429688 585.644531 527.71875 C 585.871094 527.605469 587.003906 527.089844 587.289062 526.949219 C 587.628906 526.832031 588.707031 526.4375 589.042969 526.332031 C 589.699219 526.125 590.371094 525.980469 591.03125 525.792969 C 591.242188 525.738281 591.386719 525.691406 591.496094 525.65625 C 591.539062 525.65625 591.558594 525.660156 591.621094 525.65625 C 592.222656 525.632812 592.820312 525.617188 593.417969 525.601562 C 593.5625 525.601562 593.707031 525.617188 593.851562 525.632812 C 593.890625 525.648438 593.894531 525.644531 593.945312 525.664062 C 594.046875 525.707031 594.460938 525.863281 594.789062 525.976562 C 594.902344 526.046875 595.019531 526.117188 595.136719 526.179688 C 595.402344 526.421875 595.773438 526.734375 595.863281 526.816406 C 595.960938 526.898438 596.015625 526.941406 596.074219 526.980469 C 596.105469 527.085938 596.164062 527.230469 596.285156 527.476562 C 596.417969 527.746094 596.859375 528.707031 596.941406 528.816406 C 597.15625 529.410156 597.359375 530.003906 597.511719 530.613281 C 597.585938 530.902344 597.761719 531.929688 597.820312 532.15625 C 597.894531 532.925781 597.945312 533.703125 597.945312 534.476562 C 597.949219 535.210938 597.90625 535.9375 597.859375 536.667969 C 597.84375 536.953125 597.808594 537.238281 597.773438 537.527344 C 597.746094 537.6875 597.695312 538.011719 597.675781 538.109375 C 597.269531 540.148438 596.75 542.144531 596.066406 544.105469 C 593.667969 550.984375 588.484375 558.605469 583.042969 564.5 C 576.460938 571.628906 568.789062 577.597656 560.175781 582.082031 C 553.382812 585.617188 545.984375 588.015625 538.375 588.71875 C 538.507812 587.371094 538.449219 588.25 538.402344 588.535156 Z M 318.566406 230.285156 C 323.441406 239.425781 328.699219 248.425781 334.878906 256.757812 C 340.132812 263.839844 345.933594 270.746094 353.402344 275.589844 C 354.5625 276.34375 355.769531 277.019531 357 277.664062 C 356.03125 279.050781 355.089844 280.453125 354.195312 281.886719 C 346.230469 294.65625 340.773438 309.707031 336.953125 324.210938 C 332.667969 340.484375 329.859375 359.796875 335.25 376.238281 C 335.648438 377.445312 336.117188 378.632812 336.652344 379.78125 C 338.175781 383.0625 342.902344 383.886719 345.816406 382.183594 C 349.183594 380.214844 349.75 376.3125 348.21875 373.019531 C 349.277344 375.296875 348.53125 373.804688 348.109375 372.488281 C 347.480469 370.527344 347.03125 368.507812 346.675781 366.476562 C 346.59375 366.011719 346.523438 365.539062 346.453125 365.070312 C 346.605469 366.007812 346.320312 363.996094 346.277344 363.5625 C 346.089844 361.644531 345.976562 359.722656 345.929688 357.796875 C 345.820312 353.257812 346.097656 348.722656 346.601562 344.210938 C 347.964844 332.019531 352.300781 318.074219 357.203125 306.042969 C 360.652344 297.585938 364.808594 289.660156 370.007812 282.59375 C 372.851562 283.355469 375.722656 283.980469 378.546875 284.484375 C 389.28125 286.390625 400.226562 287.011719 411.113281 286.601562 C 431.402344 285.835938 453.941406 282.429688 471.515625 271.554688 C 478.582031 267.183594 485.027344 261.144531 487.648438 253.050781 C 490.105469 245.464844 488.566406 236.765625 483.449219 230.644531 C 472.617188 217.683594 451.148438 220.570312 436.820312 224.195312 C 414.921875 229.734375 394.195312 241.140625 377.0625 255.757812 C 373.007812 259.21875 369.15625 262.957031 365.566406 266.929688 C 365.5625 266.925781 365.550781 266.921875 365.546875 266.921875 C 363.972656 266.183594 362.414062 265.414062 360.929688 264.503906 C 360.277344 264.105469 359.652344 263.667969 359.019531 263.242188 C 358.898438 263.164062 358.59375 262.933594 358.394531 262.785156 C 358.160156 262.59375 357.921875 262.40625 357.6875 262.210938 C 354.738281 259.738281 352.085938 256.921875 349.609375 253.984375 C 348.960938 253.210938 348.324219 252.425781 347.695312 251.632812 C 347.644531 251.570312 347.511719 251.402344 347.410156 251.273438 C 347.085938 250.851562 346.765625 250.421875 346.449219 249.992188 C 345.074219 248.140625 343.746094 246.25 342.460938 244.332031 C 339.765625 240.320312 337.242188 236.191406 334.828125 232.003906 C 317.726562 202.304688 305.472656 171.316406 294.453125 138.957031 C 294.234375 138.316406 294.015625 137.671875 293.800781 137.027344 C 291.105469 128.882812 278.160156 132.371094 280.882812 140.589844 C 291.039062 171.265625 303.367188 201.769531 318.566406 230.285156 Z M 475.324219 244.070312 C 475.378906 244.398438 475.390625 244.648438 475.324219 244.070312 Z M 398.359375 256.324219 C 406.921875 250.59375 416.941406 245.265625 425.78125 241.824219 C 430.238281 240.089844 434.785156 238.582031 439.414062 237.363281 C 441.519531 236.8125 443.640625 236.320312 445.777344 235.902344 C 446.800781 235.699219 447.828125 235.515625 448.859375 235.351562 C 449.207031 235.296875 449.558594 235.246094 449.90625 235.191406 C 450.160156 235.160156 450.789062 235.082031 450.96875 235.0625 C 454.808594 234.683594 458.605469 234.5625 462.457031 234.851562 C 462.792969 234.875 462.960938 234.882812 463.074219 234.886719 C 463.183594 234.910156 463.351562 234.941406 463.59375 234.988281 C 464.359375 235.125 465.121094 235.269531 465.882812 235.449219 C 466.605469 235.625 467.324219 235.824219 468.03125 236.054688 C 468.375 236.167969 468.710938 236.304688 469.054688 236.410156 C 469.097656 236.425781 469.109375 236.425781 469.148438 236.4375 C 469.171875 236.449219 469.171875 236.453125 469.195312 236.464844 C 469.796875 236.78125 470.402344 237.066406 470.984375 237.417969 C 471.277344 237.59375 472.039062 238.183594 472.199219 238.285156 C 472.457031 238.515625 472.726562 238.734375 472.972656 238.984375 C 473.148438 239.164062 473.308594 239.363281 473.488281 239.539062 C 473.523438 239.574219 473.535156 239.582031 473.570312 239.613281 C 473.582031 239.640625 473.578125 239.644531 473.597656 239.675781 C 473.910156 240.226562 474.238281 240.78125 474.5625 241.324219 C 474.613281 241.410156 474.636719 241.441406 474.675781 241.503906 C 474.6875 241.566406 474.691406 241.613281 474.710938 241.71875 C 474.855469 242.371094 475.050781 243.066406 475.242188 243.703125 C 475.261719 243.761719 475.277344 243.832031 475.292969 243.90625 C 475.320312 244.203125 475.355469 244.5 475.371094 244.800781 C 475.40625 245.53125 475.269531 246.304688 475.34375 247.023438 C 475.34375 247.042969 475.347656 247.042969 475.347656 247.058594 C 475.285156 247.308594 475.261719 247.574219 475.195312 247.824219 C 475 248.519531 474.792969 249.207031 474.585938 249.902344 C 474.578125 249.933594 474.578125 249.9375 474.570312 249.96875 C 474.378906 250.34375 474.199219 250.722656 473.996094 251.089844 C 473.636719 251.75 473.21875 252.371094 472.8125 253 C 472.675781 253.214844 472.597656 253.347656 472.542969 253.445312 C 472.464844 253.515625 472.351562 253.628906 472.148438 253.84375 C 470.898438 255.183594 469.617188 256.425781 468.226562 257.613281 C 468.179688 257.65625 468.164062 257.667969 468.125 257.703125 C 467.769531 257.960938 467.414062 258.222656 467.054688 258.476562 C 466.300781 259.003906 465.53125 259.503906 464.75 259.988281 C 462.933594 261.113281 461.042969 262.128906 459.117188 263.054688 C 456.640625 264.25 456.753906 264.1875 454.382812 265.089844 C 452.214844 265.917969 450.011719 266.660156 447.789062 267.335938 C 438.164062 270.265625 428.664062 271.894531 419.347656 272.695312 C 409.089844 273.578125 398.722656 273.589844 388.480469 272.480469 C 388.015625 272.429688 387.554688 272.378906 387.089844 272.324219 C 387.074219 272.320312 386.128906 272.195312 385.820312 272.15625 C 384.800781 272.011719 383.78125 271.855469 382.769531 271.679688 C 381.863281 271.523438 380.96875 271.308594 380.070312 271.128906 C 385.722656 265.574219 391.820312 260.703125 398.359375 256.324219 Z M 462.113281 99.269531 C 460.753906 95.894531 463.605469 91.90625 466.792969 91.03125 C 470.5625 89.992188 473.683594 92.355469 475.03125 95.710938 C 476.273438 98.792969 477.410156 101.921875 478.535156 105.050781 C 493.828125 147.539062 504.4375 192.089844 509.179688 237.023438 C 509.511719 237.214844 509.835938 237.421875 510.164062 237.621094 C 515.277344 240.671875 520.09375 244.359375 524.601562 248.132812 C 527.828125 250.832031 530.898438 253.738281 533.808594 256.804688 C 533.941406 256.941406 534.0625 257.085938 534.195312 257.222656 C 535.722656 258.851562 537.195312 260.53125 538.617188 262.257812 C 538.628906 262.273438 538.644531 262.289062 538.660156 262.304688 C 538.675781 262.324219 538.691406 262.34375 538.707031 262.363281 C 544.199219 269.046875 548.863281 276.40625 552.238281 284.351562 C 552.40625 284.753906 552.546875 285.160156 552.664062 285.566406 C 554.007812 288.636719 555.25 291.777344 556.390625 295.003906 C 562.140625 311.257812 566.351562 329.019531 566.925781 346.335938 C 567.210938 354.976562 553.8125 354.9375 553.527344 346.335938 C 553.308594 339.769531 552.519531 334.835938 551.417969 328.703125 C 549.148438 316.046875 545.867188 303.050781 540.699219 291.167969 C 540.691406 291.148438 540.675781 291.136719 540.667969 291.117188 C 538.824219 286.773438 536.617188 282.632812 534.085938 278.695312 C 533.980469 278.53125 533.875 278.363281 533.765625 278.195312 C 532.660156 276.5 531.472656 274.855469 530.242188 273.246094 C 529.890625 272.78125 529.535156 272.328125 529.171875 271.871094 C 528.015625 270.421875 526.816406 269 525.566406 267.625 C 525.125 267.136719 524.675781 266.65625 524.226562 266.179688 C 523.453125 265.363281 522.671875 264.5625 521.886719 263.78125 C 521.523438 263.421875 521.167969 263.050781 520.796875 262.695312 C 516.832031 258.875 512.714844 255.496094 508.609375 252.628906 C 505.933594 250.765625 503.132812 249.167969 500.363281 247.472656 C 500.199219 247.375 500.027344 247.28125 499.863281 247.179688 C 499.734375 247.101562 499.652344 246.984375 499.527344 246.894531 C 499.144531 246.617188 498.800781 246.328125 498.503906 246.023438 C 498.378906 245.894531 498.257812 245.765625 498.148438 245.632812 C 497.765625 245.171875 497.433594 244.691406 497.183594 244.171875 C 495.363281 240.589844 495.613281 235.480469 495.226562 231.660156 C 495.179688 231.265625 495.140625 230.871094 495.089844 230.480469 C 494.722656 227.40625 494.328125 224.339844 493.886719 221.277344 C 493.886719 221.265625 493.882812 221.253906 493.882812 221.242188 C 493.199219 216.488281 492.425781 211.746094 491.609375 207.011719 C 491.449219 206.085938 491.285156 205.160156 491.121094 204.234375 C 490.316406 199.730469 489.46875 195.230469 488.550781 190.75 C 488.449219 190.246094 488.339844 189.742188 488.234375 189.238281 C 486.175781 179.3125 483.867188 169.433594 481.308594 159.625 C 476.78125 142.261719 471.722656 124.84375 465.460938 107.964844 C 464.378906 105.050781 463.269531 102.148438 462.113281 99.269531 Z M 571.074219 255.394531 C 575.917969 239.203125 585.347656 222.828125 600.742188 214.703125 C 615.683594 206.816406 633.394531 210.945312 645.566406 221.992188 C 653.71875 229.390625 658.730469 238.929688 660.636719 249.222656 C 648.871094 255.453125 637.824219 263.058594 627.867188 271.847656 C 619.617188 279.128906 612.183594 287.324219 608.894531 298.066406 C 605.863281 307.964844 608.28125 319.476562 618.1875 324.421875 C 629.050781 329.847656 641.132812 324.070312 649.425781 316.644531 C 657.773438 309.171875 664.144531 298.941406 668.480469 288.699219 C 672.675781 278.785156 674.957031 267.894531 674.796875 257.128906 C 678.941406 255.246094 683.15625 253.519531 687.445312 252.035156 C 706.257812 245.515625 727.273438 242.535156 746.566406 248.472656 C 768.75 255.402344 786.46875 274.738281 785.207031 298.847656 C 784.914062 304.511719 783.777344 310.101562 781.984375 315.511719 C 781.757812 316.203125 781.507812 316.886719 781.257812 317.570312 C 781.164062 317.835938 781.058594 318.097656 780.960938 318.363281 C 778.710938 324.175781 775.730469 329.71875 772.339844 334.742188 C 772.199219 334.953125 772.050781 335.160156 771.910156 335.367188 C 770.972656 336.726562 770.007812 338.039062 769.019531 339.316406 C 768.667969 339.765625 768.316406 340.210938 767.957031 340.652344 C 767.296875 341.472656 766.625 342.285156 765.933594 343.082031 C 765.472656 343.613281 764.996094 344.132812 764.523438 344.652344 C 763.847656 345.394531 763.171875 346.136719 762.472656 346.855469 C 761.929688 347.410156 761.367188 347.945312 760.8125 348.488281 C 760.144531 349.136719 759.488281 349.796875 758.804688 350.421875 C 757.558594 351.5625 756.296875 352.671875 755 353.730469 C 754.90625 353.808594 754.8125 353.882812 754.71875 353.957031 C 753.261719 355.136719 751.78125 356.265625 750.273438 357.332031 C 749.980469 357.535156 749.699219 357.757812 749.40625 357.957031 C 748.226562 358.78125 747.003906 359.546875 745.78125 360.3125 C 744.230469 361.273438 742.660156 362.195312 741.0625 363.058594 C 740.949219 363.117188 740.839844 363.183594 740.726562 363.242188 C 737.539062 364.941406 734.257812 366.421875 730.898438 367.714844 C 724.238281 368.324219 717.667969 370.113281 711.460938 373.195312 C 708.507812 374.660156 707.464844 378.703125 708.71875 381.558594 C 710.15625 384.828125 713.222656 385.972656 716.621094 385.4375 C 718.132812 385.199219 719.632812 384.910156 721.125 384.597656 C 721.613281 384.496094 722.101562 384.378906 722.589844 384.269531 C 723.605469 384.039062 724.617188 383.792969 725.621094 383.53125 C 726.160156 383.386719 726.703125 383.242188 727.238281 383.089844 C 728.269531 382.800781 729.289062 382.492188 730.304688 382.167969 C 730.746094 382.027344 731.191406 381.894531 731.632812 381.746094 C 732.570312 381.433594 733.503906 381.09375 734.433594 380.75 C 753.109375 380.035156 772.25 391.554688 779.445312 409.039062 C 784.65625 421.703125 784.128906 436.101562 779.464844 448.824219 C 774.71875 461.777344 764.886719 472.042969 752.808594 478.464844 C 739.019531 485.789062 722.523438 487.921875 707.285156 484.671875 C 698.878906 482.878906 695.285156 495.789062 703.726562 497.59375 C 737.113281 504.714844 775.503906 490.410156 790.054688 458.066406 C 796.902344 442.84375 798.707031 425.183594 793.65625 409.125 C 788.824219 393.777344 777.910156 380.960938 763.417969 373.910156 C 760.609375 372.542969 757.71875 371.398438 754.777344 370.457031 C 760.996094 366.371094 766.777344 361.625 771.945312 356.308594 C 787.632812 340.171875 799.136719 317.574219 798.671875 294.679688 C 798.546875 288.578125 797.402344 282.707031 795.453125 277.160156 C 795.160156 276.265625 794.820312 275.382812 794.476562 274.5 C 794.453125 274.4375 794.421875 274.375 794.398438 274.3125 C 792.652344 269.871094 790.359375 265.566406 787.332031 261.515625 C 786.074219 259.835938 784.738281 258.230469 783.351562 256.679688 C 782.292969 255.503906 781.195312 254.375 780.066406 253.273438 C 779.234375 252.449219 778.371094 251.660156 777.496094 250.878906 C 777.324219 250.722656 777.148438 250.574219 776.972656 250.421875 C 773.085938 247.019531 768.847656 243.984375 764.269531 241.488281 C 761.425781 239.941406 758.503906 238.601562 755.527344 237.453125 C 755.421875 237.414062 755.3125 237.382812 755.207031 237.339844 C 753.886719 236.828125 752.539062 236.371094 751.1875 235.925781 C 750.800781 235.800781 750.425781 235.640625 750.039062 235.519531 C 749.734375 235.425781 749.449219 235.394531 749.15625 235.339844 C 730.492188 229.945312 710.066406 231.417969 691.433594 236.726562 C 685.210938 238.5 679.113281 240.695312 673.15625 243.226562 C 671.589844 236.460938 668.886719 229.957031 664.882812 224.011719 C 652.980469 206.339844 632.019531 194.597656 610.4375 197.671875 C 588.964844 200.730469 572.675781 218.046875 563.855469 236.910156 C 561.597656 241.742188 559.679688 246.722656 558.152344 251.832031 C 555.675781 260.109375 568.605469 263.648438 571.074219 255.394531 Z M 660.421875 269.785156 C 658.550781 279.121094 654.808594 287.851562 649.546875 295.773438 C 644.96875 302.667969 638.757812 310.363281 630.453125 312.714844 C 627.605469 313.523438 624.339844 313.382812 622.40625 311.109375 C 621.507812 310.050781 621.226562 309.210938 621.003906 307.867188 C 620.894531 307.21875 620.992188 304.910156 621.257812 303.746094 C 623.132812 295.4375 628.730469 289.210938 634.8125 283.601562 C 642.851562 276.1875 651.761719 269.660156 661.246094 264.132812 C 661.0625 266.015625 660.800781 267.902344 660.421875 269.785156 Z M 560.964844 684.136719 C 556.027344 695.625 547.242188 705.066406 536.847656 711.878906 C 529.410156 716.75 521.253906 719.988281 512.777344 721.90625 C 517.511719 735.039062 522.402344 748.113281 527.5625 761.089844 C 528.90625 764.46875 526.078125 768.449219 522.882812 769.328125 C 519.121094 770.363281 515.976562 768.011719 514.640625 764.648438 C 509.273438 751.140625 504.179688 737.527344 499.269531 723.847656 C 487.792969 724.609375 476.09375 723.292969 465.027344 720.433594 C 449.042969 716.296875 431.375 707.785156 422.867188 693.121094 C 411.691406 704.609375 396.25 712.027344 379.976562 706.507812 C 370.070312 703.148438 362.507812 695.566406 359.796875 685.363281 C 357.117188 675.292969 359.019531 664.527344 361.863281 654.71875 C 364.261719 646.4375 377.1875 649.980469 374.78125 658.28125 C 371.1875 670.691406 368.640625 689.101562 384.429688 693.875 C 398.804688 698.21875 411.65625 687.933594 419.203125 676.597656 C 422.167969 672.144531 430.21875 672.171875 431.449219 678.199219 C 433.355469 687.53125 439.828125 694.296875 447.789062 699.125 C 456 704.105469 465.214844 707 474.585938 708.898438 C 481.132812 710.222656 487.917969 710.921875 494.660156 710.785156 C 489.914062 697.097656 485.355469 683.347656 481.070312 669.503906 C 478.511719 661.234375 491.449219 657.730469 493.992188 665.941406 C 498.484375 680.464844 503.269531 694.894531 508.273438 709.25 C 526.148438 705.433594 542.046875 694.476562 549.394531 677.375 C 550.832031 674.035156 555.738281 673.320312 558.5625 674.972656 C 561.953125 676.957031 562.390625 680.816406 560.964844 684.136719 Z M 128.101562 484.9375 C 122.09375 461.730469 107.9375 441.65625 93.605469 422.84375 C 90.113281 418.257812 95.972656 411.042969 101.171875 413.003906 C 115.636719 418.460938 131.144531 417.964844 145.609375 412.683594 C 157.816406 408.226562 169.15625 399.914062 176.484375 389.117188 C 186.03125 375.042969 188.351562 357.832031 187.21875 341.171875 C 185.980469 322.871094 180.773438 304.683594 174.367188 287.570312 C 167.859375 270.1875 159.207031 253.652344 148.9375 238.199219 C 144.714844 231.84375 154.445312 224.4375 159.460938 230.082031 C 167.585938 239.226562 176.289062 247.878906 185.8125 255.574219 C 202.003906 268.65625 220.984375 278.683594 241.613281 282.296875 C 261.472656 285.777344 282.554688 282.804688 299.714844 271.933594 C 307.027344 267.304688 313.742188 278.902344 306.476562 283.503906 C 295.425781 290.503906 282.980469 294.566406 270.050781 296.222656 C 236.984375 300.449219 206.535156 287.882812 180.890625 268.429688 C 184.496094 276.460938 187.699219 284.671875 190.46875 293.03125 C 202.183594 328.40625 208.882812 372.132812 182.699219 402.886719 C 166.519531 421.882812 140.292969 432.34375 115.40625 429.980469 C 118.714844 434.691406 121.894531 439.492188 124.863281 444.429688 C 135.199219 461.636719 142.863281 480.644531 144.066406 500.847656 C 145.199219 519.8125 140.265625 538.574219 128.511719 553.613281 C 126.273438 556.480469 121.355469 555.929688 119.039062 553.613281 C 116.261719 550.835938 116.8125 546.988281 119.039062 544.140625 C 131.890625 527.691406 133.164062 504.484375 128.101562 484.9375 Z M 128.101562 484.9375 " fill-opacity="1" fill-rule="nonzero"/><path fill="#439751" d="M 333 409.660156 C 347.054688 394.035156 360.128906 377.574219 372.074219 360.285156 C 377.394531 352.582031 382.5 344.730469 387.382812 336.742188 C 391.730469 329.628906 395.453125 321.664062 401.316406 315.625 C 407.230469 309.542969 415.855469 306.535156 424.035156 309.6875 C 432.632812 313.003906 438.273438 320.960938 439.914062 329.878906 C 441.597656 339.023438 440.183594 348.65625 438.121094 357.628906 C 436.113281 366.375 432.933594 374.8125 429.175781 382.949219 C 421.695312 399.148438 411.484375 413.890625 401.003906 428.261719 C 398.863281 431.195312 395.226562 432.648438 391.835938 430.664062 C 388.9375 428.96875 387.300781 424.425781 389.433594 421.5 C 400.140625 406.824219 410.570312 391.75 418.082031 375.144531 C 421.296875 368.039062 423.792969 360.570312 425.453125 352.953125 C 427.039062 345.671875 428.484375 337.324219 426.183594 330.054688 C 424.730469 325.460938 419.9375 320.050781 414.605469 322.246094 C 409.191406 324.480469 406.113281 331.464844 403.347656 336.171875 C 385.9375 365.789062 365.449219 393.59375 342.476562 419.132812 C 336.695312 425.5625 327.25 416.054688 333 409.660156 Z M 457.351562 360.058594 C 456.25 364.957031 454.867188 369.796875 453.3125 374.570312 C 449.925781 384.964844 445.691406 395.054688 440.789062 404.816406 C 435.132812 416.078125 428.667969 427.136719 420.851562 437.046875 C 418.613281 439.886719 418.082031 443.75 420.851562 446.519531 C 423.175781 448.847656 428.074219 449.378906 430.324219 446.519531 C 446.105469 426.511719 457.933594 403.183594 465.9375 379.027344 C 471.777344 361.394531 479.148438 334.988281 464.136719 319.78125 C 460.007812 315.597656 454.105469 312.699219 448.175781 312.4375 C 439.847656 312.066406 439.609375 324.527344 447.359375 325.71875 C 447.320312 325.707031 447.285156 325.699219 447.289062 325.691406 C 447.289062 325.671875 447.519531 325.714844 447.820312 325.78125 C 447.789062 325.777344 447.757812 325.773438 447.726562 325.769531 C 447.777344 325.777344 447.824219 325.789062 447.875 325.792969 C 448.523438 325.933594 449.5 326.171875 449.609375 326.203125 C 450.066406 326.335938 450.511719 326.507812 450.960938 326.65625 C 450.980469 326.664062 450.980469 326.660156 450.992188 326.664062 C 451.066406 326.710938 451.125 326.746094 451.234375 326.808594 C 451.757812 327.113281 452.289062 327.410156 452.816406 327.714844 C 452.921875 327.773438 453.019531 327.847656 453.121094 327.917969 C 453.300781 328.046875 453.722656 328.351562 453.875 328.5 C 454.40625 329.023438 454.9375 329.53125 455.4375 330.085938 C 455.523438 330.179688 455.535156 330.199219 455.59375 330.261719 C 455.808594 330.558594 456.027344 330.863281 456.214844 331.175781 C 457.453125 333.210938 457.753906 333.832031 458.410156 336.230469 C 459.5 340.210938 459.539062 344.347656 459.234375 348.441406 C 458.945312 352.296875 458.34375 355.664062 457.351562 360.058594 Z M 505.21875 387.332031 C 502.597656 382.316406 496.738281 383.519531 494.132812 387.085938 C 494.285156 386.273438 494.476562 385.464844 494.605469 384.648438 C 496.191406 374.789062 496.222656 364.625 492.125 355.347656 C 490.328125 351.277344 487.617188 347.355469 483.875 344.84375 C 477.042969 340.253906 470.660156 350.53125 476.203125 355.660156 C 476.21875 355.691406 476.21875 355.699219 476.257812 355.753906 C 476.613281 356.191406 477.144531 356.589844 477.546875 356.992188 C 477.75 357.191406 477.917969 357.4375 478.117188 357.640625 C 478.132812 357.667969 478.132812 357.675781 478.152344 357.703125 C 478.765625 358.707031 479.382812 359.683594 479.929688 360.730469 C 480.058594 360.980469 480.167969 361.242188 480.285156 361.5 C 480.296875 361.535156 480.300781 361.542969 480.3125 361.585938 C 480.519531 362.214844 480.757812 362.832031 480.949219 363.46875 C 481.183594 364.25 481.386719 365.039062 481.566406 365.835938 C 481.65625 366.230469 481.972656 368.207031 482 368.191406 C 482.480469 372.460938 482.339844 376.851562 481.6875 381.089844 C 479.5625 394.878906 473.636719 408.195312 467.699219 420.71875 C 462.804688 431.035156 457.328125 441.085938 451.277344 450.773438 C 448.472656 455.257812 445.589844 459.742188 442.390625 463.960938 C 440.207031 466.847656 441.9375 471.453125 444.796875 473.125 C 448.230469 475.136719 451.769531 473.617188 453.960938 470.722656 C 464.003906 457.46875 472.167969 442.460938 479.269531 427.480469 C 484.59375 416.242188 489.949219 404.4375 493 392.234375 C 493.132812 392.84375 493.320312 393.464844 493.652344 394.09375 C 493.746094 394.277344 493.820312 394.472656 493.914062 394.65625 C 492.671875 392.21875 493.738281 394.277344 494.035156 395.171875 C 494.816406 397.539062 495.320312 399.984375 495.707031 402.445312 C 495.738281 402.75 495.894531 403.9375 495.914062 404.15625 C 496.007812 405.089844 496.078125 406.027344 496.132812 406.96875 C 496.273438 409.417969 496.296875 411.875 496.226562 414.324219 C 496.054688 420.152344 495.332031 425.921875 494.199219 431.632812 C 489.824219 453.738281 480.34375 474.488281 468.886719 493.773438 C 461.933594 505.472656 454.203125 516.730469 445.847656 527.472656 C 437.738281 537.898438 429.277344 548.378906 419.445312 557.246094 C 404.597656 570.636719 386.179688 580.808594 368.03125 587.886719 C 357.6875 591.921875 346.894531 595.542969 335.957031 597.597656 C 332.808594 598.191406 331.402344 601.273438 331.039062 604.058594 C 331.558594 600.082031 330.859375 604.449219 330.613281 605.414062 C 329.898438 608.226562 328.960938 610.984375 327.9375 613.695312 C 326.964844 616.273438 326.679688 616.914062 325.867188 618.742188 C 324.640625 621.488281 323.332031 624.191406 321.953125 626.863281 C 318.660156 633.257812 314.996094 639.460938 311.101562 645.507812 C 293.867188 672.273438 272.0625 695.960938 249.519531 718.320312 C 244.144531 723.648438 238.71875 728.941406 233.117188 734.039062 C 226.726562 739.855469 236.226562 749.308594 242.59375 743.511719 C 258.320312 729.195312 273.222656 713.828125 287.347656 697.941406 C 308.105469 674.582031 327.992188 649.023438 339.839844 619.847656 C 341.1875 616.53125 342.394531 613.148438 343.289062 609.691406 C 351.5 607.871094 359.597656 605.261719 367.449219 602.375 C 387.707031 594.933594 406.96875 584.859375 423.726562 571.175781 C 434.023438 562.769531 442.648438 552.707031 450.984375 542.40625 C 460.199219 531.015625 468.871094 519.167969 476.660156 506.753906 C 489.214844 486.734375 499.964844 464.917969 505.636719 441.878906 C 508.742188 429.269531 510.675781 415.839844 509.171875 402.851562 C 508.566406 397.617188 507.699219 392.066406 505.21875 387.332031 Z M 552.664062 285.566406 C 552.546875 285.160156 552.40625 284.753906 552.238281 284.351562 C 548.863281 276.40625 544.199219 269.046875 538.707031 262.363281 C 538.675781 262.328125 538.644531 262.292969 538.617188 262.253906 C 537.195312 260.53125 535.722656 258.851562 534.195312 257.222656 C 534.0625 257.085938 533.941406 256.941406 533.808594 256.804688 C 530.898438 253.738281 527.828125 250.832031 524.601562 248.132812 C 520.09375 244.359375 515.277344 240.671875 510.164062 237.621094 C 509.839844 237.429688 509.511719 237.253906 509.183594 237.066406 C 509.183594 237.050781 509.179688 237.035156 509.179688 237.019531 C 504.4375 192.085938 493.828125 147.539062 478.535156 105.046875 C 477.410156 101.921875 476.273438 98.792969 475.03125 95.707031 C 473.683594 92.355469 470.566406 89.992188 466.792969 91.03125 C 463.609375 91.90625 460.753906 95.894531 462.113281 99.269531 C 463.269531 102.148438 464.378906 105.050781 465.460938 107.964844 C 471.726562 124.84375 476.78125 142.261719 481.308594 159.625 C 483.867188 169.433594 486.175781 179.3125 488.234375 189.238281 C 488.339844 189.742188 488.449219 190.246094 488.550781 190.75 C 489.46875 195.230469 490.316406 199.730469 491.121094 204.234375 C 491.285156 205.160156 491.449219 206.085938 491.609375 207.011719 C 492.425781 211.746094 493.199219 216.488281 493.882812 221.242188 C 493.882812 221.253906 493.886719 221.265625 493.886719 221.277344 C 494.328125 224.339844 494.722656 227.40625 495.09375 230.480469 C 495.140625 230.871094 495.179688 231.265625 495.226562 231.660156 C 495.453125 233.59375 495.683594 235.53125 495.886719 237.46875 C 496.144531 239.941406 496.253906 242.238281 497.183594 244.171875 C 497.433594 244.691406 497.765625 245.171875 498.148438 245.632812 C 498.261719 245.765625 498.378906 245.894531 498.503906 246.023438 C 498.800781 246.328125 499.144531 246.617188 499.527344 246.894531 C 499.699219 247.019531 499.84375 247.152344 500.035156 247.269531 C 500.144531 247.339844 500.253906 247.402344 500.363281 247.472656 C 503.132812 249.167969 505.933594 250.761719 508.609375 252.628906 C 512.71875 255.496094 516.832031 258.875 520.796875 262.695312 C 521.164062 263.050781 521.523438 263.421875 521.886719 263.78125 C 522.671875 264.5625 523.453125 265.363281 524.226562 266.179688 C 524.515625 266.480469 524.8125 266.761719 525.097656 267.070312 C 525.261719 267.25 525.402344 267.445312 525.566406 267.621094 C 526.820312 269 528.019531 270.421875 529.171875 271.871094 C 529.535156 272.328125 529.894531 272.78125 530.246094 273.242188 C 531.472656 274.855469 532.660156 276.5 533.765625 278.195312 C 533.875 278.363281 533.980469 278.53125 534.089844 278.695312 C 536.617188 282.632812 538.824219 286.773438 540.667969 291.117188 C 540.675781 291.132812 540.691406 291.148438 540.699219 291.167969 C 542.144531 294.449219 547.011719 295.167969 549.832031 293.519531 C 552.871094 291.742188 553.519531 288.582031 552.664062 285.566406 Z M 552.664062 285.566406 " fill-opacity="1" fill-rule="nonzero"/><path fill="#867cb3" d="M 499.867188 247.179688 C 499.734375 247.101562 499.652344 246.980469 499.527344 246.894531 C 499.699219 247.019531 499.84375 247.152344 500.035156 247.269531 C 500.144531 247.339844 500.253906 247.402344 500.363281 247.46875 C 500.199219 247.371094 500.027344 247.28125 499.867188 247.179688 Z M 495.886719 237.46875 C 495.683594 235.53125 495.453125 233.59375 495.226562 231.660156 C 495.613281 235.480469 495.363281 240.589844 497.183594 244.171875 C 496.253906 242.238281 496.144531 239.941406 495.886719 237.46875 Z M 538.660156 262.304688 C 538.644531 262.289062 538.628906 262.273438 538.617188 262.257812 C 538.644531 262.292969 538.675781 262.328125 538.707031 262.363281 C 538.691406 262.34375 538.675781 262.324219 538.660156 262.304688 Z M 525.097656 267.070312 C 524.8125 266.761719 524.515625 266.480469 524.226562 266.179688 C 524.675781 266.65625 525.125 267.136719 525.566406 267.621094 C 525.402344 267.445312 525.261719 267.25 525.097656 267.070312 Z M 510.164062 237.621094 C 509.835938 237.421875 509.511719 237.214844 509.179688 237.023438 C 509.179688 237.039062 509.183594 237.054688 509.183594 237.070312 C 509.511719 237.253906 509.84375 237.429688 510.164062 237.621094 Z M 346.601562 344.210938 C 346.097656 348.722656 345.820312 353.257812 345.929688 357.796875 C 345.976562 359.722656 346.089844 361.644531 346.277344 363.5625 C 346.320312 363.996094 346.605469 366.007812 346.453125 365.070312 C 346.523438 365.539062 346.59375 366.011719 346.675781 366.476562 C 347.03125 368.503906 347.480469 370.527344 348.109375 372.488281 C 348.53125 373.804688 349.277344 375.296875 348.21875 373.019531 C 349.75 376.3125 349.183594 380.214844 345.816406 382.183594 C 342.902344 383.886719 338.175781 383.0625 336.652344 379.78125 C 336.117188 378.632812 335.648438 377.445312 335.25 376.238281 C 329.859375 359.796875 332.667969 340.484375 336.953125 324.210938 C 340.773438 309.707031 346.230469 294.65625 354.195312 281.886719 C 355.089844 280.453125 356.03125 279.050781 357 277.664062 C 355.769531 277.019531 354.5625 276.34375 353.402344 275.589844 C 345.933594 270.746094 340.132812 263.835938 334.878906 256.757812 C 328.699219 248.429688 323.441406 239.425781 318.566406 230.285156 C 303.367188 201.769531 291.039062 171.265625 280.882812 140.589844 C 278.160156 132.371094 291.105469 128.882812 293.800781 137.027344 C 294.015625 137.671875 294.234375 138.316406 294.453125 138.957031 C 305.472656 171.316406 317.726562 202.304688 334.828125 232.003906 C 337.242188 236.191406 339.765625 240.320312 342.460938 244.332031 C 343.746094 246.25 345.070312 248.140625 346.445312 249.992188 C 346.765625 250.421875 347.085938 250.847656 347.410156 251.273438 C 347.511719 251.402344 347.644531 251.570312 347.691406 251.632812 C 348.324219 252.425781 348.957031 253.210938 349.609375 253.984375 C 352.085938 256.921875 354.738281 259.738281 357.6875 262.210938 C 357.917969 262.40625 358.15625 262.59375 358.394531 262.785156 C 358.59375 262.933594 358.898438 263.164062 359.015625 263.242188 C 359.652344 263.667969 360.277344 264.105469 360.929688 264.503906 C 362.414062 265.410156 363.96875 266.183594 365.546875 266.921875 C 365.550781 266.921875 365.558594 266.925781 365.5625 266.929688 C 369.152344 262.957031 373.003906 259.21875 377.0625 255.757812 C 394.191406 241.136719 414.917969 229.734375 436.820312 224.195312 C 451.148438 220.570312 472.617188 217.683594 483.445312 230.644531 C 488.5625 236.765625 490.105469 245.460938 487.648438 253.050781 C 485.027344 261.144531 478.578125 267.183594 471.515625 271.554688 C 453.941406 282.429688 431.402344 285.835938 411.113281 286.601562 C 400.226562 287.011719 389.28125 286.390625 378.546875 284.484375 C 375.71875 283.980469 372.851562 283.355469 370.007812 282.59375 C 364.808594 289.660156 360.648438 297.585938 357.203125 306.042969 C 352.300781 318.074219 347.964844 332.019531 346.601562 344.210938 Z M 475.324219 244.070312 C 475.390625 244.648438 475.378906 244.398438 475.324219 244.070312 Z M 380.070312 271.128906 C 380.972656 271.308594 381.863281 271.523438 382.769531 271.679688 C 383.785156 271.851562 384.800781 272.011719 385.820312 272.15625 C 386.128906 272.195312 387.078125 272.320312 387.089844 272.324219 C 387.554688 272.378906 388.019531 272.429688 388.484375 272.480469 C 398.722656 273.589844 409.09375 273.578125 419.351562 272.695312 C 428.664062 271.894531 438.164062 270.265625 447.792969 267.335938 C 450.011719 266.660156 452.214844 265.917969 454.386719 265.089844 C 456.757812 264.1875 456.640625 264.25 459.117188 263.054688 C 461.042969 262.128906 462.933594 261.113281 464.753906 259.988281 C 465.535156 259.503906 466.300781 259.003906 467.054688 258.476562 C 467.417969 258.222656 467.773438 257.960938 468.128906 257.699219 C 468.167969 257.667969 468.179688 257.65625 468.230469 257.613281 C 469.617188 256.421875 470.902344 255.183594 472.148438 253.84375 C 472.351562 253.625 472.464844 253.515625 472.542969 253.441406 C 472.597656 253.347656 472.679688 253.214844 472.816406 253 C 473.222656 252.367188 473.636719 251.75 474 251.089844 C 474.203125 250.722656 474.378906 250.34375 474.570312 249.96875 C 474.578125 249.9375 474.578125 249.933594 474.585938 249.898438 C 474.792969 249.207031 475.003906 248.519531 475.195312 247.824219 C 475.265625 247.574219 475.285156 247.308594 475.347656 247.058594 C 475.347656 247.042969 475.34375 247.042969 475.34375 247.023438 C 475.269531 246.304688 475.40625 245.53125 475.371094 244.800781 C 475.355469 244.5 475.324219 244.203125 475.292969 243.90625 C 475.28125 243.832031 475.261719 243.757812 475.246094 243.703125 C 475.050781 243.066406 474.859375 242.371094 474.714844 241.71875 C 474.691406 241.613281 474.6875 241.566406 474.679688 241.503906 C 474.640625 241.441406 474.613281 241.410156 474.5625 241.324219 C 474.238281 240.78125 473.910156 240.226562 473.597656 239.675781 C 473.582031 239.644531 473.582031 239.640625 473.570312 239.613281 C 473.539062 239.582031 473.527344 239.574219 473.488281 239.539062 C 473.308594 239.363281 473.148438 239.164062 472.972656 238.984375 C 472.730469 238.734375 472.460938 238.515625 472.199219 238.285156 C 472.039062 238.183594 471.28125 237.59375 470.988281 237.417969 C 470.40625 237.066406 469.796875 236.78125 469.199219 236.464844 C 469.171875 236.453125 469.171875 236.449219 469.152344 236.4375 C 469.113281 236.425781 469.101562 236.425781 469.054688 236.410156 C 468.710938 236.304688 468.375 236.167969 468.035156 236.054688 C 467.324219 235.824219 466.605469 235.625 465.882812 235.449219 C 465.125 235.265625 464.359375 235.125 463.59375 234.984375 C 463.351562 234.941406 463.1875 234.910156 463.074219 234.886719 C 462.960938 234.882812 462.792969 234.875 462.457031 234.851562 C 458.605469 234.5625 454.8125 234.683594 450.972656 235.0625 C 450.789062 235.082031 450.164062 235.160156 449.910156 235.191406 C 449.558594 235.246094 449.210938 235.296875 448.859375 235.351562 C 447.828125 235.515625 446.800781 235.699219 445.777344 235.902344 C 443.640625 236.320312 441.519531 236.8125 439.414062 237.363281 C 434.789062 238.582031 430.238281 240.089844 425.78125 241.824219 C 416.941406 245.265625 406.921875 250.59375 398.359375 256.324219 C 391.820312 260.703125 385.722656 265.574219 380.070312 271.128906 Z M 488.503906 190.507812 C 488.417969 190.085938 488.320312 189.660156 488.234375 189.238281 C 488.339844 189.742188 488.449219 190.246094 488.550781 190.75 C 488.535156 190.667969 488.519531 190.585938 488.503906 190.507812 Z M 763.417969 373.90625 C 760.609375 372.542969 757.71875 371.398438 754.777344 370.457031 C 754.761719 370.449219 754.746094 370.445312 754.726562 370.4375 C 765.613281 363.253906 775.152344 353.996094 782.644531 343.289062 C 795.964844 324.246094 802.71875 299.085938 795.457031 277.160156 C 795.160156 276.265625 794.820312 275.382812 794.476562 274.5 C 794.453125 274.4375 794.425781 274.375 794.402344 274.3125 C 792.652344 269.871094 790.359375 265.566406 787.332031 261.515625 C 786.078125 259.835938 784.742188 258.230469 783.351562 256.679688 C 775.722656 248.171875 766.167969 241.65625 755.527344 237.453125 C 755.421875 237.414062 755.3125 237.382812 755.207031 237.339844 C 753.886719 236.824219 752.539062 236.367188 751.1875 235.925781 C 750.800781 235.796875 750.425781 235.640625 750.039062 235.519531 C 749.734375 235.425781 749.449219 235.394531 749.160156 235.339844 C 741.554688 233.9375 738.558594 245.980469 746.476562 248.441406 C 746.507812 248.449219 746.535156 248.460938 746.566406 248.472656 C 768.75 255.402344 786.46875 274.738281 785.207031 298.847656 C 784.914062 304.511719 783.777344 310.101562 781.984375 315.511719 C 781.757812 316.203125 781.507812 316.886719 781.257812 317.570312 C 781.164062 317.835938 781.058594 318.097656 780.960938 318.359375 C 775.75 332.117188 766.273438 344.527344 755 353.730469 C 754.90625 353.804688 754.8125 353.878906 754.71875 353.957031 C 753.261719 355.136719 751.78125 356.261719 750.273438 357.328125 C 749.984375 357.535156 749.699219 357.753906 749.40625 357.957031 C 749.359375 357.988281 749.308594 358.027344 749.261719 358.0625 C 748.117188 358.84375 746.953125 359.582031 745.78125 360.308594 C 744.230469 361.273438 742.660156 362.195312 741.0625 363.058594 C 740.949219 363.117188 740.839844 363.179688 740.726562 363.242188 C 737.542969 364.941406 734.257812 366.421875 730.898438 367.714844 C 724.238281 368.324219 717.667969 370.113281 711.460938 373.191406 C 708.507812 374.660156 707.464844 378.703125 708.71875 381.558594 C 710.15625 384.828125 713.222656 385.972656 716.625 385.4375 C 718.132812 385.199219 719.632812 384.910156 721.125 384.597656 C 721.617188 384.492188 722.101562 384.378906 722.589844 384.265625 C 723.605469 384.035156 724.617188 383.792969 725.621094 383.527344 C 726.164062 383.386719 726.703125 383.242188 727.242188 383.089844 C 728.269531 382.800781 729.289062 382.488281 730.304688 382.164062 C 730.746094 382.023438 731.191406 381.894531 731.632812 381.746094 C 732.5625 381.433594 733.476562 381.089844 734.398438 380.75 C 734.410156 380.75 734.421875 380.75 734.4375 380.75 C 753.109375 380.035156 772.25 391.554688 779.445312 409.039062 C 784.65625 421.703125 784.128906 436.097656 779.46875 448.824219 C 774.71875 461.777344 764.886719 472.042969 752.808594 478.460938 C 739.023438 485.789062 722.523438 487.921875 707.289062 484.671875 C 698.878906 482.878906 695.285156 495.789062 703.726562 497.589844 C 737.113281 504.714844 775.503906 490.40625 790.054688 458.066406 C 796.902344 442.84375 798.710938 425.183594 793.65625 409.125 C 788.824219 393.777344 777.910156 380.960938 763.417969 373.90625 Z M 552.664062 285.566406 C 553.519531 288.582031 552.871094 291.742188 549.832031 293.519531 C 547.011719 295.167969 542.144531 294.449219 540.699219 291.167969 C 545.867188 303.050781 549.148438 316.046875 551.417969 328.703125 C 552.519531 334.835938 553.308594 339.769531 553.527344 346.335938 C 553.8125 354.9375 567.210938 354.972656 566.925781 346.335938 C 566.351562 329.019531 562.140625 311.257812 556.394531 295.003906 C 555.25 291.777344 554.007812 288.636719 552.664062 285.566406 Z M 558.5625 674.972656 C 555.738281 673.320312 550.832031 674.035156 549.394531 677.375 C 542.046875 694.476562 526.148438 705.433594 508.273438 709.246094 C 503.269531 694.894531 498.484375 680.464844 493.992188 665.941406 C 491.449219 657.730469 478.511719 661.234375 481.070312 669.503906 C 485.355469 683.34375 489.914062 697.097656 494.660156 710.785156 C 487.917969 710.921875 481.132812 710.222656 474.585938 708.898438 C 465.214844 707 456 704.105469 447.789062 699.125 C 439.828125 694.296875 433.355469 687.53125 431.449219 678.199219 C 430.21875 672.171875 422.167969 672.144531 419.203125 676.597656 C 411.65625 687.933594 398.804688 698.21875 384.429688 693.875 C 368.640625 689.101562 371.1875 670.691406 374.78125 658.277344 C 377.1875 649.980469 364.261719 646.4375 361.863281 654.71875 C 359.019531 664.527344 357.117188 675.292969 359.796875 685.363281 C 362.507812 695.566406 370.070312 703.148438 379.976562 706.507812 C 396.25 712.027344 411.691406 704.609375 422.867188 693.121094 C 431.375 707.785156 449.042969 716.296875 465.027344 720.429688 C 476.09375 723.292969 487.792969 724.609375 499.269531 723.847656 C 504.179688 737.527344 509.273438 751.140625 514.640625 764.648438 C 515.976562 768.011719 519.121094 770.363281 522.882812 769.328125 C 526.078125 768.449219 528.902344 764.46875 527.558594 761.089844 C 522.402344 748.113281 517.511719 735.039062 512.777344 721.90625 C 521.253906 719.988281 529.410156 716.75 536.847656 711.875 C 547.242188 705.066406 556.027344 695.625 560.964844 684.136719 C 562.390625 680.816406 561.953125 676.957031 558.5625 674.972656 Z M 558.5625 674.972656 " fill-opacity="1" fill-rule="nonzero"/><path fill="#f6cb48" d="M 746.566406 248.472656 C 746.535156 248.460938 746.507812 248.449219 746.476562 248.441406 C 738.558594 245.980469 741.554688 233.9375 749.160156 235.339844 C 730.492188 229.945312 710.066406 231.417969 691.433594 236.726562 C 685.210938 238.5 679.117188 240.695312 673.15625 243.226562 C 671.589844 236.460938 668.886719 229.957031 664.882812 224.011719 C 652.980469 206.335938 632.019531 194.597656 610.4375 197.671875 C 588.96875 200.730469 572.679688 218.046875 563.859375 236.910156 C 561.601562 241.742188 559.683594 246.722656 558.15625 251.832031 C 555.679688 260.109375 568.605469 263.648438 571.074219 255.394531 C 575.917969 239.203125 585.347656 222.828125 600.742188 214.703125 C 615.683594 206.816406 633.394531 210.945312 645.566406 221.992188 C 653.71875 229.390625 658.730469 238.929688 660.636719 249.222656 C 648.871094 255.453125 637.824219 263.058594 627.867188 271.847656 C 619.617188 279.128906 612.183594 287.324219 608.894531 298.066406 C 605.863281 307.964844 608.28125 319.476562 618.1875 324.421875 C 629.050781 329.847656 641.132812 324.070312 649.425781 316.644531 C 657.773438 309.171875 664.144531 298.941406 668.480469 288.699219 C 672.675781 278.785156 674.957031 267.894531 674.796875 257.128906 C 678.941406 255.246094 683.15625 253.519531 687.445312 252.035156 C 706.257812 245.515625 727.277344 242.535156 746.566406 248.472656 Z M 660.421875 269.785156 C 658.550781 279.121094 654.808594 287.851562 649.546875 295.773438 C 644.96875 302.667969 638.757812 310.363281 630.453125 312.714844 C 627.605469 313.523438 624.339844 313.382812 622.40625 311.109375 C 621.507812 310.050781 621.226562 309.210938 621.003906 307.867188 C 620.894531 307.21875 620.992188 304.910156 621.257812 303.746094 C 623.132812 295.4375 628.730469 289.210938 634.8125 283.601562 C 642.851562 276.1875 651.761719 269.660156 661.246094 264.132812 C 661.0625 266.015625 660.800781 267.902344 660.421875 269.785156 Z M 745.78125 360.308594 C 747.003906 359.542969 748.226562 358.78125 749.40625 357.957031 C 749.359375 357.992188 749.308594 358.027344 749.261719 358.0625 C 748.117188 358.84375 746.953125 359.582031 745.78125 360.308594 Z M 798.671875 294.675781 C 799.136719 317.574219 787.632812 340.171875 771.945312 356.308594 C 766.777344 361.621094 760.996094 366.371094 754.78125 370.457031 C 754.761719 370.449219 754.746094 370.445312 754.730469 370.4375 C 765.613281 363.253906 775.152344 353.996094 782.644531 343.289062 C 795.964844 324.246094 802.71875 299.085938 795.457031 277.160156 C 797.402344 282.707031 798.546875 288.578125 798.671875 294.675781 Z M 771.910156 335.367188 C 770.972656 336.726562 770.007812 338.039062 769.019531 339.3125 C 770.019531 338.023438 770.980469 336.707031 771.910156 335.367188 Z M 767.960938 340.652344 C 767.296875 341.472656 766.625 342.285156 765.933594 343.082031 C 766.625 342.285156 767.296875 341.472656 767.960938 340.652344 Z M 780.960938 318.359375 C 778.785156 324.109375 775.828125 329.597656 772.339844 334.742188 C 775.730469 329.71875 778.710938 324.175781 780.960938 318.359375 Z M 772.339844 334.742188 C 772.199219 334.953125 772.050781 335.15625 771.910156 335.367188 C 772.050781 335.15625 772.199219 334.953125 772.339844 334.742188 Z M 764.523438 344.648438 C 764.996094 344.128906 765.472656 343.613281 765.933594 343.082031 C 765.472656 343.613281 764.996094 344.128906 764.523438 344.648438 Z M 767.960938 340.652344 C 768.316406 340.210938 768.667969 339.761719 769.019531 339.3125 C 768.878906 339.492188 768.753906 339.691406 768.613281 339.867188 C 768.402344 340.132812 768.171875 340.386719 767.960938 340.652344 Z M 764.523438 344.648438 C 763.847656 345.390625 763.171875 346.132812 762.472656 346.851562 C 763.171875 346.136719 763.847656 345.390625 764.523438 344.648438 Z M 758.804688 350.421875 C 759.492188 349.792969 760.148438 349.136719 760.8125 348.488281 C 760.144531 349.136719 759.488281 349.796875 758.804688 350.421875 Z M 758.804688 350.421875 C 757.5625 351.5625 756.296875 352.671875 755 353.730469 C 756.300781 352.664062 757.566406 351.558594 758.804688 350.421875 Z M 762.472656 346.851562 C 761.929688 347.410156 761.367188 347.945312 760.8125 348.488281 C 761.367188 347.945312 761.933594 347.410156 762.472656 346.851562 Z M 734.398438 380.75 C 734.410156 380.75 734.421875 380.75 734.433594 380.75 C 733.503906 381.09375 732.574219 381.433594 731.632812 381.746094 C 732.5625 381.4375 733.476562 381.089844 734.398438 380.75 Z M 777.496094 250.878906 C 777.324219 250.722656 777.148438 250.574219 776.972656 250.421875 C 777.148438 250.574219 777.324219 250.722656 777.496094 250.878906 Z M 780.070312 253.273438 C 779.230469 252.453125 778.375 251.652344 777.496094 250.878906 C 778.375 251.660156 779.234375 252.449219 780.070312 253.273438 Z M 776.972656 250.421875 C 770.640625 244.925781 763.382812 240.554688 755.527344 237.453125 C 758.503906 238.601562 761.425781 239.9375 764.269531 241.488281 C 768.847656 243.984375 773.085938 247.019531 776.972656 250.421875 Z M 780.070312 253.273438 C 781.191406 254.382812 782.3125 255.5 783.351562 256.679688 C 782.296875 255.503906 781.195312 254.371094 780.070312 253.273438 Z M 306.476562 283.503906 C 295.425781 290.503906 282.980469 294.566406 270.050781 296.222656 C 236.984375 300.449219 206.535156 287.882812 180.890625 268.429688 C 184.496094 276.460938 187.699219 284.671875 190.46875 293.03125 C 202.183594 328.40625 208.882812 372.132812 182.699219 402.886719 C 166.519531 421.882812 140.292969 432.34375 115.40625 429.980469 C 118.714844 434.691406 121.894531 439.492188 124.863281 444.429688 C 135.199219 461.636719 142.863281 480.644531 144.066406 500.847656 C 145.199219 519.8125 140.265625 538.574219 128.511719 553.613281 C 126.273438 556.480469 121.355469 555.929688 119.039062 553.613281 C 116.261719 550.835938 116.8125 546.988281 119.039062 544.140625 C 131.890625 527.691406 133.164062 504.484375 128.101562 484.941406 C 122.09375 461.730469 107.9375 441.65625 93.605469 422.84375 C 90.113281 418.257812 95.972656 411.042969 101.171875 413.003906 C 115.636719 418.460938 131.144531 417.964844 145.609375 412.683594 C 157.816406 408.226562 169.15625 399.914062 176.484375 389.117188 C 186.03125 375.042969 188.351562 357.832031 187.21875 341.171875 C 185.980469 322.871094 180.773438 304.683594 174.367188 287.570312 C 167.859375 270.1875 159.207031 253.652344 148.9375 238.199219 C 144.714844 231.84375 154.445312 224.4375 159.460938 230.082031 C 167.585938 239.226562 176.289062 247.878906 185.8125 255.574219 C 202.003906 268.65625 220.984375 278.683594 241.613281 282.296875 C 261.472656 285.777344 282.554688 282.804688 299.714844 271.933594 C 307.027344 267.304688 313.742188 278.902344 306.476562 283.503906 Z M 306.476562 283.503906 " fill-opacity="1" fill-rule="nonzero"/></svg>