<svg xmlns="http://www.w3.org/2000/svg" xmlns:xlink="http://www.w3.org/1999/xlink" width="1200" zoomAndPan="magnify" viewBox="0 0 900 899.99999" height="1200" preserveAspectRatio="xMidYMid meet" version="1.0"><defs><clipPath id="5a399af762"><path d="M 90 116 L 810 116 L 810 785.28125 L 90 785.28125 Z M 90 116 " clip-rule="nonzero"/></clipPath><clipPath id="1093e99d88"><path d="M 178 235 L 810 235 L 810 785.28125 L 178 785.28125 Z M 178 235 " clip-rule="nonzero"/></clipPath><clipPath id="e2fd964027"><path d="M 90 308 L 543 308 L 543 785.28125 L 90 785.28125 Z M 90 308 " clip-rule="nonzero"/></clipPath></defs><g clip-path="url(#5a399af762)"><path fill="#f6cb48" d="M 542.902344 587.089844 C 542.871094 590.011719 542.839844 592.9375 542.804688 595.859375 C 542.597656 614.746094 542.390625 633.632812 542.179688 652.519531 C 541.925781 675.636719 541.667969 698.753906 541.414062 721.871094 C 541.285156 733.414062 541.246094 744.957031 541.03125 756.496094 C 540.730469 772.347656 528.105469 785.097656 512.191406 785.285156 C 510 785.3125 507.8125 785.285156 505.621094 785.285156 C 492.351562 785.285156 479.078125 785.285156 465.804688 785.285156 C 444.746094 785.285156 423.6875 785.285156 402.625 785.285156 C 378.746094 785.285156 354.863281 785.285156 330.984375 785.285156 C 308.980469 785.285156 286.976562 785.285156 264.972656 785.285156 C 249.808594 785.285156 234.648438 785.285156 219.488281 785.285156 C 216 785.285156 212.507812 785.285156 209.019531 785.285156 C 208.730469 785.285156 208.453125 785.25 208.164062 785.242188 C 207.992188 785.253906 207.835938 785.289062 207.65625 785.285156 C 199.839844 785.171875 192.265625 782.027344 186.898438 776.355469 C 186.898438 776.351562 186.894531 776.351562 186.894531 776.351562 C 186.441406 775.871094 185.972656 775.40625 185.550781 774.886719 C 185.324219 774.609375 185.132812 774.320312 184.921875 774.035156 C 184.800781 773.882812 184.660156 773.75 184.542969 773.59375 C 182.589844 771 181.308594 768.292969 180.460938 765.507812 C 180.453125 765.484375 180.445312 765.460938 180.4375 765.4375 C 180.394531 765.296875 180.367188 765.152344 180.324219 765.011719 C 179.34375 761.78125 178.882812 758.378906 178.882812 754.863281 C 178.882812 754.359375 178.882812 753.851562 178.882812 753.34375 C 178.839844 750.867188 178.882812 748.359375 178.882812 745.839844 C 178.882812 733.511719 178.882812 721.183594 178.882812 708.855469 C 178.882812 708.742188 178.882812 708.628906 178.882812 708.515625 C 178.882812 689.753906 178.882812 670.988281 178.882812 652.222656 C 178.882812 652.074219 178.882812 651.925781 178.882812 651.773438 C 178.882812 629.140625 178.882812 606.507812 178.882812 583.875 C 178.882812 583.707031 178.882812 583.539062 178.882812 583.371094 C 178.882812 559.433594 178.882812 535.5 178.882812 511.5625 C 178.882812 511.394531 178.882812 511.226562 178.882812 511.058594 C 178.882812 488.390625 178.882812 465.71875 178.882812 443.050781 C 178.882812 442.898438 178.882812 442.75 178.882812 442.597656 C 178.882812 423.707031 178.882812 404.8125 178.882812 385.917969 C 178.882812 385.863281 178.882812 385.804688 178.882812 385.746094 C 178.882812 373.28125 178.882812 360.816406 178.882812 348.351562 C 178.882812 344.140625 178.738281 339.933594 179.085938 335.832031 C 179.101562 335.675781 179.121094 335.519531 179.132812 335.363281 C 179.175781 334.941406 179.214844 334.519531 179.265625 334.097656 C 179.296875 333.828125 179.34375 333.5625 179.378906 333.296875 C 179.425781 332.988281 179.460938 332.679688 179.515625 332.375 C 179.574219 332.011719 179.652344 331.648438 179.722656 331.289062 C 179.765625 331.082031 179.796875 330.875 179.84375 330.667969 C 179.941406 330.234375 180.050781 329.800781 180.167969 329.371094 C 180.203125 329.238281 180.230469 329.105469 180.265625 328.972656 C 180.402344 328.496094 180.554688 328.023438 180.714844 327.550781 C 180.742188 327.46875 180.765625 327.382812 180.792969 327.300781 C 180.949219 326.859375 181.121094 326.425781 181.300781 325.988281 C 181.347656 325.875 181.386719 325.757812 181.433594 325.644531 C 181.613281 325.226562 181.816406 324.8125 182.023438 324.398438 C 182.085938 324.273438 182.136719 324.144531 182.203125 324.015625 C 182.429688 323.578125 182.683594 323.140625 182.941406 322.703125 C 183 322.609375 183.046875 322.511719 183.105469 322.414062 C 183.429688 321.882812 183.78125 321.359375 184.15625 320.839844 C 184.808594 319.9375 185.503906 319.082031 186.238281 318.269531 C 186.371094 318.121094 186.523438 317.992188 186.660156 317.847656 C 191.773438 312.421875 198.707031 309.097656 206.285156 308.675781 C 215.1875 308.167969 224.257812 308.671875 233.175781 308.691406 C 255.882812 308.738281 278.59375 308.777344 301.304688 308.796875 C 307.902344 308.804688 307.890625 319.039062 301.304688 319.03125 C 289.921875 319.019531 278.535156 319.003906 267.152344 318.988281 C 264.90625 318.984375 262.660156 318.972656 260.414062 318.96875 C 252.1875 318.953125 243.957031 318.945312 235.726562 318.929688 C 226.820312 318.914062 217.910156 318.894531 209 318.871094 C 206.464844 318.867188 204.023438 319.246094 201.75 319.992188 C 201.476562 320.085938 201.195312 320.171875 200.925781 320.277344 C 200.816406 320.320312 200.710938 320.371094 200.605469 320.414062 C 195.195312 322.679688 191.140625 327.28125 189.703125 333.121094 C 189.234375 335.277344 189.113281 337.488281 189.113281 339.769531 C 189.113281 345.433594 189.113281 351.09375 189.113281 356.757812 C 189.113281 359.652344 189.113281 362.550781 189.113281 365.445312 C 189.113281 376.945312 189.113281 388.449219 189.113281 399.949219 C 189.113281 404.515625 189.113281 409.085938 189.113281 413.652344 C 189.113281 428.976562 189.113281 444.304688 189.113281 459.632812 C 189.113281 465.285156 189.113281 470.9375 189.113281 476.589844 C 189.113281 494 189.113281 511.410156 189.113281 528.824219 C 189.113281 534.953125 189.113281 541.085938 189.113281 547.214844 C 189.113281 564.777344 189.113281 582.335938 189.113281 599.898438 C 189.113281 605.789062 189.113281 611.683594 189.113281 617.574219 C 189.113281 633.453125 189.113281 649.332031 189.113281 665.210938 C 189.113281 670.296875 189.113281 675.386719 189.113281 680.472656 C 189.113281 692.867188 189.113281 705.261719 189.113281 717.65625 C 189.113281 721.308594 189.113281 724.960938 189.113281 728.613281 C 189.113281 735.726562 189.113281 742.839844 189.113281 749.957031 C 189.113281 751.367188 189.113281 752.78125 189.113281 754.195312 C 189.113281 756.6875 189.28125 759.09375 189.871094 761.417969 C 191.164062 765.953125 194.066406 769.769531 197.960938 772.203125 C 201.28125 774.15625 205.1875 775.054688 209.261719 775.054688 C 219.199219 775.054688 229.136719 775.054688 239.074219 775.054688 C 258.003906 775.054688 276.929688 775.054688 295.859375 775.054688 C 319.183594 775.054688 342.507812 775.054688 365.832031 775.054688 C 388.695312 775.054688 411.558594 775.054688 434.417969 775.054688 C 452.265625 775.054688 470.113281 775.054688 487.960938 775.054688 C 495.972656 775.054688 503.992188 775.128906 512 775.054688 C 522.40625 774.957031 530.621094 766.855469 530.800781 756.433594 C 530.859375 752.902344 530.878906 749.367188 530.917969 745.835938 C 531.128906 726.582031 531.34375 707.324219 531.554688 688.070312 C 531.804688 665.398438 532.054688 642.726562 532.308594 620.054688 C 532.429688 609.066406 532.550781 598.078125 532.671875 587.089844 C 532.742188 580.5 542.976562 580.503906 542.902344 587.089844 Z M 308.007812 271.945312 C 312.59375 271.949219 317.183594 271.953125 321.769531 271.957031 C 328.351562 271.964844 328.363281 261.730469 321.769531 261.722656 C 296.566406 261.699219 271.363281 261.679688 246.160156 261.660156 C 220.722656 261.636719 195.285156 261.617188 169.847656 261.578125 C 165.992188 261.574219 162.003906 261.296875 158.167969 261.6875 C 149.636719 262.550781 142.121094 266.796875 137.085938 273.765625 C 133.15625 279.207031 131.8125 285.644531 131.8125 292.21875 C 131.8125 301.027344 131.8125 309.832031 131.8125 318.636719 C 131.8125 335.339844 131.8125 352.039062 131.8125 368.742188 C 131.8125 390.132812 131.8125 411.527344 131.8125 432.917969 C 131.8125 455.878906 131.8125 478.839844 131.8125 501.796875 C 131.8125 523.011719 131.8125 544.226562 131.8125 565.4375 C 131.8125 581.617188 131.8125 597.792969 131.8125 613.972656 C 131.8125 621.996094 131.8125 630.015625 131.8125 638.035156 C 131.8125 638.390625 131.8125 638.746094 131.8125 639.101562 C 131.8125 645.6875 142.046875 645.695312 142.046875 639.101562 C 142.046875 633.640625 142.046875 628.179688 142.046875 622.71875 C 142.046875 608.421875 142.046875 594.128906 142.046875 579.835938 C 142.046875 559.84375 142.046875 539.851562 142.046875 519.863281 C 142.046875 497.308594 142.046875 474.753906 142.046875 452.203125 C 142.046875 430.222656 142.046875 408.242188 142.046875 386.261719 C 142.046875 367.992188 142.046875 349.71875 142.046875 331.445312 C 142.046875 320.019531 142.046875 308.589844 142.046875 297.164062 C 142.046875 294.996094 142.035156 292.828125 142.046875 290.660156 C 142.101562 280.292969 150.195312 271.914062 160.636719 271.796875 C 182.253906 271.550781 203.894531 271.855469 225.515625 271.875 C 253.011719 271.898438 280.511719 271.921875 308.007812 271.945312 Z M 275.738281 400.148438 C 277.640625 400.148438 279.546875 400.148438 281.449219 400.148438 C 288.035156 400.148438 288.046875 389.917969 281.449219 389.917969 C 267.984375 389.917969 254.515625 389.917969 241.046875 389.917969 C 239.140625 389.917969 237.238281 389.917969 235.332031 389.917969 C 228.746094 389.917969 228.738281 400.148438 235.332031 400.148438 C 248.800781 400.148438 262.269531 400.148438 275.738281 400.148438 Z M 235.332031 441.082031 C 248.800781 441.082031 262.269531 441.082031 275.738281 441.082031 C 277.640625 441.082031 279.546875 441.082031 281.449219 441.082031 C 288.035156 441.082031 288.046875 430.847656 281.449219 430.847656 C 267.984375 430.847656 254.515625 430.847656 241.046875 430.847656 C 239.140625 430.847656 237.238281 430.847656 235.332031 430.847656 C 228.75 430.847656 228.738281 441.082031 235.332031 441.082031 Z M 235.332031 482.015625 C 250.578125 482.015625 265.824219 482.015625 281.074219 482.015625 C 283.246094 482.015625 285.417969 482.015625 287.589844 482.015625 C 294.171875 482.015625 294.183594 471.78125 287.589844 471.78125 C 272.34375 471.78125 257.097656 471.78125 241.847656 471.78125 C 239.675781 471.78125 237.503906 471.78125 235.332031 471.78125 C 228.75 471.78125 228.738281 482.015625 235.332031 482.015625 Z M 344.019531 553.648438 C 331.769531 553.648438 319.523438 553.648438 307.273438 553.648438 C 287.761719 553.648438 268.25 553.648438 248.738281 553.648438 C 244.269531 553.648438 239.800781 553.648438 235.332031 553.648438 C 228.75 553.648438 228.738281 563.882812 235.332031 563.882812 C 247.582031 563.882812 259.828125 563.882812 272.074219 563.882812 C 291.589844 563.882812 311.101562 563.882812 330.613281 563.882812 C 335.082031 563.882812 339.550781 563.882812 344.019531 563.882812 C 350.601562 563.882812 350.613281 553.648438 344.019531 553.648438 Z M 496.839844 594.582031 C 488.144531 594.582031 479.445312 594.582031 470.75 594.582031 C 449.953125 594.582031 429.15625 594.582031 408.359375 594.582031 C 383.210938 594.582031 358.0625 594.582031 332.914062 594.582031 C 311.101562 594.582031 289.289062 594.582031 267.476562 594.582031 C 256.933594 594.582031 246.320312 594.230469 235.78125 594.582031 C 235.632812 594.585938 235.484375 594.582031 235.332031 594.582031 C 228.75 594.582031 228.738281 604.816406 235.332031 604.816406 C 244.03125 604.816406 252.730469 604.816406 261.425781 604.816406 C 282.222656 604.816406 303.019531 604.816406 323.816406 604.816406 C 348.964844 604.816406 374.113281 604.816406 399.261719 604.816406 C 421.074219 604.816406 442.886719 604.816406 464.699219 604.816406 C 475.242188 604.816406 485.855469 605.167969 496.390625 604.816406 C 496.542969 604.808594 496.691406 604.816406 496.839844 604.816406 C 503.425781 604.816406 503.4375 594.582031 496.839844 594.582031 Z M 496.839844 635.515625 C 488.144531 635.515625 479.445312 635.515625 470.75 635.515625 C 449.953125 635.515625 429.15625 635.515625 408.359375 635.515625 C 383.210938 635.515625 358.0625 635.515625 332.914062 635.515625 C 311.101562 635.515625 289.289062 635.515625 267.476562 635.515625 C 256.933594 635.515625 246.320312 635.160156 235.78125 635.515625 C 235.632812 635.519531 235.484375 635.515625 235.332031 635.515625 C 228.75 635.515625 228.738281 645.746094 235.332031 645.746094 C 244.03125 645.746094 252.730469 645.746094 261.425781 645.746094 C 282.222656 645.746094 303.019531 645.746094 323.816406 645.746094 C 348.964844 645.746094 374.113281 645.746094 399.261719 645.746094 C 421.074219 645.746094 442.886719 645.746094 464.699219 645.746094 C 475.242188 645.746094 485.855469 646.101562 496.390625 645.746094 C 496.542969 645.742188 496.691406 645.746094 496.839844 645.746094 C 503.425781 645.746094 503.4375 635.515625 496.839844 635.515625 Z M 496.839844 676.449219 C 488.144531 676.449219 479.445312 676.449219 470.75 676.449219 C 449.953125 676.449219 429.15625 676.449219 408.359375 676.449219 C 383.210938 676.449219 358.0625 676.449219 332.914062 676.449219 C 311.101562 676.449219 289.289062 676.449219 267.476562 676.449219 C 256.933594 676.449219 246.320312 676.09375 235.78125 676.449219 C 235.632812 676.453125 235.484375 676.449219 235.332031 676.449219 C 228.75 676.449219 228.738281 686.679688 235.332031 686.679688 C 244.03125 686.679688 252.730469 686.679688 261.425781 686.679688 C 282.222656 686.679688 303.019531 686.679688 323.816406 686.679688 C 348.964844 686.679688 374.113281 686.679688 399.261719 686.679688 C 421.074219 686.679688 442.886719 686.679688 464.699219 686.679688 C 475.242188 686.679688 485.855469 687.03125 496.390625 686.679688 C 496.542969 686.675781 496.691406 686.679688 496.839844 686.679688 C 503.425781 686.679688 503.4375 676.449219 496.839844 676.449219 Z M 470.75 717.378906 C 449.953125 717.378906 429.15625 717.378906 408.359375 717.378906 C 383.210938 717.378906 358.0625 717.378906 332.914062 717.378906 C 311.101562 717.378906 289.289062 717.378906 267.476562 717.378906 C 256.933594 717.378906 246.320312 717.027344 235.78125 717.378906 C 235.632812 717.386719 235.484375 717.378906 235.332031 717.378906 C 228.75 717.378906 228.738281 727.613281 235.332031 727.613281 C 244.03125 727.613281 252.730469 727.613281 261.425781 727.613281 C 282.222656 727.613281 303.019531 727.613281 323.816406 727.613281 C 348.964844 727.613281 374.113281 727.613281 399.261719 727.613281 C 421.074219 727.613281 442.886719 727.613281 464.699219 727.613281 C 475.242188 727.613281 485.855469 727.964844 496.390625 727.613281 C 496.542969 727.609375 496.691406 727.613281 496.839844 727.613281 C 503.425781 727.613281 503.4375 717.378906 496.839844 717.378906 C 488.144531 717.378906 479.445312 717.378906 470.75 717.378906 Z M 807.890625 706.980469 C 805.984375 703.285156 802.285156 700.585938 799.230469 697.867188 C 785.9375 686.035156 772.644531 674.203125 759.351562 662.371094 C 756.664062 659.980469 753.980469 657.585938 751.292969 655.195312 C 751.066406 654.992188 750.835938 654.789062 750.609375 654.585938 C 736.082031 641.652344 721.550781 628.722656 707.023438 615.789062 C 705.367188 614.316406 703.710938 612.839844 702.054688 611.367188 C 701.167969 610.574219 700.277344 609.785156 699.386719 608.992188 C 696.253906 606.199219 693.117188 603.410156 689.980469 600.617188 C 681.132812 592.742188 672.285156 584.863281 663.433594 576.988281 C 660.425781 574.308594 657.417969 571.632812 654.410156 568.953125 C 650.117188 565.132812 645.824219 561.3125 641.535156 557.492188 C 634.804688 551.5 628.074219 545.511719 621.34375 539.519531 C 617.1875 535.820312 613.035156 532.125 608.882812 528.425781 C 604.660156 524.667969 602.195312 519.585938 603.933594 513.835938 C 604.722656 511.234375 606.242188 508.777344 607.421875 506.328125 C 608.84375 503.371094 610.238281 500.398438 611.605469 497.410156 C 614.753906 490.523438 617.75 483.566406 620.546875 476.53125 C 625.980469 462.859375 630.984375 448.660156 633.078125 434.039062 C 635.132812 419.6875 634.929688 404.84375 633.300781 390.460938 C 630.167969 362.820312 621.199219 335.902344 606.351562 312.316406 C 592.164062 289.777344 572.832031 270.414062 549.808594 256.933594 C 526.523438 243.300781 499.992188 236.226562 473.042969 235.941406 C 446.589844 235.660156 420.246094 241.792969 396.640625 253.734375 C 373.179688 265.601562 352.933594 283.269531 337.597656 304.589844 C 321.425781 327.078125 311.171875 353.703125 307.308594 381.089844 C 303.421875 408.625 305.21875 436.996094 313.957031 463.484375 C 322.054688 488.035156 335.898438 510.738281 354.777344 528.488281 C 374.042969 546.59375 398.109375 559.210938 423.90625 564.953125 C 450.066406 570.777344 478.585938 570.777344 504.226562 562.492188 C 525.117188 555.746094 543.78125 543.382812 558.363281 526.996094 C 571.730469 511.976562 581.617188 494.324219 588.90625 475.65625 C 594.78125 460.597656 598.933594 444.8125 601.28125 428.820312 C 605.410156 400.714844 601.425781 372.230469 589.046875 346.597656 C 577.308594 322.292969 558.167969 301.464844 534.757812 287.992188 C 511.128906 274.394531 483.351562 268.695312 456.28125 272.007812 C 430.046875 275.214844 405.46875 286.273438 385.6875 303.824219 C 365.4375 321.796875 351.171875 346.042969 344.210938 372.128906 C 341.988281 380.464844 340.492188 389.023438 339.714844 397.640625 C 339.6875 397.804688 339.648438 397.960938 339.632812 398.125 C 339.460938 399.996094 339.347656 401.867188 339.253906 403.738281 C 339.21875 404.457031 339.199219 405.175781 339.175781 405.894531 C 339.132812 407.203125 339.101562 408.507812 339.097656 409.816406 C 339.097656 410.425781 339.09375 411.03125 339.097656 411.640625 C 339.113281 413.085938 339.152344 414.53125 339.214844 415.976562 C 339.71875 428.808594 342.003906 441.542969 346.40625 453.671875 C 348.734375 460.09375 351.632812 466.257812 354.988281 472.144531 C 355.734375 473.476562 356.507812 474.800781 357.308594 476.105469 C 357.789062 476.886719 358.277344 477.660156 358.777344 478.429688 C 359.046875 478.847656 359.332031 479.257812 359.605469 479.671875 C 362.59375 484.164062 365.867188 488.492188 369.503906 492.578125 C 372.90625 496.40625 376.578125 499.933594 380.433594 503.226562 C 380.664062 503.425781 380.898438 503.621094 381.132812 503.820312 C 382.035156 504.578125 382.9375 505.339844 383.863281 506.066406 C 386.46875 508.148438 389.167969 510.132812 391.964844 511.992188 C 404.066406 520.042969 417.640625 525.589844 431.773438 528.71875 C 431.808594 528.726562 431.847656 528.734375 431.882812 528.742188 C 432.757812 528.941406 433.636719 529.113281 434.515625 529.292969 C 436.140625 529.621094 437.769531 529.925781 439.40625 530.191406 C 439.433594 530.195312 439.457031 530.199219 439.484375 530.203125 C 441.324219 530.496094 443.171875 530.738281 445.027344 530.949219 C 445.339844 530.984375 445.652344 531.023438 445.960938 531.058594 C 447.898438 531.265625 449.84375 531.429688 451.792969 531.546875 C 452.003906 531.558594 452.214844 531.5625 452.425781 531.570312 C 454.089844 531.664062 455.757812 531.71875 457.425781 531.742188 C 457.660156 531.742188 457.894531 531.761719 458.128906 531.765625 C 458.507812 531.769531 458.890625 531.742188 459.273438 531.742188 C 460.890625 531.742188 462.507812 531.714844 464.125 531.652344 C 464.652344 531.632812 465.179688 531.621094 465.707031 531.59375 C 465.964844 531.582031 466.226562 531.578125 466.484375 531.566406 C 476.730469 530.992188 487.253906 529.578125 497.078125 526.296875 C 498.148438 525.945312 499.207031 525.574219 500.261719 525.171875 C 500.582031 525.050781 500.902344 524.914062 501.21875 524.789062 C 502.441406 524.304688 503.652344 523.785156 504.84375 523.226562 C 504.953125 523.175781 505.066406 523.136719 505.175781 523.085938 C 505.21875 523.0625 505.257812 523.039062 505.300781 523.019531 C 506.238281 522.574219 507.167969 522.105469 508.089844 521.605469 C 508.179688 521.554688 508.265625 521.496094 508.355469 521.445312 C 509.785156 520.664062 511.183594 519.835938 512.546875 518.949219 C 512.730469 518.832031 512.910156 518.699219 513.09375 518.578125 C 514.304688 517.773438 515.492188 516.933594 516.648438 516.054688 C 516.90625 515.859375 517.164062 515.660156 517.417969 515.460938 C 518.636719 514.511719 519.828125 513.53125 520.984375 512.507812 C 521.046875 512.449219 521.109375 512.398438 521.175781 512.339844 C 523.667969 510.113281 526.007812 507.722656 528.179688 505.199219 C 528.558594 504.757812 528.925781 504.308594 529.300781 503.859375 C 529.558594 503.542969 529.835938 503.238281 530.089844 502.917969 C 530.296875 502.660156 530.488281 502.390625 530.695312 502.128906 C 533.304688 498.824219 535.707031 495.355469 537.832031 491.746094 C 544.785156 479.949219 549.433594 466.714844 552.035156 453.296875 C 553.636719 445.015625 554.621094 436.476562 554.542969 427.984375 C 554.539062 427.695312 554.542969 427.40625 554.539062 427.117188 C 554.527344 426.457031 554.5 425.800781 554.476562 425.140625 C 554.445312 424.347656 554.40625 423.558594 554.355469 422.765625 C 554.328125 422.289062 554.300781 421.8125 554.261719 421.339844 C 554.160156 420.066406 554.039062 418.792969 553.878906 417.523438 C 553.875 417.484375 553.867188 417.445312 553.863281 417.402344 C 553.859375 417.378906 553.859375 417.355469 553.855469 417.332031 C 553.8125 416.980469 553.75 416.632812 553.703125 416.28125 C 553.625 415.71875 553.546875 415.152344 553.457031 414.585938 C 552.894531 410.988281 552.097656 407.445312 550.707031 404.058594 C 548.480469 398.640625 544.71875 394.097656 540.285156 390.328125 C 540.203125 390.257812 540.121094 390.1875 540.035156 390.117188 C 539.125 389.351562 538.199219 388.609375 537.242188 387.910156 C 537.058594 387.777344 536.859375 387.671875 536.675781 387.542969 C 536.5625 387.460938 536.441406 387.394531 536.328125 387.316406 C 528.472656 381.875 518.929688 378.832031 509.324219 377.714844 C 508.890625 377.65625 508.457031 377.613281 508.019531 377.5625 C 511.164062 372.566406 513.464844 366.9375 514.582031 361.441406 C 517.792969 345.671875 511.84375 328.652344 498.457031 319.398438 C 487.546875 311.859375 472.4375 310.632812 460.164062 315.359375 C 445.667969 320.941406 435.40625 333.734375 434.511719 349.488281 C 433.960938 359.171875 437.003906 369.21875 441.964844 377.828125 C 434.425781 378.871094 426.949219 381.140625 420.203125 384.257812 C 412.128906 387.988281 405.085938 393.613281 399.863281 400.828125 C 394.851562 407.757812 392.523438 415.941406 391.339844 424.316406 C 389.53125 437.125 389.175781 450.109375 387.9375 462.976562 C 387.671875 465.730469 390.476562 468.09375 393.050781 468.09375 C 396.039062 468.09375 397.902344 465.738281 398.167969 462.976562 C 399.21875 452.074219 399.679688 441.113281 400.835938 430.21875 C 401.605469 422.96875 403.050781 415.261719 406.558594 409.273438 C 414.015625 396.546875 427.78125 390.660156 441.792969 388.273438 C 442.5 388.152344 443.210938 388.046875 443.917969 387.941406 C 444.257812 387.902344 444.597656 387.859375 444.933594 387.820312 C 446.003906 387.699219 447.074219 387.601562 448.148438 387.53125 C 449.140625 387.464844 450.140625 387.410156 451.132812 387.414062 C 455.652344 387.441406 457.234375 382.554688 455.152344 379.25 C 455.203125 379.304688 455.199219 379.285156 455.078125 379.101562 C 454.738281 378.597656 454.351562 378.121094 454.003906 377.621094 C 452.820312 375.921875 451.730469 374.15625 450.726562 372.34375 C 447.933594 367.316406 445.835938 362.09375 444.988281 356.230469 C 444 349.410156 445.265625 342.496094 448.929688 336.640625 C 451.6875 332.226562 455.527344 328.902344 460.289062 326.425781 C 464.589844 324.191406 470 322.90625 474.882812 322.828125 C 479.917969 322.742188 485.171875 323.785156 489.46875 325.964844 C 494.335938 328.429688 498.066406 331.820312 500.808594 336.476562 C 504.3125 342.425781 505.8125 349.386719 505.113281 356.246094 C 504.496094 362.289062 502.140625 367.648438 498.800781 372.769531 C 498.195312 373.695312 497.550781 374.589844 496.894531 375.480469 C 496.753906 375.660156 496.613281 375.839844 496.464844 376.019531 C 496.210938 376.320312 495.957031 376.628906 495.699219 376.929688 C 495.148438 377.5625 494.589844 378.191406 493.984375 378.773438 C 490.929688 381.695312 493.117188 387.839844 497.601562 387.507812 C 499.375 387.375 501.167969 387.410156 502.945312 387.480469 C 503.871094 387.515625 504.792969 387.574219 505.714844 387.648438 C 505.71875 387.648438 505.726562 387.648438 505.730469 387.648438 C 506.570312 387.714844 507.414062 387.800781 508.25 387.894531 C 508.613281 387.9375 509.003906 387.984375 509.167969 388.003906 C 509.183594 388.007812 509.191406 388.007812 509.207031 388.011719 C 509.769531 388.097656 510.332031 388.183594 510.890625 388.28125 C 511.902344 388.453125 512.90625 388.671875 513.910156 388.890625 C 515.085938 389.152344 516.253906 389.453125 517.414062 389.777344 C 517.75 389.871094 518.09375 389.953125 518.429688 390.054688 C 519.722656 390.441406 520.992188 390.894531 522.253906 391.375 C 524.25 392.148438 526.1875 393.074219 528.054688 394.121094 C 532.050781 396.441406 535.851562 399.585938 538.644531 403.351562 C 539.066406 403.941406 539.5 404.527344 539.878906 405.160156 C 540.0625 405.457031 540.242188 405.753906 540.40625 406.0625 C 540.5625 406.355469 540.71875 406.644531 540.863281 406.941406 C 540.9375 407.101562 541.011719 407.261719 541.09375 407.417969 C 541.160156 407.582031 541.226562 407.75 541.289062 407.917969 C 541.898438 409.605469 542.398438 411.320312 542.800781 413.066406 C 542.90625 413.535156 543.003906 414 543.09375 414.46875 C 543.164062 414.808594 543.230469 415.152344 543.292969 415.496094 C 543.394531 416.074219 543.496094 416.652344 543.59375 417.230469 C 543.617188 417.382812 543.640625 417.523438 543.65625 417.632812 C 543.691406 417.933594 543.789062 418.742188 543.832031 419.117188 C 543.855469 419.351562 543.871094 419.585938 543.890625 419.820312 C 543.976562 420.679688 544.042969 421.542969 544.101562 422.40625 C 544.214844 424.191406 544.273438 425.976562 544.285156 427.765625 C 544.289062 428.246094 544.285156 428.722656 544.285156 429.199219 C 544.277344 430.8125 544.234375 432.417969 544.15625 434.027344 C 544.144531 434.292969 544.140625 434.554688 544.125 434.820312 C 544.011719 436.847656 543.835938 438.871094 543.625 440.886719 C 543.523438 441.832031 543.425781 442.78125 543.308594 443.722656 C 543.300781 443.789062 543.296875 443.808594 543.292969 443.847656 C 543.28125 443.925781 543.273438 443.976562 543.257812 444.085938 C 543.097656 445.1875 542.921875 446.289062 542.738281 447.382812 C 542.667969 447.808594 542.578125 448.226562 542.503906 448.652344 C 542.171875 450.523438 541.796875 452.386719 541.382812 454.238281 C 541.277344 454.703125 541.179688 455.167969 541.070312 455.632812 C 540.578125 457.71875 540.042969 459.796875 539.449219 461.859375 C 539.34375 462.222656 539.230469 462.578125 539.121094 462.941406 C 538.5 465.039062 537.835938 467.089844 537.125 469.082031 C 537.015625 469.390625 536.914062 469.710938 536.800781 470.015625 C 536.726562 470.222656 536.652344 470.425781 536.574219 470.632812 C 535.609375 473.226562 534.558594 475.722656 533.425781 478.140625 C 533.300781 478.410156 533.179688 478.683594 533.054688 478.953125 C 532.402344 480.308594 531.726562 481.652344 531.019531 482.984375 C 530.894531 483.214844 530.761719 483.441406 530.636719 483.675781 C 530.082031 484.699219 529.503906 485.714844 528.914062 486.71875 C 528.597656 487.25 528.273438 487.773438 527.949219 488.300781 C 527.558594 488.933594 527.15625 489.554688 526.75 490.179688 C 526.296875 490.871094 525.84375 491.5625 525.371094 492.238281 C 525.246094 492.421875 525.109375 492.597656 524.980469 492.777344 C 523.351562 495.066406 521.601562 497.246094 519.75 499.3125 C 519.074219 500.0625 518.386719 500.804688 517.683594 501.527344 C 514.628906 504.644531 511.3125 507.425781 507.761719 509.8125 C 496.199219 517.296875 483.089844 520.113281 468.953125 521.171875 C 439.898438 523.347656 410.699219 515.128906 388.390625 496.621094 C 388.21875 496.480469 388.050781 496.332031 387.878906 496.1875 C 386.8125 495.289062 385.765625 494.355469 384.730469 493.40625 C 384.234375 492.953125 383.734375 492.5 383.246094 492.035156 C 382.523438 491.347656 381.824219 490.644531 381.125 489.9375 C 380.148438 488.953125 379.195312 487.953125 378.257812 486.9375 C 377.65625 486.277344 377.046875 485.625 376.460938 484.953125 C 375.90625 484.316406 375.367188 483.664062 374.828125 483.015625 C 374.226562 482.292969 373.632812 481.570312 373.054688 480.835938 C 372.621094 480.28125 372.183594 479.722656 371.757812 479.160156 C 370.886719 478.007812 370.03125 476.839844 369.207031 475.648438 C 369.101562 475.496094 368.984375 475.34375 368.878906 475.1875 C 357.179688 458.121094 350.558594 437.867188 349.449219 416.976562 C 349.433594 416.671875 349.417969 416.367188 349.402344 416.066406 C 349.328125 414.433594 349.289062 412.796875 349.28125 411.160156 C 349.28125 410.964844 349.273438 410.769531 349.273438 410.574219 C 349.277344 406.417969 349.484375 402.265625 349.867188 398.125 C 349.867188 398.105469 349.863281 398.089844 349.863281 398.070312 C 351.0625 385.390625 354.042969 372.847656 358.535156 361.011719 C 367.332031 337.828125 383.023438 317.003906 403.378906 302.800781 C 423.828125 288.53125 448.183594 281.011719 473.058594 281.328125 C 498.582031 281.65625 523.460938 290.503906 543.605469 306.1875 C 563.816406 321.925781 579.019531 343.871094 586.75 368.28125 C 593.789062 390.507812 594.140625 413.65625 589.636719 436.402344 C 588.085938 444.21875 586.121094 451.953125 583.734375 459.554688 C 582.4375 463.695312 581.015625 467.792969 579.460938 471.84375 C 579.070312 472.863281 578.667969 473.882812 578.261719 474.898438 C 578.054688 475.410156 577.84375 475.921875 577.636719 476.429688 C 577.546875 476.648438 577.453125 476.867188 577.363281 477.085938 C 577.324219 477.179688 577.3125 477.210938 577.308594 477.222656 C 577.285156 477.273438 577.265625 477.320312 577.234375 477.398438 C 576.320312 479.53125 575.371094 481.652344 574.382812 483.753906 C 570.367188 492.269531 565.695312 500.484375 560.28125 508.195312 C 555.019531 515.691406 548.609375 523.085938 541.257812 529.703125 C 525.640625 543.761719 506.082031 552.992188 484.839844 556.75 C 459.546875 561.222656 431.949219 558.464844 407.675781 549.523438 C 384.625 541.03125 364.378906 526.191406 348.921875 507.167969 C 333.402344 488.066406 323.285156 464.765625 318.566406 440.625 C 313.441406 414.390625 314.769531 386.746094 321.914062 361.015625 C 328.792969 336.246094 341.457031 313.171875 359.117188 294.445312 C 375.933594 276.609375 396.992188 262.828125 420.109375 254.800781 C 443.851562 246.554688 469.707031 243.921875 494.601562 247.878906 C 519.3125 251.804688 542.855469 262.207031 562.355469 277.90625 C 582.363281 294.015625 598.066406 314.863281 608.683594 338.214844 C 619.792969 362.640625 624.882812 389.691406 624.199219 416.46875 C 624.03125 423.070312 623.640625 429.652344 622.421875 436.054688 C 621.089844 443.0625 619.132812 449.945312 616.914062 456.722656 C 612.445312 470.34375 606.855469 483.585938 600.773438 496.5625 C 598.164062 502.128906 594.367188 507.90625 593.453125 514.042969 C 592.332031 521.539062 594.824219 529.253906 600.359375 534.503906 C 600.378906 534.519531 600.390625 534.539062 600.40625 534.554688 C 607.847656 541.175781 615.285156 547.796875 622.722656 554.417969 C 640.203125 569.980469 657.6875 585.542969 675.167969 601.105469 C 695.449219 619.15625 715.726562 637.207031 736.003906 655.257812 C 742.777344 661.289062 749.550781 667.316406 756.324219 673.347656 C 764.253906 680.40625 772.1875 687.464844 780.117188 694.527344 C 785.617188 699.421875 791.132812 704.292969 796.609375 709.207031 C 796.613281 709.210938 796.617188 709.210938 796.621094 709.214844 C 796.832031 709.402344 797.046875 709.585938 797.253906 709.78125 C 798.605469 711.050781 799.425781 712.667969 799.519531 714.351562 C 799.519531 714.425781 799.535156 714.5 799.53125 714.570312 C 799.53125 714.609375 799.523438 714.644531 799.523438 714.683594 C 799.359375 716.691406 798.070312 718.585938 796.609375 720.265625 C 794.699219 722.460938 792.785156 724.660156 790.871094 726.859375 C 790.082031 727.765625 789.292969 728.675781 788.5 729.582031 C 788.5 729.582031 788.5 729.585938 788.5 729.585938 C 788.335938 729.773438 788.171875 729.960938 788.007812 730.152344 C 786.234375 732.1875 784.296875 734.097656 781.875 734.292969 C 781.734375 734.296875 781.589844 734.308594 781.445312 734.300781 C 781.390625 734.300781 781.335938 734.289062 781.277344 734.289062 C 779.765625 734.160156 778.324219 733.441406 777.070312 732.363281 C 776.496094 731.871094 775.9375 731.363281 775.371094 730.867188 C 775.265625 730.769531 775.15625 730.664062 775.054688 730.570312 C 772.363281 728.179688 769.675781 725.789062 766.988281 723.402344 C 763.199219 720.03125 759.40625 716.660156 755.617188 713.292969 C 744.976562 703.832031 734.335938 694.375 723.695312 684.917969 C 703.636719 667.085938 683.582031 649.257812 663.523438 631.429688 C 660.820312 629.027344 658.121094 626.625 655.417969 624.226562 C 646.234375 616.058594 637.050781 607.894531 627.863281 599.730469 C 623.480469 595.832031 619.097656 591.9375 614.710938 588.039062 C 612.429688 586.011719 610.144531 583.980469 607.863281 581.949219 C 607.796875 581.890625 607.730469 581.832031 607.664062 581.777344 C 597.328125 572.585938 586.988281 563.394531 576.648438 554.203125 C 576.175781 553.785156 575.707031 553.367188 575.234375 552.945312 C 570.328125 548.585938 563.066406 555.796875 568 560.183594 C 572.019531 563.753906 576.039062 567.328125 580.058594 570.902344 C 581.660156 572.324219 583.261719 573.75 584.863281 575.171875 C 586.757812 576.855469 588.652344 578.539062 590.546875 580.226562 C 608.140625 595.867188 625.738281 611.507812 643.332031 627.148438 C 645.394531 628.980469 647.453125 630.808594 649.511719 632.640625 C 650.445312 633.472656 651.378906 634.300781 652.316406 635.132812 C 654.242188 636.84375 656.167969 638.558594 658.09375 640.269531 C 673.800781 654.230469 689.503906 668.191406 705.210938 682.152344 C 705.476562 682.386719 705.738281 682.621094 706.003906 682.859375 C 716.203125 691.925781 726.402344 700.992188 736.605469 710.058594 C 740.992188 713.960938 745.382812 717.863281 749.773438 721.765625 C 751.359375 723.171875 752.941406 724.582031 754.527344 725.988281 C 756.691406 727.914062 758.855469 729.839844 761.019531 731.761719 C 761.855469 732.503906 762.6875 733.246094 763.523438 733.988281 C 764.9375 735.242188 766.351562 736.5 767.761719 737.753906 C 768.609375 738.507812 769.449219 739.277344 770.308594 740.015625 C 775.976562 744.90625 784.128906 746.148438 790.570312 741.835938 C 790.792969 741.6875 790.984375 741.511719 791.191406 741.355469 C 791.519531 741.121094 791.84375 740.886719 792.164062 740.621094 C 794.96875 738.296875 797.226562 735.105469 799.605469 732.371094 C 801.714844 729.945312 804.117188 727.535156 806.082031 724.917969 C 806.378906 724.542969 806.648438 724.160156 806.914062 723.773438 C 807.003906 723.644531 807.109375 723.523438 807.191406 723.390625 C 807.257812 723.289062 807.3125 723.183594 807.375 723.082031 C 807.4375 722.980469 807.511719 722.882812 807.570312 722.78125 C 807.621094 722.695312 807.652344 722.605469 807.699219 722.519531 C 809.015625 720.183594 809.65625 717.699219 809.707031 715.21875 C 809.808594 712.398438 809.214844 709.546875 807.890625 706.980469 Z M 100.765625 313.75 C 100.765625 307.167969 90.535156 307.15625 90.535156 313.75 C 90.535156 322.269531 90.535156 330.785156 90.535156 339.304688 C 90.535156 359.75 90.535156 380.199219 90.535156 400.644531 C 90.535156 425.28125 90.535156 449.917969 90.535156 474.554688 C 90.535156 495.851562 90.535156 517.152344 90.535156 538.449219 C 90.535156 548.816406 90.179688 559.253906 90.535156 569.617188 C 90.539062 569.761719 90.535156 569.90625 90.535156 570.050781 C 90.535156 576.636719 100.765625 576.648438 100.765625 570.050781 C 100.765625 561.535156 100.765625 553.015625 100.765625 544.5 C 100.765625 524.050781 100.765625 503.605469 100.765625 483.160156 C 100.765625 458.523438 100.765625 433.886719 100.765625 409.25 C 100.765625 387.953125 100.765625 366.652344 100.765625 345.355469 C 100.765625 334.988281 101.121094 324.546875 100.765625 314.183594 C 100.761719 314.039062 100.765625 313.894531 100.765625 313.75 Z M 334.570312 181.40625 C 346.226562 188.78125 359.566406 193.238281 373.300781 194.515625 C 398.328125 196.835938 422.984375 189.613281 443.464844 175.226562 C 463.347656 161.257812 478.496094 141.226562 488.554688 119.261719 C 490.601562 114.792969 498.738281 116.855469 498.089844 121.84375 C 497.648438 125.238281 497.507812 128.734375 497.988281 132.136719 C 500.0625 146.828125 510.882812 159.039062 522.476562 167.484375 C 536.480469 177.6875 553.113281 184.125 569.972656 187.765625 C 587.324219 191.511719 605.617188 191.597656 622.628906 186.183594 C 624.261719 185.664062 625.875 185.078125 627.480469 184.460938 C 628.265625 173.753906 630.210938 163.175781 633.105469 153.152344 C 635.703125 144.164062 638.972656 134.242188 646.492188 128.121094 C 653.886719 122.101562 665.015625 120.4375 672.691406 126.894531 C 679.433594 132.5625 679.789062 142.316406 677.441406 150.179688 C 674.917969 158.628906 669.433594 166.191406 663.476562 172.566406 C 656.132812 180.425781 647.132812 186.71875 637.355469 191.335938 C 636.691406 218.011719 644.285156 245.5625 663.730469 264.382812 C 683.480469 283.5 715.0625 293.46875 741.003906 281.359375 C 746.226562 278.917969 751.21875 284.949219 747.203125 289.394531 C 734.449219 303.492188 721.664062 317.695312 711.101562 333.554688 C 702.03125 347.175781 694.625 362.003906 691.140625 378.082031 C 688.21875 391.574219 688.296875 405.769531 690.996094 419.292969 C 696.523438 446.96875 712.492188 472.652344 736.285156 488.1875 C 741.785156 491.777344 736.652344 500.632812 731.121094 497.023438 C 716.5625 487.515625 704.453125 474.636719 695.605469 459.683594 C 680.03125 433.363281 674.46875 400.820312 682.300781 371.082031 C 689.90625 342.207031 708.171875 318.195312 727.632812 295.96875 C 697.160156 300.820312 665.390625 285.25 647.175781 260.933594 C 633.109375 242.15625 627.167969 218.84375 627.09375 195.4375 C 623.917969 196.503906 620.707031 197.460938 617.460938 198.179688 C 597.160156 202.695312 575.820312 200.703125 556.035156 194.722656 C 538.074219 189.292969 520.675781 180.894531 507.015625 167.808594 C 498.949219 160.078125 492.328125 150.425781 489.296875 139.773438 C 484.695312 147.449219 479.453125 154.726562 473.589844 161.507812 C 456.519531 181.238281 433.6875 196.464844 408.082031 202.300781 C 381.542969 208.351562 352.621094 204.929688 329.40625 190.242188 C 323.851562 186.726562 328.992188 177.875 334.570312 181.40625 Z M 638.199219 179.425781 C 646.609375 174.703125 654.179688 168.480469 660.082031 160.871094 C 664.253906 155.488281 668.386719 148.929688 668.5625 141.90625 C 668.710938 135.832031 664.5625 131.605469 658.085938 133.351562 C 650.472656 135.402344 646.96875 143.523438 644.6875 150.347656 C 642.007812 158.359375 640.042969 166.632812 638.773438 174.984375 C 638.550781 176.453125 638.375 177.941406 638.199219 179.425781 Z M 638.199219 179.425781 " fill-opacity="1" fill-rule="nonzero"/></g><g clip-path="url(#1093e99d88)"><path fill="#dc4f50" d="M 301.304688 319.03125 C 289.917969 319.019531 278.535156 319.003906 267.148438 318.984375 C 264.90625 318.980469 262.660156 318.972656 260.414062 318.96875 C 243.058594 318.925781 225.703125 318.84375 208.347656 318.871094 C 206.019531 318.875 203.804688 319.277344 201.75 319.988281 C 201.472656 320.085938 201.195312 320.167969 200.925781 320.277344 C 200.816406 320.320312 200.710938 320.371094 200.605469 320.414062 C 195.195312 322.675781 191.140625 327.28125 189.699219 333.121094 C 189.339844 334.59375 189.121094 336.132812 189.113281 337.742188 C 189.109375 338.417969 189.117188 339.09375 189.113281 339.769531 C 189.113281 345.429688 189.113281 351.09375 189.113281 356.757812 C 189.113281 359.652344 189.113281 362.546875 189.113281 365.441406 C 189.113281 376.945312 189.113281 388.445312 189.113281 399.949219 C 189.113281 404.515625 189.113281 409.082031 189.113281 413.648438 C 189.113281 428.976562 189.113281 444.304688 189.113281 459.628906 C 189.113281 465.28125 189.113281 470.933594 189.113281 476.585938 C 189.113281 494 189.113281 511.410156 189.113281 528.820312 C 189.113281 534.953125 189.113281 541.082031 189.113281 547.214844 C 189.113281 564.777344 189.113281 582.335938 189.113281 599.894531 C 189.113281 605.789062 189.113281 611.679688 189.113281 617.574219 C 189.113281 633.453125 189.113281 649.328125 189.113281 665.207031 C 189.113281 670.296875 189.113281 675.382812 189.113281 680.472656 C 189.113281 692.867188 189.113281 705.261719 189.113281 717.65625 C 189.113281 721.304688 189.113281 724.957031 189.113281 728.609375 C 189.113281 735.726562 189.113281 742.839844 189.113281 749.953125 C 189.113281 751.367188 189.113281 752.78125 189.113281 754.191406 C 189.113281 754.84375 189.109375 755.492188 189.113281 756.144531 C 189.121094 757.976562 189.394531 759.742188 189.871094 761.417969 C 191.164062 765.953125 194.066406 769.765625 197.957031 772.199219 C 200.757812 773.949219 204.058594 774.996094 207.65625 775.050781 C 214.066406 775.144531 214.21875 784.800781 208.164062 785.242188 C 207.992188 785.253906 207.835938 785.285156 207.65625 785.285156 C 199.839844 785.167969 192.265625 782.023438 186.898438 776.351562 C 186.894531 776.351562 186.894531 776.347656 186.894531 776.347656 C 186.4375 775.867188 185.972656 775.402344 185.550781 774.886719 C 185.324219 774.609375 185.132812 774.316406 184.921875 774.035156 C 182.914062 771.382812 181.433594 768.527344 180.460938 765.503906 C 180.453125 765.480469 180.445312 765.457031 180.4375 765.433594 C 180.394531 765.292969 180.363281 765.148438 180.324219 765.007812 C 179.34375 761.777344 178.882812 758.378906 178.882812 754.863281 C 178.882812 754.355469 178.882812 753.847656 178.882812 753.339844 C 178.882812 750.898438 178.882812 748.453125 178.882812 746.011719 C 178.882812 745.953125 178.882812 745.894531 178.882812 745.835938 C 178.882812 733.507812 178.882812 721.179688 178.882812 708.851562 C 178.882812 708.738281 178.882812 708.625 178.882812 708.515625 C 178.882812 689.75 178.882812 670.984375 178.882812 652.222656 C 178.882812 652.070312 178.882812 651.921875 178.882812 651.773438 C 178.882812 629.136719 178.882812 606.503906 178.882812 583.871094 C 178.882812 583.703125 178.882812 583.535156 178.882812 583.367188 C 178.882812 559.429688 178.882812 535.496094 178.882812 511.558594 C 178.882812 511.390625 178.882812 511.222656 178.882812 511.054688 C 178.882812 488.386719 178.882812 465.714844 178.882812 443.046875 C 178.882812 442.898438 178.882812 442.746094 178.882812 442.597656 C 178.882812 423.703125 178.882812 404.808594 178.882812 385.914062 C 178.882812 385.859375 178.882812 385.800781 178.882812 385.746094 C 178.882812 373.28125 178.882812 360.8125 178.882812 348.347656 C 178.882812 344.140625 178.738281 339.929688 179.085938 335.828125 C 179.097656 335.671875 179.117188 335.515625 179.132812 335.359375 C 179.175781 334.9375 179.214844 334.515625 179.265625 334.097656 C 179.296875 333.828125 179.34375 333.5625 179.378906 333.292969 C 179.425781 332.984375 179.460938 332.675781 179.511719 332.371094 C 179.574219 332.007812 179.652344 331.648438 179.722656 331.285156 C 179.765625 331.078125 179.796875 330.871094 179.84375 330.664062 C 179.9375 330.230469 180.050781 329.800781 180.167969 329.367188 C 180.203125 329.234375 180.230469 329.101562 180.265625 328.972656 C 180.398438 328.496094 180.554688 328.023438 180.714844 327.550781 C 180.742188 327.464844 180.761719 327.382812 180.792969 327.296875 C 180.945312 326.859375 181.121094 326.421875 181.300781 325.984375 C 181.347656 325.871094 181.386719 325.757812 181.433594 325.644531 C 181.613281 325.222656 181.816406 324.808594 182.023438 324.394531 C 182.085938 324.269531 182.136719 324.140625 182.203125 324.015625 C 182.429688 323.574219 182.683594 323.136719 182.941406 322.703125 C 183 322.605469 183.046875 322.507812 183.105469 322.410156 C 183.429688 321.882812 183.78125 321.355469 184.15625 320.835938 C 184.804688 319.9375 185.5 319.078125 186.238281 318.265625 C 186.371094 318.117188 186.523438 317.992188 186.660156 317.84375 C 191.773438 312.417969 198.703125 309.09375 206.285156 308.671875 C 215.191406 308.175781 224.253906 308.671875 233.171875 308.6875 C 255.882812 308.734375 278.59375 308.773438 301.304688 308.796875 C 307.898438 308.804688 307.890625 319.035156 301.304688 319.03125 Z M 505.300781 523.019531 C 505.148438 523.09375 504.996094 523.15625 504.84375 523.226562 C 504.953125 523.175781 505.066406 523.136719 505.175781 523.085938 C 505.214844 523.0625 505.257812 523.039062 505.300781 523.019531 Z M 614.710938 588.042969 C 619.09375 591.941406 623.480469 595.835938 627.863281 599.734375 C 621.195312 593.808594 614.527344 587.878906 607.859375 581.953125 C 610.144531 583.984375 612.425781 586.011719 614.710938 588.042969 Z M 580.058594 570.90625 C 581.660156 572.328125 583.261719 573.753906 584.863281 575.175781 C 579.242188 570.179688 573.617188 565.183594 567.996094 560.1875 C 572.015625 563.757812 576.039062 567.332031 580.058594 570.90625 Z M 807.191406 723.398438 C 807.257812 723.292969 807.308594 723.1875 807.371094 723.085938 C 807.230469 723.320312 807.070312 723.550781 806.914062 723.78125 C 807 723.648438 807.105469 723.527344 807.191406 723.398438 Z M 736.601562 710.0625 C 740.992188 713.964844 745.382812 717.867188 749.773438 721.769531 C 735.183594 708.800781 720.59375 695.832031 706.003906 682.863281 C 716.203125 691.929688 726.402344 700.996094 736.601562 710.0625 Z M 649.507812 632.644531 C 652.371094 635.1875 655.230469 637.730469 658.09375 640.273438 C 656.164062 638.5625 654.238281 636.847656 652.3125 635.136719 C 651.378906 634.304688 650.445312 633.476562 649.507812 632.644531 Z M 606.351562 312.316406 C 592.164062 289.777344 572.832031 270.414062 549.808594 256.933594 C 526.523438 243.300781 499.992188 236.226562 473.042969 235.941406 C 446.589844 235.660156 420.246094 241.792969 396.640625 253.734375 C 373.179688 265.605469 352.933594 283.269531 337.597656 304.589844 C 321.425781 327.078125 311.171875 353.707031 307.308594 381.089844 C 303.421875 408.625 305.21875 436.996094 313.957031 463.484375 C 322.054688 488.035156 335.898438 510.742188 354.777344 528.488281 C 374.042969 546.597656 398.109375 559.214844 423.90625 564.953125 C 450.066406 570.777344 478.585938 570.777344 504.226562 562.496094 C 525.117188 555.746094 543.78125 543.382812 558.363281 526.996094 C 571.730469 511.976562 581.617188 494.324219 588.90625 475.65625 C 594.78125 460.597656 598.933594 444.8125 601.28125 428.820312 C 605.410156 400.714844 601.425781 372.230469 589.046875 346.597656 C 577.308594 322.292969 558.167969 301.464844 534.757812 287.992188 C 511.128906 274.394531 483.351562 268.699219 456.28125 272.007812 C 430.046875 275.214844 405.46875 286.273438 385.6875 303.824219 C 365.4375 321.796875 351.171875 346.042969 344.210938 372.132812 C 341.988281 380.464844 340.492188 389.023438 339.714844 397.640625 C 340.136719 395.097656 341.949219 393.011719 344.75 393.011719 C 347.316406 393.011719 350.074219 395.339844 349.863281 398.070312 C 351.0625 385.394531 354.039062 372.851562 358.535156 361.011719 C 367.332031 337.828125 383.023438 317.007812 403.378906 302.800781 C 423.828125 288.53125 448.183594 281.011719 473.058594 281.332031 C 498.582031 281.65625 523.460938 290.507812 543.605469 306.191406 C 563.816406 321.925781 579.015625 343.875 586.75 368.28125 C 593.789062 390.507812 594.140625 413.660156 589.636719 436.40625 C 588.085938 444.222656 586.117188 451.957031 583.734375 459.558594 C 582.4375 463.695312 581.011719 467.796875 579.460938 471.84375 C 579.066406 472.867188 578.667969 473.886719 578.257812 474.902344 C 578.054688 475.414062 577.84375 475.921875 577.636719 476.433594 C 577.546875 476.652344 577.453125 476.871094 577.363281 477.089844 C 577.324219 477.183594 577.3125 477.214844 577.308594 477.226562 C 577.285156 477.277344 577.265625 477.324219 577.234375 477.398438 C 576.320312 479.535156 575.371094 481.65625 574.378906 483.753906 C 570.367188 492.269531 565.695312 500.488281 560.28125 508.195312 C 555.019531 515.695312 548.609375 523.089844 541.257812 529.707031 C 525.640625 543.765625 506.082031 552.996094 484.835938 556.75 C 459.542969 561.222656 431.949219 558.46875 407.675781 549.523438 C 384.625 541.035156 364.378906 526.195312 348.921875 507.171875 C 333.402344 488.070312 323.285156 464.769531 318.566406 440.628906 C 313.441406 414.394531 314.769531 386.75 321.914062 361.019531 C 328.792969 336.246094 341.457031 313.171875 359.113281 294.445312 C 375.933594 276.613281 396.992188 262.828125 420.109375 254.800781 C 443.851562 246.558594 469.707031 243.925781 494.601562 247.878906 C 519.3125 251.804688 542.855469 262.210938 562.351562 277.910156 C 582.363281 294.019531 598.066406 314.867188 608.683594 338.21875 C 619.792969 362.644531 624.882812 389.695312 624.199219 416.46875 C 624.03125 423.070312 623.640625 429.652344 622.421875 436.058594 C 621.085938 443.066406 619.132812 449.949219 616.914062 456.722656 C 612.445312 470.347656 606.855469 483.589844 600.773438 496.5625 C 598.164062 502.128906 594.367188 507.910156 593.449219 514.042969 C 592.328125 521.539062 594.824219 529.257812 600.359375 534.503906 C 595.539062 530.113281 602.757812 522.972656 607.640625 527.320312 C 608.152344 527.773438 608.660156 528.226562 609.167969 528.679688 C 613.226562 532.292969 617.285156 535.90625 621.34375 539.519531 C 617.191406 535.820312 613.035156 532.121094 608.882812 528.425781 C 604.664062 524.667969 602.199219 519.585938 603.9375 513.832031 C 604.722656 511.230469 606.246094 508.777344 607.421875 506.328125 C 608.847656 503.371094 610.242188 500.394531 611.609375 497.410156 C 614.753906 490.523438 617.75 483.566406 620.546875 476.53125 C 625.980469 462.859375 630.984375 448.660156 633.078125 434.039062 C 635.136719 419.6875 634.929688 404.84375 633.300781 390.457031 C 630.167969 362.820312 621.199219 335.902344 606.351562 312.316406 Z M 766.988281 723.40625 C 763.195312 720.035156 759.40625 716.664062 755.613281 713.296875 C 759.617188 716.851562 763.617188 720.410156 767.621094 723.96875 C 770.203125 726.265625 772.769531 728.589844 775.371094 730.871094 C 775.265625 730.773438 775.15625 730.667969 775.050781 730.574219 C 772.363281 728.183594 769.675781 725.792969 766.988281 723.40625 Z M 781.875 734.296875 C 782.644531 734.28125 783.429688 734.121094 784.214844 733.75 C 785.949219 732.9375 787.257812 731.015625 788.5 729.585938 C 788.335938 729.777344 788.167969 729.964844 788.003906 730.15625 C 786.234375 732.191406 784.292969 734.097656 781.875 734.296875 Z M 761.019531 731.769531 C 761.855469 732.507812 762.6875 733.25 763.523438 733.992188 C 764.933594 735.25 766.347656 736.503906 767.761719 737.761719 C 767.746094 737.746094 767.734375 737.734375 767.71875 737.722656 C 765.484375 735.738281 763.253906 733.753906 761.019531 731.769531 Z M 796.277344 736.199219 C 794.667969 738.046875 793.148438 739.886719 791.191406 741.359375 C 791.515625 741.125 791.84375 740.890625 792.160156 740.628906 C 794.964844 738.300781 797.222656 735.109375 799.601562 732.378906 C 801.714844 729.949219 804.113281 727.542969 806.082031 724.921875 C 804.992188 726.300781 803.753906 727.605469 802.640625 728.886719 C 800.519531 731.324219 798.398438 733.761719 796.277344 736.199219 Z M 798.734375 717.625 C 799.28125 716.660156 799.519531 715.664062 799.519531 714.6875 C 799.359375 716.695312 798.070312 718.589844 796.609375 720.265625 C 794.695312 722.464844 792.78125 724.664062 790.871094 726.863281 C 792.234375 725.296875 793.59375 723.730469 794.957031 722.164062 C 796.214844 720.71875 797.78125 719.304688 798.734375 717.625 Z M 796.609375 709.210938 C 791.132812 704.292969 785.613281 699.421875 780.117188 694.53125 C 772.183594 687.46875 764.253906 680.410156 756.320312 673.347656 C 765.410156 681.4375 774.5 689.53125 783.585938 697.621094 C 787.546875 701.144531 791.503906 704.667969 795.460938 708.191406 C 795.847656 708.53125 796.230469 708.875 796.617188 709.21875 C 796.613281 709.214844 796.613281 709.214844 796.609375 709.210938 Z M 807.699219 722.523438 C 809.015625 720.191406 809.65625 717.703125 809.707031 715.226562 C 809.609375 717.753906 808.941406 720.257812 807.699219 722.523438 Z M 654.410156 568.953125 C 666.265625 579.507812 678.125 590.0625 689.980469 600.617188 C 681.132812 592.742188 672.285156 584.863281 663.4375 576.988281 C 660.425781 574.308594 657.417969 571.632812 654.410156 568.953125 Z M 707.023438 615.789062 C 705.367188 614.316406 703.710938 612.839844 702.054688 611.367188 C 718.46875 625.976562 734.882812 640.585938 751.292969 655.199219 C 751.066406 654.992188 750.835938 654.789062 750.609375 654.585938 C 736.082031 641.652344 721.550781 628.722656 707.023438 615.789062 Z M 707.023438 615.789062 " fill-opacity="1" fill-rule="nonzero"/></g><path fill="#e89ab0" d="M 321.769531 271.957031 C 317.183594 271.953125 312.59375 271.949219 308.007812 271.945312 C 280.511719 271.917969 253.011719 271.898438 225.515625 271.871094 C 203.894531 271.851562 182.253906 271.546875 160.636719 271.796875 C 150.195312 271.914062 142.101562 280.289062 142.046875 290.660156 C 142.035156 292.828125 142.046875 294.996094 142.046875 297.164062 C 142.046875 308.589844 142.046875 320.019531 142.046875 331.445312 C 142.046875 349.71875 142.046875 367.988281 142.046875 386.261719 C 142.046875 408.242188 142.046875 430.222656 142.046875 452.203125 C 142.046875 474.753906 142.046875 497.308594 142.046875 519.859375 C 142.046875 539.851562 142.046875 559.84375 142.046875 579.835938 C 142.046875 594.128906 142.046875 608.421875 142.046875 622.71875 C 142.046875 628.179688 142.046875 633.640625 142.046875 639.101562 C 142.046875 645.695312 131.8125 645.6875 131.8125 639.101562 C 131.8125 638.746094 131.8125 638.390625 131.8125 638.035156 C 131.8125 630.015625 131.8125 621.992188 131.8125 613.972656 C 131.8125 597.792969 131.8125 581.617188 131.8125 565.4375 C 131.8125 544.222656 131.8125 523.011719 131.8125 501.796875 C 131.8125 478.835938 131.8125 455.878906 131.8125 432.917969 C 131.8125 411.527344 131.8125 390.132812 131.8125 368.742188 C 131.8125 352.039062 131.8125 335.339844 131.8125 318.636719 C 131.8125 309.832031 131.8125 301.023438 131.8125 292.21875 C 131.8125 285.644531 133.15625 279.207031 137.085938 273.765625 C 142.121094 266.796875 149.636719 262.550781 158.167969 261.6875 C 162.007812 261.296875 165.992188 261.574219 169.847656 261.578125 C 195.285156 261.617188 220.722656 261.636719 246.160156 261.660156 C 271.363281 261.679688 296.566406 261.699219 321.769531 261.722656 C 328.363281 261.730469 328.351562 271.964844 321.769531 271.957031 Z M 807.890625 706.980469 C 805.984375 703.285156 802.285156 700.585938 799.230469 697.867188 C 785.9375 686.035156 772.644531 674.203125 759.351562 662.371094 C 756.664062 659.980469 753.980469 657.585938 751.292969 655.195312 C 734.882812 640.585938 718.46875 625.976562 702.054688 611.367188 C 701.167969 610.574219 700.277344 609.785156 699.386719 608.992188 C 696.253906 606.199219 693.117188 603.410156 689.980469 600.617188 C 678.125 590.0625 666.265625 579.507812 654.410156 568.953125 C 650.117188 565.132812 645.824219 561.3125 641.535156 557.492188 C 634.804688 551.503906 628.074219 545.511719 621.34375 539.519531 C 617.285156 535.90625 613.226562 532.292969 609.167969 528.679688 C 608.660156 528.226562 608.148438 527.773438 607.640625 527.320312 C 602.753906 522.972656 595.535156 530.113281 600.359375 534.507812 C 600.375 534.523438 600.386719 534.542969 600.40625 534.558594 C 607.84375 541.179688 615.28125 547.800781 622.71875 554.421875 C 640.203125 569.984375 657.683594 585.546875 675.167969 601.109375 C 695.445312 619.160156 715.722656 637.210938 736.003906 655.261719 C 742.773438 661.292969 749.546875 667.320312 756.320312 673.347656 C 765.410156 681.4375 774.496094 689.53125 783.585938 697.621094 C 787.542969 701.144531 791.503906 704.667969 795.460938 708.191406 C 795.847656 708.53125 796.230469 708.875 796.617188 709.21875 C 796.828125 709.40625 797.046875 709.589844 797.253906 709.785156 C 798.601562 711.054688 799.425781 712.667969 799.515625 714.355469 C 799.515625 714.429688 799.53125 714.503906 799.527344 714.574219 C 799.527344 714.609375 799.519531 714.648438 799.519531 714.6875 C 799.519531 715.664062 799.28125 716.660156 798.734375 717.621094 C 797.78125 719.304688 796.214844 720.71875 794.957031 722.164062 C 793.59375 723.730469 792.234375 725.296875 790.871094 726.863281 C 790.078125 727.769531 789.289062 728.679688 788.5 729.585938 C 787.257812 731.015625 785.949219 732.9375 784.214844 733.753906 C 783.429688 734.121094 782.644531 734.28125 781.875 734.296875 C 781.730469 734.300781 781.585938 734.3125 781.445312 734.304688 C 781.390625 734.304688 781.332031 734.292969 781.277344 734.292969 C 779.765625 734.164062 778.324219 733.445312 777.066406 732.367188 C 776.496094 731.875 775.9375 731.367188 775.371094 730.871094 C 772.769531 728.589844 770.203125 726.265625 767.621094 723.96875 C 763.617188 720.410156 759.617188 716.851562 755.613281 713.296875 C 744.972656 703.835938 734.332031 694.378906 723.695312 684.921875 C 703.636719 667.089844 683.578125 649.261719 663.519531 631.433594 C 660.820312 629.03125 658.117188 626.628906 655.417969 624.226562 C 646.234375 616.0625 637.046875 607.898438 627.863281 599.734375 C 621.195312 593.808594 614.527344 587.878906 607.859375 581.953125 C 607.792969 581.894531 607.730469 581.835938 607.664062 581.78125 C 597.324219 572.589844 586.984375 563.398438 576.648438 554.207031 C 576.175781 553.789062 575.703125 553.371094 575.234375 552.949219 C 570.324219 548.589844 563.0625 555.800781 567.996094 560.1875 C 573.617188 565.183594 579.238281 570.179688 584.859375 575.175781 C 586.753906 576.859375 588.648438 578.542969 590.542969 580.230469 C 608.140625 595.871094 625.734375 611.511719 643.332031 627.152344 C 645.390625 628.984375 647.449219 630.8125 649.507812 632.644531 C 652.371094 635.1875 655.230469 637.730469 658.089844 640.273438 C 673.796875 654.234375 689.503906 668.195312 705.210938 682.15625 C 705.472656 682.390625 705.738281 682.625 706.003906 682.863281 C 720.59375 695.832031 735.183594 708.800781 749.773438 721.769531 C 751.355469 723.175781 752.941406 724.585938 754.523438 725.992188 C 756.6875 727.917969 758.855469 729.84375 761.019531 731.765625 C 763.25 733.75 765.484375 735.734375 767.71875 737.722656 C 767.730469 737.734375 767.746094 737.746094 767.761719 737.757812 C 768.609375 738.511719 769.445312 739.28125 770.304688 740.019531 C 775.972656 744.910156 784.125 746.152344 790.566406 741.839844 C 790.789062 741.691406 790.980469 741.515625 791.191406 741.355469 C 793.148438 739.886719 794.667969 738.046875 796.277344 736.199219 C 798.398438 733.761719 800.519531 731.320312 802.640625 728.882812 C 803.753906 727.601562 804.992188 726.300781 806.078125 724.921875 C 806.375 724.546875 806.648438 724.164062 806.910156 723.777344 C 807.070312 723.546875 807.226562 723.320312 807.371094 723.085938 C 807.433594 722.984375 807.511719 722.886719 807.570312 722.785156 C 807.617188 722.699219 807.652344 722.609375 807.699219 722.523438 C 808.941406 720.257812 809.609375 717.753906 809.703125 715.222656 C 809.808594 712.398438 809.214844 709.546875 807.890625 706.980469 Z M 807.890625 706.980469 " fill-opacity="1" fill-rule="nonzero"/><g clip-path="url(#e2fd964027)"><path fill="#439751" d="M 532.671875 587.089844 C 532.550781 598.078125 532.429688 609.066406 532.308594 620.054688 C 532.054688 642.726562 531.804688 665.398438 531.554688 688.070312 C 531.34375 707.324219 531.128906 726.582031 530.917969 745.835938 C 530.878906 749.367188 530.859375 752.902344 530.800781 756.433594 C 530.621094 766.855469 522.40625 774.957031 512 775.054688 C 503.992188 775.128906 495.972656 775.054688 487.960938 775.054688 C 470.113281 775.054688 452.265625 775.054688 434.417969 775.054688 C 411.558594 775.054688 388.695312 775.054688 365.832031 775.054688 C 342.507812 775.054688 319.183594 775.054688 295.859375 775.054688 C 276.929688 775.054688 258.003906 775.054688 239.074219 775.054688 C 229.136719 775.054688 219.199219 775.054688 209.261719 775.054688 C 205.1875 775.054688 201.28125 774.15625 197.960938 772.203125 C 200.757812 773.953125 204.058594 775 207.65625 775.054688 C 214.066406 775.148438 214.21875 784.800781 208.164062 785.242188 C 208.453125 785.25 208.730469 785.285156 209.019531 785.285156 C 212.511719 785.285156 216 785.285156 219.488281 785.285156 C 234.648438 785.285156 249.8125 785.285156 264.972656 785.285156 C 286.976562 785.285156 308.980469 785.285156 330.984375 785.285156 C 354.863281 785.285156 378.746094 785.285156 402.628906 785.285156 C 423.6875 785.285156 444.746094 785.285156 465.808594 785.285156 C 479.078125 785.285156 492.351562 785.285156 505.621094 785.285156 C 507.8125 785.285156 510.003906 785.3125 512.191406 785.285156 C 528.105469 785.097656 540.730469 772.347656 541.03125 756.496094 C 541.25 744.957031 541.285156 733.414062 541.414062 721.871094 C 541.667969 698.753906 541.925781 675.636719 542.179688 652.519531 C 542.390625 633.632812 542.597656 614.746094 542.808594 595.859375 C 542.839844 592.9375 542.871094 590.011719 542.902344 587.089844 C 542.976562 580.503906 532.742188 580.5 532.671875 587.089844 Z M 100.765625 313.75 C 100.765625 307.167969 90.535156 307.15625 90.535156 313.75 C 90.535156 322.269531 90.535156 330.785156 90.535156 339.304688 C 90.535156 359.75 90.535156 380.199219 90.535156 400.644531 C 90.535156 425.28125 90.535156 449.917969 90.535156 474.554688 C 90.535156 495.851562 90.535156 517.152344 90.535156 538.449219 C 90.535156 548.816406 90.179688 559.253906 90.535156 569.617188 C 90.539062 569.761719 90.535156 569.90625 90.535156 570.050781 C 90.535156 576.636719 100.765625 576.648438 100.765625 570.050781 C 100.765625 561.535156 100.765625 553.015625 100.765625 544.5 C 100.765625 524.050781 100.765625 503.605469 100.765625 483.160156 C 100.765625 458.523438 100.765625 433.886719 100.765625 409.25 C 100.765625 387.953125 100.765625 366.652344 100.765625 345.355469 C 100.765625 334.988281 101.121094 324.546875 100.765625 314.183594 C 100.761719 314.039062 100.765625 313.894531 100.765625 313.75 Z M 100.765625 313.75 " fill-opacity="1" fill-rule="nonzero"/></g><path fill="#2f72b1" d="M 248.734375 553.648438 C 268.25 553.648438 287.761719 553.648438 307.273438 553.648438 C 319.523438 553.648438 331.769531 553.648438 344.015625 553.648438 C 350.613281 553.648438 350.601562 563.882812 344.015625 563.882812 C 339.550781 563.882812 335.082031 563.882812 330.613281 563.882812 C 311.101562 563.882812 291.585938 563.882812 272.074219 563.882812 C 259.828125 563.882812 247.578125 563.882812 235.332031 563.882812 C 228.738281 563.882812 228.75 553.648438 235.332031 553.648438 C 239.800781 553.648438 244.269531 553.648438 248.734375 553.648438 Z M 235.332031 482.015625 C 250.578125 482.015625 265.824219 482.015625 281.074219 482.015625 C 283.246094 482.015625 285.417969 482.015625 287.589844 482.015625 C 294.171875 482.015625 294.183594 471.78125 287.589844 471.78125 C 272.34375 471.78125 257.097656 471.78125 241.847656 471.78125 C 239.675781 471.78125 237.503906 471.78125 235.332031 471.78125 C 228.75 471.78125 228.738281 482.015625 235.332031 482.015625 Z M 235.332031 400.148438 C 248.800781 400.148438 262.269531 400.148438 275.738281 400.148438 C 277.640625 400.148438 279.546875 400.148438 281.449219 400.148438 C 288.035156 400.148438 288.046875 389.917969 281.449219 389.917969 C 267.984375 389.917969 254.515625 389.917969 241.046875 389.917969 C 239.140625 389.917969 237.238281 389.917969 235.332031 389.917969 C 228.75 389.917969 228.738281 400.148438 235.332031 400.148438 Z M 235.332031 441.082031 C 248.800781 441.082031 262.269531 441.082031 275.738281 441.082031 C 277.640625 441.082031 279.546875 441.082031 281.449219 441.082031 C 288.035156 441.082031 288.046875 430.847656 281.449219 430.847656 C 267.984375 430.847656 254.515625 430.847656 241.046875 430.847656 C 239.140625 430.847656 237.238281 430.847656 235.332031 430.847656 C 228.75 430.847656 228.738281 441.082031 235.332031 441.082031 Z M 496.839844 676.449219 C 488.144531 676.449219 479.445312 676.449219 470.75 676.449219 C 449.953125 676.449219 429.15625 676.449219 408.359375 676.449219 C 383.210938 676.449219 358.0625 676.449219 332.914062 676.449219 C 311.101562 676.449219 289.289062 676.449219 267.476562 676.449219 C 256.933594 676.449219 246.320312 676.09375 235.78125 676.449219 C 235.632812 676.453125 235.484375 676.449219 235.332031 676.449219 C 228.75 676.449219 228.738281 686.679688 235.332031 686.679688 C 244.03125 686.679688 252.730469 686.679688 261.425781 686.679688 C 282.222656 686.679688 303.019531 686.679688 323.816406 686.679688 C 348.964844 686.679688 374.113281 686.679688 399.261719 686.679688 C 421.074219 686.679688 442.886719 686.679688 464.699219 686.679688 C 475.242188 686.679688 485.855469 687.03125 496.390625 686.679688 C 496.542969 686.675781 496.691406 686.679688 496.839844 686.679688 C 503.425781 686.679688 503.4375 676.449219 496.839844 676.449219 Z M 691.140625 378.082031 C 688.21875 391.574219 688.296875 405.769531 690.996094 419.292969 C 696.523438 446.96875 712.492188 472.652344 736.285156 488.1875 C 741.785156 491.777344 736.652344 500.632812 731.121094 497.023438 C 716.5625 487.519531 704.453125 474.636719 695.605469 459.683594 C 680.03125 433.363281 674.46875 400.820312 682.300781 371.082031 C 689.90625 342.207031 708.171875 318.195312 727.632812 295.96875 C 697.160156 300.820312 665.390625 285.25 647.175781 260.933594 C 633.109375 242.15625 627.167969 218.84375 627.09375 195.4375 C 623.917969 196.503906 620.707031 197.460938 617.460938 198.183594 C 597.160156 202.695312 575.820312 200.703125 556.035156 194.722656 C 538.074219 189.292969 520.675781 180.894531 507.015625 167.808594 C 498.949219 160.078125 492.328125 150.425781 489.296875 139.773438 C 484.695312 147.449219 479.453125 154.726562 473.589844 161.507812 C 456.519531 181.238281 433.6875 196.464844 408.082031 202.300781 C 381.542969 208.351562 352.621094 204.929688 329.40625 190.242188 C 323.851562 186.726562 328.992188 177.875 334.570312 181.40625 C 346.226562 188.78125 359.566406 193.238281 373.300781 194.515625 C 398.328125 196.835938 422.984375 189.613281 443.464844 175.226562 C 463.347656 161.257812 478.496094 141.226562 488.554688 119.261719 C 490.601562 114.792969 498.738281 116.855469 498.089844 121.84375 C 497.648438 125.238281 497.507812 128.734375 497.988281 132.132812 C 500.0625 146.828125 510.882812 159.035156 522.476562 167.484375 C 536.480469 177.6875 553.113281 184.125 569.972656 187.765625 C 587.324219 191.511719 605.617188 191.597656 622.628906 186.183594 C 624.261719 185.664062 625.875 185.078125 627.480469 184.457031 C 628.265625 173.753906 630.210938 163.175781 633.105469 153.152344 C 635.703125 144.164062 638.972656 134.242188 646.492188 128.121094 C 653.886719 122.101562 665.015625 120.4375 672.691406 126.894531 C 679.433594 132.5625 679.789062 142.316406 677.441406 150.179688 C 674.917969 158.628906 669.433594 166.191406 663.476562 172.5625 C 656.132812 180.425781 647.132812 186.71875 637.355469 191.335938 C 636.691406 218.011719 644.285156 245.5625 663.730469 264.382812 C 683.480469 283.5 715.0625 293.46875 741.003906 281.355469 C 746.226562 278.917969 751.21875 284.949219 747.203125 289.394531 C 734.449219 303.492188 721.664062 317.695312 711.101562 333.554688 C 702.03125 347.175781 694.625 362.003906 691.140625 378.082031 Z M 638.199219 179.425781 C 646.609375 174.703125 654.179688 168.480469 660.082031 160.871094 C 664.253906 155.488281 668.386719 148.929688 668.5625 141.90625 C 668.710938 135.832031 664.5625 131.605469 658.085938 133.351562 C 650.472656 135.402344 646.96875 143.523438 644.6875 150.347656 C 642.007812 158.359375 640.042969 166.632812 638.773438 174.984375 C 638.550781 176.453125 638.375 177.941406 638.199219 179.425781 Z M 496.839844 594.582031 C 488.144531 594.582031 479.445312 594.582031 470.75 594.582031 C 449.953125 594.582031 429.15625 594.582031 408.359375 594.582031 C 383.210938 594.582031 358.0625 594.582031 332.914062 594.582031 C 311.101562 594.582031 289.289062 594.582031 267.476562 594.582031 C 256.933594 594.582031 246.320312 594.230469 235.78125 594.582031 C 235.632812 594.585938 235.484375 594.582031 235.332031 594.582031 C 228.75 594.582031 228.738281 604.816406 235.332031 604.816406 C 244.03125 604.816406 252.730469 604.816406 261.425781 604.816406 C 282.222656 604.816406 303.019531 604.816406 323.816406 604.816406 C 348.964844 604.816406 374.113281 604.816406 399.261719 604.816406 C 421.074219 604.816406 442.886719 604.816406 464.699219 604.816406 C 475.242188 604.816406 485.855469 605.167969 496.390625 604.816406 C 496.542969 604.808594 496.691406 604.816406 496.839844 604.816406 C 503.425781 604.816406 503.4375 594.582031 496.839844 594.582031 Z M 496.839844 635.515625 C 488.144531 635.515625 479.445312 635.515625 470.75 635.515625 C 449.953125 635.515625 429.15625 635.515625 408.359375 635.515625 C 383.210938 635.515625 358.0625 635.515625 332.914062 635.515625 C 311.101562 635.515625 289.289062 635.515625 267.476562 635.515625 C 256.933594 635.515625 246.320312 635.160156 235.78125 635.515625 C 235.632812 635.519531 235.484375 635.515625 235.332031 635.515625 C 228.75 635.515625 228.738281 645.746094 235.332031 645.746094 C 244.03125 645.746094 252.730469 645.746094 261.425781 645.746094 C 282.222656 645.746094 303.019531 645.746094 323.816406 645.746094 C 348.964844 645.746094 374.113281 645.746094 399.261719 645.746094 C 421.074219 645.746094 442.886719 645.746094 464.699219 645.746094 C 475.242188 645.746094 485.855469 646.101562 496.390625 645.746094 C 496.542969 645.742188 496.691406 645.746094 496.839844 645.746094 C 503.425781 645.746094 503.4375 635.515625 496.839844 635.515625 Z M 496.839844 717.378906 C 488.144531 717.378906 479.445312 717.378906 470.75 717.378906 C 449.953125 717.378906 429.15625 717.378906 408.359375 717.378906 C 383.210938 717.378906 358.0625 717.378906 332.914062 717.378906 C 311.101562 717.378906 289.289062 717.378906 267.476562 717.378906 C 256.933594 717.378906 246.320312 717.027344 235.78125 717.378906 C 235.632812 717.386719 235.484375 717.378906 235.332031 717.378906 C 228.75 717.378906 228.738281 727.613281 235.332031 727.613281 C 244.03125 727.613281 252.730469 727.613281 261.425781 727.613281 C 282.222656 727.613281 303.019531 727.613281 323.816406 727.613281 C 348.964844 727.613281 374.113281 727.613281 399.261719 727.613281 C 421.074219 727.613281 442.886719 727.613281 464.699219 727.613281 C 475.242188 727.613281 485.855469 727.964844 496.390625 727.613281 C 496.542969 727.609375 496.691406 727.613281 496.839844 727.613281 C 503.425781 727.613281 503.4375 717.378906 496.839844 717.378906 Z M 496.839844 717.378906 " fill-opacity="1" fill-rule="nonzero"/></svg>