<svg xmlns="http://www.w3.org/2000/svg" xmlns:xlink="http://www.w3.org/1999/xlink" width="1200" zoomAndPan="magnify" viewBox="0 0 900 899.99999" height="1200" preserveAspectRatio="xMidYMid meet" version="1.0"><defs><clipPath id="f411aba74d"><path d="M 95.304688 90 L 820.230469 90 L 820.230469 816 L 95.304688 816 Z M 95.304688 90 " clip-rule="nonzero"/></clipPath><clipPath id="c6d359b4ff"><path d="M 120.054688 90 L 795.457031 90 C 809.125 90 820.207031 101.082031 820.207031 114.75 L 820.207031 791.367188 C 820.207031 805.035156 809.125 816.117188 795.457031 816.117188 L 120.054688 816.117188 C 106.386719 816.117188 95.304688 805.035156 95.304688 791.367188 L 95.304688 114.75 C 95.304688 101.082031 106.386719 90 120.054688 90 Z M 120.054688 90 " clip-rule="nonzero"/></clipPath><clipPath id="b64855549c"><path d="M 193.558594 193 L 748.558594 193 L 748.558594 708.394531 L 193.558594 708.394531 Z M 193.558594 193 " clip-rule="nonzero"/></clipPath><clipPath id="9f13751de3"><path d="M 262 285 L 748.558594 285 L 748.558594 708.394531 L 262 708.394531 Z M 262 285 " clip-rule="nonzero"/></clipPath><clipPath id="86fccc0503"><path d="M 225 304 L 748.558594 304 L 748.558594 677 L 225 677 Z M 225 304 " clip-rule="nonzero"/></clipPath><clipPath id="e0149c5d50"><path d="M 193.558594 341 L 543 341 L 543 708.394531 L 193.558594 708.394531 Z M 193.558594 341 " clip-rule="nonzero"/></clipPath></defs><g clip-path="url(#f411aba74d)"><g clip-path="url(#c6d359b4ff)"><path stroke-linecap="butt" transform="matrix(0.75, 0, 0, 0.75, 95.305584, 90.000015)" fill="none" stroke-linejoin="miter" d="M 32.998809 -0.0000203867 L 933.535372 -0.0000203867 C 951.759332 -0.0000203867 966.535376 14.776023 966.535376 32.999983 L 966.535376 935.156338 C 966.535376 953.380299 951.759332 968.156342 933.535372 968.156342 L 32.998809 968.156342 C 14.774848 968.156342 -0.00119508 953.380299 -0.00119508 935.156338 L -0.00119508 32.999983 C -0.00119508 14.776023 14.774848 -0.0000203867 32.998809 -0.0000203867 Z M 32.998809 -0.0000203867 " stroke="#4d3294" stroke-width="8" stroke-opacity="1" stroke-miterlimit="4"/></g></g><g clip-path="url(#b64855549c)"><path fill="#f6cb48" d="M 542.671875 555.648438 C 542.644531 557.902344 542.621094 560.15625 542.597656 562.40625 C 542.433594 576.964844 542.273438 591.519531 542.113281 606.078125 C 541.914062 623.894531 541.71875 641.710938 541.519531 659.527344 C 541.421875 668.417969 541.394531 677.316406 541.226562 686.210938 C 540.996094 698.425781 531.265625 708.253906 518.996094 708.398438 C 517.308594 708.417969 515.621094 708.398438 513.933594 708.398438 C 503.703125 708.398438 493.472656 708.398438 483.242188 708.398438 C 467.007812 708.398438 450.773438 708.398438 434.539062 708.398438 C 416.132812 708.398438 397.722656 708.398438 379.316406 708.398438 C 362.355469 708.398438 345.390625 708.398438 328.429688 708.398438 C 316.746094 708.398438 305.058594 708.398438 293.371094 708.398438 C 290.679688 708.398438 287.992188 708.398438 285.300781 708.398438 C 285.078125 708.398438 284.863281 708.371094 284.640625 708.367188 C 284.511719 708.375 284.390625 708.402344 284.25 708.398438 C 278.226562 708.308594 272.386719 705.886719 268.25 701.515625 C 268.25 701.515625 268.246094 701.511719 268.246094 701.511719 C 267.894531 701.140625 267.535156 700.78125 267.210938 700.382812 C 267.035156 700.171875 266.890625 699.945312 266.726562 699.726562 C 266.632812 699.609375 266.527344 699.507812 266.433594 699.386719 C 264.929688 697.386719 263.941406 695.300781 263.289062 693.15625 C 263.28125 693.136719 263.277344 693.117188 263.269531 693.101562 C 263.234375 692.992188 263.214844 692.882812 263.179688 692.773438 C 262.425781 690.285156 262.070312 687.664062 262.070312 684.953125 C 262.070312 684.5625 262.070312 684.171875 262.070312 683.78125 C 262.039062 681.871094 262.070312 679.9375 262.070312 677.996094 C 262.070312 668.496094 262.070312 658.996094 262.070312 649.496094 C 262.070312 649.40625 262.070312 649.320312 262.070312 649.234375 C 262.070312 634.769531 262.070312 620.308594 262.070312 605.847656 C 262.070312 605.734375 262.070312 605.617188 262.070312 605.503906 C 262.070312 588.058594 262.070312 570.613281 262.070312 553.171875 C 262.070312 553.042969 262.070312 552.914062 262.070312 552.78125 C 262.070312 534.335938 262.070312 515.890625 262.070312 497.441406 C 262.070312 497.3125 262.070312 497.183594 262.070312 497.054688 C 262.070312 479.582031 262.070312 462.109375 262.070312 444.640625 C 262.070312 444.523438 262.070312 444.40625 262.070312 444.292969 C 262.070312 429.730469 262.070312 415.167969 262.070312 400.609375 C 262.070312 400.566406 262.070312 400.519531 262.070312 400.476562 C 262.070312 390.871094 262.070312 381.261719 262.070312 371.65625 C 262.070312 368.410156 261.960938 365.167969 262.226562 362.007812 C 262.238281 361.886719 262.253906 361.765625 262.265625 361.644531 C 262.296875 361.320312 262.324219 360.996094 262.367188 360.671875 C 262.390625 360.464844 262.425781 360.257812 262.453125 360.050781 C 262.488281 359.816406 262.519531 359.578125 262.558594 359.34375 C 262.605469 359.0625 262.664062 358.785156 262.71875 358.503906 C 262.75 358.347656 262.777344 358.1875 262.8125 358.027344 C 262.886719 357.691406 262.972656 357.359375 263.0625 357.027344 C 263.089844 356.925781 263.109375 356.824219 263.136719 356.722656 C 263.242188 356.355469 263.359375 355.992188 263.480469 355.625 C 263.503906 355.5625 263.519531 355.496094 263.542969 355.433594 C 263.664062 355.09375 263.796875 354.757812 263.9375 354.421875 C 263.972656 354.332031 264 354.246094 264.039062 354.15625 C 264.175781 353.835938 264.332031 353.515625 264.492188 353.195312 C 264.539062 353.097656 264.578125 353 264.628906 352.902344 C 264.804688 352.5625 265 352.226562 265.199219 351.890625 C 265.242188 351.816406 265.28125 351.742188 265.324219 351.667969 C 265.578125 351.257812 265.847656 350.855469 266.136719 350.453125 C 266.636719 349.757812 267.171875 349.097656 267.738281 348.472656 C 267.84375 348.355469 267.960938 348.257812 268.066406 348.148438 C 272.007812 343.964844 277.351562 341.402344 283.195312 341.078125 C 290.054688 340.6875 297.046875 341.078125 303.921875 341.089844 C 321.425781 341.125 338.933594 341.15625 356.4375 341.171875 C 361.523438 341.179688 361.515625 349.066406 356.4375 349.058594 C 347.664062 349.050781 338.886719 349.039062 330.109375 349.023438 C 328.378906 349.023438 326.648438 349.015625 324.917969 349.011719 C 318.574219 349 312.230469 348.996094 305.890625 348.980469 C 299.019531 348.96875 292.152344 348.953125 285.285156 348.9375 C 283.332031 348.933594 281.449219 349.226562 279.699219 349.800781 C 279.484375 349.871094 279.269531 349.9375 279.0625 350.019531 C 278.980469 350.054688 278.898438 350.089844 278.816406 350.125 C 274.644531 351.871094 271.519531 355.417969 270.410156 359.917969 C 270.050781 361.578125 269.957031 363.285156 269.957031 365.042969 C 269.957031 369.40625 269.957031 373.769531 269.957031 378.136719 C 269.957031 380.367188 269.957031 382.597656 269.957031 384.828125 C 269.957031 393.695312 269.957031 402.558594 269.957031 411.421875 C 269.957031 414.941406 269.957031 418.460938 269.957031 421.980469 C 269.957031 433.792969 269.957031 445.605469 269.957031 457.417969 C 269.957031 461.777344 269.957031 466.132812 269.957031 470.488281 C 269.957031 483.90625 269.957031 497.324219 269.957031 510.742188 C 269.957031 515.46875 269.957031 520.195312 269.957031 524.921875 C 269.957031 538.453125 269.957031 551.988281 269.957031 565.519531 C 269.957031 570.0625 269.957031 574.605469 269.957031 579.144531 C 269.957031 591.382812 269.957031 603.621094 269.957031 615.855469 C 269.957031 619.777344 269.957031 623.699219 269.957031 627.621094 C 269.957031 637.171875 269.957031 646.726562 269.957031 656.277344 C 269.957031 659.089844 269.957031 661.90625 269.957031 664.722656 C 269.957031 670.203125 269.957031 675.6875 269.957031 681.167969 C 269.957031 682.257812 269.957031 683.347656 269.957031 684.4375 C 269.957031 686.359375 270.085938 688.210938 270.542969 690.003906 C 271.539062 693.5 273.777344 696.441406 276.777344 698.316406 C 279.335938 699.820312 282.347656 700.511719 285.488281 700.511719 C 293.148438 700.511719 300.808594 700.511719 308.46875 700.511719 C 323.058594 700.511719 337.648438 700.511719 352.238281 700.511719 C 370.21875 700.511719 388.199219 700.511719 406.179688 700.511719 C 423.800781 700.511719 441.425781 700.511719 459.046875 700.511719 C 472.804688 700.511719 486.5625 700.511719 500.320312 700.511719 C 506.496094 700.511719 512.675781 700.570312 518.851562 700.511719 C 526.871094 700.4375 533.203125 694.191406 533.339844 686.164062 C 533.386719 683.441406 533.402344 680.71875 533.429688 677.992188 C 533.59375 663.152344 533.757812 648.316406 533.921875 633.476562 C 534.117188 616 534.308594 598.527344 534.503906 581.054688 C 534.597656 572.585938 534.691406 564.117188 534.785156 555.648438 C 534.839844 550.570312 542.726562 550.574219 542.671875 555.648438 Z M 361.605469 312.769531 C 365.140625 312.773438 368.675781 312.777344 372.210938 312.78125 C 377.289062 312.785156 377.296875 304.898438 372.210938 304.894531 C 352.785156 304.875 333.359375 304.859375 313.933594 304.84375 C 294.324219 304.824219 274.714844 304.8125 255.105469 304.78125 C 252.136719 304.777344 249.0625 304.566406 246.105469 304.863281 C 239.527344 305.527344 233.734375 308.804688 229.855469 314.171875 C 226.824219 318.367188 225.789062 323.328125 225.789062 328.394531 C 225.789062 335.183594 225.789062 341.96875 225.789062 348.753906 C 225.789062 361.625 225.789062 374.5 225.789062 387.371094 C 225.789062 403.859375 225.789062 420.34375 225.789062 436.832031 C 225.789062 454.527344 225.789062 472.222656 225.789062 489.917969 C 225.789062 506.265625 225.789062 522.613281 225.789062 538.964844 C 225.789062 551.433594 225.789062 563.898438 225.789062 576.367188 C 225.789062 582.550781 225.789062 588.730469 225.789062 594.914062 C 225.789062 595.1875 225.789062 595.460938 225.789062 595.734375 C 225.789062 600.808594 233.675781 600.816406 233.675781 595.734375 C 233.675781 591.527344 233.675781 587.316406 233.675781 583.109375 C 233.675781 572.089844 233.675781 561.074219 233.675781 550.058594 C 233.675781 534.652344 233.675781 519.246094 233.675781 503.835938 C 233.675781 486.457031 233.675781 469.074219 233.675781 451.691406 C 233.675781 434.753906 233.675781 417.8125 233.675781 400.875 C 233.675781 386.792969 233.675781 372.710938 233.675781 358.628906 C 233.675781 349.820312 233.675781 341.011719 233.675781 332.207031 C 233.675781 330.535156 233.667969 328.863281 233.675781 327.195312 C 233.71875 319.203125 239.957031 312.746094 248.003906 312.65625 C 264.667969 312.464844 281.351562 312.699219 298.015625 312.714844 C 319.214844 312.734375 340.410156 312.75 361.605469 312.769531 Z M 336.730469 411.578125 C 338.199219 411.578125 339.664062 411.578125 341.132812 411.578125 C 346.207031 411.578125 346.21875 403.691406 341.132812 403.691406 C 330.753906 403.691406 320.371094 403.691406 309.988281 403.691406 C 308.519531 403.691406 307.050781 403.691406 305.582031 403.691406 C 300.507812 403.691406 300.5 411.578125 305.582031 411.578125 C 315.964844 411.578125 326.347656 411.578125 336.730469 411.578125 Z M 305.582031 443.121094 C 315.964844 443.121094 326.347656 443.121094 336.730469 443.121094 C 338.199219 443.121094 339.664062 443.121094 341.132812 443.121094 C 346.207031 443.121094 346.21875 435.238281 341.132812 435.238281 C 330.753906 435.238281 320.371094 435.238281 309.988281 435.238281 C 308.519531 435.238281 307.050781 435.238281 305.582031 435.238281 C 300.507812 435.238281 300.5 443.121094 305.582031 443.121094 Z M 305.582031 474.667969 C 317.335938 474.667969 329.089844 474.667969 340.84375 474.667969 C 342.515625 474.667969 344.191406 474.667969 345.867188 474.667969 C 350.941406 474.667969 350.949219 466.78125 345.867188 466.78125 C 334.113281 466.78125 322.359375 466.78125 310.605469 466.78125 C 308.933594 466.78125 307.257812 466.78125 305.582031 466.78125 C 300.507812 466.78125 300.5 474.667969 305.582031 474.667969 Z M 389.363281 529.878906 C 379.921875 529.878906 370.480469 529.878906 361.039062 529.878906 C 346 529.878906 330.957031 529.878906 315.917969 529.878906 C 312.472656 529.878906 309.027344 529.878906 305.585938 529.878906 C 300.507812 529.878906 300.5 537.765625 305.585938 537.765625 C 315.027344 537.765625 324.464844 537.765625 333.90625 537.765625 C 348.949219 537.765625 363.988281 537.765625 379.03125 537.765625 C 382.476562 537.765625 385.917969 537.765625 389.363281 537.765625 C 394.4375 537.765625 394.445312 529.878906 389.363281 529.878906 Z M 507.164062 561.425781 C 500.460938 561.425781 493.753906 561.425781 487.050781 561.425781 C 471.019531 561.425781 454.988281 561.425781 438.960938 561.425781 C 419.574219 561.425781 400.1875 561.425781 380.804688 561.425781 C 363.988281 561.425781 347.175781 561.425781 330.359375 561.425781 C 322.234375 561.425781 314.054688 561.152344 305.929688 561.425781 C 305.816406 561.429688 305.699219 561.425781 305.585938 561.425781 C 300.507812 561.425781 300.5 569.3125 305.585938 569.3125 C 312.289062 569.3125 318.992188 569.3125 325.699219 569.3125 C 341.730469 569.3125 357.757812 569.3125 373.789062 569.3125 C 393.175781 569.3125 412.558594 569.3125 431.945312 569.3125 C 448.757812 569.3125 465.574219 569.3125 482.386719 569.3125 C 490.515625 569.3125 498.695312 569.582031 506.816406 569.3125 C 506.933594 569.308594 507.050781 569.3125 507.164062 569.3125 C 512.238281 569.3125 512.246094 561.425781 507.164062 561.425781 Z M 507.164062 592.972656 C 500.460938 592.972656 493.753906 592.972656 487.050781 592.972656 C 471.019531 592.972656 454.988281 592.972656 438.960938 592.972656 C 419.574219 592.972656 400.1875 592.972656 380.804688 592.972656 C 363.988281 592.972656 347.175781 592.972656 330.359375 592.972656 C 322.234375 592.972656 314.054688 592.699219 305.929688 592.972656 C 305.816406 592.976562 305.699219 592.972656 305.585938 592.972656 C 300.507812 592.972656 300.5 600.859375 305.585938 600.859375 C 312.289062 600.859375 318.992188 600.859375 325.699219 600.859375 C 341.730469 600.859375 357.757812 600.859375 373.789062 600.859375 C 393.175781 600.859375 412.558594 600.859375 431.945312 600.859375 C 448.757812 600.859375 465.574219 600.859375 482.386719 600.859375 C 490.515625 600.859375 498.695312 601.128906 506.816406 600.859375 C 506.933594 600.855469 507.050781 600.859375 507.164062 600.859375 C 512.238281 600.859375 512.246094 592.972656 507.164062 592.972656 Z M 507.164062 624.515625 C 500.460938 624.515625 493.753906 624.515625 487.050781 624.515625 C 471.019531 624.515625 454.988281 624.515625 438.960938 624.515625 C 419.574219 624.515625 400.1875 624.515625 380.804688 624.515625 C 363.988281 624.515625 347.175781 624.515625 330.359375 624.515625 C 322.234375 624.515625 314.054688 624.246094 305.929688 624.515625 C 305.816406 624.519531 305.699219 624.515625 305.585938 624.515625 C 300.507812 624.515625 300.5 632.402344 305.585938 632.402344 C 312.289062 632.402344 318.992188 632.402344 325.699219 632.402344 C 341.730469 632.402344 357.757812 632.402344 373.789062 632.402344 C 393.175781 632.402344 412.558594 632.402344 431.945312 632.402344 C 448.757812 632.402344 465.574219 632.402344 482.386719 632.402344 C 490.515625 632.402344 498.695312 632.675781 506.816406 632.402344 C 506.933594 632.398438 507.050781 632.402344 507.164062 632.402344 C 512.238281 632.402344 512.246094 624.515625 507.164062 624.515625 Z M 487.050781 656.0625 C 471.019531 656.0625 454.988281 656.0625 438.960938 656.0625 C 419.574219 656.0625 400.1875 656.0625 380.804688 656.0625 C 363.988281 656.0625 347.175781 656.0625 330.359375 656.0625 C 322.234375 656.0625 314.054688 655.792969 305.929688 656.0625 C 305.816406 656.066406 305.699219 656.0625 305.585938 656.0625 C 300.507812 656.0625 300.5 663.949219 305.585938 663.949219 C 312.289062 663.949219 318.992188 663.949219 325.699219 663.949219 C 341.730469 663.949219 357.757812 663.949219 373.789062 663.949219 C 393.175781 663.949219 412.558594 663.949219 431.945312 663.949219 C 448.757812 663.949219 465.574219 663.949219 482.386719 663.949219 C 490.515625 663.949219 498.695312 664.222656 506.816406 663.949219 C 506.933594 663.945312 507.050781 663.949219 507.164062 663.949219 C 512.238281 663.949219 512.246094 656.0625 507.164062 656.0625 C 500.460938 656.0625 493.753906 656.0625 487.050781 656.0625 Z M 746.933594 648.046875 C 745.464844 645.199219 742.609375 643.121094 740.257812 641.027344 C 730.007812 631.90625 719.761719 622.785156 709.515625 613.667969 C 707.445312 611.824219 705.375 609.980469 703.304688 608.140625 C 703.128906 607.984375 702.953125 607.824219 702.777344 607.667969 C 691.578125 597.703125 680.378906 587.734375 669.179688 577.769531 C 667.902344 576.632812 666.628906 575.496094 665.351562 574.359375 C 664.664062 573.75 663.980469 573.140625 663.292969 572.53125 C 660.878906 570.378906 658.460938 568.226562 656.042969 566.074219 C 649.222656 560.003906 642.402344 553.933594 635.582031 547.863281 C 633.261719 545.800781 630.941406 543.734375 628.621094 541.671875 C 625.316406 538.726562 622.007812 535.785156 618.699219 532.839844 C 613.511719 528.222656 608.324219 523.605469 603.132812 518.988281 C 599.933594 516.136719 596.730469 513.289062 593.527344 510.4375 C 590.273438 507.542969 588.375 503.625 589.714844 499.191406 C 590.320312 497.1875 591.496094 495.292969 592.402344 493.410156 C 593.5 491.128906 594.574219 488.835938 595.628906 486.535156 C 598.054688 481.226562 600.363281 475.867188 602.519531 470.445312 C 606.707031 459.90625 610.566406 448.964844 612.179688 437.695312 C 613.765625 426.632812 613.605469 415.195312 612.351562 404.109375 C 609.9375 382.804688 603.023438 362.058594 591.578125 343.882812 C 580.644531 326.511719 565.742188 311.589844 547.992188 301.199219 C 530.042969 290.691406 509.59375 285.242188 488.820312 285.023438 C 468.429688 284.804688 448.121094 289.53125 429.925781 298.734375 C 411.839844 307.882812 396.234375 321.496094 384.414062 337.929688 C 371.945312 355.261719 364.042969 375.78125 361.066406 396.886719 C 358.070312 418.109375 359.457031 439.976562 366.191406 460.386719 C 372.433594 479.308594 383.101562 496.808594 397.65625 510.484375 C 412.507812 524.441406 431.058594 534.164062 450.945312 538.589844 C 471.109375 543.078125 493.089844 543.078125 512.855469 536.695312 C 528.960938 531.492188 543.347656 521.964844 554.589844 509.335938 C 564.890625 497.761719 572.511719 484.15625 578.128906 469.769531 C 582.660156 458.164062 585.859375 445.996094 587.671875 433.671875 C 590.851562 412.011719 587.78125 390.058594 578.238281 370.304688 C 569.191406 351.570312 554.4375 335.519531 536.390625 325.136719 C 518.179688 314.660156 496.765625 310.265625 475.902344 312.816406 C 455.675781 315.289062 436.730469 323.8125 421.484375 337.339844 C 405.871094 351.1875 394.878906 369.875 389.511719 389.980469 C 387.796875 396.40625 386.644531 403 386.046875 409.644531 C 386.027344 409.769531 385.996094 409.890625 385.984375 410.015625 C 385.851562 411.457031 385.761719 412.898438 385.691406 414.34375 C 385.664062 414.894531 385.648438 415.449219 385.628906 416.003906 C 385.597656 417.011719 385.574219 418.019531 385.570312 419.027344 C 385.570312 419.496094 385.566406 419.964844 385.570312 420.429688 C 385.582031 421.546875 385.613281 422.660156 385.660156 423.773438 C 386.046875 433.664062 387.808594 443.476562 391.203125 452.824219 C 393 457.773438 395.234375 462.527344 397.820312 467.0625 C 398.394531 468.089844 398.988281 469.109375 399.605469 470.113281 C 399.976562 470.71875 400.355469 471.3125 400.738281 471.90625 C 400.949219 472.230469 401.167969 472.542969 401.378906 472.863281 C 403.679688 476.328125 406.207031 479.664062 409.007812 482.808594 C 411.632812 485.757812 414.460938 488.480469 417.433594 491.015625 C 417.613281 491.167969 417.792969 491.324219 417.972656 491.472656 C 418.667969 492.058594 419.363281 492.644531 420.074219 493.207031 C 422.085938 494.8125 424.164062 496.339844 426.320312 497.773438 C 435.648438 503.976562 446.113281 508.25 457.007812 510.664062 C 457.035156 510.667969 457.066406 510.675781 457.09375 510.683594 C 457.765625 510.835938 458.445312 510.96875 459.121094 511.105469 C 460.375 511.359375 461.628906 511.59375 462.890625 511.796875 C 462.910156 511.800781 462.929688 511.804688 462.949219 511.804688 C 464.371094 512.035156 465.796875 512.21875 467.226562 512.382812 C 467.464844 512.410156 467.703125 512.441406 467.945312 512.464844 C 469.4375 512.625 470.9375 512.753906 472.4375 512.84375 C 472.601562 512.851562 472.765625 512.855469 472.925781 512.863281 C 474.210938 512.933594 475.496094 512.972656 476.78125 512.992188 C 476.960938 512.996094 477.140625 513.007812 477.324219 513.011719 C 477.617188 513.015625 477.910156 512.996094 478.203125 512.996094 C 479.453125 512.996094 480.699219 512.972656 481.945312 512.925781 C 482.351562 512.910156 482.757812 512.898438 483.164062 512.878906 C 483.363281 512.871094 483.566406 512.867188 483.765625 512.859375 C 491.660156 512.414062 499.773438 511.324219 507.347656 508.796875 C 508.171875 508.527344 508.988281 508.238281 509.800781 507.929688 C 510.046875 507.835938 510.292969 507.734375 510.539062 507.632812 C 511.480469 507.261719 512.414062 506.863281 513.335938 506.429688 C 513.417969 506.390625 513.503906 506.359375 513.589844 506.320312 C 513.621094 506.304688 513.652344 506.289062 513.683594 506.273438 C 514.40625 505.925781 515.125 505.566406 515.835938 505.183594 C 515.90625 505.144531 515.96875 505.097656 516.039062 505.058594 C 517.140625 504.457031 518.222656 503.816406 519.269531 503.136719 C 519.414062 503.042969 519.550781 502.941406 519.691406 502.847656 C 520.625 502.230469 521.539062 501.582031 522.433594 500.902344 C 522.632812 500.753906 522.828125 500.601562 523.027344 500.449219 C 523.964844 499.714844 524.882812 498.960938 525.773438 498.167969 C 525.820312 498.125 525.871094 498.085938 525.921875 498.042969 C 527.84375 496.324219 529.644531 494.480469 531.320312 492.535156 C 531.613281 492.199219 531.898438 491.851562 532.183594 491.507812 C 532.386719 491.261719 532.597656 491.027344 532.792969 490.78125 C 532.953125 490.578125 533.101562 490.371094 533.257812 490.167969 C 535.269531 487.625 537.121094 484.953125 538.761719 482.167969 C 544.121094 473.078125 547.707031 462.875 549.710938 452.535156 C 550.945312 446.152344 551.703125 439.574219 551.640625 433.03125 C 551.640625 432.804688 551.644531 432.582031 551.640625 432.359375 C 551.628906 431.851562 551.609375 431.34375 551.589844 430.835938 C 551.566406 430.226562 551.539062 429.617188 551.5 429.007812 C 551.476562 428.640625 551.453125 428.273438 551.425781 427.90625 C 551.347656 426.925781 551.253906 425.945312 551.132812 424.964844 C 551.128906 424.933594 551.121094 424.90625 551.117188 424.875 C 551.117188 424.855469 551.113281 424.835938 551.113281 424.820312 C 551.078125 424.550781 551.03125 424.28125 550.996094 424.011719 C 550.933594 423.574219 550.875 423.136719 550.804688 422.703125 C 550.371094 419.929688 549.757812 417.199219 548.6875 414.589844 C 546.972656 410.414062 544.070312 406.910156 540.652344 404.007812 C 540.589844 403.953125 540.523438 403.898438 540.460938 403.84375 C 539.757812 403.253906 539.042969 402.683594 538.304688 402.144531 C 538.164062 402.042969 538.011719 401.960938 537.871094 401.859375 C 537.78125 401.796875 537.6875 401.746094 537.601562 401.683594 C 531.546875 397.492188 524.191406 395.148438 516.785156 394.285156 C 516.453125 394.242188 516.117188 394.207031 515.78125 394.167969 C 518.203125 390.316406 519.976562 385.980469 520.839844 381.746094 C 523.316406 369.589844 518.726562 356.472656 508.410156 349.34375 C 500 343.53125 488.351562 342.585938 478.890625 346.226562 C 467.71875 350.53125 459.808594 360.390625 459.117188 372.535156 C 458.695312 379.996094 461.039062 387.738281 464.863281 394.375 C 459.054688 395.175781 453.289062 396.925781 448.089844 399.328125 C 441.867188 402.207031 436.433594 406.539062 432.410156 412.097656 C 428.546875 417.441406 426.75 423.75 425.839844 430.199219 C 424.445312 440.070312 424.171875 450.078125 423.214844 459.996094 C 423.011719 462.121094 425.175781 463.941406 427.160156 463.941406 C 429.460938 463.941406 430.898438 462.125 431.105469 459.996094 C 431.914062 451.59375 432.269531 443.148438 433.160156 434.75 C 433.753906 429.164062 434.867188 423.222656 437.570312 418.609375 C 443.320312 408.796875 453.929688 404.265625 464.730469 402.421875 C 465.277344 402.328125 465.824219 402.25 466.371094 402.167969 C 466.632812 402.136719 466.890625 402.101562 467.152344 402.074219 C 467.976562 401.980469 468.804688 401.90625 469.628906 401.851562 C 470.394531 401.800781 471.164062 401.757812 471.929688 401.761719 C 475.414062 401.78125 476.632812 398.015625 475.027344 395.46875 C 475.066406 395.511719 475.0625 395.496094 474.96875 395.355469 C 474.710938 394.964844 474.414062 394.597656 474.144531 394.214844 C 473.234375 392.902344 472.390625 391.542969 471.617188 390.148438 C 469.464844 386.273438 467.847656 382.25 467.195312 377.726562 C 466.433594 372.472656 467.410156 367.144531 470.230469 362.628906 C 472.359375 359.230469 475.320312 356.667969 478.988281 354.757812 C 482.300781 353.039062 486.476562 352.046875 490.238281 351.984375 C 494.117188 351.921875 498.167969 352.722656 501.480469 354.402344 C 505.234375 356.304688 508.109375 358.914062 510.222656 362.503906 C 512.921875 367.089844 514.078125 372.453125 513.539062 377.738281 C 513.0625 382.398438 511.25 386.527344 508.675781 390.472656 C 508.210938 391.1875 507.710938 391.878906 507.207031 392.566406 C 507.097656 392.703125 506.988281 392.84375 506.875 392.976562 C 506.679688 393.210938 506.484375 393.449219 506.285156 393.679688 C 505.859375 394.167969 505.429688 394.652344 504.960938 395.101562 C 502.609375 397.355469 504.292969 402.089844 507.75 401.832031 C 509.117188 401.730469 510.5 401.757812 511.867188 401.8125 C 512.582031 401.839844 513.292969 401.882812 514.003906 401.941406 C 514.007812 401.941406 514.011719 401.941406 514.015625 401.941406 C 514.664062 401.992188 515.3125 402.058594 515.960938 402.132812 C 516.238281 402.164062 516.539062 402.203125 516.664062 402.214844 C 516.675781 402.21875 516.683594 402.21875 516.695312 402.222656 C 517.128906 402.289062 517.5625 402.355469 517.992188 402.429688 C 518.773438 402.5625 519.550781 402.730469 520.324219 402.902344 C 521.230469 403.101562 522.128906 403.332031 523.023438 403.582031 C 523.28125 403.65625 523.546875 403.71875 523.804688 403.796875 C 524.800781 404.09375 525.78125 404.441406 526.753906 404.8125 C 528.292969 405.410156 529.785156 406.125 531.222656 406.929688 C 534.304688 408.71875 537.234375 411.140625 539.386719 414.042969 C 539.714844 414.5 540.046875 414.949219 540.339844 415.4375 C 540.480469 415.667969 540.617188 415.898438 540.746094 416.132812 C 540.867188 416.359375 540.984375 416.582031 541.097656 416.808594 C 541.15625 416.933594 541.214844 417.058594 541.277344 417.175781 C 541.328125 417.304688 541.375 417.433594 541.425781 417.5625 C 541.898438 418.863281 542.28125 420.183594 542.589844 421.53125 C 542.671875 421.890625 542.75 422.25 542.820312 422.609375 C 542.871094 422.875 542.921875 423.140625 542.96875 423.402344 C 543.050781 423.847656 543.128906 424.292969 543.203125 424.738281 C 543.222656 424.855469 543.238281 424.96875 543.25 425.050781 C 543.277344 425.28125 543.351562 425.90625 543.386719 426.195312 C 543.40625 426.375 543.414062 426.554688 543.433594 426.738281 C 543.496094 427.398438 543.550781 428.0625 543.59375 428.726562 C 543.683594 430.105469 543.726562 431.480469 543.738281 432.859375 C 543.738281 433.230469 543.738281 433.597656 543.734375 433.964844 C 543.730469 435.207031 543.699219 436.445312 543.636719 437.6875 C 543.628906 437.890625 543.625 438.09375 543.613281 438.296875 C 543.523438 439.859375 543.390625 441.417969 543.226562 442.972656 C 543.148438 443.703125 543.074219 444.433594 542.980469 445.160156 C 542.976562 445.210938 542.972656 445.226562 542.96875 445.253906 C 542.960938 445.3125 542.957031 445.355469 542.945312 445.4375 C 542.820312 446.289062 542.6875 447.132812 542.542969 447.980469 C 542.488281 448.304688 542.421875 448.628906 542.363281 448.957031 C 542.105469 450.398438 541.816406 451.832031 541.5 453.261719 C 541.417969 453.621094 541.339844 453.980469 541.257812 454.335938 C 540.878906 455.945312 540.464844 457.546875 540.007812 459.136719 C 539.925781 459.417969 539.839844 459.691406 539.753906 459.96875 C 539.273438 461.585938 538.761719 463.167969 538.214844 464.703125 C 538.132812 464.941406 538.054688 465.1875 537.96875 465.421875 C 537.910156 465.582031 537.851562 465.738281 537.792969 465.898438 C 537.046875 467.894531 536.238281 469.820312 535.367188 471.683594 C 535.269531 471.890625 535.175781 472.101562 535.078125 472.308594 C 534.578125 473.351562 534.054688 474.390625 533.507812 475.414062 C 533.414062 475.59375 533.3125 475.769531 533.214844 475.949219 C 532.785156 476.738281 532.34375 477.519531 531.886719 478.292969 C 531.644531 478.703125 531.394531 479.109375 531.144531 479.511719 C 530.84375 480 530.53125 480.480469 530.21875 480.960938 C 529.871094 481.496094 529.519531 482.027344 529.15625 482.550781 C 529.058594 482.691406 528.953125 482.824219 528.855469 482.964844 C 527.597656 484.730469 526.25 486.40625 524.824219 488 C 524.300781 488.578125 523.773438 489.148438 523.230469 489.707031 C 520.875 492.109375 518.320312 494.253906 515.582031 496.09375 C 506.667969 501.863281 496.5625 504.03125 485.667969 504.847656 C 463.269531 506.523438 440.765625 500.191406 423.566406 485.925781 C 423.433594 485.816406 423.304688 485.703125 423.171875 485.59375 C 422.347656 484.898438 421.542969 484.179688 420.746094 483.449219 C 420.363281 483.097656 419.976562 482.75 419.601562 482.390625 C 419.042969 481.863281 418.503906 481.320312 417.964844 480.773438 C 417.214844 480.015625 416.476562 479.246094 415.757812 478.460938 C 415.292969 477.957031 414.824219 477.453125 414.371094 476.933594 C 413.941406 476.441406 413.527344 475.941406 413.113281 475.441406 C 412.648438 474.882812 412.191406 474.328125 411.746094 473.757812 C 411.410156 473.332031 411.074219 472.902344 410.746094 472.46875 C 410.074219 471.578125 409.414062 470.679688 408.78125 469.765625 C 408.695312 469.644531 408.609375 469.527344 408.523438 469.40625 C 399.507812 456.253906 394.40625 440.644531 393.546875 424.542969 C 393.535156 424.308594 393.523438 424.074219 393.515625 423.84375 C 393.457031 422.585938 393.425781 421.324219 393.417969 420.0625 C 393.417969 419.910156 393.414062 419.761719 393.414062 419.609375 C 393.417969 416.40625 393.578125 413.207031 393.871094 410.015625 C 393.871094 410 393.867188 409.988281 393.871094 409.972656 C 394.792969 400.203125 397.089844 390.535156 400.550781 381.414062 C 407.335938 363.546875 419.429688 347.496094 435.121094 336.550781 C 450.882812 325.550781 469.65625 319.757812 488.832031 320.003906 C 508.507812 320.253906 527.683594 327.074219 543.210938 339.160156 C 558.789062 351.289062 570.507812 368.203125 576.46875 387.015625 C 581.894531 404.144531 582.167969 421.984375 578.695312 439.515625 C 577.5 445.539062 575.984375 451.5 574.144531 457.359375 C 573.144531 460.550781 572.046875 463.710938 570.851562 466.828125 C 570.546875 467.617188 570.238281 468.402344 569.925781 469.1875 C 569.765625 469.578125 569.605469 469.972656 569.445312 470.367188 C 569.375 470.535156 569.304688 470.703125 569.234375 470.871094 C 569.203125 470.945312 569.195312 470.96875 569.191406 470.976562 C 569.175781 471.015625 569.160156 471.050781 569.132812 471.113281 C 568.429688 472.757812 567.699219 474.390625 566.933594 476.007812 C 563.839844 482.574219 560.238281 488.90625 556.066406 494.84375 C 552.007812 500.625 547.070312 506.324219 541.402344 511.421875 C 529.363281 522.257812 514.285156 529.371094 497.914062 532.265625 C 478.414062 535.710938 457.144531 533.589844 438.433594 526.699219 C 420.664062 520.152344 405.058594 508.71875 393.140625 494.054688 C 381.179688 479.335938 373.382812 461.375 369.746094 442.769531 C 365.792969 422.550781 366.816406 401.246094 372.324219 381.417969 C 377.628906 362.324219 387.386719 344.542969 401 330.109375 C 413.964844 316.363281 430.195312 305.742188 448.015625 299.554688 C 466.316406 293.203125 486.246094 291.175781 505.4375 294.222656 C 524.484375 297.246094 542.632812 305.265625 557.664062 317.363281 C 573.089844 329.78125 585.191406 345.847656 593.378906 363.84375 C 601.9375 382.667969 605.863281 403.515625 605.335938 424.152344 C 605.207031 429.242188 604.90625 434.3125 603.964844 439.25 C 602.9375 444.648438 601.433594 449.953125 599.71875 455.175781 C 596.277344 465.675781 591.96875 475.882812 587.277344 485.878906 C 585.265625 490.171875 582.34375 494.625 581.632812 499.351562 C 580.769531 505.128906 582.691406 511.078125 586.960938 515.121094 C 586.976562 515.136719 586.984375 515.148438 586.996094 515.160156 C 592.730469 520.265625 598.464844 525.367188 604.199219 530.46875 C 617.671875 542.464844 631.148438 554.457031 644.625 566.453125 C 660.257812 580.363281 675.890625 594.277344 691.519531 608.1875 C 696.742188 612.835938 701.960938 617.480469 707.183594 622.125 C 713.296875 627.570312 719.410156 633.007812 725.523438 638.449219 C 729.761719 642.222656 734.015625 645.976562 738.238281 649.765625 C 738.238281 649.765625 738.242188 649.769531 738.242188 649.769531 C 738.40625 649.917969 738.574219 650.058594 738.734375 650.207031 C 739.773438 651.1875 740.40625 652.429688 740.480469 653.730469 C 740.476562 653.785156 740.492188 653.84375 740.488281 653.898438 C 740.488281 653.925781 740.484375 653.957031 740.480469 653.984375 C 740.355469 655.53125 739.363281 656.992188 738.238281 658.285156 C 736.761719 659.980469 735.289062 661.675781 733.8125 663.367188 C 733.203125 664.070312 732.59375 664.769531 731.984375 665.46875 C 731.859375 665.613281 731.730469 665.761719 731.605469 665.90625 C 730.238281 667.476562 728.742188 668.945312 726.878906 669.097656 C 726.769531 669.101562 726.65625 669.109375 726.546875 669.105469 C 726.507812 669.105469 726.460938 669.097656 726.417969 669.09375 C 725.253906 668.996094 724.144531 668.441406 723.171875 667.609375 C 722.730469 667.230469 722.300781 666.839844 721.863281 666.457031 C 721.785156 666.382812 721.699219 666.300781 721.621094 666.230469 C 719.546875 664.386719 717.476562 662.546875 715.402344 660.703125 C 712.480469 658.105469 709.558594 655.511719 706.636719 652.914062 C 698.433594 645.625 690.234375 638.335938 682.03125 631.042969 C 666.570312 617.304688 651.109375 603.5625 635.648438 589.820312 C 633.566406 587.972656 631.484375 586.121094 629.402344 584.269531 C 622.320312 577.976562 615.242188 571.683594 608.160156 565.390625 C 604.78125 562.390625 601.402344 559.386719 598.023438 556.382812 C 596.261719 554.816406 594.503906 553.253906 592.742188 551.6875 C 592.691406 551.644531 592.640625 551.597656 592.589844 551.554688 C 584.621094 544.472656 576.652344 537.386719 568.683594 530.304688 C 568.320312 529.980469 567.957031 529.660156 567.59375 529.335938 C 563.808594 525.972656 558.210938 531.53125 562.015625 534.914062 C 565.113281 537.667969 568.210938 540.421875 571.3125 543.175781 C 572.546875 544.269531 573.78125 545.367188 575.015625 546.464844 C 576.476562 547.761719 577.933594 549.0625 579.394531 550.359375 C 592.957031 562.414062 606.523438 574.46875 620.085938 586.523438 C 621.671875 587.933594 623.261719 589.34375 624.847656 590.753906 C 625.566406 591.394531 626.289062 592.035156 627.007812 592.675781 C 628.492188 593.996094 629.976562 595.316406 631.464844 596.632812 C 643.570312 607.394531 655.675781 618.15625 667.78125 628.914062 C 667.988281 629.09375 668.191406 629.277344 668.394531 629.457031 C 676.257812 636.445312 684.117188 643.433594 691.980469 650.421875 C 695.367188 653.429688 698.75 656.4375 702.132812 659.445312 C 703.355469 660.527344 704.574219 661.613281 705.796875 662.699219 C 707.464844 664.183594 709.132812 665.664062 710.804688 667.148438 C 711.445312 667.71875 712.089844 668.292969 712.730469 668.863281 C 713.820312 669.832031 714.910156 670.800781 716 671.765625 C 716.652344 672.347656 717.300781 672.9375 717.960938 673.511719 C 722.332031 677.277344 728.613281 678.238281 733.582031 674.910156 C 733.75 674.796875 733.898438 674.664062 734.0625 674.539062 C 734.3125 674.359375 734.5625 674.179688 734.808594 673.976562 C 736.96875 672.183594 738.710938 669.726562 740.542969 667.617188 C 742.171875 665.746094 744.023438 663.890625 745.539062 661.875 C 745.765625 661.585938 745.976562 661.289062 746.179688 660.992188 C 746.246094 660.890625 746.328125 660.796875 746.394531 660.695312 C 746.445312 660.617188 746.484375 660.535156 746.535156 660.457031 C 746.582031 660.378906 746.640625 660.304688 746.6875 660.226562 C 746.722656 660.160156 746.75 660.089844 746.785156 660.023438 C 747.800781 658.226562 748.292969 656.308594 748.332031 654.398438 C 748.410156 652.222656 747.953125 650.027344 746.933594 648.046875 Z M 201.855469 344.988281 C 201.855469 339.914062 193.96875 339.90625 193.96875 344.988281 C 193.96875 351.554688 193.96875 358.117188 193.96875 364.683594 C 193.96875 380.441406 193.96875 396.199219 193.96875 411.957031 C 193.96875 430.945312 193.96875 449.933594 193.96875 468.917969 C 193.96875 485.332031 193.96875 501.75 193.96875 518.164062 C 193.96875 526.152344 193.695312 534.199219 193.96875 542.183594 C 193.972656 542.296875 193.96875 542.40625 193.96875 542.519531 C 193.96875 547.59375 201.855469 547.601562 201.855469 542.519531 C 201.855469 535.953125 201.855469 529.390625 201.855469 522.828125 C 201.855469 507.066406 201.855469 491.308594 201.855469 475.550781 C 201.855469 456.5625 201.855469 437.578125 201.855469 418.589844 C 201.855469 402.175781 201.855469 385.761719 201.855469 369.347656 C 201.855469 361.355469 202.128906 353.3125 201.855469 345.324219 C 201.851562 345.210938 201.855469 345.101562 201.855469 344.988281 Z M 382.082031 242.992188 C 391.066406 248.675781 401.347656 252.113281 411.933594 253.09375 C 431.226562 254.886719 450.234375 249.320312 466.019531 238.230469 C 481.347656 227.464844 493.023438 212.027344 500.777344 195.097656 C 502.355469 191.65625 508.625 193.246094 508.125 197.085938 C 507.785156 199.703125 507.679688 202.398438 508.046875 205.019531 C 509.644531 216.34375 517.988281 225.753906 526.925781 232.265625 C 537.71875 240.125 550.539062 245.089844 563.535156 247.894531 C 576.910156 250.78125 591.011719 250.847656 604.125 246.675781 C 605.382812 246.273438 606.628906 245.824219 607.863281 245.34375 C 608.46875 237.09375 609.96875 228.941406 612.203125 221.21875 C 614.203125 214.289062 616.722656 206.644531 622.519531 201.925781 C 628.21875 197.289062 636.800781 196.003906 642.714844 200.980469 C 647.914062 205.347656 648.1875 212.867188 646.375 218.925781 C 644.429688 225.4375 640.203125 231.265625 635.613281 236.179688 C 629.949219 242.234375 623.015625 247.085938 615.476562 250.644531 C 614.96875 271.203125 620.816406 292.4375 635.808594 306.941406 C 651.03125 321.675781 675.375 329.359375 695.371094 320.023438 C 699.398438 318.144531 703.25 322.792969 700.152344 326.21875 C 690.320312 337.085938 680.464844 348.03125 672.324219 360.253906 C 665.332031 370.75 659.625 382.179688 656.9375 394.570312 C 654.683594 404.964844 654.742188 415.90625 656.824219 426.328125 C 661.085938 447.660156 673.394531 467.453125 691.734375 479.425781 C 695.972656 482.191406 692.019531 489.019531 687.753906 486.234375 C 676.535156 478.910156 667.199219 468.984375 660.378906 457.460938 C 648.375 437.175781 644.085938 412.09375 650.125 389.175781 C 655.984375 366.921875 670.066406 348.414062 685.066406 331.285156 C 661.578125 335.023438 637.089844 323.023438 623.046875 304.285156 C 612.207031 289.8125 607.625 271.84375 607.566406 253.804688 C 605.121094 254.628906 602.644531 255.363281 600.140625 255.921875 C 584.492188 259.398438 568.042969 257.867188 552.792969 253.253906 C 538.949219 249.070312 525.539062 242.597656 515.007812 232.511719 C 508.789062 226.554688 503.683594 219.117188 501.347656 210.90625 C 497.804688 216.820312 493.761719 222.433594 489.242188 227.65625 C 476.082031 242.863281 458.484375 254.597656 438.746094 259.097656 C 418.289062 263.761719 395.996094 261.121094 378.101562 249.800781 C 373.816406 247.09375 377.78125 240.269531 382.082031 242.992188 Z M 616.128906 241.46875 C 622.609375 237.828125 628.445312 233.03125 632.996094 227.164062 C 636.214844 223.019531 639.394531 217.964844 639.53125 212.546875 C 639.648438 207.871094 636.449219 204.613281 631.457031 205.957031 C 625.589844 207.539062 622.886719 213.796875 621.128906 219.054688 C 619.0625 225.230469 617.546875 231.605469 616.570312 238.042969 C 616.398438 239.175781 616.261719 240.320312 616.128906 241.46875 Z M 616.128906 241.46875 " fill-opacity="1" fill-rule="nonzero"/></g><g clip-path="url(#9f13751de3)"><path fill="#dc4f50" d="M 356.4375 349.058594 C 347.660156 349.050781 338.886719 349.039062 330.109375 349.023438 C 328.378906 349.019531 326.648438 349.015625 324.917969 349.007812 C 311.539062 348.976562 298.160156 348.914062 284.78125 348.933594 C 282.988281 348.9375 281.28125 349.25 279.695312 349.796875 C 279.484375 349.871094 279.269531 349.9375 279.0625 350.019531 C 278.980469 350.050781 278.898438 350.089844 278.8125 350.125 C 274.644531 351.867188 271.519531 355.414062 270.410156 359.917969 C 270.128906 361.050781 269.964844 362.238281 269.957031 363.480469 C 269.953125 364 269.960938 364.519531 269.957031 365.039062 C 269.957031 369.40625 269.957031 373.769531 269.957031 378.132812 C 269.957031 380.363281 269.957031 382.597656 269.957031 384.828125 C 269.957031 393.691406 269.957031 402.554688 269.957031 411.421875 C 269.957031 414.941406 269.957031 418.460938 269.957031 421.980469 C 269.957031 433.792969 269.957031 445.605469 269.957031 457.417969 C 269.957031 461.773438 269.957031 466.128906 269.957031 470.488281 C 269.957031 483.90625 269.957031 497.324219 269.957031 510.742188 C 269.957031 515.46875 269.957031 520.191406 269.957031 524.917969 C 269.957031 538.453125 269.957031 551.984375 269.957031 565.519531 C 269.957031 570.0625 269.957031 574.601562 269.957031 579.144531 C 269.957031 591.378906 269.957031 603.617188 269.957031 615.855469 C 269.957031 619.777344 269.957031 623.695312 269.957031 627.617188 C 269.957031 637.171875 269.957031 646.722656 269.957031 656.277344 C 269.957031 659.089844 269.957031 661.90625 269.957031 664.71875 C 269.957031 670.203125 269.957031 675.683594 269.957031 681.167969 C 269.957031 682.257812 269.957031 683.347656 269.957031 684.433594 C 269.957031 684.9375 269.953125 685.4375 269.957031 685.9375 C 269.964844 687.351562 270.171875 688.710938 270.539062 690.003906 C 271.539062 693.5 273.773438 696.4375 276.773438 698.3125 C 278.933594 699.664062 281.476562 700.46875 284.25 700.511719 C 289.191406 700.582031 289.308594 708.023438 284.640625 708.363281 C 284.511719 708.375 284.390625 708.398438 284.25 708.398438 C 278.226562 708.308594 272.386719 705.882812 268.25 701.511719 C 268.25 701.511719 268.246094 701.511719 268.246094 701.511719 C 267.894531 701.140625 267.535156 700.78125 267.210938 700.382812 C 267.035156 700.167969 266.890625 699.945312 266.726562 699.726562 C 265.179688 697.683594 264.039062 695.484375 263.289062 693.152344 C 263.28125 693.132812 263.277344 693.117188 263.269531 693.097656 C 263.234375 692.992188 263.214844 692.878906 263.179688 692.773438 C 262.425781 690.28125 262.070312 687.660156 262.070312 684.953125 C 262.070312 684.558594 262.070312 684.167969 262.070312 683.777344 C 262.070312 681.894531 262.070312 680.011719 262.070312 678.128906 C 262.070312 678.085938 262.070312 678.039062 262.070312 677.992188 C 262.070312 668.492188 262.070312 658.992188 262.070312 649.492188 C 262.070312 649.40625 262.070312 649.316406 262.070312 649.230469 C 262.070312 634.769531 262.070312 620.308594 262.070312 605.847656 C 262.070312 605.730469 262.070312 605.617188 262.070312 605.5 C 262.070312 588.054688 262.070312 570.613281 262.070312 553.167969 C 262.070312 553.039062 262.070312 552.910156 262.070312 552.78125 C 262.070312 534.332031 262.070312 515.886719 262.070312 497.441406 C 262.070312 497.308594 262.070312 497.179688 262.070312 497.050781 C 262.070312 479.578125 262.070312 462.109375 262.070312 444.636719 C 262.070312 444.519531 262.070312 444.40625 262.070312 444.289062 C 262.070312 429.730469 262.070312 415.167969 262.070312 400.605469 C 262.070312 400.5625 262.070312 400.519531 262.070312 400.476562 C 262.070312 390.867188 262.070312 381.261719 262.070312 371.652344 C 262.070312 368.410156 261.960938 365.167969 262.226562 362.003906 C 262.238281 361.882812 262.253906 361.765625 262.265625 361.644531 C 262.296875 361.316406 262.324219 360.992188 262.363281 360.667969 C 262.390625 360.460938 262.425781 360.257812 262.453125 360.050781 C 262.488281 359.8125 262.515625 359.574219 262.558594 359.339844 C 262.605469 359.058594 262.664062 358.78125 262.71875 358.503906 C 262.75 358.34375 262.777344 358.183594 262.8125 358.023438 C 262.886719 357.691406 262.972656 357.359375 263.0625 357.027344 C 263.085938 356.921875 263.109375 356.820312 263.136719 356.71875 C 263.242188 356.351562 263.359375 355.988281 263.480469 355.625 C 263.503906 355.558594 263.519531 355.496094 263.542969 355.429688 C 263.660156 355.089844 263.796875 354.753906 263.9375 354.417969 C 263.972656 354.332031 264 354.242188 264.039062 354.15625 C 264.175781 353.832031 264.332031 353.511719 264.492188 353.195312 C 264.539062 353.097656 264.578125 352.996094 264.628906 352.898438 C 264.804688 352.558594 265 352.222656 265.199219 351.886719 C 265.242188 351.8125 265.28125 351.738281 265.324219 351.664062 C 265.574219 351.257812 265.84375 350.851562 266.136719 350.449219 C 266.636719 349.757812 267.171875 349.09375 267.738281 348.46875 C 267.84375 348.355469 267.960938 348.257812 268.066406 348.144531 C 272.007812 343.964844 277.351562 341.398438 283.195312 341.074219 C 290.058594 340.695312 297.046875 341.074219 303.921875 341.089844 C 321.425781 341.125 338.933594 341.152344 356.4375 341.171875 C 361.519531 341.175781 361.515625 349.0625 356.4375 349.058594 Z M 513.683594 506.273438 C 513.566406 506.328125 513.449219 506.375 513.332031 506.429688 C 513.417969 506.390625 513.503906 506.359375 513.589844 506.320312 C 513.621094 506.304688 513.652344 506.289062 513.683594 506.273438 Z M 598.023438 556.386719 C 601.402344 559.386719 604.78125 562.390625 608.160156 565.394531 C 603.019531 560.828125 597.882812 556.257812 592.742188 551.691406 C 594.5 553.257812 596.261719 554.820312 598.023438 556.386719 Z M 571.308594 543.175781 C 572.542969 544.273438 573.777344 545.371094 575.011719 546.46875 C 570.679688 542.617188 566.347656 538.765625 562.015625 534.914062 C 565.113281 537.667969 568.210938 540.421875 571.308594 543.175781 Z M 746.390625 660.699219 C 746.445312 660.621094 746.484375 660.539062 746.53125 660.460938 C 746.421875 660.644531 746.300781 660.820312 746.179688 660.996094 C 746.246094 660.894531 746.328125 660.800781 746.390625 660.699219 Z M 691.980469 650.425781 C 695.363281 653.433594 698.75 656.441406 702.132812 659.449219 C 690.886719 649.453125 679.640625 639.457031 668.394531 629.460938 C 676.257812 636.449219 684.117188 643.4375 691.980469 650.425781 Z M 624.847656 590.757812 C 627.050781 592.71875 629.257812 594.679688 631.460938 596.636719 C 629.976562 595.320312 628.492188 594 627.007812 592.679688 C 626.289062 592.039062 625.566406 591.398438 624.847656 590.757812 Z M 591.578125 343.882812 C 580.644531 326.511719 565.742188 311.589844 547.992188 301.199219 C 530.042969 290.695312 509.59375 285.242188 488.820312 285.023438 C 468.429688 284.808594 448.121094 289.53125 429.925781 298.734375 C 411.839844 307.882812 396.234375 321.496094 384.414062 337.929688 C 371.945312 355.261719 364.042969 375.78125 361.066406 396.886719 C 358.070312 418.109375 359.457031 439.976562 366.191406 460.386719 C 372.433594 479.3125 383.101562 496.808594 397.65625 510.484375 C 412.507812 524.441406 431.058594 534.164062 450.945312 538.589844 C 471.109375 543.078125 493.089844 543.078125 512.855469 536.695312 C 528.960938 531.492188 543.347656 521.964844 554.589844 509.335938 C 564.890625 497.761719 572.511719 484.15625 578.128906 469.769531 C 582.660156 458.164062 585.859375 446 587.671875 433.671875 C 590.851562 412.011719 587.78125 390.058594 578.238281 370.304688 C 569.191406 351.570312 554.4375 335.519531 536.390625 325.136719 C 518.179688 314.660156 496.765625 310.265625 475.902344 312.816406 C 455.675781 315.289062 436.730469 323.8125 421.484375 337.339844 C 405.871094 351.1875 394.878906 369.875 389.511719 389.984375 C 387.796875 396.40625 386.644531 403 386.046875 409.644531 C 386.371094 407.683594 387.769531 406.074219 389.925781 406.074219 C 391.90625 406.074219 394.03125 407.871094 393.867188 409.972656 C 394.792969 400.203125 397.089844 390.535156 400.550781 381.414062 C 407.335938 363.546875 419.429688 347.5 435.121094 336.550781 C 450.882812 325.554688 469.65625 319.757812 488.832031 320.003906 C 508.503906 320.253906 527.683594 327.074219 543.210938 339.164062 C 558.789062 351.292969 570.507812 368.203125 576.46875 387.015625 C 581.894531 404.144531 582.167969 421.988281 578.691406 439.519531 C 577.5 445.542969 575.984375 451.503906 574.144531 457.363281 C 573.144531 460.550781 572.046875 463.710938 570.851562 466.832031 C 570.546875 467.621094 570.238281 468.402344 569.925781 469.1875 C 569.765625 469.582031 569.605469 469.972656 569.441406 470.367188 C 569.375 470.535156 569.304688 470.703125 569.234375 470.875 C 569.203125 470.945312 569.191406 470.96875 569.191406 470.980469 C 569.171875 471.015625 569.160156 471.054688 569.132812 471.113281 C 568.429688 472.757812 567.699219 474.390625 566.933594 476.011719 C 563.839844 482.574219 560.238281 488.90625 556.066406 494.847656 C 552.007812 500.625 547.066406 506.324219 541.402344 511.425781 C 529.363281 522.257812 514.285156 529.375 497.910156 532.269531 C 478.414062 535.714844 457.144531 533.589844 438.433594 526.699219 C 420.664062 520.15625 405.058594 508.71875 393.140625 494.054688 C 381.179688 479.335938 373.382812 461.378906 369.746094 442.773438 C 365.792969 422.554688 366.816406 401.25 372.324219 381.417969 C 377.625 362.328125 387.386719 344.542969 401 330.109375 C 413.964844 316.367188 430.195312 305.746094 448.015625 299.558594 C 466.316406 293.203125 486.246094 291.175781 505.4375 294.222656 C 524.484375 297.25 542.632812 305.265625 557.664062 317.367188 C 573.085938 329.78125 585.191406 345.847656 593.378906 363.847656 C 601.9375 382.671875 605.863281 403.519531 605.335938 424.15625 C 605.207031 429.242188 604.90625 434.316406 603.964844 439.25 C 602.9375 444.652344 601.433594 449.957031 599.71875 455.175781 C 596.277344 465.675781 591.96875 475.882812 587.277344 485.882812 C 585.265625 490.171875 582.339844 494.625 581.632812 499.355469 C 580.769531 505.128906 582.691406 511.078125 586.960938 515.125 C 583.242188 511.738281 588.808594 506.234375 592.574219 509.585938 C 592.964844 509.933594 593.359375 510.285156 593.75 510.632812 C 596.878906 513.417969 600.007812 516.203125 603.136719 518.988281 C 599.933594 516.136719 596.730469 513.289062 593.53125 510.4375 C 590.277344 507.542969 588.378906 503.625 589.71875 499.191406 C 590.324219 497.1875 591.496094 495.292969 592.40625 493.40625 C 593.5 491.128906 594.578125 488.835938 595.628906 486.535156 C 598.054688 481.226562 600.363281 475.863281 602.519531 470.445312 C 606.710938 459.90625 610.566406 448.960938 612.183594 437.695312 C 613.765625 426.632812 613.609375 415.191406 612.351562 404.105469 C 609.9375 382.804688 603.023438 362.0625 591.578125 343.882812 Z M 715.402344 660.707031 C 712.480469 658.109375 709.558594 655.511719 706.636719 652.914062 C 709.71875 655.65625 712.804688 658.398438 715.890625 661.140625 C 717.882812 662.910156 719.859375 664.703125 721.863281 666.460938 C 721.78125 666.386719 721.699219 666.304688 721.617188 666.230469 C 719.546875 664.390625 717.472656 662.546875 715.402344 660.707031 Z M 726.878906 669.101562 C 727.472656 669.089844 728.078125 668.964844 728.683594 668.679688 C 730.019531 668.054688 731.027344 666.574219 731.984375 665.472656 C 731.855469 665.617188 731.730469 665.761719 731.601562 665.910156 C 730.238281 667.480469 728.742188 668.949219 726.878906 669.101562 Z M 710.800781 667.152344 C 711.445312 667.722656 712.089844 668.296875 712.730469 668.867188 C 713.820312 669.835938 714.910156 670.804688 716 671.769531 C 715.988281 671.761719 715.976562 671.75 715.964844 671.742188 C 714.246094 670.210938 712.523438 668.683594 710.800781 667.152344 Z M 737.980469 670.566406 C 736.738281 671.992188 735.570312 673.410156 734.058594 674.542969 C 734.3125 674.363281 734.5625 674.183594 734.808594 673.980469 C 736.96875 672.1875 738.710938 669.730469 740.542969 667.621094 C 742.171875 665.75 744.019531 663.894531 745.535156 661.878906 C 744.699219 662.9375 743.746094 663.941406 742.886719 664.929688 C 741.25 666.808594 739.613281 668.6875 737.980469 670.566406 Z M 739.875 656.25 C 740.292969 655.507812 740.476562 654.742188 740.480469 653.988281 C 740.355469 655.535156 739.359375 656.996094 738.234375 658.289062 C 736.761719 659.984375 735.285156 661.675781 733.8125 663.371094 C 734.863281 662.164062 735.914062 660.957031 736.960938 659.75 C 737.933594 658.636719 739.140625 657.546875 739.875 656.25 Z M 738.234375 649.769531 C 734.011719 645.980469 729.761719 642.222656 725.523438 638.453125 C 719.410156 633.011719 713.292969 627.570312 707.179688 622.128906 C 714.1875 628.363281 721.191406 634.597656 728.199219 640.835938 C 731.25 643.550781 734.300781 646.265625 737.351562 648.980469 C 737.648438 649.246094 737.945312 649.507812 738.242188 649.773438 C 738.238281 649.769531 738.238281 649.769531 738.234375 649.769531 Z M 746.785156 660.027344 C 747.796875 658.230469 748.292969 656.3125 748.332031 654.402344 C 748.257812 656.351562 747.742188 658.28125 746.785156 660.027344 Z M 628.625 541.671875 C 637.761719 549.804688 646.902344 557.941406 656.042969 566.074219 C 649.222656 560.003906 642.402344 553.933594 635.582031 547.863281 C 633.261719 545.800781 630.941406 543.734375 628.625 541.671875 Z M 669.179688 577.769531 C 667.902344 576.632812 666.628906 575.496094 665.351562 574.359375 C 678.003906 585.621094 690.652344 596.878906 703.304688 608.140625 C 703.128906 607.984375 702.953125 607.824219 702.777344 607.667969 C 691.578125 597.703125 680.378906 587.734375 669.179688 577.769531 Z M 669.179688 577.769531 " fill-opacity="1" fill-rule="nonzero"/></g><g clip-path="url(#86fccc0503)"><path fill="#e89ab0" d="M 372.210938 312.78125 C 368.675781 312.777344 365.140625 312.773438 361.605469 312.769531 C 340.410156 312.75 319.214844 312.734375 298.015625 312.714844 C 281.351562 312.699219 264.667969 312.464844 248.003906 312.65625 C 239.957031 312.746094 233.71875 319.203125 233.675781 327.195312 C 233.667969 328.863281 233.675781 330.535156 233.675781 332.207031 C 233.675781 341.011719 233.675781 349.820312 233.675781 358.628906 C 233.675781 372.710938 233.675781 386.792969 233.675781 400.871094 C 233.675781 417.8125 233.675781 434.753906 233.675781 451.691406 C 233.675781 469.074219 233.675781 486.457031 233.675781 503.835938 C 233.675781 519.246094 233.675781 534.652344 233.675781 550.058594 C 233.675781 561.074219 233.675781 572.089844 233.675781 583.109375 C 233.675781 587.316406 233.675781 591.527344 233.675781 595.734375 C 233.675781 600.816406 225.789062 600.808594 225.789062 595.734375 C 225.789062 595.460938 225.789062 595.1875 225.789062 594.914062 C 225.789062 588.730469 225.789062 582.550781 225.789062 576.367188 C 225.789062 563.898438 225.789062 551.429688 225.789062 538.960938 C 225.789062 522.613281 225.789062 506.265625 225.789062 489.914062 C 225.789062 472.222656 225.789062 454.527344 225.789062 436.832031 C 225.789062 420.34375 225.789062 403.855469 225.789062 387.371094 C 225.789062 374.5 225.789062 361.625 225.789062 348.753906 C 225.789062 341.96875 225.789062 335.183594 225.789062 328.394531 C 225.789062 323.328125 226.824219 318.367188 229.855469 314.171875 C 233.734375 308.804688 239.527344 305.527344 246.105469 304.863281 C 249.0625 304.5625 252.136719 304.777344 255.105469 304.78125 C 274.714844 304.8125 294.324219 304.824219 313.933594 304.84375 C 333.359375 304.859375 352.785156 304.875 372.210938 304.894531 C 377.296875 304.898438 377.289062 312.785156 372.210938 312.78125 Z M 746.933594 648.046875 C 745.464844 645.199219 742.609375 643.121094 740.257812 641.027344 C 730.007812 631.90625 719.761719 622.785156 709.515625 613.667969 C 707.445312 611.824219 705.375 609.980469 703.304688 608.140625 C 690.652344 596.878906 678.003906 585.621094 665.351562 574.359375 C 664.664062 573.75 663.980469 573.140625 663.292969 572.53125 C 660.878906 570.378906 658.460938 568.226562 656.042969 566.078125 C 646.902344 557.941406 637.761719 549.808594 628.621094 541.671875 C 625.316406 538.726562 622.007812 535.785156 618.699219 532.839844 C 613.511719 528.222656 608.324219 523.605469 603.132812 518.988281 C 600.003906 516.203125 596.878906 513.417969 593.75 510.632812 C 593.355469 510.285156 592.964844 509.9375 592.570312 509.585938 C 588.804688 506.234375 583.242188 511.738281 586.957031 515.125 C 586.972656 515.136719 586.980469 515.152344 586.996094 515.164062 C 592.726562 520.265625 598.460938 525.371094 604.195312 530.472656 C 617.671875 542.464844 631.148438 554.460938 644.625 566.453125 C 660.253906 580.367188 675.886719 594.277344 691.519531 608.191406 C 696.738281 612.835938 701.960938 617.484375 707.179688 622.128906 C 714.1875 628.363281 721.191406 634.601562 728.199219 640.835938 C 731.25 643.550781 734.300781 646.265625 737.351562 648.980469 C 737.648438 649.246094 737.945312 649.511719 738.242188 649.773438 C 738.40625 649.917969 738.574219 650.0625 738.730469 650.210938 C 739.773438 651.1875 740.40625 652.433594 740.476562 653.734375 C 740.476562 653.789062 740.488281 653.847656 740.484375 653.902344 C 740.484375 653.929688 740.480469 653.960938 740.480469 653.988281 C 740.476562 654.742188 740.292969 655.507812 739.875 656.25 C 739.140625 657.546875 737.929688 658.636719 736.960938 659.75 C 735.910156 660.957031 734.863281 662.164062 733.8125 663.371094 C 733.203125 664.070312 732.59375 664.773438 731.984375 665.472656 C 731.027344 666.574219 730.019531 668.054688 728.683594 668.683594 C 728.074219 668.964844 727.472656 669.089844 726.878906 669.101562 C 726.765625 669.105469 726.65625 669.113281 726.546875 669.105469 C 726.503906 669.105469 726.460938 669.097656 726.417969 669.097656 C 725.25 669 724.140625 668.445312 723.171875 667.613281 C 722.730469 667.234375 722.300781 666.84375 721.863281 666.460938 C 719.859375 664.703125 717.882812 662.910156 715.890625 661.140625 C 712.804688 658.398438 709.71875 655.65625 706.636719 652.914062 C 698.433594 645.625 690.230469 638.335938 682.03125 631.046875 C 666.570312 617.304688 651.109375 603.566406 635.648438 589.824219 C 633.566406 587.972656 631.484375 586.121094 629.402344 584.273438 C 622.320312 577.980469 615.242188 571.6875 608.160156 565.394531 C 603.019531 560.828125 597.882812 556.257812 592.742188 551.691406 C 592.691406 551.648438 592.640625 551.601562 592.589844 551.558594 C 584.621094 544.472656 576.652344 537.390625 568.679688 530.308594 C 568.316406 529.984375 567.953125 529.660156 567.589844 529.339844 C 563.808594 525.976562 558.210938 531.535156 562.015625 534.914062 C 566.347656 538.765625 570.679688 542.617188 575.011719 546.46875 C 576.472656 547.765625 577.933594 549.0625 579.394531 550.363281 C 592.957031 562.417969 606.519531 574.472656 620.085938 586.527344 C 621.671875 587.9375 623.257812 589.347656 624.847656 590.757812 C 627.050781 592.71875 629.257812 594.679688 631.460938 596.636719 C 643.566406 607.398438 655.675781 618.15625 667.78125 628.917969 C 667.984375 629.097656 668.1875 629.28125 668.394531 629.460938 C 679.640625 639.457031 690.886719 649.453125 702.132812 659.445312 C 703.351562 660.53125 704.574219 661.617188 705.792969 662.703125 C 707.464844 664.183594 709.132812 665.667969 710.800781 667.152344 C 712.523438 668.679688 714.242188 670.210938 715.964844 671.742188 C 715.976562 671.75 715.988281 671.761719 716 671.769531 C 716.652344 672.351562 717.296875 672.941406 717.960938 673.511719 C 722.328125 677.28125 728.613281 678.238281 733.578125 674.914062 C 733.75 674.800781 733.898438 674.664062 734.058594 674.542969 C 735.570312 673.410156 736.738281 671.992188 737.980469 670.566406 C 739.613281 668.6875 741.25 666.808594 742.882812 664.929688 C 743.742188 663.941406 744.699219 662.9375 745.535156 661.875 C 745.765625 661.589844 745.972656 661.292969 746.175781 660.996094 C 746.296875 660.816406 746.421875 660.640625 746.53125 660.460938 C 746.578125 660.382812 746.636719 660.308594 746.683594 660.230469 C 746.722656 660.164062 746.746094 660.09375 746.785156 660.027344 C 747.742188 658.28125 748.257812 656.351562 748.332031 654.402344 C 748.410156 652.222656 747.953125 650.027344 746.933594 648.046875 Z M 746.933594 648.046875 " fill-opacity="1" fill-rule="nonzero"/></g><g clip-path="url(#e0149c5d50)"><path fill="#439751" d="M 534.785156 555.648438 C 534.691406 564.117188 534.597656 572.585938 534.503906 581.054688 C 534.308594 598.527344 534.117188 616.003906 533.921875 633.476562 C 533.757812 648.316406 533.59375 663.15625 533.429688 677.992188 C 533.402344 680.71875 533.386719 683.441406 533.339844 686.164062 C 533.203125 694.195312 526.871094 700.4375 518.851562 700.511719 C 512.675781 700.570312 506.496094 700.511719 500.320312 700.511719 C 486.5625 700.511719 472.804688 700.511719 459.046875 700.511719 C 441.425781 700.511719 423.800781 700.511719 406.179688 700.511719 C 388.199219 700.511719 370.21875 700.511719 352.238281 700.511719 C 337.648438 700.511719 323.058594 700.511719 308.46875 700.511719 C 300.808594 700.511719 293.148438 700.511719 285.488281 700.511719 C 282.347656 700.511719 279.335938 699.820312 276.777344 698.316406 C 278.933594 699.664062 281.480469 700.472656 284.25 700.511719 C 289.191406 700.585938 289.308594 708.027344 284.640625 708.367188 C 284.863281 708.371094 285.078125 708.398438 285.300781 708.398438 C 287.992188 708.398438 290.679688 708.398438 293.371094 708.398438 C 305.058594 708.398438 316.746094 708.398438 328.429688 708.398438 C 345.390625 708.398438 362.355469 708.398438 379.316406 708.398438 C 397.722656 708.398438 416.132812 708.398438 434.539062 708.398438 C 450.773438 708.398438 467.007812 708.398438 483.242188 708.398438 C 493.472656 708.398438 503.703125 708.398438 513.933594 708.398438 C 515.621094 708.398438 517.308594 708.417969 518.996094 708.398438 C 531.265625 708.253906 540.996094 698.425781 541.226562 686.210938 C 541.394531 677.316406 541.421875 668.417969 541.523438 659.527344 C 541.71875 641.710938 541.914062 623.894531 542.113281 606.078125 C 542.273438 591.519531 542.433594 576.964844 542.597656 562.40625 C 542.621094 560.15625 542.644531 557.902344 542.671875 555.648438 C 542.726562 550.574219 534.839844 550.570312 534.785156 555.648438 Z M 201.855469 344.988281 C 201.855469 339.914062 193.96875 339.90625 193.96875 344.988281 C 193.96875 351.554688 193.96875 358.117188 193.96875 364.683594 C 193.96875 380.441406 193.96875 396.199219 193.96875 411.957031 C 193.96875 430.945312 193.96875 449.933594 193.96875 468.917969 C 193.96875 485.332031 193.96875 501.75 193.96875 518.164062 C 193.96875 526.152344 193.695312 534.199219 193.96875 542.183594 C 193.972656 542.296875 193.96875 542.40625 193.96875 542.519531 C 193.96875 547.59375 201.855469 547.601562 201.855469 542.519531 C 201.855469 535.953125 201.855469 529.390625 201.855469 522.828125 C 201.855469 507.066406 201.855469 491.308594 201.855469 475.550781 C 201.855469 456.5625 201.855469 437.578125 201.855469 418.589844 C 201.855469 402.175781 201.855469 385.761719 201.855469 369.347656 C 201.855469 361.355469 202.128906 353.3125 201.855469 345.324219 C 201.851562 345.210938 201.855469 345.101562 201.855469 344.988281 Z M 201.855469 344.988281 " fill-opacity="1" fill-rule="nonzero"/></g><path fill="#2f72b1" d="M 315.917969 529.878906 C 330.957031 529.878906 346 529.878906 361.039062 529.878906 C 370.480469 529.878906 379.921875 529.878906 389.363281 529.878906 C 394.445312 529.878906 394.4375 537.765625 389.363281 537.765625 C 385.917969 537.765625 382.472656 537.765625 379.03125 537.765625 C 363.988281 537.765625 348.949219 537.765625 333.90625 537.765625 C 324.464844 537.765625 315.023438 537.765625 305.585938 537.765625 C 300.5 537.765625 300.507812 529.878906 305.585938 529.878906 C 309.027344 529.878906 312.472656 529.878906 315.917969 529.878906 Z M 305.582031 474.667969 C 317.335938 474.667969 329.089844 474.667969 340.84375 474.667969 C 342.515625 474.667969 344.191406 474.667969 345.867188 474.667969 C 350.941406 474.667969 350.949219 466.78125 345.867188 466.78125 C 334.113281 466.78125 322.359375 466.78125 310.605469 466.78125 C 308.933594 466.78125 307.257812 466.78125 305.582031 466.78125 C 300.507812 466.78125 300.5 474.667969 305.582031 474.667969 Z M 305.582031 411.578125 C 315.964844 411.578125 326.347656 411.578125 336.730469 411.578125 C 338.199219 411.578125 339.664062 411.578125 341.132812 411.578125 C 346.207031 411.578125 346.21875 403.691406 341.132812 403.691406 C 330.753906 403.691406 320.371094 403.691406 309.988281 403.691406 C 308.519531 403.691406 307.050781 403.691406 305.582031 403.691406 C 300.507812 403.691406 300.5 411.578125 305.582031 411.578125 Z M 305.582031 443.121094 C 315.964844 443.121094 326.347656 443.121094 336.730469 443.121094 C 338.199219 443.121094 339.664062 443.121094 341.132812 443.121094 C 346.207031 443.121094 346.21875 435.238281 341.132812 435.238281 C 330.753906 435.238281 320.371094 435.238281 309.988281 435.238281 C 308.519531 435.238281 307.050781 435.238281 305.582031 435.238281 C 300.507812 435.238281 300.5 443.121094 305.582031 443.121094 Z M 507.164062 624.515625 C 500.460938 624.515625 493.753906 624.515625 487.050781 624.515625 C 471.019531 624.515625 454.988281 624.515625 438.960938 624.515625 C 419.574219 624.515625 400.1875 624.515625 380.804688 624.515625 C 363.988281 624.515625 347.175781 624.515625 330.359375 624.515625 C 322.234375 624.515625 314.054688 624.246094 305.929688 624.515625 C 305.816406 624.519531 305.699219 624.515625 305.585938 624.515625 C 300.507812 624.515625 300.5 632.402344 305.585938 632.402344 C 312.289062 632.402344 318.992188 632.402344 325.699219 632.402344 C 341.730469 632.402344 357.757812 632.402344 373.789062 632.402344 C 393.175781 632.402344 412.558594 632.402344 431.945312 632.402344 C 448.757812 632.402344 465.574219 632.402344 482.386719 632.402344 C 490.515625 632.402344 498.695312 632.675781 506.816406 632.402344 C 506.933594 632.398438 507.050781 632.402344 507.164062 632.402344 C 512.238281 632.402344 512.246094 624.515625 507.164062 624.515625 Z M 656.9375 394.570312 C 654.683594 404.96875 654.742188 415.90625 656.824219 426.328125 C 661.085938 447.660156 673.394531 467.453125 691.734375 479.425781 C 695.972656 482.191406 692.019531 489.019531 687.753906 486.234375 C 676.535156 478.910156 667.199219 468.984375 660.378906 457.460938 C 648.375 437.175781 644.085938 412.09375 650.125 389.175781 C 655.984375 366.921875 670.066406 348.414062 685.066406 331.285156 C 661.578125 335.023438 637.089844 323.023438 623.046875 304.285156 C 612.207031 289.8125 607.625 271.84375 607.566406 253.808594 C 605.121094 254.628906 602.644531 255.363281 600.140625 255.921875 C 584.492188 259.398438 568.042969 257.867188 552.792969 253.253906 C 538.949219 249.070312 525.539062 242.597656 515.007812 232.511719 C 508.789062 226.554688 503.683594 219.117188 501.347656 210.90625 C 497.804688 216.820312 493.761719 222.433594 489.242188 227.65625 C 476.082031 242.863281 458.484375 254.597656 438.746094 259.097656 C 418.289062 263.761719 395.996094 261.121094 378.101562 249.800781 C 373.816406 247.09375 377.78125 240.269531 382.082031 242.992188 C 391.066406 248.675781 401.347656 252.113281 411.933594 253.09375 C 431.226562 254.886719 450.234375 249.316406 466.019531 238.230469 C 481.347656 227.464844 493.023438 212.027344 500.777344 195.097656 C 502.355469 191.65625 508.625 193.246094 508.125 197.085938 C 507.785156 199.703125 507.679688 202.398438 508.046875 205.019531 C 509.644531 216.34375 517.988281 225.753906 526.925781 232.261719 C 537.71875 240.125 550.539062 245.089844 563.535156 247.894531 C 576.910156 250.78125 591.011719 250.847656 604.125 246.675781 C 605.382812 246.273438 606.628906 245.824219 607.863281 245.34375 C 608.46875 237.09375 609.96875 228.941406 612.203125 221.21875 C 614.203125 214.289062 616.722656 206.644531 622.519531 201.925781 C 628.21875 197.289062 636.800781 196.003906 642.714844 200.980469 C 647.914062 205.347656 648.1875 212.867188 646.375 218.925781 C 644.429688 225.4375 640.203125 231.265625 635.613281 236.179688 C 629.949219 242.234375 623.015625 247.085938 615.476562 250.644531 C 614.96875 271.203125 620.816406 292.4375 635.808594 306.941406 C 651.03125 321.675781 675.375 329.359375 695.371094 320.023438 C 699.398438 318.144531 703.25 322.792969 700.152344 326.21875 C 690.320312 337.085938 680.464844 348.03125 672.324219 360.253906 C 665.332031 370.75 659.625 382.179688 656.9375 394.570312 Z M 616.128906 241.46875 C 622.609375 237.828125 628.445312 233.03125 632.996094 227.164062 C 636.214844 223.019531 639.394531 217.964844 639.53125 212.546875 C 639.648438 207.871094 636.449219 204.613281 631.457031 205.957031 C 625.589844 207.539062 622.886719 213.796875 621.128906 219.054688 C 619.0625 225.230469 617.546875 231.605469 616.570312 238.042969 C 616.398438 239.175781 616.261719 240.320312 616.128906 241.46875 Z M 507.164062 561.425781 C 500.460938 561.425781 493.753906 561.425781 487.050781 561.425781 C 471.019531 561.425781 454.988281 561.425781 438.960938 561.425781 C 419.574219 561.425781 400.1875 561.425781 380.804688 561.425781 C 363.988281 561.425781 347.175781 561.425781 330.359375 561.425781 C 322.234375 561.425781 314.054688 561.152344 305.929688 561.425781 C 305.816406 561.429688 305.699219 561.425781 305.585938 561.425781 C 300.507812 561.425781 300.5 569.3125 305.585938 569.3125 C 312.289062 569.3125 318.992188 569.3125 325.699219 569.3125 C 341.730469 569.3125 357.757812 569.3125 373.789062 569.3125 C 393.175781 569.3125 412.558594 569.3125 431.945312 569.3125 C 448.757812 569.3125 465.574219 569.3125 482.386719 569.3125 C 490.515625 569.3125 498.695312 569.582031 506.816406 569.3125 C 506.933594 569.308594 507.050781 569.3125 507.164062 569.3125 C 512.238281 569.3125 512.246094 561.425781 507.164062 561.425781 Z M 507.164062 592.972656 C 500.460938 592.972656 493.753906 592.972656 487.050781 592.972656 C 471.019531 592.972656 454.988281 592.972656 438.960938 592.972656 C 419.574219 592.972656 400.1875 592.972656 380.804688 592.972656 C 363.988281 592.972656 347.175781 592.972656 330.359375 592.972656 C 322.234375 592.972656 314.054688 592.699219 305.929688 592.972656 C 305.816406 592.976562 305.699219 592.972656 305.585938 592.972656 C 300.507812 592.972656 300.5 600.859375 305.585938 600.859375 C 312.289062 600.859375 318.992188 600.859375 325.699219 600.859375 C 341.730469 600.859375 357.757812 600.859375 373.789062 600.859375 C 393.175781 600.859375 412.558594 600.859375 431.945312 600.859375 C 448.757812 600.859375 465.574219 600.859375 482.386719 600.859375 C 490.515625 600.859375 498.695312 601.128906 506.816406 600.859375 C 506.933594 600.855469 507.050781 600.859375 507.164062 600.859375 C 512.238281 600.859375 512.246094 592.972656 507.164062 592.972656 Z M 507.164062 656.0625 C 500.460938 656.0625 493.753906 656.0625 487.050781 656.0625 C 471.019531 656.0625 454.988281 656.0625 438.960938 656.0625 C 419.574219 656.0625 400.1875 656.0625 380.804688 656.0625 C 363.988281 656.0625 347.175781 656.0625 330.359375 656.0625 C 322.234375 656.0625 314.054688 655.792969 305.929688 656.0625 C 305.816406 656.066406 305.699219 656.0625 305.585938 656.0625 C 300.507812 656.0625 300.5 663.949219 305.585938 663.949219 C 312.289062 663.949219 318.992188 663.949219 325.699219 663.949219 C 341.730469 663.949219 357.757812 663.949219 373.789062 663.949219 C 393.175781 663.949219 412.558594 663.949219 431.945312 663.949219 C 448.757812 663.949219 465.574219 663.949219 482.386719 663.949219 C 490.515625 663.949219 498.695312 664.222656 506.816406 663.949219 C 506.933594 663.945312 507.050781 663.949219 507.164062 663.949219 C 512.238281 663.949219 512.246094 656.0625 507.164062 656.0625 Z M 507.164062 656.0625 " fill-opacity="1" fill-rule="nonzero"/></svg>